<?xml version="1.0" encoding="utf-8"?>
<!-- Generator: Adobe Illustrator 27.9.0, SVG Export Plug-In . SVG Version: 6.00 Build 0)  -->
<svg version="1.1" id="Capa_1" xmlns="http://www.w3.org/2000/svg" xmlns:xlink="http://www.w3.org/1999/xlink" x="0px" y="0px"
	 viewBox="0 0 2000 1350" enable-background="new 0 0 2000 1350" xml:space="preserve">
<image overflow="visible" width="2000" height="1350" xlink:href="../../background final.png" >
</image>
<circle fill="#FFFFFF" cx="128" cy="639" r="7"/>
<circle fill="#FFFFFF" cx="137" cy="1007" r="6"/>
<g>
	<g opacity="0.8">
		<path fill="#FFFFFF" d="M1887.35,371.59h-5.07c-0.06-14.31-3.91-27.73-10.58-39.34l4.44-2.55c-5.73-9.99-13.3-18.59-22.51-25.55
			l-3.08,4.08c-4.27-3.23-8.86-6.05-13.73-8.38l2.2-4.6c-11.47-5.49-23.78-8.27-36.59-8.27c-46.83,0-84.93,38.1-84.93,84.99
			l1.8,0.06l3.27-0.08c0.01,14.36,3.84,27.84,10.51,39.49l-4.44,2.54c5.71,10,13.27,18.61,22.45,25.59l3.09-4.07
			c4.26,3.24,8.84,6.07,13.71,8.41l-2.21,4.59c11.52,5.53,23.88,8.34,36.74,8.34c46.83,0,84.93-38.1,84.93-84.99L1887.35,371.59z
			 M1754.99,434.42L1754.99,434.42c-2.1-1.61-4.12-3.31-6.04-5.1c-0.04-0.04-0.08-0.07-0.12-0.11c-0.89-0.83-1.75-1.68-2.6-2.54
			c-0.14-0.15-0.29-0.3-0.43-0.45c-0.75-0.78-1.48-1.57-2.19-2.38c-0.17-0.19-0.33-0.38-0.49-0.57c-0.7-0.81-1.39-1.63-2.05-2.46
			c-0.13-0.16-0.25-0.32-0.38-0.48c-0.71-0.91-1.41-1.83-2.08-2.78c-0.05-0.07-0.1-0.14-0.15-0.22c-1.5-2.11-2.9-4.3-4.2-6.57
			l-0.01,0c-6.56-11.47-10.33-24.72-10.33-38.85l0.06,0c0-43.25,35.19-78.45,78.45-78.45c11.83,0,23.2,2.57,33.79,7.63l0.01-0.03
			c4.79,2.29,9.3,5.06,13.5,8.24l-0.01,0.01c2.12,1.61,4.15,3.31,6.09,5.1c0.01,0,0.01,0.01,0.02,0.02c0.92,0.86,1.82,1.74,2.7,2.64
			c0.13,0.14,0.26,0.27,0.39,0.41c0.76,0.79,1.51,1.59,2.24,2.41c0.16,0.18,0.32,0.36,0.47,0.55c0.71,0.81,1.4,1.63,2.07,2.48
			c0.12,0.15,0.24,0.31,0.37,0.47c0.72,0.91,1.41,1.83,2.09,2.77c0.05,0.07,0.1,0.14,0.15,0.21c1.5,2.11,2.91,4.29,4.21,6.56l0.01,0
			c6.56,11.41,10.34,24.6,10.4,38.66h-0.05l0,0.33c0,43.25-35.19,78.45-78.45,78.45c-11.89,0-23.3-2.59-33.93-7.7l-0.01,0.03
			C1763.69,440.39,1759.18,437.61,1754.99,434.42z"/>
		<circle fill="#FFFFFF" cx="1802.35" cy="371.92" r="73.97"/>
	</g>
	<g opacity="0.8">
		<path fill="none" stroke="#FFFFFF" stroke-width="2" stroke-miterlimit="10" d="M1748.87,442.49
			c-9.59-7.29-17.47-16.27-23.43-26.7"/>
		<path fill="none" stroke="#FFFFFF" stroke-width="2" stroke-miterlimit="10" d="M1713.83,371.92c0-48.84,39.74-88.58,88.58-88.58
			c13.36,0,26.2,2.9,38.16,8.62"/>
		<path fill="none" stroke="#FFFFFF" stroke-width="2" stroke-miterlimit="10" d="M1855.82,301.24c9.6,7.27,17.5,16.23,23.48,26.65"
			/>
		<path fill="none" stroke="#FFFFFF" stroke-width="2" stroke-miterlimit="10" d="M1891,371.55v0.37
			c0,48.84-39.74,88.58-88.58,88.58c-13.42,0-26.32-2.93-38.32-8.69"/>
	</g>
	<g opacity="0.8">
		<path fill="#333333" d="M1808.29,421.14c0,2.31-12.02,2.31-12.02,0C1796.28,418.83,1808.29,418.83,1808.29,421.14"/>
		<path fill="#333333" d="M1803.47,375.8c-9.72,0.63-18.1-6.74-18.72-16.48c-0.63-9.68,6.78-18.08,16.49-18.69
			c9.7-0.61,18.07,6.76,18.69,16.48c0.6,9.7-6.76,18.08-16.48,18.69H1803.47z M1802.35,321.34c-18.39,0-33.24,14.89-33.24,33.24
			c0,5.85,1.5,11.35,4.21,16.09l-0.04,0.04l26.61,39.82c1.16,1.75,3.76,1.75,4.92,0l26.57-39.82v-0.04
			c2.78-4.9,4.23-10.45,4.21-16.09C1835.6,336.23,1820.67,321.34,1802.35,321.34z"/>
		<path fill="none" stroke="#333333" stroke-miterlimit="10" d="M1817.92,421.07c0,5.43-30.93,5.43-30.93,0
			C1786.99,415.64,1817.92,415.64,1817.92,421.07"/>
	</g>
	<g opacity="0.8">
		<path fill="#FFFFFF" d="M1791.1,845.01h-3.33c-0.04-9.4-2.57-18.23-6.96-25.85l2.92-1.67c-3.77-6.57-8.74-12.22-14.79-16.79
			l-2.03,2.68c-2.8-2.12-5.82-3.97-9.02-5.51l1.45-3.02c-7.54-3.61-15.63-5.43-24.05-5.43c-30.78,0-55.82,25.04-55.82,55.86
			l1.18,0.04l2.15-0.05c0,9.44,2.52,18.3,6.91,25.96l-2.92,1.67c3.76,6.57,8.72,12.23,14.76,16.82l2.03-2.68
			c2.8,2.13,5.81,3.99,9.01,5.53l-1.45,3.02c7.57,3.64,15.69,5.48,24.15,5.48c30.78,0,55.82-25.04,55.82-55.86L1791.1,845.01z
			 M1704.11,886.3L1704.11,886.3c-1.38-1.06-2.71-2.18-3.97-3.35c-0.03-0.02-0.05-0.05-0.08-0.07c-0.58-0.54-1.15-1.1-1.71-1.67
			c-0.1-0.1-0.19-0.2-0.28-0.3c-0.49-0.51-0.97-1.03-1.44-1.56c-0.11-0.12-0.22-0.25-0.32-0.38c-0.46-0.53-0.91-1.07-1.35-1.62
			c-0.08-0.11-0.17-0.21-0.25-0.32c-0.47-0.6-0.93-1.2-1.37-1.82c-0.03-0.05-0.07-0.09-0.1-0.14c-0.99-1.39-1.91-2.83-2.76-4.32l0,0
			c-4.31-7.54-6.79-16.25-6.79-25.53l0.04,0c0-28.43,23.13-51.56,51.56-51.56c7.78,0,15.25,1.69,22.21,5.02l0.01-0.02
			c3.15,1.51,6.11,3.33,8.87,5.41l-0.01,0.01c1.4,1.06,2.73,2.17,4,3.35c0,0,0.01,0.01,0.01,0.01c0.61,0.56,1.2,1.14,1.78,1.73
			c0.09,0.09,0.17,0.18,0.26,0.27c0.5,0.52,0.99,1.05,1.47,1.59c0.11,0.12,0.21,0.24,0.31,0.36c0.46,0.53,0.92,1.07,1.36,1.63
			c0.08,0.1,0.16,0.2,0.24,0.31c0.47,0.6,0.93,1.2,1.37,1.82c0.03,0.05,0.07,0.09,0.1,0.14c0.99,1.38,1.91,2.82,2.76,4.31l0,0
			c4.31,7.5,6.8,16.17,6.84,25.41h-0.03l0,0.22c0,28.43-23.13,51.56-51.56,51.56c-7.81,0-15.32-1.7-22.3-5.06l-0.01,0.02
			C1709.82,890.23,1706.86,888.4,1704.11,886.3z"/>
		<circle fill="#FFFFFF" cx="1735.24" cy="845.22" r="48.62"/>
	</g>
	<g opacity="0.8">
		<path fill="none" stroke="#FFFFFF" stroke-width="0.75" stroke-miterlimit="10" d="M1700.08,891.61
			c-6.3-4.79-11.48-10.69-15.4-17.55"/>
		<path fill="none" stroke="#FFFFFF" stroke-width="0.75" stroke-miterlimit="10" d="M1677.06,845.22
			c0-32.1,26.12-58.22,58.22-58.22c8.78,0,17.22,1.91,25.08,5.66"/>
		<path fill="none" stroke="#FFFFFF" stroke-width="0.75" stroke-miterlimit="10" d="M1770.38,798.77
			c6.31,4.78,11.5,10.67,15.43,17.52"/>
		<path fill="none" stroke="#FFFFFF" stroke-width="0.75" stroke-miterlimit="10" d="M1793.5,844.98v0.24
			c0,32.1-26.12,58.22-58.22,58.22c-8.82,0-17.3-1.92-25.19-5.71"/>
	</g>
	<path opacity="0.8" fill="#333333" d="M1749.35,821.04c-0.86-0.86-2.04-1.39-3.34-1.39h-21.72c-1.43,0-2.71,0.63-3.58,1.63
		c-0.72,0.83-1.15,1.91-1.15,3.1v41.98c0,1.03,0.33,1.98,0.89,2.76c0.86,1.19,2.26,1.97,3.84,1.97h21.72c1.51,0,2.86-0.71,3.73-1.82
		c0.63-0.8,1-1.81,1-2.91v-41.98C1750.74,823.08,1750.21,821.9,1749.35,821.04z M1739.38,822.62c0-0.17,0.07-0.32,0.18-0.43
		c0.11-0.11,0.26-0.18,0.43-0.18h1.08c0.16,0,0.3,0.06,0.4,0.15c0.13,0.11,0.2,0.27,0.2,0.45l0,0c0,0.16-0.06,0.3-0.16,0.41
		c-0.11,0.12-0.27,0.2-0.45,0.2h-1.08c-0.19,0-0.36-0.09-0.47-0.22C1739.43,822.9,1739.38,822.77,1739.38,822.62L1739.38,822.62z
		 M1731.42,822.62c0-0.17,0.07-0.32,0.18-0.43c0.11-0.11,0.26-0.18,0.43-0.18h5.17c0.16,0,0.3,0.06,0.4,0.15
		c0.13,0.11,0.2,0.27,0.2,0.45l0,0c0,0.16-0.06,0.3-0.16,0.41c-0.11,0.12-0.27,0.2-0.45,0.2h-5.17c-0.19,0-0.36-0.09-0.47-0.22
		C1731.47,822.9,1731.42,822.77,1731.42,822.62L1731.42,822.62z M1729.22,822.02c0.34,0,0.61,0.27,0.61,0.61s-0.27,0.61-0.61,0.61
		c-0.33,0-0.61-0.27-0.61-0.61S1728.89,822.02,1729.22,822.02z M1735.15,868.93c-0.85,0-1.53-0.69-1.53-1.53s0.69-1.53,1.53-1.53
		s1.53,0.69,1.53,1.53S1735.99,868.93,1735.15,868.93z M1748.29,863.65H1722v-38.29h26.29V863.65z"/>
	<g opacity="0.8">
		<path fill="#FFFFFF" d="M1195.24,769.96h-5.69c-0.07-16.04-4.39-31.1-11.87-44.11l4.98-2.86c-6.43-11.2-14.92-20.84-25.24-28.65
			l-3.46,4.57c-4.78-3.62-9.94-6.78-15.4-9.4l2.47-5.15c-12.86-6.15-26.67-9.27-41.03-9.27c-52.51,0-95.24,42.72-95.24,95.31
			l2.01,0.06l3.67-0.09c0.01,16.1,4.31,31.21,11.79,44.28l-4.98,2.85c6.41,11.22,14.88,20.87,25.18,28.7l3.47-4.57
			c4.78,3.63,9.92,6.81,15.37,9.43l-2.47,5.15c12.91,6.21,26.78,9.35,41.2,9.35c52.51,0,95.24-42.72,95.24-95.31L1195.24,769.96z
			 M1046.82,840.42l0.01-0.01c-2.37-1.8-4.63-3.7-6.78-5.71c-0.04-0.04-0.09-0.08-0.13-0.12c-0.99-0.93-1.96-1.88-2.91-2.85
			c-0.16-0.17-0.32-0.34-0.48-0.5c-0.84-0.87-1.66-1.76-2.46-2.66c-0.19-0.21-0.37-0.43-0.55-0.64c-0.78-0.91-1.55-1.82-2.3-2.76
			c-0.14-0.18-0.28-0.36-0.43-0.54c-0.8-1.02-1.58-2.06-2.34-3.11c-0.06-0.08-0.11-0.16-0.17-0.24c-1.68-2.37-3.25-4.83-4.71-7.37
			l-0.01,0c-7.36-12.86-11.58-27.72-11.58-43.56l0.06,0c0-48.5,39.46-87.97,87.96-87.97c13.27,0,26.02,2.88,37.89,8.56l0.01-0.03
			c5.37,2.57,10.43,5.68,15.13,9.24l-0.01,0.01c2.38,1.8,4.66,3.71,6.83,5.72c0.01,0.01,0.01,0.01,0.02,0.02
			c1.04,0.96,2.04,1.95,3.03,2.95c0.15,0.15,0.29,0.31,0.44,0.46c0.85,0.89,1.69,1.79,2.51,2.71c0.18,0.2,0.35,0.41,0.53,0.61
			c0.79,0.91,1.57,1.83,2.32,2.78c0.14,0.17,0.27,0.35,0.41,0.52c0.8,1.02,1.59,2.05,2.34,3.11c0.06,0.08,0.11,0.16,0.17,0.24
			c1.68,2.36,3.26,4.81,4.72,7.35l0.01,0c7.35,12.79,11.6,27.58,11.67,43.35h-0.06l0,0.37c0,48.5-39.46,87.97-87.97,87.97
			c-13.33,0-26.13-2.91-38.05-8.63l-0.02,0.03C1056.57,847.12,1051.51,843.99,1046.82,840.42z"/>
		<circle fill="#FFFFFF" cx="1099.93" cy="770.33" r="82.94"/>
	</g>
	<g opacity="0.6">
		<path fill="none" stroke="#FFFFFF" stroke-width="2" stroke-miterlimit="10" d="M1039.96,849.47
			c-10.75-8.17-19.59-18.24-26.27-29.94"/>
		<path fill="none" stroke="#FFFFFF" stroke-width="2" stroke-miterlimit="10" d="M1000.67,770.33c0-54.77,44.56-99.33,99.33-99.33
			c14.98,0,29.38,3.25,42.79,9.66"/>
		<path fill="none" stroke="#FFFFFF" stroke-width="2" stroke-miterlimit="10" d="M1159.88,691.08
			c10.77,8.15,19.62,18.2,26.33,29.89"/>
		<path fill="none" stroke="#FFFFFF" stroke-width="2" stroke-miterlimit="10" d="M1199.33,769.92v0.42
			c0,54.77-44.56,99.33-99.33,99.33c-15.05,0-29.51-3.28-42.97-9.75"/>
	</g>
	<g opacity="0.8">
		<path fill="#333333" d="M1098.96,728.03c-0.08,0-0.16,0-0.23,0C1098.8,728.03,1098.88,728.03,1098.96,728.03L1098.96,728.03z"/>
		<path fill="#333333" d="M1150.71,753.93c-0.41-0.21-0.87-0.4-1.45-0.61c-0.49-0.18-1.34-0.59-2.14-1.15
			c0.29-0.53,0.59-1.05,0.88-1.58c0.57-1.02,1.51-1.78,2.63-2.11c2.86-0.84,5.72-1.69,8.58-2.53c0.63-0.19,0.94-0.89,0.65-1.49
			c-0.37-0.75-0.73-1.5-1.1-2.26c-0.35-0.72-1.11-1.16-1.91-1.11c-2.98,0.2-5.96,0.4-8.93,0.6c-0.78,0.05-1.37,0.72-1.33,1.49
			c0.04,0.94,0.09,1.88,0.13,2.83c0.04,0.91-0.23,1.81-0.78,2.54c-0.3,0.4-0.6,0.8-0.9,1.21c-1.6-2.75-6.01-10.56-8.34-18.06
			c-0.55-1.77-2.05-3.09-3.88-3.41c-0.21-0.04-0.42-0.07-0.63-0.11c-1.51-0.26-3.06-0.5-4.66-0.74c-8.41-1.23-18-2.08-28.58-2.08
			c-0.25,0-0.49,0-0.74,0c-10.31,0.04-19.67,0.88-27.85,2.08c-0.87,0.13-1.72,0.26-2.56,0.39c-0.07,0.01-0.13,0.02-0.2,0.03
			c-1.62,0.26-3.01,1.3-3.7,2.79c-1.82,3.87-5.53,11.92-9.06,19.14c-0.31-0.42-0.62-0.83-0.92-1.25c-0.54-0.73-0.82-1.63-0.78-2.54
			c0.04-0.94,0.09-1.88,0.13-2.83c0.04-0.78-0.56-1.44-1.33-1.49c-2.98-0.2-5.96-0.4-8.93-0.6c-0.8-0.05-1.56,0.39-1.91,1.11
			c-0.37,0.75-0.73,1.51-1.1,2.26c-0.29,0.59,0.02,1.3,0.65,1.49c2.86,0.84,5.72,1.69,8.58,2.53c1.12,0.33,2.07,1.09,2.63,2.11
			c0.36,0.65,0.72,1.3,1.08,1.94c-1.14,0.98-2.56,1.67-3.22,1.91c-0.44,0.16-0.88,0.34-1.3,0.55c-4.87,2.46-8.23,7.48-8.29,13.3
			c0,0.13,0.39,4.55,0.42,4.68c0.1,0.9,2.25,16.2,2.77,29.54c0.1,2.45,0.14,4.83,0.1,7.05c0.1,0.38,0.25,0.73,0.46,1.05
			c0.62,0.96,1.71,1.6,2.94,1.6h19.64c1.93,0,3.51-1.57,3.51-3.51v-2.68c0-1.93-1.57-3.51-3.51-3.51h-12.25
			c-0.43,0-0.78-0.37-0.74-0.81c0-0.01,0-0.01,0-0.02c0.03-0.39,0.36-0.68,0.74-0.68c30.47,0.09,60.93,0.17,91.4,0.26
			c0.34,0,0.62,0.28,0.62,0.62c0,0.17-0.07,0.33-0.18,0.44c-0.11,0.11-0.27,0.18-0.44,0.18h-12.21c-1.93,0-3.51,1.57-3.51,3.51v2.68
			c0,1.93,1.57,3.51,3.51,3.51h19.64c1.18,0,2.23-0.59,2.86-1.48c0.24-0.34,0.43-0.73,0.54-1.14c-0.03-2.1,0.01-4.47,0.11-7.07
			c0.31-7.77,1.22-17.58,2.66-28.56c0.05-0.36,0.08-0.6,0.09-0.69l0,0c0.09-0.78,0.43-4.7,0.43-4.85
			C1159.67,762.25,1156.21,756.71,1150.71,753.93z M1098.96,728.03L1098.96,728.03c-0.08,0-0.16,0-0.23,0
			C1098.8,728.03,1098.88,728.03,1098.96,728.03z M1067.88,737.75c0.04-0.08,0.08-0.16,0.11-0.24c0.47-1.01,0.88-1.89,1.22-2.62
			c0.3-0.64,0.89-1.08,1.59-1.19c9.22-1.48,18.64-2.25,27.98-2.29c0.23,0,0.45,0,0.68,0c10.34,0,20.76,0.9,30.96,2.67
			c0.45,0.08,0.84,0.29,1.15,0.6l9.52,20.5l-6.38,0.62c-22.85,2.2-45.86,2.2-68.71,0l-6.38-0.62L1067.88,737.75z M1124.27,779.81
			h-47.8c-0.62,0-0.97-0.87-0.6-1.48l2.13-3.52c0.32-0.53,0.82-0.83,1.35-0.83h41.95c0.52,0,1.01,0.3,1.33,0.81l2.22,3.53
			C1125.24,778.92,1124.89,779.81,1124.27,779.81z M1070.47,774.88l-2.37,3.08c-0.26,0.34-0.67,0.54-1.11,0.54
			c-4-0.04-8-0.08-12.01-0.12c-0.51,0-1-0.21-1.36-0.58c-1.97-2.01-3.95-4.02-5.92-6.03c-0.23-0.23-0.37-0.53-0.39-0.85
			c-0.05-0.63-0.03-1.45,0.19-2.37c0.26-1.08,0.72-1.94,1.15-2.55c0.36-0.52,1.02-0.73,1.61-0.51c6.53,2.42,13.06,4.84,19.58,7.26
			C1070.72,773.07,1071.03,774.14,1070.47,774.88z M1129.91,792.32c0,0.83-0.67,1.5-1.5,1.5h-56.07c-0.83,0-1.5-0.67-1.5-1.5v-4.07
			c0-0.83,0.67-1.5,1.5-1.5h56.07c0.83,0,1.5,0.67,1.5,1.5V792.32z M1153.25,770.92c-0.02,0.32-0.16,0.62-0.39,0.85
			c-1.97,2.01-3.95,4.02-5.92,6.03c-0.36,0.37-0.85,0.57-1.36,0.58c-4,0.04-8,0.08-12.01,0.12c-0.43,0-0.84-0.2-1.11-0.54
			l-2.37-3.08c-0.57-0.74-0.26-1.81,0.61-2.13c6.53-2.42,13.06-4.84,19.58-7.26c0.59-0.22,1.25-0.01,1.61,0.51
			c0.43,0.62,0.89,1.47,1.15,2.55C1153.29,769.47,1153.3,770.29,1153.25,770.92z"/>
	</g>
	<g>
		<g opacity="0.8">
			<path fill="#FFFFFF" d="M1053.01,98.38h-3.12c-0.04-8.79-2.4-17.03-6.5-24.16l2.73-1.57c-3.52-6.14-8.17-11.42-13.83-15.69
				l-1.89,2.5c-2.62-1.98-5.44-3.71-8.43-5.15l1.35-2.82c-7.05-3.37-14.61-5.08-22.48-5.08c-28.77,0-52.17,23.4-52.17,52.21
				l1.1,0.03l2.01-0.05c0,8.82,2.36,17.1,6.46,24.26l-2.73,1.56c3.51,6.14,8.15,11.43,13.79,15.72l1.9-2.5
				c2.62,1.99,5.43,3.73,8.42,5.17l-1.36,2.82c7.07,3.4,14.67,5.12,22.57,5.12c28.77,0,52.17-23.4,52.17-52.21L1053.01,98.38z
				 M971.7,136.98L971.7,136.98c-1.29-0.99-2.53-2.03-3.71-3.13c-0.02-0.02-0.05-0.05-0.07-0.07c-0.54-0.51-1.08-1.03-1.59-1.56
				c-0.09-0.09-0.18-0.18-0.26-0.28c-0.46-0.48-0.91-0.96-1.35-1.46c-0.1-0.12-0.2-0.23-0.3-0.35c-0.43-0.5-0.85-1-1.26-1.51
				c-0.08-0.1-0.16-0.2-0.23-0.3c-0.44-0.56-0.87-1.13-1.28-1.7c-0.03-0.04-0.06-0.09-0.09-0.13c-0.92-1.3-1.78-2.64-2.58-4.04l0,0
				c-4.03-7.04-6.35-15.19-6.35-23.87l0.04,0c0-26.57,21.62-48.19,48.19-48.19c7.27,0,14.25,1.58,20.76,4.69l0.01-0.02
				c2.94,1.41,5.72,3.11,8.29,5.06l-0.01,0.01c1.31,0.99,2.55,2.03,3.74,3.13c0,0,0.01,0.01,0.01,0.01
				c0.57,0.53,1.12,1.07,1.66,1.62c0.08,0.08,0.16,0.17,0.24,0.25c0.47,0.49,0.93,0.98,1.37,1.48c0.1,0.11,0.19,0.22,0.29,0.34
				c0.43,0.5,0.86,1,1.27,1.52c0.08,0.09,0.15,0.19,0.23,0.29c0.44,0.56,0.87,1.12,1.28,1.7c0.03,0.04,0.06,0.09,0.09,0.13
				c0.92,1.29,1.79,2.64,2.58,4.03l0,0c4.03,7.01,6.35,15.11,6.39,23.75h-0.03l0,0.2c0,26.57-21.62,48.19-48.19,48.19
				c-7.3,0-14.32-1.59-20.85-4.73l-0.01,0.02C977.04,140.65,974.27,138.94,971.7,136.98z"/>
			<circle fill="#FFFFFF" cx="1000.79" cy="98.58" r="45.44"/>
		</g>
		<g opacity="0.8">
			<path fill="none" stroke="#FFFFFF" stroke-miterlimit="10" d="M967.94,141.94c-5.89-4.48-10.73-9.99-14.39-16.4"/>
			<path fill="none" stroke="#FFFFFF" stroke-miterlimit="10" d="M946.42,98.58c0-30.01,24.41-54.42,54.42-54.42
				c8.21,0,16.09,1.78,23.44,5.29"/>
			<path fill="none" stroke="#FFFFFF" stroke-miterlimit="10" d="M1033.64,55.16c5.9,4.46,10.75,9.97,14.42,16.37"/>
			<path fill="none" stroke="#FFFFFF" stroke-miterlimit="10" d="M1055.25,98.36v0.23c0,30.01-24.41,54.42-54.42,54.42
				c-8.25,0-16.17-1.8-23.54-5.34"/>
		</g>
		<g opacity="0.8">
			<path fill="#333333" d="M1013.31,90.93L1013.31,90.93c-2.62,2.5-5.9,5.62-9.17,8.75l0,0L1013.31,90.93z"/>
			<path fill="#333333" d="M999.5,95.11L999.5,95.11c3.11-3.22,6.24-6.47,8.75-9.09h0L999.5,95.11z"/>
			<path fill="#333333" d="M992.71,93.03c0.4,0.4,1.05,0.4,1.45,0l0.73-0.73l-1.66-1.25l-0.52,0.52
				C992.31,91.98,992.31,92.63,992.71,93.03z"/>
			<path fill="#333333" d="M988.58,90.29c0.4,0.4,1.05,0.4,1.45,0l0.93-0.93l-1.66-1.25l-0.73,0.73
				C988.18,89.23,988.18,89.89,988.58,90.29z"/>
			<path fill="#333333" d="M1004.59,104.22c0.4,0.4,1.05,0.4,1.45,0l0.48-0.48l-1.24-1.66l-0.69,0.69
				C1004.19,103.17,1004.19,103.82,1004.59,104.22z"/>
			<path fill="#333333" d="M1007.34,108.35c0.4,0.4,1.05,0.4,1.45,0l0.68-0.68l-1.24-1.66l-0.89,0.89
				C1006.94,107.3,1006.94,107.95,1007.34,108.35z"/>
			<path fill="#333333" d="M1013.7,92.71c-0.2-0.82-0.33-1.42-0.38-1.75c0-0.01,0-0.02,0-0.02l-9.17,8.75
				c0.01,0.01,0.02,0.02,0.02,0.02l13,17.35l2.45-2.45c-0.21-0.77-1.24-4.46-2.41-8.72C1015.88,101.09,1014.39,95.58,1013.7,92.71z"
				/>
			<path fill="#333333" d="M999.5,95.11l8.75-9.09c-0.01,0-0.01,0-0.02,0c-0.08-0.01-0.19-0.03-0.31-0.06
				c-0.24-0.05-0.55-0.12-0.92-0.2c-0.74-0.18-1.73-0.43-2.87-0.73c-2.3-0.6-5.24-1.4-8.14-2.2c-5.26-1.45-10.39-2.9-11.31-3.16
				l-2.45,2.45l17.25,12.97C999.48,95.1,999.49,95.11,999.5,95.11z"/>
			<path fill="#333333" d="M984.47,113.64l1.17,1.17c0,0,0.94-0.24,2.08-0.66l4.16,6.89l1.78-1.78c0,0-0.18-6.07-0.2-9.3
				c2.68-2.61,6.47-6.26,10.31-9.93c0.13-0.12,0.25-0.24,0.38-0.36c3.27-3.13,6.55-6.25,9.17-8.75c0.15-0.14,0.3-0.29,0.45-0.42
				c1.88-1.79,3.38-3.22,4.24-4.03c0.27-0.24,0.54-0.5,0.8-0.76c3.52-3.52,5.2-7.55,3.76-8.99c-1.44-1.44-5.47,0.24-8.99,3.76
				c-0.22,0.22-0.43,0.44-0.64,0.67c-0.81,0.84-2.33,2.43-4.25,4.43c-0.14,0.15-0.28,0.29-0.43,0.44c-2.52,2.62-5.65,5.87-8.75,9.09
				c-0.12,0.13-0.24,0.25-0.37,0.38c-3.81,3.95-7.55,7.81-10.03,10.34c-3.27-0.03-9.09-0.2-9.09-0.2l-1.78,1.78l6.94,4.19
				C984.74,112.73,984.47,113.64,984.47,113.64z M1021.75,77.53c0.81,0.81,0.8,2.14-0.01,3.03l-0.28-0.28
				c0.13-0.68-0.06-1.39-0.56-1.89c-0.5-0.51-1.21-0.69-1.89-0.56l-0.28-0.28C1019.61,76.73,1020.94,76.72,1021.75,77.53z"/>
		</g>
	</g>
	<g opacity="0.8">
		<path fill="#FFFFFF" d="M735.59,853.18h-3.69c-0.04-10.4-2.84-20.17-7.7-28.61l3.23-1.85c-4.17-7.26-9.67-13.52-16.37-18.58
			l-2.24,2.96c-3.1-2.35-6.44-4.4-9.98-6.09l1.6-3.34c-8.34-3.99-17.29-6.01-26.61-6.01c-34.05,0-61.76,27.71-61.76,61.81l1.31,0.04
			l2.38-0.06c0,10.44,2.79,20.24,7.64,28.72l-3.23,1.85c4.15,7.27,9.65,13.53,16.33,18.61l2.25-2.96c3.1,2.36,6.43,4.41,9.97,6.12
			l-1.6,3.34c8.37,4.02,17.36,6.06,26.72,6.06c34.05,0,61.76-27.71,61.76-61.81L735.59,853.18z M639.35,898.87L639.35,898.87
			c-1.53-1.17-3-2.41-4.39-3.71c-0.03-0.03-0.06-0.05-0.08-0.08c-0.64-0.6-1.27-1.22-1.89-1.85c-0.11-0.11-0.21-0.22-0.31-0.33
			c-0.54-0.57-1.08-1.14-1.59-1.73c-0.12-0.14-0.24-0.28-0.36-0.41c-0.51-0.59-1.01-1.18-1.49-1.79c-0.09-0.12-0.18-0.23-0.28-0.35
			c-0.52-0.66-1.03-1.33-1.52-2.02c-0.04-0.05-0.07-0.1-0.11-0.16c-1.09-1.54-2.11-3.13-3.05-4.78l0,0
			c-4.77-8.34-7.51-17.98-7.51-28.25l0.04,0c0-31.45,25.59-57.04,57.04-57.04c8.61,0,16.87,1.87,24.57,5.55l0.01-0.02
			c3.48,1.67,6.77,3.68,9.81,5.99l-0.01,0.01c1.54,1.17,3.02,2.41,4.43,3.71c0,0,0.01,0.01,0.01,0.01c0.67,0.62,1.33,1.26,1.97,1.92
			c0.1,0.1,0.19,0.2,0.28,0.3c0.55,0.57,1.1,1.16,1.63,1.75c0.12,0.13,0.23,0.27,0.34,0.4c0.51,0.59,1.02,1.19,1.51,1.8
			c0.09,0.11,0.18,0.23,0.27,0.34c0.52,0.66,1.03,1.33,1.52,2.01c0.04,0.05,0.07,0.1,0.11,0.16c1.09,1.53,2.11,3.12,3.06,4.77l0,0
			c4.77,8.3,7.52,17.89,7.57,28.11h-0.04l0,0.24c0,31.45-25.59,57.04-57.04,57.04c-8.64,0-16.95-1.88-24.68-5.6l-0.01,0.02
			C645.67,903.21,642.39,901.19,639.35,898.87z"/>
		<circle fill="#FFFFFF" cx="673.79" cy="853.42" r="53.79"/>
	</g>
	<g opacity="0.8">
		<path fill="none" stroke="#FFFFFF" stroke-width="0.75" stroke-miterlimit="10" d="M634.89,904.74
			c-6.97-5.3-12.7-11.83-17.04-19.42"/>
		<path fill="none" stroke="#FFFFFF" stroke-width="0.75" stroke-miterlimit="10" d="M609.42,853.42c0-35.52,28.9-64.42,64.42-64.42
			c9.72,0,19.05,2.11,27.75,6.27"/>
		<path fill="none" stroke="#FFFFFF" stroke-width="0.75" stroke-miterlimit="10" d="M712.67,802.02
			c6.98,5.28,12.73,11.8,17.07,19.38"/>
		<path fill="none" stroke="#FFFFFF" stroke-width="0.75" stroke-miterlimit="10" d="M738.25,853.15v0.27
			c0,35.52-28.9,64.42-64.42,64.42c-9.76,0-19.14-2.13-27.87-6.32"/>
	</g>
	<g opacity="0.8">
		<path fill="#333333" d="M681.29,848.84c0.74-0.45,0.88-0.86,2.26-1.24c1.39-0.37,1.21-2.11,1.08-2.13
			c-2.42-0.44-2.23,0.06-3.81,0.58c-1.58,0.53-4.2-0.13-5.63-0.27c-1.43-0.14-1.31,2.61-0.93,2.95
			C674.64,849.08,680.55,849.29,681.29,848.84L681.29,848.84z"/>
		<path fill="#333333" d="M686.11,849.97l9.97,0.57c0,0,0.5-1.47-0.71-2.47s-7.35-0.46-9.27-0.82
			C684.2,846.88,683.99,849.85,686.11,849.97L686.11,849.97z"/>
		<path fill="#333333" d="M697.75,853.17l-1.28-1.67l-22.19-1.08c-0.32-0.02-0.63,0.15-0.78,0.43c-0.37,0.71,0.64,1.32,0.64,1.32
			c3.89,1.69,6.23,5.54,4.96,8.7c-0.86,2.14-2.44,3.07-3.36,3.44c-13.67,1.37-11.77-6.39-11.77-6.39c1.87-2.48,1.27-4.76,0.72-8.81
			c-0.55-4.05-2.4-3.8-2.4-3.8l3.12-10.62c0.37-0.02,0.73,0,1.11,0.09c0.63,0.14,1.73,0.42,2.01,1.1c0.29,0.72,0.56,0.03,0.56,0.03
			c-0.06-1.18-2.13-1.7-2.24-1.73l3.71,0.32c0.71,0.06,1.28-0.6,1.09-1.29c-0.02-0.06-0.03-0.09-0.04-0.1
			c-0.05-0.02-1.18-0.07-2.31-0.12c-1.13-0.05-2.24-0.09-2.24-0.09c-0.02-0.16-0.17-0.28-0.33-0.27c-1.14,0.05-2.52-0.4-3.34-0.34
			c-0.1,0.03-0.26-0.01-0.36-0.02c-0.15-0.02-0.3-0.05-0.45-0.08c-0.3-0.07-0.6-0.16-0.89-0.25c-0.52-0.16-1.04-0.37-1.56-0.54
			c-0.34-0.12-0.69-0.22-1.03-0.32c-0.74-0.21-1.49-0.4-2.25-0.48c-0.57-0.06-1.25-0.11-1.78,0.17c-0.51,0.28-0.55,0.84-0.42,1.35
			c0.9,3.4,2.72,7.11,4.58,5.28c0.61-0.6,1.4-0.98,2.17-1.35c0.12-0.06,0.25-0.11,0.38-0.16c-0.94,1.97-2.82,6.63-4.07,9.08
			c-0.99,1.94-2.59,2.87-3.68,3.29c-0.74,0.29-1.28,0.94-1.39,1.73l-0.22,1.52c-5.07-0.97-9.22,2.84-11.21,5.13
			c-0.74,0.86-0.66,2.15,0.18,2.91c0.68,0.61,1.47,1.32,2.05,1.85c-3.29,3.23-3.86,8.02-1.25,10.79c2.65,2.82,7.59,2.48,11.02-0.74
			c3.05-2.86,3.89-7.04,2.19-9.92c0.68,0.37,1.09,0.93,1.35,1.48c0.4,0.85,1.39,1.25,2.25,0.86l1.5-0.67l-0.54-2.7
			c0.32,0.63,0.66,1.2,1,1.73c1.62,2.5,4.04,4.31,6.8,5.2c0.68,0.22,1.38,0.38,2.09,0.49c0.16,0.02,0.32,0.03,0.49,0.03h16.79
			c-0.02,0.18-0.03,0.45-0.03,0.68c0,3.99,3.24,7.23,7.23,7.23c3.99,0,7.23-3.24,7.23-7.23c0-0.23-0.01-0.51-0.03-0.68H707
			C707.18,859.66,697.75,853.17,697.75,853.17z M651.72,870.28c-2.02,1.9-4.91,2.09-6.47,0.44c-1.56-1.66-1.18-4.53,0.83-6.43
			c2.01-1.9,4.91-2.09,6.47-0.44C654.11,865.51,653.73,868.39,651.72,870.28z M689.35,866.65l0-0.02c-0.13-0.22-0.25-0.46-0.35-0.73
			c0-0.01-0.01-0.03-0.02-0.03h9.89c-0.12,0.34-0.25,0.51-0.39,0.84h-9.1C689.36,866.71,689.36,866.66,689.35,866.65z
			 M694.32,873.27c-2.57,0-4.65-2.08-4.65-4.65c0-0.23,0.02-0.51,0.05-0.68h3.35c-0.12,0.22-0.18,0.47-0.17,0.74
			c0.03,0.76,0.68,1.38,1.45,1.37c0.77-0.01,1.4-0.65,1.4-1.42c0-0.25-0.06-0.48-0.17-0.68h3.35c0.03,0.18,0.05,0.45,0.05,0.68
			C698.97,871.19,696.89,873.27,694.32,873.27z M699.11,865.1h-10.37c-0.08-0.34-0.15-0.51-0.2-0.84h10.76
			C699.25,864.6,699.19,864.76,699.11,865.1z M699.51,862.8c0,0.01-0.05,0-0.05,0.02c0,0.26-0.07,0.58-0.09,0.75h-10.97
			c0,0-0.02-0.04-0.02-0.06c-0.02-0.23,0-0.44,0-0.67c0-0.01,0.02-0.03,0.02-0.04v-0.07h11.11V862.8z M688.76,861.35
			c0.01-0.03,0.01-0.08,0.02-0.08h10.58v-0.07c0,0.27,0.02,0.59,0.04,0.76h-10.73c0,0,0-0.01,0.01-0.04l0,0.04
			C688.7,861.75,688.73,861.55,688.76,861.35z M688.72,860.58c0,0,0-0.04,0.01-0.05c0-0.01,0-0.04,0.01-0.04
			c0-0.01,0-0.01,0.01-0.02c0.07-0.22,0.15-0.45,0.24-0.67c0-0.01,0.01-0.02,0.01-0.02c0.01-0.02,0.01-0.04,0.02-0.04h9.83l0,0.02
			c0.11,0.26,0.21,0.49,0.29,0.83H688.72z M705.84,865.85c0,0-0.01-0.03-0.03-0.09c-0.02-0.06-0.05-0.15-0.09-0.26
			c-0.04-0.11-0.09-0.25-0.15-0.42c-0.06-0.16-0.14-0.35-0.22-0.55c-0.17-0.41-0.41-0.9-0.71-1.44c-0.15-0.27-0.32-0.55-0.51-0.84
			c-0.19-0.29-0.41-0.58-0.64-0.88c-0.23-0.3-0.49-0.6-0.77-0.9c-0.28-0.3-0.58-0.59-0.9-0.89c-0.64-0.58-1.36-1.14-2.16-1.65
			c-0.4-0.25-0.81-0.5-1.24-0.72c-0.43-0.23-0.87-0.43-1.33-0.62c-0.45-0.19-0.92-0.35-1.4-0.49c-0.48-0.14-0.96-0.26-1.45-0.34
			c-0.49-0.08-0.98-0.14-1.47-0.16c-0.49-0.02-0.98-0.01-1.46,0.05c-0.48,0.05-0.95,0.14-1.41,0.27c-0.45,0.12-0.9,0.29-1.31,0.48
			c-0.83,0.39-1.57,0.91-2.19,1.48c-0.08,0.07-0.15,0.14-0.23,0.22c-0.07,0.08-0.15,0.15-0.22,0.22c-0.07,0.07-0.14,0.15-0.2,0.23
			c-0.07,0.07-0.13,0.15-0.2,0.23c-0.03,0.04-0.07,0.08-0.1,0.12l-0.04,0.05l-0.05,0.06c-0.06,0.08-0.12,0.16-0.18,0.23
			c-0.06,0.08-0.11,0.16-0.17,0.23c-0.06,0.08-0.11,0.16-0.16,0.23c-0.03,0.04-0.05,0.08-0.08,0.11c-0.03,0.04-0.05,0.08-0.08,0.12
			c-0.05,0.08-0.1,0.15-0.15,0.23c-0.1,0.15-0.19,0.3-0.28,0.45c-0.18,0.3-0.33,0.59-0.47,0.86c-0.27,0.55-0.48,1.05-0.64,1.47
			c-0.16,0.42-0.26,0.75-0.34,0.98c-0.03,0.12-0.06,0.2-0.08,0.26c-0.02,0.06-0.03,0.09-0.03,0.09l-0.04-0.01c0,0,0-0.03,0.01-0.09
			c0.01-0.06,0.02-0.15,0.04-0.27c0.02-0.12,0.05-0.27,0.08-0.44c0.02-0.08,0.04-0.18,0.06-0.28c0.02-0.1,0.05-0.2,0.07-0.31
			c0.11-0.44,0.27-0.97,0.5-1.56c0.12-0.29,0.25-0.61,0.41-0.93c0.15-0.32,0.33-0.65,0.53-0.99c0.2-0.34,0.42-0.68,0.68-1.02
			c0.06-0.08,0.12-0.17,0.19-0.25c0.07-0.09,0.14-0.17,0.21-0.26c0.07-0.08,0.15-0.17,0.22-0.25c0.08-0.08,0.16-0.17,0.23-0.25
			c0.32-0.32,0.68-0.64,1.07-0.92c0.39-0.29,0.81-0.55,1.26-0.77c0.45-0.22,0.93-0.41,1.43-0.55c0.5-0.14,1.01-0.24,1.54-0.3
			c1.05-0.11,2.12-0.06,3.16,0.13c0.52,0.1,1.04,0.22,1.54,0.38c0.5,0.16,0.99,0.34,1.46,0.55c0.48,0.2,0.93,0.44,1.38,0.68
			c0.44,0.25,0.86,0.51,1.27,0.79c0.81,0.56,1.54,1.17,2.17,1.8c0.64,0.63,1.18,1.29,1.63,1.93c0.45,0.64,0.8,1.27,1.07,1.84
			c0.27,0.57,0.46,1.09,0.6,1.52c0.14,0.43,0.23,0.77,0.29,1.01c0.03,0.12,0.05,0.21,0.06,0.27c0.01,0.06,0.02,0.09,0.02,0.09
			L705.84,865.85z"/>
		<path fill="#333333" d="M648.71,866.77c-0.43,0.42-0.5,1.05-0.14,1.42c0.36,0.37,0.99,0.33,1.43-0.09
			c0.43-0.42,0.5-1.05,0.14-1.42C649.78,866.32,649.14,866.36,648.71,866.77L648.71,866.77z"/>
	</g>
	<g opacity="0.8">
		<path fill="#FFFFFF" d="M266.21,1110.99h-5.26c-0.06-14.85-4.06-28.78-10.98-40.82l4.61-2.64c-5.95-10.37-13.81-19.29-23.35-26.51
			l-3.2,4.23c-4.43-3.35-9.19-6.27-14.25-8.7l2.28-4.77c-11.9-5.69-24.68-8.58-37.97-8.58c-48.6,0-88.13,39.54-88.13,88.2l1.86,0.06
			l3.39-0.09c0.01,14.9,3.99,28.88,10.91,40.98l-4.61,2.63c5.93,10.38,13.77,19.31,23.3,26.56l3.21-4.23
			c4.42,3.36,9.18,6.3,14.23,8.73l-2.29,4.76c11.95,5.74,24.78,8.65,38.13,8.65c48.6,0,88.13-39.54,88.13-88.2L266.21,1110.99z
			 M128.87,1176.19l0.01-0.01c-2.19-1.66-4.28-3.43-6.28-5.28c-0.04-0.04-0.08-0.08-0.12-0.12c-0.92-0.86-1.82-1.74-2.69-2.64
			c-0.15-0.15-0.3-0.31-0.45-0.47c-0.78-0.81-1.54-1.63-2.28-2.47c-0.17-0.2-0.34-0.39-0.51-0.59c-0.73-0.84-1.44-1.69-2.13-2.56
			c-0.13-0.17-0.26-0.33-0.39-0.5c-0.74-0.94-1.46-1.9-2.16-2.88c-0.05-0.07-0.11-0.15-0.16-0.22c-1.56-2.19-3.01-4.47-4.36-6.82
			l-0.01,0c-6.81-11.9-10.72-25.65-10.72-40.31l0.06,0c0-44.88,36.52-81.4,81.4-81.4c12.28,0,24.08,2.66,35.06,7.92l0.01-0.03
			c4.97,2.38,9.65,5.25,14.01,8.55l-0.01,0.01c2.2,1.67,4.31,3.43,6.32,5.29c0.01,0.01,0.01,0.01,0.02,0.02
			c0.96,0.89,1.89,1.8,2.8,2.73c0.14,0.14,0.27,0.28,0.41,0.43c0.79,0.82,1.57,1.65,2.32,2.5c0.17,0.19,0.33,0.38,0.49,0.57
			c0.73,0.84,1.45,1.7,2.15,2.57c0.13,0.16,0.25,0.32,0.38,0.48c0.74,0.94,1.47,1.9,2.17,2.87c0.05,0.07,0.1,0.15,0.16,0.22
			c1.56,2.19,3.02,4.45,4.36,6.8l0.01,0c6.81,11.84,10.73,25.52,10.8,40.12h-0.05l0,0.34c0,44.88-36.52,81.4-81.4,81.4
			c-12.33,0-24.18-2.69-35.21-7.99l-0.01,0.03C137.89,1182.39,133.21,1179.5,128.87,1176.19z"/>
		<circle fill="#FFFFFF" cx="178.01" cy="1111.33" r="76.75"/>
	</g>
	<g opacity="0.8">
		<path fill="none" stroke="#FFFFFF" stroke-miterlimit="10" d="M122.51,1184.57c-9.95-7.56-18.13-16.88-24.31-27.71"/>
		<path fill="none" stroke="#FFFFFF" stroke-miterlimit="10" d="M86.16,1111.33c0-50.69,41.24-91.92,91.92-91.92
			c13.86,0,27.19,3.01,39.6,8.94"/>
		<path fill="none" stroke="#FFFFFF" stroke-miterlimit="10" d="M233.49,1037.99c9.96,7.54,18.16,16.84,24.36,27.66"/>
		<path fill="none" stroke="#FFFFFF" stroke-miterlimit="10" d="M270,1110.95v0.39c0,50.69-41.24,91.92-91.92,91.92
			c-13.93,0-27.31-3.04-39.76-9.02"/>
	</g>
	<g opacity="0.8">
		<polygon fill="#4D4D4D" points="122.68,1125.65 127.24,1126.14 127.42,1130.49 122.74,1130.26 		"/>
		<path fill="#4D4D4D" d="M122.5,1105.1v5.47l-0.59,0.03l0.13,1.64l2.88,0.07v0.46l-3.38-0.13l-0.2-2.13l-0.2-0.13
			c0,0,0-2.29,0.1-3.47C121.35,1105.72,121.74,1105.16,122.5,1105.1z"/>
		<path fill="#4D4D4D" d="M150.46,1098.21c-0.13-1.18-3.21-1.51-3.21-1.51s-10.1-0.07-12.65,0.2c-2.56,0.26-4.85,3.21-6.75,6.69
			c-1.9,3.47-4.79,10.29-4.85,10.62c-0.07,0.33,0.46,10.75,0.52,10.95c0.07,0.2,4.39,0.46,4.39,0.46l0.2,4.33l7.08,0.2
			c0.07-0.39,0.07-2.03,1.38-5.24c1.73-4.24,6.62-4.2,6.62-4.2l7.38-0.18C150.56,1120.52,150.59,1099.39,150.46,1098.21z
			 M140.59,1110.28c0,0-2.85,0.43-4,2.07c-1.15,1.64-3.05,2.92-3.8,2.95c-0.75,0.03-2.06,0.03-2.06,0.03s-1.61-0.2-1.57-2.06
			c0.03-1.87,0.07-2.75,0.07-2.75s0.07-1.51,1.05-3.57c0.98-2.07,2.88-5.61,2.88-5.61s0.79-1.57,2.79-1.87l10.46-0.2
			c0,0,1.15-0.16,1.18,1.8c0.03,1.97,0.2,8,0.2,8L140.59,1110.28z"/>
		<path fill="#4D4D4D" d="M143.77,1122.64c-4.34,0-7.87,3.52-7.87,7.87s3.52,7.87,7.87,7.87c4.34,0,7.87-3.52,7.87-7.87
			S148.12,1122.64,143.77,1122.64z M143.77,1135.66c-2.85,0-5.16-2.31-5.16-5.16s2.31-5.16,5.16-5.16c2.85,0,5.16,2.31,5.16,5.16
			S146.62,1135.66,143.77,1135.66z"/>
		<path fill="#4D4D4D" d="M139.74,1130.5c0-2.23,1.81-4.03,4.03-4.03c2.23,0,4.03,1.8,4.03,4.03c0,2.23-1.81,4.03-4.03,4.03
			C141.54,1134.53,139.74,1132.73,139.74,1130.5z"/>
		<path fill="#4D4D4D" d="M197.76,1122.64c-4.35,0-7.87,3.52-7.87,7.87s3.52,7.87,7.87,7.87c4.35,0,7.87-3.52,7.87-7.87
			S202.1,1122.64,197.76,1122.64z M197.76,1135.66c-2.85,0-5.16-2.31-5.16-5.16s2.31-5.16,5.16-5.16c2.85,0,5.16,2.31,5.16,5.16
			S200.61,1135.66,197.76,1135.66z"/>
		<path fill="#4D4D4D" d="M193.73,1130.5c0-2.23,1.81-4.03,4.03-4.03c2.23,0,4.03,1.8,4.03,4.03c0,2.23-1.81,4.03-4.03,4.03
			C195.53,1134.53,193.73,1132.73,193.73,1130.5z"/>
		<path fill="#4D4D4D" d="M213.9,1122.64c-4.35,0-7.87,3.52-7.87,7.87s3.52,7.87,7.87,7.87c4.34,0,7.87-3.52,7.87-7.87
			S218.25,1122.64,213.9,1122.64z M213.9,1135.66c-2.85,0-5.16-2.31-5.16-5.16s2.31-5.16,5.16-5.16c2.85,0,5.16,2.31,5.16,5.16
			S216.75,1135.66,213.9,1135.66z"/>
		<path fill="#4D4D4D" d="M209.87,1130.5c0-2.23,1.81-4.03,4.03-4.03c2.23,0,4.03,1.8,4.03,4.03c0,2.23-1.81,4.03-4.03,4.03
			C211.68,1134.53,209.87,1132.73,209.87,1130.5z"/>
		<rect x="154.93" y="1083.51" fill="#4D4D4D" width="80.07" height="38.17"/>
		<path fill="#4D4D4D" d="M194.45,1122.24h-40.14v-25.09c0-0.86-0.67-1.56-1.51-1.56c-0.83,0-1.51,0.7-1.51,1.56v29.42h38.48
			C190.74,1124.61,192.41,1123.06,194.45,1122.24z"/>
		<polygon fill="#4D4D4D" points="226.05,1129.49 224.61,1129.49 218.59,1122.23 221.41,1122.23 		"/>
	</g>
	<g opacity="0.8">
		<path fill="#FFFFFF" d="M350.16,548.33h-6.49c-0.07-18.29-5-35.45-13.53-50.29l5.68-3.26c-7.33-12.77-17.01-23.76-28.77-32.66
			l-3.94,5.21c-5.45-4.13-11.33-7.73-17.55-10.71l2.81-5.88c-14.66-7.01-30.4-10.57-46.78-10.57
			c-59.87,0-108.58,48.71-108.58,108.66l2.3,0.07l4.18-0.11c0.01,18.36,4.91,35.59,13.44,50.49l-5.68,3.25
			c7.3,12.79,16.96,23.79,28.71,32.72l3.96-5.21c5.45,4.14,11.31,7.76,17.53,10.76l-2.82,5.87c14.72,7.07,30.53,10.66,46.98,10.66
			c59.87,0,108.58-48.71,108.58-108.66L350.16,548.33z M180.95,628.66l0.01-0.01c-2.7-2.05-5.28-4.22-7.73-6.51
			c-0.05-0.05-0.1-0.1-0.15-0.14c-1.13-1.06-2.24-2.14-3.32-3.25c-0.19-0.19-0.37-0.38-0.55-0.58c-0.95-0.99-1.89-2.01-2.8-3.04
			c-0.21-0.24-0.42-0.49-0.63-0.73c-0.89-1.03-1.77-2.08-2.62-3.15c-0.16-0.2-0.32-0.41-0.48-0.62c-0.91-1.16-1.8-2.34-2.67-3.55
			c-0.07-0.09-0.13-0.18-0.2-0.28c-1.92-2.7-3.71-5.5-5.37-8.41l-0.01,0c-8.39-14.66-13.21-31.61-13.21-49.67l0.07,0
			c0-55.3,44.99-100.29,100.29-100.29c15.13,0,29.66,3.28,43.2,9.76l0.02-0.03c6.12,2.93,11.89,6.47,17.25,10.53l-0.01,0.01
			c2.72,2.05,5.31,4.23,7.78,6.52c0.01,0.01,0.01,0.01,0.02,0.02c1.18,1.1,2.33,2.22,3.45,3.37c0.17,0.17,0.33,0.35,0.5,0.52
			c0.97,1.01,1.93,2.04,2.86,3.08c0.2,0.23,0.4,0.47,0.61,0.7c0.9,1.04,1.79,2.09,2.65,3.16c0.16,0.2,0.31,0.4,0.47,0.6
			c0.91,1.16,1.81,2.34,2.67,3.54c0.07,0.09,0.13,0.18,0.19,0.27c1.92,2.69,3.72,5.49,5.38,8.38l0.01,0
			c8.38,14.58,13.23,31.45,13.3,49.43h-0.07l0,0.42c0,55.3-44.99,100.29-100.29,100.29c-15.2,0-29.79-3.31-43.38-9.84l-0.02,0.04
			C192.07,636.29,186.3,632.73,180.95,628.66z"/>
		<circle fill="#FFFFFF" cx="241.5" cy="548.75" r="94.56"/>
	</g>
	<g opacity="0.8">
		<path fill="none" stroke="#FFFFFF" stroke-width="2" stroke-miterlimit="10" d="M173.13,638.98
			c-12.26-9.31-22.33-20.8-29.95-34.14"/>
		<path fill="none" stroke="#FFFFFF" stroke-width="2" stroke-miterlimit="10" d="M128.33,548.75c0-62.45,50.8-113.25,113.25-113.25
			c17.08,0,33.49,3.71,48.79,11.02"/>
		<path fill="none" stroke="#FFFFFF" stroke-width="2" stroke-miterlimit="10" d="M309.86,458.39
			c12.27,9.29,22.37,20.75,30.02,34.08"/>
		<path fill="none" stroke="#FFFFFF" stroke-width="2" stroke-miterlimit="10" d="M354.83,548.28v0.47
			c0,62.45-50.8,113.25-113.25,113.25c-17.16,0-33.65-3.74-48.99-11.12"/>
	</g>
	<g opacity="0.7">
		<path fill="#333333" stroke="#1D84B5" stroke-width="3" stroke-linejoin="round" stroke-miterlimit="10" d="M287.59,529.31"/>
		<path fill="#333333" d="M289.16,507.25c-2.5-2.51-5.8-3.76-9.08-3.76c-3.28,0-6.56,1.26-9.06,3.76c-0.58,0.58-0.58,1.53,0,2.12
			c0.58,0.58,1.53,0.58,2.12,0c1.92-1.92,4.42-2.88,6.94-2.88c2.53,0,5.04,0.96,6.97,2.88c0.58,0.58,1.53,0.58,2.11,0
			C289.74,508.78,289.74,507.83,289.16,507.25z"/>
		<path fill="#333333" d="M268.43,504.66c3.22-3.22,7.43-4.83,11.65-4.83c4.23,0,8.45,1.6,11.68,4.83c0.58,0.58,1.53,0.58,2.12,0
			c0.58-0.58,0.58-1.53,0-2.12c-3.8-3.81-8.81-5.71-13.79-5.71c-4.98,0-9.97,1.91-13.76,5.71c-0.58,0.58-0.58,1.53,0,2.12
			C266.9,505.24,267.84,505.24,268.43,504.66z"/>
		<path fill="#333333" d="M297.86,497.63c-4.91-4.91-11.35-7.36-17.78-7.36c-6.43,0-12.86,2.46-17.76,7.36
			c-0.58,0.58-0.58,1.53,0,2.12c0.58,0.58,1.53,0.58,2.12,0c4.32-4.32,9.97-6.48,15.64-6.48c5.67,0,11.33,2.16,15.66,6.48
			c0.58,0.58,1.53,0.58,2.12,0C298.45,499.16,298.45,498.21,297.86,497.63z"/>
		<path fill="#333333" d="M281.41,566.74L299,581.62v6.47c0,1.4-1.38,2.54-3.07,2.54h-112.3c-1.69,0-3.07-1.14-3.07-2.54v-6.47
			l17.59-14.88H281.41L281.41,566.74z M279.95,570.73H199.6l-15.06,12.74v3.16h110.46v-3.16L279.95,570.73z"/>
		<path fill="#333333" d="M276.7,515.18h-73.84c-2.6,0-4.72,2.12-4.72,4.72v46.84h83.27V519.9
			C281.41,517.3,279.3,515.18,276.7,515.18z M239.83,517.82c0.88,0,1.6,0.71,1.6,1.6c0,0.88-0.71,1.59-1.6,1.59
			c-0.88,0-1.59-0.71-1.59-1.59C238.24,518.53,238.95,517.82,239.83,517.82z M278.6,564.28h-77.28v-41.27h77.28V564.28z"/>
		<path fill="#333333" d="M250.24,577.76c-0.1-0.14-0.32-0.25-0.49-0.25h-20.29c-0.17,0-0.38,0.12-0.47,0.26l-1.65,2.63
			c-0.09,0.14-0.02,0.26,0.14,0.26h24.61c0.17,0,0.23-0.11,0.12-0.25L250.24,577.76z"/>
		<path fill="#333333" d="M276.67,572.74l3.18,2.58c0.32,0.26,0.15,0.48-0.4,0.48h-79.32c-0.55,0-0.76-0.23-0.47-0.5l2.67-2.56
			H276.67z"/>
	</g>
	<circle fill="#FFFFFF" cx="348" cy="454" r="7"/>
	<circle fill="#FFFFFF" cx="929" cy="117" r="4"/>
	<circle fill="#FFFFFF" cx="1073" cy="87" r="4"/>
	<circle fill="#FFFFFF" cx="1684" cy="335" r="7"/>
	<circle fill="#FFFFFF" cx="1808" cy="493" r="7"/>
	<circle fill="#FFFFFF" cx="1215" cy="721" r="7"/>
	<circle fill="#FFFFFF" cx="982" cy="808" r="7"/>
	<circle fill="#FFFFFF" cx="596" cy="882" r="4"/>
	<circle fill="#FFFFFF" cx="281" cy="1084" r="6"/>
	<circle fill="#FFFFFF" cx="748" cy="821" r="4"/>
	<line fill="none" stroke="#FFFFFF" stroke-miterlimit="10" x1="363.19" y1="448.46" x2="921.52" y2="121.05"/>
	<line fill="none" stroke="#FFFFFF" stroke-miterlimit="10" x1="1085.52" y1="88.11" x2="1672.5" y2="330.5"/>
	<line fill="none" stroke="#FFFFFF" stroke-miterlimit="10" x1="1808.5" y1="506.5" x2="1788.87" y2="789.4"/>
	<circle fill="#FFFFFF" cx="1787" cy="798" r="4"/>
	<circle fill="#FFFFFF" cx="1667" cy="864" r="4"/>
	<line fill="none" stroke="#FFFFFF" stroke-width="2" stroke-miterlimit="10" x1="1228.35" y1="721" x2="1660.35" y2="863.65"/>
	<line fill="none" stroke="#FFFFFF" stroke-width="2" stroke-miterlimit="10" x1="759.45" y1="821" x2="969.5" y2="810.5"/>
	<line fill="none" stroke="#FFFFFF" stroke-width="2" stroke-miterlimit="10" x1="588.5" y1="886.5" x2="291.5" y2="1078.5"/>
</g>
<line fill="none" stroke="#FFFFFF" stroke-miterlimit="10" x1="128" y1="653.81" x2="136.5" y2="993.5"/>
<g>
	
		<ellipse transform="matrix(0.7071 -0.7071 0.7071 0.7071 -121.9857 200.4037)" fill-rule="evenodd" clip-rule="evenodd" fill="#FFFFFF" cx="180.92" cy="247.45" rx="52.92" ry="52.92"/>
	<path fill-rule="evenodd" clip-rule="evenodd" fill="#212E66" d="M181.01,206.04c22.87,0,41.41,18.54,41.41,41.41
		c0,22.87-18.54,41.41-41.41,41.41c-22.87,0-41.41-18.54-41.41-41.41C139.59,224.58,158.13,206.04,181.01,206.04z"/>
	<polygon fill-rule="evenodd" clip-rule="evenodd" fill="#FFFFFF" points="169.39,216.98 179.85,210.71 179.85,220.22 
		170.38,225.81 157.53,225.81 157.53,217.13 	"/>
	<polygon fill-rule="evenodd" clip-rule="evenodd" fill="#CB1517" points="159.62,218.89 159.62,224.02 169.89,224.02 178.07,219.2 
		178.07,213.86 169.89,218.76 	"/>
	<polygon fill-rule="evenodd" clip-rule="evenodd" fill="#FFFFFF" points="157.53,229.08 169.9,229.08 179.85,223.48 179.85,221.7 
		169.9,227.3 157.53,227.3 	"/>
	<polygon fill-rule="evenodd" clip-rule="evenodd" fill="#FFFFFF" points="157.53,232.73 169.9,232.73 179.85,227.13 179.85,225.35 
		169.9,230.95 157.53,230.95 	"/>
	<polygon fill-rule="evenodd" clip-rule="evenodd" fill="#FFFFFF" points="170.01,247.1 183.4,254.65 183.4,262.58 180.73,264 
		178.06,262.59 178.06,257.51 170.01,252.98 170.01,265.85 180.13,271.51 180.12,284.19 157.83,271.63 157.83,246.18 155.78,246.18 
		155.78,234.03 170.01,234.03 	"/>
	<polygon fill-rule="evenodd" clip-rule="evenodd" fill="#CB1517" points="157.56,235.81 159.61,235.81 168.23,235.81 168.23,244.4 
		168.23,248.14 181.62,255.69 181.62,261.51 180.73,261.98 179.84,261.51 179.84,256.46 168.23,249.93 168.23,266.89 178.35,272.55 
		178.34,281.14 159.61,270.59 159.61,244.4 157.56,244.4 	"/>
	<polygon fill-rule="evenodd" clip-rule="evenodd" fill="#FFFFFF" points="183.4,240.98 192,245.82 192,234.03 206.23,234.03 
		206.23,246.18 204.18,246.18 204.18,271.63 181.89,284.19 181.88,271.51 192,265.85 192,251.7 178.06,243.84 178.06,235.9 
		180.73,234.49 183.4,235.9 	"/>
	<polygon fill-rule="evenodd" clip-rule="evenodd" fill="#CB1517" points="181.62,236.97 181.62,242.02 193.79,248.87 193.79,244.4 
		193.79,235.81 202.4,235.81 204.45,235.81 204.45,244.4 202.4,244.4 202.4,270.59 183.67,281.14 183.66,272.55 193.79,266.89 
		193.79,250.87 193.49,250.49 179.84,242.8 179.84,236.97 180.73,236.5 	"/>
	<polygon fill-rule="evenodd" clip-rule="evenodd" fill="#FFFFFF" points="192.07,216.98 181.6,210.71 181.6,220.22 191.08,225.81 
		203.93,225.81 203.93,217.13 	"/>
	<polygon fill-rule="evenodd" clip-rule="evenodd" fill="#CB1517" points="201.83,218.89 201.83,224.02 191.56,224.02 183.39,219.2 
		183.39,213.86 191.56,218.76 	"/>
	<polygon fill-rule="evenodd" clip-rule="evenodd" fill="#FFFFFF" points="203.93,229.08 191.56,229.08 181.61,223.48 181.61,221.7 
		191.56,227.3 203.93,227.3 	"/>
	<polygon fill-rule="evenodd" clip-rule="evenodd" fill="#FFFFFF" points="203.93,232.73 191.56,232.73 181.61,227.13 
		181.61,225.35 191.56,230.95 203.93,230.95 	"/>
	<path fill-rule="evenodd" clip-rule="evenodd" fill="#212E66" d="M147.78,270.95l-8.15,8.15c9.52,12.43,24.51,20.45,41.38,20.45
		c16.87,0,31.86-8.02,41.38-20.45l-8.14-8.14l0.39-0.39l8.08,8.08c6.51-8.69,10.37-19.49,10.37-31.19
		c0-28.77-23.32-52.09-52.09-52.09c-28.77,0-52.09,23.32-52.09,52.09c0,11.7,3.86,22.5,10.37,31.2l8.1-8.1L147.78,270.95
		L147.78,270.95z M181,194.54c29.22,0,52.91,23.69,52.91,52.91c0,29.22-23.69,52.91-52.91,52.91c-29.22,0-52.91-23.69-52.91-52.91
		C128.09,218.23,151.78,194.54,181,194.54z"/>
	<path fill-rule="evenodd" clip-rule="evenodd" fill="#212E66" d="M132.08,243.6l-0.17-0.01l0.12-1.61l0.17,0.01l-0.04,0.57
		l4.86,0.37c0.24,0.02,0.44,0.11,0.6,0.27c0.17,0.16,0.29,0.36,0.37,0.6c0.08,0.24,0.11,0.48,0.1,0.72
		c-0.02,0.24-0.07,0.5-0.17,0.79c-0.09,0.29-0.2,0.51-0.33,0.66c-0.27,0.31-0.62,0.44-1.05,0.41l-4.23-0.32
		c-0.28-0.02-0.44,0.2-0.48,0.67l-0.17-0.01l0.15-1.93l0.17,0.01l-0.05,0.61l4.73,0.36c0.33,0.03,0.61-0.08,0.83-0.32
		c0.22-0.24,0.35-0.55,0.37-0.94c0.03-0.35-0.06-0.64-0.26-0.88c-0.2-0.24-0.45-0.37-0.75-0.39l-4.3-0.33
		c-0.28-0.02-0.44,0.15-0.46,0.51L132.08,243.6L132.08,243.6z M138.13,241.13l0.1-0.57l-4.78-0.85c-0.27-0.05-0.46-0.05-0.58-0.01
		c-0.19,0.06-0.33,0.28-0.4,0.67l-0.17-0.03l0.18-1.02l5.44-1.88l0-0.02l-4.17-0.74c-0.17-0.03-0.33,0.01-0.47,0.13
		c-0.14,0.12-0.23,0.28-0.27,0.49l-0.17-0.03l0.28-1.54l0.17,0.03l-0.09,0.52l6.09,1.09l-0.03,0.18l-5.47,1.92l0,0.01l3.79,0.68
		c0.29,0.05,0.51,0.01,0.64-0.13c0.09-0.11,0.16-0.29,0.2-0.55l0.17,0.03l-0.3,1.68L138.13,241.13L138.13,241.13z M139.27,235.46
		l0.18-0.62l-5.08-1.44c-0.17-0.05-0.29-0.02-0.38,0.09c-0.09,0.11-0.16,0.27-0.22,0.49l-0.16-0.05l0.53-1.88l0.16,0.05l-0.17,0.61
		l4.95,1.41c0.15,0.04,0.25,0.06,0.3,0.06c0.1,0,0.18-0.03,0.24-0.09c0.05-0.08,0.12-0.25,0.19-0.52l0.16,0.05l-0.54,1.89
		L139.27,235.46L139.27,235.46z M140.96,229.19l-3.48-2.92c-0.14-0.1-0.23-0.15-0.26-0.17c-0.17-0.08-0.3-0.07-0.4,0.02
		c-0.1,0.09-0.19,0.23-0.28,0.42l-0.05,0.1l-0.15-0.07l0.79-1.75l0.15,0.07l-0.26,0.57l4.9,4.18l-0.09,0.21l-5.52-0.36
		c-0.33-0.02-0.57-0.02-0.74,0c-0.17,0.02-0.29,0.07-0.36,0.13c-0.08,0.07-0.15,0.17-0.21,0.32l-0.09,0.19l-0.15-0.07l0.9-1.99
		l0.15,0.07l-0.32,0.7L140.96,229.19L140.96,229.19z M144.84,223.47l0.32,0.18l0.1-0.18l-1.91-1.1l-0.1,0.18l0.41,0.23
		c0.25,0.15,0.43,0.32,0.53,0.52c0.1,0.2,0.11,0.45,0.04,0.75c-0.17,0.38-0.37,0.77-0.59,1.16l-3.48-2c0.12-0.2,0.21-0.33,0.29-0.39
		c0.15-0.15,0.31-0.2,0.51-0.15c0.19,0.05,0.4,0.14,0.63,0.27l0.08-0.15l-1.93-1.11l-0.08,0.15l0.79,0.45l-0.47,0.82l-1.29-0.74
		l0.14-0.24c0.34-0.59,0.63-0.96,0.88-1.13c0.26-0.17,0.61-0.13,1.04,0.11l0.29,0.16l0.1-0.18l-1.77-1.02l-0.1,0.18l0.33,0.19
		l-1.71,2.98l0.15,0.08c0.12-0.2,0.23-0.34,0.34-0.41c0.11-0.07,0.24-0.07,0.4,0.02l4.56,2.62l-0.33,0.57l0.15,0.08L144.84,223.47
		L144.84,223.47z M141.05,218.1l0.87-1l0.43,0.38c0.16-0.8,0.46-1.48,0.9-2.02c0.35-0.4,0.76-0.71,1.25-0.94
		c0.49-0.23,0.98-0.33,1.46-0.3c0.48,0.02,0.89,0.18,1.23,0.47c0.36,0.32,0.6,0.71,0.7,1.18c0.1,0.47,0.08,0.96-0.07,1.48
		c-0.15,0.52-0.4,1-0.76,1.45l0.02,0.01c0.13-0.08,0.42-0.22,0.85-0.43c0.43-0.21,0.78-0.4,1.05-0.58c0.27-0.17,0.51-0.38,0.72-0.62
		c0.15-0.17,0.24-0.32,0.27-0.44l0.12-0.01c-0.02,0.25-0.14,0.5-0.36,0.76c-0.18,0.21-0.39,0.41-0.62,0.59
		c-0.23,0.18-0.45,0.33-0.64,0.45c-0.19,0.12-0.5,0.31-0.93,0.56c-0.83,0.44-1.54,0.77-2.13,1.01l0.64,0.55
		c0.1,0.09,0.19,0.14,0.25,0.15c0.07,0.01,0.14-0.01,0.21-0.06c0.09-0.09,0.19-0.17,0.29-0.26c0.05-0.07,0.11-0.16,0.2-0.26
		l0.13,0.11l-1.43,1.65l-0.13-0.11l0.4-0.46l-4.01-3.47c-0.2-0.18-0.44-0.11-0.7,0.19l-0.07,0.08L141.05,218.1L141.05,218.1z
		 M142.62,217.72l2.5,2.17l-0.04-0.18c0.85-0.28,1.48-0.64,1.87-1.09c0.29-0.34,0.49-0.72,0.59-1.14c0.1-0.42,0.1-0.83-0.01-1.23
		c-0.11-0.39-0.31-0.72-0.6-0.97c-0.32-0.26-0.7-0.42-1.15-0.46c-0.44-0.05-0.88,0.02-1.32,0.2c-0.44,0.18-0.83,0.45-1.17,0.82
		C142.8,216.39,142.58,217.02,142.62,217.72L142.62,217.72z M149.82,208.5l-0.15,0.13l0.24,0.28c-0.32,0.13-0.55,0.26-0.69,0.38
		c-0.31,0.29-0.51,0.63-0.61,1.01c-0.09,0.38-0.03,0.69,0.2,0.95c0.17,0.2,0.38,0.32,0.61,0.37c0.24,0.05,0.48,0.05,0.74,0
		c0.26-0.05,0.57-0.13,0.93-0.24c0.4-0.12,0.74-0.2,1.02-0.26c0.28-0.05,0.55-0.07,0.8-0.03c0.26,0.04,0.47,0.15,0.64,0.33
		c0.21,0.24,0.32,0.53,0.33,0.86c0.01,0.34-0.07,0.68-0.24,1.03c-0.17,0.35-0.41,0.65-0.72,0.92c-0.34,0.3-0.7,0.49-1.08,0.58
		c-0.38,0.09-0.73,0.08-1.07-0.01c-0.33-0.1-0.6-0.27-0.82-0.52c-0.14-0.17-0.23-0.38-0.29-0.62c-0.05-0.24-0.04-0.48,0.03-0.72
		c0.07-0.24,0.21-0.45,0.42-0.63c0.14-0.12,0.29-0.2,0.45-0.24c0.17-0.04,0.32-0.05,0.47-0.01c0.15,0.03,0.26,0.1,0.34,0.19
		c0.19,0.21,0.17,0.45-0.03,0.7l0.09,0.17c0.11-0.06,0.18-0.11,0.22-0.14c0.18-0.15,0.28-0.33,0.3-0.54
		c0.02-0.2-0.03-0.38-0.16-0.52c-0.13-0.15-0.3-0.23-0.51-0.25c-0.21-0.02-0.43,0.02-0.66,0.1c-0.23,0.09-0.42,0.2-0.59,0.35
		c-0.27,0.24-0.47,0.51-0.6,0.83c-0.13,0.32-0.17,0.64-0.13,0.96c0.04,0.32,0.16,0.6,0.37,0.83c0.26,0.3,0.58,0.48,0.96,0.55
		c0.38,0.07,0.78,0.03,1.2-0.12c0.42-0.15,0.81-0.38,1.19-0.71c0.29-0.25,0.53-0.52,0.73-0.83c0.2-0.31,0.35-0.62,0.43-0.93
		c0.09-0.32,0.11-0.62,0.06-0.92c-0.05-0.29-0.17-0.56-0.37-0.78c-0.2-0.23-0.44-0.37-0.73-0.42c-0.29-0.06-0.59-0.06-0.9,0
		c-0.31,0.06-0.67,0.15-1.1,0.28c-0.39,0.12-0.7,0.21-0.93,0.26c-0.23,0.05-0.46,0.07-0.67,0.04c-0.21-0.03-0.39-0.13-0.54-0.29
		c-0.1-0.11-0.15-0.24-0.17-0.4c-0.01-0.15,0.01-0.31,0.08-0.46c0.07-0.16,0.17-0.3,0.31-0.43c0.3-0.26,0.58-0.33,0.83-0.22
		c0.26,0.11,0.51,0.32,0.77,0.61l0.37,0.43l0.15-0.13L149.82,208.5L149.82,208.5z M155.94,211.78l0.52-0.37l-3.06-4.31
		c-0.1-0.14-0.22-0.2-0.35-0.17c-0.13,0.03-0.3,0.11-0.48,0.24l-0.1-0.14l1.59-1.13l0.1,0.14l-0.52,0.37l2.98,4.19
		c0.09,0.13,0.16,0.21,0.2,0.24c0.08,0.06,0.16,0.09,0.24,0.08c0.09-0.03,0.25-0.12,0.48-0.28l0.1,0.14l-1.6,1.14L155.94,211.78
		L155.94,211.78z M158.53,209.91l0.08,0.15l2.14-1.1c0.53-0.27,0.96-0.55,1.3-0.84c0.34-0.29,0.59-0.57,0.77-0.84
		c0.18-0.28,0.32-0.58,0.42-0.89c0.27-0.77,0.23-1.51-0.11-2.21c-0.12-0.23-0.28-0.44-0.48-0.63c-0.2-0.18-0.42-0.34-0.67-0.46
		c-0.25-0.12-0.51-0.22-0.78-0.28c-0.41-0.08-0.84-0.08-1.27,0c-0.44,0.08-0.92,0.26-1.44,0.53l-2.69,1.38l0.08,0.15l0.12-0.06
		c0.35-0.18,0.59-0.14,0.73,0.13l2.4,4.69L158.53,209.91L158.53,209.91z M162.63,204.49c-0.24-0.42-0.59-0.75-1.05-0.98
		c-0.46-0.23-0.97-0.34-1.53-0.33c-0.56,0.01-1.1,0.15-1.62,0.41c-0.6,0.31-1.03,0.59-1.28,0.85l2.41,4.7
		c0.41-0.07,0.93-0.27,1.56-0.59c0.52-0.27,0.94-0.63,1.25-1.1c0.32-0.46,0.49-0.96,0.54-1.49
		C162.95,205.44,162.86,204.95,162.63,204.49L162.63,204.49z M169.66,205.22l-2.39-3.23l-0.87,0.25l-0.03,2.79
		c0,0.26,0.02,0.48,0.07,0.66c0.04,0.13,0.1,0.22,0.19,0.26c0.09,0.04,0.22,0.04,0.39,0.01c0.1-0.02,0.25-0.05,0.47-0.12l0.05,0.16
		l-1.87,0.53l-0.05-0.16l0.45-0.13l0-6.43l0.2-0.06l3.17,4.29c0.11,0.15,0.22,0.31,0.33,0.47c0.12,0.16,0.25,0.28,0.4,0.37
		c0.15,0.09,0.33,0.1,0.52,0.05l0.05,0.16l-1.73,0.49l-0.05-0.16L169.66,205.22L169.66,205.22z M167.15,201.8l-0.72-1.02l-0.02,0.01
		l0.01,1.24L167.15,201.8L167.15,201.8z M171.69,204.58l0.65-0.08l-0.66-5.22c-0.04-0.29-0.25-0.42-0.64-0.37l-0.13,0.02l-0.02-0.17
		l2.99-0.38c0.59-0.07,1.1-0.08,1.54,0c0.43,0.07,0.83,0.22,1.19,0.43c0.24,0.15,0.45,0.33,0.64,0.53c0.19,0.2,0.35,0.42,0.48,0.66
		c0.13,0.24,0.2,0.49,0.24,0.75c0.08,0.77-0.13,1.48-0.64,2.12c-0.21,0.26-0.44,0.5-0.7,0.7c-0.26,0.2-0.6,0.38-1.01,0.53
		c-0.41,0.16-0.92,0.27-1.51,0.34l-2.39,0.3L171.69,204.58L171.69,204.58z M177.38,200.88c-0.08-0.48-0.3-0.9-0.66-1.28
		c-0.36-0.38-0.8-0.65-1.33-0.83c-0.53-0.18-1.08-0.24-1.66-0.16c-0.67,0.09-1.17,0.21-1.49,0.37l0.66,5.23
		c0.41,0.07,0.97,0.07,1.67-0.02c0.58-0.07,1.1-0.27,1.55-0.61c0.45-0.33,0.79-0.74,1.02-1.22
		C177.37,201.87,177.45,201.38,177.38,200.88L177.38,200.88z M183.01,203.67l0.65,0.08l0.66-5.22c0.04-0.29-0.14-0.46-0.53-0.51
		l-0.13-0.02l0.02-0.17l2.99,0.38c0.59,0.07,1.09,0.2,1.49,0.38c0.4,0.18,0.75,0.42,1.05,0.72c0.19,0.2,0.35,0.43,0.49,0.67
		c0.14,0.24,0.23,0.5,0.29,0.76c0.06,0.26,0.08,0.53,0.04,0.79c-0.11,0.77-0.49,1.4-1.15,1.89c-0.27,0.2-0.55,0.37-0.85,0.5
		c-0.3,0.13-0.67,0.22-1.11,0.26c-0.44,0.05-0.95,0.03-1.54-0.04l-2.39-0.3L183.01,203.67L183.01,203.67z M189.45,201.51
		c0.04-0.48-0.07-0.95-0.32-1.4c-0.25-0.45-0.61-0.83-1.08-1.14c-0.47-0.31-0.99-0.5-1.57-0.57c-0.67-0.08-1.18-0.09-1.54-0.01
		l-0.66,5.23c0.38,0.18,0.92,0.31,1.62,0.4c0.58,0.07,1.13,0.01,1.65-0.2c0.52-0.21,0.95-0.51,1.29-0.93
		C189.19,202.47,189.39,202.02,189.45,201.51L189.45,201.51z M194.22,206.03l-3.26-0.93l0.05-0.16l0.63,0.18l1.44-5.06
		c0.05-0.17,0.02-0.3-0.07-0.39c-0.1-0.09-0.26-0.16-0.48-0.23l0.05-0.16l3.3,0.94l0.11-0.37l0.19,0.06l-0.56,1.96l-0.2-0.06
		l0.09-0.32c0.14-0.48,0.09-0.83-0.14-1.04c-0.22-0.2-0.65-0.39-1.31-0.58l-0.27-0.08l-0.41,1.43l0.91,0.26l0.25-0.88l0.16,0.05
		l-0.61,2.14l-0.16-0.05c0.07-0.25,0.11-0.48,0.11-0.68c0-0.2-0.09-0.35-0.27-0.45c-0.08-0.06-0.23-0.12-0.45-0.19l-1.1,3.86
		c0.44,0.12,0.86,0.22,1.27,0.29c0.31,0,0.55-0.08,0.72-0.22c0.17-0.15,0.29-0.36,0.37-0.64l0.13-0.45l0.2,0.06l-0.6,2.12l-0.2-0.05
		L194.22,206.03L194.22,206.03z M203.19,203.2l-0.08,0.15l-0.57-0.29l-2.6,5.08c0.32,0.16,0.61,0.29,0.87,0.38
		c0.26,0.09,0.51,0.12,0.76,0.09c0.24-0.03,0.42-0.17,0.55-0.41l0.68-1.32l0.18,0.09l-1.35,2.63l-0.18-0.09l0.17-0.33l-2.85-1.46
		l0.08-0.15l0.56,0.29l2.42-4.72c0.07-0.14,0.07-0.27-0.02-0.37c-0.08-0.1-0.23-0.21-0.42-0.31l0.08-0.15L203.19,203.2L203.19,203.2
		z M206.54,212l-0.6-0.38l-0.09,0.14l1.51,0.97l0.09-0.14c-0.17-0.11-0.28-0.25-0.31-0.42c-0.03-0.17-0.03-0.35,0.01-0.55
		c0.04-0.19,0.08-0.38,0.13-0.56l1.12-5.22l-0.17-0.11l-4.82,4.26l-0.39-0.25l-0.09,0.14l1.64,1.05l0.09-0.14
		c-0.19-0.12-0.32-0.21-0.4-0.28c-0.14-0.11-0.23-0.2-0.25-0.3c-0.03-0.09-0.01-0.2,0.07-0.31c0.1-0.16,0.25-0.32,0.45-0.49
		l2.11-1.83l0.76,0.49L206.54,212L206.54,212z M207.45,207.85l-0.66-0.4l0.92-0.83l0.02,0.01L207.45,207.85L207.45,207.85z
		 M217.99,214.02l-1.7,1.62l-0.14-0.15l0.41-0.39c0.28-0.27,0.47-0.53,0.58-0.8c0.1-0.26,0.02-0.53-0.26-0.82
		c-0.14-0.13-0.28-0.23-0.44-0.29c-0.16-0.06-0.31-0.08-0.46-0.06c-0.15,0.02-0.28,0.09-0.39,0.19c-0.16,0.15-0.25,0.34-0.27,0.55
		c-0.02,0.22,0,0.44,0.07,0.67c0.07,0.23,0.17,0.54,0.31,0.92c0.15,0.42,0.26,0.78,0.33,1.08c0.07,0.31,0.09,0.6,0.04,0.9
		c-0.04,0.29-0.17,0.54-0.39,0.75c-0.22,0.21-0.47,0.34-0.77,0.4c-0.29,0.06-0.6,0.06-0.92-0.02c-0.32-0.07-0.64-0.2-0.95-0.39
		c-0.31-0.19-0.6-0.42-0.86-0.69c-0.34-0.36-0.59-0.74-0.76-1.15c-0.17-0.41-0.23-0.81-0.18-1.2c0.05-0.38,0.22-0.71,0.51-0.98
		c0.23-0.22,0.5-0.35,0.81-0.41c0.31-0.06,0.64-0.03,0.96,0.08c0.33,0.11,0.61,0.3,0.86,0.56c0.15,0.16,0.28,0.35,0.38,0.57
		c0.1,0.22,0.14,0.44,0.13,0.65c-0.01,0.21-0.08,0.38-0.23,0.52c-0.14,0.13-0.31,0.19-0.52,0.18c-0.21-0.01-0.39-0.1-0.55-0.27
		c-0.04-0.04-0.09-0.11-0.15-0.21l0.17-0.1c0.26,0.2,0.5,0.2,0.7,0c0.09-0.08,0.14-0.2,0.17-0.34c0.03-0.15,0.02-0.3-0.04-0.47
		c-0.05-0.16-0.14-0.31-0.26-0.44c-0.19-0.2-0.4-0.33-0.65-0.39c-0.24-0.06-0.48-0.06-0.72,0c-0.24,0.06-0.44,0.17-0.6,0.31
		c-0.24,0.22-0.4,0.51-0.48,0.84c-0.08,0.34-0.07,0.69,0.04,1.07c0.11,0.37,0.32,0.73,0.63,1.05c0.28,0.29,0.6,0.52,0.95,0.67
		c0.35,0.16,0.7,0.22,1.04,0.19c0.33-0.03,0.62-0.15,0.85-0.37c0.18-0.18,0.28-0.4,0.3-0.66c0.03-0.26,0-0.52-0.07-0.8
		c-0.07-0.28-0.17-0.61-0.31-1.01c-0.13-0.36-0.23-0.66-0.29-0.92c-0.06-0.26-0.07-0.5-0.03-0.74c0.04-0.24,0.15-0.45,0.34-0.63
		c0.25-0.24,0.56-0.32,0.94-0.24c0.38,0.08,0.73,0.26,1.04,0.56c0.13,0.13,0.27,0.36,0.41,0.67l0.27-0.25L217.99,214.02
		L217.99,214.02z M216.88,223.11l-0.3,0.21l0.12,0.17l1.79-1.28l-0.12-0.17l-0.38,0.27c-0.24,0.17-0.47,0.26-0.69,0.27
		c-0.22,0.01-0.46-0.08-0.7-0.28c-0.27-0.31-0.54-0.65-0.81-1.02l3.27-2.33c0.14,0.19,0.21,0.33,0.24,0.43
		c0.07,0.19,0.05,0.37-0.07,0.52c-0.12,0.15-0.29,0.31-0.51,0.46l0.1,0.14l1.81-1.29l-0.1-0.14l-0.74,0.53l-0.55-0.77l1.21-0.86
		l0.16,0.23c0.39,0.55,0.61,0.97,0.66,1.27c0.05,0.31-0.13,0.61-0.54,0.9l-0.27,0.19l0.12,0.16l1.66-1.18l-0.12-0.17l-0.31,0.22
		l-1.99-2.8l-0.14,0.1c0.13,0.19,0.21,0.35,0.23,0.48c0.02,0.13-0.04,0.25-0.19,0.35l-4.29,3.05l-0.38-0.53l-0.14,0.1L216.88,223.11
		L216.88,223.11z M223.29,221.59l0.6,1.18l-0.51,0.26c0.69,0.45,1.2,0.98,1.53,1.59c0.24,0.47,0.37,0.98,0.4,1.51
		c0.03,0.54-0.06,1.03-0.27,1.47c-0.2,0.44-0.5,0.76-0.9,0.96c-0.43,0.22-0.88,0.29-1.36,0.21c-0.48-0.08-0.92-0.28-1.34-0.61
		c-0.42-0.33-0.78-0.75-1.06-1.25l-0.02,0.01c0.02,0.15,0.05,0.47,0.08,0.94c0.03,0.48,0.08,0.88,0.14,1.19
		c0.06,0.32,0.16,0.62,0.3,0.89c0.1,0.2,0.21,0.34,0.31,0.41l-0.03,0.12c-0.23-0.11-0.42-0.32-0.57-0.62
		c-0.13-0.25-0.23-0.52-0.31-0.8c-0.08-0.28-0.14-0.54-0.18-0.76c-0.04-0.22-0.1-0.58-0.17-1.08c-0.09-0.94-0.14-1.72-0.14-2.36
		l-0.75,0.39c-0.12,0.06-0.19,0.12-0.23,0.18c-0.04,0.06-0.04,0.13-0.02,0.22c0.05,0.12,0.09,0.24,0.14,0.36
		c0.05,0.07,0.1,0.16,0.17,0.28l-0.15,0.08l-0.99-1.94l0.15-0.08l0.28,0.54l4.72-2.42c0.24-0.12,0.27-0.36,0.09-0.72l-0.05-0.09
		L223.29,221.59L223.29,221.59z M223.05,223.2c0.66,0.22,1.17,0.67,1.51,1.33c0.22,0.45,0.32,0.92,0.32,1.39
		c0,0.48-0.11,0.91-0.31,1.3c-0.21,0.39-0.49,0.69-0.86,0.89c-0.35,0.18-0.72,0.24-1.13,0.19c-0.41-0.05-0.79-0.2-1.14-0.45
		c-0.36-0.25-0.64-0.58-0.84-0.98c-0.27-0.53-0.38-1.24-0.31-2.14l-0.19-0.03L223.05,223.2L223.05,223.2z M222.38,234.88l-0.35,0.12
		l0.06,0.19l2.08-0.71l-0.07-0.19l-0.45,0.15c-0.28,0.09-0.52,0.11-0.74,0.06c-0.22-0.05-0.41-0.21-0.59-0.47
		c-0.17-0.38-0.33-0.78-0.48-1.21l3.8-1.29c0.07,0.22,0.11,0.38,0.1,0.48c0.01,0.21-0.06,0.37-0.22,0.48
		c-0.16,0.11-0.37,0.21-0.62,0.3l0.05,0.16l2.1-0.71l-0.05-0.16l-0.86,0.29l-0.3-0.9l1.41-0.48l0.09,0.27
		c0.22,0.64,0.31,1.11,0.27,1.4c-0.04,0.31-0.3,0.55-0.77,0.71l-0.31,0.11l0.06,0.19l1.93-0.65l-0.07-0.19l-0.37,0.12l-1.1-3.25
		l-0.16,0.05c0.07,0.22,0.1,0.39,0.09,0.52c-0.02,0.13-0.11,0.22-0.28,0.28l-4.99,1.69l-0.21-0.62l-0.16,0.05L222.38,234.88
		L222.38,234.88z M223.13,236.52l0.1,0.57l4.79-0.86c0.26-0.05,0.45-0.11,0.55-0.19c0.16-0.12,0.21-0.37,0.14-0.76l0.17-0.03
		l0.18,1.02l-4.45,3.64l0,0.02l4.17-0.75c0.17-0.03,0.31-0.12,0.4-0.28c0.09-0.16,0.12-0.34,0.08-0.55l0.17-0.03l0.28,1.54
		l-0.17,0.03l-0.09-0.52l-6.09,1.09l-0.03-0.18l4.47-3.69l0-0.01l-3.79,0.68c-0.29,0.05-0.48,0.17-0.56,0.34
		c-0.05,0.13-0.05,0.33,0,0.59l-0.17,0.03l-0.3-1.68L223.13,236.52L223.13,236.52z M224.4,246.24l3.64-1.69l-0.07-0.9l-2.73-0.59
		c-0.25-0.06-0.47-0.08-0.66-0.06c-0.14,0.01-0.24,0.06-0.29,0.13c-0.05,0.08-0.08,0.21-0.08,0.38c0,0.1,0,0.26,0.02,0.49
		l-0.17,0.01l-0.15-1.94l0.17-0.01l0.03,0.46l6.3,1.29l0.01,0.21l-4.84,2.25c-0.17,0.07-0.34,0.15-0.52,0.23
		c-0.18,0.08-0.33,0.19-0.44,0.32c-0.11,0.13-0.16,0.3-0.15,0.5l-0.17,0.01l-0.14-1.79l0.17-0.01L224.4,246.24L224.4,246.24z
		 M228.25,244.46l1.14-0.51l0-0.02l-1.22-0.24L228.25,244.46z"/>
	<path fill-rule="evenodd" clip-rule="evenodd" fill="#212E66" d="M173.51,291.03l0.12-0.53l0.18,0.04l-0.54,2.35l-0.18-0.04
		c0.1-0.43,0.15-0.75,0.15-0.98c0-0.23-0.07-0.43-0.21-0.62c-0.14-0.19-0.37-0.37-0.68-0.53c-0.31-0.17-0.64-0.29-0.97-0.37
		c-0.65-0.15-1.25-0.15-1.82,0.01c-0.56,0.16-1.03,0.42-1.4,0.8c-0.37,0.38-0.61,0.79-0.71,1.26c-0.09,0.38-0.09,0.77-0.01,1.18
		c0.08,0.4,0.24,0.79,0.48,1.15c0.24,0.36,0.55,0.68,0.93,0.94c0.38,0.27,0.81,0.45,1.28,0.56c0.49,0.11,0.96,0.14,1.4,0.07
		c0.44-0.07,0.83-0.19,1.17-0.36l0.14,0.25c-0.42,0.19-0.89,0.31-1.39,0.35c-0.5,0.04-1,0.01-1.49-0.09
		c-0.7-0.16-1.31-0.45-1.84-0.87c-0.53-0.42-0.91-0.91-1.15-1.47c-0.24-0.56-0.29-1.12-0.17-1.68c0.11-0.46,0.32-0.86,0.63-1.2
		c0.32-0.35,0.7-0.62,1.16-0.82c0.46-0.2,0.95-0.32,1.48-0.37c0.53-0.04,1.05-0.01,1.57,0.11
		C172.36,290.32,172.98,290.61,173.51,291.03L173.51,291.03z M181.9,297.52l0.65-0.02l-0.14-5.37c0-0.18-0.07-0.29-0.2-0.34
		c-0.13-0.05-0.31-0.07-0.54-0.07l-0.01-0.17l1.99-0.05l0,0.17l-0.64,0.02l0.13,5.23c0,0.16,0.01,0.26,0.03,0.31
		c0.03,0.1,0.08,0.16,0.16,0.21c0.09,0.03,0.28,0.04,0.56,0.03l0,0.17l-1.99,0.05L181.9,297.52L181.9,297.52z M187.03,291.25
		l0.02,0.17l-0.65,0.08l0.73,5.75c0.36-0.05,0.68-0.11,0.95-0.18c0.27-0.07,0.5-0.19,0.69-0.36c0.19-0.16,0.26-0.38,0.23-0.65
		l-0.19-1.5l0.2-0.03l0.38,2.97l-0.21,0.03l-0.05-0.37l-3.22,0.41l-0.02-0.17l0.64-0.08l-0.68-5.34c-0.02-0.16-0.1-0.26-0.23-0.3
		c-0.13-0.04-0.31-0.04-0.53-0.02l-0.02-0.17L187.03,291.25L187.03,291.25z M194.98,296.02l-3.35,0.77l-0.04-0.17l0.65-0.15
		l-1.2-5.21c-0.04-0.18-0.13-0.28-0.26-0.31c-0.13-0.03-0.31-0.02-0.54,0.03l-0.04-0.17l3.4-0.78l-0.09-0.38l0.2-0.05l0.47,2.02
		l-0.2,0.05l-0.08-0.33c-0.11-0.49-0.32-0.78-0.63-0.85c-0.29-0.07-0.77-0.03-1.44,0.13l-0.28,0.06l0.34,1.47l0.94-0.22l-0.21-0.9
		l0.17-0.04l0.51,2.2l-0.17,0.04c-0.06-0.26-0.14-0.48-0.24-0.66c-0.1-0.18-0.25-0.27-0.46-0.27c-0.1-0.02-0.26,0-0.49,0.06
		l0.92,3.97c0.45-0.1,0.88-0.22,1.27-0.36c0.28-0.16,0.45-0.34,0.53-0.55c0.08-0.21,0.08-0.46,0.01-0.75l-0.11-0.47l0.2-0.05
		l0.5,2.18l-0.2,0.05L194.98,296.02L194.98,296.02z M179.39,291.61l-0.4,5.31c-0.01,0.17,0.01,0.3,0.06,0.38
		c0.07,0.07,0.23,0.12,0.46,0.16c0.05-0.01,0.11-0.01,0.18,0l-0.01,0.17l-1.99-0.15l0.01-0.17l0.65,0.05l0.31-4.05l-2.35-0.18
		l-0.27,3.57c-0.02,0.23,0.04,0.37,0.16,0.44c0.08,0.04,0.25,0.07,0.53,0.09l-0.01,0.17l-1.99-0.15l0.01-0.17l0.65,0.05l0.41-5.35
		c0.02-0.29-0.17-0.44-0.57-0.47l-0.14-0.01l0.01-0.17l1.97,0.15l-0.01,0.17l-0.62-0.05l-0.12,1.52l2.35,0.18l0.08-1.1
		c0.01-0.14-0.03-0.26-0.13-0.33c-0.1-0.08-0.24-0.12-0.42-0.14l-0.16-0.01l0.01-0.17l1.99,0.15l-0.01,0.17L179.39,291.61z"/>
</g>
<g>
	<path fill="#FFFFFF" d="M245.41,260.2v-16.06h5.18c1.61,0,3.01,0.31,4.22,0.94c1.21,0.62,2.15,1.54,2.83,2.76
		c0.68,1.21,1.01,2.66,1.01,4.32c0,2.52-0.73,4.49-2.2,5.91c-1.46,1.42-3.42,2.13-5.86,2.13H245.41z M246.98,258.79h3.45
		c2.01,0,3.61-0.58,4.8-1.73c1.19-1.15,1.78-2.78,1.78-4.89c0-2.1-0.6-3.72-1.79-4.87c-1.19-1.15-2.79-1.73-4.79-1.73h-3.45V258.79z
		"/>
	<path fill="#FFFFFF" d="M262.3,260.2v-16.06h9.04v1.42h-7.47v5.84h6.1v1.42h-6.1v5.96h7.88v1.42H262.3z"/>
	<path fill="#FFFFFF" d="M281.46,260.2v-16.06h1.57v14.64h7.45v1.42H281.46z"/>
	<path fill="#FFFFFF" d="M291.25,260.2l5.89-16.06h1.69l5.89,16.06h-1.67l-1.84-5.12h-6.47l-1.83,5.12H291.25z M295.2,253.72h5.53
		l-2.11-5.82c-0.08-0.22-0.17-0.51-0.28-0.85c-0.1-0.35-0.19-0.63-0.25-0.86l-0.09-0.36h-0.04c-0.23,0.88-0.44,1.57-0.62,2.07
		L295.2,253.72z"/>
	<path fill="#FFFFFF" d="M312.28,258.42l0.94-1.2c0.04,0.04,0.11,0.11,0.2,0.19c0.09,0.08,0.27,0.22,0.55,0.42
		c0.28,0.2,0.58,0.38,0.88,0.53s0.69,0.29,1.16,0.42c0.47,0.13,0.94,0.19,1.42,0.19c0.91,0,1.67-0.25,2.28-0.75
		c0.61-0.5,0.92-1.18,0.92-2.02c0-0.43-0.09-0.82-0.27-1.17s-0.43-0.65-0.74-0.9c-0.31-0.25-0.66-0.48-1.06-0.69
		s-0.83-0.41-1.27-0.6c-0.45-0.19-0.89-0.38-1.33-0.58c-0.44-0.2-0.86-0.42-1.27-0.67c-0.4-0.25-0.76-0.53-1.06-0.83
		c-0.31-0.3-0.55-0.67-0.74-1.11c-0.18-0.43-0.27-0.92-0.27-1.44c0-1.18,0.47-2.2,1.42-3.05c0.94-0.85,2.14-1.27,3.59-1.27
		c0.52,0,1.02,0.05,1.51,0.16c0.49,0.11,0.89,0.24,1.22,0.39c0.32,0.15,0.61,0.3,0.85,0.45c0.25,0.15,0.43,0.28,0.55,0.38l0.17,0.17
		l-0.78,1.33c-0.04-0.04-0.09-0.09-0.17-0.15s-0.23-0.17-0.47-0.33c-0.24-0.16-0.48-0.29-0.74-0.41c-0.25-0.12-0.57-0.23-0.96-0.33
		c-0.39-0.1-0.78-0.15-1.18-0.15c-0.99,0-1.8,0.28-2.44,0.83c-0.64,0.55-0.95,1.2-0.95,1.93c0,0.41,0.09,0.78,0.27,1.1
		c0.18,0.33,0.43,0.61,0.74,0.84c0.31,0.23,0.66,0.45,1.06,0.65s0.83,0.39,1.27,0.58c0.45,0.19,0.89,0.38,1.33,0.57
		s0.86,0.42,1.27,0.68c0.4,0.26,0.76,0.55,1.06,0.87s0.55,0.71,0.74,1.16c0.18,0.46,0.27,0.97,0.27,1.53c0,1.23-0.44,2.27-1.33,3.1
		s-2.06,1.25-3.53,1.25c-0.62,0-1.21-0.07-1.79-0.21s-1.06-0.31-1.44-0.51s-0.72-0.4-1.01-0.61c-0.29-0.2-0.51-0.38-0.65-0.52
		L312.28,258.42z"/>
	<path fill="#FFFFFF" d="M325.75,260.2v-16.06h9.04v1.42h-7.47v5.84h6.1v1.42h-6.1v5.96h7.88v1.42H325.75z"/>
	<path fill="#FFFFFF" d="M338.78,260.2v-16.06h4.75c1.35,0,2.35,0.15,3.01,0.44c0.76,0.33,1.35,0.86,1.78,1.59
		c0.43,0.73,0.64,1.58,0.64,2.55c0,1.08-0.28,2.01-0.83,2.79c-0.55,0.78-1.29,1.3-2.2,1.55v0.04c0.1,0.13,0.24,0.35,0.41,0.64
		l3.49,6.47h-1.81l-3.62-6.76h-4.05v6.76H338.78z M340.35,252.03h3.81c0.97,0,1.75-0.29,2.32-0.88c0.57-0.59,0.86-1.38,0.86-2.39
		c0-1.35-0.49-2.29-1.46-2.81c-0.48-0.26-1.25-0.39-2.29-0.39h-3.24V252.03z"/>
	<path fill="#FFFFFF" d="M353.12,260.2v-16.06h9.04v1.42h-7.47v5.84h6.1v1.42h-6.1v5.96h7.88v1.42H353.12z"/>
	<path fill="#FFFFFF" d="M366.15,260.2v-16.06h1.53l8.19,11.56c0.16,0.24,0.35,0.54,0.57,0.9c0.22,0.36,0.4,0.66,0.54,0.9l0.21,0.37
		h0.04c-0.09-0.88-0.13-1.6-0.13-2.16v-11.56h1.57v16.06h-1.53l-8.19-11.55c-0.16-0.24-0.35-0.54-0.57-0.9
		c-0.22-0.36-0.4-0.67-0.54-0.9l-0.21-0.37h-0.04c0.09,0.88,0.13,1.61,0.13,2.17v11.55H366.15z"/>
	<path fill="#FFFFFF" d="M381.32,260.2l5.89-16.06h1.69l5.89,16.06h-1.67l-1.84-5.12h-6.47l-1.83,5.12H381.32z M385.27,253.72h5.53
		l-2.11-5.82c-0.08-0.22-0.17-0.51-0.28-0.85c-0.1-0.35-0.19-0.63-0.25-0.86l-0.09-0.36h-0.04c-0.23,0.88-0.44,1.57-0.62,2.07
		L385.27,253.72z"/>
</g>
<g>
	<path fill="#FFFFFF" d="M245.41,270.45c0-0.57,0.1-1.1,0.31-1.61c0.2-0.5,0.48-0.93,0.84-1.29c0.35-0.36,0.78-0.64,1.27-0.85
		c0.5-0.21,1.02-0.31,1.58-0.31c0.35,0,0.69,0.04,1.02,0.1c0.33,0.07,0.6,0.16,0.81,0.26s0.4,0.2,0.56,0.3
		c0.16,0.1,0.28,0.19,0.35,0.26l0.11,0.1l-0.42,0.58c-0.03-0.02-0.06-0.05-0.11-0.09s-0.15-0.11-0.31-0.21
		c-0.16-0.1-0.33-0.19-0.5-0.27c-0.18-0.08-0.4-0.15-0.67-0.21c-0.27-0.06-0.55-0.09-0.83-0.09c-0.61,0-1.16,0.15-1.65,0.44
		s-0.87,0.69-1.14,1.2c-0.27,0.51-0.41,1.07-0.41,1.69c0,0.63,0.14,1.21,0.41,1.73c0.27,0.52,0.66,0.94,1.15,1.25
		c0.5,0.31,1.05,0.47,1.67,0.47c0.3,0,0.59-0.04,0.88-0.11c0.29-0.07,0.53-0.16,0.73-0.27c0.2-0.1,0.37-0.21,0.52-0.31
		c0.15-0.1,0.27-0.19,0.34-0.27l0.11-0.11l0.45,0.55c-0.03,0.03-0.07,0.08-0.13,0.13c-0.06,0.06-0.18,0.15-0.38,0.3
		c-0.2,0.14-0.4,0.27-0.62,0.38c-0.22,0.11-0.5,0.21-0.85,0.3c-0.35,0.09-0.71,0.13-1.07,0.13c-0.77,0-1.46-0.19-2.08-0.56
		s-1.1-0.87-1.44-1.51C245.58,271.91,245.41,271.21,245.41,270.45z"/>
	<path fill="#FFFFFF" d="M254.18,274.48v-7.96h0.78v3.63h4.62v-3.63h0.78v7.96h-0.78v-3.63h-4.62v3.63H254.18z"/>
	<path fill="#FFFFFF" d="M262.67,274.48v-7.96h0.78v7.96H262.67z"/>
	<path fill="#FFFFFF" d="M265.76,274.48v-7.96h0.78v7.26h3.69v0.7H265.76z"/>
	<path fill="#FFFFFF" d="M271.62,274.48v-7.96h4.48v0.7h-3.71v2.9h3.02v0.7h-3.02v2.96h3.91v0.7H271.62z"/>
</g>
<g>
	<path fill="#FFFFFF" d="M245.41,232.06V221.6h2.96v10.45c0,1.07,0.33,1.91,0.98,2.52c0.65,0.61,1.53,0.91,2.63,0.91
		s1.98-0.3,2.64-0.91c0.66-0.6,0.99-1.45,0.99-2.54V221.6h2.96v10.45c0,1.82-0.6,3.3-1.81,4.43c-1.21,1.13-2.79,1.7-4.76,1.7
		c-1.98,0-3.57-0.57-4.78-1.7C246.01,235.36,245.41,233.88,245.41,232.06z"/>
	<path fill="#FFFFFF" d="M262.47,237.92V221.6h2.96l6.18,9.42c0.18,0.28,0.39,0.62,0.62,1.05c0.23,0.42,0.41,0.78,0.53,1.07
		l0.21,0.41h0.05c-0.11-1.04-0.16-1.88-0.16-2.53v-9.42h2.94v16.31h-2.94l-6.18-9.4c-0.18-0.28-0.39-0.62-0.62-1.05
		c-0.23-0.42-0.41-0.77-0.55-1.05l-0.18-0.44h-0.05c0.11,1.04,0.16,1.88,0.16,2.53v9.4H262.47z"/>
	<path fill="#FFFFFF" d="M279.93,237.92V221.6h2.96v16.31H279.93z"/>
	<path fill="#FFFFFF" d="M290.89,237.92l-5.95-16.31h3.19l3.58,10.64c0.09,0.28,0.19,0.61,0.29,1.01c0.1,0.4,0.18,0.73,0.24,0.99
		l0.09,0.39h0.05l0.09-0.39c0.06-0.26,0.14-0.59,0.24-0.99c0.1-0.4,0.2-0.74,0.29-1.01l3.61-10.64h3.17l-5.95,16.31H290.89z"/>
	<path fill="#FFFFFF" d="M301.83,237.92V221.6h9.76v2.55h-6.8v4.27h5.49v2.55h-5.49v4.39h7.17v2.55H301.83z"/>
	<path fill="#FFFFFF" d="M315.04,237.92V221.6h5.26c1.52,0,2.61,0.15,3.29,0.46c0.83,0.38,1.48,0.96,1.95,1.72
		c0.47,0.77,0.71,1.68,0.71,2.73c0,1-0.25,1.9-0.75,2.72s-1.17,1.4-2.01,1.73v0.05c0.15,0.15,0.34,0.42,0.55,0.8l3.35,6.09h-3.31
		l-3.24-6.09H318v6.09H315.04z M318,229.25h2.67c0.8,0,1.42-0.23,1.88-0.68c0.46-0.45,0.69-1.08,0.69-1.9c0-0.84-0.22-1.47-0.67-1.9
		c-0.44-0.42-1.22-0.63-2.32-0.63H318V229.25z"/>
	<path fill="#FFFFFF" d="M328.91,235.96l1.61-2.23c0.05,0.05,0.11,0.11,0.21,0.18c0.09,0.08,0.28,0.21,0.56,0.41
		c0.28,0.2,0.57,0.38,0.87,0.53c0.3,0.15,0.67,0.29,1.11,0.41c0.44,0.12,0.88,0.18,1.31,0.18c0.66,0,1.22-0.17,1.68-0.52
		s0.69-0.83,0.69-1.46c0-0.52-0.26-0.98-0.79-1.39s-1.17-0.76-1.93-1.07c-0.76-0.31-1.51-0.64-2.26-1.01s-1.39-0.89-1.92-1.56
		s-0.79-1.47-0.79-2.39c0-1.35,0.52-2.47,1.56-3.38c1.04-0.9,2.34-1.36,3.91-1.36c0.95,0,1.83,0.15,2.64,0.44
		c0.81,0.29,1.39,0.58,1.72,0.87l0.51,0.44l-1.29,2.41c-0.12-0.11-0.29-0.24-0.49-0.4c-0.21-0.16-0.62-0.37-1.25-0.63
		c-0.63-0.26-1.25-0.39-1.86-0.39c-0.7,0-1.29,0.18-1.76,0.55c-0.47,0.37-0.7,0.83-0.7,1.4c0,0.52,0.26,0.97,0.79,1.36
		c0.53,0.38,1.17,0.72,1.92,1.01c0.75,0.29,1.5,0.62,2.25,0.99c0.75,0.37,1.39,0.89,1.92,1.57s0.79,1.5,0.79,2.47
		c0,1.35-0.49,2.48-1.46,3.4c-0.97,0.92-2.28,1.38-3.92,1.38c-0.67,0-1.33-0.08-1.96-0.23c-0.64-0.15-1.17-0.34-1.6-0.55
		c-0.43-0.21-0.8-0.43-1.13-0.65c-0.32-0.22-0.56-0.41-0.71-0.56L328.91,235.96z"/>
	<path fill="#FFFFFF" d="M342.88,237.92V221.6h2.96v16.31H342.88z"/>
	<path fill="#FFFFFF" d="M349.98,237.92V221.6h5.56c2.54,0,4.56,0.72,6.06,2.16s2.25,3.43,2.25,5.97c0,2.54-0.75,4.54-2.25,6
		c-1.5,1.46-3.52,2.18-6.06,2.18H349.98z M352.94,235.37h2.44c1.68,0,3.01-0.49,3.97-1.46c0.96-0.97,1.45-2.36,1.45-4.17
		c0-1.78-0.49-3.15-1.46-4.12c-0.97-0.97-2.29-1.46-3.96-1.46h-2.44V235.37z"/>
	<path fill="#FFFFFF" d="M376.35,237.92l-1.38-4.18h-5.72l-1.38,4.18h-3.06l5.74-16.31h3.1l5.74,16.31H376.35z M372.15,224.43h-0.05
		c-0.25,1.07-0.48,1.91-0.69,2.53l-1.45,4.37h4.27l-1.45-4.37L372.15,224.43z"/>
	<path fill="#FFFFFF" d="M381.5,237.92V221.6h5.56c2.54,0,4.56,0.72,6.06,2.16s2.25,3.43,2.25,5.97c0,2.54-0.75,4.54-2.25,6
		c-1.5,1.46-3.52,2.18-6.06,2.18H381.5z M384.46,235.37h2.44c1.68,0,3.01-0.49,3.97-1.46c0.96-0.97,1.45-2.36,1.45-4.17
		c0-1.78-0.49-3.15-1.46-4.12c-0.97-0.97-2.29-1.46-3.96-1.46h-2.44V235.37z"/>
</g>
</svg>
