<?xml version="1.0" encoding="utf-8"?>
<!-- Generator: Adobe Illustrator 26.5.0, SVG Export Plug-In . SVG Version: 6.00 Build 0)  -->
<svg version="1.1" id="Capa_1" xmlns="http://www.w3.org/2000/svg" xmlns:xlink="http://www.w3.org/1999/xlink" x="0px" y="0px"
	 viewBox="0 0 750 180" style="enable-background:new 0 0 750 180;" xml:space="preserve">
<style type="text/css">
	.st0{fill:#FEFEFE;}
	.st1{enable-background:new    ;}
	.st2{fill-rule:evenodd;clip-rule:evenodd;fill:#FFFFFF;}
	.st3{fill-rule:evenodd;clip-rule:evenodd;fill:#002D74;}
	.st4{fill-rule:evenodd;clip-rule:evenodd;fill:#CE0E2D;}
	.st5{fill:#FEFEFE;fill-opacity:0;}
	.st6{opacity:0.25;fill:none;stroke:#FEFEFE;stroke-width:2;stroke-miterlimit:10;enable-background:new    ;}
</style>
<g>
	<g>
		<path class="st0" d="M469.7,97c0.2,0,0.3,0,0.5,0.1s0.3,0.2,0.5,0.3l2.7,2.8c-1.2,1.5-2.6,2.7-4.4,3.5s-3.9,1.2-6.3,1.2
			c-2.2,0-4.2-0.4-6-1.1c-1.8-0.8-3.2-1.8-4.5-3.1c-1.2-1.3-2.2-2.9-2.8-4.7c-0.7-1.8-1-3.8-1-5.9c0-2.2,0.4-4.2,1.1-6
			s1.7-3.4,3-4.7s2.8-2.3,4.6-3.1c1.8-0.7,3.8-1.1,5.9-1.1c1.1,0,2.1,0.1,3.1,0.3s1.9,0.5,2.7,0.8c0.8,0.3,1.6,0.8,2.3,1.2
			c0.7,0.5,1.3,1,1.9,1.6l-2.3,3.1c-0.1,0.2-0.3,0.4-0.5,0.5c-0.2,0.2-0.5,0.2-0.8,0.2c-0.2,0-0.5-0.1-0.7-0.2
			c-0.2-0.1-0.4-0.2-0.7-0.4c-0.2-0.2-0.5-0.3-0.8-0.5s-0.6-0.3-1-0.5s-0.9-0.3-1.4-0.4c-0.5-0.1-1.1-0.2-1.9-0.2
			c-1.1,0-2.1,0.2-3.1,0.6c-0.9,0.4-1.7,1-2.4,1.8c-0.7,0.8-1.2,1.8-1.6,2.9c-0.4,1.2-0.6,2.5-0.6,4s0.2,2.8,0.6,4s1,2.1,1.7,2.9
			c0.7,0.8,1.5,1.4,2.5,1.8c0.9,0.4,1.9,0.6,3,0.6c0.6,0,1.2,0,1.7-0.1s1-0.2,1.4-0.3s0.9-0.3,1.2-0.6c0.4-0.2,0.8-0.5,1.2-0.9
			c0.2-0.1,0.3-0.2,0.5-0.3C469.3,97.1,469.5,97,469.7,97z"/>
		<path class="st0" d="M502.2,90c0,2.1-0.4,4.1-1.1,5.9c-0.7,1.8-1.8,3.4-3.1,4.7s-2.9,2.4-4.8,3.2c-1.9,0.8-3.9,1.1-6.2,1.1
			s-4.3-0.4-6.2-1.1s-3.5-1.8-4.8-3.2c-1.3-1.3-2.4-2.9-3.1-4.7s-1.1-3.8-1.1-5.9s0.4-4.1,1.1-5.9c0.7-1.8,1.8-3.4,3.1-4.7
			c1.3-1.3,2.9-2.4,4.8-3.1c1.9-0.8,3.9-1.1,6.2-1.1c2.3,0,4.3,0.4,6.2,1.2s3.5,1.8,4.8,3.2c1.3,1.3,2.3,2.9,3.1,4.7
			C501.8,85.9,502.2,87.9,502.2,90z M495.3,90c0-1.4-0.2-2.7-0.6-3.9c-0.4-1.2-0.9-2.1-1.6-2.9c-0.7-0.8-1.6-1.4-2.6-1.8
			c-1-0.4-2.2-0.6-3.5-0.6s-2.5,0.2-3.5,0.6c-1,0.4-1.9,1-2.6,1.8s-1.2,1.8-1.6,2.9c-0.4,1.2-0.6,2.5-0.6,3.9c0,1.5,0.2,2.8,0.6,3.9
			c0.4,1.2,0.9,2.1,1.6,2.9c0.7,0.8,1.6,1.4,2.6,1.8c1,0.4,2.2,0.6,3.5,0.6s2.4-0.2,3.5-0.6c1-0.4,1.9-1,2.6-1.8
			c0.7-0.8,1.2-1.8,1.6-2.9C495.1,92.7,495.3,91.4,495.3,90z"/>
		<path class="st0" d="M530.6,90c0,2.1-0.4,4.1-1.1,5.8c-0.7,1.8-1.8,3.3-3.1,4.6s-2.9,2.3-4.8,3c-1.9,0.7-3.9,1.1-6.2,1.1H507
			c-1.6,0-3-1.3-3-3V78.3c0-1.6,1.3-3,3-3h8.4c2.3,0,4.3,0.4,6.2,1.1c1.9,0.7,3.5,1.7,4.8,3s2.3,2.8,3.1,4.6
			C530.3,86,530.6,87.9,530.6,90z M523.7,90c0-1.4-0.2-2.7-0.6-3.9c-0.4-1.2-0.9-2.1-1.6-3c-0.7-0.8-1.6-1.4-2.6-1.9
			c-1-0.4-2.2-0.7-3.5-0.7H511v18.8h4.5c1.3,0,2.4-0.2,3.5-0.7c1-0.4,1.9-1.1,2.6-1.9c0.7-0.8,1.2-1.8,1.6-3
			C523.5,92.8,523.7,91.4,523.7,90z"/>
		<path class="st0" d="M539.4,80.6v6.8h9.2v5h-9.2v6.9h8.2c2.1,0,3.7,1.7,3.7,3.7v1.5h-18.8V75.3h18.8v1.5c0,2.1-1.7,3.7-3.7,3.7
			h-8.2V80.6z"/>
		<path class="st0" d="M570.5,81.3c-0.2,0.3-0.4,0.6-0.6,0.7c-0.2,0.2-0.5,0.2-0.9,0.2c-0.3,0-0.6-0.1-1-0.3s-0.8-0.4-1.2-0.7
			c-0.4-0.2-1-0.5-1.5-0.7c-0.6-0.2-1.2-0.3-2-0.3c-1.3,0-2.2,0.3-2.8,0.8s-0.9,1.3-0.9,2.2c0,0.6,0.2,1.1,0.6,1.5
			c0.4,0.4,0.9,0.7,1.5,1s1.3,0.5,2.1,0.8c0.8,0.2,1.6,0.5,2.4,0.8c0.8,0.3,1.6,0.6,2.4,1c0.8,0.4,1.5,0.9,2.1,1.5s1.1,1.3,1.5,2.2
			s0.6,1.9,0.6,3.1c0,1.3-0.2,2.6-0.7,3.8s-1.1,2.2-2,3.1c-0.9,0.9-2,1.6-3.3,2.1s-2.8,0.8-4.4,0.8c-0.9,0-1.8-0.1-2.8-0.3
			c-0.9-0.2-1.9-0.5-2.7-0.8c-0.9-0.3-1.7-0.7-2.5-1.2s-1.4-1-2-1.6l2-3.2c0.2-0.2,0.4-0.4,0.6-0.6c0.3-0.2,0.5-0.2,0.9-0.2
			s0.8,0.1,1.2,0.4c0.4,0.3,0.9,0.5,1.4,0.8s1.1,0.6,1.8,0.8c0.7,0.3,1.5,0.4,2.4,0.4c1.2,0,2.2-0.3,2.9-0.8s1-1.4,1-2.6
			c0-0.7-0.2-1.2-0.6-1.7s-0.9-0.8-1.5-1.1s-1.3-0.5-2.1-0.7s-1.6-0.4-2.4-0.7s-1.6-0.6-2.4-1c-0.8-0.4-1.5-0.9-2.1-1.5
			s-1.1-1.4-1.5-2.3s-0.6-2.1-0.6-3.4c0-1.1,0.2-2.2,0.7-3.2c0.4-1,1.1-2,1.9-2.8c0.9-0.8,1.9-1.5,3.1-2c1.2-0.5,2.7-0.7,4.3-0.7
			c0.9,0,1.8,0.1,2.6,0.2c0.8,0.1,1.7,0.3,2.4,0.6c0.8,0.3,1.5,0.6,2.1,1c0.7,0.4,1.3,0.8,1.8,1.3L570.5,81.3z"/>
	</g>
	<g>
		<path class="st0" d="M584.4,10.2c-1.1-0.4-2.3,0-3,1l-36.2,48.6c-0.2,0.2-0.3,0.5-0.4,0.7l0,0c-0.1,0.3-0.1,0.6-0.1,0.9
			c0,0.1,0,0.2,0,0.3c0,0.2,0.1,0.5,0.2,0.7c0,0.1,0,0.1,0,0.2c0,0,0,0,0.1,0.1v0.1c0.1,0.2,0.3,0.5,0.5,0.6c0,0,0.1,0,0.1,0.1
			c0.2,0.2,0.4,0.3,0.7,0.4c0.1,0,0.2,0.1,0.3,0.1c0.2,0.1,0.5,0.1,0.7,0.1c0.1,0,0.2,0,0.3,0h0.1l30.9-3.6V55l-15.2,1.8l15.1-7.1
			v-6L556,54.3L580.9,21v138L556,125.6l22.5,10.7v-6l-15.1-7.2l15.2,1.8v-5.5l-30.9-3.6h-0.1c-0.1,0-0.2,0-0.3,0
			c-0.2,0-0.5,0-0.7,0.1c-0.1,0-0.2,0.1-0.3,0.1c-0.2,0.1-0.5,0.2-0.7,0.4l-0.1,0.1c-0.2,0.2-0.4,0.4-0.5,0.6v0.1c0,0,0,0-0.1,0.1
			c0,0.1,0,0.1,0,0.2c-0.1,0.2-0.1,0.5-0.2,0.7c0,0.1,0,0.2,0,0.3c0,0.3,0,0.6,0.1,0.9l0,0c0.1,0.2,0.2,0.5,0.4,0.7l36.2,48.7
			c0.5,0.7,1.3,1.1,2.2,1.1c0.3,0,0.6,0,0.9-0.1c1.1-0.4,1.9-1.4,1.9-2.6v-40.8l0,0v-7l0,0v-59l0,0v-7l0,0V12.8
			C586.3,11.7,585.5,10.6,584.4,10.2z"/>
		<path class="st0" d="M606.2,30.6L588.5,39v6l16.2-7.6v105.3l-16.2-7.6v6l17.7,8.4c0.4,0.2,0.8,0.3,1.2,0.3c0.5,0,1-0.1,1.4-0.4
			c0.8-0.5,1.3-1.4,1.3-2.3v-114c0-0.9-0.5-1.8-1.3-2.3C608,30.3,607.1,30.2,606.2,30.6z"/>
		<polygon class="st0" points="602.4,52.3 588.5,53.9 588.5,59.4 602.4,57.7 		"/>
		<path class="st0" d="M626.7,50.4c-0.6-0.5-1.3-0.8-2.1-0.7l-12.3,1.4v5.5l9.9-1.1v69.1l-9.9-1.1v5.5l12.3,1.4
			c0.8,0.1,1.5-0.2,2.1-0.7s0.9-1.2,0.9-2V52.5C627.6,51.6,627.3,50.9,626.7,50.4z"/>
		<polygon class="st0" points="602.4,122.2 588.5,120.6 588.5,126 602.4,127.7 		"/>
	</g>
	<g class="st1">
		<path class="st0" d="M635.4,102c0-10.4,13.5-12,13.5-17.8c0-2.5-1.9-4-4.4-4c-3.4,0-5.2,3.4-5.2,3.4l-3.9-2.6c0,0,2.6-5.8,9.5-5.8
			c5.1,0,9.4,3.1,9.4,8.5c0,9.2-12.9,10.8-13,16.3h13.5v4.5h-19.1C635.5,103.6,635.4,102.8,635.4,102z"/>
		<path class="st0" d="M660.1,90.1c0-8.3,2.6-14.8,10.4-14.8c7.9,0,10.5,6.6,10.5,14.8c0,8.3-2.6,14.9-10.5,14.9
			C662.7,105.1,660.1,98.4,660.1,90.1z M675.6,90.1c0-5.6-1.1-10-5.1-10c-3.9,0-5.1,4.4-5.1,10c0,5.7,1.1,10.1,5.1,10.1
			C674.5,100.3,675.6,95.8,675.6,90.1z"/>
		<path class="st0" d="M686.3,102c0-10.4,13.5-12,13.5-17.8c0-2.5-1.9-4-4.4-4c-3.4,0-5.2,3.4-5.2,3.4l-3.9-2.6c0,0,2.6-5.8,9.5-5.8
			c5.1,0,9.4,3.1,9.4,8.5c0,9.2-12.9,10.8-13,16.3h13.5v4.5h-19.1C686.5,103.6,686.3,102.8,686.3,102z"/>
		<path class="st0" d="M712.9,97.2c0,0,2.7,2.9,6.5,2.9c3,0,5.2-1.8,5.2-4.3c0-3-2.8-4.5-6.2-4.5h-2l-1.2-2.7l5.3-6.2
			c1.1-1.3,2.1-2.2,2.1-2.2v-0.1c0,0-0.9,0.1-2.6,0.1h-8.6v-4.5h17.6v3.3l-7.1,8.1c4,0.6,7.9,3.4,7.9,8.4c0,4.9-3.7,9.4-10.1,9.4
			c-6.1,0-9.5-3.9-9.5-3.9L712.9,97.2z"/>
	</g>
	<g>
		<g>
			<g>
				<path class="st0" d="M308.1,65.3c0-6.1-3.9-9.6-9.8-9.5h-6.6V75h6.6C304.2,74.9,308.1,71.3,308.1,65.3z M295.2,72V58.8h2.9
					c3.9,0,6.4,2.3,6.4,6.6s-2.5,6.7-6.4,6.7L295.2,72z"/>
				<polygon class="st0" points="175.3,56.4 171.8,56.4 171.8,75.7 175.3,75.7 				"/>
				<polygon class="st0" points="201.1,67.3 207.6,67.3 207.6,64.3 201.1,64.3 201.1,59.3 209.1,59.2 209.1,56.2 197.6,56.3 
					197.6,75.5 209.6,75.5 209.6,72.5 201.1,72.5 				"/>
				<path class="st0" d="M138.8,76.2c4.6,0,7.8-3,7.8-7.3V56.6h-3.5v12.3c0,2.6-1.7,4.1-4.3,4.1s-4.3-1.4-4.3-4V56.7H131V69
					C131,73.3,134.1,76.2,138.8,76.2z"/>
				<path class="st0" d="M284,70.1l1.6,4.9h3.6l-6.8-19.2h-3.7l-6.8,19.3h3.6l1.6-4.9L284,70.1z M279.8,62.1c0.4-1.1,0.8-3,0.8-3
					h0.1c0,0,0.4,1.9,0.8,3l1.7,5.1h-5L279.8,62.1z"/>
				<polygon class="st0" points="249.6,56 246.1,56 246.1,75.3 249.6,75.2 				"/>
				<path class="st0" d="M163.4,67.6c0,1.1,0.2,3,0.2,3h-0.1c0,0-0.9-1.9-1.6-3l-7.3-11.1h-3.5v19.3h3.5V64.7c0-1.1-0.2-3-0.2-3h0.1
					c0,0,0.9,1.9,1.6,3l7.3,11.1h3.5V56.5h-3.5V67.6z"/>
				<path class="st0" d="M233.5,61.3c0-1.4,1.3-2.3,2.9-2.3c2.4,0,4.3,1.7,4.3,1.7l1.5-2.9c0,0-2-2.1-5.8-2c-3.7,0-6.5,2.4-6.5,5.6
					c0,5.9,9.1,5.3,9.1,8.7c0,1.6-1.3,2.3-2.8,2.3c-2.7,0-4.8-2-4.8-2l-1.9,2.6c0,0,2.4,2.6,6.6,2.6c4,0,6.3-2.6,6.3-5.7
					C242.6,63.8,233.5,64.7,233.5,61.3z"/>
				<path class="st0" d="M188.2,75.6l7-19.3h-3.7l-4.3,12.6c-0.4,1.1-0.7,2.8-0.7,2.8h-0.1c0,0-0.4-1.7-0.7-2.8l-4.2-12.5h-3.8
					l7,19.2H188.2z"/>
				<path class="st0" d="M223.8,68.2c-0.4-0.7-0.7-0.9-0.7-0.9v-0.1c2-0.8,3.3-3,3.3-5.3c0-2.5-1.2-4.4-3.1-5.2
					c-0.8-0.4-1.8-0.5-3.9-0.5h-6.2v19.3h3.5v-7.2h3.4l3.8,7.2h3.9L223.8,68.2z M219.9,65.2h-3.1v-6h2.7c2.7,0,3.5,1.1,3.5,3
					C222.9,64,221.7,65.2,219.9,65.2z"/>
				<path class="st0" d="M270.9,65.5c0-6.1-3.9-9.6-9.8-9.5h-6.6v19.3h6.6C267,75.1,270.9,71.5,270.9,65.5z M258,72.2V59h2.9
					c3.9,0,6.4,2.3,6.4,6.6s-2.5,6.7-6.4,6.7L258,72.2z"/>
				<polygon class="st0" points="162.4,84.3 162.4,82.6 151.6,82.7 151.6,101.8 162.9,101.8 162.9,100.1 153.5,100.1 153.5,93 
					160.8,93 160.8,91.3 153.5,91.3 153.5,84.4 				"/>
				<path class="st0" d="M137.6,82.8h-6.2V102h6.2c5.8,0,9.6-3.5,9.6-9.7C147.3,86.2,143.4,82.7,137.6,82.8z M137.5,100.2h-4.1V84.4
					h4.1c4.7,0,7.9,2.7,7.9,7.8C145.3,97.4,142.2,100.2,137.5,100.2z"/>
				<path class="st0" d="M288.8,95.7c0,1,0.2,2.6,0.2,2.6h-0.1c0,0-0.9-1.6-1.6-2.6L277.5,82h-1.8v19.2h1.9V87.4
					c0-1-0.2-2.6-0.2-2.6h0.1c0,0,0.9,1.6,1.6,2.6l9.8,13.7h1.8V81.9h-1.9V95.7z"/>
				<polygon class="st0" points="176.4,82.5 174.5,82.5 174.5,101.7 185.3,101.7 185.3,100 176.4,100 				"/>
				<path class="st0" d="M193.3,82.4l-7,19.2h2l2.2-6.1h7.7l2.2,6.1h2l-7-19.1L193.3,82.4z M191,93.9l2.6-7c0.3-0.9,0.7-2.5,0.7-2.5
					h0.1c0,0,0.4,1.6,0.7,2.5l2.5,6.9L191,93.9z"/>
				<polygon class="st0" points="229.4,92.6 236.6,92.6 236.6,90.9 229.4,90.9 229.4,83.9 238.3,83.9 238.3,82.2 227.5,82.3 
					227.5,101.4 238.8,101.4 238.8,99.7 229.4,99.7 				"/>
				<path class="st0" d="M213.7,87.1c0-1.7,1.6-3.3,4-3.3c2.5,0,4.2,1.6,4.2,1.6l0.9-1.6c0,0-1.8-1.8-5.1-1.8c-3.5,0-6,2.4-6,5.2
					c0,5.9,9.6,4.7,9.6,9.5c0,2.1-1.7,3.3-3.8,3.3c-3,0-5-2.1-5-2.1l-1.1,1.5c0,0,2.2,2.4,6.1,2.4c3.6,0,5.8-2.4,5.8-5.2
					C223.3,90.3,213.7,91.7,213.7,87.1z"/>
				<path class="st0" d="M302.9,81.8h-2l-7,19.2h2l2.2-6.1h7.7l2.2,6.1h2L302.9,81.8z M298.6,93.3l2.6-7c0.3-0.9,0.7-2.5,0.7-2.5
					h0.1c0,0,0.4,1.6,0.7,2.5l2.5,6.9L298.6,93.3z"/>
				<polygon class="st0" points="262,92.4 269.3,92.4 269.3,90.7 262,90.7 262,83.7 271,83.7 271,82 260.2,82.1 260.2,101.2 
					271.5,101.2 271.5,99.5 262,99.5 				"/>
				<path class="st0" d="M251.6,92.8L251.6,92.8c2.2-0.7,3.6-2.7,3.6-5.3c0-2.3-1.1-4.1-2.9-4.9c-0.8-0.3-1.6-0.5-3.6-0.5H243v19.2
					h1.9v-8.1h4.8l4.3,8h2.2l-4.2-7.7C251.8,93,251.6,92.8,251.6,92.8z M249.5,91.5h-4.6v-7.7h3.9c1.5,0,2.2,0.2,2.7,0.4
					c1.1,0.6,1.7,1.8,1.7,3.3C253.3,90,251.8,91.5,249.5,91.5z"/>
				<path class="st0" d="M136.3,123.4c-2.6,0-4.5-2.1-4.5-4.7c0-2.6,1.8-4.6,4.4-4.6c2.1,0,3.3,1.2,3.3,1.2l0.6-0.8
					c0,0-1.3-1.4-4-1.4c-3.1,0-5.5,2.5-5.5,5.6c0,3.2,2.3,5.7,5.6,5.7c2.7,0,4.2-1.7,4.2-1.7l-0.6-0.8
					C139.9,121.9,138.6,123.3,136.3,123.4z"/>
				<polygon class="st0" points="150.3,118.1 144,118.1 144,113.1 142.9,113.1 142.9,124.1 144,124.1 144,119.1 150.3,119.1 
					150.3,124.1 151.4,124.1 151.4,113.1 150.3,113.1 				"/>
				<polygon class="st0" points="159.9,113.1 158.9,113.1 158.9,124 165,124 165,123 159.9,123.1 				"/>
				<polygon class="st0" points="168,118.9 172.2,118.9 172.2,118 168,118 168,114 173.1,113.9 173.1,113 167,113 167,124 
					173.4,124 173.4,123 168,123 				"/>
				<polygon class="st0" points="154.6,124.1 155.7,124.1 155.7,113.1 154.6,113.1 				"/>
			</g>
			<g>
				
					<ellipse transform="matrix(0.7061 -0.7081 0.7081 0.7061 -44.225 73.4112)" class="st2" cx="66.3" cy="90" rx="46.3" ry="46.1"/>
				<g>
					<g>
						
							<ellipse transform="matrix(0.7059 -0.7083 0.7083 0.7059 -44.2349 73.4438)" class="st3" cx="66.3" cy="90" rx="35.6" ry="35.4"/>
						<polygon class="st2" points="56.3,63.9 65.3,58.5 65.3,66.6 57.2,71.5 46.1,71.5 46.1,64.1 						"/>
						<polygon class="st4" points="47.9,65.6 47.9,70 56.8,70 63.8,65.8 63.8,61.2 56.8,65.4 						"/>
						<polygon class="st2" points="46.1,74.4 56.8,74.3 65.3,69.4 65.3,67.9 56.8,72.8 46.1,72.8 						"/>
						<polygon class="st2" points="46.1,77.5 56.8,77.4 65.3,72.6 65.3,71 56.8,75.9 46.1,76 						"/>
						<polygon class="st2" points="56.8,89.7 68.3,96.2 68.3,103 66,104.2 63.8,103 63.8,98.6 56.8,94.8 56.8,105.8 65.5,110.6 
							65.5,121.5 46.4,110.8 46.4,89 44.6,89 44.6,78.6 56.8,78.5 						"/>
						<polygon class="st4" points="46.2,80.1 47.9,80.1 55.3,80.1 55.3,87.4 55.3,90.7 66.8,97.1 66.8,102.1 66,102.5 65.3,102.1 
							65.3,97.7 55.3,92.2 55.3,106.7 64,111.5 64,118.9 47.9,109.9 47.9,87.5 46.2,87.5 						"/>
						<polygon class="st2" points="68.3,84.4 75.7,88.5 75.7,78.4 87.9,78.4 87.9,88.8 86.2,88.8 86.2,110.6 67,121.5 67,110.6 
							75.7,105.7 75.7,93.6 63.8,86.9 63.8,80.1 66,78.9 68.3,80.1 						"/>
						<polygon class="st4" points="66.8,81 66.8,85.3 77.2,91.2 77.2,87.3 77.2,80 84.6,79.9 86.4,79.9 86.4,87.3 84.6,87.3 
							84.6,109.7 68.6,118.9 68.6,111.5 77.2,106.6 77.2,92.9 77,92.5 65.3,86 65.3,81 66,80.6 						"/>
						<polygon class="st2" points="75.8,63.8 66.8,58.5 66.8,66.6 74.9,71.4 85.9,71.3 85.9,63.9 						"/>
						<polygon class="st4" points="84.1,65.4 84.1,69.8 75.3,69.9 68.3,65.8 68.3,61.2 75.3,65.3 						"/>
						<polygon class="st2" points="85.9,74.1 75.3,74.2 66.8,69.4 66.8,67.9 75.3,72.7 85.9,72.6 						"/>
						<polygon class="st2" points="85.9,77.3 75.3,77.3 66.8,72.6 66.8,71 75.3,75.8 85.9,75.7 						"/>
						<path class="st3" d="M37.8,110.3l-7,7c8.2,10.6,21,17.4,35.5,17.3c14.5-0.1,27.3-7,35.5-17.7l-7-6.9l0.3-0.3l6.9,6.9
							c5.6-7.5,8.9-16.8,8.9-26.8c0-24.7-20-44.6-44.7-44.4c-24.7,0.1-44.7,20.3-44.7,44.9c0,10,3.3,19.3,8.9,26.7l6.9-7L37.8,110.3
							L37.8,110.3z M66.3,44.6c25.1-0.1,45.4,20.1,45.4,45.1c0,25.1-20.3,45.5-45.4,45.6c-25.1,0.1-45.4-20.1-45.4-45.1
							C20.9,65.2,41.2,44.8,66.3,44.6z"/>
						<path class="st3" d="M24.3,86.9L24.3,86.9v-1.4h0.1V86l4.2,0.3c0.2,0,0.4,0.1,0.5,0.2c0.1,0.1,0.3,0.3,0.3,0.5
							c0.1,0.2,0.1,0.4,0.1,0.6c0,0.2-0.1,0.4-0.1,0.7c-0.1,0.2-0.2,0.4-0.3,0.6c-0.2,0.3-0.5,0.4-0.9,0.4L24.6,89
							c-0.2,0-0.4,0.2-0.4,0.6h-0.1l0.1-1.7h0.1v0.5l4.1,0.3c0.3,0,0.5-0.1,0.7-0.3s0.3-0.5,0.3-0.8s-0.1-0.5-0.2-0.8
							c-0.2-0.2-0.4-0.3-0.6-0.3l-3.7-0.3c-0.2,0-0.4,0.1-0.4,0.4L24.3,86.9L24.3,86.9z M29.5,84.8l0.1-0.5l-4.1-0.7
							c-0.2,0-0.4,0-0.5,0c-0.2,0-0.3,0.2-0.3,0.6h-0.1l0.2-0.9l4.7-1.6l0,0l-3.6-0.6c-0.1,0-0.3,0-0.4,0.1
							c-0.1,0.1-0.2,0.2-0.2,0.4h-0.1l0.2-1.3h0.1l-0.1,0.4l5.2,0.9v0.2l-4.7,1.7l0,0l3.3,0.6c0.3,0,0.4,0,0.6-0.1
							c0.1-0.1,0.1-0.3,0.2-0.5h0.1l-0.3,1.4L29.5,84.8L29.5,84.8z M30.5,79.9l0.2-0.5l-4.4-1.2c-0.1,0-0.3,0-0.3,0.1
							c-0.1,0.1-0.1,0.2-0.2,0.4h-0.1l0.5-1.6h0.1l-0.1,0.5l4.2,1.2c0.1,0,0.2,0.1,0.3,0.1s0.2,0,0.2-0.1s0.1-0.2,0.2-0.4h0.1
							L30.7,80L30.5,79.9L30.5,79.9z M31.9,74.5l-3-2.5c-0.1-0.1-0.2-0.1-0.2-0.1c-0.1-0.1-0.3-0.1-0.3,0c-0.1,0.1-0.2,0.2-0.2,0.4
							v0.1l-0.1-0.1l0.7-1.5l0.1,0.1l-0.2,0.5l4.2,3.6l-0.1,0.2l-4.7-0.3c-0.3,0-0.5,0-0.6,0S27.3,75,27.2,75
							c-0.1,0.1-0.1,0.1-0.2,0.3l-0.1,0.2l-0.1-0.1l0.8-1.7l0.1,0.1l-0.3,0.6L31.9,74.5L31.9,74.5z M35.3,69.6l0.3,0.2l0.1-0.2
							l-1.6-0.9L34,68.9l0.3,0.2c0.2,0.1,0.4,0.3,0.5,0.4c0.1,0.2,0.1,0.4,0,0.6c-0.1,0.3-0.3,0.7-0.5,1l-3-1.7
							c0.1-0.2,0.2-0.3,0.2-0.3c0.1-0.1,0.3-0.2,0.4-0.1c0.2,0,0.3,0.1,0.5,0.2l0.1-0.1l-1.7-0.9l-0.1,0.1l0.7,0.4L31,69.4l-1.1-0.6
							l0.1-0.2c0.3-0.5,0.5-0.8,0.8-1c0.2-0.1,0.5-0.1,0.9,0.1l0.2,0.1l0.1-0.2l-1.5-0.9l-0.1,0.2l0.3,0.2l-1.5,2.6l0.1,0.1
							c0.1-0.2,0.2-0.3,0.3-0.4c0.1-0.1,0.2-0.1,0.3,0l3.9,2.2l-0.3,0.5l0.1,0.1L35.3,69.6L35.3,69.6z M32,65l0.7-0.9l0.4,0.3
							c0.1-0.7,0.4-1.3,0.8-1.7c0.3-0.3,0.7-0.6,1.1-0.8c0.4-0.2,0.8-0.3,1.3-0.3c0.4,0,0.8,0.2,1.1,0.4c0.3,0.3,0.5,0.6,0.6,1
							s0.1,0.8-0.1,1.3c-0.1,0.4-0.3,0.9-0.7,1.2l0,0c0.1-0.1,0.4-0.2,0.7-0.4c0.4-0.2,0.7-0.3,0.9-0.5s0.4-0.3,0.6-0.5
							c0.1-0.1,0.2-0.3,0.2-0.4h0.1c0,0.2-0.1,0.4-0.3,0.7c-0.2,0.2-0.3,0.4-0.5,0.5c-0.2,0.2-0.4,0.3-0.6,0.4
							c-0.2,0.1-0.4,0.3-0.8,0.5c-0.7,0.4-1.3,0.7-1.8,0.9l0.5,0.5c0.1,0.1,0.2,0.1,0.2,0.1c0.1,0,0.1,0,0.2-0.1
							c0.1-0.1,0.2-0.2,0.2-0.2c0-0.1,0.1-0.1,0.2-0.2l0.1,0.1l-1.2,1.4l-0.1-0.1l0.3-0.4l-3.4-3c-0.2-0.2-0.4-0.1-0.6,0.2L32,65
							L32,65L32,65z M33.4,64.7l2.1,1.8v-0.2c0.7-0.2,1.3-0.6,1.6-0.9s0.4-0.6,0.5-1s0.1-0.7,0-1.1c-0.1-0.3-0.3-0.6-0.5-0.8
							c-0.3-0.2-0.6-0.4-1-0.4s-0.8,0-1.1,0.2c-0.4,0.2-0.7,0.4-1,0.7C33.5,63.5,33.3,64.1,33.4,64.7L33.4,64.7z M39.5,56.7
							L39.5,56.7l0.1,0.3c-0.3,0.1-0.5,0.2-0.6,0.3c-0.3,0.3-0.4,0.5-0.5,0.9c-0.1,0.3,0,0.6,0.2,0.8c0.1,0.2,0.3,0.3,0.5,0.3
							s0.4,0,0.6,0s0.5-0.1,0.8-0.2s0.6-0.2,0.9-0.2c0.2,0,0.5-0.1,0.7,0c0.2,0,0.4,0.1,0.5,0.3c0.2,0.2,0.3,0.5,0.3,0.7
							c0,0.3-0.1,0.6-0.2,0.9s-0.4,0.6-0.6,0.8c-0.3,0.3-0.6,0.4-0.9,0.5s-0.6,0.1-0.9,0s-0.5-0.2-0.7-0.4c-0.1-0.1-0.2-0.3-0.2-0.5
							s0-0.4,0-0.6c0.1-0.2,0.2-0.4,0.4-0.5c0.1-0.1,0.2-0.2,0.4-0.2c0.1,0,0.3,0,0.4,0s0.2,0.1,0.3,0.2c0.2,0.2,0.1,0.4,0,0.6
							l0.1,0.1c0.1-0.1,0.2-0.1,0.2-0.1c0.2-0.1,0.2-0.3,0.3-0.5c0-0.2,0-0.3-0.1-0.4s-0.3-0.2-0.4-0.2c-0.2,0-0.4,0-0.6,0.1
							S40.1,59.9,40,60c-0.2,0.2-0.4,0.4-0.5,0.7c-0.1,0.3-0.1,0.6-0.1,0.8c0,0.3,0.1,0.5,0.3,0.7c0.2,0.3,0.5,0.4,0.8,0.5
							s0.7,0,1-0.1c0.4-0.1,0.7-0.3,1-0.6c0.2-0.2,0.5-0.5,0.6-0.7c0.2-0.3,0.3-0.5,0.4-0.8s0.1-0.5,0.1-0.8s-0.1-0.5-0.3-0.7
							c-0.2-0.2-0.4-0.3-0.6-0.4c-0.2,0-0.5,0-0.8,0c-0.3,0.1-0.6,0.1-0.9,0.2S40.4,59,40.2,59c-0.2,0-0.4,0.1-0.6,0
							c-0.2,0-0.3-0.1-0.5-0.3C39,58.6,39,58.5,39,58.4c0-0.1,0-0.3,0.1-0.4s0.1-0.3,0.3-0.4c0.3-0.2,0.5-0.3,0.7-0.2
							c0.2,0.1,0.4,0.3,0.7,0.5l0.3,0.4l0.1-0.1L39.5,56.7L39.5,56.7z M44.8,59.5l0.4-0.3l-2.6-3.7c-0.1-0.1-0.2-0.2-0.3-0.1
							c-0.1,0-0.3,0.1-0.4,0.2l-0.1-0.1l1.4-1l0.1,0.1l-0.4,0.3l2.6,3.6c0.1,0.1,0.1,0.2,0.2,0.2c0.1,0.1,0.1,0.1,0.2,0.1
							s0.2-0.1,0.4-0.2l0.1,0.1l-1.4,1L44.8,59.5L44.8,59.5z M47,57.9L47,57.9l1.9-0.9c0.5-0.2,0.8-0.5,1.1-0.7
							c0.3-0.2,0.5-0.5,0.7-0.7s0.3-0.5,0.4-0.8c0.2-0.7,0.2-1.3-0.1-1.9c-0.1-0.2-0.2-0.4-0.4-0.5c-0.2-0.2-0.4-0.3-0.6-0.4
							s-0.4-0.2-0.7-0.2c-0.4-0.1-0.7-0.1-1.1,0S47.4,52,47,52.3l-2.3,1.2l0.1,0.1l0.1-0.1c0.3-0.2,0.5-0.1,0.6,0.1l2.1,4L47,57.9
							L47,57.9z M50.5,53.2c-0.2-0.4-0.5-0.6-0.9-0.8c-0.4-0.2-0.8-0.3-1.3-0.3s-0.9,0.1-1.4,0.4S46,53,45.8,53.2l2.1,4
							c0.4-0.1,0.8-0.2,1.3-0.5c0.4-0.2,0.8-0.5,1.1-0.9c0.3-0.4,0.4-0.8,0.5-1.3C50.8,54,50.7,53.6,50.5,53.2L50.5,53.2z
							 M56.5,53.8l-2-2.8l-0.7,0.2v2.4c0,0.2,0,0.4,0.1,0.6c0,0.1,0.1,0.2,0.2,0.2s0.2,0,0.3,0c0.1,0,0.2,0,0.4-0.1v0.1l-1.6,0.5
							v-0.1l0.4-0.1v-5.5h0.2l2.7,3.7c0.1,0.1,0.2,0.3,0.3,0.4c0.1,0.1,0.2,0.2,0.3,0.3c0.1,0.1,0.3,0.1,0.4,0v0.1L56,54.1V54
							L56.5,53.8L56.5,53.8z M54.4,50.9L53.8,50l0,0v1.1L54.4,50.9L54.4,50.9z M58.3,53.3l0.6-0.1l-0.6-4.5c0-0.3-0.2-0.4-0.5-0.3
							h-0.1v-0.1l2.6-0.3c0.5-0.1,0.9-0.1,1.3,0s0.7,0.2,1,0.4c0.2,0.1,0.4,0.3,0.5,0.4c0.2,0.2,0.3,0.4,0.4,0.6s0.2,0.4,0.2,0.6
							c0.1,0.7-0.1,1.3-0.6,1.8c-0.2,0.2-0.4,0.4-0.6,0.6s-0.5,0.3-0.9,0.5c-0.4,0.1-0.8,0.2-1.3,0.3l-2,0.3V53.3L58.3,53.3z
							 M63.2,50.1c-0.1-0.4-0.3-0.8-0.6-1.1c-0.3-0.3-0.7-0.6-1.1-0.7c-0.5-0.2-0.9-0.2-1.4-0.1c-0.6,0.1-1,0.2-1.3,0.3l0.6,4.5
							c0.4,0.1,0.8,0.1,1.4,0c0.5-0.1,0.9-0.2,1.3-0.5s0.7-0.6,0.9-1.1C63.2,50.9,63.2,50.5,63.2,50.1L63.2,50.1z M68,52.4l0.6,0.1
							l0.6-4.5c0-0.3-0.1-0.4-0.5-0.4h-0.1v-0.1l2.6,0.3c0.5,0.1,0.9,0.2,1.3,0.3c0.3,0.2,0.6,0.4,0.9,0.6c0.2,0.2,0.3,0.4,0.4,0.6
							s0.2,0.4,0.3,0.7c0.1,0.2,0.1,0.5,0,0.7c-0.1,0.7-0.4,1.2-1,1.6c-0.2,0.2-0.5,0.3-0.7,0.4c-0.3,0.1-0.6,0.2-1,0.2
							s-0.8,0-1.3,0l-2-0.2L68,52.4L68,52.4z M73.5,50.6c0-0.4-0.1-0.8-0.3-1.2c-0.2-0.4-0.5-0.7-0.9-1S71.5,48,71,47.9
							c-0.6-0.1-1-0.1-1.3,0l-0.6,4.5c0.3,0.1,0.8,0.3,1.4,0.3c0.5,0.1,1,0,1.4-0.2s0.8-0.4,1.1-0.8C73.3,51.4,73.5,51,73.5,50.6
							L73.5,50.6z M77.6,54.4l-2.8-0.8v-0.1l0.5,0.2l1.2-4.4c0-0.1,0-0.3-0.1-0.3c-0.1-0.1-0.2-0.1-0.4-0.2v-0.1l2.8,0.8l0.1-0.3
							h0.2l-0.5,1.7h-0.2l0.1-0.3c0.1-0.4,0.1-0.7-0.1-0.9c-0.2-0.2-0.6-0.3-1.1-0.5l-0.2-0.1l-0.3,1.2l0.8,0.2l0.2-0.8h0.1
							l-0.5,1.8h-0.1c0.1-0.2,0.1-0.4,0.1-0.6s-0.1-0.3-0.2-0.4s-0.2-0.1-0.4-0.2l-0.9,3.3c0.4,0.1,0.7,0.2,1.1,0.2
							c0.3,0,0.5-0.1,0.6-0.2s0.2-0.3,0.3-0.6l0.1-0.4h0.2L77.6,54.4l-0.1,0L77.6,54.4L77.6,54.4z M85.3,51.9L85.3,51.9l-0.6-0.1
							l-2.2,4.4c0.3,0.1,0.5,0.2,0.7,0.3c0.2,0.1,0.4,0.1,0.6,0.1s0.4-0.1,0.5-0.4l0.6-1.1l0.2,0.1l-1.2,2.3l-0.2-0.1l0.1-0.3
							l-2.4-1.2l0.1-0.1L82,56l2.1-4.1c0.1-0.1,0.1-0.2,0-0.3c-0.1-0.1-0.2-0.2-0.4-0.3l0.1-0.1L85.3,51.9L85.3,51.9z M88.2,59.5
							l-0.5-0.3l-0.1,0.1l1.3,0.8L89,60c-0.1-0.1-0.2-0.2-0.3-0.4c0-0.1,0-0.3,0-0.5s0.1-0.3,0.1-0.5l1-4.5L89.7,54l-4.1,3.7
							l-0.3-0.2l-0.1,0.1l1.4,0.9l0.1-0.1c-0.2-0.1-0.3-0.2-0.3-0.2c-0.1-0.1-0.2-0.2-0.2-0.3c0-0.1,0-0.2,0.1-0.3
							c0.1-0.1,0.2-0.3,0.4-0.4l1.8-1.6l0.7,0.4L88.2,59.5L88.2,59.5z M89,55.9l-0.6-0.3l0.8-0.7l0,0L89,55.9L89,55.9z M98,61.1
							l-1.5,1.4l-0.1-0.1l0.3-0.3c0.2-0.2,0.4-0.5,0.5-0.7s0-0.5-0.2-0.7c-0.1-0.1-0.2-0.2-0.4-0.2c-0.1-0.1-0.3-0.1-0.4,0
							c-0.1,0-0.2,0.1-0.3,0.2c-0.1,0.1-0.2,0.3-0.2,0.5s0,0.4,0.1,0.6s0.1,0.5,0.3,0.8c0.1,0.4,0.2,0.7,0.3,0.9
							c0.1,0.3,0.1,0.5,0,0.8c0,0.3-0.1,0.5-0.3,0.6c-0.2,0.2-0.4,0.3-0.7,0.4c-0.3,0.1-0.5,0.1-0.8,0s-0.5-0.2-0.8-0.3
							c-0.3-0.2-0.5-0.4-0.7-0.6c-0.3-0.3-0.5-0.6-0.7-1c-0.1-0.4-0.2-0.7-0.2-1s0.2-0.6,0.4-0.8c0.2-0.2,0.4-0.3,0.7-0.4
							c0.3-0.1,0.5,0,0.8,0.1s0.5,0.3,0.7,0.5c0.1,0.1,0.2,0.3,0.3,0.5c0.1,0.2,0.1,0.4,0.1,0.6s-0.1,0.3-0.2,0.4s-0.3,0.2-0.4,0.2
							c-0.2,0-0.3-0.1-0.5-0.2c0,0-0.1-0.1-0.1-0.2l0.1-0.1c0.2,0.2,0.4,0.2,0.6,0c0.1-0.1,0.1-0.2,0.1-0.3c0-0.1,0-0.3,0-0.4
							s-0.1-0.3-0.2-0.4c-0.2-0.2-0.3-0.3-0.6-0.3c-0.2-0.1-0.4-0.1-0.6,0s-0.4,0.1-0.5,0.3c-0.2,0.2-0.3,0.4-0.4,0.7
							c-0.1,0.3-0.1,0.6,0,0.9s0.3,0.6,0.5,0.9s0.5,0.4,0.8,0.6c0.3,0.1,0.6,0.2,0.9,0.2s0.5-0.1,0.7-0.3c0.2-0.2,0.2-0.3,0.3-0.6
							c0-0.2,0-0.4-0.1-0.7c-0.1-0.2-0.1-0.5-0.3-0.9c-0.1-0.3-0.2-0.6-0.2-0.8c-0.1-0.2-0.1-0.4,0-0.6c0-0.2,0.1-0.4,0.3-0.5
							c0.2-0.2,0.5-0.3,0.8-0.2c0.3,0.1,0.6,0.2,0.9,0.5c0.1,0.1,0.2,0.3,0.4,0.6l0.2-0.2L98,61.1L98,61.1z M97.1,69l-0.3,0.2
							l0.1,0.1l1.5-1.1l-0.1-0.1L98,68.3c-0.2,0.1-0.4,0.2-0.6,0.2s-0.4-0.1-0.6-0.2c-0.2-0.3-0.5-0.6-0.7-0.9l2.8-2
							c0.1,0.2,0.2,0.3,0.2,0.4c0.1,0.2,0,0.3-0.1,0.4s-0.3,0.3-0.4,0.4l0.1,0.1l1.6-1.1l-0.1-0.1L99.6,66l-0.5-0.7l1-0.7l0.1,0.2
							c0.3,0.5,0.5,0.8,0.6,1.1c0,0.3-0.1,0.5-0.5,0.8l-0.2,0.2l0.1,0.1l1.4-1l-0.1-0.1l-0.3,0.2l-1.7-2.4l-0.1,0.1
							c0.1,0.2,0.2,0.3,0.2,0.4s0,0.2-0.2,0.3l-3.7,2.6l-0.3-0.5l-0.1,0.1L97.1,69L97.1,69z M102.5,67.6l0.5,1l-0.4,0.2
							c0.6,0.4,1,0.8,1.3,1.4c0.2,0.4,0.3,0.8,0.3,1.3s-0.1,0.9-0.2,1.3c-0.2,0.4-0.4,0.7-0.8,0.8c-0.4,0.2-0.8,0.3-1.2,0.2
							c-0.4-0.1-0.8-0.2-1.2-0.5c-0.4-0.3-0.7-0.6-0.9-1.1l0,0c0,0.1,0,0.4,0.1,0.8c0,0.4,0.1,0.7,0.1,1c0.1,0.3,0.1,0.5,0.3,0.8
							c0.1,0.2,0.2,0.3,0.3,0.4v0.1c-0.2-0.1-0.4-0.3-0.5-0.5s-0.2-0.4-0.3-0.7c-0.1-0.2-0.1-0.5-0.2-0.7c0-0.2-0.1-0.5-0.1-0.9
							c-0.1-0.8-0.1-1.5-0.1-2l-0.6,0.3c-0.1,0.1-0.2,0.1-0.2,0.2c0,0.1,0,0.1,0,0.2c0,0.1,0.1,0.2,0.1,0.3s0.1,0.1,0.1,0.2
							l-0.1,0.1l-0.9-1.7L98,70l0.2,0.5l4-2.1c0.2-0.1,0.2-0.3,0.1-0.6v-0.1L102.5,67.6L102.5,67.6z M102.3,69
							c0.6,0.2,1,0.6,1.3,1.1c0.2,0.4,0.3,0.8,0.3,1.2s-0.1,0.8-0.3,1.1c-0.2,0.3-0.4,0.6-0.7,0.8c-0.3,0.2-0.6,0.2-1,0.2
							c-0.3,0-0.7-0.2-1-0.4s-0.5-0.5-0.7-0.8c-0.2-0.5-0.3-1.1-0.3-1.8h-0.2L102.3,69L102.3,69z M101.8,79l-0.3,0.1l0.1,0.2
							l1.8-0.6l-0.1-0.2l-0.4,0.1c-0.2,0.1-0.4,0.1-0.6,0.1s-0.4-0.2-0.5-0.4c-0.1-0.3-0.3-0.7-0.4-1l3.3-1.1
							c0.1,0.2,0.1,0.3,0.1,0.4c0,0.2-0.1,0.3-0.2,0.4c-0.1,0.1-0.3,0.2-0.5,0.3v0.1l1.8-0.6v-0.1l-0.7,0.3l-0.3-0.8l1.2-0.4
							l0.1,0.2c0.2,0.5,0.3,1,0.2,1.2c0,0.3-0.3,0.5-0.7,0.6l-0.3,0.1l0.1,0.2l1.7-0.6l-0.1-0.2l-0.3,0.1l-0.9-2.8h-0.1
							c0.1,0.2,0.1,0.3,0.1,0.4c0,0.1-0.1,0.2-0.2,0.2l-4.3,1.5l-0.2-0.5h-0.1L101.8,79L101.8,79z M102.4,80.4l0.1,0.5l4.1-0.8
							c0.2,0,0.4-0.1,0.5-0.2c0.1-0.1,0.2-0.3,0.1-0.7h0.1l0.2,0.9l-3.8,3.1l0,0l3.6-0.7c0.1,0,0.3-0.1,0.3-0.2
							c0.1-0.1,0.1-0.3,0.1-0.5h0.1l0.2,1.3h-0.1l-0.1-0.4l-5.2,1v-0.2l3.8-3.2l0,0l-3.3,0.6c-0.3,0-0.4,0.1-0.5,0.3
							c0,0.1,0,0.3,0,0.5h-0.1l-0.3-1.4L102.4,80.4L102.4,80.4z M103.5,88.8l3.1-1.5l-0.1-0.8l-2.3-0.5c-0.2,0-0.4-0.1-0.6-0.1
							c-0.1,0-0.2,0-0.3,0.1c0,0.1-0.1,0.2-0.1,0.3s0,0.2,0,0.4h-0.1L103,85h0.1v0.4l5.4,1.1v0.2l-4.1,2c-0.1,0.1-0.3,0.1-0.4,0.2
							c-0.2,0.1-0.3,0.2-0.4,0.3s-0.1,0.3-0.1,0.4h-0.1l-0.1-1.5h0.1L103.5,88.8L103.5,88.8z M106.8,87.2l1-0.4l0,0l-1-0.2V87.2z"/>
					</g>
					<path class="st3" d="M59.9,127.4L60,127h0.2l-0.5,2h-0.2c0.1-0.4,0.1-0.6,0.1-0.8s-0.1-0.4-0.2-0.5c-0.1-0.2-0.3-0.3-0.6-0.5
						c-0.3-0.1-0.5-0.2-0.8-0.3c-0.6-0.1-1.1-0.1-1.6,0s-0.9,0.4-1.2,0.7c-0.3,0.3-0.5,0.7-0.6,1.1c-0.1,0.3-0.1,0.7,0,1
						s0.2,0.7,0.4,1c0.2,0.3,0.5,0.6,0.8,0.8s0.7,0.4,1.1,0.5s0.8,0.1,1.2,0.1c0.4-0.1,0.7-0.2,1-0.3l0.1,0.2
						c-0.4,0.2-0.8,0.3-1.2,0.3c-0.4,0-0.9,0-1.3-0.1c-0.6-0.1-1.1-0.4-1.6-0.7c-0.5-0.4-0.8-0.8-1-1.3s-0.3-1-0.1-1.4
						c0.1-0.4,0.3-0.7,0.5-1c0.3-0.3,0.6-0.5,1-0.7s0.8-0.3,1.3-0.3s0.9,0,1.3,0.1C58.9,126.8,59.4,127.1,59.9,127.4L59.9,127.4z
						 M67,132.9h0.6l-0.1-4.6c0-0.2-0.1-0.2-0.2-0.3c-0.1,0-0.3-0.1-0.5-0.1v-0.1l1.7-0.1v0.1h-0.6l0.1,4.5c0,0.1,0,0.2,0,0.3
						s0.1,0.1,0.1,0.2c0.1,0,0.2,0,0.5,0v0.1L67,132.9L67,132.9L67,132.9z M71.5,127.5v0.1l-0.6,0.1l0.6,4.9c0.3,0,0.6-0.1,0.8-0.2
						c0.2-0.1,0.4-0.2,0.6-0.3s0.2-0.3,0.2-0.6l-0.2-1.3h0.2l0.3,2.5h-0.2v-0.3l-2.8,0.4v-0.1l0.5-0.1l-0.6-4.6
						c0-0.1-0.1-0.2-0.2-0.3c-0.1,0-0.3,0-0.5,0v-0.1L71.5,127.5L71.5,127.5z M78.3,131.6l-2.9,0.7v-0.1l0.6-0.1l-1-4.5
						c0-0.2-0.1-0.2-0.2-0.3c-0.1,0-0.3,0-0.5,0v-0.1l2.9-0.7l-0.1-0.3h0.2l0.4,1.7h-0.2l-0.1-0.3c-0.1-0.4-0.3-0.7-0.5-0.7
						c-0.2-0.1-0.7,0-1.2,0.1l-0.2,0.1l0.3,1.3l0.8-0.2l-0.2-0.8h0.1l0.4,1.9h-0.1c-0.1-0.2-0.1-0.4-0.2-0.6
						c-0.1-0.1-0.2-0.2-0.4-0.2c-0.1,0-0.2,0-0.4,0l0.8,3.4c0.4-0.1,0.8-0.2,1.1-0.3c0.2-0.1,0.4-0.3,0.5-0.5s0.1-0.4,0-0.6
						l-0.1-0.4h0.2l0.4,1.9h-0.2L78.3,131.6L78.3,131.6z M64.9,127.9l-0.3,4.6c0,0.1,0,0.3,0.1,0.3c0.1,0.1,0.2,0.1,0.4,0.1
						c0,0,0.1,0,0.2,0v0.1l-1.7-0.1v-0.1h0.6l0.3-3.5l-2-0.1l-0.2,3.1c0,0.2,0,0.3,0.1,0.4c0.1,0,0.2,0.1,0.5,0.1v0.1l-1.7-0.1v-0.1
						h0.6l0.3-4.6c0-0.2-0.1-0.4-0.5-0.4h-0.1v-0.1l1.7,0.1v0.1h-0.5l-0.1,1.3l2,0.1l0.1-0.9c0-0.1,0-0.2-0.1-0.3s-0.2-0.1-0.4-0.1
						h-0.1v-0.1l1.7,0.1v0.1L64.9,127.9z"/>
				</g>
			</g>
		</g>
	</g>
	<rect x="307.4" y="10.1" class="st5" width="141" height="159.8"/>
	<line class="st6" x1="377.9" y1="10.1" x2="377.9" y2="169.9"/>
</g>
</svg>
