<?xml version="1.0" encoding="utf-8"?>
<!-- Generator: Adobe Illustrator 23.0.3, SVG Export Plug-In . SVG Version: 6.00 Build 0)  -->
<svg version="1.1" id="Logo" xmlns="http://www.w3.org/2000/svg" xmlns:xlink="http://www.w3.org/1999/xlink" x="0px" y="0px"
	 viewBox="0 0 400 160" style="enable-background:new 0 0 400 160;" xml:space="preserve">
<style type="text/css">
	.st0{fill:#FFFFFF;}
	.st1{fill-rule:evenodd;clip-rule:evenodd;fill:#FFFFFF;}
	.st2{fill-rule:evenodd;clip-rule:evenodd;fill:#283E73;}
	.st3{fill-rule:evenodd;clip-rule:evenodd;fill:#DB2344;}
	.st4{fill:#283E73;}
</style>
<g>
	<g>
		<g>
			<path class="st0" d="M188.48,85.28c0.12,0,0.24,0.02,0.36,0.07c0.12,0.05,0.24,0.12,0.35,0.23l2.01,2.12
				c-0.88,1.15-1.99,2.02-3.31,2.61c-1.33,0.59-2.9,0.88-4.71,0.88c-1.66,0-3.15-0.28-4.47-0.85c-1.32-0.57-2.43-1.35-3.35-2.34
				c-0.92-1-1.62-2.18-2.11-3.55c-0.49-1.37-0.74-2.85-0.74-4.46c0-1.63,0.27-3.13,0.8-4.5c0.53-1.37,1.28-2.55,2.24-3.54
				c0.96-0.99,2.11-1.76,3.46-2.31c1.34-0.55,2.82-0.83,4.43-0.83c0.82,0,1.6,0.07,2.32,0.22c0.73,0.15,1.41,0.35,2.04,0.6
				c0.63,0.26,1.21,0.56,1.74,0.92c0.53,0.36,1,0.75,1.41,1.17l-1.71,2.3c-0.11,0.14-0.24,0.27-0.39,0.38
				c-0.15,0.12-0.36,0.17-0.63,0.17c-0.18,0-0.35-0.04-0.51-0.12c-0.16-0.08-0.33-0.18-0.51-0.29c-0.18-0.12-0.38-0.24-0.59-0.38
				c-0.22-0.14-0.47-0.26-0.77-0.38s-0.64-0.21-1.04-0.29c-0.4-0.08-0.86-0.12-1.39-0.12c-0.84,0-1.61,0.16-2.31,0.47
				c-0.7,0.31-1.3,0.76-1.8,1.36c-0.51,0.6-0.9,1.33-1.17,2.19c-0.28,0.87-0.41,1.86-0.41,2.97c0,1.12,0.15,2.12,0.46,2.99
				c0.31,0.87,0.72,1.61,1.25,2.2c0.53,0.6,1.14,1.05,1.84,1.36c0.7,0.31,1.45,0.47,2.25,0.47c0.46,0,0.88-0.02,1.26-0.07
				c0.38-0.05,0.74-0.12,1.07-0.23c0.33-0.11,0.64-0.25,0.93-0.42c0.29-0.18,0.59-0.4,0.89-0.67c0.12-0.1,0.25-0.18,0.39-0.25
				C188.18,85.32,188.33,85.28,188.48,85.28z"/>
			<path class="st0" d="M212.9,79.99c0,1.58-0.27,3.06-0.82,4.42c-0.55,1.36-1.32,2.55-2.31,3.55c-0.99,1.01-2.19,1.8-3.59,2.37
				c-1.4,0.57-2.95,0.86-4.65,0.86c-1.7,0-3.26-0.29-4.66-0.86c-1.4-0.57-2.6-1.36-3.6-2.37c-1-1.01-1.77-2.19-2.31-3.55
				c-0.55-1.36-0.82-2.84-0.82-4.42s0.27-3.06,0.82-4.42c0.55-1.36,1.32-2.54,2.31-3.55c1-1,2.2-1.79,3.6-2.36
				c1.4-0.57,2.96-0.86,4.66-0.86c1.7,0,3.25,0.29,4.65,0.86c1.4,0.58,2.59,1.37,3.59,2.37c0.99,1,1.76,2.18,2.31,3.55
				C212.63,76.95,212.9,78.42,212.9,79.99z M207.7,79.99c0-1.08-0.14-2.06-0.42-2.92c-0.28-0.87-0.68-1.6-1.21-2.2
				c-0.53-0.6-1.17-1.06-1.93-1.38c-0.76-0.32-1.63-0.48-2.6-0.48c-0.98,0-1.86,0.16-2.62,0.48c-0.77,0.32-1.41,0.78-1.94,1.38
				c-0.53,0.6-0.93,1.34-1.21,2.2c-0.28,0.87-0.42,1.84-0.42,2.92c0,1.09,0.14,2.07,0.42,2.94c0.28,0.87,0.68,1.6,1.21,2.2
				c0.53,0.6,1.17,1.06,1.94,1.38c0.77,0.32,1.64,0.47,2.62,0.47c0.97,0,1.84-0.16,2.6-0.47c0.76-0.32,1.41-0.77,1.93-1.38
				c0.53-0.6,0.93-1.33,1.21-2.2C207.56,82.06,207.7,81.08,207.7,79.99z"/>
			<path class="st0" d="M234.26,79.99c0,1.58-0.27,3.04-0.82,4.38c-0.55,1.34-1.32,2.49-2.31,3.47c-0.99,0.98-2.19,1.74-3.58,2.28
				c-1.4,0.55-2.95,0.82-4.65,0.82h-6.29c-1.23,0-2.22-0.99-2.22-2.22V71.27c0-1.23,0.99-2.22,2.22-2.22h6.29
				c1.7,0,3.25,0.28,4.65,0.83c1.4,0.55,2.59,1.31,3.58,2.28c0.99,0.97,1.76,2.13,2.31,3.46C233.98,76.96,234.26,78.42,234.26,79.99
				z M229.06,79.99c0-1.08-0.14-2.06-0.42-2.93c-0.28-0.87-0.68-1.61-1.21-2.22c-0.53-0.61-1.17-1.07-1.93-1.4s-1.63-0.49-2.6-0.49
				h-3.4v14.08h3.4c0.97,0,1.84-0.16,2.6-0.49c0.76-0.33,1.41-0.79,1.93-1.4c0.53-0.61,0.93-1.35,1.21-2.22
				C228.92,82.07,229.06,81.08,229.06,79.99z"/>
			<path class="st0" d="M240.87,72.96v5.11h6.88v3.76h-6.88v5.22h6.19c1.54,0,2.79,1.25,2.79,2.79v1.11h-14.1v-21.9h14.1v1.11
				c0,1.54-1.25,2.79-2.79,2.79H240.87z"/>
			<path class="st0" d="M264.18,73.5c-0.15,0.24-0.31,0.42-0.47,0.54c-0.17,0.12-0.38,0.18-0.64,0.18c-0.23,0-0.48-0.07-0.74-0.22
				c-0.27-0.15-0.57-0.31-0.9-0.49c-0.34-0.18-0.72-0.34-1.15-0.49c-0.43-0.15-0.92-0.22-1.47-0.22c-0.95,0-1.66,0.2-2.13,0.61
				c-0.47,0.41-0.7,0.95-0.7,1.65c0,0.44,0.14,0.81,0.42,1.1c0.28,0.29,0.65,0.54,1.11,0.75c0.46,0.21,0.98,0.4,1.56,0.58
				c0.59,0.18,1.18,0.37,1.8,0.59c0.61,0.22,1.21,0.47,1.8,0.76c0.59,0.29,1.11,0.66,1.56,1.11c0.46,0.45,0.82,1,1.11,1.65
				c0.28,0.65,0.42,1.43,0.42,2.34c0,1.01-0.18,1.96-0.53,2.84c-0.35,0.88-0.86,1.65-1.53,2.31c-0.67,0.66-1.49,1.17-2.47,1.55
				c-0.98,0.38-2.09,0.56-3.33,0.56c-0.68,0-1.38-0.07-2.08-0.21s-1.39-0.34-2.05-0.59s-1.28-0.56-1.86-0.91
				c-0.58-0.35-1.09-0.74-1.52-1.17l1.5-2.37c0.12-0.17,0.28-0.31,0.47-0.43c0.2-0.12,0.41-0.17,0.64-0.17c0.3,0,0.6,0.1,0.91,0.29
				c0.31,0.19,0.65,0.4,1.04,0.63c0.39,0.23,0.83,0.44,1.33,0.63c0.5,0.19,1.09,0.29,1.77,0.29c0.92,0,1.64-0.2,2.15-0.61
				c0.51-0.41,0.77-1.05,0.77-1.93c0-0.51-0.14-0.93-0.42-1.25c-0.28-0.32-0.65-0.59-1.1-0.8c-0.46-0.21-0.97-0.4-1.56-0.56
				c-0.58-0.16-1.18-0.34-1.79-0.53c-0.61-0.2-1.21-0.44-1.79-0.72c-0.58-0.29-1.1-0.66-1.56-1.13c-0.46-0.47-0.82-1.05-1.11-1.74
				c-0.28-0.7-0.42-1.56-0.42-2.58c0-0.82,0.17-1.62,0.5-2.4c0.33-0.78,0.82-1.48,1.46-2.09c0.64-0.61,1.43-1.1,2.36-1.47
				c0.93-0.37,2-0.55,3.2-0.55c0.67,0,1.32,0.05,1.96,0.16c0.64,0.11,1.24,0.26,1.81,0.47c0.57,0.21,1.11,0.45,1.6,0.74
				c0.5,0.29,0.94,0.61,1.33,0.97L264.18,73.5z"/>
		</g>
		<g>
			<path class="st0" d="M326.41,88.24c0.29,0,0.52,0.09,0.69,0.26c0.17,0.17,0.26,0.39,0.26,0.66v1.62h-14.37v-0.92
				c0-0.19,0.04-0.39,0.12-0.59c0.08-0.2,0.21-0.39,0.38-0.56l6.9-6.93c0.57-0.58,1.09-1.14,1.56-1.68c0.47-0.54,0.87-1.07,1.2-1.62
				c0.33-0.54,0.59-1.09,0.77-1.65c0.18-0.56,0.27-1.15,0.27-1.78c0-0.63-0.1-1.18-0.3-1.66c-0.2-0.48-0.47-0.87-0.82-1.18
				c-0.35-0.31-0.75-0.54-1.23-0.7c-0.47-0.16-0.98-0.23-1.52-0.23c-0.55,0-1.06,0.08-1.52,0.24c-0.46,0.16-0.87,0.38-1.23,0.67
				c-0.36,0.29-0.65,0.62-0.89,1.01c-0.24,0.39-0.41,0.82-0.51,1.29c-0.12,0.35-0.28,0.58-0.49,0.7c-0.21,0.12-0.49,0.15-0.86,0.1
				l-1.4-0.24c0.14-0.98,0.41-1.85,0.82-2.61c0.41-0.76,0.92-1.39,1.53-1.9c0.62-0.51,1.32-0.9,2.11-1.16
				c0.79-0.27,1.65-0.4,2.57-0.4c0.91,0,1.76,0.14,2.55,0.41c0.79,0.27,1.48,0.66,2.06,1.18c0.58,0.52,1.04,1.14,1.37,1.89
				c0.33,0.74,0.5,1.58,0.5,2.52c0,0.8-0.12,1.55-0.36,2.23c-0.24,0.69-0.57,1.34-0.98,1.96c-0.41,0.62-0.88,1.23-1.42,1.82
				c-0.54,0.59-1.1,1.19-1.71,1.79l-5.68,5.8c0.4-0.11,0.81-0.2,1.22-0.26c0.41-0.06,0.81-0.1,1.19-0.1H326.41z"/>
			<path class="st0" d="M344.04,80.02c0,1.88-0.2,3.51-0.61,4.89c-0.41,1.38-0.96,2.52-1.66,3.42c-0.7,0.9-1.53,1.57-2.49,2.01
				c-0.96,0.44-1.98,0.66-3.07,0.66c-1.1,0-2.13-0.22-3.07-0.66c-0.95-0.44-1.77-1.11-2.47-2.01c-0.7-0.9-1.25-2.04-1.65-3.42
				c-0.4-1.38-0.6-3.01-0.6-4.89c0-1.88,0.2-3.52,0.6-4.9c0.4-1.38,0.95-2.53,1.65-3.43c0.7-0.91,1.53-1.58,2.47-2.02
				c0.95-0.44,1.97-0.66,3.07-0.66c1.09,0,2.12,0.22,3.07,0.66c0.96,0.44,1.79,1.11,2.49,2.02c0.7,0.91,1.26,2.05,1.66,3.43
				C343.84,76.5,344.04,78.13,344.04,80.02z M341.26,80.02c0-1.64-0.14-3.02-0.41-4.14c-0.28-1.12-0.65-2.02-1.11-2.7
				c-0.47-0.68-1-1.17-1.62-1.47c-0.61-0.3-1.25-0.44-1.91-0.44c-0.66,0-1.3,0.15-1.91,0.44c-0.61,0.3-1.15,0.78-1.61,1.47
				c-0.46,0.68-0.83,1.58-1.11,2.7c-0.28,1.12-0.41,2.5-0.41,4.14c0,1.64,0.14,3.02,0.41,4.13c0.28,1.11,0.64,2.01,1.11,2.69
				c0.46,0.68,1,1.17,1.61,1.47c0.61,0.3,1.25,0.44,1.91,0.44c0.66,0,1.3-0.15,1.91-0.44c0.61-0.3,1.15-0.78,1.62-1.47
				c0.47-0.68,0.84-1.58,1.11-2.69C341.12,83.04,341.26,81.66,341.26,80.02z"/>
			<path class="st0" d="M358.74,88.73v2.04H347.2v-2.04h4.61V74.05c0-0.44,0.02-0.89,0.05-1.34L348.02,76
				c-0.13,0.11-0.26,0.18-0.39,0.2c-0.13,0.03-0.25,0.03-0.36,0.01c-0.11-0.02-0.21-0.06-0.31-0.12s-0.17-0.13-0.22-0.2l-0.84-1.16
				l6.42-5.55h2.18v19.54H358.74z"/>
			<path class="st0" d="M369.87,82.19c0.22-0.29,0.43-0.57,0.62-0.83c0.19-0.26,0.37-0.52,0.54-0.78c-0.55,0.44-1.17,0.78-1.86,1.01
				c-0.69,0.23-1.42,0.35-2.19,0.35c-0.81,0-1.58-0.14-2.31-0.41c-0.73-0.27-1.37-0.67-1.92-1.2c-0.55-0.53-0.99-1.17-1.32-1.94
				c-0.33-0.77-0.49-1.65-0.49-2.64c0-0.94,0.18-1.82,0.53-2.65c0.35-0.82,0.84-1.54,1.47-2.15c0.63-0.61,1.38-1.09,2.25-1.44
				c0.87-0.35,1.83-0.53,2.87-0.53c1.03,0,1.97,0.17,2.81,0.51c0.84,0.34,1.56,0.82,2.16,1.43c0.6,0.61,1.06,1.34,1.39,2.19
				c0.33,0.85,0.49,1.79,0.49,2.83c0,0.62-0.06,1.21-0.17,1.77c-0.11,0.56-0.28,1.1-0.5,1.64c-0.22,0.54-0.48,1.07-0.79,1.59
				c-0.31,0.53-0.66,1.06-1.05,1.62l-5.25,7.58c-0.13,0.19-0.32,0.34-0.56,0.46c-0.24,0.12-0.52,0.17-0.83,0.17h-2.46L369.87,82.19z
				 M363.62,75.57c0,0.68,0.1,1.29,0.29,1.83c0.2,0.54,0.48,0.99,0.84,1.36c0.37,0.37,0.81,0.65,1.34,0.84
				c0.53,0.19,1.11,0.29,1.77,0.29c0.72,0,1.36-0.12,1.92-0.35c0.56-0.24,1.02-0.55,1.41-0.94c0.38-0.39,0.67-0.84,0.87-1.35
				c0.2-0.51,0.3-1.04,0.3-1.59c0-0.67-0.11-1.28-0.32-1.83s-0.51-1.01-0.89-1.39c-0.38-0.38-0.83-0.67-1.36-0.88
				c-0.53-0.21-1.1-0.31-1.74-0.31c-0.66,0-1.26,0.11-1.8,0.32c-0.54,0.22-1.01,0.51-1.4,0.89c-0.39,0.38-0.69,0.84-0.9,1.37
				C363.73,74.35,363.62,74.94,363.62,75.57z"/>
		</g>
		<path class="st0" d="M276.05,52.5V22.03c0-0.88-0.56-1.66-1.39-1.93c-0.83-0.27-1.75,0.01-2.27,0.72l-27.16,36.5
			c-0.48,0.65-0.54,1.53-0.13,2.23c0.41,0.7,1.19,1.1,2,1l23.2-2.7v-4.09l-19,2.21l20.68-27.8v103.65l-20.69-27.83l19,2.21v-4.09
			l-23.2-2.7c-0.81-0.09-1.59,0.3-2,1c-0.41,0.7-0.36,1.58,0.13,2.23l27.16,36.54c0.39,0.53,1,0.82,1.63,0.82
			c0.21,0,0.43-0.03,0.64-0.1c0.83-0.28,1.4-1.05,1.4-1.93v-30.68h-0.01v-5.23h0.01V57.73h-0.01L276.05,52.5L276.05,52.5z"/>
		<path class="st0" d="M292.99,35.51c-0.59-0.37-1.33-0.42-1.96-0.12l-13.29,6.29v4.5l12.13-5.74v79.09l-12.13-5.74v4.5l13.29,6.29
			c0.28,0.13,0.57,0.2,0.87,0.2c0.38,0,0.76-0.11,1.09-0.32c0.59-0.37,0.95-1.02,0.95-1.72V37.23
			C293.94,36.53,293.58,35.89,292.99,35.51z"/>
		<g>
			<polygon class="st0" points="288.18,51.67 277.74,52.89 277.74,56.98 288.18,55.77 			"/>
			<path class="st0" d="M306.42,50.23c-0.43-0.39-1.01-0.57-1.59-0.5l-9.2,1.07v4.1l7.41-0.86v51.89l-7.41-0.86v4.1l9.2,1.07
				c0.58,0.07,1.15-0.12,1.59-0.5c0.43-0.39,0.68-0.94,0.68-1.52V51.75C307.1,51.17,306.85,50.62,306.42,50.23z"/>
			<polygon class="st0" points="288.18,104.2 277.74,102.98 277.74,107.07 288.18,108.29 			"/>
		</g>
		<g>
			<path class="st0" d="M270.26,45.22L245.98,56.7c-1.02,0.48-1.45,1.69-0.97,2.71c0.48,1.02,1.69,1.45,2.71,0.97l22.53-10.66V45.22
				z"/>
		</g>
		<g>
			<path class="st0" d="M270.26,110.25l-22.53-10.67c-1.01-0.48-2.23-0.05-2.71,0.97c-0.48,1.01-0.05,2.23,0.97,2.71l24.27,11.49
				V110.25z"/>
		</g>
	</g>
	<g>
		<g>
			<circle class="st1" cx="69.2" cy="80" r="43.38"/>
			<circle class="st2" cx="69.2" cy="80" r="35.07"/>
			<polygon class="st1" points="49.68,65.84 59.82,65.84 68.53,60.78 68.53,62.23 59.85,67.28 49.68,67.29 			"/>
			<polygon class="st1" points="88.85,65.81 78.74,65.82 69.97,60.77 69.97,62.23 78.68,67.26 88.85,67.25 			"/>
			<polygon class="st1" points="88.85,62.91 78.75,62.91 69.96,57.86 69.97,59.33 78.64,64.31 88.85,64.3 			"/>
			<polygon class="st1" points="49.68,62.93 59.78,62.93 68.53,57.87 68.53,59.33 59.89,64.32 49.68,64.33 			"/>
			<polygon class="st1" points="88.84,54.24 78.82,54.25 69.96,49.16 69.97,56.41 78.71,61.46 88.85,61.45 			"/>
			<polygon class="st1" points="49.67,54.27 59.71,54.26 68.52,49.17 68.53,56.43 59.82,61.46 49.66,61.49 			"/>
			<polygon class="st1" points="90.31,68.69 78.7,68.7 78.71,78.85 71.44,74.68 71.43,70.31 69.27,69.06 67.09,70.33 67.09,76.52 
				78.71,83.22 78.72,95.55 70,100.59 70.01,110.74 88.88,99.82 88.86,78.86 90.32,78.86 			"/>
			<polygon class="st1" points="48.22,68.73 59.83,68.71 59.84,79.58 71.45,86.28 71.45,92.48 69.29,93.74 67.1,92.48 67.1,88.13 
				59.84,83.93 59.85,95.55 68.57,100.58 68.57,110.73 49.69,99.86 49.69,78.89 48.23,78.9 			"/>
			<polygon class="st3" points="51.1,55.73 59.71,55.72 67.07,51.46 67.07,55.82 59.81,60.01 51.11,60.04 			"/>
			<polygon class="st3" points="87.4,55.7 78.81,55.7 71.42,51.45 71.42,55.8 78.71,60.01 87.4,59.99 			"/>
			<polygon class="st3" points="88.86,70.15 80.15,70.15 80.16,81.14 69.98,75.28 69.98,70.94 69.27,70.52 68.54,70.94 68.54,75.9 
				80.16,82.6 80.16,96.14 71.46,101.19 71.47,108.45 87.43,99.22 87.41,77.35 88.86,77.35 			"/>
			<polygon class="st3" points="49.67,70.18 58.38,70.17 58.39,80.21 70,86.9 69.99,91.89 69.29,92.29 68.56,91.86 68.55,87.52 
				58.39,81.65 58.4,96.15 67.11,101.19 67.12,108.45 51.14,99.24 51.12,77.38 49.67,77.39 			"/>
			<path class="st4" d="M69.17,35.89L69.17,35.89c12.14,0,23.17,4.94,31.18,12.92c7.99,7.98,12.96,19.01,12.97,31.14l0.01,0l0,0
				l-0.01,0c0.01,12.17-4.95,23.19-12.92,31.18c-7.99,7.99-19,12.97-31.16,12.98v0v0c-12.14,0.01-23.19-4.95-31.18-12.92
				c-8-7.98-12.97-18.99-12.99-31.15l0-0.01c0-12.14,4.95-23.17,12.94-31.16C45.99,40.87,57.03,35.91,69.17,35.89 M69.17,36.64
				L69.17,36.64c-11.96,0.01-22.79,4.88-30.64,12.74c-7.86,7.88-12.71,18.71-12.7,30.65l0,0.01c0.01,11.95,4.88,22.77,12.75,30.64
				c7.87,7.83,18.72,12.69,30.66,12.68c11.94-0.01,22.79-4.89,30.64-12.73c7.85-7.88,12.71-18.71,12.7-30.67l0,0
				c-0.01-11.94-4.89-22.76-12.75-30.63C91.97,41.48,81.11,36.63,69.17,36.64"/>
			<path class="st2" d="M28.83,86.19c-0.17,0.01-0.27,0.06-0.33,0.11c-0.05,0.05-0.06,0.15-0.05,0.29l0.01,0.14l-0.21,0.03
				l-0.17-1.61l0.19-0.04l0.06,0.5l3.36-0.43c0.22-0.04,0.41-0.13,0.51-0.28c0.11-0.14,0.15-0.33,0.11-0.58
				c-0.03-0.27-0.13-0.43-0.28-0.54c-0.17-0.11-0.39-0.14-0.72-0.1l-2.75,0.36c-0.18,0.01-0.29,0.05-0.35,0.1
				c-0.05,0.07-0.05,0.17-0.05,0.3l0.03,0.14l-0.21,0.03l-0.14-1.2l0.22-0.02l0.05,0.49l3.28-0.42c0.38-0.05,0.68,0.03,0.88,0.19
				c0.22,0.19,0.37,0.46,0.41,0.82c0.06,0.4-0.02,0.71-0.19,0.92c-0.2,0.23-0.47,0.37-0.88,0.42L28.83,86.19z M32.09,79.89
				l-3.75-0.06c-0.17,0-0.27,0.01-0.33,0.06c-0.06,0.06-0.1,0.16-0.1,0.3l0,0.12l-0.2-0.02l0.01-0.8l3.47-1.89l-2.83-0.05
				c-0.15,0-0.26,0.02-0.32,0.07c-0.07,0.05-0.1,0.15-0.1,0.28l0,0.14l-0.19,0l0-1.2l0.21,0l-0.01,0.5l4.46,0.07l0,0.21l-3.65,2.02
				l2.89,0.06c0.16,0,0.27-0.03,0.35-0.08c0.05-0.05,0.1-0.15,0.1-0.29l0-0.13l0.18,0l-0.01,1.2l-0.19,0L32.09,79.89z M32.72,74.45
				l-0.18-0.04l0.08-0.49l-3.7-0.67c-0.16-0.04-0.29-0.02-0.34,0.02c-0.07,0.03-0.1,0.13-0.13,0.27l-0.02,0.13l-0.2-0.03l0.27-1.6
				l0.2,0.04l-0.06,0.49l3.67,0.68c0.17,0.02,0.28,0.02,0.35-0.03c0.06-0.03,0.1-0.11,0.13-0.25l0.02-0.14l0.19,0.04L32.72,74.45z
				 M30.41,65.41l0.17,0.08l-0.14,0.41l3.74,2.89l-0.07,0.25l-4.31-0.26c-0.11-0.02-0.2,0-0.28,0.04c-0.09,0.04-0.13,0.11-0.17,0.2
				l-0.06,0.12l-0.18-0.06l0.53-1.5l0.16,0.09l-0.13,0.48l3.68,0.25l-2.51-1.92c-0.01-0.04-0.07-0.05-0.1-0.08
				c-0.04-0.03-0.07-0.05-0.11-0.06c-0.08-0.02-0.18-0.02-0.25,0.03c-0.08,0.03-0.14,0.11-0.19,0.25l-0.04,0.13l-0.19-0.08
				L30.41,65.41z M32.51,60.72l-0.25-0.14l0.11-0.19l1.39,0.79l-0.09,0.21l-0.26-0.15c-0.25-0.16-0.48-0.18-0.65-0.12
				c-0.17,0.06-0.34,0.25-0.51,0.55l-0.17,0.33l0.96,0.54l0.28-0.5l-0.54-0.32l0.1-0.2l1.4,0.81l-0.1,0.19l-0.29-0.16
				c-0.14-0.08-0.24-0.1-0.35-0.08c-0.12,0.04-0.2,0.09-0.26,0.21l-0.08,0.12l2.5,1.43l0.2-0.33c0.17-0.29,0.21-0.53,0.16-0.73
				c-0.05-0.18-0.22-0.36-0.47-0.51l-0.28-0.16l0.1-0.2l1.5,0.85l-0.11,0.2L36.51,63l-1.15,2.15l-0.16-0.1l0.22-0.43l-3.28-1.89
				c-0.14-0.09-0.26-0.12-0.33-0.11c-0.08,0.02-0.15,0.09-0.22,0.22l-0.05,0.11l-0.18-0.1L32.51,60.72z M35.38,57.09l2.11,1.59
				l-0.09-0.26c0.28-0.11,0.49-0.21,0.64-0.33c0.17-0.11,0.28-0.23,0.38-0.34c0.23-0.33,0.3-0.65,0.23-1.02
				c-0.06-0.38-0.28-0.69-0.63-0.94c-0.4-0.3-0.84-0.43-1.31-0.4c-0.48,0.05-0.85,0.26-1.09,0.61c-0.11,0.16-0.18,0.31-0.23,0.51
				C35.34,56.7,35.34,56.88,35.38,57.09 M37.95,60.41l1.03-1.44l-0.16-0.13l-0.18,0.25c-0.09,0.12-0.17,0.17-0.24,0.17
				c-0.07,0.02-0.18-0.03-0.31-0.14l-0.44-0.32c0.93-0.4,1.53-0.71,1.85-0.92c0.34-0.19,0.57-0.41,0.74-0.63
				c0.07-0.11,0.12-0.22,0.15-0.33c0.05-0.11,0.09-0.23,0.09-0.36l-0.17-0.01c0,0.07-0.03,0.1-0.05,0.16
				c-0.02,0.05-0.05,0.1-0.08,0.14c-0.07,0.1-0.15,0.19-0.25,0.27c-0.1,0.09-0.22,0.17-0.35,0.23l-0.94,0.49
				c0.3-0.49,0.4-0.98,0.32-1.46c-0.09-0.5-0.35-0.89-0.79-1.23c-0.42-0.3-0.89-0.41-1.38-0.31c-0.53,0.09-0.94,0.37-1.26,0.82
				c-0.11,0.17-0.22,0.36-0.29,0.57c-0.05,0.2-0.08,0.43-0.09,0.68l-0.25-0.17l-0.64,0.91l0.17,0.12l0.08-0.11
				c0.08-0.1,0.16-0.17,0.23-0.17c0.06-0.01,0.15,0.04,0.31,0.15l3.03,2.27l-0.28,0.41L37.95,60.41z M41.86,50.72l-0.34-0.38
				c-0.18-0.19-0.35-0.32-0.53-0.34c-0.16-0.03-0.31,0.02-0.48,0.17c-0.11,0.12-0.18,0.24-0.2,0.41c-0.02,0.15,0.03,0.31,0.13,0.42
				c0.11,0.12,0.23,0.17,0.39,0.19c0.16,0.02,0.43-0.02,0.81-0.11c0.05-0.02,0.12-0.03,0.18-0.04c0.92-0.25,1.55-0.15,1.9,0.22
				c0.32,0.4,0.45,0.81,0.4,1.27c-0.05,0.47-0.28,0.89-0.7,1.28c-0.36,0.34-0.74,0.51-1.16,0.51c-0.41,0.04-0.74-0.12-1-0.42
				c-0.22-0.26-0.34-0.55-0.33-0.88c0.02-0.31,0.15-0.58,0.37-0.8c0.21-0.18,0.45-0.29,0.69-0.32c0.22-0.02,0.42,0.05,0.55,0.22
				c0.11,0.12,0.17,0.24,0.16,0.38c-0.02,0.14-0.1,0.27-0.22,0.39c-0.04,0.04-0.08,0.06-0.11,0.09c-0.02,0.01-0.06,0.03-0.07,0.03
				l-0.09-0.1c0.09-0.07,0.13-0.17,0.14-0.28c0-0.11-0.05-0.22-0.13-0.31c-0.09-0.1-0.2-0.16-0.35-0.14c-0.15,0-0.29,0.07-0.42,0.19
				c-0.16,0.16-0.25,0.35-0.25,0.58c0,0.24,0.09,0.45,0.25,0.65c0.25,0.25,0.54,0.37,0.91,0.37c0.37,0,0.7-0.12,0.99-0.41
				c0.28-0.24,0.43-0.55,0.47-0.9c0.02-0.34-0.06-0.63-0.3-0.89c-0.13-0.15-0.29-0.25-0.47-0.29c-0.2-0.03-0.52,0.01-0.93,0.11
				c-0.05,0.01-0.11,0.03-0.22,0.03c-0.77,0.2-1.31,0.12-1.58-0.19c-0.19-0.21-0.29-0.45-0.25-0.73c0-0.28,0.1-0.51,0.31-0.71
				c0.07-0.07,0.16-0.14,0.24-0.18c0.08-0.04,0.19-0.07,0.31-0.1l-0.24-0.26l0.16-0.16L42,50.58L41.86,50.72z M46.69,50.88
				l1.29-0.94l-0.12-0.17l-0.11,0.09c-0.13,0.08-0.21,0.11-0.29,0.08c-0.05-0.02-0.14-0.11-0.23-0.24l-2.16-3.17l0.4-0.29
				l-0.13-0.17L44.07,47l0.11,0.17l0.12-0.09c0.1-0.07,0.21-0.11,0.27-0.08c0.08,0.01,0.17,0.08,0.26,0.23l2.16,3.17l-0.39,0.3
				L46.69,50.88z M50.79,47.66c0.17-0.02,0.3-0.05,0.45-0.1c0.13-0.03,0.26-0.07,0.36-0.13c0.52-0.27,0.86-0.67,1.02-1.2
				c0.16-0.54,0.1-1.09-0.16-1.65c-0.28-0.56-0.66-0.96-1.19-1.16c-0.51-0.22-1.03-0.19-1.54,0.07c-0.09,0.05-0.21,0.11-0.32,0.2
				c-0.11,0.1-0.22,0.2-0.32,0.33L50.79,47.66z M49.95,48.44l-0.1-0.18l0.44-0.22l-1.63-3.48c-0.09-0.15-0.14-0.25-0.23-0.28
				c-0.07-0.04-0.16-0.02-0.29,0.04l-0.12,0.07l-0.08-0.19l0.8-0.41c0.14-0.07,0.33-0.17,0.55-0.3c0.23-0.13,0.41-0.22,0.52-0.28
				c0.64-0.31,1.25-0.38,1.85-0.19c0.6,0.17,1.04,0.58,1.33,1.18c0.3,0.64,0.33,1.29,0.07,1.93c-0.25,0.65-0.69,1.14-1.37,1.49
				c-0.1,0.05-0.24,0.12-0.47,0.22c-0.23,0.1-0.4,0.19-0.53,0.25L49.95,48.44z M56.49,42.09l0.45-0.13l-0.48-0.8L56.49,42.09z
				 M56,45.53l-0.07-0.19l0.35-0.12l-0.01-4.83l0.24-0.07L58.88,44c0.07,0.11,0.16,0.19,0.24,0.22c0.08,0.04,0.16,0.04,0.23,0.02
				l0.1-0.04l0.07,0.2l-1.39,0.43l-0.05-0.19l0.42-0.14l-1.44-2.39l-0.58,0.18l0.01,2.22l0,0.01c0.01,0.12,0.01,0.21,0.02,0.25
				c0.03,0.11,0.08,0.18,0.17,0.21c0.08,0.03,0.18,0.03,0.31,0l0.17-0.07l0.07,0.19L56,45.53z M62.6,43.41
				c0.16,0.04,0.31,0.05,0.44,0.07c0.15,0,0.27,0,0.39-0.01c0.57-0.07,1.02-0.34,1.34-0.78c0.33-0.46,0.45-0.99,0.36-1.62
				c-0.06-0.63-0.32-1.12-0.73-1.5c-0.44-0.37-0.93-0.52-1.48-0.45c-0.12,0.03-0.25,0.05-0.38,0.09c-0.14,0.04-0.26,0.1-0.41,0.19
				L62.6,43.41z M61.56,43.87l-0.03-0.19l0.49-0.06l-0.47-3.85c-0.03-0.18-0.06-0.29-0.12-0.35c-0.04-0.04-0.15-0.07-0.28-0.04
				l-0.13,0.01l-0.02-0.21l0.88-0.11c0.16-0.03,0.34-0.06,0.61-0.12c0.26-0.02,0.46-0.06,0.57-0.07c0.7-0.09,1.3,0.06,1.81,0.43
				c0.51,0.38,0.81,0.9,0.88,1.58c0.08,0.69-0.09,1.31-0.53,1.83c-0.42,0.53-1.03,0.83-1.76,0.94c-0.11,0.01-0.27,0.02-0.51,0.04
				c-0.23,0.03-0.43,0.05-0.58,0.05L61.56,43.87z M71.85,42.88c0.14,0.09,0.27,0.14,0.4,0.17c0.13,0.05,0.25,0.08,0.38,0.09
				c0.57,0.08,1.05-0.06,1.47-0.42c0.43-0.34,0.68-0.86,0.74-1.47c0.08-0.63-0.05-1.19-0.37-1.65c-0.33-0.47-0.76-0.75-1.33-0.81
				c-0.12-0.01-0.24-0.01-0.38,0c-0.13,0.01-0.29,0.03-0.47,0.06L71.85,42.88z M70.72,43.08l0.02-0.2l0.48,0.06l0.46-3.87
				c0.02-0.16,0-0.28-0.03-0.34c-0.05-0.08-0.14-0.12-0.28-0.13l-0.12-0.01l0.03-0.21l0.88,0.11c0.15,0.02,0.35,0.04,0.62,0.06
				c0.25,0.03,0.46,0.05,0.57,0.06c0.7,0.08,1.26,0.39,1.65,0.87c0.41,0.5,0.56,1.09,0.49,1.75c-0.07,0.72-0.4,1.26-0.94,1.66
				c-0.53,0.4-1.19,0.56-1.95,0.46c-0.08-0.01-0.24-0.04-0.49-0.08c-0.24-0.03-0.42-0.07-0.58-0.09L70.72,43.08z M81.13,40.18
				l0.08-0.29l0.23,0.05l-0.42,1.6l-0.22-0.05l0.07-0.3c0.09-0.29,0.06-0.51-0.05-0.68c-0.1-0.15-0.3-0.29-0.63-0.37l-0.34-0.1
				l-0.3,1.12l0.55,0.14l0.16-0.62l0.21,0.07l-0.42,1.6l-0.21-0.05l0.09-0.33c0.04-0.13,0.04-0.26-0.02-0.36
				c-0.04-0.11-0.14-0.17-0.28-0.21l-0.12-0.03l-0.74,2.85l0.39,0.11c0.29,0.09,0.53,0.08,0.71-0.02c0.16-0.09,0.27-0.29,0.36-0.59
				l0.08-0.31l0.21,0.06l-0.43,1.7l-0.21-0.07l0.07-0.33l-2.28-0.64l0.04-0.18l0.46,0.12l0.99-3.75c0.04-0.16,0.04-0.28,0-0.35
				c-0.03-0.07-0.1-0.13-0.24-0.17l-0.13-0.02l0.04-0.21L81.13,40.18z M88.16,43.03l-0.11,0.19L87.62,43l-1.82,3.89L86.03,47
				c0.29,0.13,0.52,0.16,0.71,0.11c0.17-0.06,0.34-0.24,0.48-0.56l0.36-0.8l0.21,0.11l-0.99,2.12l-0.2-0.1l0.15-0.3l-2.02-1
				l0.11-0.2l0.42,0.22l1.66-3.5c0.06-0.14,0.1-0.25,0.07-0.34c-0.02-0.07-0.08-0.15-0.2-0.22l-0.12-0.05l0.09-0.19L88.16,43.03z
				 M91.74,47.04l0.41,0.28l0.29-0.88L91.74,47.04z M88.85,48.81l0.13-0.18l0.29,0.21l3.62-3.04l0.2,0.14l-1.27,4.22
				c-0.04,0.14-0.05,0.23-0.04,0.34c0.02,0.08,0.08,0.16,0.15,0.21l0.08,0.04l-0.11,0.19l-1.19-0.83l0.11-0.17l0.37,0.26l0.89-2.66
				l-0.51-0.36l-1.64,1.41l-0.01,0.01c-0.09,0.08-0.14,0.13-0.17,0.17c-0.07,0.1-0.09,0.18-0.06,0.29c0.02,0.08,0.09,0.16,0.2,0.23
				l0.17,0.12l-0.12,0.17L88.85,48.81z M99.13,53.35l0.34-0.35c0.2-0.2,0.3-0.38,0.33-0.55c0.02-0.18-0.04-0.35-0.19-0.49
				c-0.11-0.13-0.25-0.19-0.41-0.19c-0.14-0.02-0.28,0.04-0.4,0.15c-0.09,0.11-0.15,0.25-0.15,0.41c-0.01,0.17,0.04,0.46,0.14,0.83
				c0.01,0.05,0.04,0.11,0.06,0.19c0.27,0.93,0.22,1.6-0.14,1.98c-0.33,0.36-0.71,0.52-1.19,0.48c-0.45-0.02-0.88-0.23-1.27-0.66
				c-0.34-0.35-0.53-0.73-0.56-1.15c-0.04-0.44,0.08-0.78,0.35-1.07c0.23-0.25,0.51-0.38,0.83-0.38c0.31-0.02,0.57,0.1,0.8,0.34
				c0.2,0.21,0.32,0.43,0.34,0.68c0.02,0.24-0.03,0.44-0.17,0.6c-0.09,0.11-0.23,0.17-0.36,0.17c-0.14,0-0.26-0.09-0.38-0.2
				c-0.06-0.03-0.09-0.08-0.1-0.11c-0.03-0.04-0.03-0.06-0.03-0.11l0.1-0.07c0.08,0.07,0.17,0.12,0.28,0.11
				c0.12,0,0.2-0.06,0.27-0.13c0.13-0.12,0.16-0.25,0.14-0.38c-0.01-0.16-0.09-0.3-0.21-0.42c-0.17-0.17-0.36-0.25-0.59-0.25
				c-0.22,0.02-0.43,0.13-0.61,0.32c-0.23,0.25-0.35,0.56-0.32,0.94c0.02,0.39,0.17,0.72,0.45,1.01c0.27,0.27,0.56,0.42,0.9,0.44
				c0.33,0.01,0.62-0.1,0.84-0.36c0.16-0.13,0.23-0.31,0.25-0.5c0.03-0.19-0.02-0.51-0.14-0.94c0-0.04-0.04-0.11-0.06-0.22
				c-0.22-0.8-0.18-1.36,0.11-1.68c0.21-0.19,0.42-0.3,0.71-0.3c0.26,0,0.5,0.11,0.69,0.3c0.07,0.09,0.14,0.18,0.19,0.26
				c0.04,0.07,0.07,0.18,0.11,0.3l0.26-0.25l0.14,0.14l-1.21,1.23L99.13,53.35z M104.23,57.82l-1.31-2.03l-0.16,0.14l0.05,0.1
				c0.08,0.12,0.12,0.22,0.09,0.29c-0.02,0.07-0.09,0.17-0.25,0.26l-3.09,2.16l-0.28-0.4l-0.17,0.11l1.33,2.03l-0.28,0.19l0.13,0.2
				l1.42-1.01l-0.13-0.19l-0.27,0.19c-0.25,0.17-0.46,0.23-0.66,0.2c-0.18-0.04-0.36-0.2-0.55-0.47l-0.21-0.33l2.35-1.67l0.09,0.14
				c0.08,0.1,0.09,0.21,0.08,0.32c-0.04,0.12-0.11,0.22-0.24,0.3l-0.28,0.19l0.14,0.19l1.33-0.94l-0.12-0.2l-0.51,0.37l-0.32-0.48
				l0.91-0.64l0.2,0.3c0.17,0.28,0.25,0.54,0.23,0.71c-0.02,0.2-0.17,0.39-0.38,0.54l-0.25,0.17l0.12,0.19l1.34-0.94l-0.13-0.18
				L104.23,57.82z M106.02,62.24l-2.38,1.2l0.29,0.03c-0.03,0.31-0.06,0.56-0.03,0.75c0.01,0.19,0.05,0.35,0.12,0.5
				c0.17,0.35,0.42,0.57,0.77,0.68c0.34,0.11,0.71,0.07,1.09-0.12c0.45-0.23,0.77-0.57,0.95-1.03c0.19-0.45,0.19-0.88,0-1.29
				c-0.08-0.17-0.18-0.32-0.32-0.44C106.35,62.41,106.19,62.32,106.02,62.24 M101.97,63.03l0.19-0.09l0.19,0.46l3.37-1.7
				c0.15-0.08,0.26-0.16,0.28-0.23c0.03-0.06,0-0.17-0.05-0.29l-0.05-0.12l0.19-0.1l0.47,1.01l-0.28,0.13
				c0.22,0.13,0.39,0.28,0.54,0.44c0.15,0.14,0.27,0.33,0.37,0.53c0.23,0.49,0.26,1,0.1,1.51c-0.18,0.52-0.47,0.9-0.93,1.13
				c-0.48,0.24-0.95,0.29-1.41,0.13c-0.46-0.15-0.82-0.47-1.08-0.96l-0.04,1.07c-0.01,0.15,0,0.29,0.04,0.43
				c0.02,0.13,0.05,0.25,0.09,0.36c0.02,0.05,0.06,0.1,0.1,0.15c0.02,0.04,0.04,0.09,0.09,0.11l-0.08,0.16
				c-0.11-0.06-0.18-0.15-0.27-0.24c-0.07-0.08-0.15-0.18-0.19-0.32c-0.12-0.23-0.19-0.55-0.21-0.95c-0.03-0.39,0.02-1.09,0.09-2.13
				l-0.48,0.25c-0.14,0.07-0.23,0.15-0.26,0.2c-0.05,0.09-0.02,0.19,0.04,0.32l0.13,0.28l-0.17,0.09L101.97,63.03z M109.63,70.71
				l0.3-0.07l0.04,0.21l-1.56,0.41l-0.05-0.23l0.3-0.07c0.26-0.07,0.46-0.19,0.54-0.37c0.09-0.18,0.09-0.43,0.02-0.75l-0.08-0.36
				l-1.09,0.28l0.15,0.57l0.61-0.16l0.05,0.21l-1.58,0.41l-0.04-0.22l0.33-0.09c0.13-0.03,0.23-0.1,0.29-0.18
				c0.06-0.11,0.07-0.21,0.05-0.34l-0.05-0.16l-2.77,0.73l0.09,0.38c0.07,0.32,0.19,0.54,0.35,0.64c0.17,0.11,0.41,0.12,0.68,0.04
				l0.31-0.07l0.05,0.21l-1.65,0.42l-0.05-0.22l0.33-0.07l-0.58-2.38l0.19-0.05l0.12,0.48l3.64-0.94c0.17-0.04,0.27-0.1,0.32-0.15
				c0.03-0.07,0.04-0.18,0-0.31l-0.03-0.12l0.19-0.06L109.63,70.71z M105.98,75.29l3.73-0.35c0.17,0,0.29-0.05,0.33-0.12
				c0.07-0.05,0.08-0.14,0.07-0.28l-0.01-0.14l0.19-0.01l0.07,0.81l-3.25,2.26l2.81-0.27c0.16-0.01,0.26-0.05,0.32-0.09
				c0.04-0.05,0.06-0.16,0.04-0.3l0-0.14l0.2-0.01l0.11,1.19l-0.21,0.02l-0.05-0.49l-4.44,0.39l-0.02-0.18l3.44-2.41l-2.89,0.27
				c-0.18,0.02-0.29,0.05-0.33,0.11c-0.05,0.05-0.08,0.15-0.06,0.29l0.01,0.15L105.85,76l-0.11-1.18l0.21-0.02L105.98,75.29z
				 M109.05,82.05l-0.03,0.51l0.87-0.18L109.05,82.05z M106.12,80.35l0.2,0.02l-0.03,0.39l4.38,1.72l-0.02,0.25l-4.17,0.96
				c-0.13,0.03-0.23,0.07-0.29,0.13c-0.06,0.07-0.08,0.14-0.1,0.24l0,0.11l-0.22-0.01l0.1-1.5l0.2,0.02l-0.04,0.46l2.67-0.55
				l0.05-0.62l-2-0.78l-0.03,0c-0.1-0.04-0.18-0.06-0.23-0.06c-0.11-0.02-0.17,0.02-0.24,0.08c-0.07,0.06-0.11,0.16-0.12,0.29
				l-0.01,0.2l-0.19-0.01L106.12,80.35z"/>
			<path class="st2" d="M56.81,118.85l0.08,0.25c-0.31,0.11-0.61,0.17-0.92,0.18c-0.31-0.02-0.64-0.1-0.96-0.23
				c-0.68-0.27-1.18-0.71-1.42-1.33c-0.29-0.61-0.29-1.25,0-1.91c0.23-0.64,0.68-1.08,1.31-1.35c0.63-0.25,1.27-0.26,1.93,0
				c0.22,0.09,0.42,0.21,0.62,0.36c0.19,0.15,0.37,0.33,0.55,0.55l0.18-0.44l0.2,0.07l-0.7,1.75l-0.19-0.08l0.1-0.27
				c0.13-0.37,0.13-0.7-0.07-1.01c-0.16-0.34-0.47-0.57-0.91-0.75c-0.48-0.21-0.94-0.21-1.37,0c-0.42,0.21-0.75,0.58-0.97,1.11
				c-0.13,0.31-0.19,0.62-0.21,0.95c-0.01,0.31,0.01,0.61,0.1,0.91c0.11,0.34,0.24,0.59,0.44,0.81c0.18,0.22,0.41,0.38,0.7,0.49
				c0.25,0.12,0.49,0.15,0.73,0.15C56.28,119.03,56.53,118.95,56.81,118.85 M61.81,120.61l0.53-3.85c0.03-0.17,0.01-0.29-0.05-0.36
				c-0.03-0.06-0.12-0.1-0.27-0.13l-0.12-0.01l0.03-0.21l1.6,0.22l-0.03,0.21l-0.49-0.06l-0.17,1.14l1.34,0.18l0.11-0.7
				c0.02-0.16,0.02-0.28-0.05-0.36c-0.01-0.07-0.13-0.1-0.28-0.13l-0.11-0.02l0.03-0.21l1.61,0.22l-0.02,0.21l-0.5-0.07l-0.54,3.84
				c-0.02,0.18-0.02,0.28,0.04,0.36c0.03,0.06,0.11,0.09,0.25,0.11l0.14,0.02l-0.03,0.21l-1.6-0.23l0.02-0.2l0.5,0.07l0.4-2.95
				l-1.35-0.18l-0.33,2.48c-0.04,0.18-0.03,0.3,0.01,0.37c0.05,0.07,0.15,0.11,0.29,0.12l0.11,0.03l-0.02,0.2l-1.6-0.23l0.03-0.2
				L61.81,120.61z M69.56,121.45l-0.01-0.21l0.5,0l-0.14-3.89c0-0.18-0.03-0.28-0.09-0.34c-0.05-0.06-0.14-0.09-0.29-0.08l-0.14,0
				l-0.02-0.2l1.63-0.06l0.02,0.21l-0.51,0.01l0.15,3.87c0.01,0.19,0.04,0.31,0.08,0.35c0.06,0.06,0.16,0.09,0.29,0.08l0.13,0
				l0.02,0.21L69.56,121.45z M76.63,115.95l0.04,0.21l-0.5,0.09l0.86,4.24l0.22-0.04c0.33-0.06,0.53-0.18,0.66-0.35
				c0.11-0.16,0.14-0.4,0.08-0.74l-0.18-0.86l0.22-0.05l0.46,2.33l-0.24,0.04l-0.06-0.35l-2.24,0.44l-0.04-0.2l0.48-0.1l-0.74-3.81
				c-0.02-0.17-0.08-0.29-0.13-0.34c-0.08-0.03-0.17-0.03-0.31-0.02l-0.14,0.02l-0.03-0.19L76.63,115.95z M83.68,113.74l-0.12-0.29
				l0.21-0.09l0.64,1.56l-0.22,0.07l-0.1-0.27c-0.13-0.29-0.3-0.46-0.47-0.52c-0.18-0.06-0.42-0.03-0.74,0.09l-0.33,0.14l0.42,1.05
				l0.55-0.21l-0.25-0.6l0.21-0.09l0.63,1.57l-0.21,0.09l-0.12-0.32c-0.06-0.14-0.14-0.25-0.23-0.28c-0.11-0.05-0.23-0.05-0.36,0
				l-0.13,0.06l1.12,2.75l0.36-0.16c0.32-0.13,0.5-0.29,0.58-0.45c0.09-0.2,0.06-0.43-0.05-0.71l-0.13-0.32l0.21-0.07l0.66,1.64
				l-0.21,0.08l-0.13-0.32l-2.25,0.9l-0.08-0.17l0.45-0.19l-1.45-3.61c-0.06-0.15-0.13-0.26-0.21-0.29
				c-0.06-0.04-0.17-0.03-0.29,0.03l-0.13,0.04l-0.08-0.19L83.68,113.74z"/>
			<polygon class="st4" points="34.13,106.18 40.51,99.8 41.04,100.31 34.65,106.73 			"/>
			<polygon class="st4" points="98.19,99.74 104.66,105.6 104.16,106.13 97.68,100.29 			"/>
			<polygon class="st1" points="49.68,65.84 59.82,65.84 68.53,60.78 68.53,62.23 59.85,67.28 49.68,67.29 			"/>
			<polygon class="st1" points="88.85,65.81 78.74,65.82 69.97,60.77 69.97,62.23 78.68,67.26 88.85,67.25 			"/>
			<polygon class="st1" points="88.85,62.91 78.75,62.91 69.96,57.86 69.97,59.33 78.64,64.31 88.85,64.3 			"/>
			<polygon class="st1" points="49.68,62.93 59.78,62.93 68.53,57.87 68.53,59.33 59.89,64.32 49.68,64.33 			"/>
			<polygon class="st1" points="88.84,54.24 78.82,54.25 69.96,49.16 69.97,56.41 78.71,61.46 88.85,61.45 			"/>
			<polygon class="st1" points="49.67,54.27 59.71,54.26 68.52,49.17 68.53,56.43 59.82,61.46 49.66,61.49 			"/>
			<polygon class="st1" points="90.31,68.69 78.7,68.7 78.71,78.85 71.44,74.68 71.43,70.31 69.27,69.06 67.09,70.33 67.09,76.52 
				78.71,83.22 78.72,95.55 70,100.59 70.01,110.74 88.88,99.82 88.86,78.86 90.32,78.86 			"/>
			<polygon class="st1" points="48.22,68.73 59.83,68.71 59.84,79.58 71.45,86.28 71.45,92.48 69.29,93.74 67.1,92.48 67.1,88.13 
				59.84,83.93 59.85,95.55 68.57,100.58 68.57,110.73 49.69,99.86 49.69,78.89 48.23,78.9 			"/>
			<polygon class="st3" points="51.1,55.73 59.71,55.72 67.07,51.46 67.07,55.82 59.81,60.01 51.11,60.04 			"/>
			<polygon class="st3" points="87.4,55.7 78.81,55.7 71.42,51.45 71.42,55.8 78.71,60.01 87.4,59.99 			"/>
			<polygon class="st3" points="88.86,70.15 80.15,70.15 80.16,81.14 69.98,75.28 69.98,70.94 69.27,70.52 68.54,70.94 68.54,75.9 
				80.16,82.6 80.16,96.14 71.46,101.19 71.47,108.45 87.43,99.22 87.41,77.35 88.86,77.35 			"/>
			<polygon class="st3" points="49.67,70.18 58.38,70.17 58.39,80.21 70,86.9 69.99,91.89 69.29,92.29 68.56,91.86 68.55,87.52 
				58.39,81.65 58.4,96.15 67.11,101.19 67.12,108.45 51.14,99.24 51.12,77.38 49.67,77.39 			"/>
		</g>
	</g>
	
		<rect x="142.18" y="29.56" transform="matrix(1 -1.852014e-03 1.852014e-03 1 -0.1479 0.2645)" class="st0" width="1.16" height="100.88"/>
</g>
</svg>
