<?xml version="1.0" encoding="utf-8"?>
<!-- Generator: Adobe Illustrator 26.3.1, SVG Export Plug-In . SVG Version: 6.00 Build 0)  -->
<svg version="1.1" id="Capa_1" xmlns="http://www.w3.org/2000/svg" xmlns:xlink="http://www.w3.org/1999/xlink" x="0px" y="0px"
	 viewBox="0 0 800 300" style="enable-background:new 0 0 800 300;" xml:space="preserve">
<style type="text/css">
	.st0{fill:#FEFEFE;}
	.st1{font-family:'MuseoSans-500';}
	.st2{font-size:40.2362px;}
	.st3{letter-spacing:1;}
	.st4{fill-rule:evenodd;clip-rule:evenodd;fill:#FFFFFF;}
	.st5{fill-rule:evenodd;clip-rule:evenodd;fill:#002D74;}
	.st6{fill-rule:evenodd;clip-rule:evenodd;fill:#CE0E2D;}
	.st7{opacity:0;fill:#FEFEFE;}
	.st8{opacity:0.25;fill:none;stroke:#FEFEFE;stroke-width:2;stroke-miterlimit:10;}
	.st9{fill:#202036;}
	.st10{fill:#002D74;}
	.st11{opacity:0.25;fill:none;stroke:#202036;stroke-width:2;stroke-miterlimit:10;}
</style>
<g>
	<g>
		<g>
			<g>
				<path class="st0" d="M493.7,157c0.2,0,0.3,0,0.5,0.1c0.2,0.1,0.3,0.2,0.5,0.3l2.7,2.8c-1.2,1.5-2.6,2.7-4.4,3.5
					c-1.8,0.8-3.9,1.2-6.3,1.2c-2.2,0-4.2-0.4-6-1.1c-1.8-0.8-3.2-1.8-4.5-3.1c-1.2-1.3-2.2-2.9-2.8-4.7c-0.7-1.8-1-3.8-1-5.9
					c0-2.2,0.4-4.2,1.1-6c0.7-1.8,1.7-3.4,3-4.7c1.3-1.3,2.8-2.3,4.6-3.1c1.8-0.7,3.8-1.1,5.9-1.1c1.1,0,2.1,0.1,3.1,0.3
					c1,0.2,1.9,0.5,2.7,0.8c0.8,0.3,1.6,0.8,2.3,1.2c0.7,0.5,1.3,1,1.9,1.6l-2.3,3.1c-0.1,0.2-0.3,0.4-0.5,0.5
					c-0.2,0.2-0.5,0.2-0.8,0.2c-0.2,0-0.5-0.1-0.7-0.2c-0.2-0.1-0.4-0.2-0.7-0.4c-0.2-0.2-0.5-0.3-0.8-0.5c-0.3-0.2-0.6-0.3-1-0.5
					c-0.4-0.2-0.9-0.3-1.4-0.4c-0.5-0.1-1.1-0.2-1.9-0.2c-1.1,0-2.1,0.2-3.1,0.6c-0.9,0.4-1.7,1-2.4,1.8c-0.7,0.8-1.2,1.8-1.6,2.9
					c-0.4,1.2-0.6,2.5-0.6,4c0,1.5,0.2,2.8,0.6,4c0.4,1.2,1,2.1,1.7,2.9c0.7,0.8,1.5,1.4,2.5,1.8c0.9,0.4,1.9,0.6,3,0.6
					c0.6,0,1.2,0,1.7-0.1c0.5-0.1,1-0.2,1.4-0.3c0.4-0.1,0.9-0.3,1.2-0.6c0.4-0.2,0.8-0.5,1.2-0.9c0.2-0.1,0.3-0.2,0.5-0.3
					C493.3,157.1,493.5,157,493.7,157z"/>
				<path class="st0" d="M526.2,150c0,2.1-0.4,4.1-1.1,5.9c-0.7,1.8-1.8,3.4-3.1,4.7c-1.3,1.3-2.9,2.4-4.8,3.2
					c-1.9,0.8-3.9,1.1-6.2,1.1c-2.3,0-4.3-0.4-6.2-1.1s-3.5-1.8-4.8-3.2c-1.3-1.3-2.4-2.9-3.1-4.7c-0.7-1.8-1.1-3.8-1.1-5.9
					s0.4-4.1,1.1-5.9c0.7-1.8,1.8-3.4,3.1-4.7c1.3-1.3,2.9-2.4,4.8-3.1c1.9-0.8,3.9-1.1,6.2-1.1c2.3,0,4.3,0.4,6.2,1.2
					c1.9,0.8,3.5,1.8,4.8,3.2c1.3,1.3,2.3,2.9,3.1,4.7C525.8,145.9,526.2,147.9,526.2,150z M519.3,150c0-1.4-0.2-2.7-0.6-3.9
					c-0.4-1.2-0.9-2.1-1.6-2.9c-0.7-0.8-1.6-1.4-2.6-1.8c-1-0.4-2.2-0.6-3.5-0.6c-1.3,0-2.5,0.2-3.5,0.6c-1,0.4-1.9,1-2.6,1.8
					c-0.7,0.8-1.2,1.8-1.6,2.9c-0.4,1.2-0.6,2.5-0.6,3.9c0,1.5,0.2,2.8,0.6,3.9c0.4,1.2,0.9,2.1,1.6,2.9c0.7,0.8,1.6,1.4,2.6,1.8
					c1,0.4,2.2,0.6,3.5,0.6c1.3,0,2.4-0.2,3.5-0.6c1-0.4,1.9-1,2.6-1.8c0.7-0.8,1.2-1.8,1.6-2.9C519.1,152.7,519.3,151.4,519.3,150z
					"/>
				<path class="st0" d="M554.6,150c0,2.1-0.4,4.1-1.1,5.8c-0.7,1.8-1.8,3.3-3.1,4.6c-1.3,1.3-2.9,2.3-4.8,3
					c-1.9,0.7-3.9,1.1-6.2,1.1h-8.4c-1.6,0-3-1.3-3-3v-23.2c0-1.6,1.3-3,3-3h8.4c2.3,0,4.3,0.4,6.2,1.1c1.9,0.7,3.5,1.7,4.8,3
					c1.3,1.3,2.3,2.8,3.1,4.6C554.3,146,554.6,147.9,554.6,150z M547.7,150c0-1.4-0.2-2.7-0.6-3.9c-0.4-1.2-0.9-2.1-1.6-3
					c-0.7-0.8-1.6-1.4-2.6-1.9c-1-0.4-2.2-0.7-3.5-0.7H535v18.8h4.5c1.3,0,2.4-0.2,3.5-0.7c1-0.4,1.9-1.1,2.6-1.9
					c0.7-0.8,1.2-1.8,1.6-3C547.5,152.8,547.7,151.4,547.7,150z"/>
				<path class="st0" d="M563.4,140.6v6.8h9.2v5h-9.2v6.9h8.2c2.1,0,3.7,1.7,3.7,3.7v1.5h-18.8v-29.2h18.8v1.5
					c0,2.1-1.7,3.7-3.7,3.7H563.4z"/>
				<path class="st0" d="M594.5,141.3c-0.2,0.3-0.4,0.6-0.6,0.7c-0.2,0.2-0.5,0.2-0.9,0.2c-0.3,0-0.6-0.1-1-0.3
					c-0.4-0.2-0.8-0.4-1.2-0.7c-0.4-0.2-1-0.5-1.5-0.7c-0.6-0.2-1.2-0.3-2-0.3c-1.3,0-2.2,0.3-2.8,0.8c-0.6,0.5-0.9,1.3-0.9,2.2
					c0,0.6,0.2,1.1,0.6,1.5c0.4,0.4,0.9,0.7,1.5,1c0.6,0.3,1.3,0.5,2.1,0.8c0.8,0.2,1.6,0.5,2.4,0.8c0.8,0.3,1.6,0.6,2.4,1
					c0.8,0.4,1.5,0.9,2.1,1.5c0.6,0.6,1.1,1.3,1.5,2.2c0.4,0.9,0.6,1.9,0.6,3.1c0,1.3-0.2,2.6-0.7,3.8c-0.5,1.2-1.1,2.2-2,3.1
					c-0.9,0.9-2,1.6-3.3,2.1c-1.3,0.5-2.8,0.8-4.4,0.8c-0.9,0-1.8-0.1-2.8-0.3c-0.9-0.2-1.9-0.5-2.7-0.8c-0.9-0.3-1.7-0.7-2.5-1.2
					c-0.8-0.5-1.4-1-2-1.6l2-3.2c0.2-0.2,0.4-0.4,0.6-0.6c0.3-0.2,0.5-0.2,0.9-0.2c0.4,0,0.8,0.1,1.2,0.4c0.4,0.3,0.9,0.5,1.4,0.8
					c0.5,0.3,1.1,0.6,1.8,0.8c0.7,0.3,1.5,0.4,2.4,0.4c1.2,0,2.2-0.3,2.9-0.8c0.7-0.5,1-1.4,1-2.6c0-0.7-0.2-1.2-0.6-1.7
					s-0.9-0.8-1.5-1.1c-0.6-0.3-1.3-0.5-2.1-0.7c-0.8-0.2-1.6-0.4-2.4-0.7s-1.6-0.6-2.4-1c-0.8-0.4-1.5-0.9-2.1-1.5
					c-0.6-0.6-1.1-1.4-1.5-2.3s-0.6-2.1-0.6-3.4c0-1.1,0.2-2.2,0.7-3.2c0.4-1,1.1-2,1.9-2.8c0.9-0.8,1.9-1.5,3.1-2
					c1.2-0.5,2.7-0.7,4.3-0.7c0.9,0,1.8,0.1,2.6,0.2c0.8,0.1,1.7,0.3,2.4,0.6c0.8,0.3,1.5,0.6,2.1,1c0.7,0.4,1.3,0.8,1.8,1.3
					L594.5,141.3z"/>
			</g>
			<g>
				<path class="st0" d="M608.4,70.2c-1.1-0.4-2.3,0-3,1l-36.2,48.6c-0.2,0.2-0.3,0.5-0.4,0.7c0,0,0,0,0,0c-0.1,0.3-0.1,0.6-0.1,0.9
					c0,0.1,0,0.2,0,0.3c0,0.2,0.1,0.5,0.2,0.7c0,0.1,0,0.1,0,0.2c0,0,0,0,0.1,0.1c0,0,0,0.1,0,0.1c0.1,0.2,0.3,0.5,0.5,0.6
					c0,0,0.1,0,0.1,0.1c0.2,0.2,0.4,0.3,0.7,0.4c0.1,0,0.2,0.1,0.3,0.1c0.2,0.1,0.5,0.1,0.7,0.1c0.1,0,0.2,0,0.3,0c0,0,0.1,0,0.1,0
					l30.9-3.6v-5.5l-15.2,1.8l15.1-7.1v-6L580,114.3L604.9,81v138L580,185.6l22.5,10.7v-6l-15.1-7.2l15.2,1.8v-5.5l-30.9-3.6
					c0,0-0.1,0-0.1,0c-0.1,0-0.2,0-0.3,0c-0.2,0-0.5,0-0.7,0.1c-0.1,0-0.2,0.1-0.3,0.1c-0.2,0.1-0.5,0.2-0.7,0.4
					c0,0-0.1,0.1-0.1,0.1c-0.2,0.2-0.4,0.4-0.5,0.6c0,0,0,0.1,0,0.1c0,0,0,0-0.1,0.1c0,0.1,0,0.1,0,0.2c-0.1,0.2-0.1,0.5-0.2,0.7
					c0,0.1,0,0.2,0,0.3c0,0.3,0,0.6,0.1,0.9c0,0,0,0,0,0c0.1,0.2,0.2,0.5,0.4,0.7l36.2,48.7c0.5,0.7,1.3,1.1,2.2,1.1
					c0.3,0,0.6,0,0.9-0.1c1.1-0.4,1.9-1.4,1.9-2.6v-40.8h0v-7h0v-59h0v-7h0V72.8C610.3,71.7,609.5,70.6,608.4,70.2z"/>
				<path class="st0" d="M630.2,90.6L612.5,99v6l16.2-7.6v105.3l-16.2-7.6v6l17.7,8.4c0.4,0.2,0.8,0.3,1.2,0.3c0.5,0,1-0.1,1.4-0.4
					c0.8-0.5,1.3-1.4,1.3-2.3V93.1c0-0.9-0.5-1.8-1.3-2.3C632,90.3,631.1,90.2,630.2,90.6z"/>
				<polygon class="st0" points="626.4,112.3 612.5,113.9 612.5,119.4 626.4,117.7 				"/>
				<path class="st0" d="M650.7,110.4c-0.6-0.5-1.3-0.8-2.1-0.7l-12.3,1.4v5.5l9.9-1.1v69.1l-9.9-1.1v5.5l12.3,1.4
					c0.8,0.1,1.5-0.2,2.1-0.7c0.6-0.5,0.9-1.2,0.9-2v-75.2C651.6,111.6,651.3,110.9,650.7,110.4z"/>
				<polygon class="st0" points="626.4,182.2 612.5,180.6 612.5,186 626.4,187.7 				"/>
			</g>
			<text transform="matrix(1 0 0 1 657.6868 164.3486)" class="st0 st1 st2 st3">2022</text>
		</g>
	</g>
	<g>
		<g>
			<g>
				<path class="st0" d="M332.1,125.3c0-6.1-3.9-9.6-9.8-9.5l-6.6,0V135l6.6,0C328.2,134.9,332.1,131.3,332.1,125.3z M319.2,132
					v-13.2l2.9,0c3.9,0,6.4,2.3,6.4,6.6c0,4.3-2.5,6.7-6.4,6.7L319.2,132z"/>
				<polygon class="st0" points="199.3,116.4 195.8,116.4 195.8,135.7 199.3,135.7 				"/>
				<polygon class="st0" points="225.1,127.3 231.6,127.3 231.6,124.3 225.1,124.3 225.1,119.3 233.1,119.2 233.1,116.2 
					221.6,116.3 221.6,135.5 233.6,135.5 233.6,132.5 225.1,132.5 				"/>
				<path class="st0" d="M162.8,136.2c4.6,0,7.8-3,7.8-7.3v-12.3l-3.5,0v12.3c0,2.6-1.7,4.1-4.3,4.1c-2.6,0-4.3-1.4-4.3-4v-12.3
					l-3.5,0V129C155,133.3,158.1,136.2,162.8,136.2z"/>
				<path class="st0" d="M308,130.1l1.6,4.9l3.6,0l-6.8-19.2l-3.7,0l-6.8,19.3l3.6,0l1.6-4.9L308,130.1z M303.8,122.1
					c0.4-1.1,0.8-3,0.8-3l0.1,0c0,0,0.4,1.9,0.8,3l1.7,5.1l-5,0L303.8,122.1z"/>
				<polygon class="st0" points="273.6,116 270.1,116 270.1,135.3 273.6,135.2 				"/>
				<path class="st0" d="M187.4,127.6c0,1.1,0.2,3,0.2,3l-0.1,0c0,0-0.9-1.9-1.6-3l-7.3-11.1l-3.5,0v19.3l3.5,0v-11.1
					c0-1.1-0.2-3-0.2-3l0.1,0c0,0,0.9,1.9,1.6,3l7.3,11.1l3.5,0v-19.3l-3.5,0V127.6z"/>
				<path class="st0" d="M257.5,121.3c0-1.4,1.3-2.3,2.9-2.3c2.4,0,4.3,1.7,4.3,1.7l1.5-2.9c0,0-2-2.1-5.8-2c-3.7,0-6.5,2.4-6.5,5.6
					c0,5.9,9.1,5.3,9.1,8.7c0,1.6-1.3,2.3-2.8,2.3c-2.7,0-4.8-2-4.8-2l-1.9,2.6c0,0,2.4,2.6,6.6,2.6c4,0,6.3-2.6,6.3-5.7
					C266.6,123.8,257.5,124.7,257.5,121.3z"/>
				<path class="st0" d="M212.2,135.6l7-19.3l-3.7,0l-4.3,12.6c-0.4,1.1-0.7,2.8-0.7,2.8l-0.1,0c0,0-0.4-1.7-0.7-2.8l-4.2-12.5
					l-3.8,0l7,19.2L212.2,135.6z"/>
				<path class="st0" d="M247.8,128.2c-0.4-0.7-0.7-0.9-0.7-0.9v-0.1c2-0.8,3.3-3,3.3-5.3c0-2.5-1.2-4.4-3.1-5.2
					c-0.8-0.4-1.8-0.5-3.9-0.5l-6.2,0v19.3l3.5,0v-7.2l3.4,0l3.8,7.2l3.9,0L247.8,128.2z M243.9,125.2l-3.1,0v-6l2.7,0
					c2.7,0,3.5,1.1,3.5,3C246.9,124,245.7,125.2,243.9,125.2z"/>
				<path class="st0" d="M294.9,125.5c0-6.1-3.9-9.6-9.8-9.5l-6.6,0v19.3l6.6,0C291,135.1,294.9,131.5,294.9,125.5z M282,132.2
					v-13.2l2.9,0c3.9,0,6.4,2.3,6.4,6.6c0,4.3-2.5,6.7-6.4,6.7L282,132.2z"/>
				<polygon class="st0" points="186.4,144.3 186.4,142.6 175.6,142.7 175.6,161.8 186.9,161.8 186.9,160.1 177.5,160.1 177.5,153 
					184.8,153 184.8,151.3 177.5,151.3 177.5,144.4 				"/>
				<path class="st0" d="M161.6,142.8l-6.2,0V162l6.2,0c5.8,0,9.6-3.5,9.6-9.7C171.3,146.2,167.4,142.7,161.6,142.8z M161.5,160.2
					l-4.1,0v-15.8l4.1,0c4.7,0,7.9,2.7,7.9,7.8C169.3,157.4,166.2,160.2,161.5,160.2z"/>
				<path class="st0" d="M312.8,155.7c0,1,0.2,2.6,0.2,2.6l-0.1,0c0,0-0.9-1.6-1.6-2.6l-9.8-13.7l-1.8,0v19.2l1.9,0v-13.8
					c0-1-0.2-2.6-0.2-2.6l0.1,0c0,0,0.9,1.6,1.6,2.6l9.8,13.7l1.8,0v-19.2l-1.9,0V155.7z"/>
				<polygon class="st0" points="200.4,142.5 198.5,142.5 198.5,161.7 209.3,161.7 209.3,160 200.4,160 				"/>
				<path class="st0" d="M217.3,142.4l-7,19.2l2,0l2.2-6.1l7.7,0l2.2,6.1l2,0l-7-19.1L217.3,142.4z M215,153.9l2.6-7
					c0.3-0.9,0.7-2.5,0.7-2.5l0.1,0c0,0,0.4,1.6,0.7,2.5l2.5,6.9L215,153.9z"/>
				<polygon class="st0" points="253.4,152.6 260.6,152.6 260.6,150.9 253.4,150.9 253.4,143.9 262.3,143.9 262.3,142.2 
					251.5,142.3 251.5,161.4 262.8,161.4 262.8,159.7 253.4,159.7 				"/>
				<path class="st0" d="M237.7,147.1c0-1.7,1.6-3.3,4-3.3c2.5,0,4.2,1.6,4.2,1.6l0.9-1.6c0,0-1.8-1.8-5.1-1.8c-3.5,0-6,2.4-6,5.2
					c0,5.9,9.6,4.7,9.6,9.5c0,2.1-1.7,3.3-3.8,3.3c-3,0-5-2.1-5-2.1l-1.1,1.5c0,0,2.2,2.4,6.1,2.4c3.6,0,5.8-2.4,5.8-5.2
					C247.3,150.3,237.7,151.7,237.7,147.1z"/>
				<path class="st0" d="M326.9,141.8l-2,0l-7,19.2l2,0l2.2-6.1l7.7,0l2.2,6.1l2,0L326.9,141.8z M322.6,153.3l2.6-7
					c0.3-0.9,0.7-2.5,0.7-2.5l0.1,0c0,0,0.4,1.6,0.7,2.5l2.5,6.9L322.6,153.3z"/>
				<polygon class="st0" points="286,152.4 293.3,152.4 293.3,150.7 286,150.7 286,143.7 295,143.7 295,142 284.2,142.1 
					284.2,161.2 295.5,161.2 295.5,159.5 286,159.5 				"/>
				<path class="st0" d="M275.6,152.8L275.6,152.8c2.2-0.7,3.6-2.7,3.6-5.3c0-2.3-1.1-4.1-2.9-4.9c-0.8-0.3-1.6-0.5-3.6-0.5l-5.7,0
					v19.2l1.9,0v-8.1l4.8,0l4.3,8l2.2,0l-4.2-7.7C275.8,153,275.6,152.8,275.6,152.8z M273.5,151.5l-4.6,0v-7.7l3.9,0
					c1.5,0,2.2,0.2,2.7,0.4c1.1,0.6,1.7,1.8,1.7,3.3C277.3,150,275.8,151.5,273.5,151.5z"/>
				<path class="st0" d="M160.3,183.4c-2.6,0-4.5-2.1-4.5-4.7c0-2.6,1.8-4.6,4.4-4.6c2.1,0,3.3,1.2,3.3,1.2l0.6-0.8
					c0,0-1.3-1.4-4-1.4c-3.1,0-5.5,2.5-5.5,5.6c0,3.2,2.3,5.7,5.6,5.7c2.7,0,4.2-1.7,4.2-1.7l-0.6-0.8
					C163.9,181.9,162.6,183.3,160.3,183.4z"/>
				<polygon class="st0" points="174.3,178.1 168,178.1 168,173.1 166.9,173.1 166.9,184.1 168,184.1 168,179.1 174.3,179.1 
					174.3,184.1 175.4,184.1 175.4,173.1 174.3,173.1 				"/>
				<polygon class="st0" points="183.9,173.1 182.9,173.1 182.9,184 189,184 189,183 183.9,183.1 				"/>
				<polygon class="st0" points="192,178.9 196.2,178.9 196.2,178 192,178 192,174 197.1,173.9 197.1,173 191,173 191,184 
					197.4,184 197.4,183 192,183 				"/>
				<polygon class="st0" points="178.6,184.1 179.7,184.1 179.7,173.1 178.6,173.1 				"/>
			</g>
			<g>
				
					<ellipse transform="matrix(0.7061 -0.7081 0.7081 0.7061 -79.6821 108.01)" class="st4" cx="90.3" cy="150" rx="46.3" ry="46.1"/>
				<g>
					<g>
						
							<ellipse transform="matrix(0.7059 -0.7083 0.7083 0.7059 -79.6954 108.0647)" class="st5" cx="90.3" cy="150" rx="35.6" ry="35.4"/>
						<polygon class="st4" points="80.3,123.9 89.3,118.5 89.3,126.6 81.2,131.5 70.1,131.5 70.1,124.1 						"/>
						<polygon class="st6" points="71.9,125.6 71.9,130 80.8,130 87.8,125.8 87.8,121.2 80.8,125.4 						"/>
						<polygon class="st4" points="70.1,134.4 80.8,134.3 89.3,129.4 89.3,127.9 80.8,132.8 70.1,132.8 						"/>
						<polygon class="st4" points="70.1,137.5 80.8,137.4 89.3,132.6 89.3,131 80.8,135.9 70.1,136 						"/>
						<polygon class="st4" points="80.8,149.7 92.3,156.2 92.3,163 90,164.2 87.8,163 87.8,158.6 80.8,154.8 80.8,165.8 89.5,170.6 
							89.5,181.5 70.4,170.8 70.4,149 68.6,149 68.6,138.6 80.8,138.5 						"/>
						<polygon class="st6" points="70.2,140.1 71.9,140.1 79.3,140.1 79.3,147.4 79.3,150.7 90.8,157.1 90.8,162.1 90,162.5 
							89.3,162.1 89.3,157.7 79.3,152.2 79.3,166.7 88,171.5 88,178.9 71.9,169.9 71.9,147.5 70.2,147.5 						"/>
						<polygon class="st4" points="92.3,144.4 99.7,148.5 99.7,138.4 111.9,138.4 111.9,148.8 110.2,148.8 110.2,170.6 91,181.5 
							91,170.6 99.7,165.7 99.7,153.6 87.8,146.9 87.8,140.1 90,138.9 92.3,140.1 						"/>
						<polygon class="st6" points="90.8,141 90.8,145.3 101.2,151.2 101.2,147.3 101.2,140 108.6,139.9 110.4,139.9 110.4,147.3 
							108.6,147.3 108.6,169.7 92.6,178.9 92.6,171.5 101.2,166.6 101.2,152.9 101,152.5 89.3,146 89.3,141 90,140.6 						"/>
						<polygon class="st4" points="99.8,123.8 90.8,118.5 90.8,126.6 98.9,131.4 109.9,131.3 109.9,123.9 						"/>
						<polygon class="st6" points="108.1,125.4 108.1,129.8 99.3,129.9 92.3,125.8 92.3,121.2 99.3,125.3 						"/>
						<polygon class="st4" points="109.9,134.1 99.3,134.2 90.8,129.4 90.8,127.9 99.3,132.7 109.9,132.6 						"/>
						<polygon class="st4" points="109.9,137.3 99.3,137.3 90.8,132.6 90.8,131 99.3,135.8 109.9,135.7 						"/>
						<path class="st5" d="M61.8,170.3l-7,7c8.2,10.6,21,17.4,35.5,17.3c14.5-0.1,27.3-7,35.5-17.7l-7-6.9l0.3-0.3l6.9,6.9
							c5.6-7.5,8.9-16.8,8.9-26.8c0-24.7-20-44.6-44.7-44.4c-24.7,0.1-44.7,20.3-44.7,44.9c0,10,3.3,19.3,8.9,26.7l6.9-7L61.8,170.3
							L61.8,170.3z M90.3,104.6c25.1-0.1,45.4,20.1,45.4,45.1c0,25.1-20.3,45.5-45.4,45.6c-25.1,0.1-45.4-20.1-45.4-45.1
							C44.9,125.2,65.2,104.8,90.3,104.6z"/>
						<path class="st5" d="M48.3,146.9l-0.1,0l0.1-1.4l0.1,0l0,0.5l4.2,0.3c0.2,0,0.4,0.1,0.5,0.2c0.1,0.1,0.3,0.3,0.3,0.5
							c0.1,0.2,0.1,0.4,0.1,0.6c0,0.2-0.1,0.4-0.1,0.7c-0.1,0.2-0.2,0.4-0.3,0.6c-0.2,0.3-0.5,0.4-0.9,0.4l-3.6-0.3
							c-0.2,0-0.4,0.2-0.4,0.6l-0.1,0l0.1-1.7l0.1,0l0,0.5l4.1,0.3c0.3,0,0.5-0.1,0.7-0.3c0.2-0.2,0.3-0.5,0.3-0.8
							c0-0.3-0.1-0.5-0.2-0.8c-0.2-0.2-0.4-0.3-0.6-0.3l-3.7-0.3c-0.2,0-0.4,0.1-0.4,0.4L48.3,146.9L48.3,146.9z M53.5,144.8
							l0.1-0.5l-4.1-0.7c-0.2,0-0.4,0-0.5,0c-0.2,0-0.3,0.2-0.3,0.6l-0.1,0l0.2-0.9l4.7-1.6l0,0l-3.6-0.6c-0.1,0-0.3,0-0.4,0.1
							c-0.1,0.1-0.2,0.2-0.2,0.4l-0.1,0l0.2-1.3l0.1,0l-0.1,0.4l5.2,0.9l0,0.2l-4.7,1.7l0,0l3.3,0.6c0.3,0,0.4,0,0.6-0.1
							c0.1-0.1,0.1-0.3,0.2-0.5l0.1,0l-0.3,1.4L53.5,144.8L53.5,144.8z M54.5,139.9l0.2-0.5l-4.4-1.2c-0.1,0-0.3,0-0.3,0.1
							c-0.1,0.1-0.1,0.2-0.2,0.4l-0.1,0l0.5-1.6l0.1,0l-0.1,0.5l4.2,1.2c0.1,0,0.2,0.1,0.3,0.1c0.1,0,0.2,0,0.2-0.1
							c0-0.1,0.1-0.2,0.2-0.4l0.1,0l-0.5,1.6L54.5,139.9L54.5,139.9z M55.9,134.5l-3-2.5c-0.1-0.1-0.2-0.1-0.2-0.1
							c-0.1-0.1-0.3-0.1-0.3,0c-0.1,0.1-0.2,0.2-0.2,0.4l0,0.1l-0.1-0.1l0.7-1.5l0.1,0.1l-0.2,0.5l4.2,3.6l-0.1,0.2l-4.7-0.3
							c-0.3,0-0.5,0-0.6,0c-0.1,0-0.2,0.1-0.3,0.1c-0.1,0.1-0.1,0.1-0.2,0.3l-0.1,0.2l-0.1-0.1l0.8-1.7l0.1,0.1l-0.3,0.6L55.9,134.5
							L55.9,134.5z M59.3,129.6l0.3,0.2l0.1-0.2l-1.6-0.9l-0.1,0.2l0.3,0.2c0.2,0.1,0.4,0.3,0.5,0.4c0.1,0.2,0.1,0.4,0,0.6
							c-0.1,0.3-0.3,0.7-0.5,1l-3-1.7c0.1-0.2,0.2-0.3,0.2-0.3c0.1-0.1,0.3-0.2,0.4-0.1c0.2,0,0.3,0.1,0.5,0.2l0.1-0.1l-1.7-0.9
							l-0.1,0.1l0.7,0.4l-0.4,0.7l-1.1-0.6l0.1-0.2c0.3-0.5,0.5-0.8,0.8-1c0.2-0.1,0.5-0.1,0.9,0.1l0.2,0.1l0.1-0.2l-1.5-0.9
							l-0.1,0.2l0.3,0.2l-1.5,2.6l0.1,0.1c0.1-0.2,0.2-0.3,0.3-0.4c0.1-0.1,0.2-0.1,0.3,0l3.9,2.2l-0.3,0.5l0.1,0.1L59.3,129.6
							L59.3,129.6z M56,125l0.7-0.9l0.4,0.3c0.1-0.7,0.4-1.3,0.8-1.7c0.3-0.3,0.7-0.6,1.1-0.8c0.4-0.2,0.8-0.3,1.3-0.3
							c0.4,0,0.8,0.2,1.1,0.4c0.3,0.3,0.5,0.6,0.6,1c0.1,0.4,0.1,0.8-0.1,1.3c-0.1,0.4-0.3,0.9-0.7,1.2l0,0c0.1-0.1,0.4-0.2,0.7-0.4
							c0.4-0.2,0.7-0.3,0.9-0.5c0.2-0.2,0.4-0.3,0.6-0.5c0.1-0.1,0.2-0.3,0.2-0.4l0.1,0c0,0.2-0.1,0.4-0.3,0.7
							c-0.2,0.2-0.3,0.4-0.5,0.5c-0.2,0.2-0.4,0.3-0.6,0.4c-0.2,0.1-0.4,0.3-0.8,0.5c-0.7,0.4-1.3,0.7-1.8,0.9l0.5,0.5
							c0.1,0.1,0.2,0.1,0.2,0.1c0.1,0,0.1,0,0.2-0.1c0.1-0.1,0.2-0.2,0.2-0.2c0-0.1,0.1-0.1,0.2-0.2l0.1,0.1l-1.2,1.4l-0.1-0.1
							l0.3-0.4l-3.4-3c-0.2-0.2-0.4-0.1-0.6,0.2l-0.1,0.1L56,125L56,125z M57.4,124.7l2.1,1.8l0-0.2c0.7-0.2,1.3-0.6,1.6-0.9
							c0.3-0.3,0.4-0.6,0.5-1c0.1-0.4,0.1-0.7,0-1.1c-0.1-0.3-0.3-0.6-0.5-0.8c-0.3-0.2-0.6-0.4-1-0.4c-0.4,0-0.8,0-1.1,0.2
							c-0.4,0.2-0.7,0.4-1,0.7C57.5,123.5,57.3,124.1,57.4,124.7L57.4,124.7z M63.5,116.7l-0.1,0.1l0.2,0.2
							c-0.3,0.1-0.5,0.2-0.6,0.3c-0.3,0.3-0.4,0.5-0.5,0.9c-0.1,0.3,0,0.6,0.2,0.8c0.1,0.2,0.3,0.3,0.5,0.3c0.2,0,0.4,0,0.6,0
							c0.2,0,0.5-0.1,0.8-0.2c0.3-0.1,0.6-0.2,0.9-0.2c0.2,0,0.5-0.1,0.7,0c0.2,0,0.4,0.1,0.5,0.3c0.2,0.2,0.3,0.5,0.3,0.7
							c0,0.3-0.1,0.6-0.2,0.9c-0.1,0.3-0.4,0.6-0.6,0.8c-0.3,0.3-0.6,0.4-0.9,0.5c-0.3,0.1-0.6,0.1-0.9,0c-0.3-0.1-0.5-0.2-0.7-0.4
							c-0.1-0.1-0.2-0.3-0.2-0.5c0-0.2,0-0.4,0-0.6c0.1-0.2,0.2-0.4,0.4-0.5c0.1-0.1,0.2-0.2,0.4-0.2c0.1,0,0.3,0,0.4,0
							c0.1,0,0.2,0.1,0.3,0.2c0.2,0.2,0.1,0.4,0,0.6l0.1,0.1c0.1-0.1,0.2-0.1,0.2-0.1c0.2-0.1,0.2-0.3,0.3-0.5c0-0.2,0-0.3-0.1-0.4
							c-0.1-0.1-0.3-0.2-0.4-0.2c-0.2,0-0.4,0-0.6,0.1c-0.2,0.1-0.4,0.2-0.5,0.3c-0.2,0.2-0.4,0.4-0.5,0.7c-0.1,0.3-0.1,0.6-0.1,0.8
							c0,0.3,0.1,0.5,0.3,0.7c0.2,0.3,0.5,0.4,0.8,0.5c0.3,0.1,0.7,0,1-0.1c0.4-0.1,0.7-0.3,1-0.6c0.2-0.2,0.5-0.5,0.6-0.7
							c0.2-0.3,0.3-0.5,0.4-0.8c0.1-0.3,0.1-0.5,0.1-0.8c0-0.3-0.1-0.5-0.3-0.7c-0.2-0.2-0.4-0.3-0.6-0.4c-0.2,0-0.5,0-0.8,0
							c-0.3,0.1-0.6,0.1-0.9,0.2c-0.3,0.1-0.6,0.2-0.8,0.2c-0.2,0-0.4,0.1-0.6,0c-0.2,0-0.3-0.1-0.5-0.3c-0.1-0.1-0.1-0.2-0.1-0.3
							c0-0.1,0-0.3,0.1-0.4c0.1-0.1,0.1-0.3,0.3-0.4c0.3-0.2,0.5-0.3,0.7-0.2c0.2,0.1,0.4,0.3,0.7,0.5l0.3,0.4l0.1-0.1L63.5,116.7
							L63.5,116.7z M68.8,119.5l0.4-0.3l-2.6-3.7c-0.1-0.1-0.2-0.2-0.3-0.1c-0.1,0-0.3,0.1-0.4,0.2l-0.1-0.1l1.4-1l0.1,0.1l-0.4,0.3
							l2.6,3.6c0.1,0.1,0.1,0.2,0.2,0.2c0.1,0.1,0.1,0.1,0.2,0.1c0.1,0,0.2-0.1,0.4-0.2l0.1,0.1l-1.4,1L68.8,119.5L68.8,119.5z
							 M71,117.9l0.1,0.1l1.8-1c0.5-0.2,0.8-0.5,1.1-0.7c0.3-0.2,0.5-0.5,0.7-0.7c0.2-0.2,0.3-0.5,0.4-0.8c0.2-0.7,0.2-1.3-0.1-1.9
							c-0.1-0.2-0.2-0.4-0.4-0.5c-0.2-0.2-0.4-0.3-0.6-0.4c-0.2-0.1-0.4-0.2-0.7-0.2c-0.4-0.1-0.7-0.1-1.1,0
							c-0.4,0.1-0.8,0.2-1.2,0.5l-2.3,1.2l0.1,0.1l0.1-0.1c0.3-0.2,0.5-0.1,0.6,0.1l2.1,4L71,117.9L71,117.9z M74.5,113.2
							c-0.2-0.4-0.5-0.6-0.9-0.8c-0.4-0.2-0.8-0.3-1.3-0.3c-0.5,0-0.9,0.1-1.4,0.4c-0.5,0.3-0.9,0.5-1.1,0.7l2.1,4
							c0.4-0.1,0.8-0.2,1.3-0.5c0.4-0.2,0.8-0.5,1.1-0.9c0.3-0.4,0.4-0.8,0.5-1.3C74.8,114,74.7,113.6,74.5,113.2L74.5,113.2z
							 M80.5,113.8l-2-2.8l-0.7,0.2l0,2.4c0,0.2,0,0.4,0.1,0.6c0,0.1,0.1,0.2,0.2,0.2c0.1,0,0.2,0,0.3,0c0.1,0,0.2,0,0.4-0.1l0,0.1
							l-1.6,0.5l0-0.1l0.4-0.1l0-5.5l0.2,0l2.7,3.7c0.1,0.1,0.2,0.3,0.3,0.4c0.1,0.1,0.2,0.2,0.3,0.3c0.1,0.1,0.3,0.1,0.4,0l0,0.1
							l-1.5,0.4l0-0.1L80.5,113.8L80.5,113.8z M78.4,110.9l-0.6-0.9l0,0l0,1.1L78.4,110.9L78.4,110.9z M82.3,113.3l0.6-0.1l-0.6-4.5
							c0-0.3-0.2-0.4-0.5-0.3l-0.1,0l0-0.1l2.6-0.3c0.5-0.1,0.9-0.1,1.3,0c0.4,0.1,0.7,0.2,1,0.4c0.2,0.1,0.4,0.3,0.5,0.4
							c0.2,0.2,0.3,0.4,0.4,0.6c0.1,0.2,0.2,0.4,0.2,0.6c0.1,0.7-0.1,1.3-0.6,1.8c-0.2,0.2-0.4,0.4-0.6,0.6
							c-0.2,0.2-0.5,0.3-0.9,0.5c-0.4,0.1-0.8,0.2-1.3,0.3l-2,0.3L82.3,113.3L82.3,113.3z M87.2,110.1c-0.1-0.4-0.3-0.8-0.6-1.1
							c-0.3-0.3-0.7-0.6-1.1-0.7c-0.5-0.2-0.9-0.2-1.4-0.1c-0.6,0.1-1,0.2-1.3,0.3l0.6,4.5c0.4,0.1,0.8,0.1,1.4,0
							c0.5-0.1,0.9-0.2,1.3-0.5c0.4-0.3,0.7-0.6,0.9-1.1C87.2,110.9,87.2,110.5,87.2,110.1L87.2,110.1z M92,112.4l0.6,0.1l0.6-4.5
							c0-0.3-0.1-0.4-0.5-0.4l-0.1,0l0-0.1l2.6,0.3c0.5,0.1,0.9,0.2,1.3,0.3c0.3,0.2,0.6,0.4,0.9,0.6c0.2,0.2,0.3,0.4,0.4,0.6
							c0.1,0.2,0.2,0.4,0.3,0.7c0.1,0.2,0.1,0.5,0,0.7c-0.1,0.7-0.4,1.2-1,1.6c-0.2,0.2-0.5,0.3-0.7,0.4c-0.3,0.1-0.6,0.2-1,0.2
							c-0.4,0-0.8,0-1.3,0l-2-0.2L92,112.4L92,112.4z M97.5,110.6c0-0.4-0.1-0.8-0.3-1.2c-0.2-0.4-0.5-0.7-0.9-1
							c-0.4-0.3-0.8-0.4-1.3-0.5c-0.6-0.1-1-0.1-1.3,0l-0.6,4.5c0.3,0.1,0.8,0.3,1.4,0.3c0.5,0.1,1,0,1.4-0.2
							c0.4-0.2,0.8-0.4,1.1-0.8C97.3,111.4,97.5,111,97.5,110.6L97.5,110.6z M101.6,114.4l-2.8-0.8l0-0.1l0.5,0.2l1.2-4.4
							c0-0.1,0-0.3-0.1-0.3c-0.1-0.1-0.2-0.1-0.4-0.2l0-0.1l2.8,0.8l0.1-0.3l0.2,0l-0.5,1.7l-0.2,0l0.1-0.3c0.1-0.4,0.1-0.7-0.1-0.9
							c-0.2-0.2-0.6-0.3-1.1-0.5l-0.2-0.1l-0.3,1.2l0.8,0.2l0.2-0.8l0.1,0l-0.5,1.8l-0.1,0c0.1-0.2,0.1-0.4,0.1-0.6
							c0-0.2-0.1-0.3-0.2-0.4c-0.1-0.1-0.2-0.1-0.4-0.2l-0.9,3.3c0.4,0.1,0.7,0.2,1.1,0.2c0.3,0,0.5-0.1,0.6-0.2
							c0.1-0.1,0.2-0.3,0.3-0.6l0.1-0.4l0.2,0l-0.5,1.8l-0.2,0L101.6,114.4L101.6,114.4z M109.3,111.9l-0.1,0.1l-0.5-0.2l-2.2,4.4
							c0.3,0.1,0.5,0.2,0.7,0.3c0.2,0.1,0.4,0.1,0.6,0.1c0.2,0,0.4-0.1,0.5-0.4l0.6-1.1l0.2,0.1l-1.2,2.3l-0.2-0.1l0.1-0.3l-2.4-1.2
							l0.1-0.1l0.5,0.2l2.1-4.1c0.1-0.1,0.1-0.2,0-0.3c-0.1-0.1-0.2-0.2-0.4-0.3l0.1-0.1L109.3,111.9L109.3,111.9z M112.2,119.5
							l-0.5-0.3l-0.1,0.1l1.3,0.8l0.1-0.1c-0.1-0.1-0.2-0.2-0.3-0.4c0-0.1,0-0.3,0-0.5c0-0.2,0.1-0.3,0.1-0.5l1-4.5l-0.1-0.1
							l-4.1,3.7l-0.3-0.2l-0.1,0.1l1.4,0.9l0.1-0.1c-0.2-0.1-0.3-0.2-0.3-0.2c-0.1-0.1-0.2-0.2-0.2-0.3c0-0.1,0-0.2,0.1-0.3
							c0.1-0.1,0.2-0.3,0.4-0.4l1.8-1.6l0.7,0.4L112.2,119.5L112.2,119.5z M113,115.9l-0.6-0.3l0.8-0.7l0,0L113,115.9L113,115.9z
							 M122,121.1l-1.5,1.4l-0.1-0.1l0.3-0.3c0.2-0.2,0.4-0.5,0.5-0.7c0.1-0.2,0-0.5-0.2-0.7c-0.1-0.1-0.2-0.2-0.4-0.2
							c-0.1-0.1-0.3-0.1-0.4,0c-0.1,0-0.2,0.1-0.3,0.2c-0.1,0.1-0.2,0.3-0.2,0.5c0,0.2,0,0.4,0.1,0.6c0.1,0.2,0.1,0.5,0.3,0.8
							c0.1,0.4,0.2,0.7,0.3,0.9c0.1,0.3,0.1,0.5,0,0.8c0,0.3-0.1,0.5-0.3,0.6c-0.2,0.2-0.4,0.3-0.7,0.4c-0.3,0.1-0.5,0.1-0.8,0
							c-0.3-0.1-0.5-0.2-0.8-0.3c-0.3-0.2-0.5-0.4-0.7-0.6c-0.3-0.3-0.5-0.6-0.7-1c-0.1-0.4-0.2-0.7-0.2-1c0-0.3,0.2-0.6,0.4-0.8
							c0.2-0.2,0.4-0.3,0.7-0.4c0.3-0.1,0.5,0,0.8,0.1c0.3,0.1,0.5,0.3,0.7,0.5c0.1,0.1,0.2,0.3,0.3,0.5c0.1,0.2,0.1,0.4,0.1,0.6
							c0,0.2-0.1,0.3-0.2,0.4c-0.1,0.1-0.3,0.2-0.4,0.2c-0.2,0-0.3-0.1-0.5-0.2c0,0-0.1-0.1-0.1-0.2l0.1-0.1c0.2,0.2,0.4,0.2,0.6,0
							c0.1-0.1,0.1-0.2,0.1-0.3c0-0.1,0-0.3,0-0.4c0-0.1-0.1-0.3-0.2-0.4c-0.2-0.2-0.3-0.3-0.6-0.3c-0.2-0.1-0.4-0.1-0.6,0
							c-0.2,0.1-0.4,0.1-0.5,0.3c-0.2,0.2-0.3,0.4-0.4,0.7c-0.1,0.3-0.1,0.6,0,0.9c0.1,0.3,0.3,0.6,0.5,0.9c0.2,0.3,0.5,0.4,0.8,0.6
							c0.3,0.1,0.6,0.2,0.9,0.2c0.3,0,0.5-0.1,0.7-0.3c0.2-0.2,0.2-0.3,0.3-0.6c0-0.2,0-0.4-0.1-0.7c-0.1-0.2-0.1-0.5-0.3-0.9
							c-0.1-0.3-0.2-0.6-0.2-0.8c-0.1-0.2-0.1-0.4,0-0.6c0-0.2,0.1-0.4,0.3-0.5c0.2-0.2,0.5-0.3,0.8-0.2c0.3,0.1,0.6,0.2,0.9,0.5
							c0.1,0.1,0.2,0.3,0.4,0.6l0.2-0.2L122,121.1L122,121.1z M121.1,129l-0.3,0.2l0.1,0.1l1.5-1.1l-0.1-0.1l-0.3,0.2
							c-0.2,0.1-0.4,0.2-0.6,0.2c-0.2,0-0.4-0.1-0.6-0.2c-0.2-0.3-0.5-0.6-0.7-0.9l2.8-2c0.1,0.2,0.2,0.3,0.2,0.4
							c0.1,0.2,0,0.3-0.1,0.4c-0.1,0.1-0.3,0.3-0.4,0.4l0.1,0.1l1.6-1.1l-0.1-0.1l-0.6,0.5l-0.5-0.7l1-0.7l0.1,0.2
							c0.3,0.5,0.5,0.8,0.6,1.1c0,0.3-0.1,0.5-0.5,0.8l-0.2,0.2l0.1,0.1l1.4-1l-0.1-0.1l-0.3,0.2l-1.7-2.4l-0.1,0.1
							c0.1,0.2,0.2,0.3,0.2,0.4c0,0.1,0,0.2-0.2,0.3l-3.7,2.6l-0.3-0.5l-0.1,0.1L121.1,129L121.1,129z M126.5,127.6l0.5,1l-0.4,0.2
							c0.6,0.4,1,0.8,1.3,1.4c0.2,0.4,0.3,0.8,0.3,1.3c0,0.5-0.1,0.9-0.2,1.3c-0.2,0.4-0.4,0.7-0.8,0.8c-0.4,0.2-0.8,0.3-1.2,0.2
							c-0.4-0.1-0.8-0.2-1.2-0.5c-0.4-0.3-0.7-0.6-0.9-1.1l0,0c0,0.1,0,0.4,0.1,0.8c0,0.4,0.1,0.7,0.1,1c0.1,0.3,0.1,0.5,0.3,0.8
							c0.1,0.2,0.2,0.3,0.3,0.4l0,0.1c-0.2-0.1-0.4-0.3-0.5-0.5c-0.1-0.2-0.2-0.4-0.3-0.7c-0.1-0.2-0.1-0.5-0.2-0.7
							c0-0.2-0.1-0.5-0.1-0.9c-0.1-0.8-0.1-1.5-0.1-2l-0.6,0.3c-0.1,0.1-0.2,0.1-0.2,0.2c0,0.1,0,0.1,0,0.2c0,0.1,0.1,0.2,0.1,0.3
							c0,0.1,0.1,0.1,0.1,0.2l-0.1,0.1l-0.9-1.7l0.1-0.1l0.2,0.5l4-2.1c0.2-0.1,0.2-0.3,0.1-0.6l0-0.1L126.5,127.6L126.5,127.6z
							 M126.3,129c0.6,0.2,1,0.6,1.3,1.1c0.2,0.4,0.3,0.8,0.3,1.2c0,0.4-0.1,0.8-0.3,1.1c-0.2,0.3-0.4,0.6-0.7,0.8
							c-0.3,0.2-0.6,0.2-1,0.2c-0.3,0-0.7-0.2-1-0.4c-0.3-0.2-0.5-0.5-0.7-0.8c-0.2-0.5-0.3-1.1-0.3-1.8l-0.2,0L126.3,129L126.3,129
							z M125.8,139l-0.3,0.1l0.1,0.2l1.8-0.6l-0.1-0.2l-0.4,0.1c-0.2,0.1-0.4,0.1-0.6,0.1c-0.2,0-0.4-0.2-0.5-0.4
							c-0.1-0.3-0.3-0.7-0.4-1l3.3-1.1c0.1,0.2,0.1,0.3,0.1,0.4c0,0.2-0.1,0.3-0.2,0.4c-0.1,0.1-0.3,0.2-0.5,0.3l0,0.1l1.8-0.6
							l0-0.1l-0.7,0.3l-0.3-0.8l1.2-0.4l0.1,0.2c0.2,0.5,0.3,1,0.2,1.2c0,0.3-0.3,0.5-0.7,0.6l-0.3,0.1l0.1,0.2l1.7-0.6l-0.1-0.2
							l-0.3,0.1l-0.9-2.8l-0.1,0c0.1,0.2,0.1,0.3,0.1,0.4c0,0.1-0.1,0.2-0.2,0.2l-4.3,1.5l-0.2-0.5l-0.1,0L125.8,139L125.8,139z
							 M126.4,140.4l0.1,0.5l4.1-0.8c0.2,0,0.4-0.1,0.5-0.2c0.1-0.1,0.2-0.3,0.1-0.7l0.1,0l0.2,0.9l-3.8,3.1l0,0l3.6-0.7
							c0.1,0,0.3-0.1,0.3-0.2c0.1-0.1,0.1-0.3,0.1-0.5l0.1,0l0.2,1.3l-0.1,0l-0.1-0.4l-5.2,1l0-0.2l3.8-3.2l0,0l-3.3,0.6
							c-0.3,0-0.4,0.1-0.5,0.3c0,0.1,0,0.3,0,0.5l-0.1,0l-0.3-1.4L126.4,140.4L126.4,140.4z M127.5,148.8l3.1-1.5l-0.1-0.8l-2.3-0.5
							c-0.2,0-0.4-0.1-0.6-0.1c-0.1,0-0.2,0-0.3,0.1c0,0.1-0.1,0.2-0.1,0.3c0,0.1,0,0.2,0,0.4l-0.1,0l-0.1-1.7l0.1,0l0,0.4l5.4,1.1
							l0,0.2l-4.1,2c-0.1,0.1-0.3,0.1-0.4,0.2c-0.2,0.1-0.3,0.2-0.4,0.3c-0.1,0.1-0.1,0.3-0.1,0.4l-0.1,0l-0.1-1.5l0.1,0
							L127.5,148.8L127.5,148.8z M130.8,147.2l1-0.4l0,0l-1-0.2L130.8,147.2z"/>
					</g>
					<path class="st5" d="M83.9,187.4L84,187l0.2,0l-0.5,2l-0.2,0c0.1-0.4,0.1-0.6,0.1-0.8c0-0.2-0.1-0.4-0.2-0.5
						c-0.1-0.2-0.3-0.3-0.6-0.5c-0.3-0.1-0.5-0.2-0.8-0.3c-0.6-0.1-1.1-0.1-1.6,0c-0.5,0.1-0.9,0.4-1.2,0.7
						c-0.3,0.3-0.5,0.7-0.6,1.1c-0.1,0.3-0.1,0.7,0,1c0.1,0.3,0.2,0.7,0.4,1c0.2,0.3,0.5,0.6,0.8,0.8c0.3,0.2,0.7,0.4,1.1,0.5
						c0.4,0.1,0.8,0.1,1.2,0.1c0.4-0.1,0.7-0.2,1-0.3l0.1,0.2c-0.4,0.2-0.8,0.3-1.2,0.3c-0.4,0-0.9,0-1.3-0.1
						c-0.6-0.1-1.1-0.4-1.6-0.7c-0.5-0.4-0.8-0.8-1-1.3c-0.2-0.5-0.3-1-0.1-1.4c0.1-0.4,0.3-0.7,0.5-1c0.3-0.3,0.6-0.5,1-0.7
						c0.4-0.2,0.8-0.3,1.3-0.3c0.5,0,0.9,0,1.3,0.1C82.9,186.8,83.4,187.1,83.9,187.4L83.9,187.4z M91,192.9l0.6,0l-0.1-4.6
						c0-0.2-0.1-0.2-0.2-0.3c-0.1,0-0.3-0.1-0.5-0.1l0-0.1l1.7-0.1l0,0.1l-0.6,0l0.1,4.5c0,0.1,0,0.2,0,0.3c0,0.1,0.1,0.1,0.1,0.2
						c0.1,0,0.2,0,0.5,0l0,0.1l-1.7,0.1L91,192.9L91,192.9z M95.5,187.5l0,0.1l-0.6,0.1l0.6,4.9c0.3,0,0.6-0.1,0.8-0.2
						c0.2-0.1,0.4-0.2,0.6-0.3c0.2-0.1,0.2-0.3,0.2-0.6l-0.2-1.3l0.2,0l0.3,2.5l-0.2,0l0-0.3l-2.8,0.4l0-0.1l0.5-0.1l-0.6-4.6
						c0-0.1-0.1-0.2-0.2-0.3c-0.1,0-0.3,0-0.5,0l0-0.1L95.5,187.5L95.5,187.5z M102.3,191.6l-2.9,0.7l0-0.1l0.6-0.1l-1-4.5
						c0-0.2-0.1-0.2-0.2-0.3c-0.1,0-0.3,0-0.5,0l0-0.1l2.9-0.7l-0.1-0.3l0.2,0l0.4,1.7l-0.2,0l-0.1-0.3c-0.1-0.4-0.3-0.7-0.5-0.7
						c-0.2-0.1-0.7,0-1.2,0.1l-0.2,0.1l0.3,1.3l0.8-0.2l-0.2-0.8l0.1,0l0.4,1.9l-0.1,0c-0.1-0.2-0.1-0.4-0.2-0.6
						c-0.1-0.1-0.2-0.2-0.4-0.2c-0.1,0-0.2,0-0.4,0l0.8,3.4c0.4-0.1,0.8-0.2,1.1-0.3c0.2-0.1,0.4-0.3,0.5-0.5c0.1-0.2,0.1-0.4,0-0.6
						l-0.1-0.4l0.2,0l0.4,1.9l-0.2,0L102.3,191.6L102.3,191.6z M88.9,187.9l-0.3,4.6c0,0.1,0,0.3,0.1,0.3c0.1,0.1,0.2,0.1,0.4,0.1
						c0,0,0.1,0,0.2,0l0,0.1l-1.7-0.1l0-0.1l0.6,0l0.3-3.5l-2-0.1l-0.2,3.1c0,0.2,0,0.3,0.1,0.4c0.1,0,0.2,0.1,0.5,0.1l0,0.1
						l-1.7-0.1l0-0.1l0.6,0l0.3-4.6c0-0.2-0.1-0.4-0.5-0.4l-0.1,0l0-0.1l1.7,0.1l0,0.1l-0.5,0l-0.1,1.3l2,0.1l0.1-0.9
						c0-0.1,0-0.2-0.1-0.3c-0.1-0.1-0.2-0.1-0.4-0.1l-0.1,0l0-0.1l1.7,0.1l0,0.1L88.9,187.9z"/>
				</g>
			</g>
		</g>
	</g>
	
		<rect x="322" y="79.5" transform="matrix(6.123234e-17 -1 1 6.123234e-17 251.8958 551.8976)" class="st7" width="159.8" height="141"/>
	<line class="st8" x1="401.9" y1="70.1" x2="401.9" y2="229.9"/>
</g>
</svg>
