<?xml version="1.0" encoding="utf-8"?>
<!-- Generator: Adobe Illustrator 28.1.0, SVG Export Plug-In . SVG Version: 6.00 Build 0)  -->
<svg version="1.1" id="Capa_1" xmlns="http://www.w3.org/2000/svg" xmlns:xlink="http://www.w3.org/1999/xlink" x="0px" y="0px"
	 viewBox="0 0 787 725" style="enable-background:new 0 0 787 725;" xml:space="preserve">
<style type="text/css">
	.st0{fill:#1A171B;}
	.st1{fill:#233771;}
</style>
<g>
	<g>
		<g>
			<path d="M3.5,675.63c2.65-0.49,6.54-0.81,10.97-0.81c5.4,0,9.18,0.81,11.78,2.92c2.21,1.73,3.4,4.27,3.4,7.62
				c0,4.59-3.29,7.78-6.43,8.91v0.16c2.54,1.03,3.94,3.4,4.86,6.75c1.13,4.16,2.21,8.91,2.92,10.32h-8.43
				c-0.54-1.08-1.46-4-2.48-8.48c-1.03-4.59-2.59-5.78-6-5.83h-2.43v14.31H3.5V675.63z M11.65,691.24h3.24
				c4.11,0,6.54-2.05,6.54-5.24c0-3.29-2.27-5.02-6.05-5.02c-2,0-3.13,0.11-3.73,0.27V691.24z"/>
			<path d="M68.8,696.1h-13.4v8.64h14.96v6.75H47.2v-36.41h22.42v6.75H55.41v7.56h13.4V696.1z"/>
			<path d="M118.01,709.82c-2.54,0.86-7.35,2.05-12.15,2.05c-6.64,0-11.45-1.67-14.8-4.86c-3.29-3.19-5.13-7.94-5.13-13.29
				c0.05-12.1,8.86-19.01,20.8-19.01c4.7,0,8.32,0.92,10.1,1.73l-1.73,6.64c-2-0.92-4.43-1.57-8.43-1.57
				c-6.86,0-12.1,3.89-12.1,11.78c0,7.56,4.75,11.94,11.5,11.94c1.84,0,3.35-0.22,4-0.49v-7.67h-5.62v-6.43h13.56V709.82z"/>
			<path d="M144.32,675.09v36.41h-8.21v-36.41H144.32z"/>
			<path d="M178.51,712.09c-10.75,0-17.12-8.16-17.12-18.53c0-10.91,7.02-19.07,17.72-19.07c11.18,0,17.29,8.37,17.29,18.42
				c0,11.99-7.18,19.18-17.83,19.18H178.51z M178.94,705.55c5.56,0,8.75-5.24,8.75-12.37c0-6.54-3.08-12.15-8.75-12.15
				c-5.67,0-8.86,5.51-8.86,12.32c0,6.86,3.29,12.21,8.8,12.21H178.94z M188.29,666.45l-6.59,6.64h-6.59l4.54-6.64H188.29z"/>
			<path d="M213.41,711.5v-36.41h9.61l7.56,13.34c2.16,3.83,4.27,8.37,5.94,12.48h0.11c-0.49-4.81-0.65-9.72-0.65-15.23v-10.59h7.56
				v36.41h-8.64l-7.78-14.04c-2.16-3.94-4.59-8.59-6.32-12.86h-0.22c0.27,4.86,0.38,9.99,0.38,15.94v10.96H213.41z"/>
			<path d="M305.94,675.63c3.02-0.54,6.97-0.81,11.07-0.81c6.97,0,11.5,1.3,14.96,3.89c3.78,2.81,6.16,7.24,6.16,13.72
				c0,6.97-2.54,11.78-6,14.75c-3.83,3.19-9.72,4.7-16.85,4.7c-4.27,0-7.35-0.27-9.34-0.54V675.63z M314.15,705.28
				c0.7,0.16,1.89,0.16,2.86,0.16c7.51,0.05,12.42-4.05,12.42-12.75c0-7.56-4.43-11.56-11.56-11.56c-1.78,0-3.03,0.16-3.73,0.32
				V705.28z"/>
			<path d="M374.16,696.1h-13.4v8.64h14.96v6.75h-23.17v-36.41h22.42v6.75h-14.21v7.56h13.4V696.1z"/>
			<path d="M460.64,710.47c-1.46,0.7-4.92,1.57-9.29,1.57c-12.59,0-19.07-7.89-19.07-18.26c0-12.37,8.86-19.23,19.88-19.23
				c4.27,0,7.51,0.86,8.97,1.57l-1.73,6.54c-1.62-0.7-3.94-1.35-6.91-1.35c-6.48,0-11.56,3.94-11.56,12.05
				c0,7.24,4.32,11.83,11.61,11.83c2.54,0,5.24-0.49,6.91-1.19L460.64,710.47z"/>
			<path d="M491.27,712.09c-10.75,0-17.12-8.16-17.12-18.53c0-10.91,7.02-19.07,17.72-19.07c11.18,0,17.29,8.37,17.29,18.42
				c0,11.99-7.18,19.18-17.83,19.18H491.27z M491.7,705.55c5.56,0,8.75-5.24,8.75-12.37c0-6.54-3.08-12.15-8.75-12.15
				c-5.67,0-8.86,5.51-8.86,12.32c0,6.86,3.29,12.21,8.8,12.21H491.7z"/>
			<path d="M557.06,717.76c-5.19-1.51-9.51-3.08-14.42-5.13c-0.81-0.32-1.67-0.49-2.49-0.54c-8.26-0.54-15.93-6.59-15.93-18.47
				c0-10.97,6.91-19.12,17.83-19.12c11.07,0,17.18,8.43,17.18,18.37c0,8.26-3.83,14.1-8.59,16.26v0.22
				c2.75,0.81,5.89,1.51,8.75,2.05L557.06,717.76z M541.78,705.55c5.56,0,8.75-5.24,8.75-12.37c0-6.64-3.13-12.15-8.75-12.15
				c-5.62,0-8.86,5.46-8.86,12.32c0,6.97,3.29,12.21,8.8,12.21H541.78z"/>
			<path d="M584.18,675.09v20.9c0,6.32,2.43,9.51,6.59,9.51c4.32,0,6.7-3.02,6.7-9.51v-20.9h8.21v20.42
				c0,11.23-5.67,16.58-15.18,16.58c-9.18,0-14.53-5.13-14.53-16.69v-20.31H584.18z"/>
			<path d="M632.42,675.09v36.41h-8.21v-36.41H632.42z"/>
			<path d="M681.68,697.56c-0.16-4.38-0.32-9.61-0.32-14.96h-0.11c-1.19,4.65-2.7,9.83-4.1,14.1l-4.43,14.21h-6.43l-3.89-14.1
				c-1.19-4.27-2.38-9.4-3.29-14.21h-0.11c-0.16,4.92-0.38,10.53-0.59,15.07l-0.7,13.83h-7.62l2.32-36.41h10.97l3.56,12.15
				c1.19,4.21,2.27,8.75,3.08,13.02h0.22c0.97-4.21,2.21-9.02,3.46-13.07l3.83-12.1h10.8l1.94,36.41h-7.99L681.68,697.56z"/>
			<path d="M707.93,675.63c2.16-0.43,6.48-0.81,10.64-0.81c5.02,0,8.1,0.49,10.75,2.05c2.54,1.35,4.32,3.83,4.32,7.18
				c0,3.19-1.89,6.16-5.94,7.72v0.11c4.16,1.08,7.24,4.27,7.24,8.97c0,3.35-1.51,5.94-3.78,7.72c-2.65,2.11-7.08,3.29-14.31,3.29
				c-4.05,0-7.08-0.27-8.91-0.54V675.63z M716.09,689.51h2.7c4.38,0,6.64-1.78,6.64-4.48c0-2.75-2.11-4.21-5.83-4.21
				c-1.84,0-2.86,0.11-3.51,0.27V689.51z M716.09,705.66c0.81,0.16,1.78,0.16,3.19,0.16c3.73,0,7.02-1.46,7.02-5.29
				c0-3.67-3.29-5.13-7.4-5.13h-2.81V705.66z"/>
			<path d="M767.35,712.09c-10.75,0-17.12-8.16-17.12-18.53c0-10.91,7.02-19.07,17.72-19.07c11.18,0,17.29,8.37,17.29,18.42
				c0,11.99-7.18,19.18-17.83,19.18H767.35z M767.78,705.55c5.56,0,8.75-5.24,8.75-12.37c0-6.54-3.08-12.15-8.75-12.15
				c-5.67,0-8.86,5.51-8.86,12.32c0,6.86,3.29,12.21,8.8,12.21H767.78z"/>
		</g>
		<g>
			<path class="st0" d="M458.25,640.27c-15.76,0-31.53-0.12-47.29,0.09c-3.83,0.05-4.85-1.14-4.83-4.87
				c0.14-26.59,0.17-53.17-0.02-79.76c-0.03-4.25,1.5-5.01,5.31-5c30.71,0.13,61.42,0.19,92.12-0.04c4.9-0.04,6.32,1.32,6.13,6.16
				c-0.48,11.95,1.38,10.13-9.99,10.2c-17.4,0.1-34.8,0.17-52.2-0.07c-4.52-0.06-5.98,1.13-5.9,5.82
				c0.22,12.76-0.01,12.76,12.87,12.76c15.35,0,30.71,0.14,46.06-0.09c4.32-0.07,6.19,0.73,6.11,5.63
				c-0.19,11.29,0.08,11.29-11.16,11.29c-15.97,0-31.94,0.23-47.9-0.13c-5.09-0.12-6.03,1.61-5.97,6.23
				c0.2,15.15,0.03,15.15,15.38,15.15c15.97,0,31.94,0.14,47.9-0.09c4.37-0.06,6.13,0.8,6.03,5.66
				c-0.23,11.06,0.04,11.07-10.89,11.07C486.09,640.27,472.17,640.27,458.25,640.27z"/>
			<path class="st0" d="M731.01,640.27c-15.77,0-31.53-0.13-47.3,0.09c-3.82,0.05-4.82-1.01-4.8-4.77
				c0.15-26.79,0.14-53.59,0.01-80.39c-0.02-3.45,0.91-4.49,4.44-4.47c31.33,0.13,62.66,0.15,93.98-0.01
				c4.18-0.02,5.09,1.38,5.07,5.28c-0.06,11.08,0.11,11.09-10.91,11.09c-17.2,0-34.4,0.12-51.6-0.08c-3.87-0.04-5.57,1.89-5.56,5.61
				c0.06,12.96-0.12,12.96,12.73,12.96c15.56,0,31.13,0.16,46.68-0.1c4.44-0.07,5.48,1.43,5.45,5.6
				c-0.08,11.34,0.1,11.34-10.96,11.34c-15.77,0-31.54,0.28-47.29-0.15c-2.45-0.07-5.43,0.13-6.43,2.76
				c-0.6,1.58-0.13,3.39-0.04,5.01c0.13,2.28,0.12,4.58-0.09,6.86c-0.09,0.97-0.22,1.96-0.1,2.93c0.46,3.76,4.59,4.11,7.6,4.02
				c18.62-0.52,37.26-0.03,55.89-0.29c4.75-0.07,6.37,1.1,6.24,6.06c-0.29,10.67-0.02,10.68-10.63,10.68
				C759.27,640.27,745.14,640.27,731.01,640.27z"/>
			<path class="st0" d="M133.41,555.24c1.84,0.37,3.75,0.85,4.96,1.8c1.75,1.37,1.84,4.09,1.84,6.09
				c-0.31,14.04-0.04,14.02-13.82,10.13c-18.82-5.3-37.88-6.57-57.11-2.78c-8.08,1.59-15.75,4.46-22.06,10.1
				c-10.39,9.26-10.38,21.07,0.35,29.94c11.33,9.35,25.03,11.34,39.14,11.98c16.63,0.75,32.5-2.98,48.22-7.77
				c6.73-2.05,6.72-2.07,6.73,5.21c0.02,13.19,0.03,13.24-12.73,16.26c-30.25,7.16-60.42,7.87-90.24-1.98
				c-12.21-4.03-23.23-10.22-30.48-21.49c-7.77-12.07-6.83-25.86,2.37-36.95c7.43-8.95,17.17-14.5,27.84-18.39
				c22.83-8.33,48.76-9.76,72.71-6.46c6.44,0.89,12.84,2.12,19.15,3.69C131.19,554.83,132.29,555.01,133.41,555.24z"/>
			<path class="st0" d="M171.09,595.43c0-13.28,0.12-26.56-0.08-39.84c-0.05-3.63,0.76-5.03,4.71-4.88
				c8.58,0.31,17.18,0.24,25.76,0.03c3.62-0.09,5.02,0.86,5,4.75c-0.14,26.76-0.12,53.53-0.02,80.29c0.01,3.41-1.04,4.65-4.56,4.56
				c-8.79-0.21-17.59-0.23-26.38,0.01c-3.5,0.09-4.55-0.99-4.51-4.46C171.19,622.4,171.09,608.91,171.09,595.43z"/>
			<path class="st0" d="M371.05,573.13c-12.15-13.77-28.74-18.64-45.93-20.79c-27.49-3.44-55.21-0.87-82.83-1.58
				c-3.88-0.1-3.62,2.2-3.61,4.75c0.03,13.3,0.01,26.59,0.01,39.89c0,13.3-0.02,26.59,0.02,39.89c0.01,2.31-0.76,5.12,3.32,5.01
				c28.21-0.75,56.53,1.91,84.64-2.17c14.48-2.1,28.47-5.92,40.18-15.4C382.39,610.13,384.3,588.14,371.05,573.13z M332.78,614.81
				c-8.12,5.82-17.5,7.86-27.15,8.47c-8.97,0.56-17.99,0.16-26.98,0.43c-3.54,0.1-4.59-1.24-4.5-4.64
				c0.19-7.96,0.06-15.93,0.06-23.9c0-7.76,0.12-15.53-0.06-23.29c-0.07-3.3,0.84-4.91,4.43-4.82c12.45,0.29,24.94-0.74,37.28,1.97
				c7.5,1.65,14.57,4.07,20.12,9.63C346.68,589.37,345.16,605.94,332.78,614.81z"/>
			<path class="st0" d="M625.97,598.27c4.4-2.22,8.39-3.86,12.01-6.11c12.81-7.99,13.22-22.41,1.03-31.3
				c-9.62-7.02-20.69-9.81-32.32-9.96c-21.5-0.28-43.02-0.02-64.52-0.15c-3.33-0.02-4.61,0.68-4.59,4.34
				c0.15,27.01,0.15,54.02,0,81.03c-0.02,3.78,1.54,4.28,4.72,4.22c8.6-0.17,17.21-0.29,25.8,0.04c4.25,0.16,5.18-1.45,5.09-5.3
				c-0.22-8.79-0.05-17.6-0.08-26.4c-0.01-2.57-0.14-4.74,3.6-4.97c5.85-0.36,11.78,0.11,17.15,2.54
				c8.99,4.07,15.78,13.54,21.71,20.9c3.36,4.16,5.32,7.67,9.18,11.36c0.71,0.68,1.47,1.48,2.45,1.76c1.28,0.36,3.2,0,4.52,0
				c6.23,0,12.45,0,18.68,0c4.21,0,8.43,0,12.64,0c0.01,0,0.07-0.01,0.07,0c0,0-2.81-3.98-3.57-4.96c-1.74-2.24-3.84-4.24-5.48-6.55
				c-2.7-3.8-5.34-7.63-8.15-11.35C640.33,609.99,633.98,603.11,625.97,598.27z M604.01,585.42c-5.65,2.47-11.63,1.98-17.55,1.97
				c-13.4,0.01-13.12,0-13.49-13.6c-0.15-5.47,1.45-7.26,6.87-6.81c7.91,0.66,15.97-0.9,23.75,1.86c4.13,1.46,7.57,3.45,7.58,8.4
				C611.17,581.93,607.7,583.81,604.01,585.42z"/>
		</g>
	</g>
	<path class="st1" d="M616.36,337.44c1.91,0.7,11.44-31.89,12.13-34.55c18.65-72.12-1.77-153.02-48.45-210.28
		C536.21,38.84,470.18,5.32,400.71,3.12C398.19,3.04,395.66,3,393.14,3C259.76,3,151.65,111.83,151.65,246.08
		s108.12,243.08,241.49,243.08c65.33,0,124.59-26.13,168.07-68.55c-4.69-3.22-62.57-42.96-103.36-68.44l-48.82,67.09
		c-20.27-12.22-112.28-70.63-132.66-180.32c-6.66-35.85-3.88-67.55,0.79-91.35c17.88-6.74,38.34-12.32,61.17-15.09
		c109.47-13.29,196.31,47.37,226.4,70.7c-16.68,23.04-33.36,46.07-50.05,69.11C576.14,311.65,615.68,336.98,616.36,337.44z"/>
</g>
</svg>
