<?xml version="1.0" encoding="utf-8"?>
<!-- Generator: Adobe Illustrator 27.9.0, SVG Export Plug-In . SVG Version: 6.00 Build 0)  -->
<svg version="1.1" id="Capa_1" xmlns="http://www.w3.org/2000/svg" xmlns:xlink="http://www.w3.org/1999/xlink" x="0px" y="0px"
	 viewBox="0 0 1350 290" enable-background="new 0 0 1350 290" xml:space="preserve">
<rect x="0.25" fill="none" width="1349.5" height="290"/>
<g>
	<g>
		<g>
			<g>
				<path fill="#FFFFFF" d="M349.1,157.15h-15.74V66.64h15.74V157.15z M409.4,103.77V66.64h15.74v90.52H409.4v-37.64h-53.25v-15.74
					h53.25V103.77z"/>
				<path fill="#FFFFFF" d="M520.46,131.72H477.5l9.59-15.74h23.97l-15.75-26.07l-40.85,67.11H434.2l49.1-81.83
					c1.59-2.6,3.65-4.74,6.17-6.42c2.18-1.51,4.11-2.31,5.79-2.39c1.85-0.17,3.9,0.46,6.17,1.89c2.6,1.68,4.78,3.99,6.55,6.92
					l48.09,81.83h-20.3L520.46,131.72z"/>
				<path fill="#FFFFFF" d="M605.91,157.15c-14.1,0-25.43-4.83-33.99-14.48c-7.72-8.81-11.58-19.39-11.58-31.72
					c0-12.17,3.69-22.32,11.08-30.47c8.39-9.23,19.89-13.85,34.49-13.85h50.99v15.74h-50.99c-9.06,0-16.41,2.98-22.03,8.94
					c-4.95,5.29-7.6,11.83-7.93,19.64c-0.25,8.23,2.1,15.19,7.05,20.9c5.54,6.38,13.18,9.57,22.91,9.57h50.99v15.74L605.91,157.15
					L605.91,157.15z"/>
				<path fill="#FFFFFF" d="M686.61,157.15h-15.74V66.64h15.74V157.15z M739.1,157.15h23.29l-54.01-44.31l54.01-46.2H739.1
					l-44.94,38.52c-3.02,2.6-4.53,5.04-4.53,7.3c0,2.18,1.51,4.58,4.53,7.18L739.1,157.15z"/>
				<path fill="#FFFFFF" d="M851.8,131.72h-42.95l9.59-15.74h23.97l-15.75-26.07l-40.85,67.11h-20.26l49.1-81.83
					c1.59-2.6,3.65-4.74,6.17-6.42c2.18-1.51,4.11-2.31,5.79-2.39c1.85-0.17,3.9,0.46,6.17,1.89c2.6,1.68,4.78,3.99,6.55,6.92
					l48.09,81.83h-20.3L851.8,131.72z"/>
				<path fill="#FFFFFF" d="M939.65,82.37v74.78h-15.74V82.37h-35.75V66.64h87.12v15.74L939.65,82.37L939.65,82.37z"/>
				<path fill="#FFFFFF" d="M1000.83,157.15h-15.74V66.64h15.74V157.15z M1061.13,103.77V66.64h15.74v90.52h-15.74v-37.64h-53.25
					v-15.74h53.25V103.77z"/>
				<path fill="#FFFFFF" d="M1292.14,152.62l-58.03-58.34v62.87h-15.74V74.57c0-2.43,0.63-4.36,1.89-5.79s2.9-2.14,4.91-2.14
					c2.94,0,5.92,1.55,8.94,4.66l58.03,58.16V66.64h15.74v82.71c0,5.79-1.97,8.69-5.92,8.69
					C1299.02,158.03,1295.74,156.23,1292.14,152.62z"/>
				<g>
					<path fill="#FFFFFF" d="M1133.11,19.82l6-3.96c1.01-0.67,1.29-2.03,0.62-3.04l-3.96-6c-0.67-1.01-2.03-1.29-3.04-0.62l-6,3.96
						c-1.01,0.67-1.29,2.03-0.62,3.04l3.96,6C1130.74,20.21,1132.1,20.49,1133.11,19.82z"/>
					<path fill="#FFFFFF" d="M1194.92,139.19c8.14-10.73,12.76-24.17,12.28-37.64c-0.81-22.75-16.13-44.34-37.35-52.61
						c-0.43-0.17-0.88-0.33-1.34-0.43l-14.27,9.4c18.11,2.29,34.2,16.34,38.84,34c4.71,17.85-2.58,38.24-17.52,49.08
						c-14.94,10.84-36.59,11.42-52.09,1.41c-15.51-10.02-23.88-29.98-20.15-48.06c3.68-17.82,18.89-32.67,36.77-36.02l-7.5-11.37
						c-1.41,0.33-4.69,1.71-5.15,1.89c-1.97,0.77-3.89,1.66-5.76,2.64c-3.75,1.97-7.29,4.35-10.54,7.06
						c-6.49,5.43-11.88,12.21-15.57,19.83c-7.01,14.46-7.22,31.49-1.52,46.42c3.33,8.74,8.68,16.74,15.72,22.93
						c17.1,15.03,43.32,18.7,63.9,8.95C1182.07,152.7,1189.32,146.59,1194.92,139.19z"/>
					<path fill="#FFFFFF" d="M1179.82,120.91c0.12-0.21,0.23-0.42,0.34-0.64c4.89-9.4,5.85-21.28,1.02-30.89
						c-1.83-3.87-4-7.64-7-10.71c-2.64-2.67-5.69-5-9.07-6.67c-0.97-0.48-1.97-0.91-2.99-1.27l3.11,4.72
						c0.44,0.67,0.26,1.58-0.42,2.02l-13.72,9.04c-0.67,0.44-1.58,0.26-2.02-0.42l-11.01-16.7c0,0-3.5,0.75-7.97,3.5
						c-0.01,0-0.01,0.01-0.01,0.01c-1.61,1-3.35,2.25-5.1,3.83c-0.29,0.26-0.59,0.53-0.88,0.81l6.85,10.4
						c0.22,0.33,0.12,0.77-0.2,0.98l-9.07,5.98c-0.33,0.22-0.77,0.12-0.98-0.2l-4.5-6.84c-1.11,2.64-2.01,5.35-2.64,8.12
						c-0.51,2.26-0.85,4.55-0.97,6.88c-0.01,9.48,3.49,18.86,10.37,25.56c7.82,7.61,17.54,11.79,28.7,10.62
						c5.86-0.61,11.88-2.84,17.04-6.27C1173.36,129.72,1177.31,125.66,1179.82,120.91z M1145.21,103.9
						c-0.5,0.33-1.18,0.19-1.51-0.31l-5.24-7.95c-0.33-0.5-0.19-1.17,0.31-1.51l7.96-5.24c0.5-0.33,1.17-0.19,1.51,0.31l5.24,7.95
						c0.33,0.5,0.19,1.18-0.31,1.51L1145.21,103.9z"/>
					<path fill="#FFFFFF" d="M1148.25,55.45l14.43-9.51c1.01-0.67,1.29-2.03,0.62-3.04l-9.51-14.43c-0.67-1.01-2.03-1.29-3.04-0.62
						l-14.43,9.51c-1.01,0.67-1.29,2.03-0.62,3.04l9.51,14.43C1145.88,55.84,1147.24,56.12,1148.25,55.45z"/>
					<path fill="#FFFFFF" d="M1126.46,31.43l-6.64-10.07c-0.67-1.01-2.03-1.29-3.04-0.62l-10.07,6.64
						c-1.01,0.67-1.29,2.03-0.62,3.04l6.64,10.07c0.67,1.01,2.03,1.29,3.04,0.62l10.07-6.64
						C1126.85,33.8,1127.13,32.44,1126.46,31.43z"/>
				</g>
			</g>
		</g>
		<g>
			<g>
				<path fill="#FFFFFF" d="M336.46,247.24v-6.46h23.76c4.07,0,6.92-1.68,6.92-4.89c0-3.05-1.98-4.73-5.6-4.73h-16.33v-5.44h15.88
					c3.66,0,5.39-1.27,5.39-4.48c0-3.41-2.39-4.58-6.67-4.58h-23.2v-6.41h24.48c7.18,0,11.91,3.26,11.91,9.57
					c0,4.68-2.34,7.02-5.09,7.89c3.36,1.07,5.8,4.02,5.8,8.35c0,6.72-4.68,11.19-11.91,11.19h-25.34V247.24z"/>
				<path fill="#FFFFFF" d="M378.33,228.37c0-10.84,8.35-18.57,19.18-18.57c10.79,0,19.18,7.74,19.18,18.57
					c0,10.79-8.4,19.34-19.18,19.34C386.68,247.7,378.33,239.15,378.33,228.37z M397.52,216.31c-8.14,0-12.72,5.24-12.72,12.37
					c0,7.12,4.58,12.57,12.67,12.57c8.14,0,12.72-5.44,12.72-12.57C410.19,221.55,405.56,216.31,397.52,216.31z"/>
				<path fill="#FFFFFF" d="M443.01,220.17v27.07h-6.16v-33.59c0-2.39,1.27-3.87,3.31-3.87c0.97,0,1.78,0.36,2.75,1.32l26.11,25.9
					v-27.07h6.16v33.89c0,2.44-1.32,3.87-3.21,3.87c-1.07,0-2.04-0.46-2.95-1.37L443.01,220.17z"/>
				<path fill="#FFFFFF" d="M498.32,247.24c-10.33,0-17.96-8.14-17.96-18.88c0-10.89,7.63-18.12,17.96-18.12h9.01
					c10.69,0,18.12,7.38,18.12,18.12s-7.58,18.88-18.12,18.88H498.32z M507.33,240.78c6.82,0,11.65-5.14,11.65-12.11
					s-4.83-11.96-11.65-11.96h-9.01c-6.61,0-11.5,4.94-11.5,11.96c0,6.97,4.83,12.11,11.5,12.11H507.33z"/>
				<path fill="#FFFFFF" d="M523.25,210.25h7.89l16.79,28.5l16.74-28.5h7.43l-21.32,35.42c-0.76,1.27-1.78,2.09-3.1,2.09
					c-1.43,0-2.39-0.81-3.15-2.09L523.25,210.25z"/>
				<path fill="#FFFFFF" d="M576.43,247.24v-36.99h6.46v36.99H576.43z"/>
				<path fill="#FFFFFF" d="M589.66,247.24v-36.99h33.03v6.46h-26.61v24.07h26.67v6.46H589.66z M600.8,231.16v-5.44h20.51v5.44
					H600.8z"/>
				<path fill="#FFFFFF" d="M674.33,247.24l-7.07-26l-10.48,24.07c-0.71,1.58-1.73,2.44-3.31,2.44c-1.53,0-2.65-0.86-3.31-2.44
					l-10.43-24.07l-7.07,26h-6.36l9.52-34.81c0.46-1.78,1.48-2.65,3.21-2.65c1.37,0,2.65,0.76,3.26,2.19l11.4,26.16l11.4-26.16
					c0.61-1.42,1.73-2.19,3.1-2.19c1.58,0,2.6,0.87,3.1,2.65l9.46,34.81L674.33,247.24L674.33,247.24z"/>
				<path fill="#FFFFFF" d="M684.96,247.24v-36.99h27.07c7.23,0,12.01,3.26,12.01,9.57c0,4.68-2.39,7.02-5.14,7.89
					c3.36,1.07,5.8,4.02,5.8,8.35c0,6.77-4.68,11.19-11.91,11.19h-27.83V247.24z M696.11,231.16v-5.44h15.98
					c3.66,0,5.39-1.27,5.39-4.48c0-3.92-3.1-4.53-7.89-4.53h-18.17v24.12h18.73c4.63,0,7.99-1.27,7.99-4.88
					c0-3.05-1.98-4.78-5.6-4.78L696.11,231.16L696.11,231.16z"/>
				<path fill="#FFFFFF" d="M764.7,247.24l-9.36-10.28H741.5v-5.7h15.42c4.63,0,7.07-2.65,7.07-7.43s-2.65-7.12-7.07-7.12h-20.15
					v30.53h-6.41v-36.99h26.56c8.45,0,13.43,5.24,13.43,13.48c0,6.11-2.85,10.43-7.63,12.26l11.14,11.25H764.7z"/>
				<path fill="#FFFFFF" d="M777.21,247.24v-36.99h33.03v6.46h-26.61v24.07h26.67v6.46H777.21z M788.36,231.16v-5.44h20.51v5.44
					H788.36z"/>
				<path fill="#FFFFFF" d="M847.89,247.24V233.2l-19.64-22.95h8.7l14.4,17.05l14.45-17.05h8.24l-19.69,22.95v14.04L847.89,247.24
					L847.89,247.24z"/>
				<path fill="#FFFFFF" d="M891.8,228.37c0-10.84,8.35-18.57,19.18-18.57c10.79,0,19.18,7.74,19.18,18.57
					c0,10.79-8.4,19.34-19.18,19.34C900.15,247.7,891.8,239.15,891.8,228.37z M910.99,216.31c-8.14,0-12.72,5.24-12.72,12.37
					c0,7.12,4.58,12.57,12.67,12.57c8.14,0,12.72-5.44,12.72-12.57C923.66,221.55,919.03,216.31,910.99,216.31z"/>
				<path fill="#FFFFFF" d="M942.28,247.24v-24.88c0-3.66-1.83-5.65-5.19-5.65h-3.56v-6.46h3.56c7.43,0,11.6,4.48,11.6,12.11v24.88
					H942.28z"/>
				<path fill="#FFFFFF" d="M970.06,247.24v-36.99h21.42c10.43,0,18.01,7.38,18.01,18.12s-7.58,18.88-18.01,18.88L970.06,247.24
					L970.06,247.24z M991.49,240.78c6.67,0,11.55-5.14,11.55-12.11s-4.88-11.96-11.55-11.96h-15.01v24.07H991.49z"/>
				<path fill="#FFFFFF" d="M1015.15,247.24v-36.99h6.46v36.99H1015.15z"/>
				<path fill="#FFFFFF" d="M1045.27,247.24c-10.33,0-17.96-8.14-17.96-18.88c0-10.89,7.63-18.12,17.96-18.12h20.05v6.46h-20.05
					c-6.61,0-11.5,4.94-11.5,11.96c0,6.97,4.84,12.11,11.5,12.11h20.05v6.46L1045.27,247.24L1045.27,247.24z"/>
				<path fill="#FFFFFF" d="M1070.91,247.24v-36.99h6.46v36.99H1070.91z"/>
				<path fill="#FFFFFF" d="M1084.14,247.24v-36.99h33.03v6.46h-26.61v24.07h26.67v6.46H1084.14z M1095.29,231.16v-5.44h20.51v5.44
					H1095.29z"/>
				<path fill="#FFFFFF" d="M1168.82,247.24l-7.07-26l-10.48,24.07c-0.71,1.58-1.73,2.44-3.31,2.44c-1.53,0-2.65-0.86-3.31-2.44
					l-10.43-24.07l-7.07,26h-6.36l9.52-34.81c0.46-1.78,1.48-2.65,3.21-2.65c1.37,0,2.65,0.76,3.26,2.19l11.4,26.16l11.4-26.16
					c0.61-1.42,1.73-2.19,3.1-2.19c1.58,0,2.59,0.87,3.1,2.65l9.47,34.81L1168.82,247.24L1168.82,247.24z"/>
				<path fill="#FFFFFF" d="M1179.45,247.24v-36.99h27.07c7.23,0,12.01,3.26,12.01,9.57c0,4.68-2.39,7.02-5.14,7.89
					c3.36,1.07,5.8,4.02,5.8,8.35c0,6.77-4.68,11.19-11.91,11.19h-27.83V247.24z M1190.59,231.16v-5.44h15.98
					c3.66,0,5.39-1.27,5.39-4.48c0-3.92-3.1-4.53-7.89-4.53h-18.17v24.12h18.73c4.63,0,7.99-1.27,7.99-4.88
					c0-3.05-1.98-4.78-5.6-4.78L1190.59,231.16L1190.59,231.16z"/>
				<path fill="#FFFFFF" d="M1259.19,247.24l-9.36-10.28h-13.84v-5.7h15.42c4.63,0,7.07-2.65,7.07-7.43s-2.65-7.12-7.07-7.12h-20.15
					v30.53h-6.41v-36.99h26.56c8.45,0,13.43,5.24,13.43,13.48c0,6.11-2.85,10.43-7.63,12.26l11.14,11.25H1259.19z"/>
				<path fill="#FFFFFF" d="M1271.7,247.24v-36.99h33.03v6.46h-26.61v24.07h26.67v6.46H1271.7z M1282.85,231.16v-5.44h20.51v5.44
					H1282.85z"/>
				<path fill="#FFFFFF" d="M771.94,283.88v-6.5c0-4.31,2.38-6.41,6.84-6.41h8.03c1.68,0,2.81-1.01,2.81-2.69s-1.07-2.72-2.81-2.72
					h-14.68v-3.88h14.68c4.4,0,6.81,2.66,6.81,6.23c0,3.66-2.56,6.32-6.78,6.32h-8.06c-2.08,0-3.18,0.98-3.18,2.87v2.9h17.65v3.88
					H771.94z"/>
				<path fill="#FFFFFF" d="M796.48,272.56c0-6.5,5.01-11.14,11.51-11.14c6.47,0,11.51,4.64,11.51,11.14
					c0,6.47-5.04,11.6-11.51,11.6C801.49,284.16,796.48,279.03,796.48,272.56z M807.99,265.32c-4.88,0-7.63,3.14-7.63,7.42
					c0,4.27,2.75,7.54,7.6,7.54c4.88,0,7.63-3.27,7.63-7.54C815.59,268.46,812.82,265.32,807.99,265.32z"/>
				<path fill="#FFFFFF" d="M822.71,283.88v-6.5c0-4.31,2.38-6.41,6.84-6.41h8.03c1.68,0,2.81-1.01,2.81-2.69s-1.07-2.72-2.81-2.72
					H822.9v-3.88h14.68c4.4,0,6.81,2.66,6.81,6.23c0,3.66-2.56,6.32-6.78,6.32h-8.06c-2.08,0-3.18,0.98-3.18,2.87v2.9h17.65v3.88
					H822.71z"/>
				<path fill="#FFFFFF" d="M847.38,283.88V280h14.26c2.44,0,4.15-1.01,4.15-2.93c0-1.83-1.19-2.84-3.36-2.84h-9.8v-3.27h9.52
					c2.2,0,3.24-0.76,3.24-2.69c0-2.05-1.44-2.75-4-2.75h-13.92v-3.85h14.68c4.3,0,7.14,1.95,7.14,5.74c0,2.81-1.4,4.21-3.05,4.73
					c2.02,0.64,3.48,2.41,3.48,5.01c0,4.03-2.81,6.72-7.14,6.72L847.38,283.88L847.38,283.88z"/>
			</g>
		</g>
		<line fill="none" stroke="#FFFFFF" stroke-width="2" stroke-miterlimit="10" x1="333.71" y1="183" x2="1307.53" y2="183"/>
	</g>
	<g>
		<ellipse fill-rule="evenodd" clip-rule="evenodd" fill="#FFFFFF" cx="158.95" cy="95.65" rx="81.23" ry="81.23"/>
		<ellipse fill-rule="evenodd" clip-rule="evenodd" fill="#212E66" cx="159.09" cy="95.67" rx="63.58" ry="63.58"/>
		<polygon fill-rule="evenodd" clip-rule="evenodd" fill="#FFFFFF" points="141.26,48.88 157.32,39.26 157.32,53.86 142.78,62.43 
			123.05,62.43 123.05,49.11 		"/>
		<polygon fill-rule="evenodd" clip-rule="evenodd" fill="#CB1517" points="126.26,51.81 126.26,59.69 142.03,59.69 154.58,52.29 
			154.58,44.09 142.03,51.61 		"/>
		<polygon fill-rule="evenodd" clip-rule="evenodd" fill="#FFFFFF" points="123.05,67.46 142.03,67.46 157.32,58.86 157.32,56.12 
			142.03,64.72 123.05,64.72 		"/>
		<polygon fill-rule="evenodd" clip-rule="evenodd" fill="#FFFFFF" points="123.05,73.06 142.03,73.06 157.32,64.46 157.32,61.72 
			142.03,70.32 123.05,70.32 		"/>
		<polygon fill-rule="evenodd" clip-rule="evenodd" fill="#FFFFFF" points="142.21,95.12 162.77,106.7 162.77,118.89 158.67,121.07 
			154.56,118.9 154.56,111.1 142.21,104.14 142.21,123.9 157.75,132.59 157.73,152.06 123.51,132.77 123.51,93.72 120.36,93.72 
			120.36,75.05 142.21,75.05 		"/>
		<polygon fill-rule="evenodd" clip-rule="evenodd" fill="#CB1517" points="123.1,77.79 126.25,77.79 139.47,77.79 139.47,90.98 
			139.47,96.72 160.03,108.3 160.03,117.25 158.67,117.97 157.3,117.25 157.3,109.5 139.47,99.46 139.47,125.5 155.01,134.19 
			155,147.38 126.25,131.18 126.25,90.98 123.1,90.98 		"/>
		<polygon fill-rule="evenodd" clip-rule="evenodd" fill="#FFFFFF" points="162.77,85.73 175.97,93.16 175.97,75.05 197.81,75.05 
			197.81,93.72 194.67,93.72 194.67,132.77 160.44,152.06 160.43,132.59 175.97,123.9 175.97,102.18 154.56,90.12 154.56,77.93 
			158.66,75.76 162.77,77.93 		"/>
		<polygon fill-rule="evenodd" clip-rule="evenodd" fill="#CB1517" points="160.04,79.58 160.04,87.33 178.71,97.84 178.71,90.98 
			178.71,77.79 191.93,77.79 195.08,77.79 195.08,90.98 191.93,90.98 191.93,131.18 163.18,147.38 163.17,134.19 178.71,125.5 
			178.71,100.92 178.25,100.32 157.3,88.52 157.3,79.58 158.67,78.85 		"/>
		<polygon fill-rule="evenodd" clip-rule="evenodd" fill="#FFFFFF" points="176.07,48.88 160.01,39.26 160.01,53.86 174.55,62.43 
			194.28,62.43 194.28,49.11 		"/>
		<polygon fill-rule="evenodd" clip-rule="evenodd" fill="#CB1517" points="191.06,51.81 191.06,59.69 175.3,59.69 162.75,52.29 
			162.75,44.09 175.3,51.61 		"/>
		<polygon fill-rule="evenodd" clip-rule="evenodd" fill="#FFFFFF" points="194.28,67.46 175.3,67.46 160.01,58.86 160.01,56.12 
			175.3,64.72 194.28,64.72 		"/>
		<polygon fill-rule="evenodd" clip-rule="evenodd" fill="#FFFFFF" points="194.28,73.06 175.3,73.06 160.01,64.46 160.01,61.72 
			175.3,70.32 194.28,70.32 		"/>
		<path fill-rule="evenodd" clip-rule="evenodd" fill="#212E66" d="M108.08,131.73l-12.51,12.51
			c14.61,19.08,37.63,31.39,63.52,31.39c25.9,0,48.91-12.31,63.53-31.4l-12.49-12.49l0.61-0.61l12.41,12.41
			c10-13.35,15.92-29.93,15.92-47.89c0-44.17-35.81-79.97-79.97-79.97c-44.17,0-79.97,35.8-79.97,79.97
			c0,17.96,5.92,34.54,15.92,47.89l12.43-12.43L108.08,131.73L108.08,131.73z M159.09,14.43c44.86,0,81.23,36.36,81.23,81.23
			c0,44.86-36.37,81.23-81.23,81.23s-81.23-36.36-81.23-81.23C77.86,50.8,114.23,14.43,159.09,14.43z"/>
		<path fill-rule="evenodd" clip-rule="evenodd" fill="#212E66" d="M83.98,89.74l-0.26-0.02l0.19-2.47l0.26,0.02l-0.07,0.88
			l7.46,0.57c0.36,0.03,0.67,0.16,0.93,0.41s0.45,0.55,0.57,0.92c0.12,0.37,0.17,0.74,0.16,1.11c-0.03,0.37-0.11,0.77-0.26,1.21
			s-0.31,0.78-0.51,1.01c-0.41,0.47-0.95,0.68-1.61,0.63l-6.49-0.49c-0.43-0.03-0.68,0.31-0.73,1.02l-0.26-0.02l0.23-2.96l0.26,0.02
			l-0.07,0.93l7.25,0.55c0.51,0.04,0.93-0.12,1.27-0.49c0.34-0.36,0.53-0.84,0.58-1.44c0.04-0.53-0.09-0.98-0.4-1.35
			c-0.3-0.36-0.69-0.56-1.15-0.6l-6.61-0.5c-0.43-0.03-0.67,0.23-0.71,0.78L83.98,89.74L83.98,89.74z M93.26,85.96l0.16-0.87
			l-7.35-1.31c-0.41-0.07-0.7-0.08-0.89-0.02c-0.3,0.09-0.5,0.43-0.61,1.02l-0.26-0.05l0.28-1.57l8.35-2.88l0.01-0.03l-6.4-1.14
			c-0.27-0.05-0.51,0.02-0.72,0.2c-0.22,0.18-0.36,0.43-0.41,0.75L85.16,80l0.42-2.37l0.26,0.05l-0.14,0.8l9.35,1.67L95,80.42
			l-8.4,2.94v0.02l5.82,1.04c0.45,0.08,0.78,0.02,0.99-0.19c0.14-0.17,0.24-0.45,0.31-0.84l0.26,0.05l-0.46,2.58L93.26,85.96
			L93.26,85.96z M95.01,77.25l0.27-0.95l-7.81-2.22c-0.26-0.07-0.45-0.03-0.58,0.13c-0.13,0.16-0.25,0.42-0.34,0.76L86.3,74.9
			l0.82-2.89l0.25,0.07l-0.27,0.94l7.6,2.16c0.23,0.07,0.39,0.1,0.47,0.1c0.15,0,0.28-0.04,0.37-0.13c0.08-0.12,0.18-0.38,0.3-0.8
			l0.25,0.07l-0.82,2.9L95.01,77.25L95.01,77.25z M97.61,67.63l-5.34-4.49c-0.22-0.15-0.35-0.24-0.4-0.26
			c-0.26-0.12-0.46-0.1-0.62,0.03c-0.16,0.14-0.3,0.35-0.43,0.64l-0.07,0.16l-0.24-0.11l1.21-2.69l0.24,0.11l-0.39,0.87l7.53,6.41
			l-0.14,0.32l-8.48-0.56c-0.5-0.03-0.88-0.03-1.13,0s-0.44,0.1-0.55,0.2c-0.12,0.1-0.22,0.27-0.33,0.49l-0.13,0.3l-0.24-0.11
			l1.38-3.05L89.71,66l-0.49,1.07L97.61,67.63L97.61,67.63z M103.57,58.84l0.49,0.28l0.16-0.27l-2.93-1.68l-0.16,0.27l0.63,0.36
			c0.39,0.22,0.66,0.49,0.82,0.79c0.16,0.3,0.18,0.69,0.06,1.15c-0.26,0.58-0.56,1.18-0.91,1.78l-5.34-3.07
			c0.18-0.31,0.33-0.51,0.45-0.6c0.22-0.22,0.48-0.3,0.78-0.23c0.29,0.07,0.62,0.21,0.97,0.41l0.13-0.23l-2.96-1.7l-0.13,0.23
			l1.21,0.7l-0.73,1.26l-1.98-1.14l0.21-0.37c0.52-0.9,0.97-1.48,1.34-1.73c0.4-0.27,0.94-0.21,1.6,0.18l0.44,0.25l0.15-0.27
			l-2.72-1.56l-0.16,0.27l0.51,0.3l-2.63,4.57l0.23,0.13c0.18-0.31,0.35-0.52,0.52-0.63s0.37-0.1,0.61,0.04l7.01,4.03l-0.5,0.87
			l0.22,0.13L103.57,58.84L103.57,58.84z M97.74,50.6l1.33-1.53l0.67,0.58c0.24-1.23,0.7-2.26,1.38-3.1
			c0.53-0.61,1.17-1.1,1.92-1.44c0.75-0.35,1.5-0.5,2.24-0.46s1.37,0.28,1.88,0.72c0.56,0.48,0.92,1.08,1.08,1.81
			c0.16,0.72,0.13,1.48-0.1,2.27c-0.23,0.79-0.62,1.53-1.17,2.23l0.02,0.02c0.21-0.12,0.64-0.34,1.3-0.66s1.2-0.62,1.61-0.89
			c0.42-0.27,0.78-0.58,1.1-0.94c0.23-0.27,0.37-0.49,0.41-0.68l0.19-0.02c-0.03,0.38-0.21,0.77-0.56,1.17
			c-0.28,0.33-0.6,0.63-0.96,0.91s-0.68,0.51-0.98,0.7c-0.3,0.19-0.78,0.47-1.44,0.86c-1.28,0.67-2.37,1.19-3.27,1.55l0.98,0.85
			c0.15,0.13,0.28,0.21,0.39,0.22c0.1,0.02,0.21-0.01,0.32-0.09c0.14-0.13,0.29-0.27,0.44-0.4c0.07-0.11,0.17-0.24,0.31-0.4
			l0.2,0.17l-2.19,2.53l-0.2-0.17l0.61-0.71l-6.15-5.33c-0.31-0.27-0.67-0.18-1.07,0.29l-0.1,0.12L97.74,50.6L97.74,50.6z
			 M100.17,50.01l3.84,3.33l-0.06-0.28c1.31-0.43,2.27-0.98,2.87-1.68c0.45-0.52,0.75-1.1,0.91-1.76c0.16-0.65,0.15-1.28-0.01-1.88
			c-0.16-0.61-0.47-1.1-0.92-1.49c-0.5-0.4-1.08-0.64-1.76-0.71s-1.35,0.03-2.03,0.3s-1.28,0.69-1.8,1.26
			C100.44,47.97,100.1,48.94,100.17,50.01L100.17,50.01z M111.22,35.87l-0.24,0.21l0.37,0.43c-0.49,0.2-0.84,0.4-1.05,0.59
			c-0.47,0.45-0.79,0.97-0.93,1.55c-0.14,0.58-0.04,1.07,0.3,1.46c0.26,0.31,0.58,0.49,0.94,0.57c0.36,0.07,0.74,0.08,1.14,0
			c0.4-0.07,0.87-0.19,1.43-0.37c0.62-0.18,1.14-0.31,1.57-0.4c0.43-0.08,0.84-0.1,1.23-0.04c0.39,0.06,0.72,0.23,0.98,0.51
			c0.32,0.37,0.49,0.81,0.51,1.33c0.02,0.52-0.11,1.04-0.37,1.57s-0.63,1.01-1.1,1.41c-0.53,0.45-1.08,0.75-1.66,0.89
			s-1.13,0.13-1.64-0.02s-0.93-0.42-1.26-0.8c-0.21-0.27-0.36-0.58-0.44-0.95c-0.08-0.36-0.06-0.73,0.05-1.1s0.33-0.69,0.64-0.96
			c0.21-0.18,0.44-0.31,0.7-0.37c0.26-0.07,0.5-0.07,0.72-0.02s0.4,0.15,0.52,0.29c0.28,0.33,0.27,0.69-0.05,1.08l0.14,0.26
			c0.16-0.09,0.28-0.16,0.34-0.22c0.27-0.24,0.42-0.51,0.46-0.83c0.03-0.31-0.05-0.58-0.24-0.81c-0.2-0.23-0.46-0.36-0.78-0.39
			s-0.66,0.03-1.01,0.16c-0.35,0.14-0.65,0.31-0.91,0.54c-0.42,0.36-0.72,0.79-0.92,1.28c-0.2,0.49-0.26,0.98-0.2,1.47
			c0.06,0.49,0.25,0.91,0.57,1.28c0.4,0.46,0.89,0.74,1.47,0.85c0.58,0.1,1.2,0.04,1.85-0.19c0.64-0.23,1.25-0.59,1.82-1.09
			c0.44-0.38,0.81-0.81,1.12-1.27c0.31-0.47,0.53-0.94,0.67-1.43c0.13-0.49,0.16-0.96,0.09-1.41c-0.07-0.45-0.26-0.86-0.57-1.2
			c-0.3-0.35-0.67-0.57-1.12-0.65c-0.44-0.09-0.9-0.08-1.38,0c-0.47,0.09-1.04,0.23-1.69,0.43c-0.59,0.19-1.07,0.32-1.43,0.4
			s-0.7,0.1-1.04,0.06c-0.33-0.04-0.61-0.2-0.83-0.45c-0.15-0.17-0.24-0.37-0.26-0.61c-0.02-0.23,0.02-0.47,0.12-0.71
			c0.11-0.24,0.26-0.45,0.47-0.65c0.46-0.4,0.88-0.51,1.28-0.33c0.39,0.18,0.79,0.49,1.18,0.94l0.57,0.65l0.24-0.21L111.22,35.87
			L111.22,35.87z M120.61,40.9l0.8-0.57l-4.7-6.61c-0.15-0.22-0.33-0.3-0.54-0.26s-0.46,0.17-0.74,0.37l-0.15-0.21l2.45-1.74
			l0.15,0.21l-0.79,0.56l4.58,6.44c0.14,0.19,0.24,0.32,0.3,0.37c0.12,0.1,0.24,0.14,0.37,0.13c0.14-0.04,0.38-0.19,0.73-0.43
			l0.15,0.21l-2.46,1.75L120.61,40.9L120.61,40.9z M124.59,38.03l0.12,0.23l3.29-1.69c0.81-0.42,1.48-0.84,1.99-1.28
			c0.52-0.44,0.91-0.87,1.18-1.3c0.27-0.43,0.49-0.88,0.65-1.37c0.41-1.19,0.35-2.32-0.18-3.39c-0.18-0.36-0.43-0.68-0.74-0.96
			c-0.31-0.28-0.65-0.52-1.03-0.71c-0.38-0.19-0.78-0.34-1.2-0.43c-0.63-0.13-1.29-0.13-1.95,0c-0.67,0.12-1.41,0.39-2.22,0.81
			l-4.12,2.11l0.12,0.23l0.19-0.1c0.54-0.27,0.9-0.21,1.11,0.19l3.68,7.19L124.59,38.03L124.59,38.03z M130.88,29.71
			c-0.37-0.64-0.91-1.15-1.62-1.5c-0.71-0.36-1.49-0.53-2.35-0.51c-0.86,0.01-1.69,0.22-2.49,0.63c-0.93,0.47-1.58,0.91-1.96,1.31
			l3.69,7.21c0.63-0.11,1.43-0.41,2.4-0.91c0.8-0.41,1.44-0.97,1.92-1.68s0.76-1.47,0.83-2.29
			C131.38,31.16,131.24,30.41,130.88,29.71L130.88,29.71z M141.67,30.83L138,25.87l-1.33,0.38l-0.05,4.29
			c-0.01,0.4,0.03,0.73,0.11,1.01c0.06,0.21,0.16,0.34,0.29,0.4c0.14,0.06,0.34,0.06,0.6,0.01c0.15-0.02,0.39-0.08,0.73-0.18
			l0.07,0.25l-2.87,0.82l-0.07-0.25l0.68-0.19l0.01-9.88l0.3-0.09l4.86,6.59c0.16,0.23,0.34,0.47,0.51,0.72
			c0.18,0.25,0.39,0.44,0.62,0.57s0.5,0.16,0.8,0.07l0.07,0.25l-2.65,0.75l-0.07-0.25L141.67,30.83L141.67,30.83z M137.82,25.58
			l-1.11-1.56l-0.03,0.01l0.02,1.9L137.82,25.58L137.82,25.58z M144.78,29.84l1-0.13l-1.02-8.02c-0.06-0.45-0.38-0.64-0.98-0.56
			l-0.21,0.03l-0.03-0.26l4.59-0.58c0.9-0.12,1.69-0.12,2.36-0.01s1.28,0.33,1.83,0.67c0.36,0.23,0.69,0.5,0.98,0.81
			c0.3,0.31,0.54,0.65,0.73,1.02s0.31,0.76,0.37,1.16c0.13,1.19-0.2,2.27-0.99,3.25c-0.32,0.4-0.68,0.76-1.07,1.07
			c-0.4,0.31-0.91,0.58-1.55,0.82c-0.63,0.24-1.4,0.41-2.31,0.53l-3.67,0.47L144.78,29.84L144.78,29.84z M153.53,24.16
			c-0.13-0.73-0.46-1.39-1.01-1.96c-0.55-0.58-1.23-1-2.04-1.28c-0.82-0.28-1.67-0.36-2.55-0.25c-1.03,0.13-1.8,0.32-2.29,0.57
			l1.02,8.04c0.63,0.11,1.49,0.1,2.57-0.03c0.89-0.11,1.68-0.42,2.38-0.93c0.7-0.51,1.21-1.13,1.56-1.87
			C153.5,25.69,153.63,24.93,153.53,24.16L153.53,24.16z M162.17,28.45l1,0.13l1.02-8.02c0.06-0.45-0.21-0.71-0.81-0.79l-0.21-0.03
			l0.03-0.26l4.6,0.58c0.9,0.11,1.67,0.31,2.29,0.58s1.16,0.64,1.61,1.1c0.29,0.31,0.54,0.66,0.75,1.03s0.36,0.76,0.45,1.17
			s0.12,0.81,0.07,1.21c-0.17,1.18-0.76,2.15-1.77,2.9c-0.41,0.31-0.84,0.57-1.31,0.77c-0.46,0.2-1.03,0.33-1.71,0.4
			c-0.67,0.07-1.46,0.05-2.37-0.07l-3.67-0.47L162.17,28.45L162.17,28.45z M172.06,25.13c0.06-0.74-0.1-1.46-0.49-2.15
			c-0.38-0.69-0.94-1.28-1.65-1.75c-0.72-0.48-1.52-0.77-2.41-0.88c-1.03-0.13-1.82-0.14-2.36-0.02l-1.02,8.03
			c0.58,0.27,1.42,0.47,2.49,0.61c0.89,0.11,1.74,0.01,2.54-0.3c0.8-0.32,1.46-0.79,1.98-1.42
			C171.65,26.61,171.96,25.91,172.06,25.13L172.06,25.13z M179.38,32.06l-5-1.42l0.07-0.25l0.97,0.28l2.21-7.77
			c0.08-0.26,0.04-0.46-0.11-0.6c-0.15-0.13-0.39-0.25-0.74-0.35l0.07-0.25l5.07,1.44l0.16-0.57l0.3,0.08l-0.86,3.01l-0.3-0.09
			l0.14-0.49c0.21-0.74,0.14-1.27-0.22-1.59c-0.33-0.3-1-0.6-2-0.88l-0.41-0.12l-0.62,2.2l1.4,0.4l0.38-1.35l0.25,0.07l-0.93,3.28
			l-0.25-0.07c0.11-0.39,0.17-0.74,0.17-1.04s-0.14-0.53-0.41-0.7c-0.12-0.09-0.35-0.19-0.69-0.29l-1.68,5.93
			c0.67,0.19,1.32,0.34,1.95,0.45c0.48,0,0.85-0.12,1.1-0.34c0.26-0.22,0.45-0.55,0.57-0.99l0.2-0.69l0.3,0.08l-0.92,3.25l-0.3-0.08
			L179.38,32.06L179.38,32.06z M193.14,27.73l-0.12,0.23l-0.88-0.45l-4,7.8c0.49,0.25,0.93,0.44,1.34,0.59
			c0.4,0.14,0.79,0.19,1.16,0.14c0.37-0.05,0.65-0.25,0.84-0.62l1.04-2.03l0.28,0.14l-2.07,4.03l-0.28-0.14l0.26-0.5l-4.37-2.24
			l0.12-0.23l0.86,0.44l3.71-7.25c0.11-0.22,0.11-0.41-0.02-0.57s-0.35-0.32-0.65-0.47l0.12-0.23L193.14,27.73L193.14,27.73z
			 M198.3,41.23l-0.92-0.59l-0.14,0.22l2.32,1.49l0.14-0.22c-0.27-0.17-0.43-0.39-0.48-0.65c-0.05-0.26-0.05-0.54,0.02-0.84
			s0.13-0.58,0.2-0.86l1.71-8.01l-0.27-0.17l-7.4,6.54l-0.6-0.38l-0.14,0.22l2.51,1.61l0.14-0.22c-0.29-0.19-0.5-0.33-0.61-0.43
			c-0.21-0.16-0.35-0.31-0.39-0.45c-0.05-0.14-0.01-0.3,0.1-0.48c0.16-0.24,0.38-0.49,0.69-0.75l3.25-2.81l1.17,0.75L198.3,41.23
			L198.3,41.23z M199.68,34.87l-1.01-0.61l1.41-1.27l0.03,0.02L199.68,34.87L199.68,34.87z M215.87,44.33l-2.61,2.49l-0.22-0.23
			l0.63-0.6c0.43-0.41,0.73-0.82,0.88-1.22c0.15-0.4,0.02-0.82-0.39-1.26c-0.21-0.2-0.43-0.35-0.68-0.44
			c-0.24-0.09-0.48-0.12-0.71-0.09c-0.23,0.03-0.43,0.13-0.6,0.29c-0.25,0.23-0.38,0.52-0.41,0.85c-0.03,0.33,0.01,0.68,0.1,1.03
			c0.1,0.36,0.26,0.83,0.47,1.41c0.23,0.64,0.4,1.2,0.51,1.67c0.11,0.47,0.13,0.93,0.07,1.38s-0.26,0.83-0.6,1.15
			c-0.33,0.32-0.73,0.53-1.18,0.62s-0.92,0.09-1.41-0.02s-0.98-0.31-1.46-0.6c-0.48-0.29-0.93-0.64-1.33-1.06
			c-0.52-0.55-0.91-1.14-1.17-1.77c-0.26-0.64-0.35-1.25-0.27-1.84s0.34-1.09,0.78-1.51c0.35-0.33,0.76-0.54,1.25-0.63
			c0.48-0.09,0.98-0.05,1.48,0.13c0.5,0.17,0.94,0.46,1.32,0.86c0.24,0.25,0.43,0.54,0.58,0.88c0.15,0.34,0.22,0.67,0.21,1
			c-0.02,0.32-0.13,0.59-0.35,0.8c-0.21,0.2-0.48,0.3-0.79,0.28c-0.32-0.02-0.6-0.15-0.85-0.42c-0.06-0.06-0.14-0.17-0.23-0.33
			l0.26-0.15c0.41,0.3,0.77,0.3,1.08,0c0.13-0.13,0.22-0.3,0.26-0.53c0.04-0.22,0.02-0.46-0.05-0.72c-0.08-0.25-0.21-0.48-0.4-0.68
			c-0.29-0.3-0.62-0.5-0.99-0.6c-0.37-0.1-0.74-0.1-1.1,0s-0.67,0.26-0.93,0.48c-0.36,0.34-0.61,0.78-0.74,1.29
			c-0.13,0.52-0.11,1.06,0.06,1.64c0.17,0.58,0.49,1.11,0.97,1.62c0.43,0.45,0.92,0.79,1.46,1.03c0.54,0.24,1.07,0.34,1.59,0.3
			c0.51-0.04,0.95-0.23,1.3-0.57c0.27-0.28,0.43-0.61,0.47-1.01c0.04-0.39,0-0.8-0.1-1.22c-0.11-0.43-0.26-0.94-0.47-1.55
			c-0.2-0.55-0.35-1.02-0.44-1.41s-0.11-0.77-0.05-1.14s0.23-0.69,0.53-0.97c0.38-0.36,0.86-0.49,1.45-0.37
			c0.59,0.12,1.12,0.4,1.59,0.85c0.19,0.2,0.41,0.55,0.64,1.02l0.41-0.39L215.87,44.33L215.87,44.33z M214.16,58.3l-0.46,0.33
			l0.18,0.26l2.75-1.96l-0.18-0.25l-0.59,0.42c-0.37,0.26-0.72,0.4-1.06,0.41c-0.34,0.02-0.7-0.13-1.08-0.42
			c-0.42-0.48-0.83-1-1.24-1.57l5.02-3.57c0.21,0.29,0.33,0.51,0.36,0.66c0.11,0.3,0.07,0.57-0.11,0.8
			c-0.19,0.24-0.45,0.47-0.78,0.71l0.15,0.21l2.78-1.98l-0.15-0.21l-1.14,0.81l-0.84-1.19l1.86-1.32l0.25,0.35
			c0.6,0.85,0.94,1.5,1.01,1.94c0.07,0.48-0.2,0.94-0.83,1.38l-0.41,0.29l0.18,0.25l2.55-1.82l-0.18-0.25l-0.48,0.34l-3.06-4.3
			l-0.21,0.15c0.21,0.29,0.32,0.54,0.36,0.73c0.03,0.2-0.06,0.38-0.29,0.54l-6.59,4.68l-0.58-0.82l-0.21,0.15L214.16,58.3
			L214.16,58.3z M224,55.97l0.93,1.81l-0.78,0.4c1.05,0.69,1.84,1.5,2.35,2.44c0.37,0.72,0.57,1.5,0.62,2.32
			c0.04,0.83-0.1,1.58-0.41,2.25c-0.31,0.68-0.77,1.17-1.37,1.48c-0.66,0.34-1.35,0.44-2.08,0.32s-1.42-0.43-2.06-0.94
			c-0.65-0.51-1.19-1.15-1.63-1.92l-0.03,0.02c0.03,0.23,0.07,0.72,0.13,1.45c0.05,0.73,0.13,1.34,0.22,1.83
			c0.09,0.49,0.25,0.95,0.47,1.37c0.16,0.31,0.32,0.53,0.47,0.64l-0.05,0.18c-0.35-0.17-0.64-0.49-0.88-0.96
			c-0.2-0.38-0.36-0.79-0.48-1.23c-0.13-0.44-0.22-0.83-0.28-1.17c-0.06-0.35-0.15-0.9-0.26-1.65c-0.14-1.44-0.21-2.64-0.21-3.62
			l-1.16,0.59c-0.18,0.09-0.3,0.19-0.35,0.28c-0.06,0.09-0.07,0.2-0.03,0.33c0.07,0.18,0.14,0.37,0.21,0.56
			c0.08,0.1,0.16,0.25,0.25,0.43l-0.23,0.12l-1.53-2.98l0.23-0.12l0.43,0.83l7.25-3.71c0.37-0.19,0.41-0.56,0.13-1.1l-0.07-0.14
			L224,55.97L224,55.97z M223.64,58.43c1.02,0.34,1.79,1.02,2.32,2.05c0.33,0.69,0.5,1.41,0.49,2.14c0,0.73-0.16,1.4-0.48,2
			c-0.32,0.6-0.76,1.06-1.32,1.37c-0.53,0.27-1.11,0.37-1.73,0.29c-0.62-0.07-1.21-0.3-1.75-0.7c-0.55-0.39-0.98-0.89-1.29-1.5
			c-0.42-0.82-0.58-1.91-0.48-3.28l-0.29-0.05L223.64,58.43L223.64,58.43z M222.61,76.35l-0.53,0.18l0.1,0.3l3.2-1.08l-0.1-0.3
			l-0.68,0.23c-0.43,0.14-0.8,0.17-1.14,0.09c-0.33-0.08-0.63-0.32-0.91-0.72c-0.26-0.58-0.51-1.2-0.73-1.86l5.84-1.98
			c0.11,0.34,0.17,0.58,0.16,0.74c0.02,0.32-0.09,0.56-0.34,0.73c-0.25,0.17-0.57,0.32-0.95,0.45l0.08,0.25l3.23-1.09l-0.08-0.25
			l-1.33,0.45l-0.47-1.38l2.16-0.73l0.14,0.41c0.33,0.99,0.47,1.7,0.41,2.15c-0.07,0.48-0.46,0.84-1.19,1.08L229,74.18l0.1,0.3
			l2.97-1l-0.1-0.3l-0.56,0.19l-1.69-4.99l-0.25,0.08c0.11,0.34,0.16,0.61,0.13,0.8c-0.03,0.2-0.17,0.34-0.43,0.43l-7.66,2.59
			l-0.32-0.95l-0.25,0.08L222.61,76.35L222.61,76.35z M223.76,78.87l0.16,0.87l7.35-1.31c0.41-0.07,0.69-0.17,0.85-0.29
			c0.25-0.19,0.32-0.57,0.22-1.17l0.26-0.04l0.28,1.57l-6.84,5.59l0.01,0.03l6.4-1.14c0.27-0.05,0.47-0.19,0.61-0.44
			s0.18-0.52,0.13-0.84l0.26-0.05l0.42,2.37l-0.26,0.05l-0.14-0.8l-9.35,1.67l-0.05-0.27l6.86-5.67v-0.02l-5.83,1.04
			c-0.45,0.08-0.74,0.26-0.86,0.52c-0.07,0.2-0.07,0.5,0,0.9l-0.26,0.05l-0.46-2.58L223.76,78.87L223.76,78.87z M225.7,93.8
			l5.59-2.6l-0.11-1.38l-4.19-0.9c-0.39-0.09-0.72-0.12-1.01-0.1c-0.21,0.02-0.37,0.09-0.45,0.2c-0.08,0.12-0.13,0.32-0.13,0.59
			c-0.01,0.15,0,0.4,0.03,0.75l-0.26,0.02l-0.23-2.97l0.26-0.02l0.05,0.71l9.68,1.97l0.02,0.31l-7.43,3.45
			c-0.26,0.11-0.53,0.23-0.8,0.36c-0.28,0.13-0.5,0.29-0.68,0.49s-0.25,0.46-0.23,0.77l-0.26,0.02l-0.21-2.75l0.26-0.02L225.7,93.8
			L225.7,93.8z M231.62,91.07l1.75-0.78v-0.03l-1.87-0.36L231.62,91.07z"/>
		<path fill-rule="evenodd" clip-rule="evenodd" fill="#212E66" d="M147.58,162.55l0.19-0.81l0.27,0.06l-0.83,3.6l-0.27-0.06
			c0.15-0.66,0.23-1.16,0.23-1.51c0-0.35-0.11-0.66-0.33-0.95s-0.57-0.56-1.05-0.82c-0.48-0.26-0.98-0.44-1.49-0.56
			c-0.99-0.23-1.93-0.22-2.79,0.02c-0.87,0.24-1.58,0.65-2.15,1.22c-0.57,0.58-0.93,1.22-1.1,1.93c-0.13,0.59-0.14,1.19-0.01,1.81
			s0.38,1.21,0.74,1.77c0.37,0.56,0.85,1.04,1.43,1.45c0.58,0.41,1.24,0.69,1.97,0.86c0.76,0.18,1.48,0.21,2.15,0.11
			s1.27-0.29,1.8-0.55l0.22,0.38c-0.65,0.29-1.36,0.47-2.14,0.53c-0.77,0.06-1.54,0.02-2.29-0.14c-1.07-0.25-2.01-0.69-2.82-1.34
			c-0.81-0.64-1.4-1.4-1.76-2.26s-0.45-1.72-0.25-2.57c0.16-0.7,0.48-1.32,0.97-1.85c0.48-0.53,1.08-0.95,1.78-1.26
			s1.45-0.5,2.27-0.56c0.81-0.07,1.61-0.01,2.41,0.17C145.81,161.47,146.76,161.91,147.58,162.55L147.58,162.55z M160.46,172.52
			l1-0.03l-0.21-8.24c-0.01-0.27-0.11-0.44-0.31-0.52s-0.48-0.11-0.84-0.11l-0.01-0.26l3.05-0.08l0.01,0.26l-0.99,0.02l0.2,8.02
			c0.01,0.24,0.02,0.41,0.05,0.48c0.04,0.15,0.12,0.25,0.24,0.32c0.14,0.04,0.43,0.06,0.86,0.05l0.01,0.26l-3.06,0.08V172.52
			L160.46,172.52z M168.34,162.9l0.03,0.26l-1,0.13l1.12,8.83c0.55-0.07,1.04-0.16,1.46-0.27c0.42-0.11,0.77-0.3,1.05-0.55
			c0.29-0.25,0.4-0.59,0.35-1l-0.29-2.3l0.31-0.04l0.58,4.57l-0.31,0.04l-0.07-0.57l-4.94,0.63l-0.03-0.26l0.98-0.12l-1.04-8.2
			c-0.03-0.25-0.15-0.4-0.35-0.46c-0.2-0.06-0.47-0.07-0.82-0.02l-0.03-0.26L168.34,162.9L168.34,162.9z M180.55,170.22l-5.15,1.19
			l-0.06-0.26l0.99-0.23l-1.85-8c-0.06-0.27-0.19-0.43-0.39-0.48s-0.47-0.03-0.83,0.05l-0.06-0.26l5.22-1.2l-0.14-0.59l0.31-0.07
			l0.72,3.1l-0.31,0.07l-0.12-0.5c-0.18-0.76-0.5-1.19-0.97-1.31c-0.45-0.11-1.19-0.04-2.22,0.2l-0.43,0.1l0.52,2.26l1.44-0.33
			l-0.32-1.39l0.26-0.06l0.78,3.37l-0.26,0.06c-0.09-0.4-0.21-0.74-0.36-1.01c-0.15-0.27-0.39-0.41-0.71-0.42
			c-0.15-0.03-0.4,0-0.76,0.08l1.41,6.1c0.69-0.16,1.34-0.35,1.96-0.55c0.42-0.24,0.7-0.52,0.82-0.85c0.12-0.33,0.12-0.71,0.02-1.16
			l-0.16-0.71l0.31-0.07l0.77,3.34l-0.31,0.07L180.55,170.22L180.55,170.22z M156.61,163.45l-0.62,8.15
			c-0.02,0.26,0.01,0.46,0.1,0.58c0.11,0.11,0.35,0.19,0.71,0.25c0.07-0.01,0.17-0.02,0.28-0.01l-0.02,0.26l-3.05-0.23l0.02-0.26
			l1,0.08l0.47-6.21l-3.6-0.27l-0.42,5.48c-0.03,0.35,0.06,0.58,0.25,0.68c0.12,0.05,0.39,0.1,0.82,0.13l-0.02,0.26l-3.05-0.23
			l0.02-0.26l1,0.08l0.62-8.22c0.03-0.44-0.26-0.68-0.88-0.73l-0.21-0.02l0.02-0.26l3.03,0.23l-0.02,0.26l-0.95-0.07l-0.18,2.34
			l3.6,0.27l0.13-1.68c0.02-0.22-0.05-0.39-0.21-0.51s-0.37-0.19-0.64-0.21l-0.25-0.02l0.02-0.26l3.05,0.23l-0.02,0.26
			L156.61,163.45z"/>
		<g>
			<g enable-background="new    ">
				<path fill="#FFFFFF" d="M45.72,253.85v-24.58h7.94c2.46,0,4.61,0.48,6.46,1.43s3.29,2.36,4.33,4.22
					c1.04,1.86,1.55,4.06,1.55,6.61c0,3.86-1.12,6.87-3.36,9.05c-2.24,2.17-5.23,3.26-8.98,3.26H45.72z M48.12,251.68h5.27
					c3.08,0,5.53-0.88,7.35-2.65c1.81-1.76,2.72-4.26,2.72-7.49c0-3.21-0.91-5.69-2.74-7.46c-1.83-1.76-4.27-2.65-7.33-2.65h-5.27
					V251.68z"/>
			</g>
			<g enable-background="new    ">
				<path fill="#FFFFFF" d="M71.58,253.85v-24.58h13.84v2.17H73.98v8.94h9.34v2.17h-9.34v9.13h12.07v2.17H71.58z"/>
				<path fill="#FFFFFF" d="M100.92,253.85v-24.58h2.41v22.41h11.4v2.17H100.92z"/>
				<path fill="#FFFFFF" d="M115.9,253.85l9.01-24.58h2.59l9.01,24.58h-2.56l-2.82-7.83h-9.9l-2.8,7.83H115.9z M121.94,243.92h8.47
					l-3.23-8.91c-0.13-0.34-0.27-0.78-0.43-1.31c-0.16-0.53-0.28-0.97-0.38-1.32l-0.14-0.55h-0.07c-0.35,1.34-0.67,2.4-0.96,3.17
					L121.94,243.92z"/>
				<path fill="#FFFFFF" d="M148.09,251.12l1.43-1.84c0.07,0.07,0.17,0.17,0.3,0.29c0.13,0.12,0.41,0.34,0.84,0.65
					c0.43,0.31,0.88,0.58,1.35,0.81c0.47,0.23,1.06,0.45,1.78,0.64s1.44,0.29,2.17,0.29c1.39,0,2.55-0.38,3.49-1.15
					c0.94-0.77,1.41-1.8,1.41-3.1c0-0.66-0.14-1.26-0.42-1.79s-0.65-0.99-1.13-1.37s-1.02-0.73-1.63-1.06
					c-0.61-0.32-1.26-0.63-1.95-0.92s-1.36-0.58-2.04-0.89c-0.68-0.3-1.32-0.64-1.94-1.02c-0.61-0.38-1.16-0.8-1.63-1.27
					c-0.47-0.47-0.85-1.03-1.13-1.7c-0.28-0.67-0.42-1.4-0.42-2.21c0-1.81,0.72-3.37,2.17-4.67c1.44-1.3,3.28-1.95,5.5-1.95
					c0.8,0,1.57,0.08,2.31,0.25c0.75,0.17,1.37,0.37,1.86,0.6c0.5,0.23,0.93,0.47,1.31,0.7c0.38,0.23,0.65,0.42,0.84,0.58l0.26,0.26
					l-1.19,2.03c-0.06-0.06-0.14-0.13-0.26-0.23c-0.11-0.1-0.35-0.26-0.72-0.5c-0.36-0.24-0.74-0.45-1.13-0.63s-0.88-0.35-1.48-0.5
					c-0.6-0.15-1.2-0.23-1.8-0.23c-1.51,0-2.76,0.42-3.73,1.27c-0.97,0.85-1.46,1.83-1.46,2.96c0,0.63,0.14,1.19,0.42,1.69
					s0.65,0.93,1.13,1.28s1.02,0.68,1.63,0.99c0.61,0.31,1.26,0.6,1.95,0.89c0.68,0.28,1.36,0.57,2.04,0.87
					c0.68,0.29,1.32,0.64,1.94,1.04c0.61,0.4,1.16,0.84,1.63,1.33c0.47,0.49,0.85,1.08,1.13,1.78s0.42,1.48,0.42,2.34
					c0,1.89-0.68,3.47-2.04,4.74c-1.36,1.27-3.16,1.91-5.4,1.91c-0.94,0-1.86-0.11-2.74-0.32s-1.62-0.48-2.2-0.79
					c-0.59-0.31-1.1-0.62-1.55-0.93c-0.45-0.31-0.78-0.58-1-0.79L148.09,251.12z"/>
				<path fill="#FFFFFF" d="M168.71,253.85v-24.58h13.84v2.17h-11.44v8.94h9.34v2.17h-9.34v9.13h12.07v2.17H168.71z"/>
				<path fill="#FFFFFF" d="M188.67,253.85v-24.58h7.27c2.06,0,3.6,0.22,4.61,0.67c1.16,0.5,2.07,1.31,2.72,2.43
					c0.65,1.12,0.98,2.42,0.98,3.9c0,1.65-0.42,3.07-1.27,4.27c-0.85,1.2-1.97,1.99-3.37,2.37v0.07c0.16,0.21,0.37,0.53,0.63,0.97
					l5.34,9.9h-2.77l-5.55-10.34h-6.2v10.34H188.67z M191.07,241.34h5.84c1.49,0,2.67-0.45,3.55-1.35c0.88-0.9,1.31-2.12,1.31-3.65
					c0-2.07-0.75-3.5-2.24-4.3c-0.74-0.4-1.91-0.6-3.5-0.6h-4.97V241.34z"/>
				<path fill="#FFFFFF" d="M210.62,253.85v-24.58h13.84v2.17h-11.44v8.94h9.34v2.17h-9.34v9.13h12.07v2.17H210.62z"/>
				<path fill="#FFFFFF" d="M230.57,253.85v-24.58h2.34l12.55,17.7c0.25,0.36,0.54,0.82,0.88,1.37c0.34,0.55,0.61,1.01,0.83,1.37
					l0.32,0.56h0.07c-0.14-1.34-0.2-2.45-0.2-3.31v-17.7h2.41v24.58h-2.34l-12.54-17.68c-0.25-0.36-0.54-0.83-0.88-1.38
					c-0.34-0.56-0.61-1.02-0.83-1.38l-0.32-0.56h-0.07c0.14,1.35,0.21,2.46,0.21,3.33v17.68H230.57z"/>
				<path fill="#FFFFFF" d="M253.78,253.85l9.01-24.58h2.59l9.01,24.58h-2.56l-2.82-7.83h-9.9l-2.8,7.83H253.78z M259.82,243.92
					h8.47l-3.23-8.91c-0.13-0.34-0.27-0.78-0.43-1.31c-0.16-0.53-0.28-0.97-0.38-1.32l-0.14-0.55h-0.07
					c-0.35,1.34-0.67,2.4-0.96,3.17L259.82,243.92z"/>
			</g>
			<g enable-background="new    ">
				<path fill="#FFFFFF" d="M136.45,269.52c0-0.87,0.16-1.69,0.47-2.46c0.31-0.77,0.74-1.43,1.28-1.98c0.54-0.55,1.19-0.99,1.95-1.3
					c0.76-0.32,1.57-0.48,2.43-0.48c0.54,0,1.06,0.05,1.57,0.16c0.5,0.11,0.92,0.24,1.24,0.39c0.33,0.16,0.62,0.31,0.86,0.47
					c0.25,0.16,0.43,0.29,0.54,0.39l0.17,0.16l-0.64,0.88c-0.04-0.03-0.1-0.08-0.17-0.14c-0.07-0.06-0.23-0.17-0.48-0.33
					s-0.5-0.29-0.77-0.41c-0.27-0.12-0.61-0.23-1.02-0.32c-0.41-0.1-0.84-0.14-1.27-0.14c-0.94,0-1.78,0.22-2.53,0.67
					c-0.75,0.45-1.33,1.06-1.75,1.84c-0.42,0.78-0.63,1.64-0.63,2.59c0,0.97,0.21,1.85,0.63,2.66c0.42,0.8,1.01,1.45,1.77,1.92
					c0.76,0.48,1.61,0.72,2.55,0.72c0.46,0,0.91-0.06,1.35-0.17c0.44-0.11,0.81-0.25,1.11-0.41c0.3-0.16,0.57-0.32,0.8-0.48
					c0.23-0.16,0.41-0.3,0.52-0.41l0.17-0.17l0.69,0.85c-0.05,0.05-0.11,0.12-0.2,0.2c-0.09,0.08-0.28,0.24-0.58,0.46
					c-0.3,0.22-0.62,0.41-0.95,0.58c-0.33,0.17-0.77,0.32-1.3,0.45c-0.53,0.13-1.08,0.2-1.64,0.2c-1.18,0-2.24-0.28-3.19-0.85
					c-0.95-0.57-1.68-1.34-2.2-2.31C136.71,271.77,136.45,270.69,136.45,269.52z"/>
			</g>
			<g enable-background="new    ">
				<path fill="#FFFFFF" d="M149.88,275.69V263.5h1.19v5.56h7.08v-5.56h1.19v12.19h-1.19v-5.56h-7.08v5.56H149.88z"/>
				<path fill="#FFFFFF" d="M162.89,275.69V263.5h1.19v12.19H162.89z"/>
				<path fill="#FFFFFF" d="M167.62,275.69V263.5h1.19v11.12h5.66v1.08H167.62z"/>
				<path fill="#FFFFFF" d="M176.6,275.69V263.5h6.87v1.08h-5.67v4.44h4.63v1.08h-4.63v4.53h5.99v1.08H176.6z"/>
			</g>
			<g enable-background="new    ">
				<path fill="#FFFFFF" d="M44.94,210.76v-16h4.54v16c0,1.64,0.5,2.92,1.49,3.85c1,0.93,2.34,1.39,4.03,1.39
					c1.69,0,3.04-0.46,4.04-1.39c1.01-0.93,1.51-2.22,1.51-3.89v-15.97h4.54v16c0,2.79-0.93,5.05-2.78,6.79
					c-1.85,1.74-4.28,2.6-7.28,2.6c-3.02,0-5.46-0.87-7.31-2.6C45.87,215.82,44.94,213.55,44.94,210.76z"/>
			</g>
			<g enable-background="new    ">
				<path fill="#FFFFFF" d="M71.07,219.73v-24.97h4.54l9.46,14.42c0.28,0.42,0.6,0.96,0.95,1.6c0.35,0.65,0.62,1.19,0.81,1.64
					l0.32,0.63h0.07c-0.16-1.59-0.25-2.88-0.25-3.87v-14.42h4.5v24.97h-4.5l-9.46-14.38c-0.28-0.42-0.6-0.96-0.95-1.6
					s-0.63-1.18-0.84-1.6l-0.28-0.67h-0.07c0.16,1.59,0.25,2.88,0.25,3.87v14.38H71.07z"/>
				<path fill="#FFFFFF" d="M97.8,219.73v-24.97h4.54v24.97H97.8z"/>
				<path fill="#FFFFFF" d="M114.57,219.73l-9.11-24.97h4.89l5.49,16.28c0.14,0.42,0.29,0.94,0.44,1.55
					c0.15,0.61,0.28,1.11,0.37,1.51l0.14,0.6h0.07l0.14-0.6c0.09-0.4,0.22-0.9,0.37-1.51c0.15-0.61,0.3-1.13,0.44-1.55l5.52-16.28
					h4.85l-9.11,24.97H114.57z"/>
				<path fill="#FFFFFF" d="M131.31,219.73v-24.97h14.95v3.9h-10.41v6.54h8.41v3.9h-8.41v6.72h10.97v3.9H131.31z"/>
				<path fill="#FFFFFF" d="M151.53,219.73v-24.97h8.05c2.32,0,4,0.23,5.03,0.7c1.27,0.59,2.26,1.47,2.99,2.64
					c0.73,1.17,1.09,2.57,1.09,4.18c0,1.52-0.38,2.91-1.14,4.17c-0.76,1.25-1.79,2.14-3.08,2.65v0.07c0.23,0.24,0.52,0.65,0.84,1.23
					l5.13,9.32h-5.06l-4.96-9.32h-4.36v9.32H151.53z M156.07,206.47h4.08c1.22,0,2.18-0.35,2.88-1.04c0.7-0.69,1.05-1.66,1.05-2.9
					c0-1.29-0.34-2.26-1.02-2.9c-0.68-0.64-1.86-0.97-3.55-0.97h-3.45V206.47z"/>
				<path fill="#FFFFFF" d="M172.78,216.74l2.46-3.41c0.07,0.07,0.18,0.16,0.32,0.28s0.43,0.33,0.86,0.63
					c0.43,0.3,0.88,0.58,1.34,0.81c0.46,0.24,1.03,0.45,1.71,0.63c0.68,0.19,1.35,0.28,2,0.28c1.01,0,1.86-0.26,2.57-0.79
					c0.7-0.53,1.06-1.27,1.06-2.23c0-0.8-0.4-1.51-1.21-2.13c-0.81-0.62-1.79-1.17-2.95-1.64c-1.16-0.47-2.32-0.98-3.46-1.55
					c-1.15-0.56-2.13-1.36-2.94-2.39c-0.81-1.03-1.21-2.25-1.21-3.66c0-2.06,0.8-3.79,2.39-5.17c1.59-1.38,3.59-2.07,5.98-2.07
					c1.45,0,2.8,0.22,4.04,0.67s2.12,0.89,2.64,1.34l0.77,0.67l-1.97,3.69c-0.19-0.16-0.44-0.37-0.76-0.62
					c-0.32-0.25-0.96-0.57-1.92-0.97c-0.96-0.4-1.91-0.6-2.85-0.6c-1.08,0-1.98,0.28-2.69,0.84c-0.72,0.56-1.07,1.28-1.07,2.15
					c0,0.8,0.4,1.49,1.21,2.08c0.81,0.59,1.79,1.1,2.94,1.55c1.15,0.45,2.3,0.95,3.45,1.51c1.15,0.56,2.13,1.37,2.94,2.41
					c0.81,1.04,1.21,2.3,1.21,3.78c0,2.06-0.74,3.8-2.23,5.2c-1.49,1.41-3.49,2.11-6,2.11c-1.03,0-2.03-0.12-3.01-0.35
					c-0.97-0.23-1.79-0.52-2.44-0.84c-0.66-0.33-1.23-0.66-1.72-1c-0.49-0.34-0.86-0.63-1.09-0.86L172.78,216.74z"/>
				<path fill="#FFFFFF" d="M194.16,219.73v-24.97h4.54v24.97H194.16z"/>
				<path fill="#FFFFFF" d="M205.02,219.73v-24.97h8.51c3.89,0,6.99,1.1,9.28,3.31c2.3,2.2,3.45,5.25,3.45,9.14
					s-1.15,6.95-3.45,9.18c-2.3,2.23-5.39,3.34-9.28,3.34H205.02z M209.56,215.83h3.73c2.58,0,4.61-0.74,6.08-2.23
					c1.48-1.49,2.22-3.62,2.22-6.38c0-2.72-0.74-4.82-2.23-6.31c-1.49-1.49-3.51-2.23-6.07-2.23h-3.73V215.83z"/>
				<path fill="#FFFFFF" d="M245.4,219.73l-2.11-6.4h-8.76l-2.11,6.4h-4.68l8.79-24.97h4.75l8.79,24.97H245.4z M238.96,199.09h-0.07
					c-0.38,1.64-0.73,2.93-1.05,3.87l-2.22,6.68h6.54l-2.22-6.68L238.96,199.09z"/>
				<path fill="#FFFFFF" d="M253.27,219.73v-24.97h8.51c3.89,0,6.99,1.1,9.28,3.31c2.3,2.2,3.45,5.25,3.45,9.14
					s-1.15,6.95-3.45,9.18c-2.3,2.23-5.39,3.34-9.28,3.34H253.27z M257.81,215.83h3.73c2.58,0,4.61-0.74,6.08-2.23
					c1.48-1.49,2.22-3.62,2.22-6.38c0-2.72-0.74-4.82-2.23-6.31c-1.49-1.49-3.51-2.23-6.07-2.23h-3.73V215.83z"/>
			</g>
		</g>
	</g>
</g>
</svg>
