<?xml version="1.0" encoding="utf-8"?>
<!-- Generator: Adobe Illustrator 27.9.0, SVG Export Plug-In . SVG Version: 6.00 Build 0)  -->
<svg version="1.1" id="Capa_1" xmlns="http://www.w3.org/2000/svg" xmlns:xlink="http://www.w3.org/1999/xlink" x="0px" y="0px"
	 viewBox="0 0 1750 290" enable-background="new 0 0 1750 290" xml:space="preserve">
<g>
	<g>
		<g>
			
				<ellipse transform="matrix(0.7071 -0.7071 0.7071 0.7071 -62.8999 138.1462)" fill-rule="evenodd" clip-rule="evenodd" fill="#FFFFFF" cx="135.31" cy="145" rx="130.65" ry="130.64"/>
			<path fill-rule="evenodd" clip-rule="evenodd" fill="#212E66" d="M135.53,42.75C192,42.75,237.78,88.53,237.78,145
				c0,56.47-45.78,102.25-102.25,102.25c-56.47,0-102.25-45.78-102.25-102.25C33.28,88.53,79.06,42.75,135.53,42.75z"/>
			<polygon fill-rule="evenodd" clip-rule="evenodd" fill="#FFFFFF" points="106.85,69.77 132.68,54.29 132.68,77.77 109.3,91.56 
				77.56,91.56 77.56,70.13 			"/>
			<polygon fill-rule="evenodd" clip-rule="evenodd" fill="#CB1517" points="82.74,74.48 82.74,87.16 108.1,87.16 128.28,75.25 
				128.28,62.06 108.1,74.16 			"/>
			<polygon fill-rule="evenodd" clip-rule="evenodd" fill="#FFFFFF" points="77.56,99.64 108.1,99.64 132.68,85.82 132.68,81.42 
				108.1,95.24 77.56,95.24 			"/>
			<polygon fill-rule="evenodd" clip-rule="evenodd" fill="#FFFFFF" points="77.56,108.65 108.1,108.65 132.68,94.82 132.68,90.42 
				108.1,104.25 77.56,104.25 			"/>
			<polygon fill-rule="evenodd" clip-rule="evenodd" fill="#FFFFFF" points="108.38,144.13 141.45,162.76 141.45,182.36 
				134.85,185.86 128.25,182.37 128.25,169.83 108.38,158.64 108.38,190.41 133.38,204.39 133.35,235.71 78.31,204.69 78.31,141.87 
				73.25,141.87 73.25,111.86 108.38,111.86 			"/>
			<polygon fill-rule="evenodd" clip-rule="evenodd" fill="#CB1517" points="77.65,116.26 82.71,116.26 103.98,116.26 
				103.98,137.47 103.98,146.7 137.05,165.34 137.05,179.72 134.85,180.88 132.65,179.72 132.65,167.25 103.98,151.11 
				103.98,192.99 128.98,206.97 128.96,228.18 82.71,202.12 82.71,137.47 77.65,137.47 			"/>
			<polygon fill-rule="evenodd" clip-rule="evenodd" fill="#FFFFFF" points="141.45,129.02 162.68,140.97 162.68,111.86 
				197.81,111.86 197.81,141.87 192.75,141.87 192.75,204.69 137.71,235.71 137.68,204.39 162.68,190.41 162.68,155.49 
				128.25,136.08 128.25,116.48 134.84,112.99 141.45,116.48 			"/>
			<polygon fill-rule="evenodd" clip-rule="evenodd" fill="#CB1517" points="137.05,119.13 137.05,131.6 167.08,148.5 
				167.08,137.47 167.08,116.26 188.35,116.26 193.41,116.26 193.41,137.47 188.35,137.47 188.35,202.12 142.1,228.18 
				142.08,206.97 167.08,193 167.08,153.45 166.34,152.5 132.65,133.51 132.65,119.13 134.85,117.97 			"/>
			<polygon fill-rule="evenodd" clip-rule="evenodd" fill="#FFFFFF" points="162.84,69.77 137.01,54.29 137.01,77.77 160.39,91.56 
				192.13,91.56 192.13,70.13 			"/>
			<polygon fill-rule="evenodd" clip-rule="evenodd" fill="#CB1517" points="186.95,74.48 186.95,87.16 161.59,87.16 141.41,75.25 
				141.41,62.06 161.59,74.16 			"/>
			<polygon fill-rule="evenodd" clip-rule="evenodd" fill="#FFFFFF" points="192.13,99.64 161.59,99.64 137.01,85.82 137.01,81.42 
				161.59,95.24 192.13,95.24 			"/>
			<polygon fill-rule="evenodd" clip-rule="evenodd" fill="#FFFFFF" points="192.13,108.65 161.59,108.65 137.01,94.82 
				137.01,90.42 161.59,104.25 192.13,104.25 			"/>
			<path fill-rule="evenodd" clip-rule="evenodd" fill="#212E66" d="M53.49,203l-20.12,20.12c23.5,30.69,60.52,50.49,102.16,50.49
				c41.65,0,78.66-19.8,102.17-50.49l-20.09-20.09l0.97-0.97l19.96,19.96c16.08-21.47,25.6-48.13,25.6-77.01
				c0-71.03-57.58-128.61-128.62-128.61C64.5,16.39,6.92,73.97,6.92,145c0,28.89,9.52,55.55,25.6,77.02l19.99-19.99L53.49,203
				L53.49,203z M135.53,14.37c72.15,0,130.64,58.48,130.64,130.63c0,72.15-58.49,130.63-130.64,130.63
				C63.38,275.63,4.89,217.15,4.89,145C4.89,72.85,63.38,14.37,135.53,14.37z"/>
			<path fill-rule="evenodd" clip-rule="evenodd" fill="#212E66" d="M14.73,135.48l-0.42-0.03l0.3-3.98l0.42,0.03l-0.11,1.42
				l11.99,0.91c0.58,0.04,1.08,0.26,1.49,0.66c0.42,0.39,0.72,0.89,0.92,1.48c0.2,0.59,0.28,1.18,0.25,1.78
				c-0.05,0.59-0.18,1.25-0.42,1.95c-0.23,0.71-0.5,1.25-0.81,1.62c-0.66,0.75-1.52,1.09-2.59,1.01l-10.44-0.79
				c-0.7-0.05-1.09,0.5-1.17,1.65l-0.42-0.03l0.36-4.76l0.42,0.03l-0.11,1.5l11.67,0.89c0.82,0.06,1.5-0.2,2.04-0.78
				c0.55-0.58,0.85-1.36,0.93-2.32c0.07-0.86-0.15-1.58-0.64-2.17c-0.49-0.58-1.11-0.91-1.85-0.96l-10.62-0.81
				c-0.69-0.05-1.08,0.37-1.14,1.25L14.73,135.48L14.73,135.48z M29.67,129.4l0.25-1.4l-11.81-2.11c-0.66-0.12-1.13-0.13-1.44-0.03
				c-0.48,0.14-0.81,0.69-0.98,1.64l-0.41-0.07l0.45-2.53l13.43-4.63l0.01-0.06l-10.29-1.84c-0.43-0.08-0.82,0.03-1.16,0.31
				c-0.35,0.29-0.57,0.69-0.66,1.2l-0.41-0.07l0.68-3.81l0.41,0.07l-0.23,1.29l15.04,2.69l-0.08,0.44l-13.51,4.73l0,0.03l9.37,1.67
				c0.72,0.13,1.25,0.02,1.59-0.31c0.22-0.27,0.39-0.72,0.5-1.36l0.41,0.07l-0.74,4.15L29.67,129.4L29.67,129.4z M32.48,115.38
				l0.43-1.53l-12.55-3.56c-0.41-0.12-0.72-0.05-0.94,0.22c-0.21,0.26-0.4,0.67-0.55,1.22l-0.4-0.11l1.32-4.65l0.4,0.11l-0.43,1.51
				l12.22,3.47c0.37,0.11,0.62,0.16,0.75,0.16c0.24,0.01,0.44-0.07,0.59-0.21c0.13-0.19,0.29-0.62,0.48-1.28l0.4,0.11l-1.33,4.67
				L32.48,115.38L32.48,115.38z M36.65,99.91l-8.58-7.22c-0.35-0.24-0.56-0.38-0.65-0.42c-0.41-0.19-0.74-0.17-0.99,0.05
				c-0.25,0.22-0.48,0.56-0.7,1.03l-0.11,0.25l-0.38-0.17l1.95-4.32l0.38,0.17l-0.63,1.4L39.04,101l-0.23,0.51l-13.64-0.89
				c-0.81-0.05-1.41-0.05-1.82,0c-0.41,0.05-0.71,0.16-0.89,0.32c-0.19,0.16-0.36,0.43-0.52,0.79l-0.22,0.48l-0.38-0.17l2.22-4.91
				l0.38,0.17l-0.78,1.73L36.65,99.91L36.65,99.91z M46.24,85.78l0.78,0.45l0.25-0.43l-4.71-2.71l-0.25,0.43l1.01,0.58
				c0.63,0.36,1.06,0.79,1.32,1.27c0.25,0.49,0.28,1.11,0.1,1.86c-0.42,0.93-0.91,1.89-1.47,2.86l-8.59-4.94
				c0.29-0.5,0.53-0.82,0.72-0.97c0.36-0.36,0.77-0.49,1.25-0.37c0.47,0.12,0.99,0.34,1.56,0.67l0.21-0.36l-4.75-2.73l-0.21,0.36
				l1.95,1.12l-1.17,2.03l-3.18-1.83l0.35-0.6c0.84-1.45,1.56-2.38,2.16-2.78c0.65-0.43,1.5-0.33,2.57,0.28l0.71,0.4l0.25-0.44
				l-4.37-2.51l-0.25,0.43l0.83,0.48l-4.23,7.35l0.36,0.21c0.29-0.5,0.56-0.83,0.83-1.01c0.27-0.18,0.6-0.16,0.98,0.06l11.27,6.48
				l-0.8,1.4l0.36,0.21L46.24,85.78L46.24,85.78z M36.87,72.53l2.14-2.47l1.07,0.93c0.39-1.98,1.13-3.64,2.22-4.98
				c0.86-0.99,1.89-1.76,3.09-2.32c1.21-0.56,2.41-0.81,3.61-0.75c1.2,0.06,2.2,0.45,3.03,1.16c0.9,0.78,1.47,1.74,1.73,2.91
				c0.26,1.16,0.21,2.37-0.16,3.64c-0.37,1.27-0.99,2.47-1.88,3.59l0.04,0.04c0.33-0.19,1.03-0.54,2.09-1.07
				c1.06-0.52,1.93-0.99,2.6-1.42c0.67-0.43,1.26-0.94,1.77-1.52c0.37-0.43,0.59-0.79,0.66-1.09l0.3-0.03
				c-0.04,0.62-0.34,1.24-0.89,1.88c-0.45,0.52-0.97,1.01-1.54,1.46c-0.57,0.45-1.1,0.82-1.58,1.12c-0.48,0.3-1.25,0.76-2.31,1.39
				c-2.06,1.08-3.81,1.91-5.26,2.5l1.58,1.37c0.25,0.21,0.46,0.33,0.62,0.36c0.17,0.03,0.34-0.02,0.51-0.15
				c0.22-0.21,0.46-0.43,0.71-0.65c0.11-0.18,0.28-0.39,0.49-0.64l0.32,0.28l-3.53,4.07l-0.32-0.28l0.99-1.14l-9.89-8.57
				c-0.51-0.44-1.08-0.28-1.72,0.46l-0.16,0.19L36.87,72.53L36.87,72.53z M40.77,71.59l6.18,5.35l-0.1-0.46
				c2.11-0.68,3.64-1.58,4.61-2.7c0.72-0.83,1.21-1.77,1.46-2.82c0.25-1.05,0.25-2.06-0.02-3.03c-0.26-0.97-0.75-1.77-1.48-2.4
				c-0.8-0.65-1.74-1.03-2.83-1.14c-1.09-0.11-2.18,0.05-3.27,0.49c-1.09,0.43-2.05,1.11-2.89,2.02
				C41.21,68.3,40.66,69.86,40.77,71.59L40.77,71.59z M58.54,48.84l-0.38,0.33l0.59,0.68c-0.78,0.33-1.35,0.64-1.69,0.94
				c-0.76,0.73-1.26,1.55-1.5,2.49c-0.23,0.93-0.07,1.71,0.49,2.36c0.43,0.49,0.93,0.8,1.51,0.92c0.58,0.12,1.19,0.12,1.83,0.01
				c0.64-0.12,1.4-0.31,2.3-0.6c0.99-0.29,1.83-0.5,2.52-0.64c0.69-0.14,1.35-0.16,1.98-0.07c0.63,0.09,1.16,0.36,1.58,0.83
				c0.51,0.59,0.79,1.3,0.81,2.13c0.03,0.83-0.17,1.68-0.6,2.53c-0.42,0.86-1.02,1.62-1.77,2.27c-0.85,0.73-1.73,1.2-2.67,1.43
				c-0.93,0.22-1.81,0.21-2.64-0.04c-0.82-0.24-1.49-0.67-2.02-1.28c-0.34-0.43-0.57-0.94-0.71-1.53c-0.12-0.59-0.1-1.18,0.08-1.77
				c0.18-0.59,0.53-1.11,1.04-1.55c0.34-0.29,0.71-0.49,1.12-0.6c0.41-0.11,0.8-0.12,1.15-0.03c0.36,0.08,0.64,0.24,0.83,0.46
				c0.46,0.53,0.43,1.1-0.09,1.73l0.22,0.42c0.26-0.15,0.45-0.26,0.55-0.35c0.44-0.38,0.68-0.83,0.73-1.34
				c0.05-0.5-0.08-0.94-0.39-1.3c-0.32-0.37-0.74-0.58-1.25-0.63c-0.52-0.05-1.06,0.04-1.62,0.26c-0.56,0.22-1.04,0.5-1.46,0.87
				c-0.67,0.58-1.16,1.26-1.48,2.06c-0.32,0.79-0.42,1.58-0.32,2.37c0.1,0.79,0.41,1.47,0.91,2.06c0.64,0.74,1.43,1.19,2.37,1.36
				c0.94,0.17,1.93,0.07,2.97-0.3c1.03-0.37,2.01-0.95,2.93-1.75c0.71-0.61,1.31-1.3,1.8-2.05c0.5-0.75,0.86-1.52,1.07-2.3
				c0.21-0.78,0.26-1.54,0.15-2.27c-0.12-0.73-0.42-1.37-0.91-1.94c-0.48-0.56-1.08-0.91-1.8-1.04c-0.71-0.14-1.45-0.14-2.22,0
				c-0.76,0.14-1.66,0.37-2.71,0.69c-0.96,0.3-1.72,0.52-2.3,0.65c-0.57,0.13-1.13,0.16-1.66,0.09c-0.53-0.07-0.97-0.32-1.33-0.73
				c-0.24-0.28-0.38-0.6-0.42-0.98c-0.04-0.38,0.03-0.75,0.2-1.14c0.17-0.38,0.42-0.73,0.76-1.05c0.74-0.64,1.42-0.81,2.05-0.54
				c0.63,0.28,1.26,0.78,1.89,1.51l0.91,1.05l0.38-0.33L58.54,48.84L58.54,48.84z M73.64,56.93l1.29-0.92l-7.56-10.63
				c-0.25-0.35-0.54-0.49-0.87-0.42c-0.33,0.07-0.73,0.27-1.19,0.6l-0.24-0.34l3.94-2.8l0.24,0.34l-1.28,0.91l7.36,10.35
				c0.22,0.31,0.39,0.51,0.49,0.59c0.19,0.16,0.39,0.22,0.59,0.2c0.23-0.07,0.62-0.3,1.18-0.7l0.24,0.34l-3.95,2.81L73.64,56.93
				L73.64,56.93z M80.05,52.32l0.19,0.37l5.29-2.71c1.31-0.67,2.38-1.36,3.21-2.06c0.83-0.71,1.47-1.4,1.9-2.09
				c0.43-0.68,0.78-1.42,1.04-2.21c0.66-1.91,0.56-3.73-0.28-5.46c-0.3-0.58-0.69-1.09-1.19-1.55c-0.49-0.45-1.04-0.83-1.66-1.14
				c-0.61-0.31-1.25-0.54-1.92-0.69c-1.02-0.2-2.07-0.21-3.14-0.01c-1.08,0.2-2.26,0.63-3.57,1.3l-6.63,3.4l0.19,0.37l0.3-0.15
				c0.86-0.44,1.46-0.34,1.79,0.31l5.92,11.57L80.05,52.32L80.05,52.32z M90.16,38.94c-0.59-1.04-1.46-1.84-2.6-2.42
				c-1.14-0.57-2.4-0.85-3.79-0.82c-1.38,0.02-2.71,0.36-4,1.02c-1.49,0.76-2.54,1.47-3.15,2.11l5.94,11.6
				c1.02-0.17,2.31-0.66,3.86-1.46c1.29-0.66,2.32-1.56,3.09-2.7c0.78-1.15,1.22-2.37,1.33-3.68
				C90.96,41.27,90.73,40.06,90.16,38.94L90.16,38.94z M107.51,40.74l-5.89-7.98l-2.14,0.61l-0.08,6.9
				c-0.01,0.64,0.04,1.18,0.17,1.62c0.09,0.33,0.25,0.55,0.47,0.64c0.22,0.09,0.54,0.09,0.97,0.01c0.24-0.04,0.63-0.13,1.17-0.28
				l0.11,0.4l-4.62,1.31l-0.11-0.4l1.1-0.31l0.01-15.88l0.49-0.14l7.82,10.6c0.26,0.38,0.54,0.76,0.83,1.15
				c0.29,0.4,0.62,0.7,0.99,0.92c0.38,0.21,0.81,0.25,1.29,0.11l0.11,0.4l-4.27,1.21l-0.11-0.4L107.51,40.74L107.51,40.74z
				 M101.32,32.29l-1.79-2.51l-0.05,0.02l0.03,3.06L101.32,32.29L101.32,32.29z M112.52,39.15l1.61-0.21l-1.64-12.89
				c-0.09-0.73-0.62-1.03-1.58-0.9l-0.33,0.04l-0.05-0.41l7.39-0.94c1.45-0.19,2.72-0.19,3.8-0.01c1.07,0.18,2.06,0.53,2.95,1.07
				c0.58,0.37,1.11,0.8,1.58,1.3c0.48,0.5,0.86,1.04,1.17,1.64c0.31,0.6,0.51,1.21,0.59,1.86c0.21,1.91-0.32,3.66-1.59,5.23
				c-0.51,0.65-1.09,1.23-1.73,1.72c-0.64,0.5-1.47,0.94-2.49,1.32c-1.02,0.38-2.26,0.67-3.72,0.85l-5.9,0.75L112.52,39.15
				L112.52,39.15z M126.58,30.01c-0.21-1.18-0.75-2.23-1.62-3.16c-0.88-0.93-1.97-1.61-3.28-2.06c-1.31-0.45-2.68-0.58-4.11-0.4
				c-1.66,0.21-2.89,0.51-3.68,0.91l1.64,12.92c1.02,0.18,2.39,0.16,4.13-0.06c1.43-0.18,2.71-0.68,3.83-1.49
				c1.12-0.81,1.95-1.82,2.51-3.01C126.55,32.47,126.74,31.26,126.58,30.01L126.58,30.01z M140.49,36.91l1.61,0.2l1.64-12.9
				c0.09-0.73-0.34-1.15-1.3-1.27l-0.33-0.04l0.05-0.41l7.39,0.94c1.45,0.18,2.68,0.5,3.68,0.94c0.99,0.44,1.86,1.03,2.59,1.78
				c0.47,0.5,0.87,1.06,1.2,1.66c0.34,0.6,0.58,1.22,0.73,1.88c0.15,0.65,0.19,1.3,0.11,1.95c-0.27,1.9-1.22,3.46-2.85,4.67
				c-0.66,0.5-1.36,0.92-2.1,1.23c-0.74,0.32-1.66,0.54-2.75,0.65c-1.08,0.12-2.35,0.08-3.81-0.1l-5.9-0.75L140.49,36.91
				L140.49,36.91z M156.39,31.58c0.09-1.19-0.17-2.35-0.78-3.46c-0.62-1.12-1.51-2.06-2.66-2.81c-1.15-0.76-2.45-1.23-3.88-1.42
				c-1.66-0.21-2.92-0.22-3.79-0.03l-1.64,12.92c0.94,0.43,2.28,0.76,4.01,0.98c1.44,0.18,2.79,0.02,4.08-0.49
				c1.29-0.51,2.35-1.27,3.18-2.29C155.73,33.95,156.23,32.82,156.39,31.58L156.39,31.58z M168.16,42.72l-8.05-2.29l0.11-0.4
				l1.55,0.44l3.55-12.5c0.12-0.43,0.06-0.74-0.18-0.97c-0.24-0.22-0.64-0.41-1.18-0.56l0.11-0.4l8.16,2.32l0.26-0.92l0.48,0.14
				l-1.37,4.85l-0.48-0.14l0.22-0.78c0.34-1.18,0.22-2.04-0.35-2.56c-0.54-0.49-1.61-0.96-3.22-1.42l-0.67-0.19l-1,3.53l2.26,0.64
				l0.61-2.17l0.4,0.11l-1.5,5.27l-0.4-0.11c0.18-0.63,0.27-1.19,0.27-1.67c0-0.49-0.22-0.86-0.66-1.12
				c-0.19-0.15-0.56-0.3-1.12-0.46l-2.71,9.54c1.08,0.31,2.13,0.55,3.13,0.73c0.77-0.01,1.36-0.19,1.77-0.55
				c0.41-0.36,0.72-0.89,0.91-1.59l0.32-1.12l0.48,0.14l-1.48,5.23l-0.48-0.14L168.16,42.72L168.16,42.72z M190.3,35.75l-0.19,0.37
				l-1.42-0.73l-6.43,12.55c0.78,0.4,1.5,0.71,2.15,0.94c0.65,0.23,1.27,0.3,1.87,0.23c0.6-0.08,1.04-0.41,1.35-1l1.67-3.27
				l0.45,0.23l-3.32,6.49l-0.45-0.23l0.41-0.81l-7.02-3.6l0.19-0.37l1.39,0.71l5.97-11.66c0.18-0.35,0.17-0.66-0.04-0.92
				c-0.21-0.26-0.56-0.51-1.05-0.76l0.19-0.37L190.3,35.75L190.3,35.75z M198.58,57.47l-1.48-0.95l-0.23,0.35l3.74,2.4l0.23-0.35
				c-0.43-0.27-0.68-0.62-0.77-1.04c-0.08-0.42-0.08-0.87,0.03-1.35c0.11-0.47,0.21-0.94,0.32-1.38l2.76-12.88l-0.43-0.27
				L190.83,52.5l-0.96-0.62l-0.23,0.35l4.04,2.59l0.23-0.35c-0.47-0.3-0.8-0.53-0.99-0.69c-0.34-0.26-0.56-0.5-0.63-0.73
				c-0.07-0.22-0.02-0.48,0.17-0.77c0.25-0.39,0.62-0.79,1.1-1.2l5.22-4.51l1.88,1.2L198.58,57.47L198.58,57.47z M200.81,47.23
				l-1.62-0.99l2.27-2.05l0.05,0.03L200.81,47.23L200.81,47.23z M226.84,62.45l-4.2,4l-0.35-0.36l1-0.96
				c0.7-0.67,1.17-1.32,1.42-1.96c0.25-0.65,0.04-1.32-0.63-2.02c-0.34-0.32-0.69-0.56-1.09-0.71c-0.39-0.15-0.77-0.2-1.14-0.14
				c-0.37,0.06-0.7,0.21-0.96,0.47c-0.39,0.38-0.62,0.83-0.66,1.37c-0.05,0.54,0.01,1.09,0.17,1.66c0.16,0.57,0.41,1.33,0.76,2.27
				c0.37,1.03,0.64,1.93,0.82,2.68c0.18,0.76,0.21,1.49,0.11,2.21c-0.1,0.72-0.42,1.34-0.96,1.85c-0.54,0.51-1.17,0.85-1.89,1
				c-0.72,0.15-1.48,0.14-2.27-0.04c-0.79-0.18-1.58-0.5-2.35-0.96c-0.78-0.46-1.49-1.03-2.13-1.71c-0.84-0.88-1.47-1.83-1.88-2.84
				c-0.42-1.02-0.57-2.01-0.44-2.95c0.13-0.95,0.54-1.76,1.25-2.43c0.56-0.53,1.23-0.87,2.01-1.01c0.78-0.14,1.57-0.07,2.38,0.21
				c0.8,0.28,1.51,0.74,2.13,1.38c0.38,0.4,0.69,0.87,0.93,1.42c0.24,0.55,0.35,1.08,0.33,1.61c-0.02,0.52-0.21,0.94-0.56,1.28
				c-0.34,0.33-0.77,0.48-1.27,0.45c-0.51-0.03-0.97-0.25-1.37-0.67c-0.09-0.1-0.22-0.27-0.38-0.53l0.41-0.24
				c0.65,0.48,1.23,0.48,1.74,0c0.21-0.2,0.35-0.49,0.42-0.85c0.07-0.36,0.04-0.74-0.09-1.15c-0.12-0.4-0.34-0.77-0.65-1.09
				c-0.46-0.49-1-0.81-1.6-0.96c-0.6-0.15-1.19-0.15-1.77,0c-0.58,0.16-1.08,0.42-1.49,0.78c-0.58,0.55-0.98,1.25-1.18,2.08
				c-0.21,0.83-0.18,1.71,0.09,2.63c0.27,0.92,0.78,1.79,1.55,2.6c0.69,0.72,1.48,1.28,2.35,1.66c0.87,0.39,1.73,0.54,2.56,0.48
				c0.82-0.07,1.52-0.37,2.09-0.91c0.44-0.45,0.69-0.99,0.75-1.62c0.06-0.63,0.01-1.29-0.16-1.97c-0.17-0.69-0.43-1.51-0.76-2.49
				c-0.32-0.88-0.56-1.63-0.71-2.26c-0.15-0.63-0.17-1.24-0.08-1.83c0.1-0.59,0.38-1.11,0.85-1.56c0.61-0.58,1.39-0.78,2.33-0.6
				c0.94,0.19,1.8,0.65,2.56,1.37c0.31,0.33,0.66,0.88,1.02,1.65l0.66-0.63L226.84,62.45L226.84,62.45z M224.1,84.91l-0.74,0.52
				l0.29,0.41l4.43-3.15l-0.29-0.41l-0.95,0.67c-0.59,0.42-1.16,0.64-1.71,0.66c-0.55,0.02-1.12-0.21-1.73-0.68
				c-0.67-0.77-1.34-1.61-1.99-2.53l8.08-5.75c0.33,0.47,0.53,0.82,0.58,1.06c0.18,0.48,0.12,0.91-0.18,1.29
				c-0.3,0.38-0.72,0.76-1.26,1.14l0.24,0.34l4.47-3.18l-0.24-0.34l-1.84,1.31l-1.36-1.91l2.99-2.13l0.4,0.56
				c0.97,1.36,1.51,2.41,1.62,3.12c0.12,0.77-0.32,1.51-1.33,2.22l-0.66,0.47l0.29,0.41l4.11-2.92l-0.29-0.41l-0.78,0.55l-4.92-6.91
				l-0.34,0.24c0.33,0.47,0.52,0.86,0.57,1.18c0.05,0.32-0.1,0.61-0.46,0.86l-10.59,7.53l-0.94-1.31l-0.34,0.24L224.1,84.91
				L224.1,84.91z M239.92,81.16l1.49,2.9l-1.26,0.65c1.7,1.1,2.95,2.41,3.78,3.93c0.59,1.16,0.92,2.41,0.99,3.74
				c0.06,1.33-0.15,2.53-0.66,3.62c-0.5,1.09-1.24,1.88-2.21,2.37c-1.06,0.54-2.17,0.71-3.35,0.52c-1.17-0.19-2.28-0.7-3.32-1.51
				c-1.04-0.82-1.92-1.85-2.62-3.09l-0.05,0.02c0.05,0.38,0.12,1.16,0.21,2.33c0.09,1.18,0.2,2.16,0.35,2.94
				c0.15,0.79,0.4,1.52,0.75,2.21c0.26,0.51,0.51,0.85,0.76,1.02l-0.08,0.29c-0.56-0.27-1.03-0.78-1.41-1.54
				c-0.32-0.62-0.57-1.27-0.78-1.97c-0.2-0.7-0.35-1.33-0.45-1.89c-0.1-0.56-0.24-1.44-0.42-2.66c-0.23-2.31-0.35-4.25-0.34-5.82
				l-1.86,0.95c-0.29,0.15-0.48,0.3-0.57,0.44c-0.09,0.14-0.11,0.32-0.05,0.53c0.11,0.29,0.23,0.59,0.33,0.9
				c0.12,0.17,0.26,0.4,0.41,0.7l-0.38,0.19l-2.46-4.79l0.38-0.19l0.69,1.34l11.65-5.97c0.59-0.3,0.66-0.89,0.21-1.77l-0.12-0.22
				L239.92,81.16L239.92,81.16z M239.34,85.13c1.64,0.55,2.88,1.64,3.73,3.3c0.53,1.12,0.8,2.26,0.79,3.44
				c0,1.18-0.26,2.25-0.77,3.22c-0.51,0.97-1.22,1.7-2.12,2.2c-0.85,0.44-1.78,0.59-2.78,0.47c-1-0.12-1.94-0.49-2.82-1.12
				c-0.88-0.63-1.57-1.43-2.07-2.41c-0.67-1.31-0.93-3.07-0.78-5.28l-0.46-0.08L239.34,85.13L239.34,85.13z M237.68,113.95
				l-0.86,0.29l0.16,0.48l5.15-1.74l-0.16-0.47l-1.1,0.37c-0.69,0.23-1.29,0.28-1.83,0.15c-0.53-0.14-1.02-0.52-1.46-1.15
				c-0.42-0.93-0.82-1.93-1.18-2.99l9.39-3.18c0.18,0.55,0.27,0.94,0.25,1.18c0.03,0.51-0.15,0.9-0.55,1.18
				c-0.4,0.28-0.91,0.52-1.53,0.73l0.14,0.4l5.19-1.76l-0.13-0.4l-2.13,0.72l-0.75-2.22l3.47-1.18l0.22,0.66
				c0.54,1.59,0.75,2.74,0.66,3.46c-0.11,0.77-0.75,1.35-1.91,1.74l-0.77,0.26l0.16,0.48l4.77-1.62l-0.16-0.48l-0.9,0.3l-2.72-8.03
				l-0.4,0.13c0.18,0.54,0.25,0.97,0.21,1.29c-0.05,0.32-0.28,0.55-0.69,0.69l-12.31,4.17l-0.52-1.53l-0.4,0.13L237.68,113.95
				L237.68,113.95z M239.54,118l0.25,1.4l11.81-2.11c0.65-0.12,1.11-0.27,1.36-0.46c0.4-0.3,0.52-0.92,0.35-1.88l0.41-0.07
				l0.45,2.53l-10.99,8.99l0.01,0.06l10.29-1.84c0.43-0.08,0.75-0.31,0.98-0.7c0.23-0.39,0.3-0.84,0.21-1.35l0.41-0.07l0.68,3.81
				l-0.41,0.07l-0.23-1.29l-15.04,2.69l-0.08-0.44l11.03-9.11l0-0.03l-9.37,1.67c-0.72,0.13-1.18,0.41-1.38,0.84
				c-0.11,0.33-0.11,0.81,0,1.45l-0.41,0.07l-0.74-4.15L239.54,118L239.54,118z M242.66,142.01l9-4.18l-0.17-2.22l-6.75-1.45
				c-0.62-0.14-1.16-0.19-1.62-0.16c-0.34,0.02-0.59,0.14-0.72,0.33c-0.13,0.2-0.2,0.51-0.2,0.94c-0.01,0.24,0,0.64,0.04,1.2
				l-0.42,0.03l-0.36-4.78l0.42-0.03l0.09,1.14l15.57,3.17l0.04,0.51l-11.94,5.55c-0.42,0.18-0.85,0.38-1.29,0.58
				c-0.45,0.21-0.81,0.47-1.1,0.79c-0.28,0.32-0.41,0.74-0.37,1.25l-0.42,0.03l-0.34-4.43l0.42-0.03L242.66,142.01L242.66,142.01z
				 M252.17,137.63l2.82-1.25l0-0.06l-3-0.58L252.17,137.63z"/>
			<path fill-rule="evenodd" clip-rule="evenodd" fill="#212E66" d="M117.02,252.58l0.3-1.31l0.44,0.1l-1.34,5.79l-0.44-0.1
				c0.24-1.06,0.37-1.86,0.37-2.42c0-0.56-0.18-1.07-0.52-1.53c-0.35-0.47-0.91-0.91-1.68-1.32c-0.77-0.41-1.57-0.71-2.4-0.9
				c-1.6-0.37-3.1-0.36-4.49,0.03c-1.39,0.39-2.54,1.04-3.46,1.97c-0.91,0.93-1.5,1.96-1.76,3.1c-0.22,0.94-0.22,1.91-0.02,2.91
				c0.2,1,0.6,1.95,1.19,2.84c0.59,0.9,1.36,1.67,2.3,2.33c0.93,0.66,1.99,1.12,3.16,1.39c1.22,0.28,2.37,0.34,3.45,0.18
				c1.08-0.16,2.05-0.46,2.9-0.89l0.35,0.61c-1.04,0.47-2.19,0.76-3.44,0.86c-1.25,0.1-2.47,0.03-3.68-0.23
				c-1.72-0.4-3.23-1.11-4.53-2.15c-1.31-1.04-2.25-2.25-2.84-3.63c-0.59-1.39-0.72-2.77-0.41-4.14c0.26-1.13,0.78-2.12,1.56-2.97
				c0.78-0.85,1.73-1.53,2.86-2.02c1.12-0.5,2.34-0.8,3.65-0.91c1.31-0.11,2.6-0.02,3.88,0.28
				C114.17,250.84,115.7,251.55,117.02,252.58L117.02,252.58z M137.73,268.61l1.61-0.04L139,255.31c-0.01-0.44-0.17-0.71-0.49-0.84
				c-0.32-0.13-0.77-0.18-1.34-0.17l-0.01-0.43l4.91-0.12l0.01,0.42l-1.59,0.04l0.33,12.9c0.01,0.39,0.04,0.65,0.08,0.78
				c0.07,0.24,0.2,0.41,0.39,0.51c0.23,0.07,0.69,0.1,1.39,0.08l0.01,0.42l-4.92,0.13L137.73,268.61L137.73,268.61z M150.41,253.14
				l0.05,0.42l-1.61,0.2l1.8,14.2c0.89-0.11,1.67-0.26,2.34-0.44c0.67-0.18,1.24-0.48,1.69-0.88c0.46-0.41,0.64-0.94,0.56-1.61
				l-0.47-3.7l0.51-0.06l0.93,7.34l-0.51,0.06l-0.12-0.91l-7.95,1.01l-0.05-0.42l1.57-0.2l-1.68-13.2c-0.05-0.4-0.24-0.65-0.56-0.75
				c-0.32-0.1-0.76-0.11-1.31-0.04l-0.05-0.42L150.41,253.14L150.41,253.14z M170.04,264.9l-8.28,1.91l-0.09-0.41l1.6-0.37
				l-2.97-12.87c-0.1-0.44-0.31-0.69-0.63-0.77c-0.32-0.08-0.76-0.05-1.33,0.08l-0.1-0.41l8.39-1.94l-0.22-0.94l0.5-0.11l1.15,4.99
				l-0.5,0.11l-0.19-0.8c-0.28-1.22-0.8-1.92-1.57-2.11c-0.72-0.17-1.91-0.07-3.56,0.31l-0.69,0.16l0.84,3.63l2.32-0.54l-0.51-2.23
				l0.41-0.09l1.25,5.43l-0.41,0.1c-0.15-0.65-0.34-1.19-0.58-1.62c-0.24-0.43-0.62-0.65-1.14-0.67c-0.24-0.04-0.65,0-1.22,0.14
				l2.26,9.81c1.11-0.25,2.16-0.56,3.14-0.89c0.68-0.38,1.12-0.84,1.31-1.36c0.19-0.52,0.2-1.14,0.04-1.86l-0.26-1.15l0.5-0.11
				l1.24,5.38l-0.5,0.11L170.04,264.9L170.04,264.9z M131.54,254.02l-1,13.1c-0.03,0.42,0.02,0.74,0.16,0.93
				c0.18,0.18,0.56,0.31,1.13,0.39c0.12-0.02,0.27-0.03,0.46-0.01l-0.03,0.42l-4.91-0.37l0.03-0.42l1.61,0.12l0.76-10l-5.79-0.44
				l-0.67,8.82c-0.04,0.56,0.09,0.93,0.4,1.1c0.19,0.09,0.62,0.16,1.32,0.21l-0.03,0.42l-4.91-0.37l0.03-0.42l1.61,0.12l1.01-13.22
				c0.05-0.7-0.42-1.1-1.42-1.17l-0.34-0.03l0.03-0.42l4.87,0.37l-0.03,0.42l-1.53-0.12l-0.29,3.76l5.79,0.44l0.21-2.7
				c0.03-0.36-0.09-0.63-0.33-0.83c-0.25-0.2-0.59-0.31-1.03-0.34l-0.39-0.03l0.03-0.42l4.91,0.37l-0.03,0.42L131.54,254.02z"/>
		</g>
		<g>
			<path fill="#FFFFFF" d="M294.53,176.48v-39.64h12.8c3.96,0,7.44,0.77,10.42,2.31c2.98,1.54,5.31,3.81,6.98,6.81
				c1.67,3,2.5,6.56,2.5,10.67c0,6.22-1.81,11.08-5.42,14.59c-3.62,3.51-8.44,5.26-14.48,5.26H294.53z M298.41,172.99h8.51
				c4.97,0,8.92-1.42,11.85-4.27c2.93-2.84,4.39-6.87,4.39-12.08c0-5.18-1.47-9.18-4.42-12.03s-6.89-4.27-11.82-4.27h-8.51V172.99z"
				/>
			<path fill="#FFFFFF" d="M336.23,176.48v-39.64h22.32v3.5h-18.44v14.42h15.06v3.5h-15.06v14.73h19.46v3.5H336.23z"/>
			<path fill="#FFFFFF" d="M383.55,176.48v-39.64h3.88v36.14h18.39v3.5H383.55z"/>
			<path fill="#FFFFFF" d="M407.72,176.48l14.53-39.64h4.18l14.53,39.64h-4.13l-4.54-12.63h-15.97l-4.51,12.63H407.72z
				 M417.46,160.46h13.65l-5.2-14.37c-0.2-0.55-0.43-1.25-0.69-2.11c-0.26-0.85-0.46-1.56-0.61-2.13l-0.22-0.88h-0.11
				c-0.57,2.17-1.08,3.87-1.54,5.12L417.46,160.46z"/>
			<path fill="#FFFFFF" d="M459.63,172.08l2.31-2.97c0.11,0.11,0.27,0.27,0.48,0.47c0.21,0.2,0.67,0.55,1.36,1.05
				c0.7,0.5,1.42,0.93,2.17,1.31c0.75,0.38,1.71,0.72,2.86,1.03c1.16,0.31,2.32,0.47,3.5,0.47c2.24,0,4.12-0.62,5.63-1.86
				c1.51-1.24,2.27-2.9,2.27-4.99c0-1.06-0.23-2.03-0.67-2.89c-0.45-0.86-1.06-1.6-1.82-2.21c-0.76-0.61-1.64-1.18-2.63-1.71
				c-0.99-0.52-2.04-1.02-3.14-1.49s-2.2-0.94-3.29-1.43c-1.09-0.49-2.13-1.04-3.12-1.65c-0.99-0.61-1.87-1.3-2.63-2.05
				c-0.76-0.75-1.37-1.66-1.82-2.74c-0.45-1.07-0.67-2.26-0.67-3.56c0-2.92,1.17-5.43,3.5-7.53c2.33-2.1,5.29-3.14,8.86-3.14
				c1.28,0,2.53,0.13,3.73,0.4c1.2,0.27,2.2,0.59,3,0.97s1.5,0.75,2.11,1.12c0.61,0.37,1.06,0.68,1.35,0.94l0.41,0.42l-1.93,3.27
				c-0.09-0.09-0.23-0.21-0.41-0.37c-0.18-0.16-0.57-0.43-1.16-0.81c-0.59-0.38-1.19-0.72-1.82-1.02c-0.62-0.29-1.42-0.56-2.38-0.81
				c-0.96-0.25-1.93-0.37-2.9-0.37c-2.44,0-4.45,0.68-6.01,2.05c-1.57,1.37-2.35,2.96-2.35,4.77c0,1.01,0.22,1.92,0.67,2.72
				c0.45,0.81,1.05,1.49,1.82,2.06c0.76,0.57,1.64,1.1,2.63,1.6c0.99,0.5,2.04,0.97,3.14,1.43c1.1,0.46,2.2,0.93,3.29,1.4
				c1.09,0.48,2.13,1.04,3.12,1.68c0.99,0.64,1.87,1.36,2.63,2.15c0.76,0.79,1.37,1.75,1.82,2.87s0.67,2.39,0.67,3.78
				c0,3.04-1.1,5.59-3.29,7.65c-2.19,2.05-5.1,3.08-8.71,3.08c-1.52,0-3-0.17-4.42-0.52c-1.42-0.35-2.61-0.77-3.55-1.27
				c-0.95-0.5-1.78-1-2.5-1.5c-0.73-0.5-1.26-0.93-1.61-1.28L459.63,172.08z"/>
			<path fill="#FFFFFF" d="M492.89,176.48v-39.64h22.32v3.5h-18.44v14.42h15.06v3.5h-15.06v14.73h19.46v3.5H492.89z"/>
			<path fill="#FFFFFF" d="M525.07,176.48v-39.64h11.73c3.32,0,5.8,0.36,7.43,1.07c1.87,0.81,3.33,2.12,4.39,3.92
				c1.05,1.81,1.58,3.9,1.58,6.29c0,2.66-0.68,4.96-2.05,6.88s-3.18,3.2-5.44,3.83v0.11c0.26,0.33,0.6,0.85,1.02,1.57l8.62,15.97
				h-4.46l-8.95-16.68h-9.99v16.68H525.07z M528.95,156.31h9.41c2.4,0,4.31-0.73,5.73-2.17c1.41-1.45,2.12-3.41,2.12-5.89
				c0-3.34-1.2-5.65-3.61-6.94c-1.19-0.64-3.07-0.96-5.64-0.96h-8.01V156.31z"/>
			<path fill="#FFFFFF" d="M560.47,176.48v-39.64h22.32v3.5h-18.44v14.42h15.06v3.5h-15.06v14.73h19.46v3.5H560.47z"/>
			<path fill="#FFFFFF" d="M592.64,176.48v-39.64h3.77l20.23,28.54c0.4,0.59,0.88,1.33,1.42,2.22c0.54,0.89,0.99,1.63,1.34,2.22
				l0.52,0.91h0.11c-0.22-2.17-0.33-3.95-0.33-5.34v-28.54h3.88v39.64h-3.77l-20.23-28.52c-0.4-0.59-0.88-1.33-1.42-2.23
				c-0.54-0.9-0.99-1.64-1.33-2.23l-0.52-0.91h-0.11c0.22,2.18,0.33,3.97,0.33,5.37v28.52H592.64z"/>
			<path fill="#FFFFFF" d="M630.08,176.48l14.53-39.64h4.18l14.53,39.64h-4.13l-4.54-12.63H638.7l-4.51,12.63H630.08z
				 M639.83,160.46h13.65l-5.2-14.37c-0.2-0.55-0.43-1.25-0.69-2.11c-0.26-0.85-0.46-1.56-0.61-2.13l-0.22-0.88h-0.11
				c-0.57,2.17-1.08,3.87-1.54,5.12L639.83,160.46z"/>
		</g>
		<g>
			<path fill="#FFFFFF" d="M294.53,201.77c0-1.4,0.25-2.72,0.76-3.97c0.5-1.24,1.19-2.31,2.06-3.19c0.87-0.89,1.92-1.59,3.14-2.1
				c1.22-0.51,2.53-0.77,3.91-0.77c0.87,0,1.72,0.09,2.53,0.26s1.48,0.38,2.01,0.63c0.53,0.25,0.99,0.5,1.39,0.75
				c0.4,0.25,0.69,0.46,0.87,0.64l0.27,0.26l-1.04,1.42c-0.06-0.05-0.15-0.13-0.27-0.23c-0.12-0.1-0.38-0.28-0.77-0.53
				c-0.4-0.25-0.81-0.47-1.24-0.66c-0.43-0.19-0.98-0.36-1.65-0.52c-0.67-0.16-1.35-0.23-2.04-0.23c-1.51,0-2.87,0.36-4.08,1.09
				c-1.21,0.72-2.15,1.71-2.83,2.96c-0.67,1.25-1.01,2.64-1.01,4.17c0,1.56,0.34,2.98,1.01,4.28c0.67,1.3,1.62,2.33,2.85,3.1
				c1.22,0.77,2.6,1.15,4.12,1.15c0.74,0,1.46-0.09,2.18-0.27c0.71-0.18,1.31-0.4,1.8-0.66s0.91-0.51,1.29-0.77
				c0.38-0.26,0.66-0.48,0.84-0.66l0.27-0.27L312,209c-0.07,0.08-0.18,0.19-0.32,0.33s-0.45,0.38-0.94,0.74
				c-0.48,0.36-0.99,0.67-1.53,0.94s-1.24,0.51-2.1,0.73c-0.86,0.22-1.74,0.33-2.64,0.33c-1.9,0-3.62-0.46-5.14-1.37
				c-1.52-0.91-2.71-2.16-3.55-3.73C294.95,205.39,294.53,203.66,294.53,201.77z"/>
			<path fill="#FFFFFF" d="M316.18,211.72v-19.66h1.93v8.96h11.41v-8.96h1.93v19.66h-1.93v-8.97h-11.41v8.97H316.18z"/>
			<path fill="#FFFFFF" d="M337.15,211.72v-19.66h1.93v19.66H337.15z"/>
			<path fill="#FFFFFF" d="M344.79,211.72v-19.66h1.93v17.93h9.12v1.73H344.79z"/>
			<path fill="#FFFFFF" d="M359.26,211.72v-19.66h11.07v1.73h-9.15v7.15h7.47v1.73h-7.47v7.3h9.65v1.73H359.26z"/>
		</g>
		<g>
			<path fill="#FFFFFF" d="M294.53,106.99V81.18h7.32v25.81c0,2.65,0.8,4.72,2.41,6.21c1.61,1.49,3.77,2.24,6.49,2.24
				s4.9-0.75,6.52-2.24c1.63-1.49,2.44-3.58,2.44-6.27V81.18h7.32v25.81c0,4.5-1.49,8.15-4.48,10.95c-2.99,2.8-6.9,4.2-11.74,4.2
				c-4.88,0-8.81-1.4-11.8-4.2C296.02,115.14,294.53,111.49,294.53,106.99z"/>
			<path fill="#FFFFFF" d="M336.67,121.46V81.18h7.32l15.26,23.25c0.45,0.68,0.96,1.54,1.53,2.58c0.57,1.04,1,1.92,1.3,2.64
				l0.51,1.02h0.11c-0.26-2.57-0.4-4.65-0.4-6.24V81.18h7.26v40.27h-7.26l-15.26-23.2c-0.45-0.68-0.96-1.54-1.53-2.58
				c-0.57-1.04-1.02-1.9-1.36-2.58l-0.45-1.08h-0.11c0.26,2.57,0.4,4.65,0.4,6.24v23.2H336.67z"/>
			<path fill="#FFFFFF" d="M379.77,121.46V81.18h7.32v40.27H379.77z"/>
			<path fill="#FFFFFF" d="M406.83,121.46l-14.69-40.27h7.88l8.85,26.26c0.23,0.68,0.46,1.51,0.71,2.5c0.25,0.98,0.44,1.8,0.6,2.44
				l0.23,0.96h0.11l0.23-0.96c0.15-0.64,0.35-1.46,0.6-2.44c0.25-0.98,0.48-1.81,0.71-2.5l8.9-26.26h7.83l-14.69,40.27H406.83z"/>
			<path fill="#FFFFFF" d="M433.83,121.46V81.18h24.11v6.3h-16.79v10.55h13.56v6.3h-13.56v10.83h17.7v6.3H433.83z"/>
			<path fill="#FFFFFF" d="M466.44,121.46V81.18h12.99c3.74,0,6.45,0.38,8.11,1.13c2.04,0.95,3.65,2.36,4.82,4.25
				c1.17,1.89,1.76,4.14,1.76,6.75c0,2.46-0.62,4.7-1.84,6.72c-1.23,2.02-2.88,3.45-4.96,4.28v0.11c0.38,0.38,0.83,1.04,1.36,1.98
				l8.28,15.03h-8.17l-8-15.03h-7.03v15.03H466.44z M473.76,100.07h6.58c1.97,0,3.52-0.56,4.65-1.67c1.13-1.12,1.7-2.67,1.7-4.68
				c0-2.08-0.55-3.64-1.65-4.68c-1.1-1.04-3.01-1.56-5.73-1.56h-5.56V100.07z"/>
			<path fill="#FFFFFF" d="M500.7,116.63l3.97-5.5c0.11,0.11,0.28,0.26,0.51,0.45c0.23,0.19,0.69,0.53,1.39,1.02
				c0.7,0.49,1.42,0.93,2.16,1.3c0.74,0.38,1.65,0.72,2.75,1.02c1.1,0.3,2.17,0.45,3.23,0.45c1.62,0,3.01-0.43,4.14-1.28
				c1.13-0.85,1.7-2.05,1.7-3.6c0-1.29-0.65-2.43-1.96-3.43c-1.3-1-2.89-1.88-4.76-2.64c-1.87-0.76-3.73-1.59-5.59-2.5
				c-1.85-0.91-3.43-2.19-4.74-3.86c-1.3-1.66-1.96-3.63-1.96-5.9c0-3.33,1.29-6.11,3.86-8.34c2.57-2.23,5.79-3.35,9.64-3.35
				c2.34,0,4.52,0.36,6.52,1.08c2,0.72,3.42,1.44,4.25,2.16l1.25,1.08l-3.18,5.96c-0.3-0.26-0.71-0.6-1.22-0.99
				s-1.54-0.92-3.09-1.56c-1.55-0.64-3.08-0.96-4.59-0.96c-1.74,0-3.19,0.45-4.34,1.36c-1.15,0.91-1.73,2.06-1.73,3.46
				c0,1.29,0.65,2.4,1.96,3.35c1.3,0.95,2.88,1.78,4.74,2.5c1.85,0.72,3.71,1.53,5.56,2.44c1.85,0.91,3.43,2.2,4.74,3.89
				c1.3,1.68,1.96,3.72,1.96,6.1c0,3.33-1.2,6.13-3.6,8.39c-2.4,2.27-5.62,3.4-9.67,3.4c-1.67,0-3.28-0.19-4.85-0.57
				c-1.57-0.38-2.88-0.83-3.94-1.36c-1.06-0.53-1.98-1.07-2.78-1.62c-0.79-0.55-1.38-1.01-1.76-1.39L500.7,116.63z"/>
			<path fill="#FFFFFF" d="M535.18,121.46V81.18h7.32v40.27H535.18z"/>
			<path fill="#FFFFFF" d="M552.71,121.46V81.18h13.73c6.28,0,11.27,1.78,14.97,5.33c3.71,3.55,5.56,8.47,5.56,14.75
				c0,6.28-1.85,11.21-5.56,14.8c-3.71,3.59-8.7,5.39-14.97,5.39H552.71z M560.02,115.16h6.01c4.16,0,7.43-1.2,9.81-3.6
				c2.38-2.4,3.57-5.83,3.57-10.29c0-4.39-1.2-7.78-3.6-10.18c-2.4-2.4-5.66-3.6-9.78-3.6h-6.01V115.16z"/>
			<path fill="#FFFFFF" d="M617.82,121.46l-3.4-10.32h-14.12l-3.4,10.32h-7.54l14.18-40.27h7.66l14.18,40.27H617.82z M607.44,88.16
				h-0.11c-0.61,2.65-1.17,4.73-1.7,6.24l-3.57,10.78h10.55l-3.57-10.78L607.44,88.16z"/>
			<path fill="#FFFFFF" d="M630.52,121.46V81.18h13.73c6.28,0,11.27,1.78,14.97,5.33c3.71,3.55,5.56,8.47,5.56,14.75
				c0,6.28-1.85,11.21-5.56,14.8c-3.71,3.59-8.7,5.39-14.97,5.39H630.52z M637.84,115.16h6.01c4.16,0,7.43-1.2,9.81-3.6
				c2.38-2.4,3.57-5.83,3.57-10.29c0-4.39-1.2-7.78-3.6-10.18c-2.4-2.4-5.66-3.6-9.78-3.6h-6.01V115.16z"/>
		</g>
	</g>
	<g>
		<rect x="0" fill="none" width="1750" height="290"/>
		<g>
			<g>
				<path fill="#FFFFFF" d="M742.01,151.68h-15.46V62.74h15.46V151.68z M801.27,99.23V62.74h15.46v88.94h-15.46v-36.99h-52.33V99.23
					H801.27z"/>
				<path fill="#FFFFFF" d="M910.39,126.69h-42.21l9.42-15.46h23.55l-15.48-25.61l-40.14,65.94h-19.91l48.24-80.41
					c1.57-2.56,3.59-4.66,6.06-6.31c2.14-1.48,4.04-2.27,5.69-2.35c1.81-0.16,3.84,0.45,6.06,1.86c2.55,1.65,4.7,3.92,6.43,6.8
					l47.25,80.41h-19.94L910.39,126.69z"/>
				<path fill="#FFFFFF" d="M994.36,151.68c-13.85,0-24.99-4.74-33.4-14.23c-7.59-8.66-11.38-19.05-11.38-31.17
					c0-11.96,3.63-21.94,10.89-29.94c8.25-9.07,19.54-13.61,33.89-13.61h50.1V78.2h-50.1c-8.91,0-16.12,2.93-21.65,8.78
					c-4.87,5.2-7.46,11.63-7.79,19.3c-0.25,8.08,2.06,14.93,6.93,20.53c5.44,6.27,12.95,9.4,22.51,9.4h50.1v15.46H994.36z"/>
				<path fill="#FFFFFF" d="M1073.66,151.68h-15.46V62.74h15.46V151.68z M1125.24,151.68h22.88l-53.07-43.54l53.07-45.4h-22.88
					l-44.16,37.85c-2.97,2.56-4.45,4.95-4.45,7.17c0,2.15,1.48,4.5,4.45,7.05L1125.24,151.68z"/>
				<path fill="#FFFFFF" d="M1235.98,126.69h-42.21l9.42-15.46h23.55l-15.48-25.61l-40.14,65.94h-19.91l48.24-80.41
					c1.57-2.56,3.59-4.66,6.06-6.31c2.14-1.48,4.04-2.27,5.69-2.35c1.81-0.16,3.84,0.45,6.06,1.86c2.56,1.65,4.7,3.92,6.43,6.8
					l47.26,80.41h-19.94L1235.98,126.69z"/>
				<path fill="#FFFFFF" d="M1322.3,78.2v73.48h-15.46V78.2h-35.13V62.74h85.6V78.2H1322.3z"/>
				<path fill="#FFFFFF" d="M1382.42,151.68h-15.46V62.74h15.46V151.68z M1441.67,99.23V62.74h15.46v88.94h-15.46v-36.99h-52.33
					V99.23H1441.67z"/>
				<path fill="#FFFFFF" d="M1668.66,147.23l-57.03-57.32v61.77h-15.46V70.53c0-2.39,0.62-4.29,1.85-5.69
					c1.24-1.4,2.85-2.1,4.83-2.1c2.89,0,5.81,1.53,8.78,4.58l57.03,57.15V62.74h15.46v81.27c0,5.69-1.94,8.54-5.81,8.54
					C1675.42,152.54,1672.2,150.77,1668.66,147.23z"/>
				<g>
					<path fill="#FFFFFF" d="M1512.4,16.74l5.9-3.89c0.99-0.65,1.27-1.99,0.61-2.98l-3.89-5.9c-0.65-0.99-1.99-1.27-2.98-0.61
						l-5.9,3.89c-0.99,0.65-1.27,1.99-0.61,2.98l3.89,5.9C1510.07,17.12,1511.41,17.39,1512.4,16.74z"/>
					<path fill="#FFFFFF" d="M1573.13,134.03c7.99-10.55,12.54-23.75,12.07-36.99c-0.8-22.36-15.85-43.57-36.7-51.69
						c-0.43-0.16-0.86-0.33-1.32-0.42l-14.02,9.24c17.79,2.25,33.6,16.06,38.17,33.41c4.62,17.54-2.53,37.58-17.21,48.23
						c-14.68,10.65-35.95,11.22-51.18,1.38c-15.24-9.84-23.47-29.46-19.8-47.23c3.62-17.51,18.56-32.11,36.13-35.39l-7.36-11.18
						c-1.39,0.32-4.61,1.68-5.06,1.86c-1.93,0.75-3.82,1.63-5.66,2.59c-3.68,1.94-7.16,4.27-10.35,6.94
						c-6.38,5.33-11.67,12-15.3,19.49c-6.89,14.21-7.1,30.95-1.49,45.61c3.28,8.59,8.53,16.45,15.45,22.53
						c16.8,14.77,42.57,18.38,62.79,8.79C1560.51,147.3,1567.63,141.3,1573.13,134.03z"/>
					<path fill="#FFFFFF" d="M1558.3,116.07c0.11-0.21,0.22-0.42,0.33-0.63c4.8-9.24,5.75-20.91,1-30.36
						c-1.8-3.8-3.93-7.51-6.88-10.52c-2.59-2.62-5.59-4.92-8.91-6.55c-0.95-0.47-1.94-0.89-2.94-1.25l3.06,4.64
						c0.43,0.66,0.25,1.55-0.41,1.98l-13.49,8.89c-0.66,0.43-1.55,0.25-1.98-0.41l-10.81-16.41c0,0-3.44,0.74-7.83,3.44
						c-0.01,0-0.01,0.01-0.01,0.01c-1.58,0.98-3.29,2.22-5.01,3.77c-0.29,0.25-0.58,0.52-0.86,0.79l6.73,10.22
						c0.21,0.32,0.12,0.75-0.2,0.96l-8.91,5.87c-0.32,0.21-0.75,0.12-0.96-0.2l-4.43-6.72c-1.09,2.59-1.98,5.26-2.6,7.98
						c-0.5,2.22-0.84,4.48-0.95,6.76c-0.01,9.31,3.43,18.54,10.19,25.12c7.68,7.48,17.24,11.59,28.2,10.43
						c5.75-0.6,11.67-2.79,16.75-6.16C1551.95,124.72,1555.83,120.73,1558.3,116.07z M1524.28,99.35c-0.49,0.32-1.15,0.19-1.48-0.3
						l-5.15-7.81c-0.32-0.49-0.19-1.15,0.3-1.48l7.82-5.15c0.49-0.32,1.15-0.19,1.48,0.3l5.15,7.81c0.32,0.49,0.19,1.16-0.3,1.48
						L1524.28,99.35z"/>
					<path fill="#FFFFFF" d="M1527.27,51.75l14.18-9.35c0.99-0.65,1.27-1.99,0.61-2.98l-9.35-14.18c-0.65-0.99-1.99-1.27-2.98-0.61
						l-14.18,9.35c-0.99,0.65-1.27,1.99-0.61,2.98l9.35,14.18C1524.94,52.13,1526.28,52.4,1527.27,51.75z"/>
					<path fill="#FFFFFF" d="M1505.86,28.15l-6.52-9.9c-0.65-0.99-1.99-1.27-2.98-0.61l-9.9,6.52c-0.99,0.65-1.27,1.99-0.61,2.98
						l6.52,9.9c0.65,0.99,1.99,1.27,2.98,0.61l9.9-6.52C1506.24,30.47,1506.52,29.14,1505.86,28.15z"/>
				</g>
			</g>
		</g>
		<g>
			<g>
				<path fill="#FFFFFF" d="M729.59,240.21v-6.35h23.35c4,0,6.8-1.65,6.8-4.8c0-3-1.95-4.65-5.5-4.65h-16.05v-5.35h15.6
					c3.6,0,5.3-1.25,5.3-4.4c0-3.35-2.35-4.5-6.55-4.5h-22.8v-6.3h24.05c7.05,0,11.7,3.2,11.7,9.4c0,4.6-2.3,6.9-5,7.75
					c3.3,1.05,5.7,3.95,5.7,8.2c0,6.6-4.6,11-11.7,11H729.59z"/>
				<path fill="#FFFFFF" d="M770.74,221.65c0-10.65,8.2-18.25,18.85-18.25c10.6,0,18.85,7.6,18.85,18.25c0,10.6-8.25,19-18.85,19
					C778.94,240.66,770.74,232.25,770.74,221.65z M789.59,209.8c-8,0-12.5,5.15-12.5,12.15c0,7,4.5,12.35,12.45,12.35
					c8,0,12.5-5.35,12.5-12.35C802.04,214.95,797.49,209.8,789.59,209.8z"/>
				<path fill="#FFFFFF" d="M834.29,213.6v26.6h-6.05v-33c0-2.35,1.25-3.8,3.25-3.8c0.95,0,1.75,0.35,2.7,1.3l25.65,25.45v-26.6
					h6.05v33.3c0,2.4-1.3,3.8-3.15,3.8c-1.05,0-2-0.45-2.9-1.35L834.29,213.6z"/>
				<path fill="#FFFFFF" d="M888.64,240.21c-10.15,0-17.65-8-17.65-18.55c0-10.7,7.5-17.8,17.65-17.8h8.85
					c10.5,0,17.8,7.25,17.8,17.8s-7.45,18.55-17.8,18.55H888.64z M897.49,233.86c6.7,0,11.45-5.05,11.45-11.9
					c0-6.85-4.75-11.75-11.45-11.75h-8.85c-6.5,0-11.3,4.85-11.3,11.75c0,6.85,4.75,11.9,11.3,11.9H897.49z"/>
				<path fill="#FFFFFF" d="M913.14,203.85h7.75l16.5,28l16.45-28h7.3l-20.95,34.8c-0.75,1.25-1.75,2.05-3.05,2.05
					c-1.4,0-2.35-0.8-3.1-2.05L913.14,203.85z"/>
				<path fill="#FFFFFF" d="M965.39,240.21v-36.35h6.35v36.35H965.39z"/>
				<path fill="#FFFFFF" d="M978.39,240.21v-36.35h32.45v6.35h-26.15v23.65h26.2v6.35H978.39z M989.34,224.4v-5.35h20.15v5.35
					H989.34z"/>
				<path fill="#FFFFFF" d="M1061.59,240.21l-6.95-25.55l-10.3,23.65c-0.7,1.55-1.7,2.4-3.25,2.4c-1.5,0-2.6-0.85-3.25-2.4
					l-10.25-23.65l-6.95,25.55h-6.25l9.35-34.2c0.45-1.75,1.45-2.6,3.15-2.6c1.35,0,2.6,0.75,3.2,2.15l11.2,25.7l11.2-25.7
					c0.6-1.4,1.7-2.15,3.05-2.15c1.55,0,2.55,0.85,3.05,2.6l9.3,34.2H1061.59z"/>
				<path fill="#FFFFFF" d="M1072.04,240.21v-36.35h26.6c7.1,0,11.8,3.2,11.8,9.4c0,4.6-2.35,6.9-5.05,7.75
					c3.3,1.05,5.7,3.95,5.7,8.2c0,6.65-4.6,11-11.7,11H1072.04z M1082.99,224.4v-5.35h15.7c3.6,0,5.3-1.25,5.3-4.4
					c0-3.85-3.05-4.45-7.75-4.45h-17.85v23.7h18.4c4.55,0,7.85-1.25,7.85-4.8c0-3-1.95-4.7-5.5-4.7H1082.99z"/>
				<path fill="#FFFFFF" d="M1150.39,240.21l-9.2-10.1h-13.6v-5.6h15.15c4.55,0,6.95-2.6,6.95-7.3s-2.6-7-6.95-7h-19.8v30h-6.3
					v-36.35h26.1c8.3,0,13.2,5.15,13.2,13.25c0,6-2.8,10.25-7.5,12.05l10.95,11.05H1150.39z"/>
				<path fill="#FFFFFF" d="M1162.69,240.21v-36.35h32.45v6.35h-26.15v23.65h26.2v6.35H1162.69z M1173.64,224.4v-5.35h20.15v5.35
					H1173.64z"/>
				<path fill="#FFFFFF" d="M1232.14,240.21v-13.8l-19.3-22.55h8.55l14.15,16.75l14.2-16.75h8.1l-19.35,22.55v13.8H1232.14z"/>
				<path fill="#FFFFFF" d="M1275.29,221.65c0-10.65,8.2-18.25,18.85-18.25c10.6,0,18.85,7.6,18.85,18.25c0,10.6-8.25,19-18.85,19
					C1283.49,240.66,1275.29,232.25,1275.29,221.65z M1294.14,209.8c-8,0-12.5,5.15-12.5,12.15c0,7,4.5,12.35,12.45,12.35
					c8,0,12.5-5.35,12.5-12.35C1306.59,214.95,1302.04,209.8,1294.14,209.8z"/>
				<path fill="#FFFFFF" d="M1324.89,240.21v-24.45c0-3.6-1.8-5.55-5.1-5.55h-3.5v-6.35h3.5c7.3,0,11.4,4.4,11.4,11.9v24.45H1324.89
					z"/>
				<path fill="#FFFFFF" d="M1352.18,240.21v-36.35h21.05c10.25,0,17.7,7.25,17.7,17.8s-7.45,18.55-17.7,18.55H1352.18z
					 M1373.24,233.86c6.55,0,11.35-5.05,11.35-11.9c0-6.85-4.8-11.75-11.35-11.75h-14.75v23.65H1373.24z"/>
				<path fill="#FFFFFF" d="M1396.49,240.21v-36.35h6.35v36.35H1396.49z"/>
				<path fill="#FFFFFF" d="M1426.08,240.21c-10.15,0-17.65-8-17.65-18.55c0-10.7,7.5-17.8,17.65-17.8h19.7v6.35h-19.7
					c-6.5,0-11.3,4.85-11.3,11.75c0,6.85,4.75,11.9,11.3,11.9h19.7v6.35H1426.08z"/>
				<path fill="#FFFFFF" d="M1451.28,240.21v-36.35h6.35v36.35H1451.28z"/>
				<path fill="#FFFFFF" d="M1464.28,240.21v-36.35h32.45v6.35h-26.15v23.65h26.2v6.35H1464.28z M1475.24,224.4v-5.35h20.15v5.35
					H1475.24z"/>
				<path fill="#FFFFFF" d="M1547.49,240.21l-6.95-25.55l-10.3,23.65c-0.7,1.55-1.7,2.4-3.25,2.4c-1.5,0-2.6-0.85-3.25-2.4
					l-10.25-23.65l-6.95,25.55h-6.25l9.35-34.2c0.45-1.75,1.45-2.6,3.15-2.6c1.35,0,2.6,0.75,3.2,2.15l11.2,25.7l11.2-25.7
					c0.6-1.4,1.7-2.15,3.05-2.15c1.55,0,2.55,0.85,3.05,2.6l9.3,34.2H1547.49z"/>
				<path fill="#FFFFFF" d="M1557.93,240.21v-36.35h26.6c7.1,0,11.8,3.2,11.8,9.4c0,4.6-2.35,6.9-5.05,7.75
					c3.3,1.05,5.7,3.95,5.7,8.2c0,6.65-4.6,11-11.7,11H1557.93z M1568.88,224.4v-5.35h15.7c3.6,0,5.3-1.25,5.3-4.4
					c0-3.85-3.05-4.45-7.75-4.45h-17.85v23.7h18.4c4.55,0,7.85-1.25,7.85-4.8c0-3-1.95-4.7-5.5-4.7H1568.88z"/>
				<path fill="#FFFFFF" d="M1636.29,240.21l-9.2-10.1h-13.6v-5.6h15.15c4.55,0,6.95-2.6,6.95-7.3s-2.6-7-6.95-7h-19.8v30h-6.3
					v-36.35h26.1c8.3,0,13.2,5.15,13.2,13.25c0,6-2.8,10.25-7.5,12.05l10.95,11.05H1636.29z"/>
				<path fill="#FFFFFF" d="M1648.58,240.21v-36.35h32.45v6.35h-26.15v23.65h26.2v6.35H1648.58z M1659.53,224.4v-5.35h20.15v5.35
					H1659.53z"/>
				<path fill="#FFFFFF" d="M1157.5,276.21v-6.39c0-4.23,2.34-6.3,6.72-6.3h7.89c1.65,0,2.76-0.99,2.76-2.64
					c0-1.65-1.05-2.67-2.76-2.67h-14.43v-3.81h14.43c4.32,0,6.69,2.61,6.69,6.12c0,3.6-2.52,6.21-6.66,6.21h-7.92
					c-2.04,0-3.12,0.96-3.12,2.82v2.85h17.34v3.81H1157.5z"/>
				<path fill="#FFFFFF" d="M1181.62,265.08c0-6.39,4.92-10.95,11.31-10.95c6.36,0,11.31,4.56,11.31,10.95
					c0,6.36-4.95,11.4-11.31,11.4C1186.54,276.48,1181.62,271.44,1181.62,265.08z M1192.93,257.97c-4.8,0-7.5,3.09-7.5,7.29
					c0,4.2,2.7,7.41,7.47,7.41c4.8,0,7.5-3.21,7.5-7.41C1200.4,261.06,1197.67,257.97,1192.93,257.97z"/>
				<path fill="#FFFFFF" d="M1207.39,276.21v-6.39c0-4.23,2.34-6.3,6.72-6.3h7.89c1.65,0,2.76-0.99,2.76-2.64
					c0-1.65-1.05-2.67-2.76-2.67h-14.43v-3.81H1222c4.32,0,6.69,2.61,6.69,6.12c0,3.6-2.52,6.21-6.66,6.21h-7.92
					c-2.04,0-3.12,0.96-3.12,2.82v2.85h17.34v3.81H1207.39z"/>
				<path fill="#FFFFFF" d="M1231.63,276.21v-3.81h14.01c2.4,0,4.08-0.99,4.08-2.88c0-1.8-1.17-2.79-3.3-2.79h-9.63v-3.21h9.36
					c2.16,0,3.18-0.75,3.18-2.64c0-2.01-1.41-2.7-3.93-2.7h-13.68v-3.78h14.43c4.23,0,7.02,1.92,7.02,5.64c0,2.76-1.38,4.14-3,4.65
					c1.98,0.63,3.42,2.37,3.42,4.92c0,3.96-2.76,6.6-7.02,6.6H1231.63z"/>
			</g>
		</g>
		<line fill="none" stroke="#FFFFFF" stroke-width="2" stroke-miterlimit="10" x1="726.89" y1="177.08" x2="1683.79" y2="177.08"/>
	</g>
</g>
</svg>
