<?xml version="1.0" encoding="utf-8"?>
<!-- Generator: Adobe Illustrator 27.9.0, SVG Export Plug-In . SVG Version: 6.00 Build 0)  -->
<svg version="1.1" id="Capa_1" xmlns="http://www.w3.org/2000/svg" xmlns:xlink="http://www.w3.org/1999/xlink" x="0px" y="0px"
	 viewBox="0 0 650 721.88" style="enable-background:new 0 0 650 721.88;" xml:space="preserve">
<style type="text/css">
	.st0{fill-rule:evenodd;clip-rule:evenodd;fill:#FFFFFF;}
	.st1{fill-rule:evenodd;clip-rule:evenodd;fill:#212E66;}
	.st2{fill-rule:evenodd;clip-rule:evenodd;fill:#CB1517;}
	.st3{fill:#212E66;}
</style>
<g>
	<g>
		
			<ellipse transform="matrix(0.7071 -0.7071 0.7071 0.7071 -68.0891 295.6247)" class="st0" cx="322.81" cy="230" rx="230" ry="230"/>
		
			<ellipse transform="matrix(0.7071 -0.7071 0.7071 0.7071 -67.9747 295.9)" class="st1" cx="323.2" cy="230" rx="180.01" ry="180.01"/>
		<polygon class="st0" points="272.71,97.56 318.18,70.31 318.18,111.64 277.02,135.92 221.14,135.92 221.14,98.2 		"/>
		<polygon class="st2" points="230.26,105.85 230.26,128.17 274.9,128.17 310.44,107.21 310.44,83.98 274.9,105.28 		"/>
		<polygon class="st0" points="221.14,150.15 274.9,150.15 318.18,125.81 318.18,118.06 274.9,142.41 221.14,142.41 		"/>
		<polygon class="st0" points="221.14,166.01 274.9,166.01 318.18,141.67 318.18,133.92 274.9,158.26 221.14,158.26 		"/>
		<polygon class="st0" points="275.4,228.47 333.62,261.27 333.62,295.78 322.01,301.94 310.38,295.79 310.38,273.71 275.4,254.02 
			275.4,309.96 319.41,334.56 319.36,389.7 222.45,335.09 222.45,224.5 213.55,224.5 213.55,171.66 275.4,171.66 		"/>
		<polygon class="st2" points="221.3,179.4 230.2,179.4 267.65,179.4 267.65,216.75 267.65,233 325.87,265.8 325.87,291.12 
			322,293.17 318.12,291.12 318.12,269.18 267.65,240.76 267.65,314.5 311.66,339.1 311.63,376.44 230.2,330.56 230.2,216.75 
			221.3,216.75 		"/>
		<polygon class="st0" points="333.62,201.87 371,222.92 371,171.66 432.84,171.66 432.84,224.5 423.94,224.5 423.94,335.09 
			327.03,389.7 326.98,334.56 371,309.95 371,248.47 310.38,214.31 310.38,179.8 321.99,173.65 333.62,179.79 		"/>
		<polygon class="st2" points="325.88,184.47 325.88,206.41 378.74,236.17 378.74,216.75 378.74,179.41 416.19,179.41 
			425.09,179.41 425.09,216.75 416.19,216.75 416.19,330.56 334.77,376.45 334.74,339.1 378.74,314.5 378.74,244.88 377.44,243.21 
			318.13,209.78 318.13,184.47 322,182.41 		"/>
		<polygon class="st0" points="371.27,97.56 325.8,70.31 325.8,111.64 366.97,135.92 422.84,135.92 422.84,98.2 		"/>
		<polygon class="st2" points="413.73,105.85 413.73,128.17 369.08,128.17 333.55,107.21 333.55,83.98 369.08,105.28 		"/>
		<polygon class="st0" points="422.84,150.15 369.08,150.15 325.8,125.81 325.8,118.06 369.08,142.41 422.84,142.41 		"/>
		<polygon class="st0" points="422.84,166.01 369.08,166.01 325.8,141.67 325.8,133.92 369.08,158.26 422.84,158.26 		"/>
		<path class="st1" d="M178.76,332.12l-35.42,35.42c41.38,54.03,106.54,88.88,179.85,88.88c73.32,0,138.49-34.86,179.87-88.9
			l-35.37-35.37l1.72-1.72l35.14,35.14c28.31-37.79,45.07-84.73,45.07-135.58c0-125.05-101.38-226.42-226.43-226.42
			c-125.05,0-226.42,101.37-226.42,226.42c0,50.86,16.77,97.79,45.07,135.59l35.19-35.19L178.76,332.12L178.76,332.12z M323.19,0.02
			c127.02,0,229.99,102.96,229.99,229.98c0,127.02-102.97,229.98-229.99,229.98c-127.01,0-229.98-102.96-229.98-229.98
			C93.21,102.99,196.18,0.02,323.19,0.02z"/>
		<path class="st1" d="M110.53,213.24l-0.73-0.06l0.54-7l0.73,0.06l-0.19,2.5l21.11,1.61c1.02,0.08,1.9,0.46,2.63,1.16
			c0.73,0.69,1.27,1.57,1.61,2.61c0.34,1.04,0.49,2.08,0.44,3.14c-0.08,1.04-0.32,2.19-0.73,3.43c-0.41,1.25-0.89,2.2-1.43,2.85
			c-1.16,1.33-2.68,1.92-4.56,1.77l-18.38-1.4c-1.22-0.09-1.91,0.87-2.07,2.9l-0.73-0.06l0.64-8.37l0.73,0.06l-0.2,2.64l20.54,1.56
			c1.44,0.11,2.63-0.35,3.59-1.38c0.96-1.03,1.5-2.39,1.63-4.09c0.12-1.51-0.26-2.79-1.13-3.81c-0.86-1.03-1.95-1.59-3.26-1.69
			l-18.7-1.42c-1.22-0.09-1.89,0.64-2.01,2.2L110.53,213.24L110.53,213.24z M136.82,202.54l0.44-2.46l-20.8-3.72
			c-1.15-0.2-1.99-0.22-2.53-0.06c-0.85,0.25-1.42,1.21-1.72,2.89l-0.72-0.13l0.8-4.45l23.64-8.15l0.02-0.1l-18.12-3.24
			c-0.75-0.13-1.43,0.05-2.05,0.56c-0.62,0.51-1.01,1.21-1.17,2.11l-0.72-0.13l1.2-6.71l0.72,0.13l-0.41,2.26l26.48,4.73l-0.14,0.77
			l-23.78,8.33l-0.01,0.05l16.49,2.95c1.27,0.23,2.21,0.04,2.8-0.55c0.39-0.47,0.68-1.27,0.88-2.39l0.73,0.13l-1.3,7.3
			L136.82,202.54L136.82,202.54z M141.77,177.87l0.76-2.69l-22.1-6.28c-0.73-0.21-1.27-0.08-1.65,0.38
			c-0.38,0.46-0.7,1.18-0.97,2.14l-0.71-0.2l2.32-8.18l0.71,0.2l-0.75,2.65l21.52,6.11c0.66,0.19,1.1,0.28,1.32,0.27
			c0.43,0.01,0.78-0.12,1.05-0.37c0.23-0.34,0.51-1.09,0.85-2.25l0.71,0.2l-2.33,8.21L141.77,177.87L141.77,177.87z M149.12,150.63
			L134,137.92c-0.61-0.42-0.99-0.67-1.14-0.74c-0.73-0.33-1.31-0.3-1.75,0.08c-0.44,0.39-0.85,0.98-1.23,1.82l-0.2,0.45l-0.67-0.3
			l3.44-7.61l0.67,0.3l-1.11,2.46l21.31,18.15l-0.4,0.89l-24.01-1.57c-1.42-0.08-2.48-0.09-3.2,0c-0.72,0.09-1.24,0.28-1.57,0.57
			c-0.33,0.29-0.63,0.76-0.92,1.39l-0.38,0.84l-0.67-0.3l3.9-8.64l0.67,0.3l-1.37,3.04L149.12,150.63L149.12,150.63z M165.99,125.75
			l1.38,0.79l0.44-0.76l-8.29-4.77l-0.44,0.77l1.78,1.02c1.1,0.64,1.88,1.38,2.32,2.24c0.44,0.86,0.5,1.95,0.18,3.27
			c-0.73,1.65-1.59,3.33-2.58,5.04l-15.13-8.7c0.51-0.88,0.93-1.45,1.27-1.71c0.64-0.64,1.37-0.86,2.2-0.65
			c0.83,0.2,1.75,0.6,2.74,1.17l0.37-0.64l-8.37-4.81l-0.37,0.64l3.44,1.98l-2.06,3.58l-5.6-3.22l0.61-1.06
			c1.47-2.55,2.74-4.18,3.81-4.9c1.14-0.75,2.65-0.58,4.52,0.5l1.24,0.71l0.44-0.77l-7.69-4.42l-0.44,0.77l1.45,0.84l-7.45,12.95
			l0.64,0.37c0.5-0.87,0.99-1.47,1.46-1.78c0.48-0.32,1.05-0.28,1.73,0.1l19.84,11.41l-1.42,2.46l0.64,0.37L165.99,125.75
			L165.99,125.75z M149.51,102.42l3.76-4.34l1.89,1.63c0.68-3.49,1.98-6.41,3.91-8.76c1.51-1.74,3.33-3.1,5.45-4.08
			c2.13-0.98,4.24-1.42,6.35-1.31c2.1,0.1,3.88,0.78,5.34,2.04c1.58,1.37,2.59,3.07,3.05,5.12c0.46,2.04,0.36,4.18-0.29,6.42
			c-0.65,2.24-1.75,4.34-3.31,6.31l0.07,0.06c0.58-0.33,1.81-0.96,3.68-1.88c1.87-0.92,3.39-1.75,4.57-2.51
			c1.19-0.76,2.22-1.65,3.11-2.67c0.66-0.76,1.04-1.39,1.17-1.91l0.54-0.06c-0.07,1.09-0.6,2.19-1.57,3.32
			c-0.8,0.92-1.7,1.78-2.71,2.57c-1.01,0.79-1.94,1.45-2.79,1.97c-0.84,0.53-2.19,1.34-4.06,2.44c-3.62,1.9-6.7,3.36-9.27,4.39
			l2.78,2.41c0.44,0.38,0.81,0.59,1.1,0.64c0.29,0.05,0.59-0.04,0.91-0.26c0.4-0.37,0.81-0.76,1.25-1.14
			c0.2-0.31,0.49-0.69,0.87-1.12l0.56,0.48l-6.21,7.17l-0.56-0.48l1.74-2.01l-17.42-15.09c-0.89-0.77-1.9-0.5-3.03,0.82l-0.29,0.33
			L149.51,102.42L149.51,102.42z M156.36,100.76l10.87,9.42l-0.17-0.8c3.71-1.2,6.41-2.78,8.11-4.75c1.27-1.47,2.13-3.12,2.58-4.97
			c0.44-1.85,0.43-3.62-0.03-5.33c-0.46-1.71-1.33-3.12-2.6-4.23c-1.41-1.14-3.06-1.81-4.98-2.01c-1.91-0.2-3.84,0.09-5.76,0.86
			c-1.92,0.76-3.62,1.95-5.09,3.55C157.15,94.97,156.17,97.72,156.36,100.76L156.36,100.76z M187.66,60.72l-0.67,0.58l1.04,1.2
			c-1.38,0.58-2.37,1.13-2.98,1.66c-1.34,1.28-2.22,2.74-2.63,4.38c-0.4,1.64-0.12,3.02,0.86,4.15c0.75,0.87,1.64,1.4,2.66,1.62
			c1.03,0.21,2.1,0.22,3.23,0.01c1.12-0.2,2.47-0.55,4.04-1.05c1.75-0.51,3.22-0.88,4.44-1.13c1.21-0.24,2.37-0.29,3.48-0.12
			c1.11,0.16,2.04,0.64,2.79,1.46c0.91,1.05,1.39,2.3,1.43,3.75c0.05,1.46-0.3,2.95-1.06,4.46c-0.75,1.51-1.79,2.85-3.12,4
			c-1.49,1.29-3.05,2.12-4.7,2.51c-1.64,0.39-3.19,0.37-4.64-0.06c-1.44-0.43-2.63-1.19-3.56-2.25c-0.6-0.75-1.01-1.65-1.24-2.69
			c-0.22-1.03-0.17-2.08,0.15-3.12c0.32-1.04,0.93-1.95,1.83-2.73c0.6-0.52,1.25-0.87,1.97-1.05c0.73-0.19,1.41-0.2,2.03-0.06
			c0.63,0.14,1.12,0.42,1.46,0.81c0.81,0.93,0.75,1.94-0.15,3.05l0.39,0.75c0.46-0.26,0.78-0.46,0.96-0.62
			c0.77-0.67,1.2-1.46,1.29-2.35c0.08-0.89-0.14-1.65-0.69-2.28c-0.56-0.65-1.3-1.01-2.21-1.1c-0.91-0.08-1.86,0.08-2.85,0.45
			c-0.98,0.38-1.84,0.89-2.57,1.52c-1.18,1.02-2.04,2.23-2.6,3.62c-0.56,1.39-0.75,2.78-0.56,4.16c0.18,1.39,0.71,2.59,1.61,3.62
			c1.13,1.3,2.51,2.1,4.17,2.4c1.65,0.3,3.4,0.12,5.23-0.53c1.82-0.65,3.54-1.67,5.16-3.07c1.24-1.08,2.3-2.28,3.18-3.61
			c0.88-1.33,1.51-2.67,1.88-4.05c0.37-1.38,0.46-2.71,0.26-3.99c-0.21-1.28-0.74-2.42-1.6-3.41c-0.85-0.98-1.91-1.6-3.16-1.84
			c-1.26-0.24-2.56-0.24-3.9,0.01c-1.34,0.25-2.93,0.66-4.78,1.22c-1.68,0.53-3.04,0.91-4.05,1.14c-1.01,0.23-1.99,0.29-2.93,0.16
			c-0.93-0.13-1.72-0.56-2.35-1.28c-0.42-0.48-0.67-1.06-0.74-1.73c-0.07-0.66,0.05-1.33,0.35-2c0.3-0.68,0.74-1.29,1.34-1.85
			c1.29-1.12,2.5-1.43,3.61-0.95c1.11,0.5,2.23,1.38,3.34,2.66l1.6,1.85l0.67-0.58L187.66,60.72L187.66,60.72z M214.24,74.96
			l2.28-1.62L203.2,54.62c-0.44-0.62-0.94-0.86-1.53-0.74c-0.59,0.12-1.29,0.48-2.1,1.06l-0.42-0.6l6.93-4.93l0.43,0.6l-2.25,1.6
			l12.96,18.23c0.39,0.55,0.68,0.9,0.86,1.04c0.33,0.28,0.68,0.39,1.05,0.36c0.39-0.12,1.08-0.53,2.07-1.23l0.43,0.6l-6.96,4.95
			L214.24,74.96L214.24,74.96z M225.52,66.83l0.34,0.65l9.32-4.77c2.3-1.18,4.19-2.39,5.65-3.63c1.47-1.24,2.58-2.47,3.34-3.67
			c0.76-1.2,1.37-2.5,1.83-3.88c1.16-3.37,0.99-6.57-0.5-9.61c-0.52-1.02-1.22-1.92-2.09-2.73c-0.87-0.8-1.83-1.47-2.92-2.01
			c-1.08-0.54-2.21-0.95-3.39-1.21c-1.79-0.36-3.64-0.36-5.52-0.01c-1.89,0.35-3.98,1.11-6.28,2.29l-11.67,5.98l0.34,0.66l0.53-0.27
			c1.52-0.78,2.56-0.59,3.15,0.55l10.43,20.37L225.52,66.83L225.52,66.83z M243.33,43.29c-1.05-1.82-2.57-3.25-4.58-4.25
			c-2.01-1.01-4.23-1.49-6.67-1.45c-2.43,0.04-4.78,0.64-7.04,1.79c-2.62,1.34-4.47,2.58-5.55,3.71l10.46,20.41
			c1.79-0.3,4.06-1.16,6.8-2.56c2.27-1.16,4.08-2.75,5.44-4.76c1.37-2.02,2.15-4.18,2.35-6.48
			C244.74,47.39,244.33,45.25,243.33,43.29L243.33,43.29z M273.87,46.45L263.5,32.4l-3.77,1.07l-0.13,12.15
			c-0.02,1.13,0.08,2.08,0.3,2.86c0.17,0.58,0.45,0.96,0.82,1.13c0.39,0.17,0.95,0.17,1.7,0.02c0.42-0.06,1.11-0.23,2.05-0.5
			l0.2,0.71l-8.13,2.31l-0.2-0.71l1.94-0.55l0.02-27.97l0.86-0.24l13.77,18.66c0.46,0.66,0.95,1.34,1.45,2.03
			c0.51,0.7,1.1,1.23,1.75,1.61c0.66,0.37,1.42,0.44,2.28,0.2l0.2,0.71L271.09,48l-0.2-0.71L273.87,46.45L273.87,46.45z
			 M262.97,31.57l-3.15-4.42l-0.09,0.03l0.05,5.38L262.97,31.57L262.97,31.57z M282.69,43.65l2.84-0.36l-2.88-22.7
			c-0.16-1.28-1.09-1.8-2.78-1.59l-0.58,0.07l-0.09-0.73l13.01-1.65c2.56-0.33,4.79-0.33,6.69-0.02c1.89,0.31,3.63,0.94,5.19,1.89
			c1.02,0.64,1.95,1.41,2.77,2.29c0.84,0.88,1.52,1.83,2.07,2.88c0.55,1.05,0.89,2.14,1.04,3.27c0.37,3.37-0.56,6.44-2.8,9.21
			c-0.9,1.14-1.91,2.16-3.04,3.03c-1.13,0.87-2.59,1.65-4.39,2.32c-1.8,0.68-3.98,1.17-6.55,1.5l-10.39,1.32L282.69,43.65
			L282.69,43.65z M307.45,27.56c-0.36-2.07-1.32-3.93-2.86-5.56c-1.55-1.63-3.47-2.84-5.77-3.63c-2.31-0.79-4.72-1.03-7.23-0.71
			c-2.92,0.37-5.09,0.91-6.48,1.6l2.89,22.75c1.79,0.32,4.21,0.29,7.27-0.1c2.53-0.32,4.77-1.2,6.74-2.63
			c1.97-1.43,3.44-3.2,4.41-5.3C307.38,31.9,307.72,29.75,307.45,27.56L307.45,27.56z M331.93,39.71l2.83,0.36l2.88-22.7
			c0.16-1.28-0.6-2.02-2.29-2.24l-0.58-0.07l0.09-0.73l13.01,1.65c2.56,0.32,4.72,0.87,6.47,1.65c1.75,0.77,3.28,1.82,4.56,3.13
			c0.83,0.88,1.53,1.86,2.11,2.91c0.59,1.06,1.01,2.15,1.28,3.31c0.27,1.15,0.33,2.3,0.18,3.43c-0.48,3.35-2.15,6.09-5.01,8.22
			c-1.15,0.88-2.39,1.61-3.7,2.17c-1.31,0.56-2.92,0.95-4.84,1.14c-1.91,0.2-4.14,0.14-6.71-0.18l-10.39-1.32L331.93,39.71
			L331.93,39.71z M359.92,30.32c0.16-2.09-0.29-4.13-1.38-6.09c-1.09-1.97-2.65-3.62-4.69-4.96c-2.03-1.34-4.3-2.17-6.82-2.5
			c-2.92-0.37-5.15-0.39-6.68-0.06l-2.89,22.75c1.65,0.76,4.01,1.33,7.06,1.72c2.53,0.32,4.91,0.03,7.18-0.86
			c2.27-0.89,4.13-2.24,5.6-4.03C358.76,34.5,359.64,32.51,359.92,30.32L359.92,30.32z M380.64,49.94l-14.16-4.02l0.2-0.71
			l2.73,0.78l6.25-22.01c0.21-0.75,0.11-1.31-0.32-1.7c-0.42-0.38-1.12-0.71-2.08-0.99l0.2-0.71l14.36,4.08l0.46-1.61l0.85,0.24
			l-2.42,8.53l-0.85-0.24l0.39-1.37c0.59-2.08,0.39-3.59-0.62-4.51c-0.95-0.86-2.84-1.7-5.67-2.5l-1.17-0.33l-1.76,6.22l3.97,1.12
			l1.08-3.81l0.71,0.2l-2.63,9.29l-0.71-0.2c0.31-1.11,0.48-2.09,0.47-2.95c0-0.86-0.39-1.51-1.17-1.97
			c-0.33-0.26-0.99-0.54-1.96-0.81l-4.77,16.79c1.9,0.54,3.74,0.97,5.52,1.28c1.35-0.01,2.4-0.33,3.12-0.97
			c0.73-0.64,1.27-1.57,1.61-2.79l0.56-1.97l0.85,0.24l-2.61,9.2l-0.85-0.24L380.64,49.94L380.64,49.94z M419.61,37.67l-0.34,0.66
			l-2.5-1.28l-11.31,22.09c1.38,0.71,2.64,1.26,3.78,1.66c1.14,0.4,2.24,0.53,3.29,0.4c1.05-0.14,1.84-0.72,2.37-1.76l2.94-5.75
			l0.79,0.4l-5.85,11.42l-0.79-0.4l0.73-1.42l-12.37-6.33l0.34-0.66l2.44,1.25l10.51-20.52c0.32-0.63,0.3-1.16-0.07-1.61
			c-0.36-0.45-0.98-0.9-1.84-1.34l0.33-0.66L419.61,37.67L419.61,37.67z M434.2,75.9l-2.6-1.67l-0.4,0.62l6.58,4.22l0.4-0.62
			c-0.75-0.48-1.2-1.09-1.36-1.84c-0.14-0.74-0.13-1.53,0.05-2.38c0.19-0.84,0.37-1.65,0.56-2.43l4.85-22.67l-0.75-0.48
			l-20.96,18.52l-1.7-1.09l-0.4,0.62l7.11,4.56l0.4-0.62c-0.83-0.53-1.41-0.93-1.73-1.21c-0.61-0.46-0.98-0.89-1.11-1.29
			c-0.13-0.39-0.03-0.85,0.29-1.36c0.44-0.68,1.08-1.39,1.94-2.12l9.19-7.95l3.3,2.12L434.2,75.9L434.2,75.9z M438.13,57.88
			l-2.86-1.74l4-3.6l0.08,0.05L438.13,57.88L438.13,57.88z M483.95,84.68l-7.39,7.05l-0.61-0.64l1.77-1.69
			c1.23-1.17,2.06-2.33,2.5-3.46c0.43-1.14,0.06-2.32-1.12-3.56c-0.59-0.57-1.22-0.98-1.92-1.25c-0.68-0.26-1.36-0.35-2.01-0.25
			c-0.66,0.1-1.23,0.37-1.69,0.82c-0.7,0.66-1.09,1.46-1.17,2.4c-0.09,0.94,0.01,1.92,0.3,2.92c0.28,1.01,0.72,2.34,1.34,4
			c0.65,1.82,1.13,3.4,1.44,4.72c0.31,1.33,0.38,2.63,0.19,3.9c-0.17,1.27-0.74,2.35-1.68,3.25c-0.95,0.9-2.06,1.49-3.33,1.76
			c-1.27,0.26-2.6,0.24-4-0.06c-1.4-0.31-2.77-0.88-4.14-1.69c-1.37-0.81-2.62-1.81-3.76-3c-1.47-1.55-2.58-3.22-3.31-5.01
			c-0.74-1.8-1-3.53-0.78-5.2c0.22-1.67,0.96-3.1,2.2-4.28c0.99-0.94,2.16-1.53,3.54-1.78c1.37-0.25,2.77-0.13,4.19,0.36
			c1.42,0.49,2.66,1.29,3.74,2.43c0.67,0.7,1.21,1.53,1.64,2.5c0.42,0.97,0.62,1.9,0.58,2.82c-0.04,0.91-0.37,1.66-0.99,2.26
			c-0.6,0.57-1.36,0.84-2.24,0.79c-0.9-0.05-1.7-0.43-2.41-1.18c-0.16-0.17-0.38-0.48-0.66-0.93l0.73-0.42
			c1.15,0.85,2.17,0.85,3.05,0.01c0.38-0.36,0.62-0.86,0.74-1.5c0.12-0.64,0.07-1.31-0.15-2.03c-0.22-0.71-0.6-1.35-1.14-1.92
			c-0.82-0.86-1.75-1.43-2.81-1.69c-1.06-0.27-2.1-0.27-3.12,0c-1.03,0.28-1.9,0.73-2.62,1.37c-1.02,0.98-1.73,2.2-2.08,3.66
			c-0.36,1.47-0.31,3.01,0.16,4.64c0.47,1.63,1.38,3.15,2.73,4.58c1.22,1.27,2.6,2.25,4.14,2.92c1.54,0.68,3.04,0.96,4.5,0.84
			c1.45-0.12,2.68-0.66,3.68-1.61c0.78-0.78,1.22-1.74,1.32-2.85c0.11-1.11,0.01-2.27-0.29-3.47c-0.3-1.21-0.75-2.66-1.34-4.38
			c-0.57-1.55-0.98-2.88-1.24-3.99c-0.26-1.11-0.3-2.19-0.14-3.22c0.17-1.04,0.67-1.95,1.49-2.74c1.08-1.03,2.44-1.38,4.1-1.05
			c1.66,0.33,3.16,1.14,4.5,2.42c0.55,0.58,1.15,1.55,1.8,2.9l1.16-1.1L483.95,84.68L483.95,84.68z M479.12,124.22l-1.3,0.92
			l0.51,0.72l7.79-5.55l-0.51-0.72l-1.67,1.19c-1.03,0.74-2.04,1.13-3,1.17c-0.96,0.04-1.98-0.36-3.04-1.2
			c-1.19-1.36-2.36-2.84-3.51-4.45l14.23-10.12c0.59,0.83,0.93,1.45,1.03,1.86c0.32,0.84,0.21,1.6-0.32,2.27
			c-0.53,0.67-1.27,1.34-2.21,2l0.43,0.6l7.87-5.59l-0.43-0.6l-3.23,2.3l-2.39-3.36l5.26-3.74l0.71,0.99
			c1.71,2.4,2.66,4.23,2.86,5.5c0.21,1.35-0.57,2.65-2.34,3.91l-1.17,0.83l0.51,0.72l7.23-5.14l-0.51-0.72l-1.37,0.97l-8.65-12.17
			l-0.6,0.43c0.58,0.82,0.92,1.52,1.01,2.08c0.09,0.57-0.18,1.07-0.81,1.52l-18.65,13.26l-1.65-2.32l-0.6,0.43L479.12,124.22
			L479.12,124.22z M506.98,117.61l2.62,5.11l-2.22,1.14c2.98,1.94,5.2,4.24,6.66,6.91c1.05,2.05,1.63,4.24,1.75,6.58
			c0.11,2.34-0.27,4.46-1.16,6.38c-0.88,1.91-2.18,3.31-3.89,4.18c-1.86,0.95-3.82,1.26-5.89,0.91c-2.06-0.34-4.02-1.23-5.84-2.66
			c-1.83-1.44-3.37-3.25-4.61-5.44l-0.09,0.04c0.09,0.66,0.21,2.04,0.37,4.11c0.15,2.08,0.36,3.8,0.62,5.18
			c0.26,1.39,0.7,2.68,1.32,3.89c0.46,0.89,0.9,1.49,1.33,1.8l-0.15,0.52c-0.98-0.48-1.8-1.38-2.48-2.7
			c-0.56-1.08-1.01-2.24-1.37-3.48c-0.36-1.23-0.62-2.34-0.79-3.32c-0.17-0.98-0.42-2.54-0.74-4.68c-0.41-4.07-0.61-7.48-0.6-10.24
			l-3.28,1.68c-0.51,0.26-0.85,0.53-1,0.78c-0.16,0.25-0.19,0.56-0.09,0.94c0.2,0.51,0.4,1.04,0.59,1.59
			c0.21,0.29,0.46,0.71,0.72,1.22l-0.66,0.34l-4.32-8.44l0.66-0.34l1.21,2.36l20.52-10.5c1.04-0.53,1.17-1.57,0.38-3.12l-0.2-0.39
			L506.98,117.61L506.98,117.61z M505.95,124.6c2.89,0.96,5.07,2.9,6.56,5.8c0.94,1.97,1.4,3.98,1.39,6.05
			c0,2.07-0.46,3.96-1.36,5.66c-0.9,1.7-2.14,2.99-3.73,3.87c-1.5,0.77-3.13,1.04-4.89,0.83c-1.76-0.21-3.41-0.86-4.96-1.97
			c-1.55-1.1-2.76-2.52-3.65-4.25c-1.19-2.31-1.64-5.41-1.37-9.3l-0.81-0.14L505.95,124.6L505.95,124.6z M503.03,175.34l-1.51,0.51
			l0.28,0.84l9.06-3.07l-0.28-0.84l-1.94,0.65c-1.21,0.41-2.28,0.49-3.21,0.26c-0.94-0.24-1.79-0.92-2.57-2.03
			c-0.75-1.64-1.44-3.4-2.08-5.27l16.53-5.6c0.32,0.96,0.47,1.66,0.45,2.08c0.06,0.9-0.26,1.59-0.97,2.08
			c-0.7,0.49-1.6,0.92-2.69,1.29l0.24,0.7l9.14-3.09l-0.24-0.7l-3.76,1.27l-1.32-3.91l6.12-2.07l0.39,1.16
			c0.95,2.79,1.33,4.82,1.16,6.09c-0.19,1.35-1.31,2.37-3.37,3.07l-1.35,0.46l0.28,0.84l8.4-2.84l-0.28-0.84l-1.59,0.54l-4.79-14.14
			l-0.7,0.23c0.32,0.96,0.45,1.72,0.37,2.28c-0.08,0.57-0.49,0.98-1.22,1.22l-21.68,7.34l-0.91-2.69l-0.7,0.23L503.03,175.34
			L503.03,175.34z M506.31,182.48l0.44,2.46l20.8-3.72c1.15-0.21,1.95-0.48,2.4-0.82c0.71-0.53,0.91-1.63,0.61-3.31l0.72-0.13
			l0.8,4.45l-19.35,15.83l0.02,0.1l18.12-3.24c0.75-0.13,1.33-0.54,1.73-1.23c0.4-0.69,0.52-1.48,0.36-2.38l0.73-0.13l1.2,6.71
			l-0.72,0.13l-0.4-2.26l-26.48,4.73l-0.14-0.77l19.43-16.05l-0.01-0.05l-16.49,2.95c-1.27,0.23-2.08,0.72-2.43,1.48
			c-0.2,0.58-0.2,1.43,0,2.55l-0.72,0.13l-1.3-7.3L506.31,182.48L506.31,182.48z M511.79,224.74l15.84-7.37l-0.3-3.91l-11.88-2.55
			c-1.1-0.24-2.05-0.34-2.86-0.27c-0.6,0.04-1.04,0.24-1.27,0.58c-0.24,0.35-0.36,0.9-0.36,1.66c-0.02,0.43,0,1.13,0.08,2.11
			l-0.73,0.06l-0.64-8.42l0.74-0.06l0.15,2.01l27.4,5.59l0.07,0.89l-21.03,9.78c-0.74,0.32-1.5,0.66-2.28,1.02
			c-0.78,0.36-1.42,0.83-1.93,1.4c-0.5,0.57-0.72,1.3-0.65,2.19l-0.73,0.06l-0.59-7.79l0.73-0.06L511.79,224.74L511.79,224.74z
			 M528.55,217.02l4.96-2.21l-0.01-0.1l-5.29-1.02L528.55,217.02z"/>
		<path class="st1" d="M290.61,419.4l0.53-2.31l0.78,0.18l-2.35,10.2l-0.78-0.18c0.43-1.86,0.65-3.28,0.64-4.27
			c0-0.98-0.31-1.88-0.92-2.7c-0.62-0.82-1.61-1.6-2.96-2.32c-1.36-0.73-2.76-1.25-4.22-1.59c-2.81-0.65-5.45-0.63-7.9,0.05
			c-2.46,0.68-4.48,1.83-6.08,3.46c-1.6,1.63-2.64,3.45-3.1,5.46c-0.38,1.66-0.39,3.37-0.04,5.13c0.36,1.76,1.06,3.43,2.1,5.01
			c1.04,1.58,2.39,2.94,4.05,4.09c1.64,1.15,3.5,1.97,5.57,2.44c2.15,0.5,4.18,0.6,6.08,0.32c1.9-0.29,3.61-0.81,5.1-1.56l0.62,1.08
			c-1.83,0.82-3.86,1.33-6.05,1.51c-2.19,0.18-4.35,0.04-6.49-0.4c-3.02-0.7-5.69-1.96-7.98-3.79c-2.3-1.82-3.96-3.96-5-6.39
			c-1.03-2.44-1.28-4.87-0.72-7.29c0.46-1.98,1.37-3.73,2.75-5.23c1.37-1.5,3.05-2.69,5.04-3.56c1.98-0.87,4.12-1.41,6.42-1.6
			c2.3-0.19,4.57-0.03,6.82,0.49C285.6,416.33,288.29,417.59,290.61,419.4L290.61,419.4z M327.07,447.62l2.84-0.07l-0.59-23.33
			c-0.02-0.77-0.31-1.26-0.87-1.49c-0.56-0.23-1.36-0.32-2.37-0.3l-0.02-0.75l8.64-0.22l0.02,0.75l-2.8,0.07l0.57,22.71
			c0.02,0.69,0.06,1.15,0.14,1.37c0.12,0.42,0.35,0.72,0.68,0.9c0.4,0.12,1.21,0.17,2.44,0.14l0.02,0.75l-8.67,0.22L327.07,447.62
			L327.07,447.62z M349.4,420.39l0.09,0.74l-2.83,0.36l3.18,25c1.56-0.2,2.93-0.46,4.13-0.78c1.18-0.32,2.18-0.84,2.98-1.55
			c0.81-0.72,1.13-1.66,0.98-2.84l-0.83-6.51l0.89-0.11l1.64,12.93l-0.89,0.11l-0.21-1.61l-14,1.78l-0.09-0.74l2.77-0.35
			l-2.95-23.23c-0.09-0.71-0.42-1.14-0.98-1.31c-0.57-0.17-1.34-0.19-2.31-0.07l-0.1-0.74L349.4,420.39L349.4,420.39z M383.95,441.1
			l-14.58,3.36l-0.17-0.73l2.81-0.65l-5.22-22.65c-0.18-0.77-0.55-1.22-1.12-1.36c-0.56-0.13-1.34-0.09-2.34,0.14l-0.17-0.73
			l14.78-3.41l-0.38-1.66l0.88-0.2l2.03,8.78l-0.88,0.2l-0.33-1.42c-0.5-2.14-1.41-3.38-2.76-3.71c-1.26-0.31-3.36-0.12-6.27,0.55
			l-1.21,0.28l1.47,6.39l4.09-0.94l-0.91-3.93l0.73-0.17l2.2,9.55l-0.73,0.17c-0.26-1.14-0.6-2.09-1.03-2.85
			c-0.42-0.76-1.09-1.15-2-1.19c-0.43-0.07-1.14,0.01-2.15,0.24l3.99,17.28c1.95-0.45,3.81-0.98,5.54-1.57
			c1.2-0.68,1.97-1.47,2.31-2.39c0.33-0.92,0.35-2.01,0.06-3.27l-0.47-2.02L383,433l2.19,9.47l-0.88,0.2L383.95,441.1L383.95,441.1z
			 M316.17,421.94L314.41,445c-0.06,0.74,0.04,1.29,0.28,1.64c0.32,0.31,0.98,0.54,2,0.7c0.2-0.04,0.47-0.05,0.8-0.02l-0.06,0.74
			l-8.65-0.66l0.06-0.74l2.83,0.22l1.34-17.6l-10.2-0.78l-1.18,15.53c-0.07,0.98,0.16,1.63,0.7,1.93c0.33,0.16,1.1,0.28,2.32,0.38
			l-0.06,0.74l-8.65-0.66l0.06-0.75l2.83,0.22l1.77-23.27c0.1-1.24-0.74-1.93-2.5-2.06l-0.6-0.05l0.06-0.75l8.57,0.65l-0.06,0.74
			l-2.69-0.2l-0.51,6.62l10.2,0.78l0.36-4.76c0.05-0.63-0.15-1.12-0.58-1.46c-0.44-0.34-1.05-0.54-1.82-0.6l-0.7-0.05l0.06-0.75
			l8.65,0.66l-0.06,0.75L316.17,421.94z"/>
	</g>
	<g>
		<path class="st3" d="M2.2,659.43v-69.59h22.47c6.96,0,13.06,1.35,18.29,4.06c5.24,2.71,9.32,6.69,12.25,11.96
			c2.93,5.27,4.4,11.51,4.4,18.73c0,10.92-3.17,19.46-9.52,25.61c-6.35,6.15-14.82,9.23-25.42,9.23H2.2z M9.01,653.29h14.93
			c8.73,0,15.67-2.5,20.81-7.49c5.14-4.99,7.71-12.06,7.71-21.21c0-9.09-2.59-16.12-7.76-21.12c-5.17-4.99-12.09-7.49-20.76-7.49
			H9.01V653.29z"/>
		<path class="st3" d="M75.41,659.43v-69.59h39.19v6.14H82.22v25.32h26.43v6.14H82.22v25.85h34.17v6.14H75.41z"/>
		<path class="st3" d="M158.48,659.43v-69.59h6.81v63.45h32.28v6.14H158.48z"/>
		<path class="st3" d="M200.91,659.43l25.52-69.59h7.35l25.52,69.59h-7.25l-7.97-22.18h-28.03l-7.93,22.18H200.91z M218.02,631.3
			h23.97l-9.13-25.23c-0.36-0.97-0.76-2.2-1.21-3.7c-0.45-1.5-0.81-2.75-1.06-3.74l-0.39-1.55h-0.19c-1,3.8-1.9,6.8-2.71,8.99
			L218.02,631.3z"/>
		<path class="st3" d="M292.06,651.7l4.06-5.22c0.19,0.19,0.48,0.47,0.85,0.82c0.37,0.35,1.17,0.97,2.39,1.84
			c1.22,0.87,2.5,1.63,3.82,2.29c1.32,0.66,3,1.26,5.03,1.81c2.03,0.55,4.08,0.82,6.14,0.82c3.93,0,7.22-1.09,9.88-3.26
			c2.66-2.17,3.99-5.1,3.99-8.77c0-1.87-0.4-3.56-1.18-5.07c-0.79-1.51-1.85-2.81-3.19-3.89c-1.34-1.08-2.88-2.08-4.62-2.99
			c-1.74-0.92-3.58-1.79-5.51-2.61c-1.93-0.82-3.86-1.66-5.78-2.51c-1.92-0.85-3.75-1.82-5.48-2.9c-1.74-1.08-3.28-2.28-4.62-3.6
			c-1.34-1.32-2.4-2.92-3.19-4.8c-0.79-1.88-1.18-3.97-1.18-6.25c0-5.13,2.05-9.54,6.14-13.22c4.09-3.68,9.28-5.52,15.56-5.52
			c2.25,0,4.44,0.24,6.55,0.71c2.11,0.47,3.87,1.04,5.27,1.7s2.64,1.32,3.7,1.97c1.06,0.65,1.85,1.2,2.37,1.65l0.72,0.73l-3.38,5.75
			c-0.16-0.16-0.4-0.38-0.73-0.65c-0.32-0.27-1-0.75-2.03-1.43c-1.03-0.68-2.09-1.27-3.19-1.79c-1.1-0.51-2.49-0.99-4.18-1.42
			c-1.69-0.43-3.39-0.65-5.1-0.65c-4.28,0-7.8,1.2-10.56,3.6c-2.75,2.4-4.13,5.19-4.13,8.38c0,1.77,0.39,3.36,1.18,4.78
			c0.79,1.42,1.85,2.62,3.19,3.62c1.34,1,2.88,1.93,4.62,2.8c1.74,0.87,3.58,1.71,5.51,2.51c1.93,0.8,3.86,1.63,5.78,2.46
			c1.92,0.84,3.75,1.82,5.48,2.94c1.74,1.13,3.28,2.38,4.62,3.77c1.34,1.38,2.4,3.07,3.19,5.05c0.79,1.98,1.18,4.19,1.18,6.64
			c0,5.35-1.93,9.82-5.78,13.43c-3.85,3.61-8.95,5.41-15.3,5.41c-2.67,0-5.26-0.31-7.76-0.92c-2.5-0.61-4.58-1.35-6.23-2.22
			c-1.66-0.87-3.13-1.75-4.4-2.63c-1.27-0.89-2.22-1.63-2.83-2.25L292.06,651.7z"/>
		<path class="st3" d="M350.44,659.43v-69.59h39.19v6.14h-32.38v25.32h26.44v6.14h-26.44v25.85h34.17v6.14H350.44z"/>
		<path class="st3" d="M406.93,659.43v-69.59h20.59c5.83,0,10.18,0.63,13.05,1.88c3.29,1.42,5.85,3.71,7.71,6.89
			c1.85,3.17,2.78,6.86,2.78,11.04c0,4.67-1.2,8.7-3.6,12.08c-2.4,3.38-5.58,5.62-9.54,6.72v0.19c0.45,0.58,1.05,1.5,1.79,2.75
			l15.13,28.03h-7.83l-15.71-29.29h-17.54v29.29H406.93z M413.74,624.01h16.53c4.22,0,7.57-1.27,10.05-3.82
			c2.48-2.55,3.72-5.99,3.72-10.34c0-5.86-2.11-9.92-6.33-12.18c-2.1-1.13-5.4-1.69-9.91-1.69h-14.06V624.01z"/>
		<path class="st3" d="M469.08,659.43v-69.59h39.19v6.14h-32.38v25.32h26.44v6.14h-26.44v25.85h34.17v6.14H469.08z"/>
		<path class="st3" d="M525.57,659.43v-69.59h6.62l35.52,50.11c0.71,1.03,1.54,2.33,2.49,3.89c0.95,1.56,1.73,2.86,2.34,3.89
			l0.92,1.59h0.19c-0.39-3.8-0.58-6.93-0.58-9.38v-50.11h6.81v69.59h-6.62l-35.52-50.07c-0.71-1.03-1.54-2.34-2.49-3.91
			c-0.95-1.58-1.73-2.88-2.34-3.91l-0.92-1.59h-0.19c0.39,3.83,0.58,6.98,0.58,9.42v50.07H525.57z"/>
		<path class="st3" d="M591.3,659.43l25.52-69.59h7.34l25.52,69.59h-7.25l-7.97-22.18h-28.03l-7.93,22.18H591.3z M608.4,631.3h23.97
			l-9.13-25.23c-0.35-0.97-0.76-2.2-1.21-3.7c-0.45-1.5-0.81-2.75-1.06-3.74l-0.39-1.55h-0.19c-1,3.8-1.9,6.8-2.71,8.99L608.4,631.3
			z"/>
	</g>
	<g>
		<path class="st3" d="M259.09,703.8c0-2.46,0.44-4.78,1.33-6.97c0.89-2.18,2.09-4.05,3.62-5.61c1.53-1.56,3.36-2.79,5.51-3.69
			c2.15-0.9,4.44-1.36,6.87-1.36c1.53,0,3.01,0.15,4.44,0.46c1.42,0.3,2.6,0.68,3.52,1.12c0.93,0.44,1.74,0.88,2.45,1.32
			c0.7,0.44,1.21,0.81,1.53,1.11l0.48,0.46l-1.82,2.49c-0.11-0.1-0.27-0.23-0.48-0.41c-0.21-0.18-0.66-0.48-1.35-0.92
			c-0.7-0.44-1.42-0.83-2.18-1.16c-0.76-0.34-1.73-0.64-2.9-0.91c-1.17-0.27-2.37-0.41-3.58-0.41c-2.65,0-5.04,0.64-7.17,1.91
			c-2.13,1.27-3.78,3.01-4.96,5.2c-1.18,2.2-1.77,4.64-1.77,7.32c0,2.73,0.59,5.24,1.77,7.52c1.18,2.28,2.85,4.09,5,5.44
			c2.15,1.35,4.56,2.03,7.23,2.03c1.29,0,2.57-0.16,3.82-0.48c1.25-0.32,2.31-0.7,3.15-1.15c0.85-0.45,1.6-0.9,2.27-1.36
			c0.66-0.46,1.15-0.84,1.47-1.16l0.48-0.48l1.97,2.4c-0.13,0.14-0.32,0.34-0.56,0.58c-0.25,0.24-0.8,0.67-1.64,1.29
			c-0.85,0.62-1.74,1.17-2.69,1.64s-2.17,0.9-3.68,1.28c-1.51,0.38-3.06,0.58-4.64,0.58c-3.34,0-6.35-0.8-9.03-2.41
			c-2.68-1.61-4.76-3.79-6.23-6.54C259.83,710.17,259.09,707.13,259.09,703.8z"/>
		<path class="st3" d="M297.12,721.28v-34.53h3.38v15.73h20.04v-15.73h3.38v34.53h-3.38v-15.75H300.5v15.75H297.12z"/>
		<path class="st3" d="M333.95,721.28v-34.53h3.38v34.53H333.95z"/>
		<path class="st3" d="M347.35,721.28v-34.53h3.38v31.48h16.02v3.05H347.35z"/>
		<path class="st3" d="M372.76,721.28v-34.53h19.44v3.05h-16.06v12.56h13.12v3.05h-13.12v12.83h16.95v3.05H372.76z"/>
	</g>
	<g>
		<path class="st3" d="M0,537.44v-45.31h12.84v45.31c0,4.65,1.41,8.28,4.23,10.9c2.82,2.62,6.62,3.93,11.4,3.93
			c4.78,0,8.6-1.31,11.45-3.93c2.85-2.62,4.28-6.29,4.28-11v-45.21h12.85v45.31c0,7.9-2.62,14.31-7.87,19.22
			c-5.24,4.91-12.12,7.37-20.61,7.37c-8.56,0-15.47-2.45-20.71-7.37C2.62,551.74,0,545.34,0,537.44z"/>
		<path class="st3" d="M73.98,562.83v-70.7h12.84l26.79,40.82c0.8,1.19,1.69,2.71,2.69,4.53c1,1.83,1.76,3.37,2.29,4.63l0.9,1.79
			h0.2c-0.47-4.51-0.7-8.16-0.7-10.95v-40.82h12.75v70.7h-12.75L92.2,522.1c-0.8-1.19-1.69-2.7-2.69-4.53
			c-1-1.83-1.79-3.34-2.39-4.53l-0.8-1.89h-0.2c0.46,4.51,0.7,8.16,0.7,10.95v40.73H73.98z"/>
		<path class="st3" d="M149.66,562.83v-70.7h12.84v70.7H149.66z"/>
		<path class="st3" d="M197.15,562.83l-25.79-70.7h13.84l15.53,46.1c0.4,1.19,0.81,2.66,1.24,4.38c0.43,1.73,0.78,3.15,1.05,4.28
			l0.4,1.69h0.2l0.4-1.69c0.26-1.13,0.61-2.55,1.05-4.28c0.43-1.73,0.85-3.19,1.24-4.38l15.63-46.1h13.74l-25.79,70.7H197.15z"/>
		<path class="st3" d="M244.55,562.83v-70.7h42.32v11.05h-29.47v18.52h23.8v11.05h-23.8v19.02h31.07v11.05H244.55z"/>
		<path class="st3" d="M301.8,562.83v-70.7h22.8c6.57,0,11.32,0.66,14.24,1.99c3.58,1.66,6.4,4.15,8.46,7.47
			c2.06,3.32,3.09,7.27,3.09,11.85c0,4.32-1.08,8.25-3.24,11.8c-2.16,3.55-5.06,6.06-8.71,7.52v0.2c0.66,0.66,1.46,1.83,2.39,3.48
			l14.54,26.39h-14.34l-14.04-26.39h-12.35v26.39H301.8z M314.64,525.29h11.55c3.45,0,6.17-0.98,8.16-2.94
			c1.99-1.96,2.99-4.7,2.99-8.22c0-3.65-0.96-6.39-2.89-8.21c-1.93-1.83-5.28-2.74-10.06-2.74h-9.76V525.29z"/>
		<path class="st3" d="M361.94,554.37l6.97-9.66c0.2,0.2,0.5,0.47,0.9,0.8c0.4,0.33,1.21,0.93,2.44,1.79
			c1.23,0.86,2.49,1.63,3.78,2.29c1.29,0.66,2.9,1.26,4.83,1.79c1.92,0.53,3.82,0.8,5.68,0.8c2.85,0,5.28-0.75,7.27-2.24
			c1.99-1.49,2.99-3.6,2.99-6.32c0-2.26-1.15-4.26-3.44-6.02c-2.29-1.76-5.08-3.3-8.36-4.63c-3.29-1.33-6.56-2.79-9.81-4.38
			c-3.25-1.59-6.02-3.85-8.31-6.77c-2.29-2.92-3.44-6.37-3.44-10.36c0-5.84,2.26-10.72,6.77-14.64c4.51-3.92,10.16-5.88,16.93-5.88
			c4.11,0,7.93,0.63,11.45,1.89c3.52,1.26,6.01,2.52,7.47,3.78l2.19,1.89l-5.58,10.46c-0.53-0.46-1.24-1.05-2.14-1.74
			c-0.9-0.7-2.71-1.61-5.43-2.74c-2.72-1.13-5.41-1.69-8.07-1.69c-3.05,0-5.59,0.8-7.62,2.39c-2.03,1.59-3.04,3.62-3.04,6.07
			c0,2.26,1.15,4.22,3.43,5.87c2.29,1.66,5.06,3.12,8.31,4.38c3.25,1.26,6.51,2.69,9.76,4.28c3.25,1.59,6.02,3.87,8.31,6.82
			c2.29,2.95,3.44,6.52,3.44,10.7c0,5.84-2.11,10.75-6.32,14.74c-4.22,3.98-9.87,5.97-16.98,5.97c-2.92,0-5.76-0.33-8.51-1
			c-2.76-0.66-5.06-1.46-6.92-2.39c-1.86-0.93-3.49-1.87-4.88-2.84c-1.39-0.96-2.42-1.78-3.09-2.44L361.94,554.37z"/>
		<path class="st3" d="M422.48,562.83v-70.7h12.85v70.7H422.48z"/>
		<path class="st3" d="M453.25,562.83v-70.7h24.1c11.02,0,19.78,3.12,26.29,9.36c6.5,6.24,9.76,14.87,9.76,25.89
			c0,11.02-3.25,19.68-9.76,25.99c-6.51,6.31-15.27,9.46-26.29,9.46H453.25z M466.09,551.78h10.55c7.3,0,13.04-2.11,17.23-6.32
			c4.18-4.22,6.27-10.24,6.27-18.07c0-7.7-2.11-13.66-6.32-17.87c-4.22-4.22-9.94-6.32-17.18-6.32h-10.55V551.78z"/>
		<path class="st3" d="M567.55,562.83l-5.97-18.12h-24.79l-5.97,18.12h-13.24l24.89-70.7h13.44l24.89,70.7H567.55z M549.33,504.38
			h-0.2c-1.06,4.65-2.06,8.3-2.99,10.95l-6.27,18.92h18.52l-6.27-18.92L549.33,504.38z"/>
		<path class="st3" d="M589.86,562.83v-70.7h24.1c11.02,0,19.78,3.12,26.29,9.36c6.5,6.24,9.76,14.87,9.76,25.89
			c0,11.02-3.25,19.68-9.76,25.99c-6.51,6.31-15.27,9.46-26.29,9.46H589.86z M602.7,551.78h10.55c7.3,0,13.04-2.11,17.23-6.32
			c4.18-4.22,6.27-10.24,6.27-18.07c0-7.7-2.11-13.66-6.32-17.87c-4.22-4.22-9.94-6.32-17.18-6.32H602.7V551.78z"/>
	</g>
</g>
</svg>
