<?xml version="1.0" encoding="utf-8"?>
<!-- Generator: Adobe Illustrator 28.1.0, SVG Export Plug-In . SVG Version: 6.00 Build 0)  -->
<svg version="1.1" id="Capa_1" xmlns="http://www.w3.org/2000/svg" xmlns:xlink="http://www.w3.org/1999/xlink" x="0px" y="0px"
	 viewBox="0 0 1617.7 380" style="enable-background:new 0 0 1617.7 380;" xml:space="preserve">
<style type="text/css">
	.st0{fill:#2B307B;}
	.st1{fill:#96BF1E;}
	.st2{fill:#905431;}
</style>
<g>
	<g>
		<path class="st0" d="M530.44,368.55c0,0.43-0.01,0.82-0.05,1.14c-0.02,0.31-0.07,0.59-0.12,0.81c-0.06,0.22-0.13,0.41-0.22,0.57
			c-0.08,0.16-0.23,0.34-0.42,0.54c-0.19,0.2-0.57,0.47-1.14,0.79c-0.55,0.32-1.24,0.63-2.04,0.93c-0.81,0.29-1.74,0.54-2.78,0.73
			c-1.03,0.19-2.16,0.29-3.38,0.29c-2.37,0-4.5-0.36-6.4-1.09c-1.9-0.73-3.52-1.82-4.85-3.26c-1.33-1.44-2.36-3.26-3.07-5.42
			c-0.71-2.16-1.07-4.69-1.07-7.57c0-2.93,0.4-5.54,1.17-7.81c0.79-2.29,1.88-4.19,3.27-5.72c1.41-1.55,3.08-2.72,5.05-3.52
			c1.96-0.81,4.13-1.2,6.48-1.2c0.96,0,1.89,0.07,2.78,0.23c0.89,0.16,1.71,0.36,2.47,0.63c0.76,0.26,1.43,0.55,2.04,0.89
			c0.61,0.34,1.02,0.63,1.27,0.87c0.23,0.23,0.41,0.43,0.49,0.6c0.08,0.16,0.16,0.36,0.22,0.61c0.06,0.25,0.08,0.54,0.12,0.88
			c0.04,0.34,0.05,0.76,0.05,1.25c0,0.53-0.01,0.97-0.06,1.36c-0.02,0.38-0.11,0.67-0.19,0.9c-0.08,0.23-0.19,0.4-0.32,0.52
			c-0.13,0.11-0.26,0.16-0.42,0.16c-0.26,0-0.6-0.16-1.01-0.47s-0.94-0.66-1.58-1.03c-0.64-0.38-1.42-0.73-2.32-1.03
			c-0.89-0.31-1.97-0.47-3.21-0.47c-1.37,0-2.59,0.28-3.67,0.83c-1.08,0.55-1.98,1.36-2.74,2.39c-0.76,1.03-1.33,2.3-1.72,3.76
			c-0.4,1.48-0.59,3.14-0.59,4.98c0,2.03,0.2,3.79,0.63,5.26c0.42,1.49,1.01,2.71,1.78,3.67c0.77,0.96,1.71,1.68,2.8,2.15
			c1.09,0.47,2.32,0.7,3.69,0.7c1.24,0,2.32-0.14,3.24-0.43c0.9-0.29,1.68-0.61,2.33-0.97c0.66-0.36,1.18-0.67,1.59-0.96
			c0.42-0.28,0.75-0.42,0.97-0.42c0.18,0,0.32,0.02,0.42,0.11c0.11,0.07,0.19,0.22,0.26,0.42c0.07,0.22,0.13,0.52,0.16,0.89
			C530.42,367.41,530.44,367.92,530.44,368.55z"/>
		<path class="st0" d="M566.12,356.13c0,2.86-0.35,5.42-1.07,7.67c-0.72,2.25-1.77,4.16-3.18,5.75c-1.41,1.58-3.14,2.78-5.22,3.6
			c-2.08,0.83-4.47,1.24-7.19,1.24c-2.69,0-5.03-0.35-7.02-1.05c-2-0.7-3.67-1.77-5-3.21c-1.33-1.44-2.33-3.27-2.99-5.5
			c-0.67-2.23-1-4.85-1-7.89c0-2.79,0.35-5.3,1.07-7.53c0.72-2.24,1.77-4.13,3.18-5.69c1.41-1.56,3.14-2.77,5.22-3.6
			c2.08-0.83,4.47-1.25,7.2-1.25c2.61,0,4.92,0.35,6.92,1.03c2,0.69,3.67,1.76,5.02,3.2c1.35,1.43,2.36,3.26,3.04,5.45
			C565.75,350.56,566.12,353.14,566.12,356.13z M558.74,356.51c0-1.82-0.14-3.46-0.42-4.94c-0.28-1.48-0.77-2.74-1.44-3.81
			c-0.69-1.05-1.59-1.88-2.73-2.45c-1.14-0.57-2.56-0.87-4.27-0.87c-1.72,0-3.15,0.32-4.31,0.97c-1.15,0.66-2.09,1.52-2.79,2.6
			c-0.72,1.08-1.21,2.36-1.5,3.8c-0.29,1.44-0.43,2.98-0.43,4.61c0,1.89,0.14,3.58,0.42,5.08c0.28,1.5,0.76,2.79,1.43,3.86
			c0.67,1.07,1.58,1.89,2.72,2.44c1.14,0.55,2.57,0.83,4.29,0.83s3.15-0.32,4.33-0.96c1.15-0.64,2.09-1.5,2.79-2.61
			c0.72-1.09,1.21-2.38,1.5-3.86C558.6,359.72,558.74,358.16,558.74,356.51z"/>
		<path class="st0" d="M612.19,372.82c0,0.18-0.05,0.34-0.14,0.48c-0.11,0.14-0.28,0.26-0.53,0.35c-0.26,0.08-0.6,0.16-1.02,0.22
			c-0.42,0.06-0.96,0.08-1.62,0.08c-0.64,0-1.17-0.02-1.59-0.08c-0.42-0.06-0.76-0.12-1.01-0.22c-0.25-0.08-0.42-0.2-0.53-0.35
			s-0.16-0.31-0.16-0.48v-28.07h-0.06l-9.99,28.05c-0.07,0.23-0.19,0.42-0.35,0.57s-0.38,0.28-0.66,0.36
			c-0.28,0.08-0.63,0.14-1.05,0.18c-0.42,0.02-0.94,0.05-1.55,0.05c-0.6,0-1.13-0.02-1.55-0.07c-0.42-0.05-0.77-0.12-1.05-0.22
			c-0.28-0.11-0.49-0.22-0.66-0.36s-0.26-0.31-0.32-0.52l-9.65-28.05h-0.06v28.07c0,0.18-0.05,0.34-0.14,0.48
			c-0.11,0.14-0.28,0.26-0.54,0.35c-0.26,0.08-0.61,0.16-1.02,0.22c-0.42,0.06-0.95,0.08-1.61,0.08c-0.64,0-1.17-0.02-1.59-0.08
			c-0.42-0.06-0.77-0.12-1.02-0.22c-0.26-0.08-0.43-0.2-0.53-0.35c-0.11-0.14-0.14-0.31-0.14-0.48v-30.73c0-0.9,0.23-1.59,0.72-2.08
			c0.48-0.48,1.13-0.72,1.91-0.72h4.59c0.82,0,1.52,0.07,2.1,0.2c0.59,0.13,1.09,0.35,1.52,0.67c0.42,0.32,0.79,0.72,1.07,1.23
			c0.28,0.52,0.53,1.13,0.75,1.89l7.47,20.54h0.11l7.73-20.51c0.23-0.75,0.48-1.37,0.76-1.9c0.28-0.52,0.6-0.94,0.96-1.25
			c0.36-0.31,0.79-0.54,1.29-0.69c0.49-0.13,1.08-0.2,1.74-0.2h4.71c0.48,0,0.89,0.06,1.24,0.19c0.35,0.13,0.63,0.31,0.84,0.54
			s0.4,0.53,0.52,0.88s0.18,0.75,0.18,1.18v30.77L612.19,372.82L612.19,372.82z"/>
		<path class="st0" d="M647.86,360.94c0,2.12-0.31,4-0.94,5.69c-0.63,1.67-1.54,3.08-2.74,4.23c-1.21,1.15-2.71,2.03-4.47,2.65
			c-1.78,0.6-3.81,0.9-6.13,0.9c-2.16,0-4.1-0.28-5.83-0.82c-1.72-0.54-3.19-1.36-4.37-2.47c-1.18-1.09-2.1-2.47-2.73-4.13
			c-0.63-1.64-0.95-3.56-0.95-5.77v-20.98c0-0.18,0.06-0.34,0.16-0.48c0.11-0.14,0.29-0.26,0.57-0.35s0.63-0.16,1.08-0.22
			c0.43-0.06,1.01-0.07,1.71-0.07c0.67,0,1.23,0.02,1.68,0.07c0.43,0.06,0.81,0.13,1.07,0.22s0.46,0.2,0.57,0.35
			c0.12,0.14,0.18,0.31,0.18,0.48v20.37c0,1.37,0.16,2.56,0.52,3.56c0.34,1.01,0.82,1.84,1.44,2.5s1.38,1.15,2.26,1.48
			c0.88,0.34,1.85,0.49,2.95,0.49c1.09,0,2.09-0.16,2.95-0.52c0.88-0.34,1.61-0.83,2.2-1.48c0.59-0.65,1.07-1.44,1.41-2.39
			c0.32-0.95,0.49-2.03,0.49-3.25v-20.77c0-0.18,0.06-0.34,0.16-0.48c0.11-0.14,0.29-0.26,0.55-0.35c0.26-0.08,0.63-0.16,1.08-0.22
			s1.02-0.07,1.7-0.07s1.23,0.02,1.67,0.07c0.43,0.06,0.79,0.13,1.05,0.22c0.26,0.08,0.46,0.2,0.55,0.35
			c0.11,0.14,0.16,0.31,0.16,0.48L647.86,360.94L647.86,360.94z"/>
		<path class="st0" d="M683.8,371.33c0,0.41-0.07,0.77-0.22,1.09c-0.14,0.32-0.34,0.59-0.57,0.81c-0.23,0.22-0.53,0.36-0.84,0.47
			c-0.34,0.11-0.66,0.14-1,0.14h-2.98c-0.63,0-1.15-0.06-1.61-0.19c-0.46-0.12-0.88-0.35-1.25-0.69c-0.37-0.34-0.75-0.77-1.11-1.33
			c-0.35-0.55-0.76-1.29-1.2-2.18l-8.58-16.13c-0.49-0.96-1.01-2-1.52-3.11s-0.97-2.19-1.38-3.25h-0.06
			c0.07,1.29,0.13,2.56,0.16,3.82c0.02,1.26,0.06,2.59,0.06,3.93v18.05c0,0.18-0.05,0.34-0.14,0.48c-0.11,0.14-0.26,0.26-0.52,0.36
			c-0.23,0.11-0.57,0.18-0.97,0.22c-0.41,0.06-0.94,0.08-1.58,0.08c-0.63,0-1.14-0.02-1.55-0.08c-0.41-0.06-0.73-0.13-0.96-0.22
			c-0.23-0.11-0.4-0.22-0.48-0.36c-0.08-0.14-0.13-0.31-0.13-0.48v-30.99c0-0.83,0.25-1.47,0.73-1.89c0.48-0.42,1.08-0.63,1.79-0.63
			h3.75c0.67,0,1.24,0.06,1.71,0.18c0.47,0.12,0.88,0.31,1.24,0.57s0.7,0.63,1.02,1.11c0.32,0.47,0.64,1.05,0.97,1.74l6.72,12.62
			c0.4,0.76,0.77,1.52,1.15,2.25c0.38,0.73,0.75,1.48,1.11,2.2c0.35,0.73,0.7,1.47,1.03,2.18c0.34,0.72,0.67,1.42,0.97,2.13h0.02
			c-0.06-1.24-0.08-2.54-0.12-3.88c-0.02-1.35-0.05-2.65-0.05-3.86v-16.18c0-0.18,0.06-0.34,0.16-0.48
			c0.11-0.14,0.28-0.26,0.53-0.38c0.25-0.11,0.57-0.18,0.97-0.23c0.41-0.05,0.94-0.07,1.58-0.07c0.6,0,1.11,0.02,1.52,0.07
			c0.41,0.05,0.73,0.12,0.95,0.23c0.22,0.11,0.38,0.23,0.47,0.38c0.08,0.14,0.13,0.31,0.13,0.48v31.01h0.06V371.33z"/>
		<path class="st0" d="M698.35,372.82c0,0.18-0.06,0.34-0.18,0.48c-0.12,0.14-0.31,0.26-0.57,0.35c-0.25,0.08-0.63,0.16-1.07,0.22
			s-1.01,0.08-1.71,0.08c-0.67,0-1.24-0.02-1.7-0.08c-0.46-0.06-0.82-0.12-1.08-0.22c-0.26-0.08-0.46-0.2-0.57-0.35
			c-0.12-0.14-0.18-0.31-0.18-0.48v-32.57c0-0.18,0.06-0.34,0.18-0.48c0.12-0.14,0.31-0.26,0.59-0.35s0.63-0.16,1.08-0.22
			c0.43-0.06,1.01-0.07,1.68-0.07c0.69,0,1.25,0.02,1.71,0.07c0.43,0.06,0.81,0.13,1.07,0.22s0.46,0.2,0.57,0.35
			c0.12,0.14,0.18,0.31,0.18,0.48L698.35,372.82L698.35,372.82z"/>
		<path class="st0" d="M734.52,356.03c0,3.15-0.41,5.87-1.24,8.11c-0.83,2.25-2.02,4.08-3.55,5.51c-1.55,1.42-3.42,2.47-5.64,3.13
			c-2.22,0.66-4.85,1-7.9,1h-8.24c-0.59,0-1.08-0.18-1.48-0.53s-0.6-0.9-0.6-1.7v-30.06c0-0.79,0.2-1.35,0.6-1.7
			s0.89-0.53,1.48-0.53h8.85c3.07,0,5.69,0.36,7.82,1.08c2.15,0.72,3.94,1.78,5.41,3.2c1.47,1.42,2.59,3.15,3.34,5.23
			C734.14,350.88,734.52,353.3,734.52,356.03z M727.26,356.26c0-1.64-0.19-3.15-0.57-4.56c-0.38-1.41-1-2.61-1.84-3.66
			c-0.84-1.03-1.92-1.84-3.26-2.41c-1.33-0.59-3.07-0.87-5.22-0.87h-3.55v23.45h3.66c1.91,0,3.54-0.25,4.85-0.75
			c1.31-0.49,2.41-1.24,3.28-2.25s1.54-2.25,1.97-3.74C727.05,360,727.26,358.27,727.26,356.26z"/>
		<path class="st0" d="M767.25,371.17c0.22,0.64,0.35,1.14,0.4,1.52c0.06,0.38-0.01,0.66-0.22,0.83c-0.19,0.19-0.54,0.31-1.03,0.35
			c-0.49,0.05-1.18,0.07-2.04,0.07c-0.9,0-1.61-0.01-2.12-0.05c-0.51-0.04-0.89-0.07-1.15-0.16c-0.26-0.07-0.46-0.19-0.55-0.34
			c-0.1-0.14-0.19-0.34-0.26-0.55l-2.32-6.93h-12.95l-2.19,6.74c-0.07,0.25-0.16,0.46-0.28,0.63c-0.12,0.18-0.31,0.31-0.55,0.4
			c-0.26,0.11-0.63,0.16-1.09,0.2c-0.47,0.02-1.08,0.06-1.85,0.06c-0.82,0-1.47-0.02-1.91-0.08c-0.46-0.06-0.79-0.18-0.96-0.38
			c-0.18-0.2-0.23-0.49-0.19-0.87c0.06-0.38,0.19-0.88,0.4-1.49l10.64-30.6c0.11-0.31,0.23-0.54,0.38-0.73
			c0.16-0.19,0.36-0.34,0.69-0.42c0.31-0.11,0.75-0.16,1.29-0.19c0.55-0.02,1.29-0.05,2.19-0.05c1.05,0,1.89,0.01,2.5,0.05
			c0.63,0.02,1.11,0.08,1.44,0.19c0.35,0.11,0.6,0.25,0.75,0.43c0.14,0.19,0.28,0.47,0.38,0.81L767.25,371.17z M751.42,345.87h-0.02
			l-4.88,14.66h9.78L751.42,345.87z"/>
		<path class="st0" d="M800.71,356.03c0,3.15-0.41,5.87-1.24,8.11c-0.83,2.25-2.02,4.08-3.55,5.51c-1.55,1.42-3.42,2.47-5.64,3.13
			c-2.22,0.66-4.85,1-7.9,1h-8.24c-0.59,0-1.08-0.18-1.48-0.53c-0.4-0.35-0.6-0.9-0.6-1.7v-30.06c0-0.79,0.2-1.35,0.6-1.7
			s0.89-0.53,1.48-0.53H783c3.07,0,5.69,0.36,7.82,1.08c2.15,0.72,3.94,1.78,5.41,3.2c1.47,1.42,2.59,3.15,3.34,5.23
			C800.34,350.88,800.71,353.3,800.71,356.03z M793.47,356.26c0-1.64-0.19-3.15-0.57-4.56c-0.38-1.41-1-2.61-1.84-3.66
			c-0.84-1.03-1.92-1.84-3.26-2.41c-1.34-0.59-3.07-0.87-5.22-0.87h-3.55v23.45h3.66c1.91,0,3.54-0.25,4.85-0.75
			c1.31-0.49,2.41-1.24,3.28-2.25c0.88-1.01,1.54-2.25,1.97-3.74C793.25,360,793.47,358.27,793.47,356.26z"/>
		<path class="st0" d="M837.78,370.85c0,0.53-0.02,0.97-0.07,1.35c-0.05,0.36-0.12,0.67-0.2,0.9c-0.08,0.23-0.2,0.41-0.34,0.53
			c-0.13,0.11-0.29,0.16-0.47,0.16h-15.82c-0.59,0-1.08-0.18-1.48-0.53c-0.4-0.35-0.6-0.9-0.6-1.7v-31.32
			c0-0.18,0.06-0.34,0.18-0.48c0.12-0.14,0.31-0.26,0.57-0.35c0.26-0.08,0.63-0.16,1.08-0.22s1.02-0.07,1.7-0.07
			c0.69,0,1.25,0.02,1.71,0.07c0.43,0.06,0.81,0.13,1.07,0.22c0.26,0.08,0.46,0.2,0.57,0.35c0.12,0.14,0.18,0.31,0.18,0.48v27.75
			h10.85c0.18,0,0.34,0.05,0.47,0.14c0.13,0.11,0.25,0.26,0.34,0.48c0.08,0.22,0.16,0.52,0.2,0.88
			C837.74,369.87,837.78,370.32,837.78,370.85z"/>
		<path class="st0" d="M871.97,356.13c0,2.86-0.35,5.42-1.07,7.67c-0.72,2.25-1.77,4.16-3.18,5.75c-1.41,1.58-3.14,2.78-5.22,3.6
			c-2.08,0.83-4.47,1.24-7.19,1.24c-2.69,0-5.03-0.35-7.02-1.05c-2-0.7-3.67-1.77-5-3.21c-1.33-1.44-2.33-3.27-2.99-5.5
			c-0.67-2.23-1-4.85-1-7.89c0-2.79,0.35-5.3,1.07-7.53c0.72-2.24,1.77-4.13,3.18-5.69c1.41-1.56,3.14-2.77,5.22-3.6
			c2.08-0.83,4.47-1.25,7.2-1.25c2.61,0,4.92,0.35,6.92,1.03c2,0.69,3.67,1.76,5.02,3.2c1.35,1.43,2.36,3.26,3.04,5.45
			C871.63,350.56,871.97,353.14,871.97,356.13z M864.63,356.51c0-1.82-0.14-3.46-0.42-4.94c-0.28-1.48-0.77-2.74-1.44-3.81
			c-0.69-1.05-1.59-1.88-2.73-2.45c-1.14-0.57-2.56-0.87-4.27-0.87c-1.72,0-3.15,0.32-4.31,0.97c-1.15,0.66-2.09,1.52-2.79,2.6
			c-0.72,1.08-1.21,2.36-1.5,3.8c-0.29,1.44-0.43,2.98-0.43,4.61c0,1.89,0.14,3.58,0.42,5.08c0.28,1.5,0.76,2.79,1.43,3.86
			s1.58,1.89,2.72,2.44c1.14,0.55,2.57,0.83,4.29,0.83s3.15-0.32,4.33-0.96c1.15-0.64,2.09-1.5,2.79-2.61
			c0.72-1.09,1.21-2.38,1.5-3.86C864.47,359.72,864.63,358.16,864.63,356.51z"/>
		<path class="st0" d="M905.53,344.64c0,0.52-0.02,0.96-0.07,1.33c-0.05,0.38-0.11,0.67-0.19,0.89c-0.07,0.22-0.18,0.38-0.29,0.47
			s-0.25,0.13-0.41,0.13c-0.23,0-0.6-0.16-1.13-0.48c-0.52-0.32-1.2-0.67-2.04-1.03c-0.84-0.38-1.88-0.72-3.05-1.03
			c-1.18-0.32-2.56-0.48-4.13-0.48c-1.67,0-3.19,0.29-4.53,0.87c-1.35,0.59-2.5,1.41-3.46,2.45c-0.96,1.05-1.7,2.32-2.2,3.81
			c-0.51,1.49-0.77,3.13-0.77,4.92c0,1.97,0.26,3.72,0.79,5.22s1.25,2.77,2.19,3.76c0.94,1,2.08,1.78,3.4,2.3
			c1.33,0.52,2.79,0.77,4.39,0.77c0.79,0,1.55-0.08,2.32-0.26c0.76-0.18,1.48-0.43,2.13-0.81v-8h-6.53c-0.32,0-0.57-0.2-0.75-0.6
			c-0.18-0.4-0.26-1.08-0.26-2.04c0-0.49,0.02-0.93,0.07-1.25c0.05-0.34,0.12-0.61,0.2-0.82c0.08-0.2,0.19-0.35,0.32-0.46
			c0.12-0.11,0.26-0.14,0.42-0.14h11.64c0.28,0,0.54,0.05,0.76,0.14c0.22,0.11,0.42,0.25,0.59,0.43c0.18,0.19,0.29,0.43,0.38,0.7
			c0.08,0.28,0.13,0.59,0.13,0.95v13.72c0,0.53-0.08,1-0.28,1.41c-0.19,0.4-0.57,0.72-1.14,0.95c-0.59,0.23-1.29,0.47-2.15,0.72
			c-0.84,0.25-1.74,0.47-2.65,0.64c-0.9,0.18-1.84,0.31-2.78,0.4c-0.94,0.08-1.88,0.13-2.8,0.13c-2.74,0-5.22-0.4-7.4-1.18
			c-2.18-0.79-4.02-1.95-5.52-3.44c-1.5-1.5-2.66-3.33-3.46-5.5s-1.2-4.61-1.2-7.34c0-2.83,0.42-5.36,1.29-7.61
			c0.84-2.25,2.06-4.16,3.62-5.72c1.56-1.58,3.45-2.78,5.66-3.61c2.2-0.83,4.68-1.25,7.4-1.25c1.49,0,2.85,0.11,4.08,0.31
			c1.23,0.2,2.3,0.46,3.21,0.75c0.93,0.29,1.68,0.61,2.29,0.95c0.6,0.34,1.02,0.63,1.27,0.88c0.23,0.25,0.41,0.6,0.53,1.05
			C905.48,343.1,905.53,343.75,905.53,344.64z"/>
		<path class="st0" d="M919.68,372.82c0,0.18-0.06,0.34-0.18,0.48c-0.12,0.14-0.31,0.26-0.57,0.35s-0.63,0.16-1.07,0.22
			s-1.01,0.08-1.71,0.08c-0.67,0-1.24-0.02-1.7-0.08c-0.46-0.06-0.82-0.12-1.08-0.22c-0.26-0.08-0.46-0.2-0.57-0.35
			c-0.12-0.14-0.18-0.31-0.18-0.48v-32.57c0-0.18,0.06-0.34,0.18-0.48c0.12-0.14,0.31-0.26,0.59-0.35s0.63-0.16,1.08-0.22
			c0.43-0.06,1.01-0.07,1.68-0.07c0.69,0,1.25,0.02,1.71,0.07c0.43,0.06,0.81,0.13,1.07,0.22c0.26,0.08,0.46,0.2,0.57,0.35
			c0.12,0.14,0.18,0.31,0.18,0.48L919.68,372.82L919.68,372.82z"/>
		<path class="st0" d="M947.65,363.44c0,1.82-0.34,3.4-1.01,4.76c-0.67,1.37-1.59,2.51-2.74,3.42c-1.15,0.93-2.5,1.61-4.05,2.06
			c-1.55,0.47-3.2,0.69-4.96,0.69c-1.18,0-2.3-0.11-3.32-0.29c-1.02-0.19-1.92-0.42-2.71-0.7c-0.79-0.28-1.43-0.57-1.96-0.87
			c-0.53-0.31-0.9-0.57-1.13-0.81c-0.23-0.23-0.4-0.57-0.49-1c-0.11-0.43-0.14-1.07-0.14-1.89c0-0.55,0.01-1.01,0.06-1.38
			c0.02-0.38,0.08-0.67,0.18-0.9c0.07-0.23,0.19-0.4,0.32-0.49c0.13-0.11,0.29-0.14,0.47-0.14c0.25,0,0.6,0.14,1.05,0.43
			c0.46,0.29,1.03,0.61,1.74,0.97c0.72,0.35,1.56,0.69,2.54,0.97c0.97,0.29,2.13,0.43,3.42,0.43c0.84,0,1.62-0.11,2.3-0.31
			c0.67-0.2,1.24-0.49,1.72-0.87c0.47-0.38,0.83-0.83,1.08-1.38c0.25-0.55,0.38-1.17,0.38-1.84c0-0.79-0.22-1.44-0.64-2.02
			c-0.42-0.55-0.97-1.05-1.67-1.49c-0.69-0.43-1.47-0.84-2.33-1.23s-1.77-0.79-2.69-1.21c-0.93-0.42-1.83-0.9-2.69-1.44
			c-0.88-0.54-1.65-1.18-2.33-1.95c-0.69-0.76-1.24-1.65-1.67-2.67c-0.42-1.03-0.64-2.26-0.64-3.72c0-1.65,0.31-3.1,0.93-4.35
			c0.61-1.25,1.43-2.3,2.49-3.11c1.03-0.83,2.26-1.44,3.68-1.85c1.42-0.41,2.91-0.61,4.49-0.61c0.82,0,1.64,0.06,2.45,0.19
			s1.58,0.29,2.3,0.52c0.72,0.22,1.35,0.46,1.9,0.72c0.55,0.26,0.93,0.48,1.09,0.67c0.18,0.18,0.29,0.34,0.36,0.46
			c0.06,0.13,0.12,0.29,0.16,0.49c0.05,0.2,0.07,0.47,0.08,0.77c0.01,0.31,0.02,0.7,0.02,1.15c0,0.52-0.01,0.95-0.05,1.3
			c-0.02,0.35-0.07,0.64-0.13,0.88c-0.06,0.23-0.14,0.4-0.26,0.52c-0.12,0.11-0.28,0.16-0.47,0.16c-0.19,0-0.52-0.13-0.94-0.38
			c-0.42-0.25-0.95-0.53-1.58-0.82s-1.35-0.55-2.16-0.81c-0.82-0.25-1.71-0.36-2.69-0.36c-0.76,0-1.43,0.08-2,0.28
			c-0.57,0.19-1.03,0.43-1.43,0.77c-0.38,0.34-0.67,0.73-0.84,1.18c-0.19,0.47-0.28,0.95-0.28,1.47c0,0.76,0.2,1.43,0.63,1.98
			c0.42,0.55,0.97,1.05,1.68,1.49c0.7,0.43,1.49,0.84,2.38,1.23c0.89,0.38,1.79,0.79,2.72,1.21s1.83,0.9,2.72,1.44
			c0.89,0.54,1.68,1.2,2.37,1.95c0.69,0.76,1.25,1.65,1.68,2.66C947.44,360.85,947.65,362.04,947.65,363.44z"/>
		<path class="st0" d="M975.43,342.18c0,0.52-0.02,0.95-0.07,1.31c-0.05,0.36-0.12,0.66-0.2,0.88c-0.08,0.22-0.2,0.38-0.34,0.49
			c-0.13,0.11-0.28,0.16-0.43,0.16h-8.64v27.79c0,0.18-0.06,0.34-0.18,0.48c-0.12,0.14-0.31,0.26-0.57,0.35
			c-0.26,0.08-0.63,0.16-1.08,0.22s-1.02,0.08-1.7,0.08c-0.67,0-1.24-0.02-1.7-0.08c-0.46-0.06-0.82-0.12-1.08-0.22
			c-0.26-0.08-0.46-0.2-0.57-0.35c-0.12-0.14-0.18-0.31-0.18-0.48v-27.79h-8.64c-0.18,0-0.34-0.06-0.46-0.16
			c-0.13-0.11-0.23-0.28-0.32-0.49c-0.08-0.22-0.16-0.52-0.2-0.88c-0.05-0.36-0.07-0.81-0.07-1.31c0-0.53,0.02-0.97,0.07-1.36
			c0.05-0.38,0.12-0.67,0.2-0.89c0.08-0.22,0.19-0.38,0.32-0.48c0.12-0.11,0.28-0.14,0.46-0.14h24.31c0.16,0,0.31,0.05,0.43,0.14
			c0.13,0.11,0.25,0.26,0.34,0.48c0.08,0.22,0.16,0.53,0.2,0.89C975.39,341.18,975.43,341.63,975.43,342.18z"/>
		<path class="st0" d="M986.53,372.82c0,0.18-0.06,0.34-0.18,0.48c-0.12,0.14-0.31,0.26-0.57,0.35c-0.25,0.08-0.63,0.16-1.07,0.22
			c-0.45,0.06-1.01,0.08-1.71,0.08c-0.67,0-1.24-0.02-1.7-0.08c-0.46-0.06-0.82-0.12-1.08-0.22c-0.26-0.08-0.46-0.2-0.57-0.35
			c-0.12-0.14-0.18-0.31-0.18-0.48v-32.57c0-0.18,0.06-0.34,0.18-0.48c0.12-0.14,0.31-0.26,0.59-0.35c0.28-0.08,0.63-0.16,1.08-0.22
			c0.43-0.06,1.01-0.07,1.68-0.07c0.69,0,1.25,0.02,1.71,0.07c0.43,0.06,0.81,0.13,1.07,0.22c0.26,0.08,0.46,0.2,0.57,0.35
			c0.12,0.14,0.18,0.31,0.18,0.48L986.53,372.82L986.53,372.82z"/>
		<path class="st0" d="M1017.91,368.55c0,0.43-0.01,0.82-0.05,1.14c-0.02,0.31-0.07,0.59-0.12,0.81c-0.06,0.22-0.13,0.41-0.22,0.57
			c-0.08,0.16-0.23,0.34-0.42,0.54c-0.19,0.2-0.57,0.47-1.14,0.79c-0.55,0.32-1.24,0.63-2.04,0.93c-0.81,0.29-1.74,0.54-2.78,0.73
			c-1.03,0.19-2.16,0.29-3.38,0.29c-2.37,0-4.5-0.36-6.4-1.09c-1.9-0.73-3.52-1.82-4.85-3.26c-1.33-1.44-2.36-3.26-3.07-5.42
			c-0.71-2.16-1.07-4.69-1.07-7.57c0-2.93,0.4-5.54,1.17-7.81c0.77-2.29,1.88-4.19,3.27-5.72c1.41-1.55,3.08-2.72,5.05-3.52
			c1.96-0.81,4.13-1.2,6.48-1.2c0.96,0,1.89,0.07,2.78,0.23c0.89,0.16,1.71,0.36,2.47,0.63c0.76,0.26,1.43,0.55,2.04,0.89
			c0.6,0.34,1.02,0.63,1.27,0.87c0.23,0.23,0.41,0.43,0.49,0.6c0.08,0.16,0.16,0.36,0.22,0.61c0.06,0.25,0.08,0.54,0.12,0.88
			c0.02,0.34,0.05,0.76,0.05,1.25c0,0.53-0.01,0.97-0.06,1.36c-0.02,0.38-0.11,0.67-0.19,0.9c-0.08,0.23-0.19,0.4-0.32,0.52
			c-0.13,0.11-0.26,0.16-0.42,0.16c-0.26,0-0.6-0.16-1.01-0.47s-0.94-0.66-1.58-1.03c-0.64-0.38-1.42-0.73-2.32-1.03
			c-0.9-0.3-1.97-0.47-3.21-0.47c-1.37,0-2.59,0.28-3.67,0.83c-1.08,0.55-1.98,1.36-2.74,2.39c-0.76,1.03-1.34,2.3-1.72,3.76
			c-0.4,1.48-0.59,3.14-0.59,4.98c0,2.03,0.2,3.79,0.63,5.26c0.42,1.48,1.01,2.71,1.78,3.67c0.77,0.96,1.71,1.68,2.8,2.15
			c1.09,0.47,2.32,0.7,3.69,0.7c1.24,0,2.32-0.14,3.24-0.43c0.9-0.29,1.68-0.61,2.33-0.97c0.66-0.36,1.18-0.67,1.59-0.96
			c0.42-0.28,0.75-0.42,0.97-0.42c0.18,0,0.32,0.02,0.42,0.11c0.11,0.07,0.19,0.22,0.26,0.42c0.07,0.22,0.13,0.52,0.16,0.89
			C1017.9,367.41,1017.91,367.92,1017.91,368.55z"/>
		<path class="st0" d="M1051.2,371.17c0.22,0.64,0.35,1.14,0.4,1.52c0.06,0.38-0.01,0.66-0.22,0.83c-0.19,0.19-0.54,0.31-1.03,0.35
			c-0.49,0.05-1.18,0.07-2.04,0.07c-0.9,0-1.61-0.01-2.12-0.05c-0.52-0.02-0.89-0.07-1.15-0.16c-0.26-0.07-0.46-0.19-0.55-0.34
			c-0.11-0.14-0.19-0.34-0.26-0.55l-2.32-6.93h-12.95l-2.19,6.74c-0.07,0.25-0.16,0.46-0.28,0.63c-0.12,0.18-0.31,0.31-0.55,0.4
			c-0.26,0.11-0.63,0.16-1.09,0.2c-0.47,0.02-1.08,0.06-1.85,0.06c-0.82,0-1.47-0.02-1.91-0.08c-0.47-0.06-0.79-0.18-0.96-0.38
			c-0.18-0.2-0.23-0.49-0.19-0.87c0.06-0.38,0.19-0.88,0.4-1.49l10.64-30.6c0.11-0.31,0.23-0.54,0.38-0.73
			c0.14-0.19,0.36-0.34,0.69-0.42c0.31-0.11,0.75-0.16,1.29-0.19c0.55-0.02,1.29-0.05,2.19-0.05c1.05,0,1.89,0.01,2.5,0.05
			c0.63,0.02,1.11,0.08,1.44,0.19c0.35,0.11,0.6,0.25,0.75,0.43c0.14,0.19,0.28,0.47,0.38,0.81L1051.2,371.17z M1035.37,345.87
			h-0.02l-4.88,14.66h9.78L1035.37,345.87z"/>
		<path class="st0" d="M1091.98,349.76c0,1.95-0.31,3.66-0.9,5.15c-0.6,1.49-1.49,2.74-2.65,3.76s-2.57,1.79-4.26,2.33
			c-1.68,0.53-3.66,0.81-5.93,0.81h-2.87v11c0,0.18-0.06,0.34-0.18,0.48c-0.12,0.14-0.31,0.26-0.57,0.35
			c-0.26,0.08-0.63,0.16-1.07,0.22c-0.44,0.06-1.01,0.08-1.71,0.08c-0.67,0-1.24-0.02-1.7-0.08c-0.46-0.06-0.82-0.12-1.08-0.22
			c-0.26-0.08-0.46-0.2-0.55-0.35c-0.11-0.14-0.16-0.31-0.16-0.48v-31.03c0-0.83,0.22-1.47,0.66-1.89c0.43-0.42,1.01-0.63,1.72-0.63
			h8.13c0.82,0,1.59,0.02,2.33,0.08c0.73,0.06,1.62,0.19,2.65,0.4c1.03,0.2,2.08,0.59,3.13,1.13c1.05,0.55,1.96,1.24,2.71,2.09
			c0.75,0.84,1.31,1.83,1.71,2.95C1091.79,347.09,1091.98,348.36,1091.98,349.76z M1084.65,350.27c0-1.21-0.22-2.2-0.64-2.98
			c-0.42-0.79-0.95-1.36-1.58-1.74c-0.63-0.38-1.27-0.61-1.96-0.7c-0.69-0.11-1.38-0.14-2.12-0.14h-2.98v11.7h3.14
			c1.13,0,2.06-0.14,2.8-0.46c0.76-0.31,1.37-0.73,1.85-1.27s0.84-1.18,1.09-1.95C1084.53,351.98,1084.65,351.16,1084.65,350.27z"/>
		<path class="st0" d="M1128.45,356.13c0,2.86-0.35,5.42-1.07,7.67c-0.72,2.25-1.77,4.16-3.18,5.75c-1.41,1.58-3.14,2.78-5.22,3.6
			c-2.08,0.83-4.47,1.24-7.19,1.24c-2.69,0-5.03-0.35-7.02-1.05c-2-0.7-3.67-1.77-5-3.21c-1.33-1.44-2.33-3.27-2.99-5.5
			c-0.67-2.23-1-4.85-1-7.89c0-2.79,0.35-5.3,1.07-7.53c0.72-2.24,1.77-4.13,3.18-5.69s3.14-2.77,5.22-3.6
			c2.08-0.83,4.47-1.25,7.2-1.25c2.61,0,4.92,0.35,6.92,1.03c2,0.69,3.67,1.76,5.02,3.2c1.35,1.43,2.36,3.26,3.04,5.45
			C1128.11,350.56,1128.45,353.14,1128.45,356.13z M1121.09,356.51c0-1.82-0.14-3.46-0.42-4.94c-0.28-1.48-0.77-2.74-1.44-3.81
			c-0.69-1.05-1.59-1.88-2.73-2.45c-1.14-0.57-2.56-0.87-4.27-0.87c-1.72,0-3.15,0.32-4.31,0.97c-1.15,0.66-2.09,1.52-2.79,2.6
			c-0.72,1.08-1.21,2.36-1.5,3.8c-0.29,1.44-0.43,2.98-0.43,4.61c0,1.89,0.14,3.58,0.42,5.08c0.28,1.5,0.76,2.79,1.43,3.86
			c0.67,1.07,1.58,1.89,2.72,2.44c1.14,0.55,2.57,0.83,4.29,0.83s3.15-0.32,4.33-0.96c1.15-0.64,2.09-1.5,2.79-2.61
			c0.72-1.09,1.21-2.38,1.5-3.86C1120.94,359.72,1121.09,358.16,1121.09,356.51z"/>
		<path class="st0" d="M1159.92,372.88c0,0.19-0.02,0.36-0.11,0.49c-0.07,0.13-0.23,0.25-0.52,0.34c-0.26,0.08-0.66,0.14-1.17,0.19
			c-0.52,0.02-1.21,0.06-2.1,0.06c-0.75,0-1.35-0.01-1.78-0.06c-0.43-0.02-0.79-0.11-1.05-0.2c-0.26-0.11-0.43-0.22-0.54-0.38
			c-0.11-0.14-0.19-0.34-0.26-0.54l-3.1-7.7c-0.38-0.88-0.73-1.64-1.09-2.32c-0.35-0.67-0.75-1.24-1.18-1.7
			c-0.43-0.46-0.94-0.79-1.5-1.02c-0.57-0.23-1.23-0.35-1.97-0.35h-2.19v13.13c0,0.18-0.06,0.34-0.18,0.48s-0.31,0.26-0.57,0.35
			c-0.26,0.08-0.63,0.16-1.07,0.22s-1.01,0.08-1.71,0.08c-0.67,0-1.24-0.02-1.7-0.08c-0.46-0.06-0.82-0.12-1.08-0.22
			c-0.26-0.08-0.46-0.2-0.55-0.35c-0.11-0.14-0.16-0.31-0.16-0.48V341.5c0-0.79,0.2-1.35,0.6-1.7c0.4-0.35,0.89-0.53,1.48-0.53h8.92
			c0.9,0,1.65,0.01,2.24,0.06c0.59,0.02,1.13,0.08,1.59,0.13c1.38,0.19,2.63,0.53,3.74,1.01c1.11,0.48,2.04,1.11,2.83,1.89
			c0.77,0.77,1.36,1.7,1.77,2.74c0.41,1.05,0.61,2.26,0.61,3.64c0,1.15-0.14,2.2-0.43,3.15c-0.29,0.95-0.73,1.79-1.29,2.54
			c-0.57,0.75-1.27,1.38-2.1,1.95c-0.83,0.55-1.78,1-2.85,1.33c0.52,0.25,1,0.55,1.44,0.9c0.46,0.35,0.88,0.79,1.29,1.29
			c0.4,0.52,0.77,1.08,1.14,1.74c0.35,0.64,0.7,1.38,1.03,2.19l2.91,6.8c0.26,0.67,0.43,1.17,0.53,1.48
			C1159.88,372.46,1159.92,372.7,1159.92,372.88z M1150.89,349.46c0-1.14-0.26-2.09-0.77-2.87c-0.52-0.79-1.36-1.33-2.53-1.65
			c-0.35-0.08-0.76-0.16-1.21-0.22s-1.08-0.07-1.89-0.07h-3.14v9.77h3.56c1,0,1.88-0.12,2.61-0.36c0.75-0.23,1.37-0.59,1.88-1.01
			c0.49-0.43,0.88-0.95,1.13-1.56C1150.76,350.89,1150.89,350.21,1150.89,349.46z"/>
		<path class="st0" d="M1187.48,342.18c0,0.52-0.02,0.95-0.07,1.31c-0.05,0.36-0.12,0.66-0.2,0.88c-0.08,0.22-0.2,0.38-0.34,0.49
			c-0.13,0.11-0.28,0.16-0.43,0.16h-8.64v27.79c0,0.18-0.06,0.34-0.18,0.48s-0.31,0.26-0.57,0.35c-0.26,0.08-0.63,0.16-1.08,0.22
			s-1.02,0.08-1.7,0.08s-1.24-0.02-1.7-0.08c-0.46-0.06-0.82-0.12-1.08-0.22c-0.26-0.08-0.46-0.2-0.57-0.35
			c-0.12-0.14-0.18-0.31-0.18-0.48v-27.79h-8.64c-0.18,0-0.34-0.06-0.46-0.16c-0.13-0.11-0.23-0.28-0.32-0.49
			c-0.08-0.22-0.16-0.52-0.2-0.88c-0.05-0.36-0.07-0.81-0.07-1.31c0-0.53,0.02-0.97,0.07-1.36c0.05-0.38,0.12-0.67,0.2-0.89
			c0.08-0.22,0.19-0.38,0.32-0.48c0.12-0.11,0.28-0.14,0.46-0.14h24.31c0.16,0,0.31,0.05,0.43,0.14c0.13,0.11,0.25,0.26,0.34,0.48
			c0.08,0.22,0.16,0.53,0.2,0.89C1187.47,341.18,1187.48,341.63,1187.48,342.18z"/>
		<path class="st0" d="M1219.72,360.94c0,2.12-0.31,4-0.94,5.69c-0.63,1.67-1.54,3.08-2.74,4.23c-1.21,1.15-2.71,2.03-4.47,2.65
			c-1.78,0.6-3.81,0.9-6.13,0.9c-2.16,0-4.1-0.28-5.83-0.82c-1.72-0.54-3.19-1.36-4.37-2.47c-1.18-1.09-2.1-2.47-2.73-4.13
			c-0.63-1.64-0.95-3.56-0.95-5.77v-20.98c0-0.18,0.06-0.34,0.16-0.48s0.29-0.26,0.57-0.35c0.28-0.08,0.63-0.16,1.08-0.22
			c0.43-0.06,1.01-0.07,1.71-0.07c0.67,0,1.23,0.02,1.68,0.07c0.43,0.06,0.81,0.13,1.07,0.22c0.26,0.08,0.46,0.2,0.57,0.35
			c0.12,0.14,0.18,0.31,0.18,0.48v20.37c0,1.37,0.16,2.56,0.52,3.56c0.34,1.01,0.82,1.84,1.44,2.5s1.38,1.15,2.26,1.48
			c0.88,0.34,1.85,0.49,2.95,0.49c1.09,0,2.09-0.16,2.95-0.52c0.88-0.34,1.61-0.83,2.2-1.48c0.59-0.65,1.07-1.44,1.41-2.39
			c0.32-0.95,0.49-2.03,0.49-3.25v-20.77c0-0.18,0.06-0.34,0.16-0.48c0.11-0.14,0.29-0.26,0.55-0.35s0.63-0.16,1.08-0.22
			s1.02-0.07,1.7-0.07s1.23,0.02,1.67,0.07c0.43,0.06,0.79,0.13,1.05,0.22c0.26,0.08,0.46,0.2,0.55,0.35
			c0.11,0.14,0.16,0.31,0.16,0.48L1219.72,360.94L1219.72,360.94z"/>
		<path class="st0" d="M1253.99,371.17c0.22,0.64,0.35,1.14,0.4,1.52c0.06,0.38-0.01,0.66-0.22,0.83c-0.19,0.19-0.54,0.31-1.03,0.35
			c-0.49,0.05-1.18,0.07-2.04,0.07c-0.9,0-1.61-0.01-2.12-0.05c-0.51-0.04-0.89-0.07-1.15-0.16c-0.26-0.07-0.46-0.19-0.55-0.34
			c-0.1-0.14-0.19-0.34-0.26-0.55l-2.32-6.93h-12.95l-2.19,6.74c-0.07,0.25-0.16,0.46-0.28,0.63c-0.12,0.18-0.31,0.31-0.55,0.4
			c-0.26,0.11-0.63,0.16-1.09,0.2c-0.47,0.02-1.08,0.06-1.85,0.06c-0.82,0-1.47-0.02-1.91-0.08c-0.46-0.06-0.79-0.18-0.96-0.38
			c-0.18-0.2-0.23-0.49-0.19-0.87c0.06-0.38,0.19-0.88,0.4-1.49l10.64-30.6c0.11-0.31,0.23-0.54,0.38-0.73
			c0.16-0.19,0.36-0.34,0.69-0.42c0.31-0.11,0.75-0.16,1.29-0.19c0.55-0.02,1.29-0.05,2.19-0.05c1.05,0,1.89,0.01,2.5,0.05
			c0.63,0.02,1.11,0.08,1.44,0.19c0.35,0.11,0.6,0.25,0.75,0.43c0.14,0.19,0.28,0.47,0.38,0.81L1253.99,371.17z M1238.16,345.87
			h-0.02l-4.88,14.66h9.78L1238.16,345.87z"/>
		<path class="st0" d="M1284.4,372.88c0,0.19-0.02,0.36-0.11,0.49c-0.07,0.13-0.23,0.25-0.52,0.34c-0.26,0.08-0.66,0.14-1.17,0.19
			c-0.52,0.02-1.21,0.06-2.1,0.06c-0.75,0-1.35-0.01-1.78-0.06c-0.43-0.02-0.79-0.11-1.05-0.2c-0.26-0.11-0.43-0.22-0.54-0.38
			c-0.11-0.14-0.19-0.34-0.26-0.54l-3.1-7.7c-0.38-0.88-0.73-1.64-1.09-2.32c-0.35-0.67-0.75-1.24-1.18-1.7
			c-0.43-0.46-0.94-0.79-1.5-1.02c-0.57-0.23-1.23-0.35-1.97-0.35h-2.19v13.13c0,0.18-0.06,0.34-0.18,0.48s-0.31,0.26-0.57,0.35
			c-0.26,0.08-0.63,0.16-1.07,0.22s-1.01,0.08-1.71,0.08c-0.67,0-1.24-0.02-1.7-0.08c-0.46-0.06-0.82-0.12-1.08-0.22
			c-0.26-0.08-0.46-0.2-0.55-0.35c-0.11-0.14-0.16-0.31-0.16-0.48V341.5c0-0.79,0.2-1.35,0.6-1.7c0.4-0.35,0.89-0.53,1.48-0.53h8.92
			c0.9,0,1.65,0.01,2.24,0.06c0.59,0.02,1.13,0.08,1.59,0.13c1.38,0.19,2.63,0.53,3.74,1.01c1.11,0.48,2.04,1.11,2.83,1.89
			c0.77,0.77,1.36,1.7,1.77,2.74c0.41,1.05,0.61,2.26,0.61,3.64c0,1.15-0.14,2.2-0.43,3.15c-0.29,0.95-0.73,1.79-1.29,2.54
			c-0.57,0.75-1.27,1.38-2.1,1.95c-0.83,0.55-1.78,1-2.85,1.33c0.52,0.25,1,0.55,1.44,0.9c0.46,0.35,0.88,0.79,1.29,1.29
			c0.4,0.52,0.77,1.08,1.14,1.74c0.35,0.64,0.7,1.38,1.03,2.19l2.91,6.8c0.26,0.67,0.43,1.17,0.53,1.48
			C1284.36,372.46,1284.4,372.7,1284.4,372.88z M1275.37,349.46c0-1.14-0.26-2.09-0.77-2.87c-0.52-0.79-1.36-1.33-2.53-1.65
			c-0.35-0.08-0.76-0.16-1.21-0.22s-1.08-0.07-1.89-0.07h-3.14v9.77h3.56c1,0,1.88-0.12,2.62-0.36c0.75-0.23,1.37-0.59,1.88-1.01
			c0.49-0.43,0.88-0.95,1.13-1.56C1275.24,350.89,1275.37,350.21,1275.37,349.46z"/>
		<path class="st0" d="M1296.59,372.82c0,0.18-0.06,0.34-0.18,0.48s-0.31,0.26-0.57,0.35c-0.26,0.08-0.63,0.16-1.07,0.22
			c-0.43,0.06-1.01,0.08-1.71,0.08c-0.67,0-1.24-0.02-1.7-0.08c-0.46-0.06-0.82-0.12-1.08-0.22c-0.26-0.08-0.46-0.2-0.57-0.35
			c-0.12-0.14-0.18-0.31-0.18-0.48v-32.57c0-0.18,0.06-0.34,0.18-0.48s0.31-0.26,0.59-0.35c0.28-0.08,0.63-0.16,1.08-0.22
			c0.43-0.06,1.01-0.07,1.68-0.07c0.69,0,1.25,0.02,1.71,0.07c0.43,0.06,0.81,0.13,1.07,0.22c0.26,0.08,0.46,0.2,0.57,0.35
			c0.12,0.14,0.18,0.31,0.18,0.48L1296.59,372.82L1296.59,372.82z"/>
		<path class="st0" d="M1332.37,371.17c0.22,0.64,0.35,1.14,0.4,1.52c0.06,0.38-0.01,0.66-0.22,0.83c-0.19,0.19-0.54,0.31-1.03,0.35
			c-0.49,0.05-1.18,0.07-2.04,0.07c-0.9,0-1.61-0.01-2.12-0.05c-0.51-0.04-0.89-0.07-1.15-0.16c-0.26-0.07-0.46-0.19-0.55-0.34
			s-0.19-0.34-0.26-0.55l-2.32-6.93h-12.95l-2.19,6.74c-0.07,0.25-0.16,0.46-0.28,0.63c-0.12,0.18-0.31,0.31-0.55,0.4
			c-0.26,0.11-0.63,0.16-1.09,0.2c-0.47,0.02-1.08,0.06-1.85,0.06c-0.82,0-1.47-0.02-1.91-0.08c-0.47-0.06-0.79-0.18-0.96-0.38
			c-0.18-0.2-0.23-0.49-0.19-0.87c0.05-0.36,0.19-0.88,0.4-1.49l10.64-30.6c0.11-0.31,0.23-0.54,0.38-0.73
			c0.14-0.19,0.36-0.34,0.69-0.42c0.31-0.11,0.75-0.16,1.29-0.19c0.55-0.02,1.29-0.05,2.19-0.05c1.05,0,1.89,0.01,2.5,0.05
			c0.63,0.02,1.11,0.08,1.44,0.19c0.35,0.11,0.6,0.25,0.75,0.43c0.14,0.19,0.28,0.47,0.38,0.81L1332.37,371.17z M1316.53,345.87
			h-0.02l-4.88,14.66h9.78L1316.53,345.87z"/>
		<path class="st0" d="M1373.38,368.55c0,0.43-0.01,0.82-0.05,1.14c-0.02,0.31-0.07,0.59-0.12,0.81c-0.06,0.22-0.13,0.41-0.22,0.57
			c-0.08,0.16-0.23,0.34-0.42,0.54c-0.19,0.2-0.57,0.47-1.14,0.79c-0.55,0.32-1.24,0.63-2.04,0.93c-0.81,0.29-1.74,0.54-2.78,0.73
			c-1.03,0.19-2.16,0.29-3.38,0.29c-2.37,0-4.5-0.36-6.4-1.09c-1.9-0.73-3.52-1.82-4.85-3.26c-1.33-1.44-2.36-3.26-3.07-5.42
			c-0.72-2.16-1.07-4.69-1.07-7.57c0-2.93,0.4-5.54,1.17-7.81c0.79-2.29,1.88-4.19,3.27-5.72c1.41-1.55,3.08-2.72,5.05-3.52
			c1.96-0.81,4.13-1.2,6.48-1.2c0.96,0,1.89,0.07,2.78,0.23c0.89,0.16,1.71,0.36,2.47,0.63c0.76,0.26,1.43,0.55,2.04,0.89
			c0.6,0.34,1.02,0.63,1.27,0.87c0.23,0.23,0.41,0.43,0.49,0.6c0.08,0.16,0.16,0.36,0.22,0.61c0.06,0.25,0.08,0.54,0.12,0.88
			c0.02,0.34,0.05,0.76,0.05,1.25c0,0.53-0.01,0.97-0.06,1.36c-0.02,0.38-0.11,0.67-0.19,0.9s-0.19,0.4-0.32,0.52
			c-0.13,0.11-0.26,0.16-0.42,0.16c-0.26,0-0.6-0.16-1.01-0.47c-0.41-0.31-0.94-0.66-1.58-1.03c-0.64-0.38-1.42-0.73-2.32-1.03
			c-0.9-0.3-1.97-0.47-3.21-0.47c-1.37,0-2.59,0.28-3.67,0.83c-1.08,0.55-1.98,1.36-2.74,2.39s-1.33,2.3-1.72,3.76
			c-0.4,1.48-0.59,3.14-0.59,4.98c0,2.03,0.2,3.79,0.63,5.26c0.42,1.49,1.01,2.71,1.78,3.67c0.77,0.96,1.71,1.68,2.8,2.15
			c1.09,0.47,2.32,0.7,3.69,0.7c1.24,0,2.32-0.14,3.24-0.43c0.9-0.29,1.68-0.61,2.33-0.97c0.65-0.36,1.18-0.67,1.59-0.96
			c0.42-0.28,0.75-0.42,0.97-0.42c0.18,0,0.32,0.02,0.42,0.11c0.11,0.07,0.19,0.22,0.26,0.42c0.07,0.22,0.13,0.52,0.16,0.89
			C1373.37,367.41,1373.38,367.92,1373.38,368.55z"/>
		<path class="st0" d="M1409.04,356.13c0,2.86-0.35,5.42-1.07,7.67c-0.72,2.25-1.77,4.16-3.18,5.75c-1.41,1.58-3.14,2.78-5.22,3.6
			c-2.08,0.83-4.47,1.24-7.19,1.24c-2.69,0-5.03-0.35-7.02-1.05c-2-0.7-3.67-1.77-5-3.21c-1.33-1.44-2.33-3.27-2.99-5.5
			c-0.67-2.23-1-4.85-1-7.89c0-2.79,0.35-5.3,1.07-7.53c0.72-2.24,1.77-4.13,3.18-5.69c1.41-1.56,3.14-2.77,5.22-3.6
			c2.08-0.83,4.47-1.25,7.2-1.25c2.62,0,4.92,0.35,6.92,1.03c2,0.69,3.67,1.76,5.02,3.2c1.35,1.43,2.36,3.26,3.04,5.45
			C1408.7,350.56,1409.04,353.14,1409.04,356.13z M1401.69,356.51c0-1.82-0.14-3.46-0.42-4.94c-0.28-1.48-0.77-2.74-1.44-3.81
			c-0.69-1.05-1.59-1.88-2.73-2.45c-1.14-0.57-2.56-0.87-4.27-0.87c-1.72,0-3.15,0.32-4.31,0.97c-1.15,0.66-2.09,1.52-2.79,2.6
			c-0.72,1.08-1.21,2.36-1.5,3.8c-0.29,1.44-0.43,2.98-0.43,4.61c0,1.89,0.14,3.58,0.42,5.08c0.28,1.5,0.76,2.79,1.43,3.86
			s1.58,1.89,2.72,2.44c1.14,0.55,2.57,0.83,4.29,0.83c1.72,0,3.15-0.32,4.33-0.96c1.15-0.64,2.09-1.5,2.79-2.61
			c0.72-1.09,1.21-2.38,1.5-3.86C1401.55,359.72,1401.69,358.16,1401.69,356.51z"/>
		<path class="st0" d="M1449.21,377.05c0,0.64-0.02,1.15-0.08,1.55s-0.14,0.69-0.25,0.9c-0.1,0.22-0.22,0.35-0.35,0.41
			s-0.26,0.08-0.4,0.08c-0.59,0-1.36-0.16-2.31-0.48s-1.97-0.77-3.08-1.37c-1.09-0.6-2.22-1.33-3.38-2.19
			c-1.14-0.87-2.2-1.85-3.19-2.97c-0.82,0.38-1.82,0.7-2.97,0.97c-1.17,0.28-2.45,0.41-3.87,0.41c-2.69,0-5.03-0.34-7.02-1.02
			c-2-0.69-3.67-1.74-5-3.19c-1.33-1.44-2.33-3.27-2.99-5.51c-0.67-2.24-1-4.88-1-7.95c0-2.79,0.35-5.3,1.07-7.53
			c0.72-2.24,1.77-4.13,3.18-5.69c1.41-1.55,3.14-2.74,5.22-3.58c2.08-0.83,4.47-1.25,7.2-1.25c2.57,0,4.85,0.35,6.84,1.03
			c1.98,0.69,3.66,1.76,5.02,3.19c1.36,1.43,2.39,3.25,3.1,5.42c0.7,2.19,1.05,4.77,1.05,7.76c0,1.55-0.11,2.99-0.31,4.35
			c-0.2,1.36-0.49,2.61-0.89,3.76s-0.88,2.2-1.44,3.18c-0.57,0.96-1.21,1.79-1.95,2.53c1.09,0.96,2.08,1.7,2.93,2.19
			c0.87,0.49,1.56,0.88,2.15,1.13s1.03,0.43,1.38,0.54c0.35,0.12,0.61,0.26,0.82,0.46c0.19,0.19,0.34,0.52,0.42,0.96
			C1449.17,375.63,1449.21,376.26,1449.21,377.05z M1438.6,356.45c0-1.79-0.14-3.44-0.42-4.91c-0.28-1.48-0.77-2.74-1.44-3.8
			c-0.69-1.05-1.59-1.88-2.73-2.45c-1.14-0.57-2.56-0.87-4.27-0.87c-1.72,0-3.15,0.32-4.31,0.96c-1.15,0.64-2.09,1.5-2.79,2.59
			c-0.72,1.08-1.21,2.36-1.5,3.8c-0.29,1.44-0.43,2.97-0.43,4.57c0,1.9,0.14,3.61,0.42,5.11c0.28,1.5,0.76,2.79,1.43,3.86
			c0.67,1.07,1.58,1.89,2.72,2.44c1.14,0.55,2.57,0.83,4.29,0.83c1.72,0,3.15-0.32,4.33-0.96c1.15-0.64,2.09-1.5,2.79-2.61
			c0.72-1.09,1.21-2.39,1.5-3.86C1438.46,359.7,1438.6,358.13,1438.6,356.45z"/>
		<path class="st0" d="M1480.53,360.94c0,2.12-0.31,4-0.94,5.69c-0.63,1.67-1.54,3.08-2.74,4.23c-1.21,1.15-2.71,2.03-4.47,2.65
			c-1.78,0.6-3.81,0.9-6.13,0.9c-2.16,0-4.1-0.28-5.83-0.82c-1.72-0.54-3.19-1.36-4.37-2.47c-1.18-1.11-2.1-2.47-2.73-4.13
			c-0.63-1.64-0.95-3.56-0.95-5.77v-20.98c0-0.18,0.06-0.34,0.16-0.48s0.29-0.26,0.57-0.35s0.63-0.16,1.08-0.22
			c0.43-0.06,1.01-0.07,1.71-0.07c0.67,0,1.23,0.02,1.68,0.07c0.43,0.06,0.81,0.13,1.07,0.22c0.26,0.08,0.46,0.2,0.57,0.35
			c0.12,0.14,0.18,0.31,0.18,0.48v20.37c0,1.37,0.16,2.56,0.52,3.56c0.34,1.01,0.82,1.84,1.44,2.5s1.38,1.15,2.26,1.48
			c0.88,0.34,1.85,0.49,2.95,0.49c1.09,0,2.09-0.16,2.95-0.52c0.88-0.34,1.61-0.83,2.2-1.48c0.6-0.64,1.07-1.44,1.41-2.39
			c0.32-0.95,0.49-2.03,0.49-3.25v-20.77c0-0.18,0.06-0.34,0.16-0.48s0.29-0.26,0.55-0.35s0.63-0.16,1.08-0.22s1.02-0.07,1.7-0.07
			s1.23,0.02,1.67,0.07c0.43,0.06,0.79,0.13,1.05,0.22c0.26,0.08,0.46,0.2,0.55,0.35c0.1,0.14,0.16,0.31,0.16,0.48v20.69H1480.53z"
			/>
		<path class="st0" d="M1495.06,372.82c0,0.18-0.06,0.34-0.18,0.48s-0.31,0.26-0.57,0.35s-0.63,0.16-1.07,0.22
			c-0.43,0.06-1.01,0.08-1.71,0.08c-0.67,0-1.24-0.02-1.7-0.08c-0.46-0.06-0.82-0.12-1.08-0.22c-0.26-0.08-0.46-0.2-0.57-0.35
			c-0.12-0.14-0.18-0.31-0.18-0.48v-32.57c0-0.18,0.06-0.34,0.18-0.48s0.31-0.26,0.59-0.35c0.28-0.08,0.63-0.16,1.08-0.22
			c0.43-0.06,1.01-0.07,1.68-0.07c0.69,0,1.25,0.02,1.71,0.07c0.43,0.06,0.81,0.13,1.07,0.22c0.26,0.08,0.46,0.2,0.57,0.35
			c0.12,0.14,0.18,0.31,0.18,0.48v32.57H1495.06z"/>
		<path class="st0" d="M1542.77,372.82c0,0.18-0.05,0.34-0.14,0.48s-0.28,0.26-0.53,0.35c-0.26,0.08-0.6,0.16-1.02,0.22
			s-0.96,0.08-1.62,0.08c-0.64,0-1.17-0.02-1.59-0.08c-0.42-0.06-0.76-0.12-1.01-0.22c-0.25-0.08-0.42-0.2-0.53-0.35
			c-0.1-0.14-0.16-0.31-0.16-0.48v-28.07h-0.06l-9.99,28.05c-0.07,0.23-0.19,0.42-0.35,0.57s-0.38,0.28-0.66,0.36
			c-0.28,0.08-0.63,0.14-1.05,0.18c-0.42,0.02-0.94,0.05-1.55,0.05c-0.6,0-1.13-0.02-1.55-0.07c-0.42-0.05-0.77-0.12-1.05-0.22
			c-0.28-0.11-0.49-0.22-0.66-0.36c-0.17-0.14-0.26-0.31-0.32-0.52l-9.65-28.05h-0.06v28.07c0,0.18-0.05,0.34-0.14,0.48
			c-0.1,0.14-0.28,0.26-0.54,0.35c-0.26,0.08-0.61,0.16-1.02,0.22c-0.42,0.06-0.95,0.08-1.61,0.08c-0.64,0-1.17-0.02-1.59-0.08
			s-0.77-0.12-1.02-0.22c-0.26-0.08-0.43-0.2-0.53-0.35s-0.14-0.31-0.14-0.48v-30.73c0-0.9,0.23-1.59,0.72-2.08
			c0.48-0.48,1.13-0.72,1.91-0.72h4.59c0.82,0,1.52,0.07,2.1,0.2c0.59,0.13,1.09,0.35,1.52,0.67c0.42,0.32,0.79,0.72,1.07,1.23
			c0.28,0.52,0.53,1.13,0.75,1.89l7.47,20.54h0.1l7.73-20.51c0.23-0.75,0.48-1.37,0.76-1.9c0.28-0.52,0.6-0.94,0.96-1.25
			c0.36-0.32,0.79-0.54,1.29-0.69c0.49-0.13,1.08-0.2,1.74-0.2h4.71c0.48,0,0.89,0.06,1.24,0.19c0.35,0.13,0.63,0.31,0.84,0.54
			c0.22,0.23,0.4,0.53,0.52,0.88c0.12,0.35,0.18,0.75,0.18,1.18v30.77L1542.77,372.82L1542.77,372.82z"/>
		<path class="st0" d="M1575.28,363.44c0,1.23-0.18,2.33-0.52,3.33s-0.81,1.88-1.41,2.65c-0.6,0.77-1.3,1.42-2.13,1.97
			c-0.83,0.55-1.74,1.01-2.73,1.36c-0.99,0.35-2.06,0.61-3.19,0.79c-1.13,0.18-2.38,0.25-3.76,0.25h-9.16
			c-0.59,0-1.08-0.18-1.48-0.53c-0.4-0.35-0.6-0.9-0.6-1.7v-30.06c0-0.79,0.2-1.35,0.6-1.7c0.4-0.35,0.89-0.53,1.48-0.53h8.67
			c2.12,0,3.9,0.18,5.38,0.53c1.47,0.35,2.71,0.89,3.72,1.61c1.01,0.72,1.77,1.64,2.31,2.73c0.53,1.09,0.81,2.39,0.81,3.88
			c0,0.83-0.1,1.62-0.32,2.36c-0.23,0.73-0.53,1.41-0.94,2.02c-0.41,0.6-0.9,1.14-1.5,1.59c-0.6,0.47-1.27,0.83-2.04,1.13
			c0.97,0.18,1.89,0.48,2.71,0.94c0.83,0.43,1.55,1.02,2.16,1.72c0.61,0.7,1.09,1.52,1.44,2.47
			C1575.08,361.21,1575.28,362.27,1575.28,363.44z M1566.2,348.91c0-0.69-0.1-1.31-0.32-1.88c-0.22-0.55-0.53-1.01-0.96-1.37
			c-0.42-0.36-0.96-0.64-1.61-0.83c-0.64-0.19-1.52-0.29-2.6-0.29h-3.55v8.96h3.92c1.01,0,1.83-0.12,2.43-0.36
			c0.6-0.23,1.11-0.57,1.5-0.97c0.4-0.42,0.7-0.9,0.89-1.47C1566.11,350.12,1566.2,349.54,1566.2,348.91z M1567.99,363.69
			c0-0.81-0.13-1.52-0.4-2.15c-0.26-0.64-0.66-1.15-1.17-1.59c-0.52-0.42-1.17-0.76-1.97-0.97c-0.81-0.23-1.84-0.35-3.11-0.35h-4.16
			v9.8h5.08c0.97,0,1.79-0.11,2.47-0.31s1.24-0.52,1.74-0.9c0.48-0.4,0.88-0.89,1.14-1.49
			C1567.87,365.12,1567.99,364.45,1567.99,363.69z"/>
		<path class="st0" d="M1611.91,356.13c0,2.86-0.35,5.42-1.07,7.67s-1.77,4.16-3.18,5.75c-1.41,1.59-3.14,2.78-5.22,3.6
			c-2.08,0.83-4.47,1.24-7.19,1.24c-2.69,0-5.03-0.35-7.02-1.05c-2-0.7-3.67-1.77-5-3.21c-1.33-1.44-2.33-3.27-2.99-5.5
			c-0.67-2.23-1-4.85-1-7.89c0-2.79,0.35-5.3,1.07-7.53c0.72-2.24,1.77-4.13,3.18-5.69s3.14-2.77,5.22-3.6
			c2.08-0.83,4.47-1.25,7.2-1.25c2.62,0,4.92,0.35,6.92,1.03c2,0.69,3.67,1.76,5.02,3.2c1.35,1.43,2.36,3.26,3.04,5.45
			C1611.57,350.56,1611.91,353.14,1611.91,356.13z M1604.56,356.51c0-1.82-0.14-3.46-0.42-4.94c-0.28-1.48-0.77-2.74-1.44-3.81
			c-0.69-1.05-1.59-1.88-2.73-2.45c-1.14-0.57-2.56-0.87-4.27-0.87c-1.72,0-3.15,0.32-4.31,0.97c-1.15,0.64-2.09,1.52-2.79,2.6
			c-0.72,1.08-1.21,2.36-1.5,3.8c-0.29,1.44-0.43,2.98-0.43,4.61c0,1.89,0.14,3.58,0.42,5.08c0.28,1.5,0.76,2.79,1.43,3.86
			c0.67,1.07,1.58,1.89,2.72,2.44c1.14,0.55,2.57,0.83,4.29,0.83s3.15-0.32,4.33-0.96c1.15-0.64,2.09-1.5,2.79-2.61
			c0.72-1.09,1.21-2.38,1.5-3.86C1604.41,359.72,1604.56,358.16,1604.56,356.51z"/>
	</g>
	<path class="st0" d="M432.16,180.77c10.85,4.03,21.7,8.02,31.79,13.85c33.05,19.08,44.36,49,32.67,85.36
		c-8.2,25.54-25.93,42.77-48.09,56.1c-30.52,18.37-64.56,27-99.06,33.92c-38.65,7.76-77.79,10.64-117.07,7.87
		c-64.25-4.54-125.87-18.83-180.75-54.4c-24.53-15.91-44.92-35.71-50.39-66.06c-3.79-21.11,1.58-41.48,8.03-61.36
		C23.25,153,50.27,118.86,85.47,91.46C147.4,43.27,218.02,13.57,295.74,4.05c81.36-9.99,159.77,6.01,237.23,36.27
		c-17.95,14.84-30.35,33.79-48.44,46.82c-13.13,9.45-28.35,11.62-44.58,8.81c-108.83-18.83-209.08,0.86-299.08,66.6
		c-18.43,13.46-35.12,28.59-47.68,47.61c-22.69,34.33-16.38,63.65,17.86,86.73c27.46,18.52,58.81,27.08,90.49,34.3
		c30.49,6.95,61.57,11.45,92.83,10.57c49.36-1.37,96.43-12.76,139.66-37.52c7.52-4.31,14.31-9.56,20.29-15.92
		c21.3-22.64,19.09-44.92,2.7-69.43c-7.87-11.79-18.24-21.93-29.84-30.47C426.25,184.15,428.29,181.87,432.16,180.77z"/>
	<path class="st1" d="M432.16,180.77c-1.65,2.54-3.3,5.08-4.96,7.61c-6.6,6.25-10.66,14.34-15.64,21.71
		c-3.3,4.91-6.88,6.76-12.93,6.71c-23.24-0.22-46.53-1.74-69.7,1.75c-51.24,7.73-98.34,26.6-142.73,52.62
		c-10.85,6.37-21.21,13.63-31.53,20.83c-3.79,2.64-7,3.1-10.95,0.79c-6.87-4.02-14.28-7.23-20.7-11.83
		c-27.81-19.96-29-37.39-8.31-63.49c44.99-56.73,106.61-86.03,176.03-100.26c57.67-11.82,115.42-10.46,172.86,3.26
		c8.01,1.91,7.14,3.84,3.22,9.39C454.97,146.63,443.68,163.78,432.16,180.77z"/>
	<path class="st0" d="M523.47,152.61c0.43-55.85,23.13-101.1,71.14-129.87c43.01-25.76,89.82-29.21,138.07-12.03
		c23.79,8.48,42.48,22.77,59.5,40.49c5.87,6.11,5.24,10.1-0.88,15.49c-21.44,18.87-49.53,22.65-75.69,9.6
		c-36.74-18.34-82.1-8.83-106.14,22.24c-26.24,33.93-26.5,80.99,2.13,110.84c25.4,26.48,63.38,38.45,104.07,18.28
		c25.73-12.76,56.44-8.15,75.83,10.13c5.39,5.09,6.43,8.61,1.03,14.56c-27.67,30.62-61.54,48.11-102.96,52.4
		C604.95,313.53,534.1,249,523.59,174.1C522.63,167.07,523.47,159.79,523.47,152.61z"/>
	<path class="st0" d="M1344.39,152.15c1.08-50.55,20.47-94.2,63.38-123.76c45.04-31.04,94.87-35.85,147.04-17.54
		c22.95,8.06,41.39,21.55,57.78,38.87c6.59,6.95,7.32,11.61-0.93,17.94c-23.38,17.96-47.83,22.01-74.8,8.58
		c-36.63-18.23-81.13-8.83-105.06,21.82c-26.95,34.52-27.3,79.02,1.13,110.67c23.37,26.01,64.44,39.08,103.77,19.22
		c25.89-13.07,50.9-9.62,74.07,7.79c7.72,5.78,9.22,10.58,1.67,18.73c-27.9,30.02-61.76,46.66-102.67,50.35
		c-77.91,7.02-138.64-45.33-158.37-105.6c-2.71-8.26-4.47-16.91-5.83-25.5C1344.53,167.05,1344.77,160.17,1344.39,152.15z"/>
	<path class="st0" d="M826.86,153.35c0-47.52,0.19-95.05-0.18-142.56c-0.06-8.24,2.06-11.15,10.66-10.78
		c15.2,0.69,30.46,0.82,45.65-0.02c9.67-0.54,11.94,2.63,11.89,11.94c-0.38,70.68,0.05,141.38-0.47,212.05
		c-0.07,10.87,2.67,13.81,13.7,13.67c51.26-0.63,102.55,0.01,153.83-0.53c9.85-0.11,12.03,2.95,11.63,12.03
		c-0.7,15.95-0.49,31.94-0.06,47.9c0.19,6.95-1.24,9.69-9.09,9.66c-76.11-0.31-152.23-0.35-228.36,0.02
		c-9.1,0.05-9.31-4.13-9.3-10.82C826.93,248.4,826.86,200.87,826.86,153.35z"/>
	<path class="st2" d="M395.32,233.78c-9.4,24.33-8.15,47.87-6,71.25c0.74,8.07-0.83,10.6-8.88,12.24
		c-60.69,12.35-121.11,13.86-181.26-3.01c-9.57-2.69-18.69-6.49-29.14-11.62C239.33,259.41,314.33,239.23,395.32,233.78z"/>
	<path class="st0" d="M1240.66,2c-24.34-3.72-48.78-0.54-68.75-1.88c-24.81,0-45.25,0.22-65.66-0.13c-6.47-0.12-9.02,1.24-9,8.42
		c0.23,96.61,0.23,193.2,0,289.81c-0.01,7.18,2.54,8.59,9.02,8.43c16.01-0.4,32.08-0.77,48.04,0.12c9.59,0.54,11.06-3.01,10.93-11.5
		c-0.48-32.73,0.01-65.48-0.36-98.2c-0.08-7.66,1.78-10.49,9.93-10.21c17.6,0.6,35.24,0.28,52.86,0.14
		c45.88-0.34,88.29-39.28,91.09-83.56C1322.17,49.67,1291.2,9.71,1240.66,2z M1226.16,119.12c-9.13,0.72-18.35,0.13-30.1,0.13
		c-8.11-0.84-21.8,4.62-28.68-1.96c-6.94-6.61-1.97-20.34-2.19-30.93c-0.4-19.26-0.12-19.26,19.32-19.26
		c13.18,0,26.36-0.08,39.54,0.02c15.24,0.14,26.39,10.13,27.3,24.2C1252.28,105.9,1241.8,117.91,1226.16,119.12z"/>
</g>
</svg>
