<?xml version="1.0" encoding="utf-8"?>
<!-- Generator: Adobe Illustrator 28.2.0, SVG Export Plug-In . SVG Version: 6.00 Build 0)  -->
<svg version="1.1" id="Capa_1" xmlns="http://www.w3.org/2000/svg" xmlns:xlink="http://www.w3.org/1999/xlink" x="0px" y="0px"
	 viewBox="0 0 872 731" style="enable-background:new 0 0 872 731;" xml:space="preserve">
<style type="text/css">
	.st0{fill:#0A1C4A;}
	.st1{fill:#E54011;}
	.st2{fill:#0B1C4A;}
	.st3{fill:#0B1D4A;}
	.st4{fill:#1F294C;}
	.st5{fill:#0C1D4B;}
	.st6{fill:#0C1E4B;}
	.st7{fill:#747E98;}
	.st8{fill:#7F88A0;}
	.st9{fill:#AEB4C3;}
</style>
<g>
	<path class="st0" d="M629.03,625.34c-1.3,0.09-2.61,0.15-3.91,0.17c-2.03,0.04-4.06,0.02-6.09-0.04c-7.97-0.22-16.21-1.3-23.34-5.1
		c-9.39-5.01-15.73-12.64-18.76-22.98c-2.85-9.75-2.91-20.2-2.9-30.27c0.01-10.86,0-21.72,0-32.58s0-21.72,0-32.58
		c0-10.86,0-21.72,0-32.58c0-2.01,0-4.02,0-6.03c0-1.03,0-2.06,0-3.1c0-0.55-0.32-2.53,0-2.93c0.37-0.48,0.91-0.35,1.4-0.35
		c9.49-0.01,18.98-0.01,28.47,0c0.49,0,1.02-0.12,1.4,0.35c-0.02,32.07-0.05,64.14-0.04,96.21c0,5.32-0.01,10.64,0.15,15.96
		c0.15,5.18,0.14,10.57,1.51,15.59c0.14,0.5,0.28,1,0.43,1.5c1.84,6.04,6.64,9.49,13,9.62c4.86,0.1,9.53-0.11,13.6-3.41
		c2.79-2.26,3.9-5.29,4.6-8.51c0.8-3.7,1.17-7.59,1.4-11.36c0.15-2.5,0.31-5.01,0.31-7.52c0.01-35.69,0.01-71.38,0.01-107.07
		c0-0.34-0.03-0.67-0.05-1.01c0.46-0.54,1.09-0.35,1.65-0.35c9.09-0.01,18.18,0.03,27.28-0.04c1.64-0.01,2.14,0.44,2.14,2.11
		c-0.01,8.15-0.02,16.29-0.02,24.44s-0.01,16.29-0.01,24.44c0,8.15,0,16.29,0,24.44c0,8.15,0,16.29,0,24.44
		c0,4.28-0.14,8.57-0.18,12.85c-0.01,1.14-0.02,2.27-0.03,3.41c-0.01,1.14-0.02,2.27-0.03,3.41c-0.01,1.04-0.18,2.05-0.22,3.09
		c-0.27,7.27-1.1,15.05-4.01,21.79c-0.18,0.42-0.37,0.83-0.57,1.24c-3.36,6.92-8.52,12.81-15.22,16.67
		C644.34,623.1,636.68,624.81,629.03,625.34z"/>
	<path class="st0" d="M401.37,225.75c-0.23,2.75-0.47,5.49-0.62,8.24c-0.22,3.94-0.51,7.91-0.37,11.86
		c0.04,1.25,0.12,2.51,0.24,3.76c0.05,1.82,0.09,3.64,0.14,5.47c0.38,1.21-0.14,2.5,0.35,3.7c0.05,0.96,0.1,1.91,0.14,2.87
		c0.36,0.86-0.08,1.84,0.36,2.69c0.57,10.31,2.79,20.34,5.39,30.28c3.97,15.21,9.92,29.66,17.44,43.45
		c6.02,11.04,13.13,21.37,21.19,31.06c7.27,8.74,15.3,16.73,23.83,24.21c4.44,3.9,9.11,7.55,14.04,10.82
		c1.4,0.93,1.63,1.74,1.05,3.22c-3.89,9.93-7.73,19.88-11.56,29.83c-0.61,1.6-0.91,2.17-2.83,0.89
		c-7.36-4.89-14.37-10.2-21.23-15.77c-7.78-6.31-15.07-13.13-21.85-20.46c-10.92-11.8-20.59-24.55-28.89-38.37
		c-4.22-7.03-8.07-14.25-11.61-21.62c-3.03-6.3-5.59-12.83-7.97-19.42c-4.26-11.79-7.51-23.82-9.75-36.16
		c-0.84-4.67-1.59-9.34-2.16-14.05c-0.39-0.82,0.14-1.78-0.39-2.58c-0.04-0.66-0.08-1.31-0.12-1.97c-0.43-0.98,0.18-2.1-0.4-3.06
		c-0.04-1-0.09-2.01-0.13-3.01c-0.37-1.18,0.18-2.46-0.35-3.63c-0.04-1.65-0.09-3.31-0.13-4.96c-0.21-7.96-0.33-15.95,0.22-23.9
		c0.09-1.25,0.19-2.5,0.29-3.74c0.64-7.93,1.47-15.79,2.93-23.62c0.57-3.06,1.19-6.11,1.84-9.16c1.18-5.63,2.83-11.2,4.52-16.73
		c2.2-7.18,4.81-14.2,7.54-21.18c0.88-2.26,2.1-4.39,2.97-6.66c0.52-1.34,1.13-0.85,1.81-0.36c9.01,6.57,17.97,13.2,27.05,19.68
		c1.44,1.03,0.69,1.88,0.34,2.72c-3.9,9.3-6.9,18.88-9.17,28.7c-1.78,7.71-3.3,15.42-3.86,23.33
		C401.57,223.33,401.47,224.54,401.37,225.75z"/>
	<path class="st0" d="M603.79,11.84c9.29,0.48,18.54,1.24,27.76,2.61c12.11,1.8,23.97,4.62,35.63,8.26
		c8.22,2.56,16.19,5.8,24.13,9.11c1.43,0.59,1.42,1.15,0.58,2.29c-6.42,8.76-12.81,17.54-19.17,26.34
		c-0.88,1.22-1.78,1.44-3.17,0.85c-10.12-4.23-20.6-7.27-31.33-9.59c-10.3-2.23-20.78-3.64-31.3-4.27
		c-3.84-0.23-7.68-0.31-11.53-0.31c-4.01,0.06-8.03,0.56-12.03,0.56c-5.27,0.38-10.59,0.7-15.81,1.54
		c-1.09,0.17-2.17,0.36-3.25,0.56c-1.2,0.22-2.39,0.46-3.6,0.66c-13.69,2.53-26.98,6.5-39.83,11.93
		c-14.91,6.3-28.81,14.28-41.8,23.93c-7.47,5.56-14.48,11.67-21.05,18.21c-7.36,7.32-14.24,15.13-20.14,23.69
		c-1.51,2.19-2.92,2.02-4.73,1.33c-9.95-3.79-19.86-7.69-29.83-11.42c-1.67-0.62-0.75-1.31-0.36-1.91
		c3.82-5.83,7.91-11.47,12.26-16.91c6.76-8.46,13.94-16.58,21.89-23.96c7.32-6.8,15.02-13.13,23.07-19.1
		c11.65-8.65,24.01-16.08,37.07-22.23c23.64-11.13,48.52-18.09,74.52-20.92c3.42-0.37,6.86-0.59,10.28-1
		c2.5-0.3,5.09-0.19,7.61-0.25C594.38,11.62,599.08,11.68,603.79,11.84z"/>
	<path class="st0" d="M498.3,588.59c-0.19,1.49-0.45,2.96-0.81,4.39c-1.14,4.49-2.52,8.82-4.87,12.85c-0.81,1.39-1.71,2.73-2.7,4
		c-5.14,6.63-12.45,11.28-20.54,13.46c-4.3,1.16-8.94,2.13-13.4,2.16c-0.69,0-1.39,0.01-2.08,0.02c-1.33,0.01-2.67,0.03-4,0.03
		c-2.66,0-5.33-0.07-7.99-0.33c-4.81-0.48-9.5-1.22-14.03-2.97c-1.5-0.58-2.97-1.25-4.39-2.02c-6.89-3.7-12.14-9.08-15.75-16.17
		c-2.82-5.54-4.22-11.34-4.71-17.45c-0.34-0.99,0.2-2.08-0.36-3.05c-0.04-1.34-0.07-2.68-0.11-4.02c-0.47-2.9,0.21-5.86-0.36-8.76
		c-0.01-37.81-0.01-75.61-0.02-113.42c0.37-0.48,0.91-0.35,1.4-0.35c9.49-0.01,18.98-0.01,28.47,0c0.49,0,1.02-0.13,1.4,0.35
		c-0.02,31.9-0.04,63.8-0.04,95.7c0,6.64,0.12,13.29,0.18,19.93c0.4,1.18-0.17,2.46,0.36,3.63c-0.27,3.73,0.57,7.34,1.72,10.78
		c1.77,5.31,5.9,8.21,11.33,8.72c5.48,0.51,10.92,0.41,15.52-3.67c2.63-2.33,3.41-5.39,4.25-8.39c0.76-2.72,0.76-5.65,1.1-8.49
		c0.59-1.5-0.05-3.09,0.38-4.6c0.06-5.3,0.17-10.6,0.18-15.9c0.02-18.18,0.02-36.36-0.01-54.54c0-1.49,0.37-2.71,1.25-3.91
		c9.25-12.66,18.46-25.35,27.69-38.03c0.39-0.53,0.89-0.98,1.34-1.47c1.4,0.55,0.7,1.76,0.7,2.62c0.04,29.16,0.05,58.33,0.03,87.49
		c0,5.21,0.15,10.42-0.1,15.62c-0.2,4.18-0.04,8.36-0.17,12.54C499.03,579.76,498.87,584.22,498.3,588.59z"/>
	<path class="st0" d="M534.09,241.54c-4.29-3.06-8.6-6.1-12.87-9.19c-8.93-6.45-17.86-12.9-26.76-19.39
		c-9.06-6.6-18.06-13.28-27.13-19.86c-12.07-8.76-24.19-17.45-36.27-26.2c-9.21-6.67-18.47-13.26-27.55-20.1
		c-9.61-7.24-19.43-14.18-29.1-21.33c-6.4-4.74-12.78-9.56-19.45-13.93c-0.27-0.18-0.46-0.47-0.46-1.2
		c69.28,26.64,138.56,53.28,208.2,80.07c-7.77,5.31-13.82,11.67-18.48,19.33c-4.68,7.69-8.18,16.46-8.87,25.5
		c-0.08,1.09-0.17,2.17-0.25,3.26c-0.06,0.79-0.12,1.58-0.29,2.35C534.76,241.05,534.46,241.81,534.09,241.54z"/>
	<path class="st1" d="M601.8,179.87c-0.92-0.06-1.84-0.12-2.77-0.17c43.51-59.98,87.01-119.95,130.51-179.93
		c0.26,0.13,0.52,0.26,0.78,0.39c-26.58,69.1-53.16,138.2-79.91,207.74c-2.96-4.59-6.51-8.17-10.16-11.65
		c-4.84-4.59-10.44-8.12-16.46-10.84c-5.99-2.71-12.3-4.57-18.91-5.16C603.91,179.69,602.8,180.26,601.8,179.87z"/>
	<path class="st0" d="M594.7,306.01c0.3,0.01,0.59,0.01,0.89,0.02c0.2,0,0.4,0,0.58,0.07c0.41,0.16,0.35,0.46,0.25,0.81
		c-0.29,1.09-1.83,2.51-2.5,3.44c-12.78,17.57-25.55,35.15-38.33,52.72c-12.76,17.55-25.52,35.11-38.29,52.66
		c-12.75,17.54-25.51,35.08-38.26,52.62c-4.34,5.96-8.67,11.93-13.01,17.89c-0.2-0.12-0.4-0.24-0.6-0.36
		c2.59-6.67,5.21-13.33,7.77-20.02c2.81-7.36,5.54-14.75,8.36-22.1c2.23-5.81,4.59-11.58,6.84-17.38c2.79-7.2,5.51-14.42,8.28-21.63
		c2.79-7.26,5.61-14.51,8.39-21.77c2.27-5.92,4.49-11.86,6.77-17.77c2.8-7.26,5.64-14.5,8.45-21.75c2.25-5.84,4.46-11.69,6.71-17.54
		c2.79-7.26,5.6-14.51,8.39-21.77c2.27-5.92,4.53-11.84,6.77-17.77c0.89-2.35,1.62-4.76,2.57-7.08c0.6-1.47,1.25-0.48,1.72,0.2
		c2.04,2.97,4.33,5.73,6.89,8.26c6.23,6.13,13.71,10.98,21.86,14.14c4.78,1.85,9.8,3.14,14.89,3.77
		C591.63,305.85,593.16,305.96,594.7,306.01z"/>
	<path class="st0" d="M563.48,588.59c-0.7,7.98-2.24,16.11-6.98,22.69c-6.24,8.66-15.04,12.98-25.47,14.3
		c-3.36,0.26-6.72,0.23-10.09,0.01c-4.82-0.36-9.55-1.06-13.78-3.66c-0.28-9.87-0.07-19.75-0.11-29.62c0-0.29,0.18-0.45,0.31-0.66
		c3,1.54,5.89,3.39,9.42,3.55c1.61,0.37,3.22,0.34,4.83,0.01c1.82-0.37,3.2-0.77,4.69-2c1.4-1.15,2.5-2.43,3.23-4.1
		c0.64-1.48,1-3.06,1.28-4.64c0.32-1.77,0.56-3.55,0.75-5.34c1.15-10.64,0.74-21.39,0.74-32.07c0-10.87,0-21.73,0-32.6
		c0-10.87,0-21.73,0-32.6c0-7.28,0-14.56,0-21.84c0-3.48-0.32-3.06,3.12-3.06c8.66-0.02,17.32-0.01,25.98,0.01
		c0.82,0,1.69-0.23,2.46,0.26c0,10.87,0,21.75,0,32.62c0,10.87,0,21.75,0,32.62c0,10.87,0,21.75,0,32.62c0,5.44,0,10.87,0,16.31
		c0,4.46,0.15,8.92-0.13,13.39C563.68,586.05,563.59,587.32,563.48,588.59z"/>
	<path class="st1" d="M512.27,704.68c2.68-13.63,5.67-26.62,8.29-39.69c1.23-6.13,2.52-12.27,3.97-18.36
		c0.27-1.15,0.76-1.34,1.65-1.34c3.79-0.01,7.58,0.02,11.36-0.01c2.16-0.02,1.06,1.62,0.94,2.26c-0.87,4.64-1.93,9.25-2.92,13.87
		c-2.69,12.57-5.4,25.13-8.07,37.7c-2.07,9.73-4.1,19.47-6.13,29.22c-0.32,1.55-0.86,2.48-2.77,2.25c-2.08-0.24-4.23-0.25-6.3,0
		c-2.2,0.27-3.15-0.92-3.99-2.55c-4.29-8.34-8.84-16.54-13.37-24.75c-3.9-7.05-7.54-14.25-11.31-21.38c-1.39-2.62-2.8-5.22-4.26-7.8
		c-0.21-0.38-0.19-1.12-0.88-1.05c-0.72,0.08-0.84,0.81-0.95,1.31c-1.24,5.84-2.4,11.7-3.62,17.55
		c-2.57,12.26-5.16,24.51-7.74,36.76c-0.26,1.23-0.64,2-2.27,1.91c-3.36-0.19-6.73-0.12-10.1-0.03c-1.88,0.04-2.07-0.46-1.7-2.35
		c2.11-10.87,4.57-21.66,6.79-32.5c2.27-11.08,4.74-22.12,7.04-33.19c1.14-5.5,2.53-10.95,3.44-16.49c0.15-0.92,0.68-0.8,1.24-0.8
		c2.86-0.01,5.73,0.05,8.59-0.04c1-0.03,1.29,0.55,1.64,1.2c6.62,12.39,13.23,24.78,19.84,37.16c3.52,6.6,7.06,13.19,10.6,19.78
		C511.47,703.66,511.74,703.96,512.27,704.68z"/>
	<path class="st1" d="M655.32,731.08c-1.87,0.07-3.74,0.01-5.59-0.14c-5.56-0.48-10.95-1.94-15.34-5.54
		c-9.67-7.96-10.03-22-8.39-33.39c1.05-7.31,3.08-14.42,4.47-21.67c1.49-7.76,3.15-15.48,4.8-23.21c0.24-1.14,0.77-2.04,2.37-1.97
		c3.53,0.15,7.07,0.1,10.6,0.02c1.4-0.03,1.67,0.33,1.37,1.74c-1.72,7.94-3.42,15.89-5.11,23.84c-0.85,3.98-1.69,7.95-2.53,11.93
		c-0.8,3.8-1.87,7.65-2.17,11.51c-0.26,3.34-0.62,6.64-0.24,9.99c0.39,3.4,1.54,7.42,4.1,9.85c2.51,2.39,6.12,3.57,9.52,3.75
		c11.58,0.62,20.6-7.48,24.93-16.99c3.97-8.7,5.14-18.15,7.11-27.38c1.6-7.47,3.27-14.93,4.92-22.39c0.04-0.16,0.12-0.31,0.16-0.47
		c1.21-5.36,1.21-5.36,6.81-5.36c2.36,0,4.71,0.02,7.07-0.01c0.97-0.01,1.27,0.19,1.03,1.3c-2.81,12.96-5.72,25.9-8.27,38.91
		c-1.53,7.79-3.62,15.33-7.25,22.39c-4.48,8.72-11.1,15.34-19.85,19.77C665.36,729.84,660.34,730.9,655.32,731.08z"/>
	<path class="st1" d="M543.55,689.7c1.19-10.27,5.84-19.79,12.42-27.67c8.04-9.64,19.31-15.95,31.86-17.2
		c7.94-0.79,16.96,1.01,23.03,6.49c4.31,3.89,6.75,8.77,8.07,14.3c0.2,0.85-0.2,1.36-0.98,1.78c-3.34,1.81-6.62,3.74-9.97,5.53
		c-1.21,0.65-1.86,0.2-2.07-1.26c-0.72-4.91-3.22-8.66-7.43-11.37c-8.23-5.29-20.22-1.5-26.97,4.46
		c-9.38,8.29-14.66,18.65-14.09,31.51c0.37,0.82-0.14,1.77,0.38,2.57c0.16,4.99,2.4,9.97,5.73,13.65c3.81,4.21,9.6,6,15.17,5.03
		c5.11-0.22,9.2-2.83,13.24-5.59c3.27-2.24,5.81-5.16,7.84-8.5c0.76-1.26,1.27-1.18,2.33-0.54c2.7,1.63,5.4,3.29,8.22,4.7
		c1.5,0.75,1.33,1.39,0.62,2.57c-5.44,9.05-13.45,14.81-23.21,18.43c-5.9,2.19-12.04,3.13-18.2,2.41
		c-5.47-0.64-10.3-3.07-14.49-6.97c-9.17-8.56-12.85-21.82-11.5-34.07C543.53,689.87,543.54,689.78,543.55,689.7z"/>
	<path class="st0" d="M591.14,180.25c-9,0.66-17.26,3.62-25.02,8.09c-0.57,0.33-1.15,0.64-2.07,1.15
		c-0.69-4.62-1.34-8.99-2.01-13.37c-0.74-4.76-1.51-9.51-2.26-14.26c-0.77-4.88-1.51-9.77-2.29-14.65
		c-0.76-4.75-1.56-9.49-2.31-14.25c-0.77-4.88-1.47-9.78-2.25-14.66c-0.76-4.75-1.6-9.49-2.35-14.24
		c-0.76-4.81-1.42-9.63-2.19-14.43c-0.77-4.83-1.76-9.63-2.39-14.48c-0.6-4.54-1.83-9-1.86-13.61c-0.2-0.53,0.04-0.62,0.49-0.49
		c6.58,14.83,13.16,29.67,19.74,44.5c8.49,19.16,16.97,38.32,25.48,57.47c2.44,5.5,4.98,10.95,7.56,16.6
		c-1.26,0.1-2.23,0.18-3.21,0.26C593.2,180.25,592.1,179.68,591.14,180.25z"/>
	<path class="st0" d="M416.79,295.95c8.63-3.86,17.26-7.73,25.91-11.57c12.99-5.76,26-11.45,38.99-17.22
		c9.84-4.37,19.65-8.83,29.48-13.22c7.63-3.41,15.28-6.76,22.92-10.14c1.21,0.15,0.46,1.3,0.94,1.83
		c0.06,11.19,3.71,21.31,9.46,31.11c-4.22,0.69-8.3,1.36-12.38,2.01c-9.11,1.45-18.22,2.9-27.33,4.34
		c-6.91,1.09-13.83,2.17-20.74,3.25c-9.03,1.41-18.07,2.82-27.1,4.24c-7.16,1.12-14.31,2.27-21.48,3.38
		c-5.7,0.88-11.35,2.05-17.11,2.54C417.69,296.68,416.91,297.25,416.79,295.95z"/>
	<path class="st1" d="M425.4,730.53c-1.35,0-2.72-0.18-4.04,0.04c-2.43,0.4-3.07-0.44-2.52-2.77c2.6-11.19,4.92-22.43,7.22-33.69
		c2.09-10.2,4.38-20.36,6.52-30.55c1.15-5.49,2.4-10.97,3.56-16.47c0.22-1.04,0.71-1.9,2.2-1.85c3.62,0.13,7.24,0.06,10.86,0.03
		c1.21-0.01,1.46,0.16,1.15,1.58c-3.83,17.42-7.56,34.86-11.26,52.31c-2.1,9.9-4.1,19.82-6.1,29.74c-0.25,1.23-0.79,1.7-2.03,1.65
		C429.11,730.47,427.25,730.53,425.4,730.53z"/>
	<path class="st0" d="M677.16,440.91c-0.87-0.08-0.83-0.83-1.16-1.52c-0.63-1.32,0.62-1.17,0.97-1.31
		c6.94-2.78,13.6-6.15,20.19-9.66c9.97-5.32,19.33-11.57,28.37-18.35c9.81-7.35,18.68-15.73,27.08-24.59
		c5.42-5.72,10.47-11.84,15.05-18.3c2.98-4.21,6-8.38,8.7-12.78c0.63-1.03,1.23-1.69,2.61-0.85c1.57,0.96,0.09,1.65-0.19,2.11
		c-6.36,10.21-13.56,19.8-21.58,28.77c-5.55,6.2-11.43,12.06-17.61,17.64c-10.12,9.13-21.14,17.01-32.76,24.08
		c-8.66,5.27-17.73,9.72-27.03,13.75C678.96,440.25,678.1,440.55,677.16,440.91z"/>
	<path class="st0" d="M811.36,228.96c0.12,1.8,0.21,3.59,0.26,5.39c0.15,5.33,0.18,10.69,0,16.02c-0.09,2.53-0.25,5.06-0.42,7.59
		c-0.09,1.26-0.18,2.53-0.26,3.79c-0.08,1.2-0.32,2.38-0.46,3.58c-0.16,1.27-0.32,2.54-0.5,3.8c-0.35,2.53-0.74,5.05-1.17,7.57
		c-0.85,5.02-1.87,10.01-3.05,14.95c-1.18,4.95-2.53,9.85-4.05,14.7c-1.53,4.87-3.23,9.69-5.11,14.44c-0.1,0.26-0.21,0.52-0.31,0.79
		c-1.36,3.38-2.99,6.65-4.39,10.01c-0.44,1.06-0.99,1.53-2.05,1.06c-1.13-0.49-0.92-1.47-0.51-2.25
		c4.53-8.77,7.55-18.14,10.63-27.46c1.67-5.04,2.86-10.26,4.01-15.45c1.16-5.23,2.11-10.5,2.96-15.79c0.3-1.85,0.49-3.72,0.66-5.59
		c0.24-2.61,0.59-5.21,0.77-7.82c0.18-2.7,0.36-5.4,0.55-8.1c0.16-2.44,0.17-4.89,0.18-7.33c0.01-2.43,0.03-4.88-0.12-7.31
		c-0.61-10.17-1.54-20.2-3.17-30.26c3.08,0.68,3.08,0.68,3.68,5.51C810.23,216.81,810.96,222.88,811.36,228.96z"/>
	<path class="st0" d="M871.12,382.4c-4.43,0.51-8.85,1.02-13.28,1.53c-1.81,0.21-1.25,1.22-0.57,2c1.41,1.64,2.75,3.31,3.68,5.38
		c-2.54-0.94-4.15-3.33-6.97-4.45c-0.71,5.08-1.4,10.05-2.12,15.23c-1.46-1.62-1.09-3.64-1.23-5.18c-0.26-2.94-1.25-5.8-1.08-8.78
		c0.02-0.42,0.06-0.88-0.38-1.11c-0.64-0.33-1.06,0.1-1.55,0.46c-1.84,1.31-3.39,3.04-5.81,3.67c1.66-2.16,3.33-4.31,5.26-6.81
		c-5.12-0.67-9.94-1.31-14.76-1.94c-0.33-0.24-0.88-0.37-0.53-0.98c4.73-0.52,9.46-1.01,14.18-1.58c0.75-0.09,1.14-0.45,0.43-1.32
		c-1.57-1.9-3-3.92-4.78-6.28c2.43,0.76,3.72,2.43,5.38,3.49c0.69,0.44,1.28,1.36,2.14,1.03c0.92-0.35,0.19-1.34,0.34-2.01
		c0.88-4.01,1.36-8.07,1.57-12.17c0.01-0.26,0.37-0.51,0.8-1.04c0.76,5.3,1.48,10.31,2.26,15.71c2.39-1.86,4.43-3.44,6.46-5.02
		c0.31,0.08,0.51,0.27,0.59,0.58c-1.62,2.17-3.23,4.35-5.14,6.91c5.73,0.3,10.79,1.71,16.02,1.72
		C872.44,382.46,871.26,381.95,871.12,382.4z"/>
	<path class="st0" d="M806.94,199.99c-2.06-4.38-4.11-8.76-6.29-13.39c-1.81,2.44-3.48,4.67-5.14,6.91
		c-0.08-2.29,1.34-4.01,1.66-6.1c0.1-0.65,1.1-1.45,0.53-1.93c-0.5-0.41-1.6-0.25-2.4-0.12c-3.48,0.57-6.93,1.26-10.41,1.84
		c-0.77,0.13-1.58,0.02-3.08,0.02c5.18-2.36,9.75-4.45,14.49-6.61c-1.79-2.2-4.64-3.08-6.56-5.37c2.72-0.04,4.61,1.94,7.05,2.01
		c1.13,0.42,1.53,0.11,1.09-1.07c-0.75-4.68-1.51-9.37-2.26-14.05c2.34,3.09,3.48,6.77,5.22,10.14c0.62,1.19,0.6,3.2,2.1,3.28
		c1.19,0.06,1.63-1.81,2.41-2.83c0.69-0.89,1.36-1.78,2.29-2.55c0,2.65-1.47,4.83-2.24,7.61c5.04-0.25,9.8-1.58,14.66-2.13
		c0.53-0.17,0.64,0.06,0.52,0.52c-4.51,2.1-9.19,3.86-13.74,6.44c2.27,1.68,4.44,3.28,7.02,5.19c-2.83-0.13-4.77-1.28-6.84-2.01
		c-1.95-0.46-1.28,0.8-1.13,1.72c0,4.04,1.32,7.9,1.61,11.91C807.67,199.98,807.43,200.11,806.94,199.99z"/>
	<path class="st0" d="M675.52,264.74c0.55,4.86,1.11,9.72,1.7,14.91c2.31-1.64,4.41-3.13,6.51-4.63c0.16,0.19,0.32,0.38,0.48,0.56
		c-1.3,1.74-2.55,3.53-3.92,5.22c-0.79,0.98-0.73,1.4,0.58,1.54c4.45,0.5,8.91,1.04,13.36,1.57c0.31,0.56-0.17,0.68-0.5,0.88
		c-4.65,0.6-9.3,1.19-14.12,1.81c1.25,2.8,3.92,4.71,5.4,8.06c-2.68-2-4.84-3.62-7-5.23c-1.29-0.06-0.3,1.12-0.81,1.49
		c-0.74,4.48-1.6,8.94-1.68,13.5c-0.65,0.56-0.68-0.16-0.92-0.44c-0.51-4.22-0.97-8.44-1.53-12.64c-0.28-2.13-0.98-2.37-2.68-0.99
		c-1.45,1.18-2.76,2.56-4.9,2.83c1.14-1.44,2.21-2.94,3.45-4.28c0.49-0.54,0.98-1.25,0.82-1.69c-0.22-0.6-1.08-0.8-1.82-0.89
		c-4.14-0.48-8.28-0.99-12.42-1.5c-0.38-0.19-0.98-0.24-0.56-0.92c4.57-0.16,9.05-1.03,13.56-1.67c0.37-0.5,1.58,0.51,1.49-0.82
		c-1.63-2.15-3.26-4.29-5.16-6.79c2.35,0.61,3.48,2.42,5.14,3.35c0.82,0.46,1.53,1.84,2.45,1.21c0.59-0.4,0.63-1.74,0.74-2.74
		c0.42-3.9,0.97-7.78,1.48-11.67C674.91,264.36,675.21,264.37,675.52,264.74z"/>
	<path class="st2" d="M778.77,190.72c-23.73,7.15-47.38,14.27-71.03,21.41c-9.57,2.89-19.13,5.81-28.69,8.74
		c-0.73,0.22-1.5,0.66-2.11,0.07c-0.42-0.41-0.8-1.19-0.71-1.72c0.13-0.73,1.11-0.61,1.69-0.79c12.61-3.84,25.25-7.61,37.88-11.43
		c19.74-5.98,39.47-11.98,59.19-18.02C776.83,188.41,778.23,188.3,778.77,190.72z"/>
	<path class="st0" d="M687.03,290.4c2.94,1.56,5.89,3.09,8.8,4.68c10.46,5.71,20.91,11.43,31.36,17.15
		c14.82,8.1,29.64,16.19,44.42,24.36c0.65,0.36,2.39,0.39,1.53,2.14c-0.49,1-0.77,1.42-1.98,0.75c-4.82-2.67-9.74-5.16-14.59-7.79
		c-4.93-2.67-9.82-5.43-14.74-8.13c-8.92-4.89-17.85-9.75-26.77-14.65c-8.15-4.47-16.26-9.02-24.45-13.41
		C688.57,294.41,688.24,292.22,687.03,290.4z"/>
	<path class="st0" d="M748.75,100.44c0.04-0.41,0.1-0.81,0.19-1.2c0.92-3.97,4.25-6.74,8.37-6.83c2.86-0.06,5.59,1.36,7.37,3.57
		c2.03,2.52,2.58,5.61,1.36,8.64c-0.33,0.81-0.77,1.58-1.31,2.27c-1.24,1.56-3.09,2.7-5,3.25c-1.72,0.5-3.59,0.5-5.28-0.09
		c-1.96-0.69-3.59-2.18-4.58-4.01C748.97,104.35,748.57,102.35,748.75,100.44z"/>
	<path class="st0" d="M659.3,440.88c-3.6,0.31-4.05,0.05-4.81-3.66c-1.06-5.18-2.93-10.13-4.32-15.21
		c-1.88-6.89-3.92-13.73-5.95-20.58c-1.88-6.35-3.87-12.68-5.77-19.03c-0.83-2.79-1.35-5.69-2.4-8.39c-0.81-2.09,0.8-2.12,1.74-2.47
		c1.39-0.51,1.24,0.85,1.48,1.64c4.69,15.85,9.38,31.7,14.07,47.55C655.3,427.39,657.27,434.05,659.3,440.88z"/>
	<path class="st0" d="M782.21,351.16c-3.36-0.75-5.39-2.84-6.19-6.16c-0.18-1.51-0.25-3.02,0.04-4.52c0.61-3.34,2.84-5.11,5.93-5.84
		c3.22-0.76,6.24-0.02,8.45,2.47c2.29,2.58,3.06,5.58,1.58,9c-1.16,2.68-3.2,4.15-5.8,5.09
		C784.89,351.39,783.55,351.44,782.21,351.16z"/>
	<path class="st3" d="M618.01,303.64c1.22-0.28,1.11,0.88,1.28,1.43c3.43,11.47,6.81,22.96,10.18,34.45
		c1.6,5.47,3.15,10.96,4.75,16.44c0.3,1.01,1.16,2.02-0.88,2.27c-1.25,0.15-1.9,0.92-2.35-1.23c-1-4.72-2.73-9.28-4.09-13.92
		c-2.5-8.53-4.94-17.09-7.45-25.62c-1.09-3.72-2.27-7.42-3.44-11.12C615.43,304.51,616.06,303.63,618.01,303.64z"/>
	<path class="st4" d="M794.35,157.38c-0.28,0.84-1.17,1.13-1.8,1.48c-0.85,0.48-0.77-0.66-0.95-1.05
		c-4.03-8.71-8.28-17.29-13.28-25.49c-3.85-6.32-7.98-12.44-12.51-18.29c-0.25-0.33-0.43-0.72-0.7-1.03
		c-0.7-0.82-0.49-1.46,0.27-2.1c0.93-0.77,1.47-0.26,2.04,0.5c4.71,6.34,9.2,12.83,13.31,19.59c4.84,7.96,9.06,16.23,12.89,24.71
		C793.87,156.23,794.09,156.77,794.35,157.38z"/>
	<path class="st0" d="M867.03,156.14c1.47,0.47,2.78,1.38,3.69,2.83c1.52,2.42,1.36,5.8-0.4,8.06c-2.55,3.28-7.58,3.54-10.51,0.63
		c-1.71-1.7-2.46-4.32-1.91-6.67c0.41-1.75,1.53-3.3,3.02-4.3C862.67,155.52,865.06,155.52,867.03,156.14z"/>
	<path class="st3" d="M840.79,376.71c-1.66,0.4-2.7-0.43-3.72-0.98c-8.79-4.78-17.53-9.66-26.3-14.48
		c-5.62-3.08-11.27-6.11-16.9-9.18c-0.59-0.32-1.66-0.67-0.61-1.56c0.56-0.48,0.57-1.88,2.14-0.98c5.96,3.43,12.05,6.62,18.08,9.93
		c7.77,4.27,15.5,8.6,23.29,12.82C838.65,373.3,839.4,375.14,840.79,376.71z"/>
	<path class="st5" d="M750.14,91.41c-1.12,2.06-2.05,1.72-3.58,0.32c-6.79-6.21-13.46-12.57-20.95-18
		c-2.73-1.98-5.48-3.97-8.15-6.05c-1.35-1.05-1.35-1.05-0.66-3.78C728.98,71.95,739.9,81.32,750.14,91.41z"/>
	<path class="st6" d="M825.97,176.39c-0.77-2.2,0.34-2.91,2.36-3.49c8.21-2.35,16.37-4.87,24.53-7.4c1.27-0.4,1.83-0.38,2.35,1.07
		c0.58,1.64-0.9,1.29-1.29,1.4C844.61,170.85,835.26,173.62,825.97,176.39z"/>
	<path class="st6" d="M664.99,221.45c0.03-2.2,1.79-3.81,4.14-3.79c2.54,0.03,4.31,1.75,4.33,4.21c0.03,2.53-2.14,4.28-5.17,4.18
		C666.17,225.97,664.95,224.28,664.99,221.45z"/>
	<path class="st5" d="M634.82,368.77c-2.36,0-3.48-0.98-3.5-3.05c-0.02-2.95,0.97-4.23,3.31-4.26c2.27-0.03,4.11,1.72,4.04,3.84
		C638.61,367.22,636.88,368.77,634.82,368.77z"/>
	<path class="st7" d="M544.62,61.05c-0.16,0.16-0.33,0.33-0.49,0.49c-0.64-0.6-0.58-1.32-0.27-2.39
		C544.18,59.95,544.4,60.5,544.62,61.05z"/>
	<path class="st0" d="M167.71,622.2c-1.66-8.02-3.29-16.04-4.94-24.06c-2.07-10.05-4.15-20.1-6.21-30.16
		c-2.61-12.74-5.2-25.48-7.83-38.22c-2.42-11.67-4.9-23.32-7.33-34.99c-2.54-12.17-5.09-24.33-7.52-36.52
		c-0.25-1.24-0.64-1.49-1.73-1.49c-9.85,0.02-19.71,0.03-29.56-0.01c-0.97,0-1.73,0.29-1.94,1.17c-0.94,4.1-1.81,8.23-2.68,12.34
		c-1.43,6.73-2.81,13.47-4.27,20.19c-1.4,6.39-2.93,12.75-4.31,19.14c-1.64,7.59-3.15,15.22-4.79,22.81
		c-1.38,6.41-2.92,12.79-4.31,19.2c-1.98,9.11-3.88,18.23-5.82,27.35c-1.41,6.64-2.81,13.29-4.26,19.92
		c-1.23,5.65-2.53,11.28-3.79,16.93c-0.4-7.7-0.46-15.35-0.36-23.01c0.02-1.77-0.44-2.25-2.22-2.23
		c-10.11,0.09-20.21-0.03-30.32,0.1c-2.29,0.03-2.86-0.55-2.85-2.84c0.08-42.87,0.04-85.74,0.1-128.61c0-1.97-0.47-2.52-2.47-2.49
		c-8.51,0.12-17.01,0.15-25.52-0.01c-2.4-0.05-2.85,0.71-2.84,2.94c0.06,53.4,0.05,106.8,0.04,160.2c0,1.01-0.04,2.02-0.06,3.03
		c0.83,0.63,1.79,0.31,2.69,0.31c10.11,0.03,20.21,0.02,30.32,0.02c20.21,0,40.42,0.01,60.63-0.03c0.97,0,2.28,0.61,2.82-0.91
		c-0.01-0.08-0.04-0.17-0.02-0.25c1.39-8.89,2.78-17.79,4.19-26.68c0.13-0.82,0.56-1.29,1.53-1.28c9.52,0.03,19.03,0.02,28.55,0.02
		c0.59,0,1.32-0.06,1.32,0.77c0,2.07,0.75,3.99,1.09,5.99c1.26,7.36,2.56,14.72,3.84,22.08c0.42,0.39,0.94,0.3,1.44,0.3
		c9.42,0.01,18.83,0.01,28.25-0.01c0.55,0,1.2,0.26,1.6-0.4C167.99,622.6,167.75,622.42,167.71,622.2z M124.45,568.18
		c-5.38-0.15-10.77-0.09-16.16-0.02c-1.46,0.02-1.84-0.33-1.61-1.86c3.42-23.11,6.6-46.26,9.51-69.45c0.09-0.72,0.09-1.48,0.75-2.31
		c0.92,8.32,1.78,16.38,2.7,24.44c1.79,15.62,4.05,31.17,6.88,46.63C126.89,567.63,126.61,568.24,124.45,568.18z"/>
	<path class="st0" d="M847.6,610.96c-2.59-12.48-5.2-24.95-7.78-37.43c-2.46-11.9-4.85-23.82-7.32-35.72
		c-2.42-11.66-4.91-23.3-7.33-34.96c-2.14-10.28-4.24-20.57-6.32-30.87c-0.98-4.87-1.89-9.75-2.83-14.63
		c-0.42-0.61-1.07-0.38-1.62-0.38c-9.91-0.01-19.82-0.01-29.73-0.01c-0.49,0-1.02-0.1-1.44,0.29c-1.04,3.31-1.74,6.73-2.41,10.1
		c-1.7,8.49-3.67,16.91-5.48,25.37c-1.52,7.11-3.14,14.19-4.65,21.29c-1.65,7.76-3.31,15.53-5.02,23.28
		c-1.38,6.24-2.66,12.5-4.11,18.73c-2.09,8.99-3.64,18.1-5.68,27.1c-1.53,6.77-3.03,13.55-4.45,20.34c-0.86,4.1-1.86,8.16-2.8,12.24
		c-0.1-0.02-0.2-0.03-0.31-0.05c0-8.15,0-16.3,0-24.45c-0.83-0.63-1.79-0.31-2.68-0.31c-10.01-0.03-20.02-0.01-30.02-0.03
		c-0.82,0-1.68,0.25-2.46-0.25c-0.06-1-0.18-2-0.18-2.99c-0.01-43.47-0.01-86.93-0.01-130.4c-0.36-0.28-0.78-0.27-1.2-0.27
		c-9.4,0-18.8,0-28.19,0c-0.49,0-1.02-0.13-1.4,0.35c0.02,1.01,0.05,2.02,0.05,3.03c0,53.48,0.02,106.96-0.05,160.44
		c0,2.22,0.52,2.75,2.74,2.74c30.32-0.08,60.64-0.08,90.96,0.01c1.86,0.01,2.49-0.65,2.73-2.21c0.37-2.38,0.68-4.77,1.08-7.14
		c1.11-6.53,2.25-13.05,3.38-19.58c0.47-0.26,0.98-0.2,1.48-0.2c9.31,0,18.63,0,27.94,0c0.49,0,1.01-0.09,1.45,0.26
		c0.71,3.82,1.44,7.63,2.11,11.45c0.92,5.21,1.93,10.41,2.6,15.65c0.19,1.45,0.69,1.7,1.81,1.7c9.84,0,19.68,0,29.75,0
		C849.3,619.18,848.45,615.07,847.6,610.96z M807.07,568.43c-5.55-0.11-11.11-0.1-16.66,0c-1.56,0.03-1.77-0.48-1.58-1.86
		c2.8-19.97,5.57-39.94,8.33-59.91c0.46-3.33,0.85-6.67,1.28-10c0.2-0.33,0.32-0.8,0.88-0.5c2.23,23.51,5.22,46.92,9.43,70.16
		C809.07,567.98,808.86,568.47,807.07,568.43z"/>
	<path class="st8" d="M798.45,495.63c-0.13-0.85,0.12-1.59,0.62-2.28c0.51,0.36,0.26,0.85,0.27,1.29
		C798.95,494.89,799.35,495.84,798.45,495.63z"/>
	<path class="st9" d="M798.45,495.63c0.3-0.33,0.59-0.66,0.89-0.99c0,0.51,0,1.01,0,1.52c-0.29,0.17-0.59,0.33-0.88,0.5
		C798.45,496.31,798.45,495.97,798.45,495.63z"/>
	<path class="st0" d="M292.63,571.95c-0.39-3.07-0.58-6.18-1.2-9.2c-1.94-9.46-6.3-17.36-15.01-22.29c-1.74-0.98-3.52-1.9-5.55-2.99
		c8.85-4.53,14.78-11.2,17.33-20.44c3.2-11.62,2.92-23.26-0.69-34.8c-3.22-10.28-9.94-16.97-20.07-20.6
		c-8.28-2.97-16.85-3.89-25.5-4.55c-1.59-0.37-3.23,0.16-4.81-0.34c-6.09,0.46-12.19,0.16-18.28,0.17
		c-4.5,0.01-9.01,0.29-13.51-0.18c-1.66,0.55-1,1.96-1,3.01c-0.03,53.68-0.03,107.36-0.01,161.04c0,0.88-0.35,1.85,0.34,2.66
		c9.74-0.02,19.49-0.08,29.23-0.02c2.76,0.01,5.52-0.54,8.28,0c1.07-0.41,2.22-0.01,3.3-0.34c4.57-0.28,9.12-0.72,13.62-1.62
		c9.66-1.93,17.7-6.44,23.82-14.33c6.33-8.17,8.8-17.59,9.66-27.62C292.87,576.98,292.78,574.47,292.63,571.95z M234.46,505.08
		c0-6.23,0.08-12.47-0.05-18.7c-0.04-1.95,0.55-2.4,2.41-2.35c3.8,0.11,7.56,0.34,11.22,1.44c6.88,2.08,10.84,6.75,12.14,13.75
		c0.71,3.84,0.84,7.7,0.13,11.54c-1.6,8.56-6.53,13.3-15.1,14.63c-2.92,0.45-5.85,0.54-8.8,0.58c-1.53,0.02-2.01-0.36-1.98-1.96
		C234.52,517.71,234.46,511.39,234.46,505.08z M261.02,578.05c-1.47,9.65-7.11,14.62-17.5,15.54c-2.42,0.21-4.87-0.01-7.3,0.1
		c-1.53,0.07-1.79-0.63-1.78-1.96c0.05-6.64,0.02-13.28,0.02-19.92c0-6.47,0.05-12.95-0.03-19.42c-0.02-1.62,0.37-2.2,2.08-2.14
		c3.53,0.11,7.04,0.26,10.51,0.95c7.68,1.53,12.28,6.07,13.72,13.82C261.54,569.35,261.68,573.71,261.02,578.05z"/>
	<path class="st0" d="M394.6,622.21c-9.54-24.3-19.06-48.61-28.64-72.9c-0.53-1.34-0.57-1.71,1-2.35
		c6.2-2.51,11.47-6.31,15.31-11.97c4.77-7.04,6.29-15.05,7.39-23.22c0.37-1.38-0.17-2.83,0.34-4.2c0.01-2.29,0.02-4.58,0.04-6.87
		c-0.61-1.48,0.05-3.07-0.39-4.57c-0.37-2.12-0.75-4.24-1.11-6.36c-2.43-14.37-9.94-24.48-24.13-29.14
		c-7.78-2.55-15.79-3.31-23.89-3.53c-0.4-0.14-0.82-0.14-1.24-0.14c-10.13,0-20.26,0-30.4,0.01c-0.57,0-1.18-0.13-1.7,0.26
		c0,54.65,0.01,109.31-0.05,163.96c0,1.88,0.43,2.37,2.33,2.34c8.42-0.12,16.84-0.13,25.26,0.01c2.16,0.04,2.59-0.59,2.58-2.65
		c-0.08-20.29-0.05-40.59-0.04-60.88c0-0.9-0.24-1.89,0.48-3.11c1.06,2.74,2.01,5.08,2.88,7.45c3.57,9.71,7.13,19.42,10.66,29.14
		c3.37,9.28,6.68,18.58,10.05,27.85c0.4,1.1,0.78,2.2,2.49,2.18c10.35-0.09,20.71-0.04,31.24-0.04
		C394.86,622.96,394.74,622.58,394.6,622.21z M359.66,515.79c-3.05,10.88-11.36,14.14-20.73,13.62c-1.73-0.1-1.72-1.11-1.72-2.39
		c0.03-6.97,0.01-13.95,0.01-20.92c0.05,0,0.11,0,0.16,0c0-6.9,0.09-13.79-0.05-20.68c-0.04-2.05,0.63-2.66,2.53-2.51
		c1.92,0.15,3.88-0.02,5.78,0.26c9.11,1.36,13.49,6.11,14.87,16.61C361.23,505.11,361.14,510.52,359.66,515.79z"/>
	<path class="st1" d="M763.04,645.31c-12.79-0.39-25.59-0.1-38.39-0.12c-0.91,0-1.27,0.1-1.58,1.24c-0.77,2.83-1.35,5.73-1.88,8.57
		c-1.77,9.37-4,18.63-5.88,27.96c-1.49,7.43-3.27,14.8-4.83,22.21c-1.58,7.49-2.85,15.06-4.68,22.49c-0.61,2.47-0.24,2.89,2.07,2.89
		c11.05-0.03,22.1,0,33.16,0.03c8.01,0.02,15.45-1.2,21.83-6.47c5.7-4.71,9.56-11.52,10.85-18.79c0.94-5.26-1.08-12.8-4.95-16.56
		c-0.48-0.47-1.02-0.92-1.23-1.56c-0.48-1.46,2.87-3.47,3.77-4.43c3-3.21,5.24-7.27,6.35-11.53c0.45-1.72,0.72-3.53,0.8-5.36
		C778.91,656.1,774.14,645.66,763.04,645.31z M747.07,717.33c-8.21,0.46-16.47,0.1-24.88,0.1c1.61-7.56,3.21-14.94,4.71-22.34
		c0.25-1.2,0.81-1.39,1.88-1.38c8.16,0.04,16.33-0.01,24.49,0.04c2.82,0.02,4.72,1.63,5.86,4.71
		C762.01,706.24,755.51,716.86,747.07,717.33z M751.82,681.12c-6.72,0.19-13.45,0.01-20.18,0.08c-1.42,0.01-1.73-0.43-1.44-1.76
		c1.44-6.56,2.86-13.12,4.21-19.7c0.27-1.3,0.93-1.52,2.08-1.5c3.78,0.05,7.57,0.02,11.35,0.02c3.36,0,6.73,0.1,10.09-0.03
		c2.98-0.11,4.71,1.36,5.79,3.92C767.03,669.96,760.27,680.87,751.82,681.12z"/>
	<path class="st1" d="M848.85,728.26c-1.81-9.79-3.71-19.57-5.46-29.37c-3.09-17.25-6.11-34.51-9.15-51.76
		c-0.22-1.27-0.71-2.04-2.26-1.96c-2.52,0.14-5.05,0.09-7.57,0.02c-1.34-0.04-2.02,0.5-2.72,1.68c-4.48,7.49-9.11,14.88-13.64,22.33
		c-8.6,14.14-17.19,28.28-25.76,42.44c-3.74,6.17-7.45,12.36-11.38,18.89c5.19,0,10.04-0.01,14.88,0.01
		c0.96,0.01,1.22-0.64,1.62-1.3c4.28-7.22,8.63-14.41,12.86-21.66c0.78-1.34,1.63-1.85,3.17-1.83c8.25,0.07,16.5,0.11,24.75-0.03
		c1.8-0.03,2.28,0.83,2.52,2.15c1.25,7,2.57,13.98,3.57,21.01c0.23,1.59,0.72,1.69,1.94,1.67c3.62-0.05,7.25-0.14,10.86,0.03
		C849.1,730.67,849.1,729.62,848.85,728.26z M827.11,693.47c-5.72-0.06-11.44-0.03-17.15-0.02c-1.14,0-1.87-0.1-1.01-1.51
		c5.02-8.25,9.99-16.53,14.99-24.79c0.07-0.11,0.29-0.12,0.55-0.22c1.39,8.28,2.76,16.53,4.16,24.77
		C828.86,693.01,828.5,693.49,827.11,693.47z"/>
</g>
</svg>
