<?xml version="1.0" encoding="utf-8"?>
<!-- Generator: Adobe Illustrator 27.9.0, SVG Export Plug-In . SVG Version: 6.00 Build 0)  -->
<svg version="1.1" id="Capa_1" xmlns="http://www.w3.org/2000/svg" xmlns:xlink="http://www.w3.org/1999/xlink" x="0px" y="0px"
	 viewBox="0 0 912.36 367.72" style="enable-background:new 0 0 912.36 367.72;" xml:space="preserve">
<style type="text/css">
	.st0{fill:#5C5B5F;}
	.st1{fill:#0F69B4;}
	.st2{fill:#EB3C46;}
</style>
<g>
	<path class="st0" d="M334.51,958.94h-2.63v6.72h-1.98v-17.59h4.61c3.44,0,6.31,1.64,6.31,5.24
		C340.82,956.99,338.13,958.94,334.51,958.94z M334.38,949.77h-2.5v7.53h2.5c2.68,0,4.3-1.28,4.3-3.94
		C338.68,950.89,336.91,949.77,334.38,949.77z"/>
	<path class="st0" d="M349.68,954.62c-0.36-0.13-0.94-0.23-1.64-0.23c-1.23,0-2.22,0.7-2.87,1.38v9.9h-1.98V952.9h1.33l0.36,1.62
		c0.55-0.73,1.67-1.8,3.31-1.8c0.94,0,1.51,0.18,1.62,0.21L349.68,954.62z"/>
	<path class="st0" d="M361.87,959.26c0,4.3-2.08,6.67-5.5,6.67c-3.47,0-5.45-2.32-5.45-6.67c0-3.75,1.77-6.62,5.45-6.62
		C359.92,952.64,361.87,955.45,361.87,959.26z M359.84,959.26c0-3.34-1.12-5.13-3.47-5.13c-2.4,0-3.44,1.88-3.44,5.13
		c0,3.13,0.91,5.19,3.44,5.19C358.85,964.44,359.84,962.67,359.84,959.26z"/>
	<path class="st0" d="M369.27,965.59l-1.3,0.1l-4.09-12.8h2.19c0,0,2.4,7.77,3.49,11.6c1.12-3.86,3.47-11.6,3.47-11.6h2.03
		l-4.09,12.64c-1.33,4.07-2.66,5.37-5.11,5.37c-1.07,0-2.32-0.57-2.84-1.02l0.65-1.33h0.16c0.36,0.29,1.2,0.81,2.14,0.81
		c1.49,0,2.35-0.89,3.15-3.31L369.27,965.59z"/>
	<path class="st0" d="M378.7,959.86c0,3.15,1.62,4.54,4.04,4.54c1.64,0,3.1-0.76,3.96-1.28l0.5,1.41c-1.07,0.65-2.74,1.41-4.67,1.41
		c-3.49,0-5.81-2.32-5.81-6.72c0-4.04,1.98-6.57,5.47-6.57c3.6,0,5.11,2.89,5.11,6.1v1.12H378.7z M382.11,954.15
		c-2.42,0-3.41,2.14-3.41,4.33h6.67C385.37,956.26,384.62,954.15,382.11,954.15z"/>
	<path class="st0" d="M399.75,964.81c-0.78,0.44-2.4,1.12-4.25,1.12c-3.23,0-5.58-1.9-5.58-6.65c0-4.33,2.37-6.65,5.58-6.65
		c1.46,0,3.02,0.31,4.17,1.02l-0.57,1.41c-0.99-0.57-2.19-0.83-3.49-0.83c-2.29,0-3.7,1.82-3.7,5.06c0,3.6,1.41,5.11,3.7,5.11
		c1.49,0,2.76-0.52,3.67-1.07L399.75,964.81z"/>
	<path class="st0" d="M406.66,965.93c-1.8,0-3.28-0.91-3.28-3.91v-7.69h-1.93v-1.43h1.93v-2.32l1.98-0.63v2.94h3.73v1.43h-3.73v7.92
		c0,1.36,0.5,2.01,1.69,2.01c0.68,0,1.62-0.34,2.03-0.55l0.39,1.46C408.93,965.51,407.7,965.93,406.66,965.93z"/>
	<path class="st0" d="M421.9,959.26c0,4.3-2.08,6.67-5.5,6.67c-3.47,0-5.45-2.32-5.45-6.67c0-3.75,1.77-6.62,5.45-6.62
		C419.95,952.64,421.9,955.45,421.9,959.26z M419.87,959.26c0-3.34-1.12-5.13-3.47-5.13c-2.4,0-3.44,1.88-3.44,5.13
		c0,3.13,0.91,5.19,3.44,5.19C418.88,964.44,419.87,962.67,419.87,959.26z"/>
	<path class="st0" d="M438.52,965.67l-0.34-1.64c-0.76,0.96-2.14,1.9-3.94,1.9c-2.61,0-4.12-1.75-4.12-3.91
		c0-2.22,1.62-3.65,4.51-3.65h3.31v-1.02c0-2.22-0.96-3.15-2.89-3.15c-1.62,0-2.92,0.42-3.86,0.83l-0.52-1.43
		c1.02-0.44,2.53-0.96,4.64-0.96c3.02,0,4.56,1.56,4.56,4.61v8.42H438.52z M437.95,959.73h-3c-2.16,0-2.89,0.94-2.89,2.22
		c0,1.54,0.83,2.55,2.68,2.55c1.25,0,2.45-0.73,3.21-1.59V959.73z"/>
	<path class="st0" d="M445.27,966.53v4.09h-2.01V952.9h1.54l0.31,1.51c0.89-0.99,2.24-1.77,3.73-1.77c3.26,0,4.87,2.32,4.87,6.62
		c0,4.51-2.24,6.67-5.29,6.67c-1.54,0-2.53-0.55-3.44-1.46C444.98,964.47,445.27,965.72,445.27,966.53z M445.27,963.06
		c0.78,0.81,1.85,1.38,3.02,1.38c2.32,0,3.41-1.51,3.41-5.19c0-3.36-0.96-5.08-3.28-5.08c-1.25,0-2.4,0.7-3.15,1.49V963.06z"/>
	<path class="st0" d="M467.24,959.26c0,4.3-2.08,6.67-5.5,6.67c-3.47,0-5.45-2.32-5.45-6.67c0-3.75,1.77-6.62,5.45-6.62
		C465.28,952.64,467.24,955.45,467.24,959.26z M465.2,959.26c0-3.34-1.12-5.13-3.47-5.13c-2.4,0-3.44,1.88-3.44,5.13
		c0,3.13,0.91,5.19,3.44,5.19C464.21,964.44,465.2,962.67,465.2,959.26z"/>
	<path class="st0" d="M474.64,965.59l-1.3,0.1l-4.09-12.8h2.19c0,0,2.4,7.77,3.49,11.6c1.12-3.86,3.47-11.6,3.47-11.6h2.03
		l-4.09,12.64c-1.33,4.07-2.66,5.37-5.11,5.37c-1.07,0-2.32-0.57-2.84-1.02l0.65-1.33h0.16c0.36,0.29,1.2,0.81,2.14,0.81
		c1.49,0,2.35-0.89,3.15-3.31L474.64,965.59z"/>
	<path class="st0" d="M490.14,965.67l-0.34-1.64c-0.76,0.96-2.14,1.9-3.94,1.9c-2.61,0-4.12-1.75-4.12-3.91
		c0-2.22,1.62-3.65,4.51-3.65h3.31v-1.02c0-2.22-0.96-3.15-2.89-3.15c-1.62,0-2.92,0.42-3.86,0.83l-0.52-1.43
		c1.02-0.44,2.53-0.96,4.64-0.96c3.02,0,4.56,1.56,4.56,4.61v8.42H490.14z M489.57,959.73h-3c-2.16,0-2.89,0.94-2.89,2.22
		c0,1.54,0.83,2.55,2.68,2.55c1.25,0,2.45-0.73,3.21-1.59V959.73z"/>
	<path class="st0" d="M503.3,964.13c-0.73,0.96-2.16,1.8-3.67,1.8c-3.02,0-5.13-2.24-5.13-6.67c0-3.88,1.93-6.62,5.34-6.62
		c1.59,0,2.68,0.52,3.41,1.09c-0.08-0.68-0.1-1.33-0.1-2.08v-3.96h1.98v17.98h-1.49L503.3,964.13z M503.14,955.06
		c-0.6-0.42-1.67-0.91-3.1-0.91c-2.4,0-3.54,1.88-3.54,5.11c0,3.15,1.02,5.19,3.41,5.19c1.15,0,2.19-0.5,3.23-1.62V955.06z"/>
	<path class="st0" d="M519.06,959.26c0,4.3-2.09,6.67-5.5,6.67c-3.47,0-5.45-2.32-5.45-6.67c0-3.75,1.77-6.62,5.45-6.62
		C517.11,952.64,519.06,955.45,519.06,959.26z M517.03,959.26c0-3.34-1.12-5.13-3.47-5.13c-2.4,0-3.44,1.88-3.44,5.13
		c0,3.13,0.91,5.19,3.44,5.19C516.04,964.44,517.03,962.67,517.03,959.26z"/>
	<path class="st0" d="M529.79,966.53v4.09h-2.01V952.9h1.54l0.31,1.51c0.89-0.99,2.24-1.77,3.73-1.77c3.26,0,4.87,2.32,4.87,6.62
		c0,4.51-2.24,6.67-5.29,6.67c-1.54,0-2.53-0.55-3.44-1.46C529.51,964.47,529.79,965.72,529.79,966.53z M529.79,963.06
		c0.78,0.81,1.85,1.38,3.02,1.38c2.32,0,3.41-1.51,3.41-5.19c0-3.36-0.96-5.08-3.28-5.08c-1.25,0-2.4,0.7-3.15,1.49V963.06z"/>
	<path class="st0" d="M551.76,959.26c0,4.3-2.08,6.67-5.5,6.67c-3.47,0-5.45-2.32-5.45-6.67c0-3.75,1.77-6.62,5.45-6.62
		C549.81,952.64,551.76,955.45,551.76,959.26z M549.73,959.26c0-3.34-1.12-5.13-3.47-5.13c-2.4,0-3.44,1.88-3.44,5.13
		c0,3.13,0.91,5.19,3.44,5.19C548.74,964.44,549.73,962.67,549.73,959.26z"/>
	<path class="st0" d="M561.24,954.62c-0.37-0.13-0.94-0.23-1.64-0.23c-1.22,0-2.21,0.7-2.87,1.38v9.9h-1.98V952.9h1.33l0.37,1.62
		c0.55-0.73,1.67-1.8,3.31-1.8c0.94,0,1.51,0.18,1.62,0.21L561.24,954.62z"/>
</g>
<g>
	<g>
		<path class="st1" d="M769.07,367.69c39.15-2.62,72.22-17.13,98.87-43.54c29.59-29.32,44.41-66.36,44.41-111.06
			c0-40.78-11.64-75.76-36.51-103.54c-0.72-0.8-1.96-1.41-3.11-1.41c-2.24,0-4.06,1.81-4.06,4.04c0,0.39,0.03,0.76,0.13,1.13
			c18.33,49.29,7.68,98.85-24.69,111.98c-22.7,9.18-50.16-1.91-71.85-25.93c-1.63-1.63-4.4-1.67-6.02-0.05
			c-1.48,1.48-1.62,3.78-0.43,5.41l0.46,0.52c18.74,21.13,28.3,47.33,28.3,78.09c0,30.7-9.43,56.48-28.28,77.37
			c-0.8,0.74-1.28,1.76-1.28,2.94C765.03,365.88,766.84,367.69,769.07,367.69z"/>
		<path class="st1" d="M465.65,353.95c-3.27-4.74-7.62-11.78-13.05-21.2c-8.6-14.91-15.28-25.38-20.04-31.38
			c-4.76-5.99-9.62-10.72-14.6-14.22c8.47-3.46,16.43-8.7,20.96-15.73c4.52-7.04,6.81-15.37,6.81-24.99
			c0-14.12-4.64-25.35-13.88-33.65c-9.26-8.28-23.21-12.43-38.94-12.43h-39v165.46h24.28v-72.02h1.72c7.31,0,12.46,0.88,15.56,2.67
			c3.1,1.78,6.53,4.66,10.38,8.71c3.82,3.98,8.04,9.41,12.62,16.19l7.47,12.93l6.9,12.09l4.34,6.53c0.68,0.93,1.11,1.61,1.34,2.01
			l6.78,10.89h28.58L465.65,353.95z M408.53,267.6c-3.82,1.86-12.34,2.81-22.62,2.81h-7.72v-47.62h6.1c9.93,0,18.54,0.79,22.84,2.38
			c4.28,1.58,7.62,4.32,9.98,8.15c2.37,3.86,3.56,8.16,3.56,12.92c0,4.81-1.07,9.11-3.19,12.88
			C415.35,262.89,412.35,265.73,408.53,267.6z"/>
		<path class="st1" d="M494.1,200.34h82.98v23.36h-58.39v41.72h58.39v23.28h-58.39v77.1H494.1V200.34z"/>
		<path class="st1" d="M304.2,222.26c-16-16.18-36.01-24.28-60.05-24.28c-24.08,0-43.95,8.11-59.67,24.28
			c-15.73,16.19-23.59,36.65-23.59,61.33c0,24.11,7.8,44.14,23.43,60.13c15.61,15.99,35.15,23.99,58.62,23.99
			c24.56,0,44.92-8.01,61.05-23.99c16.15-15.99,24.23-36.2,24.23-60.58C328.19,258.73,320.19,238.45,304.2,222.26z M286.11,327.92
			c-11.15,12.14-25.06,18.19-41.74,18.19c-16.61,0-30.43-5.94-41.49-17.84c-11.05-11.87-16.57-26.76-16.57-44.68
			c0-18.43,5.5-33.62,16.5-45.5c11.02-11.87,25.08-17.82,42.2-17.82c16.24,0,29.95,6,41.1,18c11.17,12.01,16.75,26.8,16.75,44.39
			C302.87,300.72,297.29,315.8,286.11,327.92z"/>
		<path class="st1" d="M742.77,222.26c-15.99-16.18-36.02-24.28-60.05-24.28c-24.07,0-43.94,8.11-59.68,24.28
			c-15.72,16.19-23.61,36.65-23.61,61.33c0,24.11,7.83,44.14,23.45,60.13c15.62,15.99,35.16,23.99,58.61,23.99
			c24.56,0,44.92-8.01,61.07-23.99c16.12-15.99,24.22-36.2,24.22-60.58C766.79,258.73,758.78,238.45,742.77,222.26z M724.7,327.92
			c-11.17,12.14-25.07,18.19-41.76,18.19c-16.6,0-30.43-5.94-41.47-17.84c-11.04-11.87-16.57-26.76-16.57-44.68
			c0-18.43,5.5-33.62,16.52-45.5c11.01-11.87,25.07-17.82,42.16-17.82c16.27,0,29.96,6,41.12,18c11.16,12.01,16.74,26.8,16.74,44.39
			C741.44,300.72,735.86,315.8,724.7,327.92z"/>
		<path class="st1" d="M138.06,327.92c-12.67,12.14-28.49,18.19-47.43,18.19c-18.88,0-34.61-5.94-47.16-17.84
			c-12.57-11.87-18.84-26.76-18.84-44.68c0-18.43,6.25-33.62,18.78-45.5c12.52-11.87,28.49-17.82,47.94-17.82
			c18.49,0,34.05,6,46.72,18c0.16,0.15,0.26,0.26,0.42,0.4v-1.37v-23.1v-2.37c-20-9.08-38.15-13.63-54.47-13.63
			c-23.72,0-43.63,8.21-59.79,24.66C8.07,239.28,0,259.52,0,283.59c0,15.18,3.52,29.26,10.58,42.29
			c7.05,13.04,16.62,23.26,28.74,30.7c12.1,7.41,26.84,11.14,44.22,11.14c21.41,0,40.26-4.74,56.58-14.22v-2.36v-23.7v-1.51
			c-0.05,0.07-0.12,0.08-0.19,0.14C139.33,326.7,138.7,327.32,138.06,327.92z"/>
		<path class="st1" d="M849.96,163.01c-5.69-5.75-12.81-8.65-21.37-8.65c-8.56,0-15.65,2.89-21.22,8.65
			c-5.6,5.77-8.41,13.05-8.41,21.84c0,8.56,2.76,15.67,8.34,21.37c5.55,5.68,12.51,8.53,20.86,8.53c8.73,0,15.99-2.84,21.72-8.53
			c5.74-5.7,8.61-12.88,8.61-21.55C858.5,176,855.66,168.78,849.96,163.01z"/>
	</g>
	<rect x="1.08" class="st1" width="343.43" height="78.57"/>
	<rect x="344.51" class="st2" width="420.51" height="78.57"/>
</g>
</svg>
