<?xml version="1.0" encoding="utf-8"?>
<!-- Generator: Adobe Illustrator 27.9.0, SVG Export Plug-In . SVG Version: 6.00 Build 0)  -->
<svg version="1.1" id="Capa_1" xmlns="http://www.w3.org/2000/svg" xmlns:xlink="http://www.w3.org/1999/xlink" x="0px" y="0px"
	 viewBox="0 0 1080 290" enable-background="new 0 0 1080 290" xml:space="preserve">
<g>
	<rect fill="none" width="1080" height="290"/>
	<g>
		<g>
			<g>
				<path fill="#FFFFFF" d="M76.68,158.44H61.21V69.5h15.46V158.44z M135.93,105.99V69.5h15.46v88.94h-15.46v-36.99H83.6v-15.46
					H135.93z"/>
				<path fill="#FFFFFF" d="M245.06,133.45h-42.21l9.42-15.46h23.55l-15.48-25.61l-40.14,65.94H160.3l48.24-80.41
					c1.57-2.56,3.59-4.66,6.06-6.31c2.14-1.48,4.04-2.27,5.69-2.35c1.81-0.16,3.84,0.45,6.06,1.86c2.55,1.65,4.7,3.92,6.43,6.8
					l47.25,80.41H260.1L245.06,133.45z"/>
				<path fill="#FFFFFF" d="M329.03,158.44c-13.85,0-24.99-4.74-33.4-14.23c-7.59-8.66-11.38-19.05-11.38-31.17
					c0-11.96,3.63-21.94,10.89-29.94c8.25-9.07,19.54-13.61,33.89-13.61h50.1v15.46h-50.1c-8.91,0-16.12,2.93-21.65,8.78
					c-4.87,5.2-7.46,11.63-7.79,19.3c-0.25,8.08,2.06,14.93,6.93,20.53c5.44,6.27,12.95,9.4,22.51,9.4h50.1v15.46H329.03z"/>
				<path fill="#FFFFFF" d="M408.32,158.44h-15.46V69.5h15.46V158.44z M459.9,158.44h22.88l-53.07-43.54l53.07-45.4H459.9
					l-44.16,37.85c-2.97,2.56-4.45,4.95-4.45,7.17c0,2.15,1.48,4.5,4.45,7.05L459.9,158.44z"/>
				<path fill="#FFFFFF" d="M570.64,133.45h-42.21l9.42-15.46h23.55l-15.48-25.61l-40.14,65.94h-19.91l48.24-80.41
					c1.57-2.56,3.59-4.66,6.06-6.31c2.14-1.48,4.04-2.27,5.69-2.35c1.81-0.16,3.84,0.45,6.06,1.86c2.55,1.65,4.7,3.92,6.43,6.8
					l47.25,80.41h-19.94L570.64,133.45z"/>
				<path fill="#FFFFFF" d="M656.96,84.96v73.48H641.5V84.96h-35.13V69.5h85.6v15.46H656.96z"/>
				<path fill="#FFFFFF" d="M717.08,158.44h-15.46V69.5h15.46V158.44z M776.33,105.99V69.5h15.46v88.94h-15.46v-36.99h-52.33v-15.46
					H776.33z"/>
				<path fill="#FFFFFF" d="M1003.32,153.99L946.3,96.67v61.77h-15.46V77.29c0-2.39,0.62-4.29,1.85-5.69c1.24-1.4,2.85-2.1,4.83-2.1
					c2.89,0,5.81,1.53,8.78,4.58l57.03,57.15V69.5h15.46v81.27c0,5.69-1.94,8.54-5.81,8.54
					C1010.09,159.31,1006.87,157.53,1003.32,153.99z"/>
				<g>
					<path fill="#FFFFFF" d="M847.06,23.5l5.9-3.89c0.99-0.65,1.27-1.99,0.61-2.98l-3.89-5.9c-0.65-0.99-1.99-1.27-2.98-0.61
						l-5.9,3.89c-0.99,0.65-1.27,1.99-0.61,2.98l3.89,5.9C844.73,23.88,846.07,24.15,847.06,23.5z"/>
					<path fill="#FFFFFF" d="M907.79,140.79c7.99-10.55,12.54-23.75,12.07-36.99c-0.8-22.36-15.85-43.57-36.7-51.69
						c-0.43-0.16-0.86-0.33-1.32-0.42l-14.02,9.24c17.79,2.25,33.6,16.06,38.17,33.41c4.62,17.54-2.53,37.58-17.21,48.23
						c-14.68,10.65-35.95,11.22-51.18,1.38c-15.24-9.84-23.47-29.46-19.8-47.23c3.62-17.51,18.56-32.11,36.13-35.39l-7.36-11.18
						c-1.39,0.32-4.61,1.68-5.06,1.86c-1.93,0.75-3.82,1.63-5.66,2.59c-3.68,1.94-7.16,4.27-10.35,6.94
						c-6.38,5.33-11.67,12-15.3,19.49c-6.89,14.21-7.1,30.95-1.49,45.61c3.28,8.59,8.53,16.45,15.45,22.53
						c16.8,14.77,42.57,18.38,62.79,8.79C895.17,154.07,902.3,148.06,907.79,140.79z"/>
					<path fill="#FFFFFF" d="M892.96,122.83c0.11-0.21,0.22-0.42,0.33-0.63c4.8-9.24,5.75-20.91,1-30.36
						c-1.8-3.8-3.93-7.51-6.88-10.52c-2.59-2.62-5.59-4.92-8.91-6.55c-0.95-0.47-1.93-0.89-2.94-1.25l3.06,4.64
						c0.43,0.66,0.25,1.55-0.41,1.98l-13.49,8.89c-0.66,0.43-1.55,0.25-1.98-0.41l-10.81-16.41c0,0-3.44,0.74-7.83,3.44
						c-0.01,0-0.01,0.01-0.01,0.01c-1.58,0.98-3.29,2.22-5.01,3.77c-0.29,0.25-0.57,0.52-0.86,0.79l6.73,10.22
						c0.21,0.32,0.12,0.75-0.2,0.96l-8.91,5.87c-0.32,0.21-0.75,0.12-0.96-0.2l-4.43-6.72c-1.09,2.59-1.98,5.26-2.6,7.98
						c-0.5,2.22-0.84,4.48-0.95,6.76c-0.01,9.31,3.43,18.54,10.19,25.12c7.68,7.48,17.24,11.59,28.2,10.43
						c5.75-0.6,11.67-2.79,16.75-6.16C886.61,131.48,890.49,127.49,892.96,122.83z M858.95,106.11c-0.49,0.32-1.15,0.19-1.48-0.3
						l-5.15-7.81c-0.32-0.49-0.19-1.15,0.3-1.48l7.82-5.15c0.49-0.32,1.15-0.19,1.48,0.3l5.15,7.81c0.32,0.49,0.19,1.16-0.3,1.48
						L858.95,106.11z"/>
					<path fill="#FFFFFF" d="M861.94,58.51l14.18-9.35c0.99-0.65,1.27-1.99,0.61-2.98L867.38,32c-0.65-0.99-1.99-1.27-2.98-0.61
						l-14.18,9.35c-0.99,0.65-1.27,1.99-0.61,2.98l9.35,14.18C859.61,58.89,860.94,59.16,861.94,58.51z"/>
					<path fill="#FFFFFF" d="M840.53,34.91l-6.52-9.9c-0.65-0.99-1.99-1.27-2.98-0.61l-9.9,6.52c-0.99,0.65-1.27,1.99-0.61,2.98
						l6.52,9.9c0.65,0.99,1.99,1.27,2.98,0.61l9.9-6.52C840.91,37.24,841.18,35.9,840.53,34.91z"/>
				</g>
			</g>
		</g>
		<g>
			<g>
				<path fill="#FFFFFF" d="M64.25,243.97v-6.35h23.35c4,0,6.8-1.65,6.8-4.8c0-3-1.95-4.65-5.5-4.65H72.86v-5.35h15.6
					c3.6,0,5.3-1.25,5.3-4.4c0-3.35-2.35-4.5-6.55-4.5H64.4v-6.3h24.05c7.05,0,11.7,3.2,11.7,9.4c0,4.6-2.3,6.9-5,7.75
					c3.3,1.05,5.7,3.95,5.7,8.2c0,6.6-4.6,11-11.7,11H64.25z"/>
				<path fill="#FFFFFF" d="M105.4,225.42c0-10.65,8.2-18.25,18.85-18.25c10.6,0,18.85,7.6,18.85,18.25c0,10.6-8.25,19-18.85,19
					C113.6,244.42,105.4,236.02,105.4,225.42z M124.26,213.57c-8,0-12.5,5.15-12.5,12.15c0,7,4.5,12.35,12.45,12.35
					c8,0,12.5-5.35,12.5-12.35C136.71,218.72,132.16,213.57,124.26,213.57z"/>
				<path fill="#FFFFFF" d="M168.95,217.37v26.6h-6.05v-33c0-2.35,1.25-3.8,3.25-3.8c0.95,0,1.75,0.35,2.7,1.3l25.65,25.45v-26.6
					h6.05v33.3c0,2.4-1.3,3.8-3.15,3.8c-1.05,0-2-0.45-2.9-1.35L168.95,217.37z"/>
				<path fill="#FFFFFF" d="M223.3,243.97c-10.15,0-17.65-8-17.65-18.55c0-10.7,7.5-17.8,17.65-17.8h8.85
					c10.5,0,17.8,7.25,17.8,17.8s-7.45,18.55-17.8,18.55H223.3z M232.15,237.62c6.7,0,11.45-5.05,11.45-11.9
					s-4.75-11.75-11.45-11.75h-8.85c-6.5,0-11.3,4.85-11.3,11.75c0,6.85,4.75,11.9,11.3,11.9H232.15z"/>
				<path fill="#FFFFFF" d="M247.8,207.62h7.75l16.5,28l16.45-28h7.3l-20.95,34.8c-0.75,1.25-1.75,2.05-3.05,2.05
					c-1.4,0-2.35-0.8-3.1-2.05L247.8,207.62z"/>
				<path fill="#FFFFFF" d="M300.05,243.97v-36.35h6.35v36.35H300.05z"/>
				<path fill="#FFFFFF" d="M313.05,243.97v-36.35h32.45v6.35h-26.15v23.65h26.2v6.35H313.05z M324,228.17v-5.35h20.15v5.35H324z"/>
				<path fill="#FFFFFF" d="M396.26,243.97l-6.95-25.55L379,242.07c-0.7,1.55-1.7,2.4-3.25,2.4c-1.5,0-2.6-0.85-3.25-2.4
					l-10.25-23.65l-6.95,25.55h-6.25l9.35-34.2c0.45-1.75,1.45-2.6,3.15-2.6c1.35,0,2.6,0.75,3.2,2.15l11.2,25.7l11.2-25.7
					c0.6-1.4,1.7-2.15,3.05-2.15c1.55,0,2.55,0.85,3.05,2.6l9.3,34.2H396.26z"/>
				<path fill="#FFFFFF" d="M406.7,243.97v-36.35h26.6c7.1,0,11.8,3.2,11.8,9.4c0,4.6-2.35,6.9-5.05,7.75c3.3,1.05,5.7,3.95,5.7,8.2
					c0,6.65-4.6,11-11.7,11H406.7z M417.65,228.17v-5.35h15.7c3.6,0,5.3-1.25,5.3-4.4c0-3.85-3.05-4.45-7.75-4.45h-17.85v23.7h18.4
					c4.55,0,7.85-1.25,7.85-4.8c0-3-1.95-4.7-5.5-4.7H417.65z"/>
				<path fill="#FFFFFF" d="M485.05,243.97l-9.2-10.1h-13.6v-5.6h15.15c4.55,0,6.95-2.6,6.95-7.3s-2.6-7-6.95-7h-19.8v30h-6.3
					v-36.35h26.1c8.3,0,13.2,5.15,13.2,13.25c0,6-2.8,10.25-7.5,12.05l10.95,11.05H485.05z"/>
				<path fill="#FFFFFF" d="M497.35,243.97v-36.35h32.45v6.35h-26.15v23.65h26.2v6.35H497.35z M508.3,228.17v-5.35h20.15v5.35H508.3
					z"/>
				<path fill="#FFFFFF" d="M566.8,243.97v-13.8l-19.3-22.55h8.55l14.15,16.75l14.2-16.75h8.1l-19.35,22.55v13.8H566.8z"/>
				<path fill="#FFFFFF" d="M609.95,225.42c0-10.65,8.2-18.25,18.85-18.25c10.6,0,18.85,7.6,18.85,18.25c0,10.6-8.25,19-18.85,19
					C618.15,244.42,609.95,236.02,609.95,225.42z M628.8,213.57c-8,0-12.5,5.15-12.5,12.15c0,7,4.5,12.35,12.45,12.35
					c8,0,12.5-5.35,12.5-12.35C641.25,218.72,636.7,213.57,628.8,213.57z"/>
				<path fill="#FFFFFF" d="M659.55,243.97v-24.45c0-3.6-1.8-5.55-5.1-5.55h-3.5v-6.35h3.5c7.3,0,11.4,4.4,11.4,11.9v24.45H659.55z"
					/>
				<path fill="#FFFFFF" d="M686.85,243.97v-36.35h21.05c10.25,0,17.7,7.25,17.7,17.8s-7.45,18.55-17.7,18.55H686.85z M707.9,237.62
					c6.55,0,11.35-5.05,11.35-11.9s-4.8-11.75-11.35-11.75h-14.75v23.65H707.9z"/>
				<path fill="#FFFFFF" d="M731.15,243.97v-36.35h6.35v36.35H731.15z"/>
				<path fill="#FFFFFF" d="M760.75,243.97c-10.15,0-17.65-8-17.65-18.55c0-10.7,7.5-17.8,17.65-17.8h19.7v6.35h-19.7
					c-6.5,0-11.3,4.85-11.3,11.75c0,6.85,4.75,11.9,11.3,11.9h19.7v6.35H760.75z"/>
				<path fill="#FFFFFF" d="M785.95,243.97v-36.35h6.35v36.35H785.95z"/>
				<path fill="#FFFFFF" d="M798.95,243.97v-36.35h32.45v6.35h-26.15v23.65h26.2v6.35H798.95z M809.9,228.17v-5.35h20.15v5.35H809.9
					z"/>
				<path fill="#FFFFFF" d="M882.15,243.97l-6.95-25.55l-10.3,23.65c-0.7,1.55-1.7,2.4-3.25,2.4c-1.5,0-2.6-0.85-3.25-2.4
					l-10.25-23.65l-6.95,25.55h-6.25l9.35-34.2c0.45-1.75,1.45-2.6,3.15-2.6c1.35,0,2.6,0.75,3.2,2.15l11.2,25.7l11.2-25.7
					c0.6-1.4,1.7-2.15,3.05-2.15c1.55,0,2.55,0.85,3.05,2.6l9.3,34.2H882.15z"/>
				<path fill="#FFFFFF" d="M892.6,243.97v-36.35h26.6c7.1,0,11.8,3.2,11.8,9.4c0,4.6-2.35,6.9-5.05,7.75c3.3,1.05,5.7,3.95,5.7,8.2
					c0,6.65-4.6,11-11.7,11H892.6z M903.55,228.17v-5.35h15.7c3.6,0,5.3-1.25,5.3-4.4c0-3.85-3.05-4.45-7.75-4.45h-17.85v23.7h18.4
					c4.55,0,7.85-1.25,7.85-4.8c0-3-1.95-4.7-5.5-4.7H903.55z"/>
				<path fill="#FFFFFF" d="M970.95,243.97l-9.2-10.1h-13.6v-5.6h15.15c4.55,0,6.95-2.6,6.95-7.3s-2.6-7-6.95-7h-19.8v30h-6.3
					v-36.35h26.1c8.3,0,13.2,5.15,13.2,13.25c0,6-2.8,10.25-7.5,12.05l10.95,11.05H970.95z"/>
				<path fill="#FFFFFF" d="M983.25,243.97v-36.35h32.45v6.35h-26.15v23.65h26.2v6.35H983.25z M994.2,228.17v-5.35h20.15v5.35H994.2
					z"/>
				<path fill="#FFFFFF" d="M492.17,279.97v-6.39c0-4.23,2.34-6.3,6.72-6.3h7.89c1.65,0,2.76-0.99,2.76-2.64s-1.05-2.67-2.76-2.67
					h-14.43v-3.81h14.43c4.32,0,6.69,2.61,6.69,6.12c0,3.6-2.52,6.21-6.66,6.21h-7.92c-2.04,0-3.12,0.96-3.12,2.82v2.85h17.34v3.81
					H492.17z"/>
				<path fill="#FFFFFF" d="M516.29,268.84c0-6.39,4.92-10.95,11.31-10.95c6.36,0,11.31,4.56,11.31,10.95
					c0,6.36-4.95,11.4-11.31,11.4C521.21,280.24,516.29,275.2,516.29,268.84z M527.59,261.73c-4.8,0-7.5,3.09-7.5,7.29
					s2.7,7.41,7.47,7.41c4.8,0,7.5-3.21,7.5-7.41S532.33,261.73,527.59,261.73z"/>
				<path fill="#FFFFFF" d="M542.06,279.97v-6.39c0-4.23,2.34-6.3,6.72-6.3h7.89c1.65,0,2.76-0.99,2.76-2.64s-1.05-2.67-2.76-2.67
					h-14.43v-3.81h14.43c4.32,0,6.69,2.61,6.69,6.12c0,3.6-2.52,6.21-6.66,6.21h-7.92c-2.04,0-3.12,0.96-3.12,2.82v2.85h17.34v3.81
					H542.06z"/>
				<path fill="#FFFFFF" d="M566.29,279.97v-3.81h14.01c2.4,0,4.08-0.99,4.08-2.88c0-1.8-1.17-2.79-3.3-2.79h-9.63v-3.21h9.36
					c2.16,0,3.18-0.75,3.18-2.64c0-2.01-1.41-2.7-3.93-2.7h-13.68v-3.78h14.43c4.23,0,7.02,1.92,7.02,5.64c0,2.76-1.38,4.14-3,4.65
					c1.98,0.63,3.42,2.37,3.42,4.92c0,3.96-2.76,6.6-7.02,6.6H566.29z"/>
			</g>
		</g>
		<line fill="none" stroke="#FFFFFF" stroke-width="2" stroke-miterlimit="10" x1="61.55" y1="183.84" x2="1018.45" y2="183.84"/>
	</g>
</g>
</svg>
