<?xml version="1.0" encoding="utf-8"?>
<!-- Generator: Adobe Illustrator 27.9.0, SVG Export Plug-In . SVG Version: 6.00 Build 0)  -->
<svg version="1.1" id="Capa_1" xmlns="http://www.w3.org/2000/svg" xmlns:xlink="http://www.w3.org/1999/xlink" x="0px" y="0px"
	 viewBox="0 0 912.36 566.34" style="enable-background:new 0 0 912.36 566.34;" xml:space="preserve">
<style type="text/css">
	.st0{fill:#3B76BA;}
	.st1{fill:#EF7E15;}
	.st2{fill:#3C3C3B;}
	.st3{fill:#BCBBB9;}
	.st4{fill:#259C38;}
</style>
<g id="XMLID_27_">
	<g id="XMLID_393_">
		<path id="XMLID_495_" class="st0" d="M647.45,102.17c2.53,2.12,6.17-1.82,9.51-1.62l0.71,0.51l0.71-2.33
			C654.73,99.85,650.39,102.27,647.45,102.17"/>
		<path id="XMLID_494_" class="st0" d="M629.94,101.06l2.03-1.42c-0.61-0.5-2.83-0.1-2.23-0.7
			C627.51,99.95,628.22,100.35,629.94,101.06"/>
		<path id="XMLID_493_" class="st0" d="M628.32,103.28l1.11-0.6C629.14,102.48,628.72,102.48,628.32,103.28"/>
		<path id="XMLID_492_" class="st0" d="M631.76,101.36l-2.32,1.32c0.5,0.3,0.82,1.11,1.12-0.5
			C630.56,102.88,630.86,102.07,631.76,101.36"/>
		<path id="XMLID_491_" class="st0" d="M633.38,101.36c1.51,0.2,3.44,0.2,1.32,1.62C639.16,101.56,637.84,100.05,633.38,101.36"/>
		<path id="XMLID_490_" class="st0" d="M647.55,104.9l2.02,0.4l1.21-1.22C650.18,104.7,647.15,104.2,647.55,104.9"/>
		<path id="XMLID_489_" class="st0" d="M614.56,103.08c0,0.61,1.32,1.22,1.72,1.82l1.52-0.91
			C616.79,103.79,614.96,103.89,614.56,103.08"/>
		<path id="XMLID_488_" class="st0" d="M616.28,104.9l-2.33,1.52C616.28,106.02,616.59,105.51,616.28,104.9"/>
		<polygon id="XMLID_487_" class="st0" points="628.84,106.22 632.47,103.28 628.03,106.42 		"/>
		<polygon id="XMLID_486_" class="st0" points="616.19,127.77 614.26,128.68 617.61,127.47 		"/>
		<path id="XMLID_485_" class="st0" d="M622.96,129.19c-1.41,0.71,0.91,2.03-0.51,2.33c1.92,0.31,3.74-0.2,5.46-0.71
			C626.3,130.91,624.79,130.4,622.96,129.19"/>
		<path id="XMLID_484_" class="st0" d="M630.65,130.2l-2.74,0.61L630.65,130.2z"/>
		<path id="XMLID_483_" class="st0" d="M613.46,124.13c0,0.3,0.1,1.32,1.41,1.92l-0.51-1.62L613.46,124.13z"/>
		<path id="XMLID_482_" class="st0" d="M614.26,124.33l0.1,0.1c1.12,0.2,1.83,0.51,2.23,0.61
			C616.28,124.94,615.57,124.74,614.26,124.33"/>
		<path id="XMLID_481_" class="st0" d="M613.14,124.02l0.31,0.11L613.14,124.02z"/>
		<path id="XMLID_480_" class="st0" d="M621.45,106.42c-1.31,1.11-4.25,2.73-0.61,3.33C621.55,108.44,619.52,108.15,621.45,106.42"
			/>
		<path id="XMLID_479_" class="st0" d="M612.54,121.9l-0.3-0.1h-0.1l-0.1-0.1c0,2.93,0.2-24.79,0.1-13.05h0.1h0.11l0.8-0.1l1.32-0.1
			c-0.2-0.4-0.81-0.91-0.3-1.41l-1.22,0.81l-0.6,0.41l-0.21,0.1v0.1h-0.1c0.1-12.14-0.11,16.5,0,13.57l0.1-0.11H612.54z"/>
		<polygon id="XMLID_478_" class="st0" points="613.95,121.81 612.54,121.9 613.55,122.31 		"/>
		<path id="XMLID_477_" class="st0" d="M626.4,127.77c1.42-0.4,2.74-0.11,4.35,0.1l-4.75-1.51
			C625.59,126.76,624.68,127.37,626.4,127.77"/>
		<path id="XMLID_476_" class="st0" d="M620.54,125.95h0.3H620.54z"/>
		<polygon id="XMLID_475_" class="st0" points="645.43,131.31 645.32,131.01 645.23,131.21 		"/>
		<path id="XMLID_474_" class="st0" d="M625.9,125.95c-1.11-0.5-2.03-0.3-2.84,0l2.95,0.41C626.2,126.15,626.3,126.05,625.9,125.95"
			/>
		<path id="XMLID_473_" class="st0" d="M635.12,130.5l-1.83-1.32C633.7,129.79,634.71,130.81,635.12,130.5"/>
		<path id="XMLID_472_" class="st0" d="M621.14,126.45h-0.21C621.25,126.86,621.25,126.66,621.14,126.45"/>
		<polygon id="XMLID_471_" class="st0" points="621.14,126.45 623.06,125.95 620.84,125.95 		"/>
		<path id="XMLID_470_" class="st0" d="M653.42,122.81c-0.71,1.41-4.35,1.92-6.58-0.2c-3.02,0.41-2.93,5.36-1.52,8.4
			c0.31-0.6,0.51-1.11,3.54-1.31c-0.6-1.01-5.45-3.14-2.62-3.85c3.84,0.1,2.84,1.12,4.35,2.33c-0.9-2.12,5.57-1.41,5.67-4.15
			l-3.54,0.2C652.82,123.82,654.13,123.42,653.42,122.81"/>
		<path id="XMLID_469_" class="st0" d="M640.06,129.59l-1.21-0.1c1.21,0.61,2.03,1.32,3.35,2.84c2.12-0.3,2.73-0.71,3.03-1.11
			l-5.56-1.52L640.06,129.59z"/>
		<path id="XMLID_468_" class="st0" d="M633.79,128.38c1.42-1.31,4.35-1.31,3.34-3.34c-3.43-0.61-2.83,0.7-5.06,0.91
			c5.46,0.92-1.93,0.51,1.72,2.23l-3.04-0.3l2.54,1.32l-0.11-0.1v-0.2h0.11L633.79,128.38c1.42,0.61,0.1,0.41-0.5,0.5l-0.11,0.2
			l5.67,0.41C637.84,129.08,636.42,128.79,633.79,128.38"/>
		<path id="XMLID_467_" class="st0" d="M619.02,113.6l-0.3-0.3C618.51,113.6,618.41,113.71,619.02,113.6"/>
		<path id="XMLID_466_" class="st0" d="M616.49,113.2c0.31-0.3,0.41-1.02,1.82-1.11c1.21,0.2,0.2,0.7,0.41,1.21
			c0.69-0.62,2.32-1.73-0.31-1.82l-0.31,0.2l-3.74-0.61l-1.32-0.51c-0.2,4.25-0.2-9.91-0.3,9.52l-0.11,0.1
			c0.11-19.93,0-5.56,0.11-10.01v0.09l0.09,0.1l0.2,0.2l0.42,0.4l0.8,0.81L616.49,113.2z"/>
		<path id="XMLID_465_" class="st0" d="M622.76,121.81l4.75,0.3l-1.81-1.82l-0.11,0.81C623.06,120.18,623.27,121.29,622.76,121.81"
			/>
		<polygon id="XMLID_464_" class="st0" points="645.73,132.12 644.51,133.64 647.96,132.03 		"/>
		<polygon id="XMLID_463_" class="st0" points="651.59,133.34 650.89,134.65 652.82,134.24 		"/>
		<path id="XMLID_462_" class="st0" d="M739.73,186.25l-0.81-1.01L739.73,186.25z"/>
		<path id="XMLID_461_" class="st0" d="M741.77,194.05h0.9C742.06,193.84,741.77,193.73,741.77,194.05"/>
		<path id="XMLID_460_" class="st0" d="M703.31,182.51c2.22-1.01,5.46-2.03,3.43-2.32l-2.01-0.1
			C704.52,181.19,704.02,182,703.31,182.51"/>
		<polygon id="XMLID_459_" class="st0" points="739.03,192.93 739.23,192.23 736.9,192.12 		"/>
		<path id="XMLID_458_" class="st0" d="M746.72,190.5l0.3,2.32L746.72,190.5z"/>
		<path id="XMLID_457_" class="st0" d="M726.08,144.26l-2.34-0.91C724.25,145.27,725.06,144.26,726.08,144.26"/>
		<path id="XMLID_456_" class="st0" d="M666.88,162.88c-0.71,1.42-0.91,2.53-0.91,3.43C666.88,164.6,668.5,163.19,666.88,162.88"/>
		<path id="XMLID_455_" class="st0" d="M760.99,185.75c-0.61-0.61-1.02-0.81-1.42-0.71C760.07,185.65,760.47,185.95,760.99,185.75"
			/>
		<path id="XMLID_454_" class="st0" d="M666.27,170.37l0.4-0.81l-0.7-3.25C665.16,167.64,664.75,169.05,666.27,170.37"/>
		<path id="XMLID_453_" class="st0" d="M671.13,132.12l0.71-0.61L671.13,132.12z"/>
		<path id="XMLID_452_" class="st0" d="M679.32,179.88v0.1C679.64,179.68,679.64,179.77,679.32,179.88"/>
		<path id="XMLID_451_" class="st0" d="M663.54,131.21l-0.4,1.31L663.54,131.21z"/>
		<path id="XMLID_450_" class="st0" d="M662.63,131.41l0.2-0.81C662.43,130.4,662.23,130.6,662.63,131.41"/>
		<polygon id="XMLID_449_" class="st0" points="663.03,134.24 663.13,132.53 662.83,132.83 		"/>
		<polygon id="XMLID_448_" class="st0" points="695.72,151.75 695.81,151.95 695.92,151.75 		"/>
		<path id="XMLID_447_" class="st0" d="M695.92,147.9c1.61,2.13,1.02,2.94,0,3.85l5.87,0.4L695.92,147.9z"/>
		<path id="XMLID_417_" class="st0" d="M665.36,183.93v8.4C664.75,189.39,663.84,185.95,665.36,183.93 M665.36,140.02v0.2l-0.1,0.1
			c0,0,0.1,0,0.1,0.11v3.94c-0.2,0.81-0.3,1.12,0,0.2v7.49l-0.71-2.22c1.62,1.11-1.21-0.92-0.91-2.32
			c-0.91-1.52-0.71-3.95,0.31-5.77l-0.21-3.04C664.45,139.91,664.86,140.11,665.36,140.02 M665.36,129.59v1.02
			c-4.15-3.44,1.02,2.43-1.61,0.41l-0.1,0.1l-0.11,0.11l0.11-0.21l-0.81-0.41v-0.5V130v-0.1v-0.1l2.52,2.63v3.54
			c-0.49-0.5-1.01-1.11-1.52-2.02c2.33,3.95-7.59-1.82-6.48,1.72c-1.62-2.94-1.72-0.51-2.53-2.94c3.25,1.42,7.4,0.1,10.53-0.4v-0.1
			l-2.02-2.02C664.05,129.69,664.75,129.49,665.36,129.59 M665.36,132.32v-0.1l0.21,0.1H665.36z M665.86,183.42v11.43
			c-0.09-0.81-0.3-1.62-0.51-2.53v-8.4C665.56,183.83,665.66,183.62,665.86,183.42 M665.86,180.19v1.72
			C665.77,181.4,665.77,180.79,665.86,180.19 M665.86,154.58v1.01c-0.09-0.3-0.09-0.71-0.09-1.01H665.86z M665.86,141.43v0.51v0.31
			v11.13l-0.51-1.32v-7.49l0.21-0.51l-0.1-0.11c0,0.11,0,0.31-0.1,0.41v-3.94C665.66,140.62,665.77,140.92,665.86,141.43
			 M665.86,139.71v0.5h-0.51v-0.2C665.56,139.91,665.66,139.91,665.86,139.71 M665.86,132.83v3.44c-0.2-0.1-0.3-0.2-0.51-0.31v-3.54
			L665.86,132.83z M665.86,129.69v1.32c-0.2-0.1-0.3-0.3-0.51-0.41v-1.02C665.56,129.59,665.66,129.69,665.86,129.69 M665.86,136.27
			v-3.44c12.75,12.65,2.02,2.02,5.67,5.57h-0.1l-0.6-0.1l-0.51,0.1l-0.1,0.91C668.7,137.28,667.19,136.97,665.86,136.27
			 M665.86,141.93v-0.51V141.93z M739.53,191.21v1.02h-0.3L739.53,191.21z M739.53,110.78v70.92c-4.66-1.51-9.71-2.83-14.06-6.78
			c3.04,0.3,3.54-1.31,5.97-2.43c-1.42,2.73,4.15,3.64,5.77,6.58c-0.81-1.52,0.5-1.72,1.2-1.62l-5.96-3.74
			c2.03-0.8,0.71-1.71,0.51-3.44c-3.14,2.83-5.26-2.32-7.99-3.74c1.21-0.81,2.93-0.92,4.44,1.62c0.91-4.05-7.18-1.32-6.68-5.06
			c0.51,0.61,0.51,1.01,1.41,0.91c-2.21-0.81-3.83-4.66-2.12-4.45l0.52,0.61c-2.54-4.15-9.01-11.94-12.76-10.93
			c0.4-0.31,4.35-1.42,5.25-1.52c-5.86,0.51,7.39-1.72-14.26,1.01l2.13,2.83l4.35,5.57c-2.83-1.52-11.34-1.11-11.44-5.16
			c-1.01,0.91-2.01,2.02-1.92,4.45c0.71-0.61,5.26-0.4,5.05,0.6c-4.65,1.62-2.62,1.33-7.07,3.65c1.11-0.91,5.46,1.72,4.55,3.34
			c-0.61-0.5-4.86-1.31-5.06-2.03l2.84,5.47c-0.4-1.22-3.95-1.32-5.78-0.81c1.21-0.1-1.72,3.54-1.72,4.75l1.93-1.41
			c-2.84,4.46,4.65,6.58,2.22,11.13c-0.71-0.91-5.46-3.14-7.08-1.01c1.92,1.82,9.51,8.2,9.51,12.85l-1.72,0.3l0.2,3.64
			c-2.83-3.03-8.09-10.72-9.71-14.67c-1.93,1.41-1.83,0-2.93,2.73c-1.73,0.51-1.33-2.02-1.02-2.83l-3.64,5.77
			c2.93,0.61,0.71,5.47,3.14,5.97l0.1-7.49c2.93,0.61,6.37,6.17,3.84,10.32c-1.62,0.81-4.65-2.22-5.66-2.42
			c0.7,0.81,0,4.56-0.92,4.76l-0.71-2.23c-1.01,1.02-0.51,2.33-0.3,3.54v1.83l-0.2,0.5c29.96,3.43,8.3,0.91,14.98,1.72v-0.1v-0.1
			l0.09-0.31l0.71-1.11c0.1-1.02,3.65-3.34,1.82-3.44c-3.33,1.92-14.06,2.84-16.69,1.82c0.2-0.41,2.83-5.76,4.46-6.98
			c2.52-1.92,6.67,2.22,8.9,0.6c-0.81,0-1.92-0.91-2.34-1.32c0.62-1.11,2.64,0.41,2.03-2.02c-3.13-0.21-0.1-4.86-2.63-1.02
			c-1.12-2.33,0.41-2.52,0-5.26c-1.92,1.01-6.98-2.12-7.99-4.45c0.81,0.1,1.72-0.5,2.22-0.81c-0.1-4.75,1.02-7.49,0.71-11.94
			c0.71-0.5,1.42-2.63,2.83-1.83c-0.6-0.6-1.72-1.11-1.93-2.53c2.54-2.84,0.71,3.04,3.75,0.91c-1.82-0.1-2.73-3.54-4.04-5.46
			c-2.73,0.81-0.1,4.66,1.11,6.57c-3.74,0.21-8.1-3.03-10.22-7.68c-1.21-3.64,2.33-1.72,1.72-2.33c0.1-7.08-7.09-5.67-4.87-11.64
			c2.23-2.42,4.87-0.29,6.58-0.9c1.12,2.93-1.21,4.75-0.91,6.78l0.91-2.63c0.92,0.91,1.72,2.94,1.02,4.15
			c2.13-2.12-0.51-11.94,1.11-17.4c-0.92-0.91-1.92-2.53-2.84-1.72l0.52,1.72c-1.83,1.62-2.94-3.14-3.76-0.91
			c1.22,0.91-6.16-6.78,2.03,0.91c-1.83,0.1-3.65-0.09-5.46-1.01l0.1-2.22c-0.21,0.6,2.03,1.82,3.44,1.41
			c-1.41,0.41-3.34-1.82-5.26-2.43v1.32c1.22,1.11,3.24,2.93,6.28,5.76c-12.05-13.05-1.52,1.02-3.55-0.91
			c-0.3,1.42-1.11-0.51-2.01,0.3l1.81,1.82c-1.01,0.21-1.81,1.21-2.52,1.72v0.5c0.11,0.1,0.2,0.1,0.3,0.21
			c0.61,1.01,0.21,1.51-0.3,1.82v11.13l0.41,1.11l-0.41,0.1v1.01c0.61,4.35,3.75,8.8,0.81,13.97c0.61,1.52,1.42,3.13,1.02,5.86
			l-1.72,0.51c0.41,1.11,0,2.83-0.11,4.25v1.72c0.11,0.5,0.3,0.81,0.72,1.01c-0.2,0.21-0.51,0.41-0.72,0.51v11.43
			c0,0.61,0.11,1.11,0,1.51h2.32c0,2.54,0.82,4.86,2.04,7.8l2.01-0.31l0.52,1.11v0.1v0.1c-14.17-1.62,19.43,2.22,15.99,1.82
			l0.09-0.31l0.3-0.51l1.62-2.42c1.31-1.62,2.94-3.34,3.74-5.27c0.61,0.41-0.1,1.42-0.8,1.92c6.47-3.34,1.41-10.72,6.47-14.06
			c-0.21-1.21,0.41-1.92,1.21-2.53v0.3l0.21-0.4l1.73-1.21l-1.62,0.91c0.3-0.81,0.7-2.13,0.7-3.44l2.34,0.1l0.1-0.31
			c1.21-1.01-0.61-1.21-2.43-1.01l-0.5-2.02c3.74,0,0.41-3.45,4.55-3.75c-1.42-1.31,1.51-6.47-1.82-8.2c0.5,0.11,0.81-0.2,0.61,0.51
			c1.01-1.22,2.03-2.43,1.62-3.95l2.83,0.2l-2.13-3.95c2.43-1.41,3.65-1.82,4.87,0.51c-4.87-3.65,8.7-7.19-9.23-4.95l-1.71,0.6
			c1.02,1.21,4.45,2.12,3.74,3.44c-0.91,4.04,9.52,13.35,11.95,21.44c3.54-3.44,0.3,4.15,4.04,2.74c-0.79,0.91-0.7,2.22-2.42,1.51
			c3.63,3.04,2.21,6.07,6.97,7.09c-0.8,0.9-2.12,0-2.53,0.6c0.5,0.21,1.82,0.71,1.42,1.32c-0.3,0.71-1.21,0-2.11-0.4
			c2.83,3.54,6.36,2.33,9.71,1.11c-0.1,2.43,0.82,3.24,3.73,3.64c-0.49,1.11-0.8,2.63-2.83,0.6c0.81,1.22,3.85,7.59,6.38,7.39
			v-11.23l-0.5-0.1c-0.31,1.12-0.71,2.02-0.71,2.63l-4.06-2.94c0.11-0.61,1.23-0.61,2.63-0.51l-1.01-0.41
			c0-1.62,1.72-1.72,3.64-1.52v-2.83l-0.5-1.11c0.2,0.1,0.4,0.1,0.5,0.31v-4.76c-2.02-1.01-4.75-0.81-3.44-3.33l0.51,0.91l0.81-1.82
			c-6.08,0.6-3.34-9.82-9.41-9.11c1.71-2.84,1.42-0.41,5.07,2.12l1.01-2.83c0.5,1.01,0.3,1.92,1.21,2.93
			c1.62-3.75-2.44-6.27-4.55-7.79c0.51-1.52,4.86,0.2,2.83-3.34c-2.62-4.86-4.15,1.82-5.66-1.21l2.52-2.74
			c-3.54-3.54-2.22-6.77-2.72-10.22c-0.42-0.71-0.82-1.02-1.22-1.12c0.4-3.74-5.06-6.88-4.75-9.7c0.82,0.5,1.52-1.83,2.12-2.34
			l-3.25-4.45c1.42,2.02,3.25,1.62,5.07,1.71c1.2-5.26-5.97,6.38,1.92-11.43c-7.59,17.29-0.72,5.66-2.03,8.49
			c6.79-15.38,3.75-7.18,6.08-11.94l-1.72,0.62c1.32-0.81,3.34-3.34,6.06-3.55l0.31,1.92c-2.73-0.3-2.53,1.32-2.53,2.64
			c3.34-2.33,1.21-0.2,3.64-0.51c2.42-1.52,2.03-3.75,0.41-4.25C738.41,111.18,739.03,110.97,739.53,110.78 M739.53,80.93v11.53
			c-2.02,0.31-3.14,1.01-3.74,2.43c-0.92-0.61,1.11-1.51-0.4-1.92c-3.65,5.57-11.83-0.3-13.97,3.34c-0.91-3.34-9.21-4.75-7.28-7.99
			l-1.01,0.41c14.06,5.66,3.53,1.11,6.47,2.22c-15.17-5.77,2.74-2.74-0.19-6.07l7.78,0.51c-0.5-0.81,0.09-2.23-1.11-2.23
			c1.71-0.51,3.14-1.01,0.4-1.62C731.03,81.83,735.39,81.54,739.53,80.93 M745.3,219.84v0.91c-0.11-0.1-0.21-0.41-0.21-0.81
			L745.3,219.84z M745.3,212.96v1.42c-0.4-0.21-0.92-0.61-1.32-1.22L745.3,212.96z M745.3,202.94c-0.21,0-0.4-0.09-0.71-0.09
			c-0.92,0.5,0,1.41,0.71,2.02V202.94z M745.3,108.44v20.14c-0.3,0.09-0.61,0.21-0.92,0.3c0.11-2.22-8.5,8.3-1.41-4.45
			c0.2,1.72,0.5,3.44,1.62,4.86l-1.12-0.5c0.9,1.21,1.52,2.52,1.82,3.84v10.22l-1.11,0.41c0.4,0.3,0.81,0.7,1.11,1v50.19
			c-1.52,0.2-3.64-0.61-5.77-1.42v11.23c0.2,0,0.29-0.1,0.51-0.1c-0.4,0.61,1.11,1.82,1.62,2.02c1.72,2.53,1.92,3.14,3.64,5.17
			v-6.38c-2.23-1.21-4.65,3.85-5.47,4.65c1.32-3.33-0.5-5.15,2.44-7.39l1.52,2.43c1.92-6.17-5.46-4.54-0.2-8.09
			c0.2,1.02,0.91,2.13,1.72,2.63v-2.33l-0.21-0.3c0.1,0,0.1-0.1,0.21-0.1v-0.7c-0.92-0.61-1.92-1.32-2.64-1.72h0.21l-1.81-4.87
			c0.09,1.02,1.21,1.02,1.11,0.11l-2.43-3.04c1.01,0.91,1.62-0.3,1.62-1.82c-0.11-1.42-0.81-2.12-1.82-2.64v4.76
			c0.51,0.3,0.61,1.11,0.61,1.93l-0.61-1.12v2.83h0.29l-0.29,1.01v1.02c2.13,0.2,4.25,0.2,5.47-0.71l-1.52-0.81l1.21-0.2
			c0.21-0.2-0.61-0.41-1.72-0.61l2.22-2.12l-1.31,0.3l-1.72-5.46c-0.81-0.3-1.71-0.61-2.63-0.91v-70.92
			c2.02-0.81,3.04-1.52,4.35-3.84l1.02,1.91L745.3,108.44z M745.3,79.71v11.95c-1.32,0.3-2.64,0.6-4.15,1.11l0.21-0.51
			c-0.61,0.1-1.21,0.1-1.82,0.2V80.93C741.46,80.62,743.38,80.22,745.3,79.71 M745.3,142.85v-10.22c1.11,4.35-0.3,9,0.91,9.82
			L745.3,142.85z M745.3,196.47v-0.7c0.51,0.3,0.91,0.6,1.21,0.9C746.1,197.89,745.81,196.57,745.3,196.47 M745.3,199.2v-2.33
			l2.03,2.23C746.72,199.71,746.01,199.6,745.3,199.2 M745.3,204.87v-1.93c1.72,0.51,0.91,1.32,0.61,2.53
			C745.7,205.28,745.5,205.07,745.3,204.87 M745.3,220.75v-0.91c1.62-0.91,3.44-1.82,3.14-4.04c-1.11-0.81-2.13-0.81-3.14-1.42
			v-1.42l1.62-0.21c-0.71-1.91-1.62-3.33,0.51-3.73c-1.72-1.42-1.83-2.53-1.52-3.55c-0.2-0.19-0.41-0.3-0.61-0.5v6.38
			c0.2,0.2,0.3,0.4,0.51,0.71l-0.1-1.01c3.74-0.3,2.32,2.02,4.36,4.04l-0.3,0.1c1.61,6.07,2.62,1.62,3.95,7.79l1.62-1.11
			c4.95-2.12-3.64,3.74,8.8-0.61c0.61-1.82,1.42-3.94,0.1-5.46l-0.91,1.41c-2.03-1.51,4.76-6.17,4.86-8.09
			c0.31-0.41,0.81,0.5,1.31,1.01c1.32-5.16-3.04-0.1-4.65-3.55c1.31-0.91,4.04,0.21,3.74-2.22c0.81-1.42-6.78-6.07-4.86-9.81
			c-0.9,0.91-1.92,1.81-3.24,0.3c-1.01-2.43,2.54-7.59-1.71-9.21l0.81-0.61c-1.52-1.72-3.35-5.97-5.67-6.78
			c6.88-3.04-6.78-11.33,0-12.44l-2.02-5.87h0.71c-0.61-3.84-2.53-4.85-4.56-5.97c0.2-0.9,1.02-0.4,1.42-0.4
			c-0.2-5.26-0.5-6.18-4.15-9.31v50.19c0.91,0,1.62-0.51,1.72-1.62l0.41,3.54c5.16,1.83,4.15,1.62,9.1,4.45
			c-0.8,0.72-2.42,0-2.52,1.12c5.16,1.32,1.51,8.6,4.65,7.89c2.43,1.93,3.14-0.21,4.96,0.91c-0.3,0.11-1.01,0.2-0.8,0.7l3.33,0.71
			c-0.2,1.01-2.63-0.91-2.02,1.42c2.02,1.32,3.63,2.33,4.85,3.44l0.91,0.81l0.1,0.1v0.1c-8.91,2.73,19.93-6.27-19.93,6.28v-0.11
			l-0.11-0.3l-0.1-0.51l-0.2-2.33C748.03,217.11,746.1,222.47,745.3,220.75 M804.09,89.32l0.5-0.11v0.71c-0.4-0.3-0.9-0.81-2.43-0.3
			c-2.93,1.72-2.22,2.73-3.03,4.55h0.71l-1.82,1.42c-1.52,0.81,3.54-4.86-2.03-2.74c0.41,0.52-0.29,4.36-2.73,3.95
			c2.52-1.42,1.12-2.33-0.31-2.23l-3.44,2.03l3.14,1.31c-9.81,5.97-21.35,10.82-31.67,17.4c-1.62-1.82-7.38,4.55-9.11,1.32h0.71
			c2.22-1.82-2.83-1.62-4.65,0c3.03-0.51-1.21,5.06,4.45,2.13l-2.83,3.84c1.22,2.94-1,4.56-4.24,5.97v-20.14l1.72-1.72l-0.21,3.24
			c6.08-2.13-1.72-3.24,4.76-5.88l1.32,1.32c1.62-1.82,0.09-4.65,3.44-4.05c1.21-2.12-5.47,0.3-0.91-3.03
			c1.62,0.2,3.94-0.5,5.66-1.11c0.92-1.62-2.83-0.81-3.64,0c6.78-5.26,9.21,1.72,14.07-4.15c-3.24,0.4-0.71-3.85-6.08-0.41
			c1.83-2.42,7.09-1.21,8.2-4.35v2.83c1.01-0.61,1.42-1.93,1.82-2.43l1.11,1.41c0.92-4.35,7.18-2.73,6.08-6.98
			c1.11,3.23,2.32-1.72,4.65-1.62c-1.11,3.43-7.89,4.85-5.97,7.38c1.92-0.2,1.92-1.92,3.85-2.02c-0.6,0.81-1.22,2.23-1.12,2.83
			c5.46-1.31,5.26-5.46,7.18-7.58l-3.95,3.33c-1.82-2.53,1.63-1.72,1.11-4.24c3.44-0.2,3.44-3.04,6.07-3.44l-0.81,0.8
			c4.25-2.73,8.61-0.8,10.93-1.11v-3.34c-1.42,0.61-2.73,0.61-2.73-1.41c1.12,0.31,2.02,0.31,2.73,0.2v-8.79
			c-5.56,1.32-12.24,1.32-18.3,3.34c0.09,0.7,1.82,1.21,0.4,2.62l-5.57-1.92c-1.51,0.71-0.2,3.85-4.04,2.53
			c0.7,0.41,1.62,1,0.61,1.42c-11.34,0.8-21.55,5.06-32.38,7.59v11.95c5.96-1.33,10.32-1.22,18.52-2.44l-1.42-1.41
			c2.22-0.31,2.84,0.1,3.94,0.2c1.41-3.04-5.87,1.32-4.75-1.92c4.04,2.64,14.57-3.54,17.91-0.3c3.23-0.82-1.63-1.63,1.51-2.43
			l1.21,0.8l0.31-1.51c2.22-0.31,3.75,0.71,4.15,1.51l-1.82,0.81c3.13,0.61,7.38-2.32,8.5-2.13l-3.35,0.21
			c4.46-1.72,9.53-2.83,14.57-4.14v9.82C804.5,88.82,804.28,89.02,804.09,89.32 M804.59,77.48c0.3-0.1,0.61-0.2,0.81-0.3
			c2.23-0.91,4.56-4.35,2.32-4.45c0.61-0.91-1.31,0.71-3.14,1.41V77.48z M804.59,89.22h0.52c0-0.5,0.09-1.01-0.52-0.5V78.9
			c4.46-1.22,8.91-2.53,12.46-4.56l-0.92-0.6c5.78-3.03,5.37-0.41,12.15-2.84l-0.2,0.21c1.11-1.12,2.83-1.92,4.85-2.33
			c-0.41,0.3-0.3,0.6,0,0.71l0.21,0.1l0.21,0.1h0.1l1.42,2.22c-1.02-1.62-9.51-14.36-8.31-12.55h-0.81c-0.92,0-1.93,0-1.32-1
			c-4.46,4.85-1.82,2.73-3.34,7.48l-1.92-0.51c-0.31,1.73,0.09,2.33-2.52,4.35c1.42-2.33-3.44-0.41-1.93-3.23
			c-6.78,1.21-6.99,5.66-10.12,6.47v-8.79c1.82-0.41,3.54-1.02,5.08-1.92c2.52,0.61,0.4,2.63,3.43,2.22
			c-5.06-2.13,7.7-3.54,4.36-5.06c4.04,2.64,10.41-1.91,11.02,3.05c0.2-6.58,11.84,18.11,0.91-2.84c7.59,18.12-2.94,8-2.03,14.48
			c-2.62,0.2-13.86,10.21-19.53,9.2c3.75,0.61,0.71,1.01-0.3,3.04l3.33,0.51l-4.45,2.53c-0.71,0.71-1.11,0.81-1.21,0.61
			c-0.31,0.2-0.4,0.1-0.61,0V89.22z"/>
		<path id="XMLID_416_" class="st0" d="M689.05,43.09c-2.94,3.23,0,6.67,1.51,8.6c-1.02,1.21-4.56-1.31-3.85,2.43
			c0.71,5.36,4.55-0.71,4.95,2.53l-3.34,2.02c2.02,4.15-0.4,7.09-1.11,10.42c0.2,0.71,0.5,1.12,0.81,1.42
			c-1.72,3.43,2.43,7.68,1.11,10.32c-0.61-0.71-2.12,1.42-2.93,1.72l1.51,4.96c-0.61-2.12-2.52-2.22-4.24-2.63
			c-3.04,4.65,7.99-4.86-5.87,10.41c13.46-14.86,2.74-5.25,4.95-7.68c-12.04,13.26-6.16,6.07-10.11,10.11l1.82-0.2
			c-1.41,0.51-4.25,2.43-6.98,2.03l0.31-1.92c2.53,0.91,2.93-0.71,3.43-2.02c-4.05,1.62-1.22,0-3.74-0.31
			c-2.93,1.02-3.23,3.14-1.82,4.05c-3.54,0.51-4.86,0.51-7.49,2.93l-0.3-2.02l-2.84,1.52l1.42-3.03c-6.57,0.7,0.51,3.54-6.68,4.54
			l-0.8-1.51c-2.22,1.42-1.72,4.35-4.65,3.04c-2.03,1.82,5.36,1.01-0.3,3.14c-1.42-0.5-3.96-0.41-5.78-0.2
			c-1.51,1.31,2.34,1.41,3.45,0.81c-8.39,3.55-8.19-3.74-14.98,0.81c3.25,0.31-0.7,3.84,5.67,1.82c-2.53,1.93-7.18-0.4-9.41,2.33
			l1-2.73c-1.1,0.3-2.01,1.51-2.51,1.91l-0.62-1.72c-2.43,4.05-7.79,1.02-8.29,5.37c0.19-3.34,11.33,1.11,9.21,0.5
			c2.21-3.04-4.96-2.84-5.88-5.67c-1.82-0.3,11.63,1.42,9.82,1.12c0.81-0.72-12.25-1.93-12.04-2.53c-5.78,0,7.08,4.05,4.44,5.67
			l4.97-2.32c0.89,2.83-2.13,1.21-2.53,3.74c-3.44-0.5-4.46,2.12-6.88,2.03l0.9-0.61c-5.57,1.82-9.41-1.92-11.73-1.32
			c-2.43,0.4-5.97,3.14-3.85,3.85c-1.41,1.31,7.29-3.24,5.67,1.22c-5.26-2.94-5.97,3.64-14.46,3.23c2.42-2.42-3.04-1.72-0.72-3.64
			c-3.24,1.42-3.14,2.02-4.04,3.64l-1.62-0.91c-3.13,4.14,0.1,2.73-5.87,6.38c0.91-0.81,0-1.02-1.02-1.22l-0.7-0.2
			c0.7,2.53-5.46-21.85-2.94-11.54h0.1l0.1,0.1l0.09,0.1l0.2,0.1c0.2,0.3,0.2,0.5-0.3,0.71c2.03,0.1,3.94-0.3,5.46-1.11l-0.29,0.2
			c7.38-0.81,6.07,1.52,12.74,0l-0.7-0.81c8.8-2.33,19.93-1.12,28.84-2.23l-3.24-0.61c1.01,0.4,6.17-1.31,9-0.1l-2.03,0.31
			c0.11,0.91-12.95,2.22-10.71,2.43l0.8-1.42l0.81,1.12c3.35,0-0.91-1.93,2.33-2.02c2.03,3.94,14.37,0.29,17.3,3.74
			c2.13-2.84-6.37-0.31-3.94-2.94c1.01,0.41,1.52,0.92,3.74,1.22l-0.81-1.72c10.12,0.81,13.97,2.23,22.87,1.72l-0.3,0.4
			c3.24,0.61,4.96,0.21,6.27-1.21c0.71,0.7-1.62,1.21-0.3,1.82c5.47-4.35,11.34,3.14,14.68,0c-0.41,3.44,7.08,6.58,4.05,9.3
			l1.11-0.2c-11.43-8.6-2.93-1.82-5.46-3.55c12.55,9.01-3.55,2.02-1.83,5.87l-7.38-2.22c0.3,0.81-0.91,2.12,0.3,2.42
			c-1.82,0-3.44,0.21-1.01,1.42c-17.51-5.56-35.22,0.31-52.32-2.53c-1.11,0.2-0.41,1,0,1.51c-3.23-2.12,11.13,1.22,9.41,1.52
			l-4.65-3.13c-1.93,1-0.41,1.92-0.52,2.63c-8.6,0.7-17.2-2.23-24.19-0.3c-2.33-1.01,0.41-2.53-2.52-2.83
			c4.04,3.13-8.61,1.61-5.98,3.84c-3.04-3.33-10.72-0.5-9.5-5.36c-2.54,6.27-4.96-20.13-1.93,2.53c-0.81-19.12,5.77-7.08,7.09-13.45
			c2.63,0.4,17-6.68,22.05-4.45c-3.43-1.42-0.39-1.11,1.42-2.83l-3.03-1.21l5.17-1.42c0.9-0.5,1.31-0.5,1.42-0.41
			c0.8-0.1,0.3,1.22,2.73,1.02c3.44-1.02,3.14-2.02,4.45-3.64l-0.71-0.1l2.23-1.01c1.72-0.41-4.97,3.84,1.02,3.13
			c-0.2-0.6,1.82-4.15,4.05-3.23c-2.94,0.81-1.93,2.02-0.62,2.22l4.15-1.1l-16.7-2.03c11.43-3.54,24.29-5.57,36.43-9.61
			c0.91,2.23,8.8-2.62,9.21,0.91l-0.61-0.21c-2.83,1.32,2.13,2.24,4.45,1.12c-3.13-0.2,2.94-4.65-3.44-3.13l4.06-3.03
			c-0.21-3.44,3.03-4.35,7.18-4.86c-0.91,2.23,11.04-5.97-0.3,4.66c0.51-1.72,0.71-3.45,0.2-5.06l0.92,0.71
			c-2.02-5.66,3.34-12.35,2.22-13.66l2.22-0.41c-2.92-4.86-3.24-5.46-1.31-11.03c0.3,0.1,0.91,0.81,1.52-0.1
			c-1.62-1.41-3.14-2.93-2.33-6.78l0.71,0.2l0.21-6.07c6.88,0.5-3.24-10.52,4.35-11.94c-1.92-1.32-1.01,6.37-1.82,4.35l1.01-0.4
			c-3.54-2.53,1.72-6.58,1.53-9.2c-0.71-1.73-1.92-1.02-3.14-0.41c3.23-3.14-2.43-9.32-1.11-10.42c0.5-2.43,2.72-0.81,4.34-1.42
			c-0.41-3.64-6.37,0.31-3.13-4.45c0.2,0.61,0.41,1.72,0.81,1.31c0.82-1.82,9.01-4.65,7.59-6.57l-1.42,1.12
			c-0.7-1.72,0.91-3.64,2.13-5.26c13.47-1.32,3.04,2.33,8.51,1.41l2.02-0.71c-0.91,6.17,1.61,2.23,1.01,8.4h-0.41
			c1.22,2.43-0.9,4.35,2.83,4.85l0.21-0.91c1.21,3.04,1.11,3.33,1.92,6.48c0.4,0.41,1.42,1.82,0.9,2.32
			c2.84-0.4,3.65,7.08,3.85,8.51c-1.21-2.43-2.02-0.92-2.92,0c2.83,1.01,3.33,1.91,2.32,4.35c3.65-0.4,6.38-12.95,7.9-9
			c-0.71-0.51-1.32-1.42-1.93-0.91c-0.59,0.6,0.51,1.41,0.81,1.61c-0.51,0.61-1.51-0.61-2.63,0.1c4.25,2.02,1.82,4.66,4.25,8.3
			c-1.42-1.01-1.82,0.2-2.83,0.91c4.05-0.51-1.72,6.07,2.95,3.54c-0.82,10.33,11.93,41.38-2.84,20.74
			c-37.85-6.17,42.1,11.13-6.27,9.41c0.91,0.1,5.06-0.1,5.56-0.2c-3.94,0.1-7.39-8.91-8.29-13.35l0.31,0.61
			c1.51,0.61,1.31-3.34-0.4-4.66c0.81,0.1,0.7,0.5,0.9,1.21c1.92-3.54-6.88-2.73-4.55-6.48c0.51,2.84,2.22,3.14,3.65,2.64
			c-2.03-1.92-2.24-7.49-6.28-5.46c0.41-1.62-0.51-2.83,1.72-3.14l-4.36-4.95c0.51,0.29,1.93,0.4,1.73-1.32
			c0.4,3.23,5.46,5.36,3.13,7.59c2.73-0.4,3.85-1.92,6.58-0.91c-3.24-5.67-8.91-7.99-13.26-11.13l0.3-5.67l-1.31,0.1l3.94,10.62
			c-0.9-0.5-1.72-0.8-1.41-1.01l1.21,0.1l-1.21-1.21c1.62-0.51,3.75,0,5.77,0.71l-1.22,1.72c1.93,0.7,3.74,1.21,4.36-0.5l-0.91-0.6
			c1.31,0.5,2.43,0.7,2.72,0.09l-2.72-3.74c-0.31,0.61-1.02,1.42-1.73,2.43c-2.83-2.12-6.27-4.45-7.69-1.83l0.91-3.44
			c-4.25-2.93-3.44-2.42-7.19-6.27c1.01-0.51,2.33,0.5,2.83-0.51c-4.44-2.43,1.62-8.6-1.71-8.6c-1.52-2.42-3.04-0.6-4.35-2.02
			c0.3,0,1.11,0,1.01-0.4l-2.93-1.52c0.61-1.01,2.12,1.42,2.43-0.91c-1.42-1.72-2.63-3.03-3.44-4.35l-0.51-1.01l-0.1-0.2
			c9.51-0.71-21.36,1.51,21.36-1.53v0.1v0.3l-0.11,0.51l-0.6,2.22c0.09,4.66,4.75-1.72,3.94,2.13c-1.92,0.5-4.15,0.9-4.65,3.24
			c1.11,1.41,2.63,1.31,3.23,3.54L694,12.32c-0.11,2.02,0.3,3.64-1.82,3.55c1.01,1.72,0.7,2.83,0.2,3.64
			c1.22,3.13,6.07-1.92,7.28-2.52c-2.53,2.83-1.42,4.95-5.06,6.47l-0.51-2.63c-4.15,5.37,3.54,5.58-2.84,7.8
			c0.41-1.93-0.91-4.35-2.52-3.24l1.21,2.83c-0.81,0.31-0.41-1.62-1.42-0.3c0.61,0.81,1.93,2.53,2.83,3.34l-0.2-0.11v5.06
			c0.2-0.9-0.81-1.21-1.01-0.19l0.1-8.81c-0.61-1.11-1.62-0.1-2.22,1.42c-1.22,4.15,6.17,3.74,2.93,6.88l-0.11-1.02l-1.41,1.63
			c6.06,0.71-0.31,10.12,5.76,10.83c-2.73,2.22-1.51,0.09-4.15-3.24l-1.92,2.53C688.93,45.11,689.54,44.3,689.05,43.09"/>
		<path id="XMLID_415_" class="st0" d="M594.23,108.75l-1.01-0.2C592.91,109.15,592.6,109.76,594.23,108.75"/>
		<path id="XMLID_414_" class="st0" d="M745.8,190.81l-0.8,0.71C745.5,191.62,745.91,191.52,745.8,190.81"/>
		<polygon id="XMLID_413_" class="st0" points="726.48,144.36 726.48,144.26 726.08,144.26 		"/>
		<path id="XMLID_412_" class="st0" d="M689.05,193.34l-1.02,1.41C688.53,194.75,688.93,194.45,689.05,193.34"/>
		<path id="XMLID_411_" class="st0" d="M661.82,137.18l2.93,0.21c-1.41-0.21-1.72-0.61-2.33-1.11
			C662.43,136.68,662.73,137.38,661.82,137.18"/>
		<path id="XMLID_410_" class="st0" d="M642.29,121.49l-1.31-0.09l-0.21,0.81C642.49,122.61,643.82,122.21,642.29,121.49"/>
		<path id="XMLID_409_" class="st0" d="M661.41,131.11c0.3-1.42-1.62-1.32-3.53-1.52l0.3,0.11
			C656.86,131.51,659.19,131.31,661.41,131.11"/>
		<path id="XMLID_408_" class="st0" d="M657.36,129.49l-1.72-0.3C655.14,129.9,656.25,129.49,657.36,129.49"/>
		<path id="XMLID_407_" class="st0" d="M664.55,136.07c0.51-0.71-2.32-0.3-1.62-0.81C660.5,134.56,666.17,140.11,664.55,136.07"/>
		<polygon id="XMLID_406_" class="st0" points="661.51,126.15 661.62,128.08 663.13,126.86 		"/>
		<path id="XMLID_405_" class="st0" d="M673.36,130.6c-0.51-1.82,1.31-0.5-0.2-0.91l-1.02,0.41
			C675.07,130.5,671.54,129.39,673.36,130.6"/>
		<path id="XMLID_404_" class="st0" d="M672.14,130.1l-2.53-0.31L672.14,130.1z"/>
		<polygon id="XMLID_403_" class="st0" points="665.86,126.56 666.58,127.17 668.7,127.78 		"/>
		<path id="XMLID_402_" class="st0" d="M667.59,162.07l0.8,2.72c0.82,0.21,1.22-0.6,0.82-1.61
			C668.6,162.58,668.3,161.56,667.59,162.07"/>
		<path id="XMLID_401_" class="st0" d="M680.54,148.91c-0.41,0.71-0.9,0.82-1.61,1.22h2.83L680.54,148.91z"/>
		<path id="XMLID_400_" class="st0" d="M681.85,156.81c0.8,0.2,2.53,3.85,2.12,0.41C683.17,156.91,682.36,154.28,681.85,156.81"/>
		<polygon id="XMLID_399_" class="st0" points="681.65,197.99 681.55,197.28 677,197.59 		"/>
		<path id="XMLID_398_" class="st0" d="M674.47,187.87c-2.43,2.73,2.32,1.52-0.2,3.94c0.61,1.01,2.03-1.93,2.63-1.01
			C676.59,188.68,677.71,187.87,674.47,187.87"/>
		<path id="XMLID_397_" class="st0" d="M684.69,176.64l0.2,1.22L684.69,176.64z"/>
		<path id="XMLID_396_" class="st0" d="M741.66,212.06l0.7,0.09c0.71-0.5,0.61-0.9,0.5-1.91L741.66,212.06z"/>
		<polygon id="XMLID_395_" class="st0" points="736.19,184.23 736.29,184.63 738.63,183.32 		"/>
		<path id="XMLID_394_" class="st0" d="M726.58,161.67l1.22,2.93C726.68,162.68,729.71,160.86,726.58,161.67"/>
	</g>
	<g id="XMLID_287_">
		<path id="XMLID_392_" class="st1" d="M791.75,216c0.81,0,0.1-1.41,0.2-1.72C790.63,214.89,791.84,216.41,791.75,216"/>
		<polygon id="XMLID_391_" class="st1" points="781.02,222.58 780.91,221.87 780.21,224.09 		"/>
		<path id="XMLID_390_" class="st1" d="M771.21,228.85c3.33,1.01,2.93-2.63,5.56-3.14l0.71,0.31l-0.71-2.13
			C774.64,225.61,773.23,228.34,771.21,228.85"/>
		<path id="XMLID_389_" class="st1" d="M788.3,251.41v-2.32l-1.22,0.4C787.49,249.99,788.41,250.6,788.3,251.41"/>
		<path id="XMLID_388_" class="st1" d="M788.3,249.09l1.62-0.71C789.02,247.97,788.3,248.37,788.3,249.09"/>
		<polygon id="XMLID_387_" class="st1" points="790.13,252.02 789.72,253.03 790.53,251.31 		"/>
		<path id="XMLID_386_" class="st1" d="M790.02,251.71c0.52-0.4-0.6,0.51-0.1,0.11c-0.9,0.8-1.82,0.8-0.31,0.3
			C789.02,251.91,789.21,252.42,790.02,251.71"/>
		<path id="XMLID_385_" class="st1" d="M791.03,251.71l-1.42,0.4L791.03,251.71z"/>
		<polygon id="XMLID_384_" class="st1" points="791.34,248.98 790.93,250.7 791.55,249.09 		"/>
		<polygon id="XMLID_383_" class="st1" points="791.55,248.98 791.55,249.09 791.74,249.29 		"/>
		<path id="XMLID_382_" class="st1" d="M791.24,248.98h0.1H791.24z"/>
		<path id="XMLID_381_" class="st1" d="M786.48,245.95c1.22-0.81,3.35-1.32,1.93-3.14C787.4,243.83,788.2,244.84,786.48,245.95"/>
		<polygon id="XMLID_380_" class="st1" points="791.44,246.86 790.54,246.25 790.02,247.67 		"/>
		<polygon id="XMLID_379_" class="st1" points="792.25,246.45 791.44,246.86 791.84,247.06 		"/>
		<path id="XMLID_378_" class="st1" d="M792.05,250.1c0.8-0.51,1.01,0,1.32,0.2c0.1-0.61,0-1.21-0.21-1.11
			C792.75,249.49,791.84,250.1,792.05,250.1"/>
		<path id="XMLID_377_" class="st1" d="M792.05,249.39h0.1H792.05z"/>
		<polygon id="XMLID_376_" class="st1" points="794.68,253.94 794.99,253.73 794.68,253.84 		"/>
		<path id="XMLID_375_" class="st1" d="M793.46,248.88c0.1-0.31-0.4-0.11-0.81,0.2l0.51,0.1L793.46,248.88z"/>
		<path id="XMLID_374_" class="st1" d="M792.35,252.12l0.71-0.81C792.56,251.71,791.84,252.22,792.35,252.12"/>
		<path id="XMLID_373_" class="st1" d="M791.84,249.79h-0.1C791.55,250.1,791.64,249.99,791.84,249.79"/>
		<polygon id="XMLID_372_" class="st1" points="791.84,249.79 792.65,249.09 792.15,249.39 		"/>
		<path id="XMLID_371_" class="st1" d="M807.23,253.73c-1.82,0-3.74-1.11-2.23-2.73c-1.51-1.01-6.98,1.52-10.01,2.73
			c0.7-0.1,1.42-0.3,2.73,0.51c0.91-0.41,1.72-2.64,3.44-2.13c1.32,1.32-0.3,1.32-1.1,2.13c2.03-1.02,3.74,1.51,6.98,1.01
			l-1.52-1.42C806.01,253.73,806.92,254.25,807.23,253.73"/>
		<path id="XMLID_370_" class="st1" d="M794.88,252.12l-0.31-0.2c-0.2,0.4-0.81,0.91-2.13,1.72l2.23,0.2l-0.1-1.72H794.88z"/>
		<path id="XMLID_369_" class="st1" d="M794.07,250.81c1.82-0.61,3.14-0.21,4.66-1.42c-0.81-1.01-1.93-0.1-3.03-0.3
			c1.42,1.32-1.11,0.2-1.42,1.61l-0.9-0.4l-0.31,1.01v-0.1l0.31-0.1L794.07,250.81c-0.1,0.5-0.41,0.3-0.7,0.3l-0.31,0.1
			c0.61,0.4,1.32,0.1,1.52,0.71C794.88,251.41,794.78,251.41,794.07,250.81"/>
		<path id="XMLID_368_" class="st1" d="M790.93,239.67v0.41C791.24,239.88,791.34,239.78,790.93,239.67"/>
		<path id="XMLID_367_" class="st1" d="M791.84,240.89c-0.2,0.2-0.51,0.81-1.22,0.51c-0.5-0.61,0.2-0.81,0.31-1.32
			c-0.51,0.3-1.82,0.91-0.71,1.92l0.31-0.2c1.21,0.81,1.61,3.14,1.41,3.34L791.84,240.89z"/>
		<path id="XMLID_366_" class="st1" d="M795.49,245.64l1.72,0.31l0.51-1.52l-0.6,0.61C796.6,244.23,795.99,245.13,795.49,245.64"/>
		<polygon id="XMLID_365_" class="st1" points="793.77,254.25 791.64,254.45 794.68,254.65 		"/>
		<polygon id="XMLID_364_" class="st1" points="794.38,255.76 792.65,255.86 793.77,256.17 		"/>
		<path id="XMLID_363_" class="st1" d="M857.01,222.47l0.51-0.61L857.01,222.47z"/>
		<path id="XMLID_362_" class="st1" d="M852.87,223.18v0.81V223.18z"/>
		<path id="XMLID_361_" class="st1" d="M819.78,255.26c-0.61,1.61-1.93,3.74-0.51,2.63l1.31-1.32
			C819.87,256.27,819.78,255.76,819.78,255.26"/>
		<polygon id="XMLID_360_" class="st1" points="842.54,255.97 842.14,256.37 843.85,256.57 		"/>
		<path id="XMLID_359_" class="st1" d="M835.15,257.28l0.71-1.52L835.15,257.28z"/>
		<path id="XMLID_358_" class="st1" d="M874.73,204.8v-1.92C873.73,203.28,874.43,203.88,874.73,204.8"/>
		<path id="XMLID_357_" class="st1" d="M815.34,277.24c1.11-0.5,1.72-1.01,2.13-1.62C816.05,276.23,814.33,276.23,815.34,277.24"/>
		<path id="XMLID_356_" class="st1" d="M858.52,240.38l0.41-1.11C858.63,239.68,858.43,239.98,858.52,240.38"/>
		<path id="XMLID_355_" class="st1" d="M818.88,272.99l-0.61,0.31l-0.8,2.32C818.58,275.12,819.49,274.41,818.88,272.99"/>
		<path id="XMLID_354_" class="st1" d="M811.78,195.16l0.19-0.2L811.78,195.16z"/>
		<path id="XMLID_353_" class="st1" d="M805.51,211.95l0.31-1.01C805.61,211.04,805.51,211.35,805.51,211.95"/>
		<path id="XMLID_352_" class="st1" d="M806.72,263.35l0.81,0.2L806.72,263.35z"/>
		<path id="XMLID_351_" class="st1" d="M816.53,271.54L816.53,271.54C816.12,271.54,816.24,271.54,816.53,271.54"/>
		<path id="XMLID_350_" class="st1" d="M800.85,265.17l-0.5,0.81L800.85,265.17z"/>
		<path id="XMLID_349_" class="st1" d="M800.04,265.27l0.2-0.5C799.94,264.67,799.74,264.77,800.04,265.27"/>
		<polygon id="XMLID_348_" class="st1" points="800.15,266.99 800.35,265.98 800.04,266.09 		"/>
		<path id="XMLID_347_" class="st1" d="M851.55,227.53l-0.11-0.2C850.74,228.04,851.04,227.94,851.55,227.53"/>
		<polygon id="XMLID_346_" class="st1" points="845.77,256.78 845.68,256.78 845.68,256.87 		"/>
		<path id="XMLID_345_" class="st1" d="M848.01,257.68c-2.25,0.51-2.33,0-2.33-0.81l-3.45,3.44L848.01,257.68z"/>
		<path id="XMLID_344_" class="st1" d="M836.06,257.19l1.02-0.51C836.67,256.68,836.26,256.78,836.06,257.19"/>
		<polygon id="XMLID_343_" class="st1" points="874.73,205.1 874.73,205.1 874.73,204.8 		"/>
		<path id="XMLID_342_" class="st1" d="M812.28,261.43l1.22-0.51C813.1,260.82,812.68,260.82,812.28,261.43"/>
		<path id="XMLID_341_" class="st1" d="M799.23,260.31l0.51,1.11c-0.11-0.5,0.31-0.71,0.61-1.01
			C799.84,260.42,799.23,260.72,799.23,260.31"/>
		<path id="XMLID_340_" class="st1" d="M804.59,248.78l-0.4-0.5l-0.91,0.41C803.48,249.39,804.4,249.69,804.59,248.78"/>
		<path id="XMLID_339_" class="st1" d="M805.4,259c1.62-0.1,1.01-0.91,0.71-1.82v0.2C803.99,257.28,804.69,258.09,805.4,259"/>
		<path id="XMLID_338_" class="st1" d="M800.75,257.07l-0.1-0.81C799.63,256.17,800.45,256.57,800.75,257.07"/>
		<path id="XMLID_337_" class="st1" d="M801.36,268.21c0.4-0.4-2.02-0.31-1.42-0.51C797.91,267.2,802.38,270.73,801.36,268.21"/>
		<polygon id="XMLID_336_" class="st1" points="810.56,258.09 808.64,258.49 810.25,258.9 		"/>
		<path id="XMLID_335_" class="st1" d="M809.25,265.27l0.5-1.42l-0.61-0.4C809.05,264.37,808.64,265.27,809.25,265.27"/>
		<path id="XMLID_334_" class="st1" d="M809.15,263.45l-0.41-1.11L809.15,263.45z"/>
		<polygon id="XMLID_333_" class="st1" points="811.17,260.11 810.77,260.52 810.67,261.53 		"/>
		<path id="XMLID_332_" class="st1" d="M805.12,272.58c1.21,0.41-1.92,1.11,3.03,1.42c0-0.51-1.73-0.2-1.62-1.02
			C806.03,272.69,805.63,272.19,805.12,272.58"/>
		<polygon id="XMLID_331_" class="st1" points="809.87,267.12 808.46,267.83 810.88,267.73 		"/>
		<path id="XMLID_330_" class="st1" d="M810.79,271.17c0.71,0,2.12,1.52,1.82-0.11C811.9,271.07,811.29,269.75,810.79,271.17"/>
		<polygon id="XMLID_329_" class="st1" points="819.47,261.32 819.37,261.73 823.01,262.95 		"/>
		<path id="XMLID_328_" class="st1" d="M838.9,243.52c-0.51-2.23-2.24,1.11-2.43-1.02c-1.01,0.21,0.19,1.73-0.71,1.92
			C837.18,244.74,837.18,245.55,838.9,243.52"/>
		<path id="XMLID_327_" class="st1" d="M835.25,244.43l-1.01-0.09L835.25,244.43z"/>
		<polygon id="XMLID_326_" class="st1" points="801.55,215.8 800.15,216.91 801.97,216.41 		"/>
		<path id="XMLID_325_" class="st1" d="M803.99,218.84l-2.93-0.21l2.33,1.11C803.28,219.54,803.28,218.93,803.99,218.84"/>
		<path id="XMLID_324_" class="st1" d="M843.25,219.74v0.6c0.2,0.61,0.41,0.61,0.92,0.71L843.25,219.74z"/>
		<polygon id="XMLID_323_" class="st1" points="857.82,219.74 857.52,219.74 858.52,221.87 		"/>
		<path id="XMLID_322_" class="st1" d="M864.41,204.7l-1.42,0.81C863.91,204.8,865.52,207.43,864.41,204.7"/>
		<path id="XMLID_288_" class="st1" d="M808.13,270.03v2.63c-0.3,0.5-0.4,0.71,0,0.1v5.56l-0.8-1.82c1.41,0.81-1.01-0.6-0.71-1.72
			c-0.92-1.31-0.4-2.63,0.5-3.75l0.1-1.92C807.53,269.72,807.83,269.93,808.13,270.03 M808.13,260.92v3.34l-0.4,0.2l-0.09,0.1v-0.1
			l-0.72-0.3c0.41-1.42-0.29-0.81-1.1-0.81C807.73,262.34,807.43,261.63,808.13,260.92 M808.13,256.37v3.24
			c-0.19-1.01,0.41-2.63-1.72-1.93C808.74,256.67,807.23,256.78,808.13,256.37 M808.74,269.93v0.3h-0.4c0.4,0.1,0.51,0.61,0.3,1.11
			h0.1v10.43l-0.4-1.83l0.4-0.11l-0.61-1.52v-5.56l0.21-0.3h-0.09c0,0.1-0.11,0.2-0.11,0.2v-2.63
			C808.34,270.03,808.54,270.03,808.74,269.93 M808.74,260.42v3.44l-0.61,0.4v-3.34C808.25,260.82,808.44,260.62,808.74,260.42
			 M808.74,256.17v0.2v0.61v3.24c-0.4,0.1-0.61-0.2-0.61-0.61v-3.24C808.25,256.37,808.44,256.27,808.74,256.17 M808.74,256.37
			c0.11-0.1,0.11-0.2,0.11-0.3l-0.11,0.1V256.37z M846.69,258.29V259c-1.41,1.21-2.84,2.43-3.95,3.04l3.95-1.01v-1.42
			C846.18,259.4,846.28,258.9,846.69,258.29 M846.69,252.22c-0.92,0.71-2.02,1.62-2.33,1.72c0.21,0.4,1.32,0.2,2.33-0.3V252.22z
			 M846.69,248.88c-0.81,1.22-2.43,2.94-3.34,2.94l3.34-0.41V248.88z M846.69,219.24c-4.36,4.35-15.58,15.58-13.77,13.76v0.1
			l0.11,0.2l0.3,0.21l1.11-0.5h0.1c21.96-21.96,6.08-6.07,10.93-11.03h0.11v0.1v0.2l0.09,0.31l0.09,0.6l-0.09,0.31l-0.09,0.1v0.1
			h-0.11l1.22-1.22V219.24z M846.69,213.98v5.26l-1.22,1.21h0.4c0.2,1.01,0.3,2.13,0.81,2.93v13.26c-0.41-0.5-0.81-0.61-1.01-0.3
			l0.71,1.01l0.31-0.21v11.43c-0.51-0.1-1.22-2.13-1.92-2.33l-0.1,1.52c-1.32-2.83-6.58,1.52-8.09-0.91
			c0.91-0.3,4.75-2.83,4.25-4.36c-0.51,0.21-1.41,0.62-2.54,1.02l-0.81,0.4l-0.2,0.11c-9.62,0-2.64,0.1-4.76,0.2l0.31,0.4l1.11,1.92
			c1.42,2.54,2.95,4.96,3.14,6.27l-1.2-0.3l0.3,2.13c-2.53-2.23-6.58-9.31-7.19-13.15c-1.51,0.4-1.42-0.71-2.43,1.11
			c-1.41-0.11-0.81-2.12-0.5-2.63l-3.35,3.74c2.23,1.31,0.21,4.55,2.23,5.47l0.4-5.77c2.13,1.42,4.65,6.57,2.83,8.6
			c-1.32,0.2-3.84-2.53-4.65-2.93c0.5,0.8,0,3.43-0.51,3.33l-0.81-1.72c-1.63,1.12,2.22,3.85-0.82,4.66
			c-0.4,0.5-3.84,0.61-2.43,1.31c3.14,0,11.75,3.33,13.66,4.75c-0.29,0.11-3.84,1.93-5.46,2.03c-2.52,0.3-4.65-3.24-6.88-3.14
			c0.61,0.31,1.32,1.11,1.42,1.51c-0.81,0.41-2.03-1.01-2.13,0.41c2.43,1.11-1.21,2.53,1.82,1.41c0.31,1.52-0.9,1.12-1.42,2.63
			c1.82,0.1,5.07,3.34,5.27,4.96l-1.92-0.3c-1.11,2.63-3.14,3.33-4.24,5.56c-0.72-0.1-1.93,0.51-2.64-0.51
			c0.21,0.61,0.81,1.32,0.51,2.03c-2.53,0,0.51-1.62-2.33-2.12c3.54,1.11-4.15,2.02,6.37,4.95c-8.3-0.3-1.32-2.33-3.94-4.05
			c-0.81-0.2,12.94,9.31-3.76,4.86c-1.11-2.32,1.93-1.41,1.42-1.82c0.21-4.25-6.17-3.54-3.95-7.38c2.13-1.42,4.16-0.11,5.67-0.4
			c0.71,1.71-1.21,2.82-1.01,4.14l0.81-1.62c0.81,0.5,1.42,1.62,0.91,2.42c1.51-1.31-0.1-6.98,1.81-10.22
			c-0.7-0.61-1.41-1.51-2.22-1.11l0.21,1.01c-1.62,0.91-2.23-1.93-3.04-0.71c-1.22-1.41-3.04-2.94-2.12-4.66l2.32-0.3
			c-0.61,0-1.42,1.11-0.61,1.72c-1.11-0.81,3.14-2.93,0-3.64l-1.63,1.21c-0.91-1.01-2.83-2.12-3.14-3.34v3.24
			c0.31,0,0.72-0.1,1.12-0.31c-0.4,0.21-0.81,0.41-1.12,0.51v3.44l0.21-0.1c1.82,0.71,1.73,3.03,2.63,3.84
			c-0.4,0.91-0.9-0.31-1.72,0.1l1.32,1.21c-0.92,0-1.72,0.71-2.44,1.02v0.3l0.31,0.1c0.41,0.51,0.21,0.81-0.31,1.01v10.43l0.21,0.8
			l0.51,1.22l0.09,0.1c31.48,6.37,8.7,1.82,15.79,3.24v-0.1v-0.2l0.1-0.3l0.2-0.71c0.6-1.72,1.51-3.34,3.84-4.35
			c0.2-1.21,0.2-2.42,1.62-4.05l1.51,0.3c0-1.42,2.73-3.03,1.42-4.15c4.24,0.3,3.03-5.87,4.24-7.08l-1.71-0.72
			c0.5-1.21,0.4-2.53,0.31-4.35l-1.73-0.51c-0.71-1.92,2.43-3.24,3.33-4.55c0.52,0.41,0.11,0.7-0.4,0.81c2.33,0,2.23-1.22,2.03-2.64
			v-2.02l0.39-0.7l0.41-0.21h0.11c11.32,0-15.29-0.1-12.55-0.1v0.1v0.3c0.81,0.1,1.01,0.61,0.91,1.22h-0.2l0.2,0.2l-0.2,1.32
			l0.3-1.21l1.72,1.11l-1.31,1.42l0.2,0.1c-0.1,1.01,1.02-0.1,1.83-1.32l1.51,0.11c-2.02,2.33,1.92,0.8-0.1,3.43
			c1.52-0.51,3.14,2.23,6.08,0.5c-0.32,0.31-0.41,0.61-0.62,0.31c0.21,0.91,0.41,1.72,1.52,1.72l-1.62,1.72l3.64-0.4
			c-0.4,1.72-0.81,2.63-3.03,2.83c3.94,0.51,2.22,1.12,5.86,1.21l-1.21,0.91c0.5,0.61,2.93,0.41,2.22,1.62
			c-0.3,0.81,0,1.82,0.51,2.83v-2.02c-0.41,0.1-0.71,0.3-1.22,0.5c0.51-0.91-0.09-1.52,1.22-2.02v-0.51l-2.73-2.02
			c0.5,0.09,1.62-0.11,1.62-1.11c0,0.7,0.49,1.21,1.11,1.72v-2.73c-1.31-0.51-2.53-0.81-3.74-1.32l0.71-3.64l-1.11,0.2l2.53-1.31
			c-0.71-0.21-1.32-0.31-1.11-0.51l1.01-0.1l-0.92-0.61c0.82-0.3,1.72-0.41,2.64-0.41v-1.21c-1.41-0.41-2.84-0.41-3.65,0.7
			l1.12-2.33c-3.24-1.52-2.64-1.21-5.26-3.54c0.91-0.3,1.92,0.2,2.43-0.51c-3.44-1.31,2.33-5.46-0.3-5.46
			c-0.81-1.61-2.43-0.3-3.34-1.32c0.31,0,0.91,0,1.01-0.29l-2.12-1.12c0.61-0.61,1.42,1.12,2.12-0.5c-1.72-2.43-2.83-4.05-2.12-6.18
			l-0.31-0.91h-0.1c-1.42,1.42,7.58-7.59,10.52-10.53v0.3c-1.22-0.1-3.24,0.92-2.84,2.13c-1.21,0.61,4.46,0,1.73,3.54
			c-0.61-4.86-4.46,1.11-8.2-4.55c2.74-0.4,0.2-2.74,2.43-2.94l-4.46-0.41l0.71-1.52c-4.04-0.7-2.62,1.31-6.57-2.63
			c1.82,1.12,1.01-2.63,2.53-1.82c-0.61-1.32-1.01-1.93-2.12-2.44h0.3c-1.72-3.44,1.01-3.33-1.42-6.27l-0.82,0.51
			c-3.22-3.54-2.52-9.71-4.44-12.54l-0.41,1.31c0.3-0.5-1.82-1.92-0.8-3.34l0.5,0.71c0.91-0.3,2.24-1.11,2.33-2.12l-1.52,0.2
			l0.5-0.4c29.04-3.24,8.09-0.91,14.57-1.61h-0.1l-0.2,0.09h-0.31c-0.3,1.82,2.23-0.3,1.93,1.52c-4.45,0.4-2.02,7.69-6.08,8.09
			c2.73,1.92,1.22-3.03,3.65-1.11c-0.6,0.4-1.1,0.6-1.71,1.52l1.82,0.1c-2.53,4.55-4.65,6.06-5.67,10.01l-0.3-0.3
			c-1.21,1.11-1.21,2.03,0.09,3.14c-0.9,0-1.01-1.11-1.91-0.8c3.54,3.94-4.96,3.63-2.23,6.16c-3.44-1.32-7.88,1.12-10.32-1.01
			l0.2,1.21c-2.32-1.01,0.91-3.54-1.31-4.96l3.54-2.63c-0.91-0.2-2.03-1.21-2.54-0.81c0.22-0.81,0.42-1.51-1.21-0.91
			c4.35-2.83,5.87-6.68,6.67-10.42c5.97-4.04-10.12-6.58,13.87-11.13c0.31,0.5,1.01,0,1.51-0.51c-1.82,2.32,1.62,1.21,2.13,2.02
			l-2.73,3.23c1.22,0.71,2.02-0.21,2.73-0.3c1.71,4.45-1.01,8.5,1.62,11.43c-0.92,1.21-2.74,0.41-2.84,1.72
			c3.04-2.43,2.53,3.23,4.65,1.52c-3.34,2.13,0.3,4.55-4.75,5.67c0.41,1.32,2.53,0,2.83-0.4c0.41,1.11,0.91,2.23,2.32,1.92
			C842.85,212.96,844.77,213.07,846.69,213.98 M846.69,255.66c0.72,0,1.42,0,2.13,0.11l-1.22,1.31c1.52,0.21,3.03,0.21,3.64-0.9
			l-0.7-0.31c1.12,0.1,2.02,0.1,2.33-0.3l-2.03-1.92l-1.62,1.72c-0.8-0.31-1.72-0.71-2.52-0.91V255.66z M846.69,266.09
			c1.01,0.8,2.23,1.41,0.8,2.52c2.33-0.7,3.34-1.72,5.57-1.51c-1.51-2.02-3.94-2.93-6.37-3.74V266.09z M846.69,268.01v-0.51
			l0.51,0.31C846.99,267.9,846.8,268.01,846.69,268.01 M853.06,271.94v2.94l-3.04,1.62v-0.1l-0.1-0.1l-0.1-0.2l-1.22-1.72
			c-0.81-1.01-1.51-1.92-1.92-2.83v-2.02c2.23-0.5,2.23,2.13,3.54,2.93c-1.21,0.5-2.52,0.61-2.73-1.01
			C848.31,271.14,846.18,276.5,853.06,271.94 M853.06,259.91c-1.01,0.61-2.32,1.42-2.52,1.63c0.8-0.51,1.72-0.51,2.52-0.3V259.91z
			 M853.06,247.36v5.77l-0.19,0.1l0.19,0.1v6.07l-6.37,1.62v-1.42h0.11c0.3-0.61,0.3-1.12,0-1.42l-0.11,0.1V259
			c2.02-1.61,4.15-3.23,5.66-2.83c0-0.81-0.09-1.63-1.72-2.13c-0.09,0.61-2.62,3.34-3.23,3.03c1.51-3.24,0.71-1.92,1.51-5.16
			c0,0.41-1.12,1.22-2.23,1.73v-1.42c0.72-0.51,1.42-1.01,1.73-1.01l-1.73,0.2v-2.53c0.11-0.2,0.2-0.3,0.2-0.51
			c0,0.1-0.1,0.2-0.2,0.2v-11.43c8.2-8.09-2.64,1.93,2.83-0.2l1.82-0.4c-2.13,3.45,0.92,1.22-0.91,4.66h-0.31
			c0.41,1.41-1.52,2.63,1.53,2.72l0.29-0.61c0.61,1.72,0.41,1.92,0.71,3.75C852.76,247.06,852.96,247.16,853.06,247.36
			 M853.06,213.77L853.06,213.77c-0.3,0.51-0.5,0.91,0,0.7v4.77c-0.5-0.21-1.01-0.51-1.72-1.22c0.21,0.51,1.11,1.61,1.72,2.83v2.94
			c-0.4-0.2-1.01-0.2-1.62,0.81c-0.1-1.92-1.01-1.42-2.02-1.22l-0.1-2.53c-1.01,0.82-0.9,2.03-1.62,3.25
			c-0.4-0.1-0.81-0.31-1.01-0.71v13.26c1.11,1.42,2.52,5.16,3.44,5.47c0.31,0.3-0.4,0.5-0.71,0.81c3.13,2.22,0.31-2.42,2.53-3.13
			c0.51,1.22-0.29,3.24,1.11,3.54v-14.36c-0.8,0.19-1.51,0.7-2.13,0.09l0.73-0.2c-3.24-0.2-3.35-5.56-4.46-5.87
			c-0.21-0.1-0.31-0.1-0.51-0.2v-0.3c1.01-1.01,1.32-1.32,0,0v-3.23c1.82-1.82,2.43-2.43,0,0v-5.26c1.32,0.61,2.63,1.51,3.04,3.03
			c-0.51-2.73,0.3-1.32,1.42-2.12l-0.41-2.43l2.02,0.51h0.3V213.77z M853.06,223.79c0.1,0,0.21,0.1,0.31,0.2
			c0.71-0.7,0.3-2.02-0.31-3.14V223.79z M854.17,271.24v3.03l-1.11,0.61v-2.94C853.37,271.74,853.77,271.54,854.17,271.24
			 M854.17,259.3c-0.3,0.21-0.71,0.41-1.11,0.61v1.32c0.4,0.09,0.71,0.3,1.11,0.5V259.3z M854.17,253.54v5.66l-1.11,0.2v-6.07
			C853.47,253.33,853.88,253.44,854.17,253.54 M854.17,248.47v3.85c-0.4,0.2-0.71,0.5-1.11,0.81v-5.77c0.21,0.3,0.4,0.71,0,0.91
			C853.47,248.17,853.88,248.28,854.17,248.47 M854.17,229.15v13.97c-0.5,0.3-0.8,0.4-1.01,0.19h-0.1v-14.36
			C853.47,228.96,853.77,228.85,854.17,229.15 M854.17,227.33L854.17,227.33h-0.09H854.17z M854.17,223.08v1.51
			c-0.3-0.09-0.5-0.4-0.8-0.61C853.57,223.79,853.88,223.38,854.17,223.08 M854.17,222.17v0.4c-0.09-0.11-0.19-0.11-0.3-0.21
			L854.17,222.17z M853.37,214.38l-0.31-0.61v-0.81c0.21-0.1,0.31,0,0.31,0.2c0.4,0.1-0.31,1.22,0.71,1.92h0.09v4.76
			c-0.4-0.3-0.71-0.5-1.11-0.6v-4.77C853.16,214.47,853.27,214.38,853.37,214.38 M854.17,224.6c0.31,0.3,0.52,0.1,0.72-1.22
			c-0.2-0.5-0.51-0.5-0.72-0.3V224.6z M854.17,252.32c0.41-0.1,0.81,0,1.12,0.61c-0.11-0.71,0.1-3.74-1.12-4.46V252.32z
			 M854.17,274.28v-3.03c1.02-0.81,2.34-1.82,3.95-3.04c0.21,0.3,0.21,0.61,0.81,0.3c-1.52,0-2.12-2.42-0.91-2.73l0.2,0.31
			c-0.7-1.42-2.32-3.35-4.06-4.36v-2.43c0.12-0.1,0.31-0.19,0.41-0.19l-0.41,0.1v-5.66c1.02,0.3,1.12,0.91,0.31,2.12
			c2.93-0.7,6.17-1.52,7.08,0.71c-0.51-0.2-1.02-0.71-1.52-0.3c-0.51,0.4,0.31,0.71,0.61,0.8c-0.61,0.52-1.32-0.09-2.23,0.52
			c3.34,0.61,1.01,2.43,2.73,4.44c-1.11-0.4-1.42,0.41-2.42,1.02c3.43-0.91-1.83,4.04,2.22,1.82c-0.3,1.31-0.2,2.73,0,4.15l0.2,1.01
			l0.1,0.51C867.94,266.69,859.65,271.24,854.17,274.28 M898.91,231.28L898.91,231.28l-0.61-3.04l-0.1,0.11l-1.22,0.5l-2.52,0.3
			c-1.72,0-3.03-0.19-3.22,0.4l-0.92-1.61c-1.62,3.74-1.81,4.15-5.46,4.15c0-0.3,0.2-0.91-0.51-1.11c-0.3,1.62-0.61,3.24-3.03,3.55
			l-0.11-0.61l-3.43,1.52c-1.63-5.67-5.27,5.46-8-0.71c-0.31,1.82-2.94,2.82-4.05,3.94l-0.41-0.7c-0.9,3.34-4.35-0.1-5.86,0.4
			c-0.92,0.81-0.41,1.82,0.21,2.74c-1.83-1.82-4.16,1.01-5.48,2.03v-13.97c0.12,0.11,0.31,0.21,0.52,0.51
			c1.01-2.33,1.82,0.29,2.33-2.73l-2.84,0.4c1.62-0.71,3.35-4.04,5.68-2.23c-0.2,0.61-1.02,1.42-1.53,1.83
			c0.7,0.91,1.53-0.61,2.22,0.4c-0.41,3.03-3.34,0.61-5.36,2.73c0.82,1.41,3.55-2.03,2.43,1.31c1.41-4.24,3.04,0.61,5.17-2.63
			l-0.21,1.93c0.41-0.31,1.11-1.21,1.62-1.12l-1.11,2.33c1.72-2.01,3.34,1.92,4.85,0.72c-3.34,0.1-0.71-2.13-2.12-3.54
			c4.04-2.53,2.32,4.86,6.88,3.84c-0.61,0.31-2.33-1.01-1.31-1.92c0.81,0.4,2.01,1.01,2.53,2.03c3.03-0.51-0.51-1.92,0.7-3.05
			c1.12,2.23,1.52-1,2.73-1.71l0.1,1.83c3.35,1.11,0.72-3.95,3.85-2.63l-1.22,2.73l1.51-0.81l-0.2,2.22
			c1.62-1.71,2.23-1.31,3.85-0.81c-0.41-1.31,0.09-3.33,1.52-3.43c1.1,1.01-0.41,1.72,1.62,1.41c-0.42,1.21-0.92,2.63-1.83,1.01
			l-0.5,1.82c1.11,1.22,2.73,0.11,3.44,0.11l-0.81-0.4l2.83-2.74c0.51,0.72,0.11,1.32-0.2,1.83l1.82-1.22
			c-0.2,1.52-0.2,3.03-1.31,3.85l2.62-1.82l0.72,1.22l0.2,0.3l0.1,0.2c3.94,20.34-5.36-27.72-4.35-22.76h-0.1v-0.11l-0.2-0.51
			c-1.82-0.2-2.53,4.15-4.86,3.84l-0.4,1.02c-2.03,0.4-4.24-0.71-5.67,2.02l-2.12-2.13c-1.42,1.12,2.83,2.73,0.4,4.56
			c-1.73,1.51-1.52-1.93-2.43-2.43c-0.51,1.62-1.32,4.75-3.76,3.23c0.41-0.71,1.02-0.4,1.52-0.8l-1.82-1.02
			c0.92-2.93,2.23-2.42,0.4-4.15c1.42,5.17-4.86,2.33-3.64,7.28l-1.22-0.91l0.51-0.31c-2.32-2.12-0.4,3.95-2.84,3.75
			c-0.91-0.31-1.52-0.91-1.11-1.62l-1.51,1.62c-0.51,0-0.61-0.91-0.11-0.91l-2.52,0.91v-0.11c-0.32,0.81-1.02,2.33-1.32,2.93
			c-0.8-0.7,0.3-0.6,0-1.21l-1.42,1.32c-0.8-1.32,0.31-2.73,1.42-2.63c-2.02-4.95-1.21,1.11-4.16-1.21v-0.4l1.02-0.61
			c-0.4-0.81-0.7-1.42-1.02-1.72v-4.76c1.43,0.2,1.62-1.01,2.54-2.02l-0.2-0.4l1.1-0.1c0.81,0.19-2.93,2.02-0.5,3.43
			c0.1-0.6,1.82-3.43,2.43-1.92c-1.31-0.09-1.21,1.42-0.81,2.13l2.02,0.2l-0.61-2.83c5.47,0.31,11.34,2.32,17.41,1.92
			c0,2.43,4.34-0.1,3.94,3.64l-0.3-0.4c-1.42,0.4,0.61,2.94,1.82,2.43c-1.32-1.11,2.12-3.74-1.01-4.15l2.32-1.82
			c1.01-7.07,6.47,0.31,10.32-2.02l-0.3,0.81l0.61-0.31l0.3-0.2h0.1h0.1C894.96,210.94,898.5,229.26,898.91,231.28"/>
	</g>
	<g id="XMLID_179_">
		<path id="XMLID_285_" class="st2" d="M23.48,491.03c-2.28-2.36-5.43-3.8-8.74-3.8c-6.38,0-11.55,5.55-11.55,11.85
			c0,6.31,5.21,11.85,11.63,11.85c3.23,0,6.38-1.52,8.66-3.8v3.95c-2.47,1.78-5.51,2.81-8.55,2.81C6.84,513.9,0,507.33,0,499.2
			c0-8.21,6.73-14.93,14.93-14.93c3.19,0,6,0.91,8.55,2.81V491.03z"/>
		<path id="XMLID_282_" class="st2" d="M27.28,504.52c0-5.24,4.14-9.46,9.39-9.46c5.24,0,9.38,4.22,9.38,9.46
			c0,5.24-4.18,9.38-9.38,9.38C31.46,513.9,27.28,509.76,27.28,504.52z M30.32,504.48c0,3.65,2.58,6.61,6.35,6.61
			c3.76,0,6.34-2.96,6.34-6.61c0-3.61-2.58-6.61-6.34-6.61C32.9,497.87,30.32,500.87,30.32,504.48z"/>
		<path id="XMLID_280_" class="st2" d="M53.11,497.49h0.08c1.06-1.41,1.98-2.43,3.95-2.43c1.03,0,1.86,0.34,2.74,0.84l-1.44,2.77
			c-0.61-0.42-1.02-0.8-1.82-0.8c-3.34,0-3.5,4.29-3.5,6.61v8.93h-3.04v-17.86h3.04V497.49z"/>
		<path id="XMLID_277_" class="st2" d="M65.84,498.1h0.08c1.48-1.98,3.69-3.04,6.16-3.04c5.24,0,8.55,4.52,8.55,9.46
			c0,5.09-3.23,9.38-8.59,9.38c-2.43,0-4.67-1.06-6.12-3h-0.08v12.54H62.8v-27.89h3.04V498.1z M65.69,504.29
			c0,3.5,2.05,6.8,5.85,6.8c3.91,0,5.97-3.15,5.97-6.76c0-3.57-2.24-6.46-6-6.46C67.97,497.87,65.69,500.95,65.69,504.29z"/>
		<path id="XMLID_274_" class="st2" d="M83.28,504.52c0-5.24,4.14-9.46,9.39-9.46c5.24,0,9.38,4.22,9.38,9.46
			c0,5.24-4.18,9.38-9.38,9.38C87.45,513.9,83.28,509.76,83.28,504.52z M86.32,504.48c0,3.65,2.58,6.61,6.35,6.61
			c3.76,0,6.34-2.96,6.34-6.61c0-3.61-2.58-6.61-6.34-6.61C88.9,497.87,86.32,500.87,86.32,504.48z"/>
		<path id="XMLID_272_" class="st2" d="M109.11,497.49h0.08c1.06-1.41,1.98-2.43,3.95-2.43c1.03,0,1.86,0.34,2.74,0.84l-1.44,2.77
			c-0.61-0.42-1.03-0.8-1.82-0.8c-3.34,0-3.5,4.29-3.5,6.61v8.93h-3.04v-17.86h3.04V497.49z"/>
		<path id="XMLID_269_" class="st2" d="M135.25,513.41h-3.04v-2.47h-0.08c-1.56,1.98-3.65,2.96-6.16,2.96
			c-5.24,0-8.55-4.45-8.55-9.38c0-5.09,3.23-9.46,8.59-9.46c2.43,0,4.64,1.14,6.12,3.04h0.08v-2.55h3.04V513.41z M120.54,504.29
			c0,3.5,2.05,6.8,5.85,6.8c3.91,0,5.97-3.15,5.97-6.76c0-3.57-2.24-6.46-6-6.46C122.82,497.87,120.54,500.95,120.54,504.29z"/>
		<path id="XMLID_267_" class="st2" d="M154.13,500.87h-0.08c-1.41-1.79-3.15-3-5.55-3c-3.69,0-6.31,3.04-6.31,6.61
			c0,3.53,2.43,6.61,6.16,6.61c2.55,0,4.33-1.14,5.81-3.08h0.08v4.07c-1.75,1.18-3.53,1.82-5.66,1.82c-5.4,0-9.5-4.03-9.5-9.42
			c0-5.32,4.29-9.42,9.54-9.42c1.94,0,3.91,0.65,5.51,1.79V500.87z"/>
		<path id="XMLID_264_" class="st2" d="M163.21,488.83c0,1.22-0.99,2.17-2.17,2.17c-1.18,0-2.17-0.95-2.17-2.17
			c0-1.18,0.99-2.17,2.17-2.17C162.22,486.66,163.21,487.65,163.21,488.83z M162.56,513.41h-3.04v-17.86h3.04V513.41z"/>
		<path id="XMLID_260_" class="st2" d="M167.31,504.52c0-5.24,4.14-9.46,9.39-9.46c5.24,0,9.38,4.22,9.38,9.46
			c0,5.24-4.18,9.38-9.38,9.38C171.49,513.9,167.31,509.76,167.31,504.52z M170.35,504.48c0,3.65,2.58,6.61,6.35,6.61
			c3.76,0,6.34-2.96,6.34-6.61c0-3.61-2.58-6.61-6.34-6.61C172.93,497.87,170.35,500.87,170.35,504.48z M182.09,486.59l-5.81,5.85
			l-1.9-1.06l4.52-6.23L182.09,486.59z"/>
		<path id="XMLID_258_" class="st2" d="M193.3,497.72h0.08c1.25-1.71,2.89-2.66,5.09-2.66c4.94,0,6.08,3.57,6.08,7.75v10.6h-3.04
			v-10.07c0-2.89-0.23-5.47-3.76-5.47c-4.18,0-4.45,3.87-4.45,7.07v8.47h-3.04v-17.86h3.04V497.72z"/>
		<path id="XMLID_255_" class="st2" d="M225.21,513.41h-3.19v-28.65h4.14c5.43,0,10.49,1.44,10.49,7.9c0,4.41-2.77,7.52-7.18,7.9
			l9.12,12.84h-3.91l-8.66-12.58h-0.8V513.41z M225.21,498.02h0.99c3.61,0,7.26-0.68,7.26-5.13c0-4.71-3.46-5.17-7.3-5.17h-0.95
			V498.02z"/>
		<path id="XMLID_252_" class="st2" d="M244.13,505.13c0.04,3.3,2.39,5.96,5.85,5.96c2.58,0,4.26-1.56,5.43-3.69l2.58,1.48
			c-1.71,3.19-4.6,5.02-8.25,5.02c-5.32,0-8.74-4.07-8.74-9.19c0-5.28,3.08-9.65,8.66-9.65c5.74,0,8.78,4.75,8.47,10.07H244.13z
			 M254.96,502.54c-0.42-2.58-2.58-4.67-5.24-4.67c-2.62,0-5.05,2.09-5.43,4.67H254.96z"/>
		<path id="XMLID_249_" class="st2" d="M278.43,512.54c0,2.85,0,5.32-1.82,7.68c-1.67,2.13-4.26,3.15-6.92,3.15
			c-4.98,0-8.66-3.15-8.78-8.21h3.04c0.04,3.3,2.43,5.39,5.7,5.39c4.71,0,5.74-3.46,5.74-7.48v-2.13h-0.08
			c-1.44,1.86-3.8,2.96-6.19,2.96c-5.21,0-8.51-4.37-8.51-9.35c0-5.02,3.34-9.5,8.63-9.5c2.47,0,4.64,1.1,6.08,3.04h0.08v-2.55h3.04
			V512.54z M263.73,504.29c0,3.5,2.05,6.8,5.85,6.8c3.91,0,5.97-3.15,5.97-6.76c0-3.57-2.24-6.46-6-6.46
			C266.01,497.87,263.73,500.95,263.73,504.29z"/>
		<path id="XMLID_246_" class="st2" d="M288.61,488.83c0,1.22-0.99,2.17-2.17,2.17s-2.17-0.95-2.17-2.17c0-1.18,0.99-2.17,2.17-2.17
			S288.61,487.65,288.61,488.83z M287.97,513.41h-3.04v-17.86h3.04V513.41z"/>
		<path id="XMLID_243_" class="st2" d="M292.71,504.52c0-5.24,4.14-9.46,9.39-9.46c5.24,0,9.39,4.22,9.39,9.46
			c0,5.24-4.18,9.38-9.39,9.38C296.89,513.9,292.71,509.76,292.71,504.52z M295.75,504.48c0,3.65,2.58,6.61,6.35,6.61
			c3.76,0,6.35-2.96,6.35-6.61c0-3.61-2.58-6.61-6.35-6.61C298.34,497.87,295.75,500.87,295.75,504.48z"/>
		<path id="XMLID_241_" class="st2" d="M318.7,497.72h0.08c1.25-1.71,2.89-2.66,5.09-2.66c4.94,0,6.08,3.57,6.08,7.75v10.6h-3.04
			v-10.07c0-2.89-0.23-5.47-3.76-5.47c-4.18,0-4.45,3.87-4.45,7.07v8.47h-3.04v-17.86h3.04V497.72z"/>
		<path id="XMLID_238_" class="st2" d="M352.02,513.41h-3.04v-2.47h-0.08c-1.56,1.98-3.65,2.96-6.16,2.96
			c-5.24,0-8.55-4.45-8.55-9.38c0-5.09,3.23-9.46,8.59-9.46c2.43,0,4.64,1.14,6.12,3.04h0.08v-2.55h3.04V513.41z M337.32,504.29
			c0,3.5,2.05,6.8,5.85,6.8c3.91,0,5.97-3.15,5.97-6.76c0-3.57-2.24-6.46-6-6.46C339.6,497.87,337.32,500.95,337.32,504.29z"/>
		<path id="XMLID_236_" class="st2" d="M360.6,513.41h-3.04v-31.35h3.04V513.41z"/>
		<path id="XMLID_233_" class="st2" d="M391.23,510.94h-0.08c-1.48,1.94-3.72,2.96-6.16,2.96c-5.24,0-8.55-4.45-8.55-9.38
			c0-5.09,3.23-9.46,8.59-9.46c2.39,0,4.67,1.14,6.12,3.04h0.08v-16.03h3.04v31.35h-3.04V510.94z M379.56,504.29
			c0,3.5,2.05,6.8,5.85,6.8c3.91,0,5.97-3.15,5.97-6.76c0-3.57-2.24-6.46-6-6.46C381.84,497.87,379.56,500.95,379.56,504.29z"/>
		<path id="XMLID_230_" class="st2" d="M401.4,505.13c0.04,3.3,2.39,5.96,5.85,5.96c2.58,0,4.26-1.56,5.43-3.69l2.58,1.48
			c-1.71,3.19-4.6,5.02-8.25,5.02c-5.32,0-8.74-4.07-8.74-9.19c0-5.28,3.08-9.65,8.66-9.65c5.74,0,8.78,4.75,8.47,10.07H401.4z
			 M412.23,502.54c-0.42-2.58-2.58-4.67-5.24-4.67c-2.62,0-5.05,2.09-5.43,4.67H412.23z"/>
		<path id="XMLID_227_" class="st2" d="M431.3,484.76h5.4c4.29,0,7.79,0.57,11.17,3.46c3.27,2.81,4.75,6.65,4.75,10.9
			c0,4.18-1.52,7.87-4.67,10.68c-3.42,3.04-6.84,3.61-11.32,3.61h-5.32V484.76z M436.81,510.45c3.5,0,6.42-0.49,9.04-2.96
			c2.36-2.2,3.57-5.21,3.57-8.4c0-3.27-1.25-6.42-3.72-8.59c-2.62-2.32-5.51-2.77-8.89-2.77h-2.32v22.72H436.81z"/>
		<path id="XMLID_224_" class="st2" d="M458.58,505.13c0.04,3.3,2.39,5.96,5.85,5.96c2.58,0,4.26-1.56,5.43-3.69l2.58,1.48
			c-1.71,3.19-4.6,5.02-8.25,5.02c-5.32,0-8.74-4.07-8.74-9.19c0-5.28,3.08-9.65,8.66-9.65c5.74,0,8.78,4.75,8.47,10.07H458.58z
			 M469.41,502.54c-0.42-2.58-2.58-4.67-5.24-4.67c-2.62,0-5.05,2.09-5.43,4.67H469.41z"/>
		<path id="XMLID_222_" class="st2" d="M484,499.69c-0.42-0.95-1.33-1.82-2.43-1.82c-1.06,0-2.2,0.84-2.2,1.98
			c0,1.63,2.05,2.24,4.14,3.11c2.09,0.87,4.14,2.13,4.14,5.13c0,3.38-2.74,5.81-6.04,5.81c-3,0-5.36-1.71-6.31-4.52l2.7-1.14
			c0.76,1.67,1.63,2.85,3.65,2.85c1.63,0,2.89-1.1,2.89-2.74c0-3.99-8.06-2.62-8.06-8.25c0-3,2.43-5.05,5.32-5.05
			c2.05,0,3.95,1.44,4.75,3.31L484,499.69z"/>
		<path id="XMLID_219_" class="st2" d="M508.24,513.41h-3.04v-2.47h-0.08c-1.56,1.98-3.65,2.96-6.16,2.96
			c-5.24,0-8.55-4.45-8.55-9.38c0-5.09,3.23-9.46,8.59-9.46c2.43,0,4.64,1.14,6.12,3.04h0.08v-2.55h3.04V513.41z M493.53,504.29
			c0,3.5,2.05,6.8,5.85,6.8c3.91,0,5.97-3.15,5.97-6.76c0-3.57-2.24-6.46-6-6.46C495.81,497.87,493.53,500.95,493.53,504.29z"/>
		<path id="XMLID_217_" class="st2" d="M516.74,497.49h0.08c1.06-1.41,1.98-2.43,3.95-2.43c1.03,0,1.86,0.34,2.74,0.84l-1.44,2.77
			c-0.61-0.42-1.02-0.8-1.82-0.8c-3.34,0-3.5,4.29-3.5,6.61v8.93h-3.04v-17.86h3.04V497.49z"/>
		<path id="XMLID_215_" class="st2" d="M529.47,497.49h0.08c1.06-1.41,1.98-2.43,3.95-2.43c1.03,0,1.86,0.34,2.74,0.84l-1.44,2.77
			c-0.61-0.42-1.03-0.8-1.82-0.8c-3.34,0-3.5,4.29-3.5,6.61v8.93h-3.04v-17.86h3.04V497.49z"/>
		<path id="XMLID_212_" class="st2" d="M537.71,504.52c0-5.24,4.14-9.46,9.39-9.46c5.24,0,9.38,4.22,9.38,9.46
			c0,5.24-4.18,9.38-9.38,9.38C541.89,513.9,537.71,509.76,537.71,504.52z M540.75,504.48c0,3.65,2.58,6.61,6.35,6.61
			c3.76,0,6.34-2.96,6.34-6.61c0-3.61-2.58-6.61-6.34-6.61C543.34,497.87,540.75,500.87,540.75,504.48z"/>
		<path id="XMLID_210_" class="st2" d="M563.62,513.41h-3.04v-31.35h3.04V513.41z"/>
		<path id="XMLID_208_" class="st2" d="M572.24,513.41h-3.04v-31.35h3.04V513.41z"/>
		<path id="XMLID_205_" class="st2" d="M576.31,504.52c0-5.24,4.14-9.46,9.39-9.46c5.24,0,9.39,4.22,9.39,9.46
			c0,5.24-4.18,9.38-9.39,9.38C580.49,513.9,576.31,509.76,576.31,504.52z M579.35,504.48c0,3.65,2.58,6.61,6.35,6.61
			c3.76,0,6.35-2.96,6.35-6.61c0-3.61-2.58-6.61-6.35-6.61C581.93,497.87,579.35,500.87,579.35,504.48z"/>
		<path id="XMLID_202_" class="st2" d="M614.15,513.41h-3.19v-28.65h4.71c2.47,0,5.02,0.08,7.11,1.52c2.13,1.48,3.23,3.99,3.23,6.53
			c0,2.32-0.95,4.67-2.74,6.16c-1.94,1.6-4.41,1.9-6.8,1.9h-2.32V513.41z M614.15,497.91h2.13c3.53,0,6.54-1.06,6.54-5.17
			c0-4.67-3.76-5.02-7.49-5.02h-1.18V497.91z"/>
		<path id="XMLID_200_" class="st2" d="M632.95,497.49h0.08c1.06-1.41,1.98-2.43,3.95-2.43c1.03,0,1.86,0.34,2.74,0.84l-1.44,2.77
			c-0.61-0.42-1.02-0.8-1.82-0.8c-3.34,0-3.5,4.29-3.5,6.61v8.93h-3.04v-17.86h3.04V497.49z"/>
		<path id="XMLID_197_" class="st2" d="M641.2,504.52c0-5.24,4.14-9.46,9.39-9.46c5.24,0,9.39,4.22,9.39,9.46
			c0,5.24-4.18,9.38-9.39,9.38S641.2,509.76,641.2,504.52z M644.24,504.48c0,3.65,2.58,6.61,6.35,6.61s6.35-2.96,6.35-6.61
			c0-3.61-2.58-6.61-6.35-6.61S644.24,500.87,644.24,504.48z"/>
		<path id="XMLID_194_" class="st2" d="M677.4,510.94h-0.08c-1.48,1.94-3.72,2.96-6.16,2.96c-5.24,0-8.55-4.45-8.55-9.38
			c0-5.09,3.23-9.46,8.59-9.46c2.39,0,4.67,1.14,6.12,3.04h0.08v-16.03h3.04v31.35h-3.04V510.94z M665.74,504.29
			c0,3.5,2.05,6.8,5.85,6.8c3.91,0,5.97-3.15,5.97-6.76c0-3.57-2.24-6.46-6-6.46C668.02,497.87,665.74,500.95,665.74,504.29z"/>
		<path id="XMLID_192_" class="st2" d="M688.88,505.51c0,3,0.34,5.59,4.03,5.59s4.03-2.58,4.03-5.59v-9.96h3.04v10.3
			c0,4.75-1.78,8.05-7.07,8.05c-5.28,0-7.07-3.3-7.07-8.05v-10.3h3.04V505.51z"/>
		<path id="XMLID_190_" class="st2" d="M718.78,500.87h-0.08c-1.41-1.79-3.15-3-5.55-3c-3.69,0-6.31,3.04-6.31,6.61
			c0,3.53,2.43,6.61,6.16,6.61c2.55,0,4.33-1.14,5.81-3.08h0.08v4.07c-1.75,1.18-3.53,1.82-5.66,1.82c-5.4,0-9.5-4.03-9.5-9.42
			c0-5.32,4.29-9.42,9.54-9.42c1.94,0,3.91,0.65,5.51,1.79V500.87z"/>
		<path id="XMLID_188_" class="st2" d="M726.79,513.41h-3.04v-15.05h-1.86v-2.81h1.86v-6.42h3.04v6.42h3.19v2.81h-3.19V513.41z"/>
		<path id="XMLID_185_" class="st2" d="M736.97,488.83c0,1.22-0.99,2.17-2.17,2.17s-2.17-0.95-2.17-2.17c0-1.18,0.99-2.17,2.17-2.17
			S736.97,487.65,736.97,488.83z M736.32,513.41h-3.04v-17.86h3.04V513.41z"/>
		<path id="XMLID_183_" class="st2" d="M748.59,507.56l5.32-12.01h3.42l-8.74,19.04l-8.78-19.04h3.46L748.59,507.56z"/>
		<path id="XMLID_180_" class="st2" d="M758.66,504.52c0-5.24,4.14-9.46,9.39-9.46c5.24,0,9.39,4.22,9.39,9.46
			c0,5.24-4.18,9.38-9.39,9.38C762.84,513.9,758.66,509.76,758.66,504.52z M761.7,504.48c0,3.65,2.59,6.61,6.35,6.61
			c3.76,0,6.35-2.96,6.35-6.61c0-3.61-2.58-6.61-6.35-6.61C764.29,497.87,761.7,500.87,761.7,504.48z"/>
	</g>
	<g id="XMLID_148_">
		<g id="XMLID_13315_">
			<path class="st2" d="M710.1,237.07c39.61,0,67.3,27.69,67.3,68.77c0,41.06-27.7,69.67-67.3,69.67h-38.4v72.93h-39.01V270.12
				h-19.36v-33.04H710.1z M737.48,305.85c0-21.75-12.49-35.73-33.93-35.73H671.7v72.04h31.26
				C724.99,342.15,737.48,327.86,737.48,305.85z"/>
			<path class="st2" d="M419.8,428.2V270.12h-19.35v-33.04h86.04c65.2,0,107.78,38.69,107.78,105.39
				c0,66.69-42.57,105.98-107.78,105.98h-46.45C425.77,448.44,419.8,442.48,419.8,428.2z M484.41,415.4
				c42.29,0,69.38-25.31,69.38-72.93c0-47.04-27.68-72.35-69.38-72.35h-25.6v138.72c0,4.16,2.38,6.56,6.54,6.56H484.41z"/>
			<path class="st2" d="M301.61,336.22c19.65,0,31.26-12.24,31.26-33.36c0-20.84-11.61-32.75-30.66-32.75h-31.56v66.1H301.61z
				 M306.96,237.07c38.7,0,65.8,23.82,65.8,63.71c0,38.11-26.19,53.88-35.13,55.69v0.57c0,0,6.56,3,10.43,10.73l20.53,40.8
				c3.28,6.25,8.35,6.84,14.89,6.84h3.88v33.04h-20.54c-15.79,0-22.63-2.4-29.47-15.77l-27.1-53.29c-4.47-8.35-8.93-9.84-19.95-9.84
				h-11.54h-8.11v0.16v78.74h-39.01V270.12h-19.36v-33.04H306.96z"/>
			<path class="st2" d="M187.28,280.82v23.52h-35.43v-11.9c0-15.47-25.31-22.63-43.77-22.63c-37.8,0-67.57,27.08-67.57,71.16
				c0,41.38,30.36,74.71,68.76,74.71c39.9,0,64-27.98,64-27.98l20.56,27.98c0,0-30.68,36.32-85.15,36.32
				C44.07,452.01,0,403.48,0,340.98C0,279.94,45.84,233.5,107.17,233.5C134.28,233.5,187.28,244.81,187.28,280.82z"/>
		</g>
		<g id="XMLID_13327_">
		</g>
	</g>
	<g id="XMLID_135_">
		<g id="XMLID_12429_">
			<rect x="587.88" y="546.95" class="st3" width="189.42" height="19.39"/>
			<rect x="391.98" y="546.95" class="st4" width="189.42" height="19.39"/>
			<rect x="196.1" y="546.95" class="st0" width="189.4" height="19.39"/>
			<rect x="0.2" y="546.95" class="st1" width="189.42" height="19.39"/>
		</g>
		<g id="XMLID_13310_">
		</g>
	</g>
	<g id="XMLID_28_">
		<path id="XMLID_134_" class="st4" d="M840.62,107.23c0.61,0,0.1-1.62,0.1-1.92C839.81,105.92,840.72,107.64,840.62,107.23"/>
		<polygon id="XMLID_133_" class="st4" points="832.73,122.1 832.62,121.4 832.22,123.52 		"/>
		<path id="XMLID_132_" class="st4" d="M824.82,127.26c3.14,1.11,2.24-2.22,4.56-2.53l0.71,0.3l-0.91-2.12
			C827.47,124.43,826.55,126.86,824.82,127.26"/>
		<path id="XMLID_131_" class="st4" d="M825.34,141.23c0.3-1.02,1.82,0-1.12-1.02v0.31L825.34,141.23z"/>
		<path id="XMLID_130_" class="st4" d="M829.9,142.95h-2.03c-0.1,0.71,1.32,1.52,0.5,1.62C830.4,144.97,830.3,144.26,829.9,142.95"
			/>
		<path id="XMLID_129_" class="st4" d="M832.22,141.84h-0.91C831.31,142.14,831.51,142.34,832.22,141.84"/>
		<path id="XMLID_128_" class="st4" d="M829.28,141.84h2.03c0-0.41,0.41-1.21-0.91-0.1C831.01,141.13,830.3,141.63,829.28,141.84"/>
		<path id="XMLID_127_" class="st4" d="M828.67,141.02c-0.5-1.01-1.2-1.82,0.71-1.82C826.66,138.09,825.64,139.71,828.67,141.02"/>
		<path id="XMLID_126_" class="st4" d="M827.87,132.42c-0.21,0.3,0-6.18,0.71-3.34l-0.3-1l-0.8,0.51l-0.31,0.09
			c0.31,7.59,0.2,2.23,0.31,3.95L827.87,132.42z"/>
		<path id="XMLID_125_" class="st4" d="M838.19,139.91v-2.42l-1.22,0.4C837.38,138.49,838.29,139,838.19,139.91"/>
		<path id="XMLID_124_" class="st4" d="M838.29,137.49c0.51-0.21,1.02-0.41,1.02-0.71C839.1,136.47,838.19,136.78,838.29,137.49"/>
		<path id="XMLID_123_" class="st4" d="M833.84,139.2l-3.34,0.71c1.31-0.1,2.63-0.1,3.74-0.61L833.84,139.2z"/>
		<polygon id="XMLID_122_" class="st4" points="838.19,140.02 837.48,141.23 838.6,139.3 		"/>
		<path id="XMLID_121_" class="st4" d="M839.1,138.6c0.61-0.71-0.91,1.01-0.2,0.2c-0.82,1.02-2.84,2.54-1.52,1.22
			C836.66,140.72,837.78,140.11,839.1,138.6"/>
		<path id="XMLID_120_" class="st4" d="M838.29,139.2l-1.11,0.81L838.29,139.2z"/>
		<polygon id="XMLID_119_" class="st4" points="839.5,137.28 838.9,138.79 839.61,137.28 		"/>
		<polygon id="XMLID_118_" class="st4" points="839.61,137.18 839.61,137.28 839.71,137.38 		"/>
		<path id="XMLID_117_" class="st4" d="M839.5,137.18v0.11V137.18z"/>
		<path id="XMLID_116_" class="st4" d="M836.97,134.35c1.02-0.71,2.63-1.32,1.62-3.04C837.89,132.33,838.39,133.34,836.97,134.35"/>
		<polygon id="XMLID_115_" class="st4" points="840.12,135.26 839.91,134.65 839.5,136.17 		"/>
		<polygon id="XMLID_114_" class="st4" points="840.51,134.85 840.12,135.26 840.22,135.46 		"/>
		<path id="XMLID_113_" class="st4" d="M839.5,138.2c0.62-0.41,0.62-0.41,0.82-0.41l0.19-0.61
			C840.22,137.49,839.5,138.2,839.5,138.2"/>
		<path id="XMLID_112_" class="st4" d="M840.82,136.17l-0.2,0.3L840.82,136.17z"/>
		<path id="XMLID_111_" class="st4" d="M840.82,139.3l0.2-0.1L840.82,139.3z"/>
		<path id="XMLID_110_" class="st4" d="M840.72,136.88c0.2-0.31-0.1-0.11-0.4,0.2l0.19,0.1L840.72,136.88z"/>
		<path id="XMLID_109_" class="st4" d="M839.1,138.69l0.71-0.4C839.41,138.6,838.7,138.9,839.1,138.69"/>
		<path id="XMLID_108_" class="st4" d="M840.42,136.78l0.09-0.2L840.42,136.78z"/>
		<path id="XMLID_107_" class="st4" d="M840.42,136.78c-0.3,0.61-0.51,0.81-0.11,0.3c-0.2,0.2-0.1,0,0.31-0.61L840.42,136.78z"/>
		<path id="XMLID_106_" class="st4" d="M851.55,138.69c-1.63,0-3.14-0.71-1.82-2.01c-1.22-0.71-5.97,1.52-8.7,2.53
			c0.7-0.1,1.31-0.3,2.32,0.1c0.82-0.31,1.63-1.92,3.04-1.61c1.02,0.9-0.31,1-1,1.51c1.82-0.71,3.03,1.01,5.86,0.71l-1.22-1.11
			C850.44,138.69,851.24,139.1,851.55,138.69"/>
		<path id="XMLID_105_" class="st4" d="M841.13,138.2l-0.21-0.11c-0.2,0.31-0.81,0.7-1.92,1.32l1.82-0.1l0.1-1.11H841.13z"/>
		<path id="XMLID_104_" class="st4" d="M840.72,137.79c1.42-0.91,2.53-0.81,3.85-1.82c-0.52-0.51-1.53,0.3-2.34,0.51
			c0.92,0.3-0.9,0.41-1.4,1.22l-0.51,0.1l-0.51,0.5l0.09-0.1l0.21-0.1L840.72,137.79l-0.6,0.3l-0.21,0.1c0.41,0.1,0.81-0.5,1.02-0.1
			C841.23,137.69,841.13,137.89,840.72,137.79"/>
		<path id="XMLID_103_" class="st4" d="M840.62,128.18v0.41V128.18z"/>
		<path id="XMLID_102_" class="st4" d="M841.13,129.39c-0.1,0.19-0.3,0.8-0.81,0.5c-0.3-0.61,0.19-0.82,0.31-1.31
			c-0.41,0.29-1.31,0.81-0.61,1.92l0.2-0.2c0.81,0.81,0.51,3.03,0.41,3.24L841.13,129.39z"/>
		<path id="XMLID_101_" class="st4" d="M842.85,133.54l1.01,0.3l0.72-1.63l-0.61,0.71C843.86,132.12,843.25,133.13,842.85,133.54"/>
		<polygon id="XMLID_100_" class="st4" points="840.01,139.61 838.29,139.91 840.72,139.71 		"/>
		<polygon id="XMLID_99_" class="st4" points="840.42,140.42 838.9,140.52 839.91,140.72 		"/>
		<path id="XMLID_98_" class="st4" d="M880.3,104.03l0.31-0.51L880.3,104.03z"/>
		<path id="XMLID_97_" class="st4" d="M877.26,104.52v0.71V104.52z"/>
		<path id="XMLID_96_" class="st4" d="M857.41,141.43c-0.61,1.42-1.82,3.54-0.61,2.33l1.21-1.22
			C857.52,142.34,857.41,141.84,857.41,141.43"/>
		<polygon id="XMLID_95_" class="st4" points="869.67,131.44 869.27,131.75 870.99,131.75 		"/>
		<path id="XMLID_94_" class="st4" d="M862.89,132.86l0.71-1.21L862.89,132.86z"/>
		<path id="XMLID_93_" class="st4" d="M859.24,164.1c0.91-0.31,1.52-0.81,1.82-1.22C859.74,163.28,858.12,163.08,859.24,164.1"/>
		<path id="XMLID_92_" class="st4" d="M882.32,121.83l0.2-1.12L882.32,121.83z"/>
		<path id="XMLID_91_" class="st4" d="M857.73,151.88l-0.49,0.2l-0.61,1.92C857.63,153.7,858.43,153.09,857.73,151.88"/>
		<path id="XMLID_90_" class="st4" d="M851.74,93.27l0.2-0.11L851.74,93.27z"/>
		<path id="XMLID_89_" class="st4" d="M848.42,106.02l0.09-0.81L848.42,106.02z"/>
		<path id="XMLID_88_" class="st4" d="M846.48,145.88l0.82,0.2L846.48,145.88z"/>
		<path id="XMLID_87_" class="st4" d="M854.78,151.85L854.78,151.85C854.38,151.85,854.48,151.85,854.78,151.85"/>
		<path id="XMLID_86_" class="st4" d="M840.51,147.2l-0.5,0.61L840.51,147.2z"/>
		<path id="XMLID_85_" class="st4" d="M839.71,147.3l0.2-0.41C839.61,146.8,839.5,146.89,839.71,147.3"/>
		<polygon id="XMLID_84_" class="st4" points="839.81,148.62 840.01,147.81 839.81,147.9 		"/>
		<path id="XMLID_83_" class="st4" d="M876.46,111.1V111C875.85,111.61,876.05,111.51,876.46,111.1"/>
		<polygon id="XMLID_82_" class="st4" points="873.52,130.43 873.42,130.43 873.42,130.53 		"/>
		<path id="XMLID_81_" class="st4" d="M875.44,130.94c-2.03,0.81-2.03,0.3-2.03-0.4l-3.33,3.64L875.44,130.94z"/>
		<path id="XMLID_50_" class="st4" d="M841.13,161.97L841.13,161.97C840.62,161.87,840.72,161.97,841.13,161.97 M841.13,151.34v2.03
			c-0.3,0.41-0.41,0.51,0,0.1v4.55l-0.81-1.62c1.42,0.71-1.01-0.4-0.71-1.32c-0.91-1.11-0.4-2.12,0.51-2.93l0.1-1.42
			C840.51,151.14,840.82,151.34,841.13,151.34 M841.13,144.57v2.43l-0.41,0.2h-0.1h-0.11h0.11l-0.71-0.3
			c0.41-1.01-0.3-0.61-1.12-0.61C840.72,145.58,840.42,145.07,841.13,144.57 M841.13,141.33v2.33c-0.21-0.71,0.4-1.93-1.71-1.42
			C841.73,141.43,840.22,141.63,841.13,141.33 M841.73,162.17L841.73,162.17l-0.61-0.21L841.73,162.17z M841.73,151.24v0.31h-0.41
			c0.41,0.1,0.51,0.4,0.3,0.81h0.11v8.79l-0.5-1.92l0.39-0.09l-0.5-1.11v-4.55l0.2-0.2l-0.09-0.09c0,0.09-0.1,0.19-0.1,0.19v-2.03
			C841.33,151.44,841.53,151.34,841.73,151.24 M841.73,144.16v2.53l-0.61,0.3v-2.43C841.23,144.47,841.43,144.36,841.73,144.16
			 M841.73,141.12v0.21v0.3v2.43c-0.41,0-0.61-0.11-0.61-0.4v-2.33C841.23,141.23,841.43,141.12,841.73,141.12 M841.73,141.33
			c0.1-0.11,0.1-0.21,0.1-0.3l-0.1,0.1V141.33z M871.39,143.86c-0.92,0.91-1.83,1.72-2.54,2.13l2.54-1.01V143.86z M871.39,142.74
			c-0.41,0.51-0.51,0.81,0,0.92V142.74z M871.39,138.49c-0.11,0.11-0.21,0.2-0.31,0.2c0,0.11,0.1,0.21,0.31,0.11V138.49z
			 M871.39,136.47c-0.41,0.3-0.72,0.5-1.02,0.61l1.02-0.3V136.47z M871.39,116.24c-0.92,0.2-1.93,0.91-1.83,1.82
			c-0.81,0.4,1.22,0.4,1.83,1.42V116.24z M871.39,112.39C869.76,114.01,870.57,113.3,871.39,112.39 M871.39,102.58v0.2
			c-2.23,1.61,0.3,2.93-4.36,4.05c0.2,1.01,2.43-0.21,2.73-0.51c0.1,0.8,0.81,1.11,1.52,1.11c-0.3-0.1-0.2-0.21,0.11-0.31v3.85
			c-25,24.99-6.89,6.88-12.55,12.55h0.09v0.09l0.3,0.2l0.51-0.1l0.3-0.11l0.21-0.09h0.1l11.03-11.13v1.92l-9.22,9.21l0.11,0.09
			l0.1,0.11l0.2,0.4c-0.71,1.62,0.51,2.84,2.22,4.55c-0.72,1.22-1.51,0-2.12,0.4l2.12,0.82c0,0.3-0.72,0.3-1.01,0.2
			c0.92,0.81,2.53-0.1,3.43,1.01c2.74-0.1-3.54,3.34-0.2,4.35c-0.6,0.61-1.51,0.1-2.43,0.5c2.32,1.82,1.72,1.62,4.76,2.63
			l-1.32,1.93c0.92-0.81,2.13-1.02,3.35-0.81v1.01c-0.82,0-1.63,0.2-2.33,0.4l0.8,0.41l-1.01,0.2c-0.2,0.1,0.31,0.1,1.01,0.2
			l-2.53,1.22l1.11-0.21l-0.91,2.73c1.11,0.31,2.53,0.61,3.85,0.81v2.42c-0.72-0.4-1.52-0.9-1.52-1.61c0,0.8-1.21,1.01-1.62,0.91
			l2.94,1.72c-1.82,0.51-1.22,0.91-1.82,1.83c0.9-0.41,1.51-0.51,2.02-0.51v1.42h-0.11c0,0.3,0,0.41,0.11,0.61v0.51
			c-0.41-0.91-0.61-1.72-0.21-2.63c0.71-1.12-1.42-0.51-1.82-1.01l1.21-0.91c-3.14,0.5-1.61-0.41-4.95-0.11
			c1.92-0.51,2.32-1.42,2.93-2.93l-3.34,0.91l1.71-1.72c-1.11,0.2-1.21-0.61-1.31-1.31c0.2,0.2,0.3-0.11,0.61-0.3
			c-2.74,1.82-3.95-0.3-5.37,0.4c2.13-2.63-1.62-0.81,0.41-3.13l-1.32,0.2c-0.92,1.11-2.03,2.23-1.82,1.31h-0.1l1.21-1.42
			l-1.41-0.81l-0.41,1.11l0.3-1.22l-0.1-0.1h0.21c0.09-0.61,0-1.01-0.81-1.01l0.1-0.3v-0.11c25,0.11,6.97,0,12.54,0.11h-0.1h-0.3
			l-0.2,0.51l0.3,1.62c0.29,1.11,0.6,1.93-1.51,1.62c0.39,0,0.8-0.2,0.19-0.61c-0.51,0.91-3.54,1.62-2.53,3.13l1.62,0.61
			c0.3,1.42,0.51,2.42,0.1,3.23l1.83,0.71c-1.12,0.71,0.5,5.77-3.64,5.16c1.3,1.02-1.22,2.02-1.02,3.14l-1.61-0.31
			c-1.11,1.21-1.11,2.23-1.11,3.34c-2.13,0.61-2.83,1.82-3.24,3.35l-0.3,1.1l-16.39-3.23c1.42,0.2,3.34,0.61,0.5,0.1v-0.1
			l-0.09-0.21l-0.1-0.2l-0.2-0.51l-0.1-0.11v-8.79c0.41-0.1,0.72-0.31,0.3-0.81h-0.3v-0.31c0.72-0.2,1.52-0.71,2.43-0.71l-1.42-0.91
			c0.91-0.3,1.42,0.61,1.83-0.1c-1.02-0.62-0.92-2.33-2.73-2.93l-0.1,0.1v-2.53c0.3-0.1,0.72-0.21,1.11-0.3
			c-0.51,0.1-0.81,0.21-1.11,0.21v-2.43c0.3,0.91,2.12,1.72,3.14,2.53l1.61-1.01c3.14,0.61-1.1,2.12-0.1,2.73
			c-0.71-0.41,0-1.21,0.71-1.32l-2.33,0.3c-1.02,1.21,0.91,2.43,2.03,3.54c0.81-1.02,1.41,1.11,3.13,0.4l-0.3-0.72
			c0.91-0.3,1.62,0.41,2.32,0.81c-1.92,2.43-0.29,6.68-1.92,7.69c0.51-0.6-0.1-1.42-0.81-1.82l-0.9,1.22
			c-0.1-1.02,1.82-1.82,1.11-3.14c-1.52,0.31-3.54-0.71-5.67,0.4c-2.32,3.04,4.04,2.33,3.85,5.67c0.5,0.2-2.54-0.31-1.52,1.42
			c16.6,3.64,2.43-4.35,3.34-4.55c2.73,1.52-3.84,2.83,4.25,3.54c-10.52-3.23-3.04-3.23-6.68-4.55c2.73,0.81,0.1,1.62,2.53,2.02
			c0.21-0.49-0.51-1.21-0.81-1.62c0.81,0.82,1.93,0.51,2.53,0.61c0.91-1.52,2.64-2.02,3.54-3.95l1.82,0.41
			c-0.3-1.32-3.64-4.05-5.36-4.25c0.2-1.21,1.52-0.81,1.11-2.03c-2.83,0.71,0.51-0.1-1.92-1.11c0-1.11,1.31,0,2.02-0.3
			c-0.2-0.21-0.8-0.91-1.52-1.21c2.13,0.11,4.56,3.04,6.99,3.04c1.62,0,4.87-1.11,5.07-1.21c-1.93-1.22-10.53-4.55-13.56-4.86
			c-1.41-0.61,1.92-0.4,2.23-0.81c2.82-0.4-1.02-2.83,0.4-3.64l0.91,1.42c0.5,0.1,0.81-2.03,0.2-2.73c0.81,0.4,3.55,2.93,4.75,2.93
			c1.42-1.63-1.31-6.18-3.44-7.7l0.1,4.96c-2.03-0.91-0.41-3.54-2.63-4.85l2.83-3.04c-0.2,0.51-0.61,2.22,0.71,2.43
			c0.81-1.51,0.81-0.5,2.13-0.7c0.91,3.44,5.47,9.7,8.09,11.83l-0.61-1.73l1.22,0.41c-0.31-1.12-2.03-3.24-3.64-5.56l-1.21-1.82
			c8.09-0.61,3.24-0.61,5.45-1.01l2.34-1.22c0.3,1.22-3.44,3.95-4.36,4.36c1.02,1.51,4.75-1.42,6.48-1.02v-12.03
			c-0.11,0.2-0.31,0.61-0.61,0.91c-0.11-4.86-4.35,0.4-6.48-3.85c2.32-0.8,0.61-2.43,2.43-3.04l-3.84,0.2l0.71-1.42
			c-3.74-0.21-2.53,1.42-6.07-1.72c1.61,0.8,1.11-2.33,2.52-1.72c-0.4-1.12-0.81-1.52-1.82-1.83h0.2c-1.41-2.62,1.22-2.73-1.01-4.85
			l-0.81,0.4c-3.04-2.53-2.13-7.39-3.84-9.31l-0.5,1.01c0.4-0.31-1.62-1.22-0.51-2.33l0.51,0.51c0.91-0.31,2.22-1.01,2.32-1.72
			l-1.52,0.2l0.61-0.3c-2.52,0.3,17.1-1.92,17.71-1.92l-3.24,0.3h-0.1l-0.1,0.1h-0.3c-0.3,1.32,2.22-0.1,1.82,1.22
			c-4.36,0.2-1.92,5.56-5.87,5.86c2.73,1.53,1.01-2.32,3.54-0.8c-0.61,0.3-1.21,0.4-1.62,1.21l1.82,0.1
			c-2.03,3.54-3.95,5.06-4.46,7.79l-0.3-0.2c-1.01,0.71-0.91,1.42,0.4,2.33c-0.82-0.1-1.01-0.91-1.93-0.81
			c3.95,3.13-4.45,2.63-1.62,4.56c-3.54-1.11-7.89,0.5-10.32-1.21l0.2,0.92c-2.32-0.81,0.71-2.54-1.61-3.64l3.34-1.93
			c-0.91-0.2-2.02-1.01-2.53-0.61c0.2-0.71,0.31-1.31-1.31-0.81c13.25-5.36-7.49-10.12,18.81-16.29c0.31,0.41,1.12-0.1,1.63-0.51
			c-2.02,2.03,1.42,0.8,1.92,1.52l-2.84,2.63c1.13,0.5,2.03-0.3,2.74-0.41c1.52,3.54-1.42,6.58,1.01,8.7
			c-1.01,0.91-2.73,0.4-2.83,1.42C870.37,99.75,870.06,102.78,871.39,102.58 M871.39,102.78v-0.2c0.19,0,0.4-0.1,0.7-0.31
			C871.79,102.48,871.58,102.58,871.39,102.78 M871.39,114.31l0.09-0.1l0.2-0.5l-0.2-1.32h-0.09V114.31z M871.39,143.66v-0.92
			c0-0.09,0.09-0.09,0.09-0.2c0.31,0.31,0.31,0.61,0,1.12H871.39z M871.39,148.91v-2.42c2.22,0.51,4.45,1.12,5.66,2.54
			c-2.23,0-3.24,0.81-5.57,1.51C872.6,149.73,872.09,149.33,871.39,148.91 M877.35,152.26v2.83l-5.96,3.34l2.22-1.21v-0.11l-0.1-0.1
			l-0.1-0.1l-0.8-1.21c-0.51-0.71-0.91-1.32-1.21-1.92v-0.51c0.4,0.71,1.51,0.51,2.53,0.1c-1.12-0.41-1.12-2.03-2.53-2.13v1.42
			C871.79,152.96,870.06,157.01,877.35,152.26 M877.35,143.16v0.61c-0.51,0-1.01,0.19-1.62,0.6
			C875.93,144.16,876.64,143.66,877.35,143.16 M877.35,139.3c-1.51,0.3-3.95,2.63-5.96,4.55v1.12l5.96-2.43v-2.12
			c-0.4,0.2-1.11,0.2-1.92,0.2l0.7,0.1c-0.7,0.91-2.22,1.01-3.64,0.91l1.22-1.01c-0.71,0-1.51,0-2.32,0.1v-1.01
			c0.9,0.1,1.92,0.31,2.72,0.61l1.73-1.41l1.51,1.12V139.3z M877.35,126.15c-1.92,2.43,1.01,0.81-0.71,3.43h-0.4
			c0.61,0.91-1.51,1.82,1.11,1.93V126.15z M877.35,122.21v3.95l-1.72,0.2c-5.67,2.12,5.57-7.19-3.43,1.51l-0.62-1.01
			c0.81-1.41,2.53,5.36,3.45,5.76c0.19,0.31-0.3,0.61-0.5,0.81c2.43,2.23,0.21-2.43,1.92-3.14c0.41,1.32-0.31,3.44,0.91,3.54v4.25
			c-0.2-0.2-0.4-0.31-0.81-0.31c-0.11,0.5-2.63,3.34-3.14,3.14c1.62-3.03,0.81-1.82,1.92-4.75c-0.2,0.71-2.94,2.63-3.94,2.63v-0.31
			c0.9-0.7,3.03-2.72,3.54-2.72l-3.54,1.01v-0.3c0.9-0.7,2.01-2.12,2.53-2.93c-0.51,0.7-0.92-1.33-1.62-1.52l-0.2,1.31
			c-0.2-0.31-0.4-0.51-0.7-0.51v-12.03c0.19-0.61,0.19-1.02,0-1.32v-3.24c0.5-0.11,0.9-0.11,1.11,0.1c0.71,0.3,0.91,5.87,3.35,5.87
			l-0.62,0.2C875.84,123.22,876.64,122.01,877.35,122.21 M877.35,114.31c0,0.1-0.1,0.21-0.1,0.3c0,0.1,0.1,0.1,0.1,0.2V114.31z
			 M877.35,107.23c-0.2,0.41-0.3,0.81,0,0.61v2.33c-0.51-0.41-1.01-0.5-1.72-1.52c0.21,0.71,1.42,2.74,1.72,4.35v1.21
			c0,0.1-0.1,0.31-0.2,0.41c-0.31-0.41-0.81-0.61-1.31,0.51c-0.21-1.82-0.71-1.32-1.52-1.21l-0.1-2.43
			c-0.71,0.7-0.61,2.02-1.11,3.13c-0.9-0.2-1.12-2.12-1.42-3.75h-0.2l-0.09,0.1v-3.85c0.9-0.09,3.74,0.41,3.54,3.34
			c-0.11-2.73,0.29-1.31,1.01-2.13v-2.42l1.32,0.5h0.1V107.23z M877.35,114.21c0.1-0.4,0.1-0.81,0-1.21V114.21z M877.35,114.82
			c0.51,0.61,0.81,1.11,0.92-0.81c-0.21-0.81-0.61-0.2-0.92,0.31V114.82z M877.66,107.74l-0.2-0.51h-0.1v-0.8l0.31,0.1
			c0.3,0.1-0.2,1.31,0.4,1.92c1.21,0.21,1.42-1.01,2.12-2.22l-0.1-0.3l0.81-0.21c0.6,0.1-2.34,2.12-0.51,3.44
			c0.11-0.61,1.52-3.54,1.82-1.92c-0.9-0.2-0.9,1.42-0.61,2.13l1.42,0.2l-0.31-2.84c3.75,0.51,8.3,2.33,12.75,2.02
			c0,2.43,3.25,0,2.93,3.64l-0.2-0.3c-1.11,0.4,0.52,2.82,1.42,2.43c-1.11-1.12,1.52-3.75-0.81-4.15l1.72-1.82
			c0.81-7.07,5.06,0.41,7.79-1.92l-0.21,0.81l0.41-0.31l0.31-0.09v-0.1h0.09l3.44,17.81l-0.6-3.04l-0.11,0.1l-0.9,0.4l-1.93,0.1
			c-1.31-0.1-2.43-0.5-2.53,0.1l-0.92-1.72c-0.9,3.54-1.01,3.84-3.84,3.64c-0.11-0.31,0-0.92-0.51-1.12
			c-0.1,1.52-0.3,3.03-2.12,3.23l-0.11-0.6l-2.64,1.21c-1.62-5.77-3.73,4.96-6.27-1.21c-0.1,1.82-2.12,2.74-2.93,3.74l-0.3-0.71
			c-0.61,3.34-3.44-0.29-4.55,0.2c-0.72,0.71-0.21,1.72,0.29,2.74c-1.92-2.43-4.24,3.14-4.95,2.03h-0.1v4.25
			c0.51,0.31,0.51,0.81,0.51,1.21h-0.51v0.71l0.41,0.19c-0.11,0.1-0.21,0.1-0.41,0.2v2.12l2.22-0.91c-0.41,0.2-1.31,0.81-2.22,1.52
			v0.61c2.13-0.21,4.14,2.02,4.86,3.54l-0.2-0.2c-1.11,0.41-0.81,2.32,0.51,2.13c-0.51,0.4-0.51,0.1-0.71-0.11
			c-1.72,1.32-3.24,2.32-4.45,3.14v2.83c4.14-2.22,8.6-4.65,7.49-4.05v-0.09l-0.1-0.3l-0.1-0.81l0.31-3.03
			c-4.14,1.92,1.42-2.13-1.92-1.32c0.9-0.5,1.31-1.12,2.43-0.81c-1.52-1.41,0.82-3.04-2.43-3.34c1.02-0.51,1.61-0.11,2.23-0.51
			c-0.31,0-1.12-0.2-0.52-0.61c0.52-0.3,0.92,0,1.42,0.1c-0.71-1.63-3.95-0.91-6.88-0.1c1.11-1.31,0.71-1.72-1.42-1.81
			c0.91-0.51,1.72-1.32,2.43-0.41c-0.2-0.7,0.71-3.84-1.73-3.34c0.61-0.29,0.11-0.8-0.29-0.9c0-1.32,0.19-1.42-0.31-2.63l-0.3,0.41
			h-0.31v-5.36h0.1h-0.1v-3.95c0.31,0.1,0.51,0.2,0.71,0.61c0.81-2.33,1.42,0.3,1.82-2.84l-2.12,0.61c1.31-0.71,2.62-4.25,4.44-2.42
			l-1.31,1.82c0.6,1.02,1.22-0.5,1.72,0.5c-0.31,3.04-2.63,0.51-4.15,2.74c0.61,1.31,2.73-2.02,1.83,1.21
			c1.21-4.15,2.33,0.71,4.04-2.42l-0.1,1.82c0.2-0.3,0.81-1.11,1.21-1.11l-0.91,2.42c1.41-2.02,2.63,1.92,3.74,0.71
			c-2.43,0.1-0.5-2.12-1.61-3.54c3.03-2.53,1.83,4.75,5.26,3.85c-0.5,0.3-1.82-1.12-1.12-1.93c0.71,0.3,1.52,1.01,1.93,2.02
			c2.33-0.51-0.3-1.91,0.61-3.14c0.81,2.23,1.11-0.91,2.02-1.62l0.09,1.82c2.53,1.11,0.51-3.84,2.83-2.52l-0.8,2.63l1.11-0.7
			l-0.1,2.12c1.21-1.62,1.61-1.22,2.84-0.61c-0.31-1.31,0-3.43,1.12-3.54c0.7,1.11-0.41,1.82,1.1,1.51
			c-0.3,1.11-0.61,2.63-1.31,0.91l-0.4,1.83c0.92,1.21,2.02,0.2,2.53,0.2l-0.61-0.4l2.13-2.73c0.41,0.71,0.1,1.31-0.11,1.82
			l1.32-1.21c-0.1,1.52-0.1,3.04-1.01,3.84l2.02-1.82l0.62,1.22l0.09,0.4l0.09,0.11c0.92,4.96-8.29-43.11-4.35-22.76h-0.09v-0.1
			l-0.21-0.5c-1.42-0.4-1.63,3.85-3.44,3.24l-0.2,1.01c-1.52,0.21-3.34-1.11-4.24,1.52l-1.83-2.32c-0.9,1.01,2.33,2.93,0.71,4.44
			c-1.11,1.31-1.32-2.03-2.01-2.53c-0.21,1.52-0.62,4.56-2.54,2.83c0.21-0.6,0.72-0.3,1.01-0.6l-1.42-1.11
			c0.51-2.83,1.52-2.23,0-3.95c1.42,4.96-3.54,1.72-2.21,6.78l-0.92-1.01l0.31-0.31c-1.81-2.13,0,3.94-1.81,3.55
			c-0.71-0.31-1.22-1.02-0.92-1.62l-1.01,1.52c-0.4,0-0.5-1.02-0.1-0.92l-1.93,0.81v-0.2c-0.1,0.91-0.6,2.33-0.8,2.84
			c-0.61-0.71,0.2-0.51,0-1.22l-1.02,1.42c-0.61-1.42,0.2-2.73,0.91-2.63c-1.63-5.16-0.71,1.41-3.24-1.52l0.91-0.71
			c-0.4-1.21-0.7-1.72-1.11-2.13v-2.33C877.45,107.84,877.56,107.74,877.66,107.74"/>
		<path id="XMLID_49_" class="st4" d="M863.7,132.66l0.91-0.41L863.7,132.66z"/>
		<path id="XMLID_48_" class="st4" d="M849.82,143.66l1.11-0.31C850.54,143.15,850.13,143.26,849.82,143.66"/>
		<path id="XMLID_47_" class="st4" d="M838.9,143.66l0.51,0.81c-0.11-0.41,0.29-0.51,0.6-0.7C839.61,143.76,839,143.96,838.9,143.66
			"/>
		<path id="XMLID_46_" class="st4" d="M849.52,134.96l-0.4-0.31l-0.81,0.31C848.51,135.46,849.21,135.66,849.52,134.96"/>
		<path id="XMLID_45_" class="st4" d="M845.17,142.74c1.52-0.2,1.01-0.71,0.71-1.31v0.1C843.65,141.43,844.36,142.04,845.17,142.74"
			/>
		<path id="XMLID_44_" class="st4" d="M845.77,141.23v-0.6C844.87,140.62,845.58,140.92,845.77,141.23"/>
		<path id="XMLID_43_" class="st4" d="M841.03,149.52c0.41-0.3-2.02-0.2-1.31-0.4C837.69,148.71,842.04,151.44,841.03,149.52"/>
		<polygon id="XMLID_42_" class="st4" points="850.33,141.93 848.42,142.24 849.93,142.65 		"/>
		<path id="XMLID_41_" class="st4" d="M848.92,147.4l0.6-1.11l-0.7-0.3C848.82,146.59,848.42,147.4,848.92,147.4"/>
		<path id="XMLID_40_" class="st4" d="M848.82,145.99l-0.31-0.92L848.82,145.99z"/>
		<polygon id="XMLID_39_" class="st4" points="850.93,143.46 850.54,143.76 850.44,144.56 		"/>
		<path id="XMLID_38_" class="st4" d="M849.12,159.54c-2.12-0.31,3.54,2.03,3.03,1.01c0-0.61-1.72-0.1-1.72-0.7
			C850.03,159.64,849.73,159.23,849.12,159.54"/>
		<polygon id="XMLID_37_" class="st4" points="853.98,155.29 852.56,155.9 854.98,155.69 		"/>
		<path id="XMLID_36_" class="st4" d="M854.78,158.23c0.71,0,2.03,0.91,1.82-0.2C855.9,158.02,855.29,157.11,854.78,158.23"/>
		<polygon id="XMLID_35_" class="st4" points="856.71,144.06 856.71,144.36 860.35,145.68 		"/>
		<path id="XMLID_34_" class="st4" d="M868.96,120.21c-0.1-1.72-2.01,1.32-1.92-0.4c-0.91,0.3-0.09,1.42-0.91,1.72
			C867.45,121.53,867.24,122.23,868.96,120.21"/>
		<path id="XMLID_33_" class="st4" d="M866.13,121.53h-0.71H866.13z"/>
		<polygon id="XMLID_32_" class="st4" points="845.17,108.95 844.05,109.76 845.58,109.46 		"/>
		<path id="XMLID_31_" class="st4" d="M847.4,111.48l-2.53-0.31l2.12,1.01C846.89,111.99,846.8,111.48,847.4,111.48"/>
		<path id="XMLID_30_" class="st4" d="M870.29,100.79v0.6c0.09,0.71,0.3,0.71,0.7,0.81L870.29,100.79z"/>
		<polygon id="XMLID_29_" class="st4" points="880.7,101.39 880.5,101.39 881.31,103.52 		"/>
	</g>
</g>
</svg>
