<?xml version="1.0" encoding="utf-8"?>
<!-- Generator: Adobe Illustrator 27.9.0, SVG Export Plug-In . SVG Version: 6.00 Build 0)  -->
<svg version="1.1" id="Capa_1" xmlns="http://www.w3.org/2000/svg" xmlns:xlink="http://www.w3.org/1999/xlink" x="0px" y="0px"
	 viewBox="0 0 800 728" style="enable-background:new 0 0 800 728;" xml:space="preserve">
<style type="text/css">
	.st0{fill:#0F69B4;}
	.st1{fill:#EB3C46;}
	.st2{fill:none;stroke:#585756;stroke-width:0.0917;stroke-dasharray:1.3896,1.3896;}
	.st3{fill:#FFFFFF;}
	.st4{fill:none;}
</style>
<g>
	<rect class="st0" width="335.74" height="728"/>
	<rect x="327.56" class="st1" width="472.44" height="728"/>
	<line class="st2" x1="742.62" y1="393.47" x2="742.62" y2="397.5"/>
	<g>
		<path class="st3" d="M395.06,686.41c-4.36,1.96-7.71,2.87-11.69,2.87c-9.63,0-14.56-6.71-14.56-16.96
			c0-9.82,4.93-16.33,14.99-16.33c4.89,0,8.09,1.2,10.63,2.83l-2.63,4.79c-1.82-1.25-4.65-2.06-7.9-2.06
			c-5.84,0-8.48,4.26-8.48,10.68c0,7.62,2.83,11.69,8.38,11.69c2.06,0,3.93-0.29,5.46-1.01v-5.99h-4.41l-0.38-4.65h10.58V686.41z"/>
		<path class="st3" d="M421.26,677.02c0,8-4.02,12.26-11.02,12.26c-7.04,0-11.02-4.21-11.02-12.26c0-6.9,3.83-12.17,11.02-12.17
			C417.33,664.86,421.26,670.12,421.26,677.02z M414.84,677.02c0-5.65-1.68-7.62-4.6-7.62s-4.55,2.01-4.55,7.62
			c0,5.46,1.48,7.66,4.55,7.66S414.84,682.63,414.84,677.02z"/>
		<path class="st3" d="M431.75,667.73c1.05-1.44,3.59-2.87,6.23-2.87c5.51,0,9.48,3.93,9.48,12.17c0,8.09-4.79,12.26-10.25,12.26
			c-3.35,0-5.32-1.29-6.8-3.3l-1.15,2.83h-3.35v-33.05h6.27v8.19L431.75,667.73z M432.18,682.29c0.96,1.29,2.59,2.39,4.26,2.39
			c2.73,0,4.74-2.01,4.74-7.66c0-5.6-1.77-7.57-4.65-7.57c-1.58,0-3.3,0.81-4.36,1.87V682.29z"/>
		<path class="st3" d="M454.12,688.8v-18.97l-2.73-0.57v-3.93h8.96v23.47H454.12z M453.93,655.76h6.32v5.7h-6.32V655.76z"/>
		<path class="st3" d="M471.41,678.75c0,3.74,2.11,5.8,6.04,5.8c2.39,0,4.84-0.91,6.9-1.96l1.2,4.41c-1.96,1.05-5.17,2.3-8.86,2.3
			c-7.23,0-11.54-4.5-11.54-12.26c0-7.23,3.5-12.17,11.02-12.17c7.09,0,9.87,5.27,9.87,11.16v2.73H471.41z M475.82,669.45
			c-3.11,0-4.41,2.83-4.41,5.6h8.57C479.99,672.04,479.08,669.45,475.82,669.45z"/>
		<path class="st3" d="M504.08,670.56c-0.77-0.24-1.87-0.38-2.92-0.38c-1.68,0-3.16,0.72-4.21,1.58v17.05h-6.23v-23.47h4.36
			l0.67,3.16h0.14c0.72-1.68,2.83-3.59,5.6-3.59c1.25,0,2.2,0.19,2.73,0.33L504.08,670.56z"/>
		<path class="st3" d="M522.43,688.8v-13.94c0-3.54-1.34-5.22-4.21-5.22c-1.63,0-3.02,0.72-4.12,1.44v17.72h-6.27v-23.47h4.31
			l0.96,2.68c1.34-1.58,3.93-3.16,7.42-3.16c5.94,0,8.29,3.5,8.29,9.44v14.51H522.43z"/>
		<path class="st3" d="M555,677.02c0,8-4.02,12.26-11.02,12.26c-7.04,0-11.02-4.21-11.02-12.26c0-6.9,3.83-12.17,11.02-12.17
			C551.07,664.86,555,670.12,555,677.02z M548.58,677.02c0-5.65-1.68-7.62-4.6-7.62c-2.92,0-4.55,2.01-4.55,7.62
			c0,5.46,1.49,7.66,4.55,7.66S548.58,682.63,548.58,677.02z"/>
		<path class="st3" d="M585.42,667.16c-0.38-1.34-0.58-2.54-0.58-4.31v-7.09h6.23v33.05h-5.08l-0.72-2.59
			c-0.96,1.44-3.21,3.07-6.23,3.07c-5.32,0-9.58-3.83-9.58-12.21c0-7.76,4.41-12.21,10.11-12.21
			C582.11,664.86,584.12,665.72,585.42,667.16z M584.84,670.7c-0.96-0.57-2.44-1.15-4.26-1.15c-2.97,0-4.84,2.01-4.84,7.47
			c0,5.6,1.77,7.71,4.74,7.71c1.58,0,3.16-0.77,4.36-2.01V670.7z"/>
		<path class="st3" d="M602.09,678.75c0,3.74,2.11,5.8,6.04,5.8c2.39,0,4.84-0.91,6.9-1.96l1.2,4.41c-1.96,1.05-5.17,2.3-8.86,2.3
			c-7.23,0-11.54-4.5-11.54-12.26c0-7.23,3.5-12.17,11.02-12.17c7.09,0,9.87,5.27,9.87,11.16v2.73H602.09z M606.5,669.45
			c-3.11,0-4.41,2.83-4.41,5.6h8.57C610.66,672.04,609.75,669.45,606.5,669.45z"/>
		<path class="st3" d="M645.25,689.28c-9.1,0-13.99-6.03-13.99-16.81c0-10.06,4.84-16.48,13.99-16.48c4.41,0,8.38,0.96,11.02,2.73
			l-2.4,5.08c-1.68-1.29-4.6-2.25-7.95-2.25c-5.36,0-8.05,3.78-8.05,10.87c0,7.47,2.68,11.3,7.95,11.3c3.16,0,6.32-1.34,8.53-2.97
			l2.01,5.08C653.15,688.04,649.51,689.28,645.25,689.28z"/>
		<path class="st3" d="M660.58,688.8v-33.05h6.27v8.67c0,1.63-0.33,2.92-0.62,3.64c1.29-1.63,3.45-3.21,6.75-3.21
			c6.71,0,8.57,3.5,8.57,9.44v14.51h-6.37v-13.99c0-3.35-1.34-5.17-4.17-5.17c-1.63,0-3.11,0.67-4.17,1.44v17.72H660.58z"/>
		<path class="st3" d="M688.55,688.8v-18.97l-2.73-0.57v-3.93h8.96v23.47H688.55z M688.36,655.76h6.32v5.7h-6.32V655.76z"/>
		<path class="st3" d="M700.53,682.58v-26.82h6.18v26.49c0,1.96,1.2,2.25,3.78,2.25v4.41c0,0-1.82,0.38-3.45,0.38
			C702.25,689.28,700.53,686.75,700.53,682.58z"/>
		<path class="st3" d="M719.93,678.75c0,3.74,2.11,5.8,6.04,5.8c2.39,0,4.84-0.91,6.9-1.96l1.2,4.41c-1.96,1.05-5.17,2.3-8.86,2.3
			c-7.23,0-11.54-4.5-11.54-12.26c0-7.23,3.5-12.17,11.02-12.17c7.09,0,9.87,5.27,9.87,11.16v2.73H719.93z M724.33,669.45
			c-3.11,0-4.41,2.83-4.41,5.6h8.57C728.5,672.04,727.59,669.45,724.33,669.45z"/>
	</g>
	<path class="st3" d="M197.02,153.98v11.23C199.04,160.43,198.12,156.47,197.02,153.98z"/>
	<path class="st3" d="M219.06,93.02c0.29-0.12-0.13-1.55,1.33-1.67c1.3-0.09,3.29,1.09,3.52,2.32c0.33,1.43-0.88,4.89,3.7,5.4
		c0,0-0.06,0.72-0.12,1.46l0,0c-0.08,0.81-0.31,1.68-0.67,2.39c0.28,0,0.55,0,0.81,0c6.14,0.3,9.56-0.18,11.32-2.01
		c0,0,1.08-1.12,1.57-2.21c1.55-3.19,1.83-6.05,0.95-8.38l0,0c-0.05-0.16-0.1-0.31-0.17-0.51c-0.11-0.23-0.22-0.52-0.37-0.79
		c-1.4-2.41-4.92-5.51-9.34-7c-0.29-0.03-0.59-0.1-0.9-0.1l-0.1-0.04c0,0,0.1-0.08,0.22-0.09l-0.06-0.02h0.06
		c0.09-0.01,0.93,0.04,0.93,0.04c3.3,0.4,8.84,3.65,9.95,6.94c1.05-0.62,2-2.5,2.15-4.09l0,0c0.12-0.29-0.1-2.27,0.75-4.04
		c0.23-0.55,0-1.15-0.46-1.38c-0.47-0.2-1.04,0-1.32,0.53c-0.83,1.66-2.73,0.75-1.92-0.95c0.26-0.56,0-1.14-0.42-1.38
		c-0.48-0.18-1.09-0.03-1.35,0.48c-0.78,1.68-2.65,0.75-1.91-0.89c0.27-0.53,0.03-1.11-0.39-1.37c-0.47-0.19-1.1-0.01-1.35,0.5
		c-0.75,1.71-2.73,0.76-1.89-0.92c0.22-0.53,0-1.12-0.45-1.38c-0.47-0.2-1.07-0.01-1.32,0.51c-0.62,1.27-1.09,1.98-1.63,2.56
		c3.65,0.75,7.51,2.72,9.96,5.28c0,0,1.03,1.13,1.12,1.36l0.03,0.03c0,0,0,0-0.03-0.03c0.12,0.18,0.13,0.35,0.13,0.35
		c-0.07,0.08-0.13,0.05-0.13,0.05c-0.38-0.51-0.76-0.89-1.16-1.18c-4.06-3.41-7.64-4.83-10.56-5.24c-1.98,0.24-1.44,2.44-1.21,3.88
		c-3.31-0.7-5.83,1.74-6.04,4.04c0,0.85,0.2,1.72,0.65,2.69c0,0,0.02,0.15-0.03,0.16c-0.13,0.06-0.62-0.3-0.9-1
		c-0.2-0.5-0.35-1.07-0.4-1.69c-2.69,0.18-5.18,1.56-4.96,4.08C216.71,91.15,218.43,92.96,219.06,93.02z M228.57,89.25
		c0.68-0.83,0.94,2.77,3.71,1.72C230.26,93.39,227.58,90.91,228.57,89.25z M228.36,87.47c1.05-0.66,2-2.79,3.67-1.75
		c0.74,0.41,1.52,1.21,2.39,1.82c0.85,0.62,1.79,1.15,2.19,1.94c0.5,0.98-0.82,3.32-2.3,1.22c-0.95-1.54-2.3-4.35-4.48-3.23
		c-1.78,0.89-2.97,2.17-3.4,0.97C226.28,87.81,227.63,87.83,228.36,87.47z M220.66,87.93c-0.46,1-1.94,1-2.14,2.3
		C217.32,89.12,219.6,86.64,220.66,87.93z"/>
	<path class="st3" d="M292.88,207.34c-1.89-2.25-6.83-1.14-6.83-1.14c2.67-7.92-4.68-10.03-4.68-10.03
		c-2.63-0.68-4.34-0.19-5.45,0.57c-0.05,0.03-0.05,0.04-0.05,0.04c-0.03,0.05-0.06,0.05-0.1,0.06c-0.18,0.15-0.37,0.28-0.5,0.45
		c-0.64,0.7-1.05,1.58-1.05,2.64c0,2.1,1.7,3.79,3.8,3.79c0.81,0,1.58-0.27,2.21-0.67c0.72-0.55,1.3-1.37,1.48-2.29
		c1.04,0.65,1.45,1.8,1.45,1.8c2.1,6.72-5.5,9.16-5.5,9.16c-16.74,5.03-27.01-3.62-27.01-3.62l2.93-1.58
		c0.98-0.44,1.91-0.59,2.65-0.59c-0.01,0.16-0.01,0.35-0.01,0.52c0,1.82,1.47,3.29,3.26,3.29c1.86,0,3.35-1.47,3.35-3.29
		c0-0.62-0.17-1.18-0.48-1.66l0.08-0.03c-0.17-0.22-0.26-0.34-0.26-0.34c-2-2.94-8.75-1.02-8.75-1.02c2.27-5.54,0.26-9.53,0.26-9.53
		c-1.23-2.06-1.03-2.83-1.03-2.83c0-1.99-0.48-2.15-0.48-2.15c-1-1.4-2.84-0.65-2.84-0.65c-2.72,0.6-3.33-0.52-3.33-0.52
		c-2.24-1.58-3.27-0.62-3.27-0.62c-0.93,0.65,0.39,2.35,0.39,2.35c-2.39,0-3.08,3.07-3.08,3.07c-1,5.08,3.22,5.51,3.22,5.51
		c3,0.16,3.05-2.29,3.05-2.29c0.41-2.36-2.98-2.49-2.98-2.49c0.59-1.39,1.58-1.36,1.58-1.36c3.51-0.88,5.1,3.07,5.1,3.07
		c2.83,4.46-0.79,8.63-0.79,8.63c-0.57,0.65-1.17,0.27-1.17,0.27c-1.92-0.82-4.79-2.95-4.79-2.95c-0.11-0.05-0.19-0.11-0.28-0.2
		h-1.19c-1.28,0-2.71,0.44-3.66,0.8c1.37,1.43,5.78,5.15,5.78,5.15c-3.32,2.59-5.22,0.79-5.22,0.79c-1.59-1.69-1.22-4.59-0.97-5.78
		c-0.13,0.07-0.28,0.13-0.38,0.15c-1.53,0.67-3.04,1.31-4.64,1.91c1.6,2.72,4.08,6.83,4.08,6.83c-3.84,1.43-4.68-3.72-4.82-6.53
		c-0.78,0.31-1.52,0.58-2.28,0.86c0.22,0.62,0.22,1.11,0.22,1.11c0.27,2.81,2.8,6.2,2.8,6.2c-2.7-0.56-4.41,1.21-4.41,1.21
		c-1.7,1.48-1.67,3.46-1.58,4.27c0.05,1.02,0.91,1.83,1.97,1.83c1.06,0,1.9-0.88,1.9-1.93c0-1.07-0.8-1.9-1.85-1.97
		c0.87-2.09,2.89-0.41,2.89-0.41c3.01,2.65-1.7,5.64-1.7,5.64c-3.27,2.21-6.46-1.99-6.46-1.99c3.52-6.21,4.17-10.53,4.02-13.2
		c-1.21,0.4-2.39,0.79-3.62,1.18c1.67,5.6-2.23,8.78-2.23,8.78c-1.13-0.76-1.24-3.75-1.24-3.75c-0.35-1.31-0.75-2.51-1.12-3.63
		c-1.05,0.26-2.11,0.53-3.21,0.83c1.22,3.48,1.71,8.61,1.71,8.61c-0.61,0.73-2.53,0.92-2.53,0.92c-2.72,0.26-1.26-1.3-1.26-1.3
		c1.34-1.14,1.03-1.97,1.03-1.97c-0.8-1.88-3.78-0.13-3.78-0.13c-3.98,2.21-2.78,4.54-2.78,4.54c0.48,1.43,4.51,2.86,4.51,2.86
		c-2.15,1.65-6.33,0.95-6.83,0.87c-0.13-1.17-0.96-2.11-2.04-2.4c-0.17-0.05-0.29-0.07-0.29-0.07c-1.42-0.16-2.2,0.47-2.6,1.03
		c-0.14,0.28-0.32,0.58-0.46,0.88l-2.45-0.53c-1.7-0.26-2.69-5.16-3.16-9.42c-0.7,0.07-1.42,0.17-2.08,0.23
		c0.65,4.55,1.49,8.62,1.49,8.62c-0.83,0-4.45-2.5-4.45-2.5c-4.49-2.74-7.6-1.87-7.68-1.81c-2.24,0.39-3.98,2.38-3.98,4.74
		c0,2.66,2.2,4.79,4.84,4.79c2.59,0,4.76-2.07,4.81-4.66c1.7,0.81,3.29,1.77,3.29,1.77c4.32,2.87,8.33,3.2,9.45,3.22
		c0.32,1.62,1.74,2.8,3.41,2.8c1.34,0,2.49-0.7,3.04-1.81c9.27-0.3,12.64-4.39,12.64-4.39c1-1.26,1.19-0.51,1.19-0.51
		c3.37,4.88,9.91,1.9,9.91,1.9c1.29-0.62,1.52,0.21,1.52,0.21c1.32,2.09,3.38,0.99,3.38,0.99c2.6-1.34,1.06-2.96,1.06-2.96
		c-0.85-0.91,0.21-0.88,0.21-0.88c3.08,0.45,3.69-1.32,3.69-1.32c0.62-1.39-1.55-2.6-1.55-2.6c-0.64-0.79,0.54-1.39,0.54-1.39
		c1.84-1.07,1.52-2.12,1.52-2.12c2.29,0.05,2.13-1,2.13-1c0.05-0.92-2.8-0.88-2.8-0.88c-2.29-0.25-1.81-1.39-1.81-1.39
		c3.34-0.14,8.45-1.64,8.45-1.64c7.41,6.08,18.42,7.51,18.42,7.51c0.25,1.1-0.13,2.65-0.18,2.82c-0.1-0.01-0.15-0.01-0.15-0.01
		c-1.04,0-1.84,0.78-1.84,1.74c0,0.95,0.8,1.75,1.77,1.75c0.17,0,0.49-0.08,0.49-0.08c3.55-0.94,3.84-6.14,3.84-6.14
		c10.07,0.98,16.91-6.62,16.91-6.62c1.01-0.84,1.49-0.6,1.68-0.31c0,0,0,0,0.05,0.01c0.54,0.66,1.32,1.05,2.22,1.05
		c1.02,0,1.84-0.47,2.37-1.22c0.34-0.6,0.5-1.14,0.51-1.63v-0.02v-0.05C293.49,208.06,292.88,207.34,292.88,207.34z"/>
	<path class="st3" d="M171.61,220.3c0.93-0.48,1.15-1.58,1.15-1.58c0.17-2.74-1.82-4.03-1.86-4.03c-1.2,0-2.39,0.05-3.6,0.06l0,0
		l0,0c-1.22-0.01-2.41-0.06-3.64-0.06c-0.03,0-2,1.28-1.85,4.03c0,0,0.19,1.09,1.17,1.58c0,0-2.56,1.06-2.58,2.85
		c0,0-0.3,1.31,1.94,3.11c0,0,1.66,1.84,2.13,3.21c0,0,0.14,1.96,2.84,1.96c2.66,0,2.83-1.96,2.83-1.96
		c0.48-1.37,2.09-3.21,2.09-3.21c2.25-1.8,1.98-3.11,1.98-3.11C174.14,221.36,171.61,220.3,171.61,220.3z"/>
	<polygon class="st3" points="190.42,209.11 191.75,208.96 190.92,207.45 	"/>
	<polygon class="st3" points="145.92,209.21 147.23,209.32 146.73,207.66 	"/>
	<path class="st3" d="M140.74,205.54c-0.07-0.04-0.12-0.04-0.2-0.05l-0.3,2.05c0.47,0.04,0.76,0.06,0.93,0.04
		c0.17-0.04,0.3-0.13,0.4-0.28c0.13-0.13,0.18-0.34,0.24-0.6c0.03-0.36,0-0.66-0.19-0.82C141.46,205.69,141.18,205.6,140.74,205.54z
		"/>
	<path class="st3" d="M159.89,207.12c-0.46-0.02-0.78,0.15-1.01,0.49c-0.27,0.36-0.41,0.9-0.43,1.67c0,0.87,0.05,1.48,0.24,1.84
		c0.24,0.38,0.59,0.59,1,0.59c0.47,0.01,0.83-0.13,1.05-0.46c0.28-0.34,0.4-0.93,0.43-1.78c0.04-0.76-0.05-1.34-0.25-1.73
		C160.71,207.33,160.35,207.13,159.89,207.12z"/>
	<path class="st3" d="M176.56,207.1c-0.46,0.02-0.8,0.2-0.98,0.58c-0.24,0.34-0.28,0.91-0.27,1.7c0.03,0.82,0.17,1.44,0.37,1.79
		c0.27,0.36,0.62,0.54,1.05,0.53c0.43-0.04,0.78-0.24,1.02-0.57c0.24-0.35,0.3-0.95,0.28-1.8c0-0.75-0.17-1.36-0.42-1.72
		C177.4,207.24,177.07,207.09,176.56,207.1z"/>
	<polygon class="st3" points="131.02,207.01 132.29,207.24 131.91,205.54 	"/>
	<path class="st3" d="M105.57,196.96l-0.74,1.98l0.28,0.09c0.38,0.16,0.69,0.16,0.89,0.02c0.2-0.13,0.33-0.32,0.42-0.63
		c0.09-0.23,0.13-0.47,0.09-0.65c-0.03-0.19-0.12-0.36-0.25-0.46C106.13,197.21,105.9,197.09,105.57,196.96z"/>
	<path class="st3" d="M111.97,199.14c-0.44-0.15-0.81-0.09-1.13,0.18c-0.35,0.3-0.6,0.79-0.83,1.54c-0.25,0.8-0.33,1.39-0.24,1.81
		c0.12,0.42,0.37,0.7,0.81,0.86c0.43,0.11,0.8,0.06,1.12-0.22c0.35-0.25,0.63-0.74,0.9-1.58c0.25-0.72,0.3-1.32,0.2-1.73
		C112.69,199.59,112.41,199.28,111.97,199.14z"/>
	<path class="st3" d="M118.14,201c-0.08-0.02-0.16-0.02-0.2-0.07l-0.57,1.98c0.45,0.14,0.77,0.18,0.92,0.16
		c0.17,0,0.33-0.08,0.44-0.21c0.14-0.15,0.25-0.31,0.3-0.59c0.1-0.37,0.1-0.63-0.05-0.79C118.87,201.27,118.54,201.12,118.14,201z"
		/>
	<path class="st3" d="M217.84,201.06c-0.17-0.07-0.49-0.05-0.93,0.07l-0.2,0.07l0.51,1.95c0.45-0.1,0.74-0.22,0.88-0.33
		c0.14-0.1,0.24-0.22,0.32-0.41c0.01-0.16,0-0.38-0.08-0.64C218.24,201.39,218.1,201.19,217.84,201.06z"/>
	<polygon class="st3" points="228.93,200.47 230.18,200 228.95,198.69 	"/>
	<path class="st3" d="M234.02,193.58c-0.55-0.38-1.15-0.55-1.87-0.55c-0.73,0-1.25,0.2-1.25,0.2c-2.46,0.68-25.5,10.81-63.6,10.82
		c-38.09-0.01-61.14-10.14-63.62-10.82c0,0-0.56-0.2-1.22-0.2c-0.71,0-1.37,0.18-1.88,0.55l-7.82,6.12h0.05
		c2.26,0,4.79,1.18,4.86,1.22c20.31,8.91,43.61,12.56,69.63,12.83c26.04-0.26,49.32-3.92,69.58-12.83c0.12-0.04,2.64-1.22,4.93-1.22
		l0,0L234.02,193.58z M159.8,204.98l1.62,0.07l-1.89,1.23h-0.38L159.8,204.98z M107.88,198.92c-0.13,0.36-0.32,0.62-0.59,0.77
		c-0.33,0.14-0.62,0.19-0.95,0.18c-0.33-0.04-0.77-0.17-1.29-0.33l-0.37-0.11l-0.42,1.19c-0.09,0.25-0.09,0.41-0.08,0.54
		c0.08,0.11,0.22,0.2,0.47,0.32l0.09,0.03l-0.12,0.39l-2.8-0.99l0.16-0.42l0.06,0.03c0.28,0.1,0.48,0.13,0.6,0.05
		c0.08-0.08,0.2-0.2,0.28-0.43l1.1-3.05c0.1-0.2,0.1-0.38,0.07-0.51c-0.07-0.11-0.25-0.23-0.47-0.31l-0.1-0.07l0.13-0.41l2.08,0.72
		c0.54,0.19,0.91,0.35,1.21,0.47c0.24,0.13,0.49,0.3,0.69,0.49c0.2,0.23,0.32,0.47,0.34,0.71
		C108.02,198.42,107.99,198.69,107.88,198.92z M114.19,202.27c-0.28,0.76-0.69,1.27-1.4,1.64c-0.66,0.35-1.46,0.4-2.35,0.12
		c-0.62-0.2-1.1-0.5-1.51-0.92c-0.38-0.4-0.57-0.84-0.66-1.35c-0.06-0.49-0.02-0.95,0.13-1.38c0.09-0.45,0.43-0.89,0.8-1.22
		c0.39-0.38,0.82-0.59,1.37-0.67c0.51-0.07,1.01-0.02,1.52,0.15c0.89,0.26,1.56,0.78,1.92,1.44
		C114.35,200.8,114.4,201.51,114.19,202.27z M119.65,204.96c0.2,0.58,0.32,0.91,0.42,1.07c0.13,0.13,0.25,0.21,0.4,0.26l-0.07,0.41
		l-1.66-0.42c-0.11-0.22-0.27-0.73-0.47-1.58c-0.1-0.43-0.21-0.71-0.28-0.83c-0.02-0.12-0.12-0.22-0.16-0.27
		c-0.08-0.05-0.27-0.11-0.55-0.2l-0.33,1.24c-0.06,0.23-0.06,0.42,0,0.52c0.01,0.12,0.19,0.22,0.45,0.3l0.07,0.03l-0.09,0.41
		l-2.82-0.74l0.11-0.45l0.12,0.05c0.25,0.07,0.39,0.07,0.54-0.02c0.08-0.08,0.19-0.2,0.25-0.48l0.81-3.07
		c0.06-0.28,0.1-0.43,0.03-0.54c-0.07-0.13-0.22-0.2-0.47-0.28l-0.1-0.06l0.1-0.43l2.12,0.61l0.46,0.08c0.47,0.14,0.8,0.24,1.02,0.3
		c0.23,0.13,0.43,0.25,0.59,0.42c0.2,0.19,0.32,0.38,0.35,0.61c0.08,0.25,0.08,0.48,0.01,0.71c-0.15,0.62-0.62,0.97-1.41,0.98
		C119.24,203.78,119.43,204.25,119.65,204.96z M128.56,208.54l-4.82-1.07l0.08-0.39h0.07c0.28,0.04,0.46,0.04,0.56-0.07
		c0.07-0.06,0.19-0.23,0.22-0.44l0.67-3.15c0.05-0.23,0.05-0.4,0-0.56c-0.07-0.11-0.24-0.17-0.51-0.24l-0.07-0.01l0.11-0.41
		l2.85,0.57l-0.12,0.41h-0.07c-0.28-0.06-0.44-0.06-0.59,0.04c-0.08,0.09-0.16,0.26-0.2,0.48l-0.64,3.02
		c-0.06,0.24-0.06,0.39-0.06,0.49c0,0.05,0.06,0.14,0.15,0.21c0.08,0.08,0.28,0.15,0.55,0.23c0.48,0.09,0.86,0.04,1.15-0.14
		c0.29-0.18,0.48-0.43,0.65-0.85l0.44,0.11L128.56,208.54z M134.54,209.61l-2.64-0.49l0.08-0.43c0.19,0.04,0.37,0.04,0.43,0.02
		c0.07-0.04,0.11-0.08,0.11-0.14c0.05-0.1,0.05-0.17-0.04-0.3v-0.1l-0.07-0.42l-1.66-0.32l-0.14,0.25
		c-0.12,0.17-0.17,0.29-0.17,0.38c-0.02,0.13,0,0.21,0.05,0.29c0.12,0.07,0.23,0.11,0.4,0.14l-0.04,0.46l-1.77-0.32l0.08-0.43
		c0.31,0.07,0.64-0.17,0.97-0.72l2.42-3.86l0.43,0.1l0.95,4.45c0.06,0.45,0.19,0.72,0.3,0.8c0.14,0.12,0.23,0.18,0.37,0.2
		L134.54,209.61z M143.68,210.91l-1.67-0.22c-0.17-0.23-0.4-0.71-0.68-1.53c-0.15-0.39-0.27-0.66-0.33-0.76
		c-0.06-0.13-0.15-0.21-0.26-0.23c-0.07-0.07-0.28-0.11-0.55-0.14l-0.18,1.25c0,0.26,0,0.44,0.08,0.55c0.05,0.11,0.21,0.2,0.49,0.24
		h0.1l-0.05,0.41l-2.87-0.35l0.02-0.44h0.08c0.3,0.05,0.48,0,0.57-0.07c0.1-0.09,0.17-0.28,0.22-0.49l0.44-3.18
		c0-0.25,0-0.43-0.12-0.55c-0.03-0.1-0.19-0.18-0.47-0.22h-0.08l0.01-0.45l2.21,0.31l0.44,0.05c0.47,0.05,0.83,0.13,1.08,0.18
		c0.18,0.07,0.38,0.16,0.58,0.33c0.23,0.13,0.36,0.33,0.45,0.56c0.12,0.21,0.16,0.44,0.12,0.7c-0.12,0.62-0.55,1.02-1.27,1.17
		c0.18,0.16,0.42,0.58,0.73,1.25c0.29,0.57,0.43,0.89,0.59,0.99c0.07,0.11,0.25,0.2,0.43,0.2L143.68,210.91z M149.67,211.51
		l-2.71-0.27l0.05-0.42c0.22,0,0.37,0,0.45-0.04c0.08-0.02,0.1-0.09,0.1-0.16c0.04-0.05,0-0.17-0.02-0.28l-0.08-0.12l-0.09-0.38
		l-1.66-0.19l-0.15,0.28c-0.09,0.16-0.11,0.28-0.18,0.36c0,0.13,0.08,0.25,0.12,0.3c0.11,0.07,0.23,0.08,0.5,0.11l-0.08,0.44
		l-1.8-0.17l0.06-0.44c0.32,0.04,0.64-0.25,0.93-0.78l2.09-4.05l0.46,0.05l1.25,4.39c0.15,0.44,0.28,0.7,0.41,0.79
		c0.13,0.1,0.23,0.16,0.37,0.16L149.67,211.51z M155.49,206.86l-3.44,4.35l1.28,0.1c0.37,0,0.64,0,0.8-0.05
		c0.12-0.05,0.33-0.16,0.45-0.3c0.14-0.17,0.28-0.38,0.36-0.68l0.47,0.04l-0.2,1.6l-4.86-0.35v-0.35l3.38-4.37l-0.89-0.05
		c-0.56-0.05-0.93,0-1.09,0.11c-0.2,0.08-0.4,0.35-0.59,0.73l-0.37-0.04l0.18-1.43l4.56,0.32L155.49,206.86z M161.95,211.51
		c-0.58,0.52-1.29,0.74-2.21,0.71c-0.68-0.02-1.25-0.16-1.71-0.46c-0.48-0.29-0.78-0.66-0.99-1.11c-0.17-0.48-0.31-0.92-0.25-1.37
		c0-0.49,0.13-0.94,0.46-1.42c0.3-0.47,0.65-0.77,1.17-0.96c0.46-0.25,0.93-0.31,1.47-0.31c0.98,0.06,1.67,0.36,2.22,0.93
		c0.51,0.56,0.77,1.25,0.73,2.08C162.81,210.31,162.5,210.97,161.95,211.51z M169.95,207.3c0,0-0.28,0.04-0.4,0.08
		c-0.09,0.1-0.2,0.2-0.24,0.3c-0.07,0.12-0.07,0.29-0.07,0.53l-0.02,4.17h-0.55l-3.48-4.01v2.5c-0.03,0.4,0.03,0.66,0.18,0.79
		c0.17,0.09,0.37,0.16,0.6,0.16v0.43h-2.07v-0.43c0.16,0,0.33-0.06,0.48-0.11c0.12-0.11,0.23-0.2,0.23-0.3
		c0.05-0.11,0.05-0.29,0.05-0.54l0.05-2.77c0-0.56-0.28-0.83-0.81-0.83v-0.47l1.84,0.04l2.96,3.33l0.03-1.98
		c0-0.6-0.26-0.91-0.75-0.91v-0.44l1.96,0.02V207.3z M179,211.3c-0.54,0.56-1.26,0.86-2.21,0.9c-0.65,0.02-1.21-0.08-1.67-0.35
		c-0.5-0.23-0.87-0.59-1.09-1.03c-0.27-0.46-0.38-0.91-0.43-1.36c0-0.45,0.15-0.96,0.39-1.44c0.25-0.44,0.63-0.82,1.07-1.07
		c0.42-0.26,0.92-0.38,1.47-0.38c0.98-0.06,1.74,0.2,2.26,0.72c0.61,0.53,0.85,1.19,0.96,1.98
		C179.75,210.07,179.49,210.73,179,211.3z M183.61,211.72l-0.04-0.45l0.05-0.01c0.28-0.01,0.46-0.07,0.52-0.18
		c0.09-0.11,0.09-0.3,0.09-0.52l-0.29-3.22c0-0.24-0.08-0.41-0.17-0.51c-0.07-0.1-0.26-0.14-0.54-0.1h-0.07l-0.05-0.43l2.92-0.27
		l0.01,0.44l-0.07,0.04c-0.28,0-0.49,0.08-0.56,0.18c-0.03,0.1-0.07,0.28-0.04,0.54l0.23,3.07c0.03,0.26,0.03,0.41,0.09,0.46
		c0.08,0.07,0.11,0.14,0.28,0.19c0.07,0.04,0.25,0.04,0.55,0.02c0.44-0.02,0.83-0.2,1.05-0.43c0.2-0.27,0.33-0.6,0.4-1.01l0.38-0.05
		l0.16,1.81L183.61,211.72z M191.88,210.91l-0.03-0.45c0.23-0.01,0.42-0.04,0.42-0.13c0.04-0.05,0.09-0.08,0.09-0.17
		c0,0-0.05-0.14-0.1-0.25l-0.08-0.09l-0.2-0.41l-1.65,0.19l-0.07,0.31c-0.07,0.2-0.1,0.33-0.1,0.33c0.03,0.2,0.1,0.29,0.21,0.33
		c0.05,0.04,0.18,0.04,0.38,0.03l0.12,0.42l-1.8,0.22l-0.05-0.42c0.35-0.06,0.59-0.38,0.75-0.99l1.18-4.37l0.47-0.08l2.17,4.01
		c0.22,0.38,0.4,0.63,0.54,0.69c0.13,0.06,0.3,0.08,0.3,0.08l0.16,0.44L191.88,210.91z M201.22,205.58
		c-0.1-0.28-0.17-0.43-0.33-0.59c-0.13-0.13-0.25-0.22-0.25-0.22c-0.23-0.05-0.42-0.02-0.65,0l-0.88,0.15l0.28,1.87l0.43-0.08
		c0.2-0.05,0.39-0.1,0.43-0.22c0.07-0.07,0.07-0.25,0.07-0.55l0.43-0.06l0.33,1.84l-0.49,0.07c-0.04-0.28-0.11-0.47-0.23-0.55
		c-0.07-0.08-0.24-0.11-0.42-0.05l-0.42,0.05l0.22,1.47c0.06,0.24,0.09,0.4,0.21,0.5c0.09,0.06,0.29,0.11,0.54,0.05h0.11l0.11,0.42
		l-2.92,0.47l-0.06-0.42l0.06-0.05c0.29-0.02,0.43-0.09,0.52-0.21c0.06-0.13,0.06-0.3,0.03-0.52l-0.53-3.22
		c-0.02-0.23-0.08-0.38-0.2-0.48c-0.07-0.08-0.28-0.08-0.5-0.05h-0.16l-0.03-0.44l4.52-0.71l0.27,1.45L201.22,205.58z
		 M207.54,204.22l0.3,1.76c0.12,0.42,0.15,0.71,0.15,0.95c0,0.26-0.07,0.51-0.19,0.77c-0.14,0.26-0.37,0.5-0.63,0.69
		c-0.27,0.22-0.67,0.32-1.1,0.42c-0.38,0.07-0.75,0.11-1.09,0c-0.4-0.06-0.67-0.17-0.85-0.35c-0.21-0.19-0.38-0.39-0.51-0.61
		c-0.14-0.2-0.16-0.51-0.25-0.83l-0.41-2.11c-0.04-0.25-0.13-0.4-0.23-0.49c-0.09-0.07-0.29-0.07-0.6-0.02l-0.05-0.42l2.8-0.58
		l0.07,0.46h-0.07c-0.3,0.05-0.41,0.12-0.49,0.22c-0.11,0.16-0.11,0.31-0.02,0.56l0.39,2.09c0.1,0.39,0.18,0.68,0.28,0.89
		c0.11,0.2,0.28,0.38,0.54,0.47c0.21,0.16,0.49,0.17,0.8,0.09c0.33-0.05,0.56-0.19,0.79-0.41c0.2-0.2,0.27-0.44,0.3-0.68
		c0-0.25,0-0.58-0.07-1.03l-0.37-1.76c-0.1-0.57-0.43-0.77-0.96-0.7l-0.07-0.42l1.97-0.38l0.12,0.42c-0.16,0.03-0.25,0.09-0.35,0.17
		c-0.13,0.08-0.19,0.2-0.19,0.33C207.46,203.87,207.5,203.99,207.54,204.22z M210.01,207.93l-0.14-0.45l0.14-0.03
		c0.23-0.07,0.42-0.13,0.46-0.25c0.06-0.11,0.06-0.28,0-0.56l-0.7-3.11c-0.12-0.28-0.19-0.43-0.29-0.48
		c-0.1-0.07-0.27-0.07-0.55-0.01l-0.06,0.01l-0.12-0.43l4.51-1.04l0.38,1.33l-0.41,0.13c-0.13-0.23-0.28-0.42-0.38-0.55
		c-0.16-0.11-0.26-0.17-0.39-0.17c-0.1-0.05-0.26,0-0.5,0.05l-1,0.23l0.43,1.83l0.52-0.11c0.22-0.06,0.34-0.14,0.42-0.25
		c0.03-0.11,0.08-0.29,0-0.52l0.43-0.13l0.42,1.8l-0.42,0.08l-0.03-0.04c0-0.17-0.07-0.3-0.22-0.38c-0.05-0.12-0.21-0.16-0.53-0.1
		l-0.45,0.15l0.29,1.29c0.08,0.26,0.1,0.4,0.16,0.46c0.03,0.07,0.09,0.13,0.24,0.13c0.18,0.04,0.36,0,0.62-0.02
		c0.32-0.11,0.55-0.2,0.74-0.31c0.14-0.13,0.23-0.33,0.32-0.57c0.07-0.23,0.12-0.51,0.12-0.74l0.42-0.1l0.37,1.74L210.01,207.93z
		 M220.1,205.36c-0.21-0.12-0.61-0.51-1.2-1.11c-0.33-0.32-0.54-0.52-0.64-0.6c-0.13-0.07-0.23-0.11-0.23-0.11
		c-0.19,0-0.36,0.01-0.66,0.08l0.37,1.24c0.07,0.23,0.12,0.39,0.26,0.46c0.1,0.07,0.27,0.07,0.52,0l0.1-0.03l0.11,0.44l-2.8,0.79
		l-0.1-0.44l0.1-0.02c0.27-0.07,0.38-0.16,0.46-0.27c0.03-0.11,0.03-0.28,0-0.54l-0.88-3.08c-0.1-0.25-0.15-0.4-0.25-0.48
		c-0.1-0.05-0.28-0.05-0.53,0l-0.12,0.04l-0.13-0.44l2.08-0.58l0.5-0.13c0.47-0.11,0.8-0.19,1.02-0.25c0.22-0.02,0.45,0,0.7,0.06
		c0.23,0.05,0.47,0.15,0.62,0.35c0.17,0.16,0.32,0.36,0.35,0.59c0.19,0.62-0.03,1.14-0.7,1.55c0.23,0.09,0.67,0.39,1.19,0.88
		c0.47,0.41,0.75,0.64,0.93,0.71c0.14,0.07,0.28,0.09,0.45,0.03l0.15,0.43L220.1,205.36z M222.65,204.6l-0.13-0.34l1.5-5.32
		l-0.84,0.3c-0.53,0.19-0.92,0.35-1,0.48c-0.17,0.16-0.2,0.49-0.2,0.93l-0.43,0.15l-0.36-1.42l4.34-1.43l0.07,0.37l-1.44,5.3
		l1.17-0.4c0.3-0.1,0.59-0.19,0.71-0.3c0.15-0.13,0.21-0.29,0.3-0.49c0.08-0.17,0.1-0.43,0.1-0.75l0.45-0.15l0.39,1.58L222.65,204.6
		z M230.81,201.82l-0.17-0.43c0.2-0.07,0.35-0.14,0.37-0.2c0.06-0.07,0.06-0.16,0-0.21c0-0.07-0.04-0.11-0.1-0.22l-0.09-0.07
		l-0.32-0.32l-1.57,0.54v0.33c0,0.19,0,0.34,0,0.34c0.11,0.17,0.16,0.23,0.27,0.27c0,0,0.23-0.04,0.44-0.1l0.15,0.45l-1.68,0.6
		l-0.15-0.41c0.32-0.13,0.49-0.5,0.49-1.11l0.1-4.52l0.41-0.16l3.08,3.32c0.28,0.32,0.54,0.53,0.68,0.57c0.2,0,0.32,0,0.43-0.04
		l0.19,0.41L230.81,201.82z"/>
	<path class="st3" d="M143.03,117.92c-1.26-0.64-2.36-1.34-3.07-1.82c-0.65,0.43-1.75,1.13-2.84,1.82H143.03z"/>
	<path class="st3" d="M156.79,116.62c-0.51,0.24-1.59,0.69-2.43,1.15c0,0-0.16,0.07-0.33,0.14h24.54c-0.18-0.08-0.3-0.14-0.3-0.14
		c-0.93-0.46-1.96-0.91-2.49-1.15c-0.13-0.05-0.23-0.09-0.29-0.13c-1.08-0.46-2.17-0.81-3.22-1.09h-11.98
		c-0.97,0.28-2.07,0.62-3.2,1.09C157.04,116.53,156.93,116.58,156.79,116.62z"/>
	<path class="st3" d="M193.69,116.13c-0.07,0.01-0.07,0.04-0.07,0.04c-0.51,0.4-1.36,1.1-2.52,1.75h5.14
		c-0.91-0.64-1.82-1.26-2.42-1.7C193.83,116.22,193.74,116.16,193.69,116.13z"/>
	<path class="st3" d="M136.7,165.15v-12.69C135.74,154.9,134.24,160.13,136.7,165.15z"/>
	<polygon class="st3" points="166.28,143.85 142.74,136.29 161.12,136.29 	"/>
	<path class="st3" d="M166.18,119.59h-31.3v0.06c-0.04,0.31,0.17,0.61,0.35,0.82c0.13,0.18,0.63,0.77,1.23,1.65h28.92L166.18,119.59
		z"/>
	<path class="st3" d="M164.93,123.78h-27.37c0.43,0.74,0.88,1.58,1.35,2.52h25.22L164.93,123.78z"/>
	<path class="st3" d="M163.64,127.94h-24.02c0.32,0.82,0.61,1.67,0.88,2.54h22.38L163.64,127.94z"/>
	<path class="st3" d="M162.39,132.15H140.9c0.16,0.8,0.28,1.64,0.37,2.54h20.34L162.39,132.15z"/>
	<path class="st3" d="M148.65,140.51h-7.43c-0.09,0.76-0.26,1.59-0.49,2.53h11.45L148.65,140.51z"/>
	<path class="st3" d="M146.35,138.85l-3.52-2.54h-1.49c0,0.07,0,0.16,0,0.25c0.08,0.28,0.13,1.12,0.08,2.29H146.35z"/>
	<path class="st3" d="M166.41,119.59l-0.13-0.36v0.36v2.53v1.66v2.52v1.64v2.54v1.68v2.54v9.15l23.55-7.56h-18.37l-0.52-1.59h20.7
		c0.1-0.88,0.28-1.74,0.48-2.54h-21.94l-0.52-1.68h22.9c0.28-0.87,0.6-1.72,0.95-2.54h-24.57l-0.53-1.64h25.84
		c0.45-0.92,0.93-1.74,1.41-2.52h-27.98l-0.55-1.66h29.59c0.84-1.21,1.48-1.99,1.69-2.2c0.11-0.16,0.15-0.26,0.2-0.32H166.41z"/>
	<path class="st3" d="M171.93,157.27v18.86c0.79-0.55,1.64-0.98,2.51-1.32v-15.62L171.93,157.27z"/>
	<path class="st3" d="M167.69,154.03v27.25c0.36-0.63,0.73-1.22,0.93-1.54l0.12-0.21c0.4-0.74,0.87-1.42,1.45-1.99v-21.6
		L167.69,154.03z"/>
	<path class="st3" d="M163.46,155.11v21.93c0.81,0.68,1.5,1.51,2.09,2.5l0.11,0.21c0.08,0.13,0.19,0.35,0.34,0.58v-27.13
		L163.46,155.11z"/>
	<path class="st3" d="M159.3,158.29v16.34c0.86,0.29,1.72,0.68,2.51,1.18v-19.42L159.3,158.29z"/>
	<path class="st3" d="M176.14,174.21c0.86-0.25,1.69-0.41,2.49-0.58v-11.28l-2.49-1.9V174.21z"/>
	<path class="st3" d="M155.13,173.58c0.76,0.09,1.6,0.27,2.51,0.51v-14.51l-2.51,1.89V173.58z"/>
	<path class="st3" d="M166.28,143.85l-8.56,3.16l-3.24-2.32h-14.24c-0.23,0.8-0.61,1.64-0.93,2.51l0,0l0,0
		c-0.29,0.64-0.61,1.27-0.91,1.93v18.61c0.52,0.64,1.35,1.47,2.5,2.28V147.2h1.65v23.89c0.77,0.41,1.56,0.78,2.53,1.11v-25h1.64
		v25.51c0.82,0.19,1.64,0.33,2.51,0.43V147.2h1.72v26.07c0.33,0.05,0.67,0.05,1.05,0.05c0.2,0,0.71,0,1.45,0.05v-10.62l-1.49,1.11
		L166.28,143.85z M153.46,147.2h1.67v7.37l-1.67,4.92V147.2z"/>
	<path class="st3" d="M193.44,147.2L193.44,147.2L193.44,147.2c-0.4-0.89-0.74-1.71-0.98-2.51h-14.38l-3.21,2.32l-6.24-2.32
		l-2.34-0.84l13.98,19.77v9.8c1.01-0.07,1.75-0.09,2.01-0.09c0.16,0,0.38,0,0.53,0V147.2h1.67v26.01c0.89-0.07,1.74-0.2,2.53-0.39
		V147.2h1.67v25.18c0.93-0.29,1.77-0.63,2.51-0.99V147.2h1.67v23.22c0.98-0.62,1.79-1.29,2.34-1.9l0,0c0.05-0.08,0.15-0.18,0.2-0.28
		v-17.18C194.6,149.68,193.95,148.38,193.44,147.2z M180.27,162.99l-1.64-4.91V147.2h1.64V162.99z"/>
	<path class="st3" d="M180.42,143.04h11.54c-0.21-0.95-0.36-1.77-0.43-2.53h-7.62L180.42,143.04z"/>
	<path class="st3" d="M189.76,136.32l-3.54,2.54h5.15c0-0.84,0.07-1.43,0.12-1.74c0-0.28,0.03-0.53,0.03-0.79H189.76z"/>
	<path class="st3" d="M203.51,86.76c0.76,0.03,1.42-0.02,2.06-0.1c7.79-2.05,8.12-11.7,6.84-12.31c-0.08,0.07-0.08,0.07-0.16-0.07
		c-0.19,0.58-0.41,1.16-0.61,1.68c-0.5,0.98-1.13,1.6-1.34,1.54c-0.07-0.06-0.07-0.18,0-0.23c1.69-3.01,1.62-5.38,0.79-8.31
		c-0.63-1.54-1.54-3.14-3.07-4.19c-3.94-2.75-11.86-3.24-16.15,0.1c-1.47-1.49-3.37-2.62-5.6-3.4c-0.5,2.41-3.17,5.65-5.54,7.3
		c-0.47,0.31-1.81,1.21-2.35,1.21c0,0-0.52-0.1-0.07-0.54c4.21-2.59,6.28-5.78,6.33-9.74v-0.08c-0.13-1.98-0.61-5.69-3.09-8.37
		c-3.81-4.14-14.08-4.69-18.79-0.74c-1.24,1.28-2.06,2.87-2.44,4.85c0.5-1.43,1.56-2.92,3.79-3.58c2.09-0.68,6.09-0.21,6.66,2.17
		c-3.49-3.61-9.92-0.91-10.82,5.24c0,0,0-0.02,0-0.07c-0.11,0.4-0.35,0.42-0.35,0.42l0,0c-0.14,0-0.4-0.02-0.28-2.77
		c0.04-1.69,0.6-3.82,1.34-5.62c-7.9-1.42-17.35,2.44-17.18,14.18c0.11,1.68,0.68,3.21,2.22,4.95c0.29,0.35,0.05,0.48,0.05,0.48
		c-0.23,0.12-1.22-0.55-1.81-1.35c-0.78-1.05-1.45-2.47-1.79-3.85c-4.98-1.8-8.03-1.84-10.85-1.58c-2.89,0.28-6.71,2.86-8.09,4.63
		c-0.57,0.77-1.27,1.9-1.79,2.86c-0.93,1.88-1.64,4.27-1.39,7.01c0.42,4.6,2.67,8.46,6.02,10.31c4.61,2.52,10.44,2.17,12.55,1.84
		c1.12-0.23,2.31-0.61,3.54-1.48c0.15-0.1,0.33-0.22,0.47-0.32c0.07-0.07,0.11-0.11,0.19-0.17c1.87-1.61,2.94-4.05,2.81-7.26
		l0.08-0.18c0.29,0,0.53,0.84,0.53,1.93c-0.04,1.27-0.3,2.71-0.86,3.97c0,0.17,0.08,0.4,0.08,0.61c0.05,0.46,0.25,0.93,0.54,1.24
		c0.84,0.98,2.98,1.3,4.68,0.6c0.1-0.05,0.21,0,0.21,0c0,0.28-1.13,1.49-3.2,1.49c-0.43,0-0.86-0.05-1.29-0.15
		c1.15,1.94,4.38,3.36,7.79,3.16l0.16,0.05c0,0.27-0.81,0.58-1.92,0.58c-1.55,0-3.42-0.4-4.78-1.12c1.57,1.96,4.34,3.7,9.05,4.37
		c0.16,0.53-3.55,0.11-4.59-0.26c2.18,8.53,6.76,7.57,6.81,8.14c-1.34,0.43-2.3,2.11-1.34,3.94c4.85-1.74,8.47-1.87,9.54-1.87
		c1.1,0,4.84,0.13,9.8,1.95c0.53-0.73,0.53-1.49,0.23-2.23c-0.7-2.13-7.27-3.77-13.42-1.98c-0.23,0.12-0.53,0.24-0.81,0.43
		c0,0-0.06,0-0.1-0.01c0,0,0.03-0.08,0.1-0.18v0.02v-0.03c0.12-0.1,0.82-0.5,0.82-0.5c2.71-1.44,8.3-1.97,11.35-0.44h0.03
		c2.61,1.14,4.97-2.06,4.1-3.72c1.95,0.12,3.42-1.09,3.56-3.01c-0.41,0.22-0.76,0.36-1.04,0.51h0.03c-0.69,0.34-1.39,0.37-1.41,0.26
		c-0.05-0.02-0.05-0.04,0-0.08h-0.05h0.07v-0.04c0.3-0.14,0.6-0.29,0.83-0.43c3.61-2.05,5.33-6.12,4.97-7.36
		c-0.3,0.71-1.43,1.34-2.49,1.34c-0.58,0.05-0.92-0.05-0.92-0.17l0.07-0.11c0.49-0.05,0.85-0.23,1.26-0.5
		c1.23-0.89,2.42-2.57,2.97-3.93c-2.23-2.14-3.04-4.64-4.31-7.95c-0.52-1.25-1.55-2.54-3.06-2.66c0,0-0.57,0-0.68,0
		c-0.22,0.01-0.38,0.07-0.54,0.13c0,0-0.11,0-0.14-0.06c1.74-1.43,3.64,0.13,4.72,0.76c0.21-3.15,1.29-3.97,1.37-3.93
		c0.08,0.03,0.08,0.13,0.08,0.13c-2.22,6.49,2.12,12.64,5.48,14.65c4.53,2.43,12.77,2.78,18.19-1.85l0,0
		c-1.01,0.3-2.02,0.45-2.95,0.47c-1.09,0.03-1.92-0.22-1.97-0.42C203.31,86.8,203.45,86.74,203.51,86.76z M130.02,86.37
		c2.89-0.74,5.44-2.27,4.7-5c-0.18-0.77-0.88-1.39-1.98-1.49c-1.62-0.16-2.72,1.01-3.53,2.22c0.17-2.51,1.81-4.19,4.36-3.89
		c1.35,0.15,3.19,1.42,3.5,2.85C137.84,85.08,134.16,86.74,130.02,86.37z M140.29,83.5c1.23-3.33,1.87-8.4-3.42-9.71
		c-4.1-1.03-7.8,2.06-9.7,3.77c1.24-3.78,5.3-6.62,10.78-5.41c-1.14-3.15-5.19-4.48-9.93-1.88c-1.13,0.63-1.96,1.36-2.7,2.03
		c0.77-2.38,2.77-4.12,5.02-4.96c3.56-1.32,7.24,0.07,9.09,1.92C145.27,75.01,142.09,83.07,140.29,83.5z M167.3,100.81
		c-2.42,0.11-2.69-1.63-3.17-3.45c1.07,0.87,2.55,2,2.46,0.09c-0.93-0.79-6.31-2.2-4.91-4.54c0.9-1.31,3.81,3.88,4.6,2.13
		c0.53-3.46-10.33-4.55-10-7.55c0.07-1.58,8.51,4.13,9.78,4.01c-0.13-1.82-12.68-6.94-16.49-13.78c-0.29-0.49-0.44-0.91-0.34-0.98
		c0,0,0.13,0,0.14,0.05c2.35,3.71,8.46,8.72,16.14,10.79C168.13,88.33,169.37,96.69,167.3,100.81z M170.13,102.92
		c-0.83-0.22-0.35-1.67-0.35-2.31c0-3.58-0.12-7.02-1.01-10.03c-0.38-1.48-1.63-6.22-4.78-12.24c1.2,1.4,5.97,8.84,6.67,14.47
		C171.07,95.96,171.65,100.16,170.13,102.92z M174.04,81.54c2.27,0.93-1.15,5.56-1.45,6.43c0.54-0.25,2.39-2.24,3.15-1.63
		c1.16,0.97-2.44,5.69-3.38,6.02C167.25,85.72,173.75,83.75,174.04,81.54z M173.42,100.98c-0.7-0.31-0.73-1.68-0.66-2.31
		c0.3-1.66,2.25-2.42,3.14-3.38C176.11,95.28,175.97,97.98,173.42,100.98z M172.76,96.26c-0.96-1.7,1.64-3.85,2.25-5.58
		C178.19,90.19,174.19,95.77,172.76,96.26z M175.64,50.82c-0.17-0.2,4.6,0.92,5.48,5.11c0.13,2.65-1.29,3.42-1.59,3.32
		c-0.13-0.05-0.13-0.26-0.13-0.26c0.79-1.82,0.49-4.59-0.87-6.21C177.52,51.62,175.77,50.98,175.64,50.82z M202.43,76.79h-0.14
		c-0.05-0.05-0.05-0.07-0.05-0.07c0-0.43,0.05-0.86,0.13-1.24c0.08-0.98,0.08-1.95-0.17-3.04c-1.15-5.13-5.43-6.96-8.46-3.9
		c0,0,3.27-6.13,10.67-3.9c1.82,0.56,3.2,2.06,4.25,4.32c0.87,1.97,0.48,4.02-0.11,5.18c0,0-0.04,0-0.1,0l-0.07-0.07
		c0.25-1.18-0.12-3.14-0.79-4.71c-0.37-0.84-1.15-2.28-2.43-2.64c0.8,1.09,1.3,2,1.62,2.76c0.47,1.05,0.47,1.67,0.47,2.16
		c0.11,2.3-1.03,4.88-2.09,5.87l-0.13-0.05c-0.06-0.03-0.06-0.08,0-0.1c1.18-2.78,1.23-5.21,0.28-7.41
		c-0.13-0.23-0.19-0.44-0.34-0.69c-0.85-1.53-2.34-3.35-4.56-3.27c1.1,0.73,1.96,1.87,2.56,3.25
		C204.24,72.13,203.99,75.46,202.43,76.79z"/>
	<path class="st3" d="M274,141.28c-0.7-12.25-1.7-23.2-4.64-33.29c-1.83-6.19-5.31-18.85-13.52-20.58
		c-3.83-0.82-6.77,2.75-6.73,5.98c0.07,2.75,1.99,4.09,1.17,6.83c-1.04,1.8-2.06,3.75-2.53,5.75c-0.52,1.99,1.22,2.79,0.67,4.91
		c-2.46-0.38-3.76,1.72-7.46,0.95c-3.34,1.38-6.73,0.78-6.73,0.69c0,0,0.08-0.11,0.14-0.1c3.69-0.11,7-1.31,7.7-2.92
		c0.73-2.48,0.3-6.16-1.54-7.52c-2.07,0.47-3.14,2.25-10.5,1.83c-6-0.36-7.5,0.75-8.34,4.42c-0.35-0.6-0.36-1.07-0.31-1.73
		c0.23-2.01,2.21-3.25,4.67-3.5c0.51-0.87,0.61-1.54,0.61-2.51c-1.12-0.07-1.62-0.12-3.03,0.1c-2.87,0.46-6.83,2.08-7.81,4.95
		c-0.12,0.32-0.21,0.93-0.21,1.48c0,0.47,0.12,0.91,0.21,1.29c0.1,0.29,0.25,0.61,0.3,0.9c0.92,2,3.18,3.1,8.05,3.35
		c0.07-0.01,0.17,0.05,0.16,0.14c-0.05,0.2-0.98,0.39-2.2,0.25c0,0-4.51,0.04-6.53-2.33c-0.11,0.19-0.25,0.33-0.3,0.41
		c-1.27,1.27-3.48,2.46-5.46,2.57c-2.2,0.1-4.61-1.3-5.47-2.47c-2.87-3.91,0.86-10.67,0.78-13.17c-0.2-6.72-9.31-3.71-12.66-1.95
		c-4,2.1-7.17,5.46-9.83,8.79c-1.47,1.78-3.07,3.96-3.88,5.85c1.2,0.56,4.68,2.08,7.28,2.12l0.15,0.02c0.19,0,0.46,0.05,0.95,0.05
		c1.34,0,3.98-0.24,5.91-1.87c0.17-0.13,0.94-0.78,2.07-0.78c0.86,0,1.66,0.32,2.33,0.96c0.5,0.4,6.25,5,8.16,6.29
		c0.21,0.16,0.81,0.68,0.88,1.47c0.11,0.46,0,1.22-0.72,2c-0.43,0.5-3.32,3.89-5.2,8.52l0,0c-0.27,0.69-0.53,1.36-0.77,2.08
		c-0.7,2.49-1.18,6.37,2.25,7.59c0,0,3.76,0.99,3.49-5.29c0,0,0.61,4.04,3.54,3.86c1.24-0.05,2.41-1.28,2.18-3.98v0.01
		c-0.29-2.59-0.26-5.53,0.24-8.8c0.03-0.16,0.05-0.24,0.11-0.35c0,0,0.1,0.35,0.27,1.58c0.15,1.66-1,16.17,10.97,26.05
		c0,0-5.04-2.48-8.53-8.66c-2.02,1.21-4.77,3.76-3.49,9.21c0.67,1.86,1.94,3.65,2.94,4.19c0.03,0.04,0.12,0.14,0.12,0.23
		c0,0.27-0.62,0.73-1.71-0.35v-0.02c-0.18-0.17-0.37-0.34-0.5-0.58c-0.41-0.62-0.73-1.22-0.97-1.82c-1.4-1.19-2.66-2.48-3.85-3.75
		v-0.03c-1.04-1.94-0.44-7.78-6.16-7.8c0,0-0.24-0.01-0.51,0l0,0l0,0c-0.27,0.02-0.62,0.06-1.02,0.15l-0.21,0.01
		c-1.46-5.07-1.09-8.3-1-8.81c1.17-7.35,6.38-13.47,6.97-14.12c0.2-0.22,0.43-0.6,0.4-0.96c-0.02-0.28-0.23-0.48-0.31-0.51
		l-0.03-0.03c-1.93-1.3-7.61-5.83-8.25-6.35l-0.04-0.06c-0.4-0.38-0.88-0.59-1.38-0.59c-0.68,0-1.23,0.46-1.23,0.46
		c-2.29,1.89-5.22,2.18-6.78,2.18c-0.54,0-0.93-0.03-1.13-0.07h-0.09c-3.26-0.08-7.4-2.04-8.17-2.43l0,0
		c-5.64-2.35-9.97-2.47-10.78-2.47c-0.77,0-5.18,0.11-10.76,2.47l0,0c-0.81,0.4-4.96,2.35-8.24,2.43h-0.02
		c-0.16,0.01-0.56,0.07-1.13,0.07c-1.55,0-4.51-0.28-6.75-2.16l-0.04-0.04c0,0-0.49-0.44-1.22-0.44c-0.5,0-0.98,0.22-1.36,0.59
		l-0.07,0.06c-0.65,0.52-6.33,5.05-8.26,6.35l-0.02,0.03c0,0-0.26,0.23-0.32,0.51c-0.03,0.37,0.22,0.75,0.4,0.96
		c0.61,0.65,5.78,6.77,6.99,14.12c0.03,0.3,0.14,1.4,0.06,3.18c-0.49-1.56-0.97-2.88-1.33-3.9c-0.15-0.8-0.42-1.51-0.82-2.11v-0.03
		l0,0c-0.75-1.25-1.95-2.16-3.2-2.89c-1.05-0.57-2.17-0.74-3.12-1.41c-1.53-1.04-3.12-2.14-4.14-4.07c0-3.78-1.99-6.6-1.99-6.6
		c0.58-0.26,2.85,1.4,3.06,5.48c2.66-2.8,4.01-6.97,4.99-11.51c2.08-2.82,7.77-1.71,9.96-1.33c0.56,0.09,1.49,0.28,1.96,0.64
		c0.6,0.41,0.72,1.39,1.59,1.76c0.88,0.38,1.92,0.08,3.01,0c0.37,0.41,0.55,0.92,0.79,1.46c0.4,0,0.62-0.05,0.76-0.05l0.04-0.02h0.1
		c3.06-0.05,7.31-2.12,7.72-2.29l0.07-0.05c0.16-0.07,0.29-0.13,0.47-0.2c-1.23-1.53-3.14-1.96-4.81-2.24
		c-2.14-0.35-3.29-2.14-5.34-2.57c-0.49-0.12-2.29-0.41-2.87-0.16c-4.55,0.57-7.73-1.13-11.95-1.42c-4.01-0.3-4.14,2.43-5.56,4.69
		c-0.55,0.85-1.18,1.85-1.85,2.48c-1.11,1.08-2.41,1.12-3.74,2.12c-0.08-0.03-0.16-0.07-0.16-0.07c-0.3-1.42-0.89-3.65-1.9-5.18
		c-0.03-0.03-0.03-0.07-0.03-0.07c-0.16-0.19-0.2-0.35-0.32-0.51c-2.18-3.43-4.67-6.06-9.5-7.19c-0.94-0.38-1.1-0.45-1.68-0.88
		c-0.81-0.68-0.25-1.38,0-1.48c1.39-0.75,3.75-0.5,5.33-1.23c3.83-1.79,2.5-5.03,0.95-5.31c-1.9-0.35-5.41-1.28-6.13-1.69
		c-0.92-0.57-1.49-2.21-3.02-2.74c-1.14-0.37-2.15-0.35-3.19-0.18c-0.93,0.13-1.55,0.82-2.22,0.7c0.89-1.24,2.39-1.85,4.34-2.01
		c-1.69-0.49-1.12-3.22-2.67-3.84c-0.68-0.12-1.67,0.17-2.75,0.74c-0.11-0.87-0.61-3.76-2.21-4.71c-1.31-0.76-1.75,0.41-1.7,1.16
		c0.04,0.65,1.97,1.47,2.32,4.45c-0.34,0.22-0.67,0.45-1,0.71c-0.26-1.24-0.83-3.15-2.07-3.88c-1.29-0.74-1.77,0.39-1.7,1.15
		c0.07,0.64,1.75,1.38,2.2,3.91c-0.42,0.37-0.79,0.73-1.24,1.12c-2.6-0.73-3.19-2.55-3.84-2.69c-0.73-0.13-1.92,0.22-1.32,1.59
		c0.61,1.34,2.57,2.14,3.77,2.47c-0.31,0.31-0.56,0.62-0.83,0.92c-3.02-0.59-3.63-2.63-4.31-2.77c-0.7-0.16-1.92,0.23-1.32,1.54
		c0.81,1.78,3.78,2.56,4.57,2.73c-0.51,0.82-0.73,1.57-0.67,2.12c-2.32-0.29-6.43,0.98-5.68,3.71c0.81,0.54,3.55-1.71,6.06-0.44
		c1.7,2.62,4.38,2.72,5,3.2c0.92,0.76,1.09,2.09,1.46,3.3c0.78,2.24,2.37,4.04,3.69,6.03c1.42,2.19,2.9,4.49,4.41,6.4
		c0.2,0.53,0.37,1.07,0.24,1.86c-1.71,2.74-6.85,5.93-8.93,7.91c-2.13,2-22.26,17.31-24.81,23.96c-0.54,1.53-0.85,3.44-0.79,5.44
		c-1.22,0.65-3.38,0.26-3.95-0.43c-1.39-1.59,1.34-3.09,0.67-5.15c-0.28-0.81-1.34-1.11-2.22-0.81c-1.5,0.51-1.82,3.5-1.07,5.31
		c0.24,0.53,1.02,1.18,0.43,1.58c-0.74,0.3-1.2-0.48-1.2-1.55c-0.44,0.29-0.83,1-0.65,1.73c0.4,1.49,2.16,1.51,2.76,1.9
		c-0.05,0.64-1.05,0.95-1.72,0.36c-1.14,1.62,0.12,2.23,0.38,2.3c1.2,0.19,2.52-0.89,3.28-1c0.33,0.84-0.24,1.1-1.5,1.43
		c1.99,2.45,3.84-1.74,6.06-1.25c0.69,0.15,7.03,6.03,5.94,10.58c-0.07,0.22-0.29,0.88-0.45,1.06c-1.37,1.73-3.75,3.05-5.32,4.71
		c-3.32,2.1,3.14,15.34,2.61,22.13c-0.39,2.63,2.29,2.15,3.82,6.47c-1.59,0.04-3.2,0.42-4.02,1.65c0,0-0.12,0.12-0.25,0.34
		l0.03,0.03c-0.25,0.48-0.43,1.04-0.43,1.66c0,1.82,1.49,3.29,3.31,3.29c1.8,0,3.29-1.47,3.29-3.29c0-0.17,0-0.36,0-0.52
		c0.68,0,1.62,0.14,2.65,0.59l2.91,1.58c0,0-10.26,8.65-27.03,3.62c0,0-7.59-2.44-5.45-9.16c0,0,0.4-1.15,1.39-1.8
		c0.23,0.92,0.74,1.73,1.52,2.29c0.62,0.41,1.36,0.67,2.19,0.67c2.1,0,3.82-1.69,3.82-3.79c0-1.05-0.39-1.94-1.11-2.64
		c-0.15-0.18-0.29-0.3-0.51-0.45l-0.02-0.01c-0.08-0.05-0.08-0.05-0.08-0.05c-1.16-0.78-2.88-1.27-5.46-0.6c0,0-7.35,2.1-4.67,10.03
		c0,0-4.96-1.11-6.82,1.14c0,0-0.63,0.72-0.57,1.87v0.05v0.02c0.03,0.49,0.17,1.03,0.49,1.63c0.54,0.76,1.41,1.22,2.35,1.22
		c0.93,0,1.74-0.39,2.27-1.05v-0.01c0.2-0.29,0.69-0.53,1.7,0.31c0,0,6.87,7.6,16.94,6.62c0,0,0.3,5.2,3.81,6.14
		c0,0,0.35,0.08,0.54,0.08c0.96,0,1.7-0.8,1.7-1.75c0-0.96-0.74-1.74-1.7-1.74c0,0-0.17,0-0.18,0.01c-0.09-0.16-0.46-1.72-0.24-2.82
		c0,0,11.01-1.43,18.45-7.51c0,0,5.06,1.49,8.47,1.64c0,0,0.45,1.14-1.8,1.39c0,0-2.93-0.05-2.83,0.88c0,0-0.2,1.04,2.08,1
		c0,0-0.27,1.06,1.56,2.12c0,0,1.21,0.61,0.57,1.39c0,0-2.22,1.2-1.56,2.6c0,0,0.61,1.77,3.67,1.32c0,0,1.06-0.04,0.22,0.88
		c0,0-1.56,1.62,1.02,2.96c0,0,2.04,1.1,3.36-0.99c0,0,0.28-0.83,1.54-0.21c0,0,6.57,2.99,9.95-1.9c0,0,0.21-0.75,1.2,0.51
		c0,0,3.38,4.09,12.59,4.39c0.59,1.11,1.74,1.81,3.04,1.81c1.72,0,3.13-1.18,3.41-2.8c1.12-0.03,5.18-0.36,9.48-3.22
		c0,0,1.58-0.96,3.24-1.77c0.11,2.59,2.23,4.66,4.86,4.66c2.66,0,4.79-2.13,4.79-4.79c0-2.36-1.67-4.35-3.93-4.74
		c-0.15-0.06-3.22-0.92-7.71,1.81c0,0-3.56,2.5-4.46,2.5c0,0,0.86-4.07,1.48-8.62c-0.66-0.06-1.33-0.16-2.01-0.23
		c-0.55,4.27-1.51,9.17-3.25,9.42l-2.38,0.53c-0.15-0.31-0.31-0.61-0.51-0.88c-0.38-0.56-1.13-1.19-2.56-1.03
		c0,0-0.13,0.01-0.3,0.07c-1.14,0.29-1.9,1.24-2.04,2.4c-0.49,0.09-4.69,0.78-6.88-0.87c0,0,4.06-1.42,4.49-2.86
		c0,0,1.21-2.33-2.77-4.54c0,0-2.94-1.75-3.77,0.13c0,0-0.31,0.83,1.04,1.97c0,0,1.42,1.55-1.3,1.3c0,0-1.85-0.2-2.47-0.92
		c0,0,0.46-5.14,1.64-8.61c-1.02-0.3-2.08-0.57-3.11-0.83c-0.43,1.12-0.83,2.32-1.19,3.63c0,0-0.14,2.99-1.28,3.75
		c0,0-3.86-3.18-2.22-8.78c-1.18-0.38-2.42-0.77-3.59-1.18c-0.14,2.67,0.52,7,3.99,13.2c0,0-3.14,4.19-6.45,1.99
		c0,0-4.63-2.99-1.69-5.64c0,0,2-1.67,2.88,0.41c-1.04,0.07-1.86,0.9-1.86,1.97c0,1.05,0.86,1.93,1.98,1.93
		c1.01,0,1.87-0.81,1.88-1.83c0.13-0.81,0.17-2.79-1.57-4.27c0,0-1.65-1.77-4.41-1.21c0,0,2.59-3.39,2.82-6.2
		c0,0,0.03-0.49,0.23-1.11c-0.74-0.26-1.52-0.56-2.25-0.86c-0.18,2.81-1.03,7.95-4.84,6.53c0,0,2.45-4.11,4.04-6.83
		c-1.53-0.6-3.09-1.19-4.56-1.88c-0.11-0.05-0.23-0.1-0.4-0.15c0.19,1.15,0.6,4.04-0.98,5.74c0,0-1.92,1.8-5.22-0.79
		c0,0,4.39-3.71,5.76-5.15c-0.93-0.36-2.35-0.8-3.63-0.8h-1.21c-0.08,0.08-0.2,0.15-0.27,0.2c0,0-2.88,2.13-4.84,2.95
		c0,0-0.61,0.38-1.14-0.27c0,0-3.59-4.17-0.8-8.63c0,0,1.63-3.95,5.11-3.07c0,0,1.03-0.04,1.58,1.36c0,0-3.33,0.13-2.98,2.49
		c0,0,0.06,2.45,3.09,2.29c0,0,4.22-0.43,3.23-5.51c0,0-0.72-3.07-3.14-3.07c0,0,1.38-1.7,0.4-2.35c0,0-1-0.96-3.25,0.62
		c0,0-0.57,1.12-3.34,0.52c0,0-1.8-0.76-2.8,0.65c0,0-0.46,0.16-0.46,2.15c0,0,0.2,0.77-1.06,2.83c0,0-0.65,1.35-0.75,3.59
		c-0.88-0.64-1.83-1.14-2.83-1.32c-1.37-1.43-1.52-8.15-2.92-11.43c-0.34-0.76,0.65-4.18,0.65-7.82c10.17-2.15,14-9.93,15.05-13.36
		c1.56-5.59-0.57-11.3-0.81-12.82c0-0.2,0.18-0.2,0.27,0c0.44,0.84,0.82,1.72,1.13,2.63c4.87,0.37,8.22-0.4,10.6-1.26
		c0.1-0.07,0.25-0.1,0.35-0.17c0.19-0.06,0.36-0.12,0.52-0.17c0.39-0.2,0.8-0.39,1.21-0.58c0.13-0.08,0.26-0.14,0.39-0.2
		c7.1-3.65,10.31-9.51,12.27-12.87c-0.99-0.22-4.04-1.19-5.07-2.74c2.59,0.2,4.59,1.32,7.19,1.32c3.86,0.05,6.43-2.11,10.64-1.61
		c0,0.23,0.58,2.03,3.28,3.12c0.08,2.42,0.26,4.49,1.02,6.41c0.18,0.58,0.33,0.77,0.33,0.77s-3.19,2.46-2.36,4.52
		c0.23,0.56,0.48,1.11,0.68,1.58c0,0-0.34,0-0.47-0.05c-0.45-0.23-1.04,0.61-1.74,1.74c-0.35,0.56-2.03,4.03-0.79,4.32
		c0.28,0.05,0.54,0.08,0.79,0.1c-0.66,3.58-0.6,8.29,2.35,12.62l0.06,0.05c0.12,0.31,4.73,7.84,17.11,7.84h0.16
		c1.22,0,12.05,0.19,15.94,7.4c0.22,0.42,1.06,1.63,2.02,1.63c0.95,0,1.79-1.21,2.04-1.61c3.84-7.23,14.67-7.41,15.93-7.41h0.18
		c12.31,0,16.91-7.53,17.09-7.84l0.02-0.05c1.53-2.2,2.24-4.47,2.52-6.66c2.46-1.33,2.28-6.79,2.33-7.75
		c0.66,0.96,2.12,3.67,5.13,4.39c-0.5,2.56-0.35,6.79,2.43,7.39c0.83,0.05,1.55-1.19,1.36-2.15c2.35,6.81,0.41,11.01,2.2,11.51
		c2.27,0.05,2.37-4.01,2.56-4.12c0.21,0.35,0.98,1.57,1,3.41c0.05,2.12-0.28,4.23,0.69,4.58c3.18,0.52,1.65-8.77,4.14-7.84
		c-0.63,4.11-0.05,6.44,1.69,7.13c-0.07,1.87-0.24,3.72-1.07,3.72c-4.56,1.02-8.75-2.6-12.73-1.53c-0.25-0.16-0.43-0.26-0.43-0.26
		c-7.32-3.93-11.96-0.94-12.43-1.34c-2.05-1.91-2.86,0.94-3.43,0.61c-3.86-2.18-5.97,1.51-6.98,1.66c-0.89,0.16-2.54-1.91-4.31,2.42
		c-0.79,1.91-5.09,2.74-5.43,2.85c-1.7,0.21-2.1-0.97-2.1-0.97c-0.2-0.51-0.35-0.92-0.48-1.24c-0.2-0.36-0.4-0.6-0.67-0.88
		c-0.57-0.53-1.17-0.62-1.72-0.57c-1.26,0.09-2.26,1.14-2.26,2.43c0,0.56,0.17,1.05,0.5,1.46c0.14,0.11,0.5-0.44,1.05-0.41
		c0.98,0.05,1.74,0.77,1.74,1.72v0.03c0.11,1.93-2.85,3.92-2.85,3.92c-1.75,1.56-3.87-0.59-3.87-0.59
		c-1.25-0.98-2.07-1.08-2.07-1.08c-1.28,0.05-1.84,1.37-1.84,1.37s-0.58-1.32-1.82-1.37c0,0-0.81,0.1-2.08,1.08
		c0,0-2.14,2.15-3.88,0.59c0,0-2.96-1.99-2.86-3.91v-0.04c0-0.94,0.78-1.67,1.72-1.72c0.57-0.04,0.91,0.52,1.09,0.41
		c0.28-0.41,0.5-0.89,0.5-1.46c0-1.29-1.02-2.34-2.29-2.43c-0.54-0.05-1.15,0.04-1.71,0.57c-0.27,0.28-0.48,0.52-0.65,0.88
		c-0.16,0.32-0.32,0.73-0.49,1.24c0,0-0.41,1.18-2.14,0.97c-0.31-0.1-4.63-0.93-5.41-2.85c-1.79-4.34-3.43-2.26-4.29-2.42
		c-1.02-0.15-3.11-3.84-6.96-1.66c-0.59,0.33-1.39-2.52-3.46-0.61c-0.43,0.35-4.03-1.92-9.92,0.2c-0.37-0.68-2.22-1.05-2.73-1.24
		c-1.22-0.35-2.25-1.28-2.98-1.66c-1.66-0.84-4.37-0.32-6.24-0.55c-0.73-0.11-1.76-0.5-2.43-0.88c-2.39-1.5-5.16-3.34-6.74-5.49
		c-0.24-0.37-0.85-1.23-0.95-1.33c-0.77-0.95-1.16-1.66-1.7-3.21c-0.83-3,0.44-6.21,0.91-9.23c0.2-1.45,0.23-2.03,0.29-2.91
		c-2.34,0.59-5.43,0.7-9.21-0.38c0.97,3.23,1.12,6.59,0.82,9.26c1.44,1.08,2.29,2.88,2.41,3.78c0.15,1.53-0.54,3.11,0.34,4.33
		c1.3,1.84,4.22,3.53,6.03,4.73c0.61,0.39,8.85,6.79,9.93,7.02c1.19,0.22,1.93-0.65,2.97-0.47c0.33,0.1,0.58,0.35,0.86,0.58
		c0,0,0.69,0.75,1.75,1.4c-2.5,1.58-5.62,3.47-7.95,4.62c0,0-3.72,2-1.93,2.06c0,0,2.55-0.08,2.79,0.47c0,0-1.07,0.43-2.77,1.18
		c3.93,1.39,7.88,2.66,11.98,3.72c2.56-2.51,5.88-5.28,9.15-6.48c0,0,4.65,0.19,6.15-3.23c0.5-1.05,2.42,1.98,6.53-0.29
		c0.42-0.21,1.01,0.89,2.18,1.22c0.37,0.08-1.67,0.4-1.28,2.2c0.07,0.22-3.31,0.02-4.44,1.9c-0.34,0.55-7.57,0.4-13.96,5.82
		c1.24,0.28,2.41,0.56,3.64,0.83c2.12-1.6,4.73-2.71,7.66-2.52c0,0,3.97,0.25,5.57,4.9c2.47,0.38,4.97,0.67,7.51,0.91h-0.06
		c0.64-0.32,4.09-1.99,2.52-4.04c0,0-0.79-1.05-2.22,0.33c0,0-0.9,0.82-1.34-0.46c0,0-0.06-0.73-0.46-1.36c0,0-0.66-1.01,0.65-0.55
		c0,0,1.27,0.39,2.42,0.22c1.23-0.05,2.22-1.07,2.22-2.32c0-1.29-0.92-2.54-2.22-2.54c0,0-0.29,0.08-0.29,0.21
		c0.2,0.12,0.33,0.39,0.33,0.66c0,0.46-0.41,0.98-0.85,0.85c-1.37-0.39-1-3.14,0.91-3.22c0,0,1.7,0.08,3.16,1.82
		c0,0,3.28,4.88,6.31,5.91c0.19,0.1-0.53,1.78,1.36,2.38c0.22,0.06-0.05,1.52,1.9,1.4c0,0,0.48,0.63,0.88,1.67
		c1.74,0.05,3.48,0.1,5.23,0.1c1.75,0,3.48-0.05,5.19-0.1c0.44-1.04,0.83-1.67,0.83-1.67c2.04,0.11,1.75-1.35,2-1.4
		c1.92-0.59,1.15-2.28,1.38-2.38c3.02-1.03,6.28-5.91,6.28-5.91c1.45-1.74,3.16-1.82,3.16-1.82c1.89,0.08,2.32,2.84,0.92,3.22
		c-0.43,0.13-0.86-0.39-0.86-0.85c0-0.27,0.16-0.54,0.32-0.66c0-0.12-0.22-0.21-0.22-0.21c-1.34,0-2.22,1.25-2.22,2.54
		c0,1.25,0.96,2.26,2.14,2.32c1.15,0.17,2.42-0.22,2.42-0.22c1.37-0.46,0.71,0.55,0.71,0.55c-0.41,0.62-0.5,1.36-0.5,1.36
		c-0.38,1.28-1.31,0.46-1.31,0.46c-1.4-1.38-2.24-0.33-2.24-0.33c-1.56,2.06,1.88,3.72,2.55,4.04c0,0,0,0-0.05,0
		c2.54-0.25,5.03-0.53,7.49-0.91c1.62-4.65,5.55-4.9,5.55-4.9c2.98-0.19,5.55,0.91,7.69,2.52c1.2-0.28,2.42-0.55,3.64-0.83
		c-6.42-5.43-13.66-5.28-13.99-5.82c-1.08-1.88-4.48-1.68-4.46-1.9c0.45-1.81-1.59-2.13-1.24-2.2c1.15-0.33,1.81-1.43,2.15-1.22
		c4.08,2.27,6.07-0.76,6.59,0.29c1.47,3.42,6.13,3.23,6.13,3.23c3.25,1.19,6.56,3.96,9.12,6.5c3.74-1,7.39-2.16,10.98-3.42
		c0,0-0.03-0.1-0.08-0.13c-0.03-0.2-0.1-0.38-0.18-0.6c-0.04-0.06-0.07-0.1-0.07-0.2h-0.03c-0.15-0.34-0.33-0.66-0.52-0.95h0.03
		c-0.98-1.57-2.34-3.12-2.8-3.64v-0.02c-0.09-0.09-0.17-0.13-0.17-0.13s2.73-4.12,4.41-1.33c0.14,0.37-0.17,1.34-1.86,1.34
		c0,0,1.97,3.07,2.46,5.21l0.07-0.04c0.83-0.29,1.38-0.5,1.7-0.58c0.2-0.07,0.32-0.07,0.47-0.11c-1.04-2.07-2.61-3.23-2.14-3.93
		c0.36-0.19,1.87,0.56,2.68-0.68c0.22-0.31,0.4-1.8,0.6-3.41c1.07,0.58,2.29,0.61,2.65,0.62c2.81-0.06,3.86-4.24,3.1-5.6
		c0.38-0.25,2.01-1.59,2.17-1.24c0.87,1.97,5.38,4.09,4.98-0.35c0.72,2.15,1.25,4.6,3.79,4.42c1.82-0.44,0.62-3.56,1.29-3.56
		c0.53,0.91,1.29,4.48,3.97,3.61c0.84-0.33,1.5-0.94,1.5-2.12c0.12-3.42-9.68-21.34-10.55-29.1c-0.17-0.05-0.3-0.11-0.45-0.19
		c-0.96-0.45-1.03-2.02-0.91-3.15c0-0.08,0.08-0.14,0.08-0.14c-1.21-0.28-3.05-1.31-3.36-4.57c0-2.94,1.3-4.39,1.58-4.39
		c0.12,0,0.15,0.17,0.1,0.26c-0.74,2.31-1.29,5.08,0.41,6.63c0.33,0.27,0.97,0.57,1.7,0.64c0.55-1,1.23-1.45,1.35-1.45
		c0.12,0.02,0.1,0.17,0.05,0.23c-0.93,1.59-0.91,3.77-0.05,4.77c0.42,0.46,1.2,0.76,1.81,0.82c2.71-1.01,4.11-6.23,4.76-7.85
		c1.77,0.39-2.97,10.9,0.69,13.17c1.51-0.12,2.39-1.86,2.89-3.39c1.22,3.09-3.86,9.61-0.2,11.09c2.24,0.57,3.03-5.15,3.09-4.42
		c0.61,8.73-3.95,12.94-1.02,14.28c2.5,1.15,3.31-5.93,3.31-5.05c-0.09,9.28-4.74,11.86-2.75,13.49c2.28,0.92,3.94-4.69,3.91-3.38
		c-0.19,8.34-4.38,10.56-2.55,13.2c2.18,3.02,6.16-5.43,6.36-3.83c0.22,1.94-4.52,11.55-1.79,12.23c2.31,0.58,3.12-2.75,3.32-3.44
		C274.22,172.41,274.45,149.13,274,141.28z M202.82,97.38c-0.1,0.14-0.35,0.14-0.39,0.07c-1.91-0.95-5.49-0.87-8.02,0.47
		c-1.88,0.98-3.38,2.86-3.66,3c-0.33,0.15,3.05-5,8.63-5.53C202.72,95.41,203.1,97.12,202.82,97.38z M214.89,112.89
		c-0.77,1.35-1.9,2.96-3.59,3.39c-3.22,0.76-6.39-1.85-6.49-2.24c-0.18-0.35,2.62,1.3,5.26,1.12c2-0.14,3.56-1.52,4.72-2.45
		C214.89,112.55,215.02,112.71,214.89,112.89z M80.22,199.76L80.22,199.76L80.22,199.76h0.01v0.03c0.41,0.3,0.93,0.59,1.34,0.97
		c0.14,0.12,0.26,0.27,0.37,0.4c-0.28,0.51-0.77,0.46-1.46,0.2l0,0c0,0-0.07-0.02-0.14-0.05c-0.54-0.28-1.12-0.62-1.49-0.93
		c-0.51,0.78,0.42,1.55,0.91,2.2c-0.11,0.23-0.33,0.34-0.67,0.41v-0.04c-0.36,0.07-0.81,0-1.07-0.11h-0.02l-0.03-0.03
		c-0.97-0.44-1.11-1.81-1.11-2.6c-0.06-0.63-0.46-1.85-1.65-2.51C77.1,196.5,79.94,199.49,80.22,199.76z M97.33,96.25
		c2.78,1.05,3.04-2.55,3.74-1.69C102.02,96.19,99.33,98.67,97.33,96.25z M100.85,93.34c-1.1-0.09-1.97-0.82-3.01,0
		c-0.11,0.07-1.57,1.18-1.24,2.57c0.08,0.95-1.25,1.36-1.69,0.82c-1.05-2.35,2.7-5.59,3.64-5.87c2.11-0.77,3.7,0.53,6.02,0.86
		c1.38,0.22,2.81,0,3.92,0.1c2.52,0.24,1.85,2.06,1.44,2.3c-2.11,0.6-3.29-0.99-5.1-1.24C103.53,92.73,102.17,93.48,100.85,93.34z
		 M110.44,108.17c-3.02-1.05-6.54-1.54-7.81-3.98c4.4,0.33,8.75,0.4,11.55,1.96c0.11,0.07,0.23,0.13,0.3,0.21
		c0.9,0.59,3.17,2.4,4.19,5.81C114.9,109.85,113.57,109.3,110.44,108.17z M133.07,134.38c-0.84,0.2-1.01-3.62-5.64-2.69
		c-2.48,1.11-4.32,0.43-5.88-0.22C128.1,127.76,133.57,131.49,133.07,134.38z M200.67,144.19c0.29-0.07,0.58-0.1,0.89-0.1h0.07
		c0.35,0,0.66,0.05,1,0.15c0.18,0.02,0.85,1.22,1.12,2.41l0,0l0,0c0.09,0.29,0.62,2.13,1.22,2.74c0.6,0.62,0.38,1.8-1.13,1.62h-0.09
		c-1.59-0.26-3.42-2.74-2.64-5.25c-0.45-0.08-0.81-0.08-1.12-0.04v-0.01l-0.1,0.01c-0.21,0.02-0.37,0.06-0.55,0.15
		c-0.07,0.01-0.11,0.04-0.18,0.06c-0.08,0.04-0.2,0.11-0.3,0.19c-0.07,0.03-0.17,0.08-0.25,0.13c-0.38,0.32-0.5,0.91-1.06,0.93
		c0.05-0.97,0.58-1.76,1.38-2.3l0.02-0.05C199.46,144.54,200.04,144.31,200.67,144.19z M134.04,152.9c-0.07,0.14-0.1,0.27-0.14,0.39
		c-0.1,0.22-0.18,0.41-0.28,0.6c-0.05,0.09-0.07,0.19-0.15,0.25c-0.07,0.14-0.13,0.28-0.24,0.41c-0.06,0.08-0.08,0.15-0.17,0.24
		c-0.12,0.21-0.23,0.37-0.4,0.5c-0.03,0.06-0.04,0.1-0.08,0.13c-0.12,0.13-0.27,0.23-0.42,0.35c0,0.04-0.08,0.07-0.15,0.13
		c-0.17,0.13-0.33,0.22-0.51,0.31h-0.03c-0.22,0.12-0.4,0.17-0.62,0.22c0,0-0.04,0.02-0.14,0.04c-0.23,0.04-0.47,0.07-0.7,0.04
		c-0.08-0.16-0.14-0.35-0.14-0.47l0,0c0-0.68,0.76-1.31,1.07-2.07c0.31-0.71,0.24-1.22,0.63-1.76c0.74-0.08,1.34,0.19,1.53-0.47
		c-1.05-0.87-1.14-2.6,0.23-4.01c1.97-2.01,0-6.24,0.38-6.74c0.55,0.49,1,1.88,1.18,3.66c0,0.14,0.03,0.29,0.03,0.43
		c0.02,0.2,0.02,0.37,0.02,0.58c0,0.15,0,0.32,0,0.49c0.04,0.13,0.04,0.28,0.04,0.44c0,0.13,0,0.26,0,0.39
		c0,0.23-0.04,0.49-0.04,0.73c0,0.13,0,0.26,0,0.41c0,0.17-0.02,0.34-0.02,0.52c-0.03,0.11-0.03,0.25-0.03,0.36
		c-0.02,0.23-0.02,0.48-0.1,0.72c-0.04,0.15-0.04,0.31-0.07,0.47c-0.01,0.13-0.05,0.31-0.07,0.47c0,0.13-0.05,0.25-0.1,0.37
		c0,0.15-0.06,0.3-0.09,0.44c-0.07,0.25-0.09,0.45-0.2,0.69c0,0.13-0.04,0.24-0.11,0.4C134.13,152.67,134.08,152.79,134.04,152.9z
		 M197.54,167.33c-0.42,0.7-4.52,7.06-15.26,7.06c-1,0-9.62,0.18-12.57,5.67c0,0-0.1,0.1-0.16,0.25c-0.32,0.6-1.47,2.34-1.92,3.32
		c-0.1,0.16-0.32,0.3-0.49,0.3c-0.22,0-0.42-0.1-0.48-0.3c-0.47-0.97-1.57-2.72-1.94-3.32c-0.1-0.14-0.15-0.25-0.15-0.25
		c-2.94-5.48-11.6-5.67-12.55-5.67c-10.78,0-14.85-6.36-15.31-7.08c-5.36-7.85-0.32-16.76-0.26-16.83
		c4.41-7.62,3.97-12.87,3.84-13.81c0-8.39-5.32-14.78-5.88-15.46c-0.6-0.67-0.67-1.29-0.64-1.69c0.15-0.78,0.71-1.24,0.92-1.31
		c1.19-0.83,3.73-2.41,4.84-3.1l0.49-0.32c0.11-0.03,0.29-0.1,0.29-0.1c0.45,0,0.7,0.2,1.17,0.56c1.06,0.82,3.02,2.34,6.41,2.34
		c0.6,0,1.22-0.06,1.83-0.15c1.82-0.28,4.7-1.75,4.7-1.75c0.97-0.51,2.06-0.96,2.58-1.22l0.25-0.08c4.77-1.99,8.77-2.14,9.91-2.14
		c1.1,0,5.12,0.15,9.87,2.11l0.26,0.11c0.5,0.22,1.66,0.71,2.56,1.21c0,0,2.95,1.49,4.74,1.76c0.63,0.09,1.24,0.15,1.85,0.15
		c3.35,0,5.31-1.52,6.38-2.34c0.46-0.37,0.75-0.56,1.07-0.56c0,0,0.38,0.07,0.5,0.16c0,0,0.17,0.13,0.48,0.33
		c1.17,0.73,3.59,2.26,4.86,3.09c0,0,0.68,0.46,0.77,1.24c0.03,0.41,0,1.03-0.62,1.69c-0.6,0.69-5.85,7.08-5.82,15.36
		c-0.19,1.05-0.62,6.29,3.79,13.92C198,150.87,202.81,159.64,197.54,167.33z M205.14,160.86L205.14,160.86
		c-0.07,0.11-0.17,0.22-0.27,0.35l0,0c-0.08,0.07-0.18,0.18-0.3,0.28v0.02c-0.09,0.07-0.19,0.09-0.3,0.15
		c-0.03,0.04-0.07,0.06-0.07,0.06c-0.08,0.05-0.22,0.05-0.3,0.05l-0.11,0.04c0,0-0.18,0-0.29-0.04h-0.13
		c-0.08,0-0.19-0.03-0.27-0.07c-0.13-0.04-0.13-0.04-0.19-0.09c-0.1-0.03-0.21-0.09-0.33-0.14c-0.04-0.07-0.13-0.08-0.15-0.12
		c-0.14-0.07-0.27-0.2-0.39-0.31c-0.07-0.05-0.12-0.08-0.12-0.08s-0.77-1.23,0.29-1.37c0.22,0.13,0.33,0.29,0.44,0.38
		c0.05,0.03,0.1,0.07,0.16,0.07c0.08,0.09,0.14,0.11,0.23,0.13c0.07,0.04,0.1,0.05,0.1,0.05c0.08,0,0.18,0,0.24,0l0.03-0.05
		c0.07-0.02,0.15-0.04,0.17-0.13l0.11-0.07c0.04-0.06,0.05-0.13,0.1-0.25c0,0,0-0.06,0.01-0.11c0.03-0.1,0.11-0.24,0.11-0.4
		l0.06-0.11c0.02-0.17,0.02-0.26,0.02-0.38c0.04-0.11,0.04-0.19,0.05-0.25c0-0.11,0-0.24,0.04-0.32c0.11-1.9,0-4.52,0.55-5.38
		c0.06-0.1,0.12-0.13,0.17-0.19l0.08-0.03c0.03-0.04,0.1-0.1,0.2-0.1l0,0l0,0c0,0,0.24,0.04,0.31,0.1c0,0,0.07,0.05,0.08,0.08
		c0.07,0.04,0.09,0.08,0.09,0.08l0.09,0.22c0,0,0.05,0.14,0.05,0.22c0,0.07,0.02,0.14,0.02,0.23c0,0.11,0,0.23,0,0.37v0.19
		c0,0.51-0.02,1.12,0,1.86c0,0.1,0,0.22,0,0.31v0.04c0.03,0.43,0.08,0.87,0.13,1.36C205.96,158.5,205.74,159.91,205.14,160.86z
		 M225.03,164.72c-5.65,0.4-9.31-4.71-9.02-4.6c0.29,0.07,1.95,1.92,3.89,2.68c2.63,1.05,6.27,0.46,8.06-0.99
		c0.1-0.06,0.32-0.09,0.47,0C228.69,162.08,228.42,164.03,225.03,164.72z M121.41,181.35c-0.03,0.12-0.05,0.18-0.1,0.28
		c0,0-0.08,0.07-0.13,0.08c0,0-0.06,0.1-0.13,0.11c-0.23,0.11-0.58,0.16-0.98,0.18c-0.61,0-1.3-0.1-1.77-0.18
		c-0.03,0.43,0.17,0.72,0.54,0.94h-0.04l0.08,0.01c0.11,0.11,0.27,0.18,0.44,0.27c0.27,0.14,0.54,0.28,0.75,0.38
		c0.05,0.59-1.01,0.99-1.52,0.99c-1.04,0-1.76-1.17-2.1-1.9c-0.06-0.07-0.22-0.14-0.33-0.21c-0.07-0.06-0.13-0.12-0.25-0.17
		c-0.92-0.52-2.3-0.68-3.64-0.76c0.24-2.44,6.91-0.77,7.09-0.73c0.72,0.19,1.58,0.19,2.12,0.54L121.41,181.35z M222.52,187.16v-0.02
		c-0.05,0.13-0.05,0.24-0.07,0.38c-1.27-0.02-3.96-1.88-3.99-1.9c-0.41-0.26-1.56-0.91-2.61-0.56l0,0l0,0
		c-1.04,0.5-1.55,1.59-2.17,2.13c-0.06-0.19-0.12-0.42-0.16-0.6l-0.02-0.09c-0.04-0.19-0.04-0.34-0.04-0.49c0-0.1,0-0.17,0-0.17
		c0-0.19,0-0.33,0.04-0.46c0.02-0.07,0.02-0.13,0.06-0.21c0.06-0.16,0.12-0.34,0.27-0.5c0.02-0.09,0.09-0.16,0.16-0.25
		c0,0,0.09-0.11,0.17-0.17c0.12-0.07,0.22-0.17,0.33-0.23c0.02-0.02,0.1-0.06,0.1-0.06c0.62-0.32,1.37-0.45,2.1-0.39l0,0
		c1.03,0.05,2.04,0.43,2.8,1.08c0.93,0.8,2.71,1.04,3.85,1.1C223.34,185.76,222.77,186.52,222.52,187.16z M247.15,113.61
		c-0.77,0.62-2.53,1.56-3.76,1.83c-2.27,0.58-4.44-0.25-5.42-1.66c1.72-0.55,3.2,0.64,5.57,0.34c0.67-0.07,1.57-0.24,2.18-0.41
		c0.72-0.22,1.2-0.91,1.96-0.91C247.92,113.07,247.34,113.42,247.15,113.61z M269.04,176.74c-0.4,2.32-1.58,8.23-1.78,7.73
		c4.91-44.45,2.21-55.45,1.37-55.29c-0.67,0.26-1.49,5.49-3.95,3.88c-2.43-1.54,5.53-11.36,2.33-16.74
		c-0.7-0.89-1.35,1.21-2.62,0.84c-3.29-1.08,1.77-9.55,0.87-10.43c-0.73-0.64-3.2-1.14-3.29-4.28c0-1.43,0.93-2.58-0.21-3.78
		c-0.91-0.88-0.73,0.83-1.67,0.4c-1.58-1.63-0.17-3.47-0.91-4.68c-0.43-0.31-1.49,1.02-2.29,0.35c-0.93-0.74,0.49-2.17-0.63-2.66
		c-1.46,0.19-3.58,1.79-3.15,4.12c0.24,1.25,1.69,2.05,1.56,3.42c-0.06,1.19-1.56,2.64-1.81,3.26c-2.14,4.78,1.44,5.81,0.95,7.46
		c-0.22,0.82-1.72,1.28-2.73,0.91c-1.29-0.54-1.58-4.82-1.17-6.59c0.52-2.01,3.29-4.45,3.29-5.57c-0.02-1.21-1.37-2.63-1.51-4.26
		c-0.2-2.63,1.74-5.12,4.31-4.59c1.69,0.34,2.77,1.76,3.78,2.99c0.38,0.48,0.97,0.9,1.33,1.31c2.97,3.66,5.33,10.22,6.78,15.48
		C272.13,125.48,274.12,149.84,269.04,176.74z"/>
	<g>
		<path class="st3" d="M387.18,70.06l-0.65-26.64h-0.19c-0.56,3.37-1.12,5.8-1.54,7.62l-4.49,19.02h-9.02l-4.3-19.02
			c-0.42-1.82-0.98-4.25-1.59-7.62h-0.19l-0.42,26.64h-5.61l1.22-31.55h10.52c0,0,3.46,15.89,5.28,26.08h0.14
			c2.1-10.14,6.22-26.08,6.22-26.08h10.33l1.22,31.55H387.18z"/>
		<path class="st3" d="M401.25,70.06V51.55l-2.66-0.56v-3.83h8.74v22.9H401.25z M401.06,37.81h6.17v5.56h-6.17V37.81z"/>
		<path class="st3" d="M427.1,70.06v-13.6c0-3.46-1.31-5.09-4.11-5.09c-1.59,0-2.94,0.7-4.02,1.4v17.29h-6.12v-22.9h4.21l0.93,2.62
			c1.31-1.54,3.83-3.08,7.25-3.08c5.79,0,8.08,3.41,8.08,9.21v14.16H427.1z"/>
		<path class="st3" d="M440.18,70.06V51.55l-2.66-0.56v-3.83h8.74v22.9H440.18z M440,37.81h6.17v5.56H440V37.81z"/>
		<path class="st3" d="M457.1,53.19c0,3.55,9.91,2.48,9.91,9.96c0,4.16-3.08,7.38-9.02,7.38c-2.76,0-5.33-0.79-6.87-1.68l1.26-4.25
			c1.08,0.75,3.32,1.59,5.42,1.59c2.01,0,3.37-1.12,3.37-2.52c0-4.11-9.77-2.76-9.77-10.56c0-3.37,2.57-6.4,8.74-6.4
			c2.38,0,4.86,0.47,6.45,1.12l-0.84,4.44c-1.54-0.7-3.51-1.17-5.52-1.17C458.13,51.09,457.1,51.88,457.1,53.19z"/>
		<path class="st3" d="M480.28,70.53c-4.07,0-6.73-1.92-6.73-7.67V51.51h-3.41v-4.35h3.41v-3.97l6.03-1.96v5.94h6.12v4.35h-6.12
			v11.22c0,1.59,0.79,2.62,2.43,2.62c1.26,0,2.57-0.37,3.51-0.84l0.93,4.49C485.1,69.78,482.71,70.53,480.28,70.53z"/>
		<path class="st3" d="M494.44,60.25c0,3.65,2.06,5.66,5.89,5.66c2.34,0,4.72-0.89,6.73-1.92l1.17,4.3
			c-1.92,1.03-5.05,2.24-8.65,2.24c-7.06,0-11.26-4.39-11.26-11.96c0-7.06,3.41-11.87,10.75-11.87c6.92,0,9.63,5.14,9.63,10.89v2.66
			H494.44z M498.74,51.18c-3.04,0-4.3,2.76-4.3,5.47h8.37C502.81,53.7,501.92,51.18,498.74,51.18z"/>
		<path class="st3" d="M526.32,52.25c-0.75-0.23-1.82-0.37-2.85-0.37c-1.64,0-3.08,0.7-4.11,1.54v16.64h-6.08v-22.9h4.25l0.65,3.08
			h0.14c0.7-1.64,2.76-3.51,5.47-3.51c1.22,0,2.15,0.19,2.66,0.33L526.32,52.25z"/>
		<path class="st3" d="M531.88,70.06V51.55l-2.66-0.56v-3.83h8.74v22.9H531.88z M531.69,37.81h6.17v5.56h-6.17V37.81z"/>
		<path class="st3" d="M564.08,58.56c0,7.81-3.93,11.96-10.75,11.96c-6.87,0-10.75-4.11-10.75-11.96c0-6.73,3.74-11.87,10.75-11.87
			C560.25,46.69,564.08,51.83,564.08,58.56z M557.82,58.56c0-5.52-1.64-7.43-4.49-7.43c-2.85,0-4.44,1.96-4.44,7.43
			c0,5.33,1.45,7.48,4.44,7.48S557.82,64.03,557.82,58.56z"/>
		<path class="st3" d="M593.76,48.94c-0.37-1.31-0.56-2.48-0.56-4.21v-6.92h6.08v32.25h-4.96l-0.7-2.52
			c-0.94,1.4-3.13,2.99-6.08,2.99c-5.19,0-9.35-3.74-9.35-11.92c0-7.57,4.3-11.92,9.86-11.92C590.53,46.69,592.5,47.53,593.76,48.94
			z M593.2,52.4c-0.93-0.56-2.38-1.12-4.16-1.12c-2.9,0-4.72,1.96-4.72,7.29c0,5.47,1.73,7.52,4.63,7.52c1.54,0,3.08-0.75,4.25-1.96
			V52.4z"/>
		<path class="st3" d="M610.02,60.25c0,3.65,2.06,5.66,5.89,5.66c2.34,0,4.72-0.89,6.73-1.92l1.17,4.3
			c-1.92,1.03-5.05,2.24-8.65,2.24c-7.06,0-11.26-4.39-11.26-11.96c0-7.06,3.41-11.87,10.75-11.87c6.92,0,9.63,5.14,9.63,10.89v2.66
			H610.02z M614.32,51.18c-3.04,0-4.3,2.76-4.3,5.47h8.37C618.39,53.7,617.5,51.18,614.32,51.18z"/>
		<path class="st3" d="M371.39,98.94v26.36h-6.36V98.94h-7.62v-5.19h21.83v5.19H371.39z"/>
		<path class="st3" d="M391.48,107.49c-0.75-0.23-1.82-0.37-2.85-0.37c-1.64,0-3.08,0.7-4.11,1.54v16.64h-6.08v-22.9h4.25l0.65,3.08
			h0.14c0.7-1.64,2.76-3.51,5.47-3.51c1.22,0,2.15,0.19,2.66,0.33L391.48,107.49z"/>
		<path class="st3" d="M408.82,125.3l-0.84-2.71c-1.17,1.59-3.46,3.18-6.68,3.18c-4.58,0-7.66-2.94-7.66-7.34
			c0-4.25,3.13-6.78,8.65-6.78h4.81v-1.17c0-2.94-1.68-3.88-4.02-3.88c-2.71,0-5,0.7-6.87,1.54l-1.54-4.35
			c2.29-0.98,5.42-1.87,9.02-1.87c6.5,0,9.3,2.99,9.3,8.83v14.54H408.82z M407.09,115.29h-3.79c-2.52,0-3.69,1.22-3.69,2.94
			c0,2.1,1.12,3.37,3.41,3.37c1.45,0,2.94-0.65,4.07-1.54V115.29z"/>
		<path class="st3" d="M432.52,125.3v-13.6c0-3.46-1.31-5.09-4.11-5.09c-1.59,0-2.94,0.7-4.02,1.4v17.29h-6.12v-22.9h4.21l0.93,2.62
			c1.31-1.54,3.83-3.08,7.25-3.08c5.79,0,8.08,3.41,8.08,9.21v14.16H432.52z"/>
		<path class="st3" d="M449.02,108.42c0,3.55,9.91,2.48,9.91,9.96c0,4.16-3.08,7.38-9.02,7.38c-2.76,0-5.33-0.79-6.87-1.68
			l1.26-4.25c1.08,0.75,3.32,1.59,5.42,1.59c2.01,0,3.37-1.12,3.37-2.52c0-4.11-9.77-2.76-9.77-10.56c0-3.37,2.57-6.4,8.74-6.4
			c2.38,0,4.86,0.47,6.45,1.12l-0.84,4.44c-1.54-0.7-3.51-1.17-5.52-1.17C450.04,106.32,449.02,107.12,449.02,108.42z"/>
		<path class="st3" d="M469.91,127.31v6.87h-6.22V102.4h5.28l0.47,2.48c1.03-1.45,3.46-2.94,6.03-2.94c5.38,0,9.21,3.83,9.21,11.87
			c0,7.9-4.67,11.96-10,11.96c-2.62,0-4.11-0.89-5.56-2.66C469.11,123.1,469.91,125.62,469.91,127.31z M469.91,118.99
			c0.93,1.31,2.38,2.29,4.02,2.29c2.76,0,4.63-1.96,4.63-7.48c0-5.47-1.73-7.38-4.49-7.38c-1.59,0-3.18,0.84-4.16,1.87V118.99z"/>
		<path class="st3" d="M509.87,113.8c0,7.81-3.93,11.96-10.75,11.96c-6.87,0-10.75-4.11-10.75-11.96c0-6.73,3.74-11.87,10.75-11.87
			C506.04,101.93,509.87,107.07,509.87,113.8z M503.61,113.8c0-5.52-1.64-7.43-4.49-7.43c-2.85,0-4.44,1.96-4.44,7.43
			c0,5.33,1.45,7.48,4.44,7.48S503.61,119.27,503.61,113.8z"/>
		<path class="st3" d="M527.44,107.49c-0.75-0.23-1.82-0.37-2.85-0.37c-1.64,0-3.08,0.7-4.11,1.54v16.64h-6.08v-22.9h4.25l0.65,3.08
			h0.14c0.7-1.64,2.76-3.51,5.47-3.51c1.22,0,2.15,0.19,2.66,0.33L527.44,107.49z"/>
		<path class="st3" d="M539.59,125.76c-4.07,0-6.73-1.92-6.73-7.67v-11.36h-3.41v-4.35h3.41v-3.97l6.03-1.96v5.94h6.12v4.35h-6.12
			v11.22c0,1.59,0.79,2.62,2.43,2.62c1.26,0,2.57-0.37,3.5-0.84l0.94,4.49C544.41,125.02,542.02,125.76,539.59,125.76z"/>
		<path class="st3" d="M553.75,115.48c0,3.65,2.06,5.66,5.89,5.66c2.34,0,4.72-0.89,6.73-1.92l1.17,4.3
			c-1.92,1.03-5.05,2.24-8.65,2.24c-7.06,0-11.26-4.39-11.26-11.96c0-7.06,3.41-11.87,10.75-11.87c6.92,0,9.63,5.14,9.63,10.89v2.66
			H553.75z M558.05,106.41c-3.04,0-4.3,2.76-4.3,5.47h8.37C562.12,108.94,561.23,106.41,558.05,106.41z"/>
		<path class="st3" d="M577.92,108.42c0,3.55,9.91,2.48,9.91,9.96c0,4.16-3.08,7.38-9.02,7.38c-2.76,0-5.33-0.79-6.87-1.68
			l1.26-4.25c1.08,0.75,3.32,1.59,5.42,1.59c2.01,0,3.37-1.12,3.37-2.52c0-4.11-9.77-2.76-9.77-10.56c0-3.37,2.57-6.4,8.74-6.4
			c2.38,0,4.86,0.47,6.45,1.12l-0.84,4.44c-1.54-0.7-3.51-1.17-5.52-1.17C578.94,106.32,577.92,107.12,577.92,108.42z"/>
		<path class="st3" d="M611.66,124.78l-4.25,0.75l-6.82-23.14h6.87l4.86,19.21h0.09l4.91-19.21h6.08l-7.06,23.46
			c-1.96,6.59-5.28,9.02-10,9.02c-2.57,0-5.47-1.45-6.45-2.29l1.92-4.16h0.56c0.19,0.14,2.1,1.64,4.25,1.64
			c2.43,0,4.02-1.68,4.86-4.63L611.66,124.78z"/>
		<path class="st3" d="M371.39,154.17v26.36h-6.36v-26.36h-7.62v-5.19h21.83v5.19H371.39z"/>
		<path class="st3" d="M382.79,170.72c0,3.65,2.06,5.66,5.89,5.66c2.34,0,4.72-0.89,6.73-1.92l1.17,4.3
			c-1.92,1.03-5.05,2.24-8.65,2.24c-7.06,0-11.26-4.39-11.26-11.96c0-7.06,3.41-11.87,10.75-11.87c6.92,0,9.63,5.14,9.63,10.89v2.66
			H382.79z M387.09,161.65c-3.04,0-4.3,2.76-4.3,5.47h8.37C391.16,164.17,390.27,161.65,387.09,161.65z"/>
		<path class="st3" d="M401.72,174.46v-26.17h6.03v25.85c0,1.92,1.17,2.2,3.69,2.2v4.3c0,0-1.78,0.37-3.37,0.37
			C403.4,181,401.72,178.52,401.72,174.46z"/>
		<path class="st3" d="M420.65,170.72c0,3.65,2.06,5.66,5.89,5.66c2.34,0,4.72-0.89,6.73-1.92l1.17,4.3
			c-1.92,1.03-5.05,2.24-8.65,2.24c-7.06,0-11.26-4.39-11.26-11.96c0-7.06,3.41-11.87,10.75-11.87c6.92,0,9.63,5.14,9.63,10.89v2.66
			H420.65z M424.95,161.65c-3.04,0-4.3,2.76-4.3,5.47h8.37C429.01,164.17,428.12,161.65,424.95,161.65z"/>
		<path class="st3" d="M457.76,178.99c-1.31,0.7-4.39,2.01-7.85,2.01c-6.82,0-10.94-3.88-10.94-11.92c0-7.48,4.11-11.92,10.89-11.92
			c3.04,0,5.66,0.61,7.85,1.87l-1.59,4.16c-1.64-0.98-3.74-1.4-5.75-1.4c-3.18,0-5.19,2.15-5.19,7.29c0,5.19,1.92,7.29,5.23,7.29
			c2.38,0,4.72-0.89,6.22-1.73L457.76,178.99z"/>
		<path class="st3" d="M482.39,169.03c0,7.81-3.93,11.96-10.75,11.96c-6.87,0-10.75-4.11-10.75-11.96c0-6.73,3.74-11.87,10.75-11.87
			C478.55,157.16,482.39,162.3,482.39,169.03z M476.12,169.03c0-5.52-1.64-7.43-4.49-7.43c-2.85,0-4.44,1.96-4.44,7.43
			c0,5.33,1.45,7.48,4.44,7.48S476.12,174.5,476.12,169.03z"/>
		<path class="st3" d="M507.2,166.37v14.16h-6.17v-13.6c0-3.46-1.26-5.09-4.11-5.09c-1.59,0-2.8,0.7-3.88,1.4v17.29h-6.12v-22.9
			h4.11l1.03,2.66c1.31-1.59,3.55-3.13,6.78-3.13c3.74,0,5.98,1.12,7.15,3.22c1.36-1.64,3.74-3.22,6.92-3.22
			c6.54,0,8.46,3.41,8.46,9.21v14.16h-6.22v-13.6c0-3.46-1.45-5.09-4.3-5.09c-1.5,0-2.85,0.7-3.88,1.4
			C507.16,164.17,507.2,165.25,507.2,166.37z"/>
		<path class="st3" d="M542.3,180.53l-0.94-2.8c-1.07,1.4-3.5,3.27-7.15,3.27c-5.7,0-8.32-3.18-8.32-9.49v-13.88h6.08v13.93
			c0,3.51,1.26,4.77,4.02,4.77c1.59,0,3.04-0.61,4.11-1.36v-17.34h6.22v22.9H542.3z"/>
		<path class="st3" d="M565.62,180.53v-13.6c0-3.46-1.31-5.09-4.11-5.09c-1.59,0-2.94,0.7-4.02,1.4v17.29h-6.12v-22.9h4.21
			l0.93,2.62c1.31-1.54,3.83-3.08,7.25-3.08c5.79,0,8.08,3.41,8.08,9.21v14.16H565.62z"/>
		<path class="st3" d="M578.71,180.53v-18.51l-2.66-0.56v-3.83h8.74v22.9H578.71z M578.52,148.28h6.17v5.56h-6.17V148.28z"/>
		<path class="st3" d="M608.58,178.99c-1.31,0.7-4.39,2.01-7.85,2.01c-6.82,0-10.94-3.88-10.94-11.92c0-7.48,4.11-11.92,10.89-11.92
			c3.04,0,5.66,0.61,7.85,1.87l-1.59,4.16c-1.64-0.98-3.74-1.4-5.75-1.4c-3.18,0-5.19,2.15-5.19,7.29c0,5.19,1.92,7.29,5.23,7.29
			c2.38,0,4.72-0.89,6.22-1.73L608.58,178.99z"/>
		<path class="st3" d="M626.75,180.53l-0.84-2.71c-1.17,1.59-3.46,3.18-6.68,3.18c-4.58,0-7.67-2.94-7.67-7.34
			c0-4.25,3.13-6.78,8.65-6.78h4.81v-1.17c0-2.94-1.68-3.88-4.02-3.88c-2.71,0-5,0.7-6.87,1.54l-1.54-4.35
			c2.29-0.98,5.42-1.87,9.02-1.87c6.5,0,9.3,2.99,9.3,8.83v14.54H626.75z M625.03,170.53h-3.79c-2.52,0-3.69,1.22-3.69,2.94
			c0,2.1,1.12,3.37,3.41,3.37c1.45,0,2.94-0.65,4.07-1.54V170.53z"/>
		<path class="st3" d="M654.47,178.99c-1.31,0.7-4.39,2.01-7.85,2.01c-6.82,0-10.94-3.88-10.94-11.92c0-7.48,4.11-11.92,10.89-11.92
			c3.04,0,5.66,0.61,7.85,1.87l-1.59,4.16c-1.64-0.98-3.74-1.4-5.75-1.4c-3.18,0-5.19,2.15-5.19,7.29c0,5.19,1.92,7.29,5.23,7.29
			c2.38,0,4.72-0.89,6.22-1.73L654.47,178.99z"/>
		<path class="st3" d="M660.4,180.53v-18.51l-2.66-0.56v-3.83h8.74v22.9H660.4z M660.22,148.28h6.17v5.56h-6.17V148.28z"/>
		<path class="st3" d="M692.61,169.03c0,7.81-3.93,11.96-10.75,11.96c-6.87,0-10.75-4.11-10.75-11.96c0-6.73,3.74-11.87,10.75-11.87
			C688.77,157.16,692.61,162.3,692.61,169.03z M686.34,169.03c0-5.52-1.64-7.43-4.49-7.43c-2.85,0-4.44,1.96-4.44,7.43
			c0,5.33,1.45,7.48,4.44,7.48S686.34,174.5,686.34,169.03z"/>
		<path class="st3" d="M711.39,180.53v-13.6c0-3.46-1.31-5.09-4.11-5.09c-1.59,0-2.94,0.7-4.02,1.4v17.29h-6.12v-22.9h4.21
			l0.93,2.62c1.31-1.54,3.83-3.08,7.25-3.08c5.79,0,8.08,3.41,8.08,9.21v14.16H711.39z"/>
		<path class="st3" d="M727.84,170.72c0,3.65,2.06,5.66,5.89,5.66c2.34,0,4.72-0.89,6.73-1.92l1.17,4.3
			c-1.92,1.03-5.05,2.24-8.65,2.24c-7.06,0-11.26-4.39-11.26-11.96c0-7.06,3.41-11.87,10.75-11.87c6.92,0,9.63,5.14,9.63,10.89v2.66
			H727.84z M732.14,161.65c-3.04,0-4.3,2.76-4.3,5.47h8.37C736.21,164.17,735.32,161.65,732.14,161.65z"/>
		<path class="st3" d="M752.01,163.66c0,3.55,9.91,2.48,9.91,9.96c0,4.16-3.08,7.38-9.02,7.38c-2.76,0-5.33-0.79-6.87-1.68
			l1.26-4.25c1.08,0.75,3.32,1.59,5.42,1.59c2.01,0,3.37-1.12,3.37-2.52c0-4.11-9.77-2.76-9.77-10.56c0-3.37,2.57-6.4,8.74-6.4
			c2.38,0,4.86,0.47,6.45,1.12l-0.84,4.44c-1.54-0.7-3.51-1.17-5.52-1.17C753.04,161.56,752.01,162.35,752.01,163.66z"/>
	</g>
	<rect class="st4" width="800" height="728"/>
</g>
</svg>
