<?xml version="1.0" encoding="utf-8"?>
<!-- Generator: Adobe Illustrator 27.9.0, SVG Export Plug-In . SVG Version: 6.00 Build 0)  -->
<svg version="1.1" id="Capa_1" xmlns="http://www.w3.org/2000/svg" xmlns:xlink="http://www.w3.org/1999/xlink" x="0px" y="0px"
	 viewBox="0 0 511.07 518.51" style="enable-background:new 0 0 511.07 518.51;" xml:space="preserve">
<style type="text/css">
	.st0{fill:url(#SVGID_1_);}
	.st1{fill:url(#SVGID_00000018206600597129133180000006412168419771952274_);}
	.st2{fill:url(#SVGID_00000023277920000369018210000011234315216851925902_);}
	.st3{fill:url(#SVGID_00000073723874479343150240000015532012971437839789_);}
	.st4{fill-rule:evenodd;clip-rule:evenodd;fill:url(#SVGID_00000065778795644241247690000009117412147220829355_);}
	.st5{fill:#212E66;}
</style>
<g>
	<linearGradient id="SVGID_1_" gradientUnits="userSpaceOnUse" x1="113.4043" y1="296.9957" x2="474.2281" y2="296.9957">
		<stop  offset="5.586592e-03" style="stop-color:#0854BB"/>
		<stop  offset="0.5971" style="stop-color:#0CACCB"/>
		<stop  offset="1" style="stop-color:#0EE4D5"/>
	</linearGradient>
	<path class="st0" d="M423.89,116.58c-3.63,0-7.12,1.44-9.68,4.01c-2.57,2.57-4.01,6.05-4.01,9.68c0,7.56,6.13,13.7,13.7,13.69
		c1.64,0,3.27-0.3,4.8-0.88c23.01,34.27,35.35,74.65,35.35,116.02c0,115-93.12,208.12-208.12,208.12
		c-41.3,0-81.61-12.29-115.85-35.24c0.48-1.41,0.72-2.88,0.72-4.36c0-3.63-1.44-7.12-4.01-9.68c-2.57-2.57-6.05-4.01-9.68-4.01
		c-7.56,0-13.7,6.13-13.69,13.7c0,7.56,6.13,13.69,13.69,13.69c2.19,0,4.35-0.53,6.3-1.54c36.12,24.5,78.8,37.63,122.52,37.63
		c120.51,0,218.31-97.8,218.31-218.31c0-43.92-13.25-86.78-37.95-123c0.86-1.82,1.31-3.82,1.31-5.84
		C437.59,122.71,431.45,116.58,423.89,116.58z"/>
	
		<linearGradient id="SVGID_00000126319875024567474790000003193538292562283158_" gradientUnits="userSpaceOnUse" x1="37.6165" y1="220.9174" x2="397.8569" y2="220.9174">
		<stop  offset="5.586592e-03" style="stop-color:#0854BB"/>
		<stop  offset="0.5971" style="stop-color:#0CACCB"/>
		<stop  offset="1" style="stop-color:#0EE4D5"/>
	</linearGradient>
	<path style="fill:url(#SVGID_00000126319875024567474790000003193538292562283158_);" d="M255.92,40.8
		c-120.51,0-218.31,97.8-218.31,218.31c0,42.5,12.41,84.02,35.61,119.49c-2.04,2.46-3.16,5.55-3.16,8.74c0,3.63,1.44,7.12,4.01,9.68
		c2.57,2.57,6.05,4.01,9.68,4.01c7.56,0,13.7-6.13,13.69-13.7c0-7.56-6.13-13.69-13.69-13.69c-0.51,0-1.02,0.04-1.53,0.1
		C59.8,339.76,47.8,299.91,47.8,259.11c0-115,93.12-208.12,208.12-208.12c41.28,0,81.57,12.28,115.8,35.21
		c-0.83,1.79-1.26,3.75-1.26,5.72c0,7.56,6.13,13.69,13.69,13.69c7.56,0,13.7-6.13,13.7-13.69c0-3.63-1.44-7.12-4.01-9.68
		c-2.57-2.57-6.05-4.01-9.68-4.01c-1.63,0-3.24,0.3-4.77,0.86C343.07,54.17,300.03,40.8,255.92,40.8z"/>
	
		<linearGradient id="SVGID_00000077309990943532030110000017064586326805329304_" gradientUnits="userSpaceOnUse" x1="272.7697" y1="258.6837" x2="440.5925" y2="258.6837">
		<stop  offset="5.586592e-03" style="stop-color:#0854BB"/>
		<stop  offset="0.5971" style="stop-color:#0CACCB"/>
		<stop  offset="1" style="stop-color:#0EE4D5"/>
	</linearGradient>
	<path style="fill:url(#SVGID_00000077309990943532030110000017064586326805329304_);" d="M288.88,69.41
		c-7.56,0-13.69,6.13-13.69,13.69c0,7.56,6.13,13.7,13.69,13.7c4.7,0,9.07-2.42,11.57-6.39c76.19,20.07,129.95,89.06,129.95,168.7
		c0,80.22-54.55,149.65-131.64,169.14c-2.3-4.7-7.07-7.68-12.3-7.68c-7.56,0-13.7,6.13-13.7,13.69c0,3.63,1.44,7.12,4.01,9.68
		c2.57,2.57,6.05,4.01,9.68,4.01c5.9,0,11.14-3.79,12.99-9.39c82.48-19.98,141.14-93.99,141.14-179.46
		c0-84.48-57.31-157.77-138.29-178.74C301,73.99,295.39,69.41,288.88,69.41z"/>
	
		<linearGradient id="SVGID_00000086658046136281531380000017818293108419026050_" gradientUnits="userSpaceOnUse" x1="71.2507" y1="258.6837" x2="239.0495" y2="258.6837">
		<stop  offset="5.586592e-03" style="stop-color:#0854BB"/>
		<stop  offset="0.5971" style="stop-color:#0CACCB"/>
		<stop  offset="1" style="stop-color:#0EE4D5"/>
	</linearGradient>
	<path style="fill:url(#SVGID_00000086658046136281531380000017818293108419026050_);" d="M220.26,69.41
		c-6.79,0-12.56,4.98-13.55,11.71c-79.49,21.93-135.46,94.49-135.46,177.99c0,85.46,58.64,159.46,141.11,179.45
		c1.85,5.61,7.09,9.39,13,9.4c7.56,0,13.7-6.13,13.69-13.7c0-7.56-6.13-13.69-13.69-13.69c-5.23,0-10,2.98-12.3,7.68
		c-77.07-19.49-131.62-88.92-131.62-169.13c0-78.84,52.69-147.25,127.66-168.08c2.57,3.62,6.73,5.77,11.16,5.78
		c7.56,0,13.7-6.13,13.69-13.7C233.96,75.54,227.82,69.41,220.26,69.41z"/>
	
		<linearGradient id="SVGID_00000094608290873009988970000013567566628922863504_" gradientUnits="userSpaceOnUse" x1="152.3183" y1="259.3909" x2="360.3687" y2="259.3909">
		<stop  offset="0" style="stop-color:#34CFE3"/>
		<stop  offset="0.3733" style="stop-color:#2B94CF"/>
		<stop  offset="0.7978" style="stop-color:#2257BB"/>
		<stop  offset="1" style="stop-color:#1E3FB3"/>
	</linearGradient>
	<path style="fill-rule:evenodd;clip-rule:evenodd;fill:url(#SVGID_00000094608290873009988970000013567566628922863504_);" d="
		M208.45,133.73l43.14-25.86v39.22l-39.06,23.03h-53.01v-35.79L208.45,133.73z M159.52,183.63h51l41.07-23.1v-7.35l-41.07,23.1h-51
		V183.63z M159.52,198.67h51l41.07-23.1v-7.35l-41.07,23.1h-51V198.67z M350.89,198.67h-51.01l-41.06-23.1v-7.35l41.06,23.1h51.01
		V198.67z M350.89,183.63h-51.01l-41.06-23.1v-7.35l41.06,23.1h51.01V183.63z M301.96,133.73l-43.15-25.86v39.22l39.06,23.03h53.01
		v-35.79L301.96,133.73z M266.24,232.7l35.46,19.97v-48.63h58.67v50.13h-8.44v104.92l-91.94,51.81l-0.05-52.31l41.76-23.35v-58.33
		l-57.51-32.41v-32.74l11.01-5.84l11.04,5.83V232.7z M258.89,216.18V237l50.16,28.24v-18.43v-35.43h35.53h8.44v35.43h-8.44V354.8
		l-77.25,43.54l-0.03-35.43l41.75-23.34v-66.05l-1.23-1.59l-56.27-31.71v-24.02l3.66-1.94L258.89,216.18z M342.23,141.6v21.18
		h-42.35l-33.71-19.88v-22.04l33.71,20.2L342.23,141.6z M168.17,141.6v21.18h42.35l33.72-19.88v-22.04l-33.72,20.2L168.17,141.6z
		 M159.67,211.38h8.44h35.53v35.43v15.42l55.24,31.13v24.02l-3.67,1.95l-3.68-1.95v-20.81l-47.89-26.97v69.96l41.75,23.34
		l-0.03,35.43l-77.25-43.53V246.81h-8.44V211.38z M211,257.94l55.24,31.12v32.75l-11.02,5.84l-11.04-5.83v-20.95L211,282.18v53.06
		l41.75,23.35l-0.05,52.31l-91.94-51.81V254.17h-8.44v-50.13H211V257.94z"/>
	<g>
		<path class="st5" d="M0,250.17l0.2-3.45l21.61,1.24l0.63-11.02l3,0.17l-0.83,14.47L0,250.17z"/>
		<path class="st5" d="M20.59,220.21l-1.33,9.19l6.67,3.43l-0.51,3.52l-23.13-12.3l0.52-3.59l25.67-5.25l-0.51,3.56L20.59,220.21z
			 M5.9,222.78c0,0,2.13,0.87,3.32,1.47l7.35,3.85l1.07-7.4l-8.13,1.58c-1.3,0.24-3.59,0.43-3.59,0.43L5.9,222.78z"/>
		<path class="st5" d="M5.22,206.43l2.02-8.39c0.97-4.04,3.92-6.42,7.79-5.49c2.34,0.56,3.93,2.17,4.44,4.23l0.07,0.02
			c1.35-2.33,4.07-3.19,6.75-2.54c4.52,1.09,5.98,5.14,4.97,9.35l-2.07,8.59L5.22,206.43z M17.32,200.47
			c0.52-2.17-0.68-3.9-2.78-4.41c-2.11-0.51-3.84,0.44-4.4,2.75l-1.19,4.96l7.16,1.73L17.32,200.47z M28.38,202.74
			c0.62-2.58-0.64-4.5-3.08-5.09c-2.44-0.59-4.5,0.64-5.11,3.15l-1.29,5.37l8.18,1.97L28.38,202.74z"/>
		<path class="st5" d="M14.48,172.51c2.41-6.71,9.43-10.05,16.11-7.66c6.84,2.45,10.3,9.56,7.9,16.26
			c-2.41,6.71-9.61,10.02-16.45,7.57C15.36,186.3,12.08,179.22,14.48,172.51z M35.49,180.04c1.7-4.73-0.88-9.96-6.11-11.84
			c-5.06-1.82-10.24,0.63-11.94,5.36c-1.7,4.73,0.74,9.95,5.8,11.77C28.47,187.21,33.79,184.78,35.49,180.04z"/>
		<path class="st5" d="M22.13,154.35l3.3-6.78c1.13-2.32,1.79-3.21,2.52-3.9c1.95-1.85,4.89-2.24,7.81-0.82
			c2.83,1.37,4.45,4.1,4.06,6.9l0.06,0.03c0,0,0.4-0.11,1.33-0.17l10.89-0.53l-1.71,3.52l-11.1,0.39l-2.3,4.74l8.82,4.29l-1.51,3.11
			L22.13,154.35z M36.46,151.96c1.18-2.42,0.37-4.67-2.11-5.88c-1.63-0.79-3.1-0.73-4.28,0.09c-0.6,0.44-1.14,1.08-1.98,2.8
			l-1.74,3.58l7.94,3.86L36.46,151.96z"/>
		<path class="st5" d="M54.4,131.5l-4.82,7.94l4.79,5.77l-1.85,3.04l-16.46-20.38l1.89-3.1l25.67,5.22l-1.87,3.07L54.4,131.5z
			 M39.88,128.11c0,0,1.62,1.64,2.48,2.65l5.25,6.42l3.88-6.39l-8.1-1.73c-1.29-0.29-3.47-1.01-3.47-1.01L39.88,128.11z"/>
		<path class="st5" d="M50.25,111.71l-4.97,6.83l-2.43-1.77l11.98-16.46l2.43,1.77l-4.98,6.83l17.5,12.75l-2.04,2.79L50.25,111.71z"
			/>
		<path class="st5" d="M65.05,87.85c4.76-5.3,12.52-5.75,17.8-1.01c5.41,4.85,5.93,12.74,1.17,18.04
			c-4.76,5.3-12.68,5.66-18.08,0.81C60.67,100.94,60.3,93.15,65.05,87.85z M81.66,102.75c3.36-3.74,2.95-9.56-1.19-13.27
			c-4-3.59-9.72-3.28-13.08,0.46c-3.36,3.74-3.07,9.49,0.93,13.08C72.46,106.74,78.31,106.49,81.66,102.75z"/>
		<path class="st5" d="M78.96,73.93l5.61-5.04c1.92-1.73,2.87-2.3,3.8-2.67c2.5-0.98,5.38-0.24,7.55,2.18
			c2.1,2.34,2.58,5.48,1.16,7.93l0.05,0.05c0,0,0.42,0.05,1.29,0.34l10.29,3.61l-2.91,2.62l-10.43-3.82l-3.92,3.53l6.56,7.3
			l-2.57,2.31L78.96,73.93z M93.14,77.11c2-1.8,2.1-4.19,0.26-6.24c-1.21-1.35-2.6-1.84-4-1.52c-0.73,0.18-1.46,0.56-2.89,1.85
			l-2.96,2.66l5.91,6.57L93.14,77.11z"/>
		<path class="st5" d="M96.86,58.48l2.72-2.13l15.2,19.41l-2.72,2.13L96.86,58.48z"/>
		<path class="st5" d="M114.99,44.84c5.95-3.92,13.57-2.38,17.48,3.54c4,6.07,2.5,13.83-3.44,17.75c-5.95,3.92-13.7,2.25-17.7-3.81
			C107.42,56.39,109.04,48.76,114.99,44.84z M127.27,63.47c4.2-2.77,5.28-8.5,2.22-13.13c-2.96-4.49-8.57-5.64-12.77-2.88
			s-5.38,8.4-2.42,12.89C117.35,64.99,123.07,66.24,127.27,63.47z"/>
		<path class="st5" d="M140.66,30.25l7.43-3.4c6.86-3.14,13.24-1.11,16.49,5.97c3.26,7.11,0.64,13.3-6.22,16.45l-7.43,3.4
			L140.66,30.25z M156.89,46.63c5.05-2.31,6.98-6.81,4.45-12.33c-2.52-5.49-7.2-6.92-12.22-4.62l-4.06,1.86l7.77,16.95L156.89,46.63
			z"/>
		<path class="st5" d="M166.04,19.23l13.53-4.68l0.98,2.84l-10.27,3.55l2.52,7.29l8.35-2.88l0.98,2.84l-8.35,2.88l2.59,7.49
			l10.83-3.74l0.98,2.84l-14.09,4.87L166.04,19.23z"/>
		<path class="st5" d="M195.57,10.25l3.37-0.79l5.63,24l-3.37,0.79L195.57,10.25z"/>
		<path class="st5" d="M206.87,7.6l3.38-0.52l13.28,14.17c1.1,1.17,2.58,3.21,2.58,3.21l0.07-0.01c0,0-0.58-2.14-0.78-3.48
			l-2.44-15.84l3.42-0.53l3.76,24.37l-3.35,0.52l-13.31-14.13c-1.11-1.21-2.58-3.24-2.58-3.24l-0.07,0.01c0,0,0.58,2.14,0.79,3.52
			l2.44,15.81l-3.42,0.53L206.87,7.6z"/>
		<path class="st5" d="M240.34,6.56l-8.44,0.45l-0.16-3l20.33-1.1l0.16,3l-8.44,0.45L244.96,28l-3.45,0.19L240.34,6.56z"/>
		<path class="st5" d="M257.18,3.02l14.31,0.44l-0.09,3l-10.85-0.33l-0.24,7.71l8.83,0.27l-0.09,3l-8.83-0.27l-0.24,7.92l11.45,0.35
			l-0.09,3l-14.9-0.45L257.18,3.02z"/>
		<path class="st5" d="M278.66,4.03l3.44,0.38l-2.39,21.51l10.97,1.22l-0.33,2.98l-14.4-1.6L278.66,4.03z"/>
		<path class="st5" d="M298.08,6.55l3.41,0.59l-4.19,24.3l-3.41-0.59L298.08,6.55z"/>
		<path class="st5" d="M320.25,10.82c5.72,1.46,7.97,5.09,7.97,5.09l-2.33,2.07c0,0-2.08-3.02-6.14-4.05
			c-5.62-1.43-10.04,1.8-11.34,6.92c-1.41,5.55,1.41,10.34,6.41,11.61c4.13,1.05,7.53-1.26,7.53-1.26l0.88-3.45l-3.89-0.99
			l0.74-2.91l6.94,1.76l-3.06,12.01l-2.94-0.75l0.38-1.49c0.13-0.51,0.29-1.01,0.29-1.01l-0.07-0.02c0,0-3.35,2.25-8.08,1.04
			c-6.43-1.64-10.45-8.06-8.59-15.37C306.69,13.14,313.28,9.05,320.25,10.82z"/>
		<path class="st5" d="M336.92,16.08l13.46,4.88l-1.02,2.82l-10.21-3.7l-2.63,7.26l8.31,3.01l-1.02,2.82l-8.31-3.01l-2.7,7.45
			l10.77,3.91l-1.02,2.82l-14.02-5.08L336.92,16.08z"/>
		<path class="st5" d="M357.35,23.77l3.09,1.48l2.98,19.19c0.25,1.59,0.32,4.1,0.32,4.1l0.06,0.03c0,0,0.73-2.09,1.32-3.32
			l6.91-14.46l3.12,1.49l-10.63,22.24l-3.06-1.46l-3.02-19.17c-0.23-1.62-0.31-4.13-0.31-4.13l-0.06-0.03c0,0-0.73,2.09-1.33,3.35
			l-6.9,14.43l-3.12-1.49L357.35,23.77z"/>
		<path class="st5" d="M392.25,41.88c5.05,3.13,5.92,7.49,5.92,7.49l-2.82,1.29c0,0-1.02-3.79-4.64-6.04
			c-4.69-2.91-9.95-1.24-12.72,3.21c-2.78,4.48-2.02,10.21,2.64,13.1c3.95,2.45,8.16,1.28,8.16,1.28l0.27,3.08
			c0,0-4.94,1.54-10.19-1.72c-6.29-3.9-7.73-11.45-3.92-17.6C378.73,39.9,386.17,38.1,392.25,41.88z"/>
		<path class="st5" d="M405.09,51.01l2.79,2.04l-14.51,19.93l-2.79-2.03L405.09,51.01z"/>
		<path class="st5" d="M412.39,79.11l-7.12-5.96l-6.42,3.87l-2.73-2.29l22.62-13.22l2.79,2.33l-9.02,24.6l-2.76-2.31L412.39,79.11z
			 M417.93,65.26c0,0-1.86,1.36-2.99,2.05l-7.14,4.23l5.73,4.8l2.93-7.75c0.48-1.23,1.52-3.28,1.52-3.28L417.93,65.26z"/>
		<path class="st5" d="M434.43,100.95l-6.3-6.83l-6.87,3.01l-2.41-2.62l24.14-10.19l2.46,2.67l-12.12,23.23l-2.44-2.65
			L434.43,100.95z M441.71,87.92c0,0-2.02,1.1-3.23,1.65l-7.62,3.27l5.07,5.49l3.91-7.3c0.64-1.16,1.93-3.06,1.93-3.06L441.71,87.92
			z"/>
		<path class="st5" d="M454.84,97.73l4.57,6c1.57,2.05,2.06,3.04,2.35,4c0.77,2.57-0.2,5.38-2.78,7.35
			c-2.5,1.91-5.67,2.13-7.99,0.52l-0.06,0.04c0,0-0.08,0.41-0.44,1.26l-4.43,9.97l-2.37-3.11l4.65-10.09l-3.2-4.19l-7.8,5.95
			l-2.1-2.75L454.84,97.73z M450.52,111.6c1.63,2.14,4.01,2.43,6.2,0.76c1.44-1.1,2.05-2.44,1.84-3.86
			c-0.12-0.74-0.44-1.51-1.61-3.03l-2.41-3.17l-7.03,5.36L450.52,111.6z"/>
		<path class="st5" d="M469.35,123.17l-4.5-7.15l2.54-1.6l10.84,17.24l-2.54,1.6l-4.5-7.15l-18.33,11.53l-1.84-2.93L469.35,123.17z"
			/>
		<path class="st5" d="M480.39,135.88l1.65,3.04l-21.68,11.74l-1.65-3.04L480.39,135.88z"/>
		<path class="st5" d="M485.67,145.88l5.74,12.32l-2.72,1.27l-4.28-9.18l-7.34,3.42l3.64,7.82l-2.72,1.27l-3.64-7.82l-9.56,4.45
			l-1.46-3.13L485.67,145.88z"/>
		<path class="st5" d="M493.5,163.53l1.27,3.22l-22.93,9.05l-1.27-3.22L493.5,163.53z"/>
		<path class="st5" d="M501.34,184.53c1.76,5.67-0.44,9.53-0.44,9.53l-2.98-0.87c0,0,1.72-3.53,0.46-7.6
			c-1.64-5.27-6.71-7.46-11.71-5.91c-5.04,1.56-8.22,6.39-6.59,11.63c1.38,4.44,5.33,6.32,5.33,6.32l-1.82,2.5
			c0,0-4.74-2.07-6.57-7.98c-2.2-7.07,1.66-13.72,8.57-15.86C492.42,174.18,499.22,177.7,501.34,184.53z"/>
		<path class="st5" d="M505.05,199.87l0.77,3.37l-24.03,5.52l-0.77-3.37L505.05,199.87z"/>
		<path class="st5" d="M492.11,225.85l-1.46-9.17l-7.39-1.3l-0.56-3.52l25.74,4.88l0.57,3.59l-22.95,12.64l-0.57-3.55L492.11,225.85
			z M505.38,219.04c0,0-2.3-0.2-3.6-0.42l-8.16-1.49l1.18,7.38l7.3-3.92c1.18-0.61,3.3-1.48,3.3-1.48L505.38,219.04z"/>
		<path class="st5" d="M510.82,234.3l0.25,3.45l-21.59,1.58l0.81,11.01l-3,0.22l-1.06-14.45L510.82,234.3z"/>
	</g>
	<g>
		<g>
			<path class="st5" d="M209.16,485.74l14.02,2.51l-0.68,3.81l-9.59-1.71l-1.23,6.91l8.08,1.44l-0.68,3.82l-8.08-1.44l-1.76,9.86
				l-4.43-0.79L209.16,485.74z"/>
			<path class="st5" d="M229.32,488.9l4.48,0.47l-2.6,24.66l-4.48-0.47L229.32,488.9z"/>
			<path class="st5" d="M241.49,490.18l4.5,0.09l-0.31,15.89c-0.06,3.32,2.06,5.24,5.38,5.31c3.32,0.06,5.55-1.78,5.62-5.13
				l0.31-15.85l4.5,0.09l-0.31,15.89c-0.11,5.55-4.2,9.24-10.17,9.13c-6.01-0.12-9.95-3.96-9.84-9.52L241.49,490.18z"/>
			<path class="st5" d="M269.11,490.15l4.49-0.37l1.72,20.85l10.68-0.88l0.32,3.86l-15.17,1.25L269.11,490.15z"/>
			<path class="st5" d="M293.31,506.17c0,0,3.1,2.12,6.54,1.52c1.86-0.32,3.37-1.58,3.03-3.58c-0.76-4.37-12.15-1.6-13.46-9.1
				c-0.71-4.06,2.27-7.7,6.95-8.51c4.82-0.84,7.75,1.34,7.75,1.34l-1.3,3.95c0,0-2.71-1.73-5.77-1.19
				c-2.06,0.36-3.47,1.85-3.17,3.57c0.76,4.33,12.06,1.27,13.42,9.07c0.68,3.89-1.71,7.67-6.8,8.56c-5.44,0.95-9.01-1.87-9.01-1.87
				L293.31,506.17z"/>
		</g>
	</g>
</g>
</svg>
