<?xml version="1.0" encoding="utf-8"?>
<!-- Generator: Adobe Illustrator 27.9.0, SVG Export Plug-In . SVG Version: 6.00 Build 0)  -->
<svg version="1.1" id="Capa_1" xmlns="http://www.w3.org/2000/svg" xmlns:xlink="http://www.w3.org/1999/xlink" x="0px" y="0px"
	 viewBox="0 0 2000 550" style="enable-background:new 0 0 2000 550;" xml:space="preserve">
<style type="text/css">
	.st0{fill:none;}
	.st1{fill:#FFFFFF;}
	.st2{fill:none;stroke:#FFFFFF;stroke-width:2;stroke-miterlimit:10;}
</style>
<g>
	<rect class="st0" width="2000" height="550"/>
	<g>
		<g>
			<path class="st1" d="M63.01,318.65H34V151.79h29.01V318.65z M174.17,220.25v-68.46h29.01v166.86h-29.01v-69.39H76v-29.01H174.17z
				"/>
			<path class="st1" d="M378.89,271.77h-79.18l17.67-29.01h44.18l-29.04-48.05l-75.3,123.7h-37.35l90.5-150.85
				c2.94-4.79,6.73-8.74,11.37-11.83c4.02-2.78,7.58-4.25,10.68-4.41c3.4-0.31,7.2,0.85,11.37,3.48c4.79,3.1,8.82,7.35,12.07,12.76
				l88.65,150.84h-37.41L378.89,271.77z"/>
			<path class="st1" d="M536.42,318.65c-25.99,0-46.88-8.9-62.66-26.69c-14.24-16.24-21.35-35.74-21.35-58.48
				c0-22.43,6.81-41.15,20.42-56.16c15.47-17.02,36.67-25.53,63.59-25.53h93.99v29.01h-93.99c-16.71,0-30.25,5.49-40.61,16.48
				c-9.13,9.75-14,21.81-14.62,36.2c-0.46,15.16,3.87,28,13,38.52c10.21,11.76,24.29,17.64,42.24,17.64h93.99v29.01H536.42z"/>
			<path class="st1" d="M685.17,318.65h-29.01V151.79h29.01V318.65z M781.94,318.65h42.93l-99.56-81.69l99.56-85.17h-42.93
				l-82.85,71.01c-5.57,4.8-8.35,9.28-8.35,13.46c0,4.03,2.78,8.43,8.35,13.23L781.94,318.65z"/>
			<path class="st1" d="M989.69,271.77h-79.18l17.67-29.01h44.18l-29.04-48.05l-75.3,123.7h-37.35l90.5-150.85
				c2.94-4.79,6.73-8.74,11.37-11.83c4.02-2.78,7.58-4.25,10.68-4.41c3.4-0.31,7.2,0.85,11.37,3.48c4.79,3.1,8.82,7.35,12.07,12.76
				l88.65,150.84h-37.41L989.69,271.77z"/>
			<path class="st1" d="M1151.62,180.8v137.85h-29.01V180.8h-65.91v-29.01h160.59v29.01H1151.62z"/>
			<path class="st1" d="M1264.4,318.65h-29.01V151.79h29.01V318.65z M1375.56,220.25v-68.46h29.01v166.86h-29.01v-69.39h-98.16
				v-29.01H1375.56z"/>
			<path class="st1" d="M1801.4,310.3l-106.98-107.54v115.89h-29.01V166.41c0-4.49,1.16-8.04,3.48-10.67
				c2.32-2.63,5.34-3.94,9.05-3.94c5.41,0,10.91,2.86,16.48,8.59l106.98,107.21v-115.8h29.01v152.47c0,10.67-3.64,16.01-10.91,16.01
				C1814.08,320.27,1808.04,316.95,1801.4,310.3z"/>
			<g>
				<path class="st1" d="M1508.25,65.5l11.07-7.29c1.86-1.23,2.38-3.73,1.15-5.6l-7.29-11.07c-1.23-1.86-3.73-2.38-5.6-1.15
					l-11.07,7.29c-1.86,1.23-2.38,3.73-1.15,5.6l7.29,11.07C1503.88,66.21,1506.39,66.73,1508.25,65.5z"/>
				<path class="st1" d="M1622.18,285.54c15-19.79,23.53-44.55,22.64-69.39c-1.5-41.94-29.74-81.73-68.84-96.98
					c-0.8-0.31-1.61-0.61-2.47-0.8l-26.3,17.33c33.38,4.21,63.04,30.12,71.6,62.68c8.68,32.91-4.75,70.5-32.29,90.48
					c-27.54,19.98-67.44,21.05-96.02,2.59c-28.6-18.47-44.03-55.27-37.15-88.6c6.78-32.85,34.83-60.23,67.79-66.39l-13.82-20.97
					c-2.61,0.61-8.65,3.15-9.5,3.49c-3.63,1.42-7.17,3.05-10.62,4.87c-6.91,3.63-13.43,8.02-19.42,13.02
					c-11.97,10-21.9,22.51-28.71,36.56c-12.93,26.66-13.31,58.05-2.8,85.57c6.15,16.12,16,30.86,28.98,42.27
					c31.53,27.7,79.86,34.48,117.79,16.5C1598.5,310.44,1611.87,299.17,1622.18,285.54z"/>
				<path class="st1" d="M1594.36,251.85c0.21-0.39,0.42-0.78,0.62-1.18c9.01-17.33,10.79-39.22,1.88-56.95
					c-3.38-7.13-7.37-14.08-12.91-19.74c-4.86-4.92-10.48-9.23-16.72-12.29c-1.78-0.89-3.63-1.67-5.52-2.34l5.74,8.71
					c0.82,1.24,0.47,2.91-0.77,3.72l-25.3,16.67c-1.24,0.82-2.91,0.47-3.72-0.77l-20.29-30.78c0,0-6.46,1.39-14.69,6.45
					c-0.01,0.01-0.02,0.01-0.02,0.01c-2.97,1.84-6.18,4.16-9.4,7.06c-0.54,0.48-1.08,0.98-1.61,1.49l12.63,19.17
					c0.4,0.6,0.23,1.41-0.37,1.81l-16.71,11.01c-0.6,0.4-1.41,0.23-1.81-0.37l-8.3-12.6c-2.04,4.86-3.71,9.87-4.87,14.97
					c-0.95,4.16-1.57,8.4-1.78,12.69c-0.01,17.47,6.44,34.77,19.12,47.12c14.41,14.03,32.34,21.73,52.91,19.57
					c10.8-1.13,21.89-5.23,31.42-11.55C1582.44,268.07,1589.72,260.59,1594.36,251.85z M1530.55,220.48
					c-0.92,0.61-2.17,0.35-2.78-0.57l-9.66-14.65c-0.61-0.92-0.35-2.16,0.57-2.77l14.67-9.67c0.92-0.61,2.16-0.35,2.77,0.57
					l9.66,14.65c0.61,0.92,0.35,2.17-0.57,2.78L1530.55,220.48z"/>
				<path class="st1" d="M1536.15,131.18l26.6-17.53c1.86-1.23,2.38-3.73,1.15-5.6l-17.53-26.6c-1.23-1.86-3.73-2.38-5.6-1.15
					l-26.6,17.53c-1.86,1.23-2.38,3.73-1.15,5.6l17.53,26.6C1531.79,131.89,1534.29,132.4,1536.15,131.18z"/>
				<path class="st1" d="M1495.99,86.9l-12.24-18.57c-1.23-1.86-3.73-2.38-5.6-1.15l-18.57,12.24c-1.86,1.23-2.38,3.73-1.15,5.6
					l12.24,18.57c1.23,1.86,3.73,2.38,5.6,1.15l18.57-12.24C1496.7,91.27,1497.22,88.76,1495.99,86.9z"/>
			</g>
		</g>
	</g>
	<line class="st2" x1="34.64" y1="371.92" x2="1829.77" y2="371.92"/>
	<g>
		<g>
			<path class="st1" d="M39.58,477.33v-10.96h47.03c5.87,0,9.15-3.28,9.15-8.2c0-5.35-3.28-8.11-9.15-8.11H57.79
				c-11.82,0-19.16-7.51-19.16-17.86c0-10.1,6.82-17.6,19.33-17.6H103v10.96H57.96c-5,0-7.94,2.93-7.94,7.68
				c0,4.75,3.02,7.59,7.85,7.59h28.73c12.68,0,19.5,5.95,19.5,18.12c0,10.53-6.39,18.38-19.5,18.38H39.58z"/>
			<path class="st1" d="M148.4,477.33c-17.52,0-30.46-13.81-30.46-32.01c0-18.47,12.94-30.72,30.46-30.72h15.27
				c18.12,0,30.72,12.51,30.72,30.72c0,18.21-12.86,32.01-30.72,32.01H148.4z M163.67,466.37c11.56,0,19.76-8.71,19.76-20.54
				s-8.2-20.28-19.76-20.28H148.4c-11.22,0-19.5,8.37-19.5,20.28c0,11.82,8.2,20.54,19.5,20.54H163.67z"/>
			<path class="st1" d="M207.51,477.33v-10.96h47.03c5.87,0,9.15-3.28,9.15-8.2c0-5.35-3.28-8.11-9.15-8.11h-28.82
				c-11.82,0-19.16-7.51-19.16-17.86c0-10.1,6.82-17.6,19.33-17.6h45.04v10.96h-45.04c-5,0-7.94,2.93-7.94,7.68
				c0,4.75,3.02,7.59,7.85,7.59h28.73c12.68,0,19.5,5.95,19.5,18.12c0,10.53-6.39,18.38-19.5,18.38H207.51z"/>
			<path class="st1" d="M307.78,477.33v-51.77h-23.82V414.6h58.59v10.96h-23.82v51.77H307.78z"/>
			<path class="st1" d="M354.04,477.33V414.6h56v10.96h-45.13v40.81h45.21v10.96H354.04z M372.94,450.06v-9.23h34.77v9.23H372.94z"
				/>
			<path class="st1" d="M433.95,431.43v45.91h-10.44v-56.95c0-4.06,2.16-6.56,5.61-6.56c1.64,0,3.02,0.6,4.66,2.24l44.27,43.92
				v-45.91h10.44v57.47c0,4.14-2.24,6.56-5.44,6.56c-1.81,0-3.45-0.78-5-2.33L433.95,431.43z"/>
			<path class="st1" d="M503.93,477.33V414.6h10.96v62.73H503.93z"/>
			<path class="st1" d="M530.51,477.33V414.6h45.91c12.25,0,20.36,5.52,20.36,16.22c0,7.94-4.06,11.91-8.72,13.38
				c5.69,1.81,9.84,6.82,9.84,14.15c0,11.48-7.94,18.98-20.19,18.98H530.51z M549.41,450.06v-9.23h27.09c6.21,0,9.15-2.16,9.15-7.59
				c0-6.64-5.26-7.68-13.38-7.68h-30.8v40.9h31.75c7.85,0,13.55-2.16,13.55-8.28c0-5.18-3.37-8.11-9.49-8.11H549.41z"/>
			<path class="st1" d="M612.32,477.33V414.6h10.96v62.73H612.32z"/>
			<path class="st1" d="M638.98,477.33V414.6h10.96v51.77h42.19v10.96H638.98z"/>
			<path class="st1" d="M704.83,477.33V414.6h10.96v62.73H704.83z"/>
			<path class="st1" d="M731.49,477.33V414.6h36.33c17.69,0,30.55,12.51,30.55,30.72c0,18.21-12.86,32.01-30.55,32.01H731.49z
				 M767.82,466.37c11.3,0,19.59-8.71,19.59-20.54s-8.28-20.28-19.59-20.28h-25.46v40.81H767.82z"/>
			<path class="st1" d="M868.61,477.33l-9.41-15.79h-29.68l5.18-8.89h19.24l-13.98-23.47l-28.48,48.15h-12.51l36.07-60.06
				c1.29-2.16,2.93-3.54,5.35-3.54s3.97,1.38,5.26,3.54l36.15,60.06H868.61z"/>
			<path class="st1" d="M892.78,477.33V414.6h36.33c17.69,0,30.55,12.51,30.55,30.72c0,18.21-12.86,32.01-30.55,32.01H892.78z
				 M929.11,466.37c11.3,0,19.59-8.71,19.59-20.54s-8.28-20.28-19.59-20.28h-25.46v40.81H929.11z"/>
			<path class="st1" d="M1031.45,477.33v-23.82l-33.31-38.92h14.76l24.42,28.91l24.51-28.91h13.98l-33.39,38.92v23.82H1031.45z"/>
			<path class="st1" d="M1194.29,477.33l-11.99-44.09l-17.78,40.81c-1.21,2.67-2.93,4.14-5.61,4.14c-2.59,0-4.49-1.47-5.61-4.14
				l-17.69-40.81l-11.99,44.09h-10.79l16.14-59.02c0.78-3.02,2.5-4.49,5.44-4.49c2.33,0,4.49,1.29,5.52,3.71l19.33,44.35
				l19.33-44.35c1.04-2.42,2.93-3.71,5.26-3.71c2.68,0,4.4,1.47,5.26,4.49l16.05,59.02H1194.29z"/>
			<path class="st1" d="M1241.84,477.33c-17.52,0-30.46-13.81-30.46-32.01c0-18.47,12.94-30.72,30.46-30.72h15.27
				c18.12,0,30.72,12.51,30.72,30.72c0,18.21-12.86,32.01-30.72,32.01H1241.84z M1257.12,466.37c11.56,0,19.76-8.71,19.76-20.54
				s-8.2-20.28-19.76-20.28h-15.27c-11.22,0-19.5,8.37-19.5,20.28c0,11.82,8.2,20.54,19.5,20.54H1257.12z"/>
			<path class="st1" d="M1288.36,414.6h13.38l28.47,48.32l28.39-48.32h12.6l-36.16,60.06c-1.29,2.16-3.02,3.54-5.26,3.54
				c-2.42,0-4.06-1.38-5.35-3.54L1288.36,414.6z"/>
			<path class="st1" d="M1382.76,477.33V414.6h10.96v62.73H1382.76z"/>
			<path class="st1" d="M1487.52,477.33l-11.99-44.09l-17.78,40.81c-1.21,2.67-2.93,4.14-5.61,4.14c-2.59,0-4.49-1.47-5.61-4.14
				l-17.69-40.81l-11.99,44.09h-10.79l16.14-59.02c0.78-3.02,2.5-4.49,5.44-4.49c2.33,0,4.49,1.29,5.52,3.71l19.33,44.35
				l19.33-44.35c1.04-2.42,2.93-3.71,5.26-3.71c2.68,0,4.4,1.47,5.26,4.49l16.05,59.02H1487.52z"/>
			<path class="st1" d="M1510.48,477.33V414.6h10.96v62.73H1510.48z"/>
			<path class="st1" d="M1537.15,477.33V414.6h56v10.96h-45.13v40.81h45.21v10.96H1537.15z M1556.04,450.06v-9.23h34.77v9.23
				H1556.04z"/>
			<path class="st1" d="M1617.05,431.43v45.91h-10.44v-56.95c0-4.06,2.16-6.56,5.61-6.56c1.64,0,3.02,0.6,4.66,2.24l44.27,43.92
				v-45.91h10.44v57.47c0,4.14-2.24,6.56-5.44,6.56c-1.81,0-3.45-0.78-5-2.33L1617.05,431.43z"/>
			<path class="st1" d="M1706.54,477.33v-51.77h-23.82V414.6h58.59v10.96h-23.82v51.77H1706.54z"/>
			<path class="st1" d="M1779.98,477.33c-17.52,0-30.46-13.81-30.46-32.01c0-18.47,12.94-30.72,30.46-30.72h15.27
				c18.12,0,30.72,12.51,30.72,30.72c0,18.21-12.86,32.01-30.72,32.01H1779.98z M1795.25,466.37c11.56,0,19.76-8.71,19.76-20.54
				s-8.2-20.28-19.76-20.28h-15.27c-11.22,0-19.5,8.37-19.5,20.28c0,11.82,8.2,20.54,19.5,20.54H1795.25z"/>
		</g>
	</g>
	<g>
		<path class="st1" d="M1945.65,478.64h-22.67c-7.56,0-13.07-2.09-16.55-6.28c-3.47-4.18-5.21-10.29-5.21-18.32v-25.2
			c0-1.55-0.44-2.8-1.32-3.75c-0.88-0.94-2.19-1.42-3.95-1.42c-1.75,0-3.07,0.47-3.95,1.42c-0.88,0.95-1.32,2.19-1.32,3.75v49.09
			h-18.62v-49.09c0-3.98,0.56-7.51,1.67-10.58c1.11-3.07,2.63-5.63,4.55-7.69c1.92-2.06,4.22-3.63,6.88-4.71
			c2.67-1.08,5.55-1.62,8.65-1.62c3.17,0,6.07,0.56,8.71,1.67s4.89,2.73,6.78,4.86c1.89,2.13,3.36,4.69,4.4,7.69
			c1.05,3,1.57,6.39,1.57,10.17v25.41c0,2.16,0.54,3.85,1.62,5.06c1.08,1.21,2.53,1.82,4.35,1.82h5.67v-55.47h18.73V478.64z"/>
		<path class="st1" d="M1908.1,317.8c5.33,0,10.34,1.01,15.03,3.04c4.69,2.02,8.77,4.81,12.25,8.35c3.48,3.54,6.21,7.73,8.2,12.55
			c1.99,4.83,2.99,10.01,2.99,15.54c0,5.6-1,10.8-2.99,15.59c-1.99,4.79-4.72,8.96-8.2,12.5c-3.47,3.54-7.56,6.33-12.25,8.35
			c-4.69,2.03-9.7,3.04-15.03,3.04c-5.4,0-10.36-1.01-14.88-3.04c-4.52-2.02-8.42-4.81-11.69-8.35c-3.27-3.54-5.82-7.71-7.64-12.5
			c-1.82-4.79-2.73-9.99-2.73-15.59c0-5.53,0.91-10.71,2.73-15.54c1.82-4.82,4.37-9.01,7.64-12.55c3.27-3.54,7.17-6.33,11.69-8.35
			C1897.74,318.81,1902.7,317.8,1908.1,317.8z M1909.01,336.63c-2.7,0-5.21,0.4-7.54,1.21c-2.33,0.81-4.35,2.06-6.07,3.75
			c-1.72,1.69-3.07,3.83-4.05,6.43c-0.98,2.6-1.47,5.69-1.47,9.26c0,3.58,0.49,6.68,1.47,9.31c0.98,2.63,2.33,4.79,4.05,6.48
			c1.72,1.69,3.75,2.94,6.07,3.75s4.84,1.21,7.54,1.21c2.77,0,5.3-0.41,7.59-1.21c2.29-0.81,4.27-2.06,5.92-3.75
			c1.65-1.69,2.95-3.83,3.9-6.43c0.95-2.6,1.42-5.68,1.42-9.26c0-3.64-0.47-6.76-1.42-9.36c-0.94-2.6-2.24-4.74-3.9-6.43
			c-1.65-1.69-3.63-2.94-5.92-3.75C1914.31,337.03,1911.78,336.63,1909.01,336.63z"/>
		<path class="st1" d="M1945.65,309.19h-22.67c-7.56,0-13.07-2.09-16.55-6.28c-3.47-4.18-5.21-10.29-5.21-18.32v-25.2
			c0-1.55-0.44-2.8-1.32-3.75c-0.88-0.94-2.19-1.42-3.95-1.42c-1.75,0-3.07,0.47-3.95,1.42c-0.88,0.95-1.32,2.19-1.32,3.75v49.09
			h-18.62v-49.09c0-3.98,0.56-7.51,1.67-10.58c1.11-3.07,2.63-5.63,4.55-7.69c1.92-2.06,4.22-3.63,6.88-4.71
			c2.67-1.08,5.55-1.62,8.65-1.62c3.17,0,6.07,0.56,8.71,1.67s4.89,2.73,6.78,4.86c1.89,2.13,3.36,4.69,4.4,7.69
			c1.05,3,1.57,6.39,1.57,10.17v25.41c0,2.16,0.54,3.85,1.62,5.06c1.08,1.21,2.53,1.82,4.35,1.82h5.67v-55.47h18.73V309.19z"/>
		<path class="st1" d="M1945.65,226.9h-18.73v-51.42c0-2.16-0.54-3.73-1.62-4.71c-1.08-0.98-2.5-1.47-4.25-1.47
			c-1.75,0-3.15,0.49-4.2,1.47c-1.04,0.98-1.57,2.55-1.57,4.71v33.4h-14.07v-32.09c0-2.16-0.49-3.73-1.47-4.71
			c-0.98-0.98-2.24-1.47-3.8-1.47c-1.55,0-2.83,0.49-3.85,1.47c-1.01,0.98-1.52,2.55-1.52,4.71v49.8h-18.52v-49.4
			c0-3.85,0.4-7.34,1.21-10.48c0.81-3.14,2.03-5.82,3.64-8.05c1.62-2.23,3.63-3.95,6.02-5.16c2.4-1.21,5.21-1.82,8.45-1.82
			c2.16,0,4.03,0.22,5.62,0.66c1.59,0.44,2.97,1,4.15,1.67c1.18,0.68,2.18,1.4,2.99,2.18c0.81,0.78,1.45,1.5,1.92,2.18
			c1.28-2.16,3.26-4.1,5.92-5.82c2.67-1.72,5.72-2.58,9.16-2.58c3.91,0,7.39,0.62,10.43,1.87c3.04,1.25,5.6,2.97,7.69,5.16
			c2.09,2.19,3.68,4.83,4.76,7.9c1.08,3.07,1.62,6.43,1.62,10.07V226.9z"/>
	</g>
</g>
</svg>
